G04 #@! TF.GenerationSoftware,KiCad,Pcbnew,7.0.1-0*
G04 #@! TF.CreationDate,2023-11-21T15:01:45-05:00*
G04 #@! TF.ProjectId,CosmicWatch,436f736d-6963-4576-9174-63682e6b6963,rev?*
G04 #@! TF.SameCoordinates,Original*
G04 #@! TF.FileFunction,Legend,Top*
G04 #@! TF.FilePolarity,Positive*
%FSLAX46Y46*%
G04 Gerber Fmt 4.6, Leading zero omitted, Abs format (unit mm)*
G04 Created by KiCad (PCBNEW 7.0.1-0) date 2023-11-21 15:01:45*
%MOMM*%
%LPD*%
G01*
G04 APERTURE LIST*
%ADD10C,0.150000*%
%ADD11C,0.200000*%
%ADD12C,0.250000*%
%ADD13C,0.120000*%
%ADD14C,0.010000*%
%ADD15C,2.032000*%
%ADD16C,2.000000*%
%ADD17C,3.650000*%
%ADD18R,4.000000X1.500000*%
G04 APERTURE END LIST*
D10*
X59675000Y-127775000D02*
X59475000Y-127775000D01*
X100198630Y-64724977D02*
X98548630Y-64724977D01*
X92696428Y-140807000D02*
X92810714Y-140845095D01*
X92810714Y-140845095D02*
X93001190Y-140845095D01*
X93001190Y-140845095D02*
X93077381Y-140807000D01*
X93077381Y-140807000D02*
X93115476Y-140768904D01*
X93115476Y-140768904D02*
X93153571Y-140692714D01*
X93153571Y-140692714D02*
X93153571Y-140616523D01*
X93153571Y-140616523D02*
X93115476Y-140540333D01*
X93115476Y-140540333D02*
X93077381Y-140502238D01*
X93077381Y-140502238D02*
X93001190Y-140464142D01*
X93001190Y-140464142D02*
X92848809Y-140426047D01*
X92848809Y-140426047D02*
X92772619Y-140387952D01*
X92772619Y-140387952D02*
X92734524Y-140349857D01*
X92734524Y-140349857D02*
X92696428Y-140273666D01*
X92696428Y-140273666D02*
X92696428Y-140197476D01*
X92696428Y-140197476D02*
X92734524Y-140121285D01*
X92734524Y-140121285D02*
X92772619Y-140083190D01*
X92772619Y-140083190D02*
X92848809Y-140045095D01*
X92848809Y-140045095D02*
X93039286Y-140045095D01*
X93039286Y-140045095D02*
X93153571Y-140083190D01*
X93496429Y-140311761D02*
X93496429Y-141111761D01*
X93496429Y-140349857D02*
X93572619Y-140311761D01*
X93572619Y-140311761D02*
X93725000Y-140311761D01*
X93725000Y-140311761D02*
X93801191Y-140349857D01*
X93801191Y-140349857D02*
X93839286Y-140387952D01*
X93839286Y-140387952D02*
X93877381Y-140464142D01*
X93877381Y-140464142D02*
X93877381Y-140692714D01*
X93877381Y-140692714D02*
X93839286Y-140768904D01*
X93839286Y-140768904D02*
X93801191Y-140807000D01*
X93801191Y-140807000D02*
X93725000Y-140845095D01*
X93725000Y-140845095D02*
X93572619Y-140845095D01*
X93572619Y-140845095D02*
X93496429Y-140807000D01*
X94525001Y-140807000D02*
X94448810Y-140845095D01*
X94448810Y-140845095D02*
X94296429Y-140845095D01*
X94296429Y-140845095D02*
X94220239Y-140807000D01*
X94220239Y-140807000D02*
X94182143Y-140730809D01*
X94182143Y-140730809D02*
X94182143Y-140426047D01*
X94182143Y-140426047D02*
X94220239Y-140349857D01*
X94220239Y-140349857D02*
X94296429Y-140311761D01*
X94296429Y-140311761D02*
X94448810Y-140311761D01*
X94448810Y-140311761D02*
X94525001Y-140349857D01*
X94525001Y-140349857D02*
X94563096Y-140426047D01*
X94563096Y-140426047D02*
X94563096Y-140502238D01*
X94563096Y-140502238D02*
X94182143Y-140578428D01*
X94905953Y-140311761D02*
X94905953Y-140845095D01*
X94905953Y-140387952D02*
X94944048Y-140349857D01*
X94944048Y-140349857D02*
X95020238Y-140311761D01*
X95020238Y-140311761D02*
X95134524Y-140311761D01*
X95134524Y-140311761D02*
X95210715Y-140349857D01*
X95210715Y-140349857D02*
X95248810Y-140426047D01*
X95248810Y-140426047D02*
X95248810Y-140845095D01*
X95972620Y-140807000D02*
X95896429Y-140845095D01*
X95896429Y-140845095D02*
X95744048Y-140845095D01*
X95744048Y-140845095D02*
X95667858Y-140807000D01*
X95667858Y-140807000D02*
X95629763Y-140768904D01*
X95629763Y-140768904D02*
X95591667Y-140692714D01*
X95591667Y-140692714D02*
X95591667Y-140464142D01*
X95591667Y-140464142D02*
X95629763Y-140387952D01*
X95629763Y-140387952D02*
X95667858Y-140349857D01*
X95667858Y-140349857D02*
X95744048Y-140311761D01*
X95744048Y-140311761D02*
X95896429Y-140311761D01*
X95896429Y-140311761D02*
X95972620Y-140349857D01*
X96620239Y-140807000D02*
X96544048Y-140845095D01*
X96544048Y-140845095D02*
X96391667Y-140845095D01*
X96391667Y-140845095D02*
X96315477Y-140807000D01*
X96315477Y-140807000D02*
X96277381Y-140730809D01*
X96277381Y-140730809D02*
X96277381Y-140426047D01*
X96277381Y-140426047D02*
X96315477Y-140349857D01*
X96315477Y-140349857D02*
X96391667Y-140311761D01*
X96391667Y-140311761D02*
X96544048Y-140311761D01*
X96544048Y-140311761D02*
X96620239Y-140349857D01*
X96620239Y-140349857D02*
X96658334Y-140426047D01*
X96658334Y-140426047D02*
X96658334Y-140502238D01*
X96658334Y-140502238D02*
X96277381Y-140578428D01*
X97001191Y-140845095D02*
X97001191Y-140311761D01*
X97001191Y-140464142D02*
X97039286Y-140387952D01*
X97039286Y-140387952D02*
X97077381Y-140349857D01*
X97077381Y-140349857D02*
X97153572Y-140311761D01*
X97153572Y-140311761D02*
X97229762Y-140311761D01*
X98105953Y-140845095D02*
X98105953Y-140045095D01*
X98105953Y-140045095D02*
X98563096Y-140845095D01*
X98563096Y-140845095D02*
X98563096Y-140045095D01*
X98944048Y-140768904D02*
X98982143Y-140807000D01*
X98982143Y-140807000D02*
X98944048Y-140845095D01*
X98944048Y-140845095D02*
X98905952Y-140807000D01*
X98905952Y-140807000D02*
X98944048Y-140768904D01*
X98944048Y-140768904D02*
X98944048Y-140845095D01*
X99896428Y-140616523D02*
X100277381Y-140616523D01*
X99820238Y-140845095D02*
X100086905Y-140045095D01*
X100086905Y-140045095D02*
X100353571Y-140845095D01*
X100544047Y-140845095D02*
X100963095Y-140311761D01*
X100544047Y-140311761D02*
X100963095Y-140845095D01*
X101610714Y-140845095D02*
X101610714Y-140426047D01*
X101610714Y-140426047D02*
X101572619Y-140349857D01*
X101572619Y-140349857D02*
X101496428Y-140311761D01*
X101496428Y-140311761D02*
X101344047Y-140311761D01*
X101344047Y-140311761D02*
X101267857Y-140349857D01*
X101610714Y-140807000D02*
X101534523Y-140845095D01*
X101534523Y-140845095D02*
X101344047Y-140845095D01*
X101344047Y-140845095D02*
X101267857Y-140807000D01*
X101267857Y-140807000D02*
X101229761Y-140730809D01*
X101229761Y-140730809D02*
X101229761Y-140654619D01*
X101229761Y-140654619D02*
X101267857Y-140578428D01*
X101267857Y-140578428D02*
X101344047Y-140540333D01*
X101344047Y-140540333D02*
X101534523Y-140540333D01*
X101534523Y-140540333D02*
X101610714Y-140502238D01*
X101991667Y-140311761D02*
X101991667Y-140845095D01*
X101991667Y-140387952D02*
X102029762Y-140349857D01*
X102029762Y-140349857D02*
X102105952Y-140311761D01*
X102105952Y-140311761D02*
X102220238Y-140311761D01*
X102220238Y-140311761D02*
X102296429Y-140349857D01*
X102296429Y-140349857D02*
X102334524Y-140426047D01*
X102334524Y-140426047D02*
X102334524Y-140845095D01*
X102715477Y-140845095D02*
X102715477Y-140311761D01*
X102715477Y-140045095D02*
X102677381Y-140083190D01*
X102677381Y-140083190D02*
X102715477Y-140121285D01*
X102715477Y-140121285D02*
X102753572Y-140083190D01*
X102753572Y-140083190D02*
X102715477Y-140045095D01*
X102715477Y-140045095D02*
X102715477Y-140121285D01*
X103909285Y-141039857D02*
X103871190Y-141001761D01*
X103871190Y-141001761D02*
X103794999Y-140887476D01*
X103794999Y-140887476D02*
X103756904Y-140811285D01*
X103756904Y-140811285D02*
X103718809Y-140697000D01*
X103718809Y-140697000D02*
X103680714Y-140506523D01*
X103680714Y-140506523D02*
X103680714Y-140354142D01*
X103680714Y-140354142D02*
X103718809Y-140163666D01*
X103718809Y-140163666D02*
X103756904Y-140049380D01*
X103756904Y-140049380D02*
X103794999Y-139973190D01*
X103794999Y-139973190D02*
X103871190Y-139858904D01*
X103871190Y-139858904D02*
X103909285Y-139820809D01*
X104175951Y-140697000D02*
X104252142Y-140735095D01*
X104252142Y-140735095D02*
X104404523Y-140735095D01*
X104404523Y-140735095D02*
X104480713Y-140697000D01*
X104480713Y-140697000D02*
X104518809Y-140620809D01*
X104518809Y-140620809D02*
X104518809Y-140582714D01*
X104518809Y-140582714D02*
X104480713Y-140506523D01*
X104480713Y-140506523D02*
X104404523Y-140468428D01*
X104404523Y-140468428D02*
X104290237Y-140468428D01*
X104290237Y-140468428D02*
X104214047Y-140430333D01*
X104214047Y-140430333D02*
X104175951Y-140354142D01*
X104175951Y-140354142D02*
X104175951Y-140316047D01*
X104175951Y-140316047D02*
X104214047Y-140239857D01*
X104214047Y-140239857D02*
X104290237Y-140201761D01*
X104290237Y-140201761D02*
X104404523Y-140201761D01*
X104404523Y-140201761D02*
X104480713Y-140239857D01*
X105204523Y-140735095D02*
X105204523Y-140316047D01*
X105204523Y-140316047D02*
X105166428Y-140239857D01*
X105166428Y-140239857D02*
X105090237Y-140201761D01*
X105090237Y-140201761D02*
X104937856Y-140201761D01*
X104937856Y-140201761D02*
X104861666Y-140239857D01*
X105204523Y-140697000D02*
X105128332Y-140735095D01*
X105128332Y-140735095D02*
X104937856Y-140735095D01*
X104937856Y-140735095D02*
X104861666Y-140697000D01*
X104861666Y-140697000D02*
X104823570Y-140620809D01*
X104823570Y-140620809D02*
X104823570Y-140544619D01*
X104823570Y-140544619D02*
X104861666Y-140468428D01*
X104861666Y-140468428D02*
X104937856Y-140430333D01*
X104937856Y-140430333D02*
X105128332Y-140430333D01*
X105128332Y-140430333D02*
X105204523Y-140392238D01*
X105509285Y-140735095D02*
X105928333Y-140201761D01*
X105509285Y-140201761D02*
X105928333Y-140735095D01*
X106575952Y-140735095D02*
X106575952Y-140316047D01*
X106575952Y-140316047D02*
X106537857Y-140239857D01*
X106537857Y-140239857D02*
X106461666Y-140201761D01*
X106461666Y-140201761D02*
X106309285Y-140201761D01*
X106309285Y-140201761D02*
X106233095Y-140239857D01*
X106575952Y-140697000D02*
X106499761Y-140735095D01*
X106499761Y-140735095D02*
X106309285Y-140735095D01*
X106309285Y-140735095D02*
X106233095Y-140697000D01*
X106233095Y-140697000D02*
X106194999Y-140620809D01*
X106194999Y-140620809D02*
X106194999Y-140544619D01*
X106194999Y-140544619D02*
X106233095Y-140468428D01*
X106233095Y-140468428D02*
X106309285Y-140430333D01*
X106309285Y-140430333D02*
X106499761Y-140430333D01*
X106499761Y-140430333D02*
X106575952Y-140392238D01*
X106956905Y-140201761D02*
X106956905Y-140735095D01*
X106956905Y-140277952D02*
X106995000Y-140239857D01*
X106995000Y-140239857D02*
X107071190Y-140201761D01*
X107071190Y-140201761D02*
X107185476Y-140201761D01*
X107185476Y-140201761D02*
X107261667Y-140239857D01*
X107261667Y-140239857D02*
X107299762Y-140316047D01*
X107299762Y-140316047D02*
X107299762Y-140735095D01*
X107680715Y-140735095D02*
X107680715Y-140201761D01*
X107680715Y-139935095D02*
X107642619Y-139973190D01*
X107642619Y-139973190D02*
X107680715Y-140011285D01*
X107680715Y-140011285D02*
X107718810Y-139973190D01*
X107718810Y-139973190D02*
X107680715Y-139935095D01*
X107680715Y-139935095D02*
X107680715Y-140011285D01*
X108556905Y-140354142D02*
X108518810Y-140316047D01*
X108518810Y-140316047D02*
X108442619Y-140277952D01*
X108442619Y-140277952D02*
X108366429Y-140277952D01*
X108366429Y-140277952D02*
X108290238Y-140316047D01*
X108290238Y-140316047D02*
X108252143Y-140354142D01*
X108252143Y-140354142D02*
X108214048Y-140430333D01*
X108214048Y-140430333D02*
X108214048Y-140506523D01*
X108214048Y-140506523D02*
X108252143Y-140582714D01*
X108252143Y-140582714D02*
X108290238Y-140620809D01*
X108290238Y-140620809D02*
X108366429Y-140658904D01*
X108366429Y-140658904D02*
X108442619Y-140658904D01*
X108442619Y-140658904D02*
X108518810Y-140620809D01*
X108518810Y-140620809D02*
X108556905Y-140582714D01*
X108556905Y-140277952D02*
X108556905Y-140582714D01*
X108556905Y-140582714D02*
X108595000Y-140620809D01*
X108595000Y-140620809D02*
X108633095Y-140620809D01*
X108633095Y-140620809D02*
X108709286Y-140582714D01*
X108709286Y-140582714D02*
X108747381Y-140506523D01*
X108747381Y-140506523D02*
X108747381Y-140316047D01*
X108747381Y-140316047D02*
X108671191Y-140201761D01*
X108671191Y-140201761D02*
X108556905Y-140125571D01*
X108556905Y-140125571D02*
X108404524Y-140087476D01*
X108404524Y-140087476D02*
X108252143Y-140125571D01*
X108252143Y-140125571D02*
X108137857Y-140201761D01*
X108137857Y-140201761D02*
X108061667Y-140316047D01*
X108061667Y-140316047D02*
X108023571Y-140468428D01*
X108023571Y-140468428D02*
X108061667Y-140620809D01*
X108061667Y-140620809D02*
X108137857Y-140735095D01*
X108137857Y-140735095D02*
X108252143Y-140811285D01*
X108252143Y-140811285D02*
X108404524Y-140849380D01*
X108404524Y-140849380D02*
X108556905Y-140811285D01*
X108556905Y-140811285D02*
X108671191Y-140735095D01*
X109433095Y-140201761D02*
X109433095Y-140735095D01*
X109090238Y-140201761D02*
X109090238Y-140620809D01*
X109090238Y-140620809D02*
X109128333Y-140697000D01*
X109128333Y-140697000D02*
X109204523Y-140735095D01*
X109204523Y-140735095D02*
X109318809Y-140735095D01*
X109318809Y-140735095D02*
X109395000Y-140697000D01*
X109395000Y-140697000D02*
X109433095Y-140658904D01*
X110156905Y-140735095D02*
X110156905Y-139935095D01*
X110156905Y-140697000D02*
X110080714Y-140735095D01*
X110080714Y-140735095D02*
X109928333Y-140735095D01*
X109928333Y-140735095D02*
X109852143Y-140697000D01*
X109852143Y-140697000D02*
X109814048Y-140658904D01*
X109814048Y-140658904D02*
X109775952Y-140582714D01*
X109775952Y-140582714D02*
X109775952Y-140354142D01*
X109775952Y-140354142D02*
X109814048Y-140277952D01*
X109814048Y-140277952D02*
X109852143Y-140239857D01*
X109852143Y-140239857D02*
X109928333Y-140201761D01*
X109928333Y-140201761D02*
X110080714Y-140201761D01*
X110080714Y-140201761D02*
X110156905Y-140239857D01*
X110842620Y-140697000D02*
X110766429Y-140735095D01*
X110766429Y-140735095D02*
X110614048Y-140735095D01*
X110614048Y-140735095D02*
X110537858Y-140697000D01*
X110537858Y-140697000D02*
X110499762Y-140620809D01*
X110499762Y-140620809D02*
X110499762Y-140316047D01*
X110499762Y-140316047D02*
X110537858Y-140239857D01*
X110537858Y-140239857D02*
X110614048Y-140201761D01*
X110614048Y-140201761D02*
X110766429Y-140201761D01*
X110766429Y-140201761D02*
X110842620Y-140239857D01*
X110842620Y-140239857D02*
X110880715Y-140316047D01*
X110880715Y-140316047D02*
X110880715Y-140392238D01*
X110880715Y-140392238D02*
X110499762Y-140468428D01*
X111337857Y-140735095D02*
X111261667Y-140697000D01*
X111261667Y-140697000D02*
X111223572Y-140620809D01*
X111223572Y-140620809D02*
X111223572Y-139935095D01*
X111642620Y-140658904D02*
X111680715Y-140697000D01*
X111680715Y-140697000D02*
X111642620Y-140735095D01*
X111642620Y-140735095D02*
X111604524Y-140697000D01*
X111604524Y-140697000D02*
X111642620Y-140658904D01*
X111642620Y-140658904D02*
X111642620Y-140735095D01*
X112328334Y-140697000D02*
X112252143Y-140735095D01*
X112252143Y-140735095D02*
X112099762Y-140735095D01*
X112099762Y-140735095D02*
X112023572Y-140697000D01*
X112023572Y-140697000D02*
X111985476Y-140620809D01*
X111985476Y-140620809D02*
X111985476Y-140316047D01*
X111985476Y-140316047D02*
X112023572Y-140239857D01*
X112023572Y-140239857D02*
X112099762Y-140201761D01*
X112099762Y-140201761D02*
X112252143Y-140201761D01*
X112252143Y-140201761D02*
X112328334Y-140239857D01*
X112328334Y-140239857D02*
X112366429Y-140316047D01*
X112366429Y-140316047D02*
X112366429Y-140392238D01*
X112366429Y-140392238D02*
X111985476Y-140468428D01*
X113052143Y-140735095D02*
X113052143Y-139935095D01*
X113052143Y-140697000D02*
X112975952Y-140735095D01*
X112975952Y-140735095D02*
X112823571Y-140735095D01*
X112823571Y-140735095D02*
X112747381Y-140697000D01*
X112747381Y-140697000D02*
X112709286Y-140658904D01*
X112709286Y-140658904D02*
X112671190Y-140582714D01*
X112671190Y-140582714D02*
X112671190Y-140354142D01*
X112671190Y-140354142D02*
X112709286Y-140277952D01*
X112709286Y-140277952D02*
X112747381Y-140239857D01*
X112747381Y-140239857D02*
X112823571Y-140201761D01*
X112823571Y-140201761D02*
X112975952Y-140201761D01*
X112975952Y-140201761D02*
X113052143Y-140239857D01*
X113775953Y-140201761D02*
X113775953Y-140735095D01*
X113433096Y-140201761D02*
X113433096Y-140620809D01*
X113433096Y-140620809D02*
X113471191Y-140697000D01*
X113471191Y-140697000D02*
X113547381Y-140735095D01*
X113547381Y-140735095D02*
X113661667Y-140735095D01*
X113661667Y-140735095D02*
X113737858Y-140697000D01*
X113737858Y-140697000D02*
X113775953Y-140658904D01*
X114080715Y-141039857D02*
X114118810Y-141001761D01*
X114118810Y-141001761D02*
X114195001Y-140887476D01*
X114195001Y-140887476D02*
X114233096Y-140811285D01*
X114233096Y-140811285D02*
X114271191Y-140697000D01*
X114271191Y-140697000D02*
X114309287Y-140506523D01*
X114309287Y-140506523D02*
X114309287Y-140354142D01*
X114309287Y-140354142D02*
X114271191Y-140163666D01*
X114271191Y-140163666D02*
X114233096Y-140049380D01*
X114233096Y-140049380D02*
X114195001Y-139973190D01*
X114195001Y-139973190D02*
X114118810Y-139858904D01*
X114118810Y-139858904D02*
X114080715Y-139820809D01*
X64294047Y-101682000D02*
X64217856Y-101720095D01*
X64217856Y-101720095D02*
X64065475Y-101720095D01*
X64065475Y-101720095D02*
X63989285Y-101682000D01*
X63989285Y-101682000D02*
X63951190Y-101643904D01*
X63951190Y-101643904D02*
X63913094Y-101567714D01*
X63913094Y-101567714D02*
X63913094Y-101339142D01*
X63913094Y-101339142D02*
X63951190Y-101262952D01*
X63951190Y-101262952D02*
X63989285Y-101224857D01*
X63989285Y-101224857D02*
X64065475Y-101186761D01*
X64065475Y-101186761D02*
X64217856Y-101186761D01*
X64217856Y-101186761D02*
X64294047Y-101224857D01*
X64636904Y-101720095D02*
X64636904Y-101186761D01*
X64636904Y-101262952D02*
X64674999Y-101224857D01*
X64674999Y-101224857D02*
X64751189Y-101186761D01*
X64751189Y-101186761D02*
X64865475Y-101186761D01*
X64865475Y-101186761D02*
X64941666Y-101224857D01*
X64941666Y-101224857D02*
X64979761Y-101301047D01*
X64979761Y-101301047D02*
X64979761Y-101720095D01*
X64979761Y-101301047D02*
X65017856Y-101224857D01*
X65017856Y-101224857D02*
X65094047Y-101186761D01*
X65094047Y-101186761D02*
X65208332Y-101186761D01*
X65208332Y-101186761D02*
X65284523Y-101224857D01*
X65284523Y-101224857D02*
X65322618Y-101301047D01*
X65322618Y-101301047D02*
X65322618Y-101720095D01*
X65627380Y-101720095D02*
X66046428Y-101186761D01*
X65627380Y-101186761D02*
X66046428Y-101720095D01*
X66236904Y-101186761D02*
X66541666Y-101186761D01*
X66351190Y-100920095D02*
X66351190Y-101605809D01*
X66351190Y-101605809D02*
X66389285Y-101682000D01*
X66389285Y-101682000D02*
X66465475Y-101720095D01*
X66465475Y-101720095D02*
X66541666Y-101720095D01*
X66770237Y-100996285D02*
X66808333Y-100958190D01*
X66808333Y-100958190D02*
X66884523Y-100920095D01*
X66884523Y-100920095D02*
X67074999Y-100920095D01*
X67074999Y-100920095D02*
X67151190Y-100958190D01*
X67151190Y-100958190D02*
X67189285Y-100996285D01*
X67189285Y-100996285D02*
X67227380Y-101072476D01*
X67227380Y-101072476D02*
X67227380Y-101148666D01*
X67227380Y-101148666D02*
X67189285Y-101262952D01*
X67189285Y-101262952D02*
X66732142Y-101720095D01*
X66732142Y-101720095D02*
X67227380Y-101720095D01*
X67532142Y-100996285D02*
X67570238Y-100958190D01*
X67570238Y-100958190D02*
X67646428Y-100920095D01*
X67646428Y-100920095D02*
X67836904Y-100920095D01*
X67836904Y-100920095D02*
X67913095Y-100958190D01*
X67913095Y-100958190D02*
X67951190Y-100996285D01*
X67951190Y-100996285D02*
X67989285Y-101072476D01*
X67989285Y-101072476D02*
X67989285Y-101148666D01*
X67989285Y-101148666D02*
X67951190Y-101262952D01*
X67951190Y-101262952D02*
X67494047Y-101720095D01*
X67494047Y-101720095D02*
X67989285Y-101720095D01*
X68294047Y-100996285D02*
X68332143Y-100958190D01*
X68332143Y-100958190D02*
X68408333Y-100920095D01*
X68408333Y-100920095D02*
X68598809Y-100920095D01*
X68598809Y-100920095D02*
X68675000Y-100958190D01*
X68675000Y-100958190D02*
X68713095Y-100996285D01*
X68713095Y-100996285D02*
X68751190Y-101072476D01*
X68751190Y-101072476D02*
X68751190Y-101148666D01*
X68751190Y-101148666D02*
X68713095Y-101262952D01*
X68713095Y-101262952D02*
X68255952Y-101720095D01*
X68255952Y-101720095D02*
X68751190Y-101720095D01*
X69055952Y-100996285D02*
X69094048Y-100958190D01*
X69094048Y-100958190D02*
X69170238Y-100920095D01*
X69170238Y-100920095D02*
X69360714Y-100920095D01*
X69360714Y-100920095D02*
X69436905Y-100958190D01*
X69436905Y-100958190D02*
X69475000Y-100996285D01*
X69475000Y-100996285D02*
X69513095Y-101072476D01*
X69513095Y-101072476D02*
X69513095Y-101148666D01*
X69513095Y-101148666D02*
X69475000Y-101262952D01*
X69475000Y-101262952D02*
X69017857Y-101720095D01*
X69017857Y-101720095D02*
X69513095Y-101720095D01*
X70198810Y-101720095D02*
X70198810Y-101301047D01*
X70198810Y-101301047D02*
X70160715Y-101224857D01*
X70160715Y-101224857D02*
X70084524Y-101186761D01*
X70084524Y-101186761D02*
X69932143Y-101186761D01*
X69932143Y-101186761D02*
X69855953Y-101224857D01*
X70198810Y-101682000D02*
X70122619Y-101720095D01*
X70122619Y-101720095D02*
X69932143Y-101720095D01*
X69932143Y-101720095D02*
X69855953Y-101682000D01*
X69855953Y-101682000D02*
X69817857Y-101605809D01*
X69817857Y-101605809D02*
X69817857Y-101529619D01*
X69817857Y-101529619D02*
X69855953Y-101453428D01*
X69855953Y-101453428D02*
X69932143Y-101415333D01*
X69932143Y-101415333D02*
X70122619Y-101415333D01*
X70122619Y-101415333D02*
X70198810Y-101377238D01*
D11*
X114797619Y-63043904D02*
X114759523Y-63082000D01*
X114759523Y-63082000D02*
X114645238Y-63120095D01*
X114645238Y-63120095D02*
X114569047Y-63120095D01*
X114569047Y-63120095D02*
X114454761Y-63082000D01*
X114454761Y-63082000D02*
X114378571Y-63005809D01*
X114378571Y-63005809D02*
X114340476Y-62929619D01*
X114340476Y-62929619D02*
X114302380Y-62777238D01*
X114302380Y-62777238D02*
X114302380Y-62662952D01*
X114302380Y-62662952D02*
X114340476Y-62510571D01*
X114340476Y-62510571D02*
X114378571Y-62434380D01*
X114378571Y-62434380D02*
X114454761Y-62358190D01*
X114454761Y-62358190D02*
X114569047Y-62320095D01*
X114569047Y-62320095D02*
X114645238Y-62320095D01*
X114645238Y-62320095D02*
X114759523Y-62358190D01*
X114759523Y-62358190D02*
X114797619Y-62396285D01*
X115254761Y-63120095D02*
X115178571Y-63082000D01*
X115178571Y-63082000D02*
X115140476Y-63043904D01*
X115140476Y-63043904D02*
X115102380Y-62967714D01*
X115102380Y-62967714D02*
X115102380Y-62739142D01*
X115102380Y-62739142D02*
X115140476Y-62662952D01*
X115140476Y-62662952D02*
X115178571Y-62624857D01*
X115178571Y-62624857D02*
X115254761Y-62586761D01*
X115254761Y-62586761D02*
X115369047Y-62586761D01*
X115369047Y-62586761D02*
X115445238Y-62624857D01*
X115445238Y-62624857D02*
X115483333Y-62662952D01*
X115483333Y-62662952D02*
X115521428Y-62739142D01*
X115521428Y-62739142D02*
X115521428Y-62967714D01*
X115521428Y-62967714D02*
X115483333Y-63043904D01*
X115483333Y-63043904D02*
X115445238Y-63082000D01*
X115445238Y-63082000D02*
X115369047Y-63120095D01*
X115369047Y-63120095D02*
X115254761Y-63120095D01*
X115864286Y-63120095D02*
X115864286Y-62586761D01*
X115864286Y-62320095D02*
X115826190Y-62358190D01*
X115826190Y-62358190D02*
X115864286Y-62396285D01*
X115864286Y-62396285D02*
X115902381Y-62358190D01*
X115902381Y-62358190D02*
X115864286Y-62320095D01*
X115864286Y-62320095D02*
X115864286Y-62396285D01*
X116245238Y-62586761D02*
X116245238Y-63120095D01*
X116245238Y-62662952D02*
X116283333Y-62624857D01*
X116283333Y-62624857D02*
X116359523Y-62586761D01*
X116359523Y-62586761D02*
X116473809Y-62586761D01*
X116473809Y-62586761D02*
X116550000Y-62624857D01*
X116550000Y-62624857D02*
X116588095Y-62701047D01*
X116588095Y-62701047D02*
X116588095Y-63120095D01*
X117311905Y-63082000D02*
X117235714Y-63120095D01*
X117235714Y-63120095D02*
X117083333Y-63120095D01*
X117083333Y-63120095D02*
X117007143Y-63082000D01*
X117007143Y-63082000D02*
X116969048Y-63043904D01*
X116969048Y-63043904D02*
X116930952Y-62967714D01*
X116930952Y-62967714D02*
X116930952Y-62739142D01*
X116930952Y-62739142D02*
X116969048Y-62662952D01*
X116969048Y-62662952D02*
X117007143Y-62624857D01*
X117007143Y-62624857D02*
X117083333Y-62586761D01*
X117083333Y-62586761D02*
X117235714Y-62586761D01*
X117235714Y-62586761D02*
X117311905Y-62624857D01*
X117654762Y-63120095D02*
X117654762Y-62586761D01*
X117654762Y-62320095D02*
X117616666Y-62358190D01*
X117616666Y-62358190D02*
X117654762Y-62396285D01*
X117654762Y-62396285D02*
X117692857Y-62358190D01*
X117692857Y-62358190D02*
X117654762Y-62320095D01*
X117654762Y-62320095D02*
X117654762Y-62396285D01*
X118378571Y-63120095D02*
X118378571Y-62320095D01*
X118378571Y-63082000D02*
X118302380Y-63120095D01*
X118302380Y-63120095D02*
X118149999Y-63120095D01*
X118149999Y-63120095D02*
X118073809Y-63082000D01*
X118073809Y-63082000D02*
X118035714Y-63043904D01*
X118035714Y-63043904D02*
X117997618Y-62967714D01*
X117997618Y-62967714D02*
X117997618Y-62739142D01*
X117997618Y-62739142D02*
X118035714Y-62662952D01*
X118035714Y-62662952D02*
X118073809Y-62624857D01*
X118073809Y-62624857D02*
X118149999Y-62586761D01*
X118149999Y-62586761D02*
X118302380Y-62586761D01*
X118302380Y-62586761D02*
X118378571Y-62624857D01*
X119064286Y-63082000D02*
X118988095Y-63120095D01*
X118988095Y-63120095D02*
X118835714Y-63120095D01*
X118835714Y-63120095D02*
X118759524Y-63082000D01*
X118759524Y-63082000D02*
X118721428Y-63005809D01*
X118721428Y-63005809D02*
X118721428Y-62701047D01*
X118721428Y-62701047D02*
X118759524Y-62624857D01*
X118759524Y-62624857D02*
X118835714Y-62586761D01*
X118835714Y-62586761D02*
X118988095Y-62586761D01*
X118988095Y-62586761D02*
X119064286Y-62624857D01*
X119064286Y-62624857D02*
X119102381Y-62701047D01*
X119102381Y-62701047D02*
X119102381Y-62777238D01*
X119102381Y-62777238D02*
X118721428Y-62853428D01*
X119445238Y-62586761D02*
X119445238Y-63120095D01*
X119445238Y-62662952D02*
X119483333Y-62624857D01*
X119483333Y-62624857D02*
X119559523Y-62586761D01*
X119559523Y-62586761D02*
X119673809Y-62586761D01*
X119673809Y-62586761D02*
X119750000Y-62624857D01*
X119750000Y-62624857D02*
X119788095Y-62701047D01*
X119788095Y-62701047D02*
X119788095Y-63120095D01*
X120511905Y-63082000D02*
X120435714Y-63120095D01*
X120435714Y-63120095D02*
X120283333Y-63120095D01*
X120283333Y-63120095D02*
X120207143Y-63082000D01*
X120207143Y-63082000D02*
X120169048Y-63043904D01*
X120169048Y-63043904D02*
X120130952Y-62967714D01*
X120130952Y-62967714D02*
X120130952Y-62739142D01*
X120130952Y-62739142D02*
X120169048Y-62662952D01*
X120169048Y-62662952D02*
X120207143Y-62624857D01*
X120207143Y-62624857D02*
X120283333Y-62586761D01*
X120283333Y-62586761D02*
X120435714Y-62586761D01*
X120435714Y-62586761D02*
X120511905Y-62624857D01*
X121159524Y-63082000D02*
X121083333Y-63120095D01*
X121083333Y-63120095D02*
X120930952Y-63120095D01*
X120930952Y-63120095D02*
X120854762Y-63082000D01*
X120854762Y-63082000D02*
X120816666Y-63005809D01*
X120816666Y-63005809D02*
X120816666Y-62701047D01*
X120816666Y-62701047D02*
X120854762Y-62624857D01*
X120854762Y-62624857D02*
X120930952Y-62586761D01*
X120930952Y-62586761D02*
X121083333Y-62586761D01*
X121083333Y-62586761D02*
X121159524Y-62624857D01*
X121159524Y-62624857D02*
X121197619Y-62701047D01*
X121197619Y-62701047D02*
X121197619Y-62777238D01*
X121197619Y-62777238D02*
X120816666Y-62853428D01*
X141758333Y-67295095D02*
X141758333Y-66495095D01*
X141758333Y-66495095D02*
X142024999Y-67066523D01*
X142024999Y-67066523D02*
X142291666Y-66495095D01*
X142291666Y-66495095D02*
X142291666Y-67295095D01*
X142672619Y-67295095D02*
X142672619Y-66761761D01*
X142672619Y-66495095D02*
X142634523Y-66533190D01*
X142634523Y-66533190D02*
X142672619Y-66571285D01*
X142672619Y-66571285D02*
X142710714Y-66533190D01*
X142710714Y-66533190D02*
X142672619Y-66495095D01*
X142672619Y-66495095D02*
X142672619Y-66571285D01*
X143396428Y-67257000D02*
X143320237Y-67295095D01*
X143320237Y-67295095D02*
X143167856Y-67295095D01*
X143167856Y-67295095D02*
X143091666Y-67257000D01*
X143091666Y-67257000D02*
X143053571Y-67218904D01*
X143053571Y-67218904D02*
X143015475Y-67142714D01*
X143015475Y-67142714D02*
X143015475Y-66914142D01*
X143015475Y-66914142D02*
X143053571Y-66837952D01*
X143053571Y-66837952D02*
X143091666Y-66799857D01*
X143091666Y-66799857D02*
X143167856Y-66761761D01*
X143167856Y-66761761D02*
X143320237Y-66761761D01*
X143320237Y-66761761D02*
X143396428Y-66799857D01*
X143739285Y-67295095D02*
X143739285Y-66761761D01*
X143739285Y-66914142D02*
X143777380Y-66837952D01*
X143777380Y-66837952D02*
X143815475Y-66799857D01*
X143815475Y-66799857D02*
X143891666Y-66761761D01*
X143891666Y-66761761D02*
X143967856Y-66761761D01*
X144348808Y-67295095D02*
X144272618Y-67257000D01*
X144272618Y-67257000D02*
X144234523Y-67218904D01*
X144234523Y-67218904D02*
X144196427Y-67142714D01*
X144196427Y-67142714D02*
X144196427Y-66914142D01*
X144196427Y-66914142D02*
X144234523Y-66837952D01*
X144234523Y-66837952D02*
X144272618Y-66799857D01*
X144272618Y-66799857D02*
X144348808Y-66761761D01*
X144348808Y-66761761D02*
X144463094Y-66761761D01*
X144463094Y-66761761D02*
X144539285Y-66799857D01*
X144539285Y-66799857D02*
X144577380Y-66837952D01*
X144577380Y-66837952D02*
X144615475Y-66914142D01*
X144615475Y-66914142D02*
X144615475Y-67142714D01*
X144615475Y-67142714D02*
X144577380Y-67218904D01*
X144577380Y-67218904D02*
X144539285Y-67257000D01*
X144539285Y-67257000D02*
X144463094Y-67295095D01*
X144463094Y-67295095D02*
X144348808Y-67295095D01*
X144920237Y-67257000D02*
X145034523Y-67295095D01*
X145034523Y-67295095D02*
X145224999Y-67295095D01*
X145224999Y-67295095D02*
X145301190Y-67257000D01*
X145301190Y-67257000D02*
X145339285Y-67218904D01*
X145339285Y-67218904D02*
X145377380Y-67142714D01*
X145377380Y-67142714D02*
X145377380Y-67066523D01*
X145377380Y-67066523D02*
X145339285Y-66990333D01*
X145339285Y-66990333D02*
X145301190Y-66952238D01*
X145301190Y-66952238D02*
X145224999Y-66914142D01*
X145224999Y-66914142D02*
X145072618Y-66876047D01*
X145072618Y-66876047D02*
X144996428Y-66837952D01*
X144996428Y-66837952D02*
X144958333Y-66799857D01*
X144958333Y-66799857D02*
X144920237Y-66723666D01*
X144920237Y-66723666D02*
X144920237Y-66647476D01*
X144920237Y-66647476D02*
X144958333Y-66571285D01*
X144958333Y-66571285D02*
X144996428Y-66533190D01*
X144996428Y-66533190D02*
X145072618Y-66495095D01*
X145072618Y-66495095D02*
X145263095Y-66495095D01*
X145263095Y-66495095D02*
X145377380Y-66533190D01*
X145720238Y-67295095D02*
X145720238Y-66495095D01*
X145720238Y-66495095D02*
X145910714Y-66495095D01*
X145910714Y-66495095D02*
X146025000Y-66533190D01*
X146025000Y-66533190D02*
X146101190Y-66609380D01*
X146101190Y-66609380D02*
X146139285Y-66685571D01*
X146139285Y-66685571D02*
X146177381Y-66837952D01*
X146177381Y-66837952D02*
X146177381Y-66952238D01*
X146177381Y-66952238D02*
X146139285Y-67104619D01*
X146139285Y-67104619D02*
X146101190Y-67180809D01*
X146101190Y-67180809D02*
X146025000Y-67257000D01*
X146025000Y-67257000D02*
X145910714Y-67295095D01*
X145910714Y-67295095D02*
X145720238Y-67295095D01*
X147586905Y-67218904D02*
X147548809Y-67257000D01*
X147548809Y-67257000D02*
X147434524Y-67295095D01*
X147434524Y-67295095D02*
X147358333Y-67295095D01*
X147358333Y-67295095D02*
X147244047Y-67257000D01*
X147244047Y-67257000D02*
X147167857Y-67180809D01*
X147167857Y-67180809D02*
X147129762Y-67104619D01*
X147129762Y-67104619D02*
X147091666Y-66952238D01*
X147091666Y-66952238D02*
X147091666Y-66837952D01*
X147091666Y-66837952D02*
X147129762Y-66685571D01*
X147129762Y-66685571D02*
X147167857Y-66609380D01*
X147167857Y-66609380D02*
X147244047Y-66533190D01*
X147244047Y-66533190D02*
X147358333Y-66495095D01*
X147358333Y-66495095D02*
X147434524Y-66495095D01*
X147434524Y-66495095D02*
X147548809Y-66533190D01*
X147548809Y-66533190D02*
X147586905Y-66571285D01*
X148272619Y-67295095D02*
X148272619Y-66876047D01*
X148272619Y-66876047D02*
X148234524Y-66799857D01*
X148234524Y-66799857D02*
X148158333Y-66761761D01*
X148158333Y-66761761D02*
X148005952Y-66761761D01*
X148005952Y-66761761D02*
X147929762Y-66799857D01*
X148272619Y-67257000D02*
X148196428Y-67295095D01*
X148196428Y-67295095D02*
X148005952Y-67295095D01*
X148005952Y-67295095D02*
X147929762Y-67257000D01*
X147929762Y-67257000D02*
X147891666Y-67180809D01*
X147891666Y-67180809D02*
X147891666Y-67104619D01*
X147891666Y-67104619D02*
X147929762Y-67028428D01*
X147929762Y-67028428D02*
X148005952Y-66990333D01*
X148005952Y-66990333D02*
X148196428Y-66990333D01*
X148196428Y-66990333D02*
X148272619Y-66952238D01*
X148653572Y-67295095D02*
X148653572Y-66761761D01*
X148653572Y-66914142D02*
X148691667Y-66837952D01*
X148691667Y-66837952D02*
X148729762Y-66799857D01*
X148729762Y-66799857D02*
X148805953Y-66761761D01*
X148805953Y-66761761D02*
X148882143Y-66761761D01*
X149491667Y-67295095D02*
X149491667Y-66495095D01*
X149491667Y-67257000D02*
X149415476Y-67295095D01*
X149415476Y-67295095D02*
X149263095Y-67295095D01*
X149263095Y-67295095D02*
X149186905Y-67257000D01*
X149186905Y-67257000D02*
X149148810Y-67218904D01*
X149148810Y-67218904D02*
X149110714Y-67142714D01*
X149110714Y-67142714D02*
X149110714Y-66914142D01*
X149110714Y-66914142D02*
X149148810Y-66837952D01*
X149148810Y-66837952D02*
X149186905Y-66799857D01*
X149186905Y-66799857D02*
X149263095Y-66761761D01*
X149263095Y-66761761D02*
X149415476Y-66761761D01*
X149415476Y-66761761D02*
X149491667Y-66799857D01*
X130898809Y-57507000D02*
X131013095Y-57545095D01*
X131013095Y-57545095D02*
X131203571Y-57545095D01*
X131203571Y-57545095D02*
X131279762Y-57507000D01*
X131279762Y-57507000D02*
X131317857Y-57468904D01*
X131317857Y-57468904D02*
X131355952Y-57392714D01*
X131355952Y-57392714D02*
X131355952Y-57316523D01*
X131355952Y-57316523D02*
X131317857Y-57240333D01*
X131317857Y-57240333D02*
X131279762Y-57202238D01*
X131279762Y-57202238D02*
X131203571Y-57164142D01*
X131203571Y-57164142D02*
X131051190Y-57126047D01*
X131051190Y-57126047D02*
X130975000Y-57087952D01*
X130975000Y-57087952D02*
X130936905Y-57049857D01*
X130936905Y-57049857D02*
X130898809Y-56973666D01*
X130898809Y-56973666D02*
X130898809Y-56897476D01*
X130898809Y-56897476D02*
X130936905Y-56821285D01*
X130936905Y-56821285D02*
X130975000Y-56783190D01*
X130975000Y-56783190D02*
X131051190Y-56745095D01*
X131051190Y-56745095D02*
X131241667Y-56745095D01*
X131241667Y-56745095D02*
X131355952Y-56783190D01*
X131698810Y-57545095D02*
X131698810Y-57011761D01*
X131698810Y-56745095D02*
X131660714Y-56783190D01*
X131660714Y-56783190D02*
X131698810Y-56821285D01*
X131698810Y-56821285D02*
X131736905Y-56783190D01*
X131736905Y-56783190D02*
X131698810Y-56745095D01*
X131698810Y-56745095D02*
X131698810Y-56821285D01*
X132079762Y-57545095D02*
X132079762Y-56745095D01*
X132079762Y-56745095D02*
X132384524Y-56745095D01*
X132384524Y-56745095D02*
X132460714Y-56783190D01*
X132460714Y-56783190D02*
X132498809Y-56821285D01*
X132498809Y-56821285D02*
X132536905Y-56897476D01*
X132536905Y-56897476D02*
X132536905Y-57011761D01*
X132536905Y-57011761D02*
X132498809Y-57087952D01*
X132498809Y-57087952D02*
X132460714Y-57126047D01*
X132460714Y-57126047D02*
X132384524Y-57164142D01*
X132384524Y-57164142D02*
X132079762Y-57164142D01*
X132879762Y-57545095D02*
X132879762Y-56745095D01*
X132879762Y-56745095D02*
X133146428Y-57316523D01*
X133146428Y-57316523D02*
X133413095Y-56745095D01*
X133413095Y-56745095D02*
X133413095Y-57545095D01*
D12*
X133746428Y-50293857D02*
X133689285Y-50351000D01*
X133689285Y-50351000D02*
X133517857Y-50408142D01*
X133517857Y-50408142D02*
X133403571Y-50408142D01*
X133403571Y-50408142D02*
X133232142Y-50351000D01*
X133232142Y-50351000D02*
X133117857Y-50236714D01*
X133117857Y-50236714D02*
X133060714Y-50122428D01*
X133060714Y-50122428D02*
X133003571Y-49893857D01*
X133003571Y-49893857D02*
X133003571Y-49722428D01*
X133003571Y-49722428D02*
X133060714Y-49493857D01*
X133060714Y-49493857D02*
X133117857Y-49379571D01*
X133117857Y-49379571D02*
X133232142Y-49265285D01*
X133232142Y-49265285D02*
X133403571Y-49208142D01*
X133403571Y-49208142D02*
X133517857Y-49208142D01*
X133517857Y-49208142D02*
X133689285Y-49265285D01*
X133689285Y-49265285D02*
X133746428Y-49322428D01*
X134432142Y-50408142D02*
X134317857Y-50351000D01*
X134317857Y-50351000D02*
X134260714Y-50293857D01*
X134260714Y-50293857D02*
X134203571Y-50179571D01*
X134203571Y-50179571D02*
X134203571Y-49836714D01*
X134203571Y-49836714D02*
X134260714Y-49722428D01*
X134260714Y-49722428D02*
X134317857Y-49665285D01*
X134317857Y-49665285D02*
X134432142Y-49608142D01*
X134432142Y-49608142D02*
X134603571Y-49608142D01*
X134603571Y-49608142D02*
X134717857Y-49665285D01*
X134717857Y-49665285D02*
X134775000Y-49722428D01*
X134775000Y-49722428D02*
X134832142Y-49836714D01*
X134832142Y-49836714D02*
X134832142Y-50179571D01*
X134832142Y-50179571D02*
X134775000Y-50293857D01*
X134775000Y-50293857D02*
X134717857Y-50351000D01*
X134717857Y-50351000D02*
X134603571Y-50408142D01*
X134603571Y-50408142D02*
X134432142Y-50408142D01*
X135289285Y-50351000D02*
X135403571Y-50408142D01*
X135403571Y-50408142D02*
X135632142Y-50408142D01*
X135632142Y-50408142D02*
X135746428Y-50351000D01*
X135746428Y-50351000D02*
X135803571Y-50236714D01*
X135803571Y-50236714D02*
X135803571Y-50179571D01*
X135803571Y-50179571D02*
X135746428Y-50065285D01*
X135746428Y-50065285D02*
X135632142Y-50008142D01*
X135632142Y-50008142D02*
X135460714Y-50008142D01*
X135460714Y-50008142D02*
X135346428Y-49951000D01*
X135346428Y-49951000D02*
X135289285Y-49836714D01*
X135289285Y-49836714D02*
X135289285Y-49779571D01*
X135289285Y-49779571D02*
X135346428Y-49665285D01*
X135346428Y-49665285D02*
X135460714Y-49608142D01*
X135460714Y-49608142D02*
X135632142Y-49608142D01*
X135632142Y-49608142D02*
X135746428Y-49665285D01*
X136317857Y-50408142D02*
X136317857Y-49608142D01*
X136317857Y-49722428D02*
X136375000Y-49665285D01*
X136375000Y-49665285D02*
X136489285Y-49608142D01*
X136489285Y-49608142D02*
X136660714Y-49608142D01*
X136660714Y-49608142D02*
X136775000Y-49665285D01*
X136775000Y-49665285D02*
X136832143Y-49779571D01*
X136832143Y-49779571D02*
X136832143Y-50408142D01*
X136832143Y-49779571D02*
X136889285Y-49665285D01*
X136889285Y-49665285D02*
X137003571Y-49608142D01*
X137003571Y-49608142D02*
X137175000Y-49608142D01*
X137175000Y-49608142D02*
X137289285Y-49665285D01*
X137289285Y-49665285D02*
X137346428Y-49779571D01*
X137346428Y-49779571D02*
X137346428Y-50408142D01*
X137917857Y-50408142D02*
X137917857Y-49608142D01*
X137917857Y-49208142D02*
X137860714Y-49265285D01*
X137860714Y-49265285D02*
X137917857Y-49322428D01*
X137917857Y-49322428D02*
X137975000Y-49265285D01*
X137975000Y-49265285D02*
X137917857Y-49208142D01*
X137917857Y-49208142D02*
X137917857Y-49322428D01*
X139003572Y-50351000D02*
X138889286Y-50408142D01*
X138889286Y-50408142D02*
X138660714Y-50408142D01*
X138660714Y-50408142D02*
X138546429Y-50351000D01*
X138546429Y-50351000D02*
X138489286Y-50293857D01*
X138489286Y-50293857D02*
X138432143Y-50179571D01*
X138432143Y-50179571D02*
X138432143Y-49836714D01*
X138432143Y-49836714D02*
X138489286Y-49722428D01*
X138489286Y-49722428D02*
X138546429Y-49665285D01*
X138546429Y-49665285D02*
X138660714Y-49608142D01*
X138660714Y-49608142D02*
X138889286Y-49608142D01*
X138889286Y-49608142D02*
X139003572Y-49665285D01*
X139403571Y-49208142D02*
X139689285Y-50408142D01*
X139689285Y-50408142D02*
X139917857Y-49551000D01*
X139917857Y-49551000D02*
X140146428Y-50408142D01*
X140146428Y-50408142D02*
X140432143Y-49208142D01*
X141403572Y-50408142D02*
X141403572Y-49779571D01*
X141403572Y-49779571D02*
X141346429Y-49665285D01*
X141346429Y-49665285D02*
X141232143Y-49608142D01*
X141232143Y-49608142D02*
X141003572Y-49608142D01*
X141003572Y-49608142D02*
X140889286Y-49665285D01*
X141403572Y-50351000D02*
X141289286Y-50408142D01*
X141289286Y-50408142D02*
X141003572Y-50408142D01*
X141003572Y-50408142D02*
X140889286Y-50351000D01*
X140889286Y-50351000D02*
X140832143Y-50236714D01*
X140832143Y-50236714D02*
X140832143Y-50122428D01*
X140832143Y-50122428D02*
X140889286Y-50008142D01*
X140889286Y-50008142D02*
X141003572Y-49951000D01*
X141003572Y-49951000D02*
X141289286Y-49951000D01*
X141289286Y-49951000D02*
X141403572Y-49893857D01*
X141803571Y-49608142D02*
X142260714Y-49608142D01*
X141975000Y-49208142D02*
X141975000Y-50236714D01*
X141975000Y-50236714D02*
X142032143Y-50351000D01*
X142032143Y-50351000D02*
X142146428Y-50408142D01*
X142146428Y-50408142D02*
X142260714Y-50408142D01*
X143175000Y-50351000D02*
X143060714Y-50408142D01*
X143060714Y-50408142D02*
X142832142Y-50408142D01*
X142832142Y-50408142D02*
X142717857Y-50351000D01*
X142717857Y-50351000D02*
X142660714Y-50293857D01*
X142660714Y-50293857D02*
X142603571Y-50179571D01*
X142603571Y-50179571D02*
X142603571Y-49836714D01*
X142603571Y-49836714D02*
X142660714Y-49722428D01*
X142660714Y-49722428D02*
X142717857Y-49665285D01*
X142717857Y-49665285D02*
X142832142Y-49608142D01*
X142832142Y-49608142D02*
X143060714Y-49608142D01*
X143060714Y-49608142D02*
X143175000Y-49665285D01*
X143689285Y-50408142D02*
X143689285Y-49208142D01*
X144203571Y-50408142D02*
X144203571Y-49779571D01*
X144203571Y-49779571D02*
X144146428Y-49665285D01*
X144146428Y-49665285D02*
X144032142Y-49608142D01*
X144032142Y-49608142D02*
X143860713Y-49608142D01*
X143860713Y-49608142D02*
X143746428Y-49665285D01*
X143746428Y-49665285D02*
X143689285Y-49722428D01*
X145574999Y-49608142D02*
X145860713Y-50408142D01*
X145860713Y-50408142D02*
X146146428Y-49608142D01*
X147117857Y-49608142D02*
X147117857Y-50408142D01*
X146832142Y-49151000D02*
X146546428Y-50008142D01*
X146546428Y-50008142D02*
X147289285Y-50008142D01*
X147746428Y-50293857D02*
X147803571Y-50351000D01*
X147803571Y-50351000D02*
X147746428Y-50408142D01*
X147746428Y-50408142D02*
X147689285Y-50351000D01*
X147689285Y-50351000D02*
X147746428Y-50293857D01*
X147746428Y-50293857D02*
X147746428Y-50408142D01*
X148546428Y-49208142D02*
X148660714Y-49208142D01*
X148660714Y-49208142D02*
X148775000Y-49265285D01*
X148775000Y-49265285D02*
X148832143Y-49322428D01*
X148832143Y-49322428D02*
X148889285Y-49436714D01*
X148889285Y-49436714D02*
X148946428Y-49665285D01*
X148946428Y-49665285D02*
X148946428Y-49951000D01*
X148946428Y-49951000D02*
X148889285Y-50179571D01*
X148889285Y-50179571D02*
X148832143Y-50293857D01*
X148832143Y-50293857D02*
X148775000Y-50351000D01*
X148775000Y-50351000D02*
X148660714Y-50408142D01*
X148660714Y-50408142D02*
X148546428Y-50408142D01*
X148546428Y-50408142D02*
X148432143Y-50351000D01*
X148432143Y-50351000D02*
X148375000Y-50293857D01*
X148375000Y-50293857D02*
X148317857Y-50179571D01*
X148317857Y-50179571D02*
X148260714Y-49951000D01*
X148260714Y-49951000D02*
X148260714Y-49665285D01*
X148260714Y-49665285D02*
X148317857Y-49436714D01*
X148317857Y-49436714D02*
X148375000Y-49322428D01*
X148375000Y-49322428D02*
X148432143Y-49265285D01*
X148432143Y-49265285D02*
X148546428Y-49208142D01*
D11*
X144465476Y-55995095D02*
X144465476Y-56642714D01*
X144465476Y-56642714D02*
X144503571Y-56718904D01*
X144503571Y-56718904D02*
X144541666Y-56757000D01*
X144541666Y-56757000D02*
X144617857Y-56795095D01*
X144617857Y-56795095D02*
X144770238Y-56795095D01*
X144770238Y-56795095D02*
X144846428Y-56757000D01*
X144846428Y-56757000D02*
X144884523Y-56718904D01*
X144884523Y-56718904D02*
X144922619Y-56642714D01*
X144922619Y-56642714D02*
X144922619Y-55995095D01*
X145265475Y-56757000D02*
X145379761Y-56795095D01*
X145379761Y-56795095D02*
X145570237Y-56795095D01*
X145570237Y-56795095D02*
X145646428Y-56757000D01*
X145646428Y-56757000D02*
X145684523Y-56718904D01*
X145684523Y-56718904D02*
X145722618Y-56642714D01*
X145722618Y-56642714D02*
X145722618Y-56566523D01*
X145722618Y-56566523D02*
X145684523Y-56490333D01*
X145684523Y-56490333D02*
X145646428Y-56452238D01*
X145646428Y-56452238D02*
X145570237Y-56414142D01*
X145570237Y-56414142D02*
X145417856Y-56376047D01*
X145417856Y-56376047D02*
X145341666Y-56337952D01*
X145341666Y-56337952D02*
X145303571Y-56299857D01*
X145303571Y-56299857D02*
X145265475Y-56223666D01*
X145265475Y-56223666D02*
X145265475Y-56147476D01*
X145265475Y-56147476D02*
X145303571Y-56071285D01*
X145303571Y-56071285D02*
X145341666Y-56033190D01*
X145341666Y-56033190D02*
X145417856Y-55995095D01*
X145417856Y-55995095D02*
X145608333Y-55995095D01*
X145608333Y-55995095D02*
X145722618Y-56033190D01*
X146332142Y-56376047D02*
X146446428Y-56414142D01*
X146446428Y-56414142D02*
X146484523Y-56452238D01*
X146484523Y-56452238D02*
X146522619Y-56528428D01*
X146522619Y-56528428D02*
X146522619Y-56642714D01*
X146522619Y-56642714D02*
X146484523Y-56718904D01*
X146484523Y-56718904D02*
X146446428Y-56757000D01*
X146446428Y-56757000D02*
X146370238Y-56795095D01*
X146370238Y-56795095D02*
X146065476Y-56795095D01*
X146065476Y-56795095D02*
X146065476Y-55995095D01*
X146065476Y-55995095D02*
X146332142Y-55995095D01*
X146332142Y-55995095D02*
X146408333Y-56033190D01*
X146408333Y-56033190D02*
X146446428Y-56071285D01*
X146446428Y-56071285D02*
X146484523Y-56147476D01*
X146484523Y-56147476D02*
X146484523Y-56223666D01*
X146484523Y-56223666D02*
X146446428Y-56299857D01*
X146446428Y-56299857D02*
X146408333Y-56337952D01*
X146408333Y-56337952D02*
X146332142Y-56376047D01*
X146332142Y-56376047D02*
X146065476Y-56376047D01*
D10*
X130758329Y-51237619D02*
X131329757Y-51237619D01*
X131044043Y-52237619D02*
X131044043Y-51237619D01*
X131663091Y-52237619D02*
X131663091Y-51237619D01*
X132091662Y-52237619D02*
X132091662Y-51713809D01*
X132091662Y-51713809D02*
X132044043Y-51618571D01*
X132044043Y-51618571D02*
X131948805Y-51570952D01*
X131948805Y-51570952D02*
X131805948Y-51570952D01*
X131805948Y-51570952D02*
X131710710Y-51618571D01*
X131710710Y-51618571D02*
X131663091Y-51666190D01*
X132948805Y-52190000D02*
X132853567Y-52237619D01*
X132853567Y-52237619D02*
X132663091Y-52237619D01*
X132663091Y-52237619D02*
X132567853Y-52190000D01*
X132567853Y-52190000D02*
X132520234Y-52094761D01*
X132520234Y-52094761D02*
X132520234Y-51713809D01*
X132520234Y-51713809D02*
X132567853Y-51618571D01*
X132567853Y-51618571D02*
X132663091Y-51570952D01*
X132663091Y-51570952D02*
X132853567Y-51570952D01*
X132853567Y-51570952D02*
X132948805Y-51618571D01*
X132948805Y-51618571D02*
X132996424Y-51713809D01*
X132996424Y-51713809D02*
X132996424Y-51809047D01*
X132996424Y-51809047D02*
X132520234Y-51904285D01*
X134186901Y-52237619D02*
X134186901Y-51237619D01*
X134186901Y-51237619D02*
X134424996Y-51237619D01*
X134424996Y-51237619D02*
X134567853Y-51285238D01*
X134567853Y-51285238D02*
X134663091Y-51380476D01*
X134663091Y-51380476D02*
X134710710Y-51475714D01*
X134710710Y-51475714D02*
X134758329Y-51666190D01*
X134758329Y-51666190D02*
X134758329Y-51809047D01*
X134758329Y-51809047D02*
X134710710Y-51999523D01*
X134710710Y-51999523D02*
X134663091Y-52094761D01*
X134663091Y-52094761D02*
X134567853Y-52190000D01*
X134567853Y-52190000D02*
X134424996Y-52237619D01*
X134424996Y-52237619D02*
X134186901Y-52237619D01*
X135567853Y-52190000D02*
X135472615Y-52237619D01*
X135472615Y-52237619D02*
X135282139Y-52237619D01*
X135282139Y-52237619D02*
X135186901Y-52190000D01*
X135186901Y-52190000D02*
X135139282Y-52094761D01*
X135139282Y-52094761D02*
X135139282Y-51713809D01*
X135139282Y-51713809D02*
X135186901Y-51618571D01*
X135186901Y-51618571D02*
X135282139Y-51570952D01*
X135282139Y-51570952D02*
X135472615Y-51570952D01*
X135472615Y-51570952D02*
X135567853Y-51618571D01*
X135567853Y-51618571D02*
X135615472Y-51713809D01*
X135615472Y-51713809D02*
X135615472Y-51809047D01*
X135615472Y-51809047D02*
X135139282Y-51904285D01*
X135996425Y-52190000D02*
X136091663Y-52237619D01*
X136091663Y-52237619D02*
X136282139Y-52237619D01*
X136282139Y-52237619D02*
X136377377Y-52190000D01*
X136377377Y-52190000D02*
X136424996Y-52094761D01*
X136424996Y-52094761D02*
X136424996Y-52047142D01*
X136424996Y-52047142D02*
X136377377Y-51951904D01*
X136377377Y-51951904D02*
X136282139Y-51904285D01*
X136282139Y-51904285D02*
X136139282Y-51904285D01*
X136139282Y-51904285D02*
X136044044Y-51856666D01*
X136044044Y-51856666D02*
X135996425Y-51761428D01*
X135996425Y-51761428D02*
X135996425Y-51713809D01*
X135996425Y-51713809D02*
X136044044Y-51618571D01*
X136044044Y-51618571D02*
X136139282Y-51570952D01*
X136139282Y-51570952D02*
X136282139Y-51570952D01*
X136282139Y-51570952D02*
X136377377Y-51618571D01*
X136853568Y-52237619D02*
X136853568Y-51237619D01*
X136948806Y-51856666D02*
X137234520Y-52237619D01*
X137234520Y-51570952D02*
X136853568Y-51951904D01*
X137520235Y-51570952D02*
X137901187Y-51570952D01*
X137663092Y-51237619D02*
X137663092Y-52094761D01*
X137663092Y-52094761D02*
X137710711Y-52190000D01*
X137710711Y-52190000D02*
X137805949Y-52237619D01*
X137805949Y-52237619D02*
X137901187Y-52237619D01*
X138377378Y-52237619D02*
X138282140Y-52190000D01*
X138282140Y-52190000D02*
X138234521Y-52142380D01*
X138234521Y-52142380D02*
X138186902Y-52047142D01*
X138186902Y-52047142D02*
X138186902Y-51761428D01*
X138186902Y-51761428D02*
X138234521Y-51666190D01*
X138234521Y-51666190D02*
X138282140Y-51618571D01*
X138282140Y-51618571D02*
X138377378Y-51570952D01*
X138377378Y-51570952D02*
X138520235Y-51570952D01*
X138520235Y-51570952D02*
X138615473Y-51618571D01*
X138615473Y-51618571D02*
X138663092Y-51666190D01*
X138663092Y-51666190D02*
X138710711Y-51761428D01*
X138710711Y-51761428D02*
X138710711Y-52047142D01*
X138710711Y-52047142D02*
X138663092Y-52142380D01*
X138663092Y-52142380D02*
X138615473Y-52190000D01*
X138615473Y-52190000D02*
X138520235Y-52237619D01*
X138520235Y-52237619D02*
X138377378Y-52237619D01*
X139139283Y-51570952D02*
X139139283Y-52570952D01*
X139139283Y-51618571D02*
X139234521Y-51570952D01*
X139234521Y-51570952D02*
X139424997Y-51570952D01*
X139424997Y-51570952D02*
X139520235Y-51618571D01*
X139520235Y-51618571D02*
X139567854Y-51666190D01*
X139567854Y-51666190D02*
X139615473Y-51761428D01*
X139615473Y-51761428D02*
X139615473Y-52047142D01*
X139615473Y-52047142D02*
X139567854Y-52142380D01*
X139567854Y-52142380D02*
X139520235Y-52190000D01*
X139520235Y-52190000D02*
X139424997Y-52237619D01*
X139424997Y-52237619D02*
X139234521Y-52237619D01*
X139234521Y-52237619D02*
X139139283Y-52190000D01*
X140805950Y-52237619D02*
X140805950Y-51237619D01*
X140805950Y-51237619D02*
X141139283Y-51951904D01*
X141139283Y-51951904D02*
X141472616Y-51237619D01*
X141472616Y-51237619D02*
X141472616Y-52237619D01*
X142377378Y-51570952D02*
X142377378Y-52237619D01*
X141948807Y-51570952D02*
X141948807Y-52094761D01*
X141948807Y-52094761D02*
X141996426Y-52190000D01*
X141996426Y-52190000D02*
X142091664Y-52237619D01*
X142091664Y-52237619D02*
X142234521Y-52237619D01*
X142234521Y-52237619D02*
X142329759Y-52190000D01*
X142329759Y-52190000D02*
X142377378Y-52142380D01*
X142996426Y-52237619D02*
X142901188Y-52190000D01*
X142901188Y-52190000D02*
X142853569Y-52142380D01*
X142853569Y-52142380D02*
X142805950Y-52047142D01*
X142805950Y-52047142D02*
X142805950Y-51761428D01*
X142805950Y-51761428D02*
X142853569Y-51666190D01*
X142853569Y-51666190D02*
X142901188Y-51618571D01*
X142901188Y-51618571D02*
X142996426Y-51570952D01*
X142996426Y-51570952D02*
X143139283Y-51570952D01*
X143139283Y-51570952D02*
X143234521Y-51618571D01*
X143234521Y-51618571D02*
X143282140Y-51666190D01*
X143282140Y-51666190D02*
X143329759Y-51761428D01*
X143329759Y-51761428D02*
X143329759Y-52047142D01*
X143329759Y-52047142D02*
X143282140Y-52142380D01*
X143282140Y-52142380D02*
X143234521Y-52190000D01*
X143234521Y-52190000D02*
X143139283Y-52237619D01*
X143139283Y-52237619D02*
X142996426Y-52237619D01*
X143758331Y-51570952D02*
X143758331Y-52237619D01*
X143758331Y-51666190D02*
X143805950Y-51618571D01*
X143805950Y-51618571D02*
X143901188Y-51570952D01*
X143901188Y-51570952D02*
X144044045Y-51570952D01*
X144044045Y-51570952D02*
X144139283Y-51618571D01*
X144139283Y-51618571D02*
X144186902Y-51713809D01*
X144186902Y-51713809D02*
X144186902Y-52237619D01*
X145424998Y-52237619D02*
X145424998Y-51237619D01*
X145424998Y-51237619D02*
X145663093Y-51237619D01*
X145663093Y-51237619D02*
X145805950Y-51285238D01*
X145805950Y-51285238D02*
X145901188Y-51380476D01*
X145901188Y-51380476D02*
X145948807Y-51475714D01*
X145948807Y-51475714D02*
X145996426Y-51666190D01*
X145996426Y-51666190D02*
X145996426Y-51809047D01*
X145996426Y-51809047D02*
X145948807Y-51999523D01*
X145948807Y-51999523D02*
X145901188Y-52094761D01*
X145901188Y-52094761D02*
X145805950Y-52190000D01*
X145805950Y-52190000D02*
X145663093Y-52237619D01*
X145663093Y-52237619D02*
X145424998Y-52237619D01*
X146805950Y-52190000D02*
X146710712Y-52237619D01*
X146710712Y-52237619D02*
X146520236Y-52237619D01*
X146520236Y-52237619D02*
X146424998Y-52190000D01*
X146424998Y-52190000D02*
X146377379Y-52094761D01*
X146377379Y-52094761D02*
X146377379Y-51713809D01*
X146377379Y-51713809D02*
X146424998Y-51618571D01*
X146424998Y-51618571D02*
X146520236Y-51570952D01*
X146520236Y-51570952D02*
X146710712Y-51570952D01*
X146710712Y-51570952D02*
X146805950Y-51618571D01*
X146805950Y-51618571D02*
X146853569Y-51713809D01*
X146853569Y-51713809D02*
X146853569Y-51809047D01*
X146853569Y-51809047D02*
X146377379Y-51904285D01*
X147139284Y-51570952D02*
X147520236Y-51570952D01*
X147282141Y-51237619D02*
X147282141Y-52094761D01*
X147282141Y-52094761D02*
X147329760Y-52190000D01*
X147329760Y-52190000D02*
X147424998Y-52237619D01*
X147424998Y-52237619D02*
X147520236Y-52237619D01*
X148234522Y-52190000D02*
X148139284Y-52237619D01*
X148139284Y-52237619D02*
X147948808Y-52237619D01*
X147948808Y-52237619D02*
X147853570Y-52190000D01*
X147853570Y-52190000D02*
X147805951Y-52094761D01*
X147805951Y-52094761D02*
X147805951Y-51713809D01*
X147805951Y-51713809D02*
X147853570Y-51618571D01*
X147853570Y-51618571D02*
X147948808Y-51570952D01*
X147948808Y-51570952D02*
X148139284Y-51570952D01*
X148139284Y-51570952D02*
X148234522Y-51618571D01*
X148234522Y-51618571D02*
X148282141Y-51713809D01*
X148282141Y-51713809D02*
X148282141Y-51809047D01*
X148282141Y-51809047D02*
X147805951Y-51904285D01*
X149139284Y-52190000D02*
X149044046Y-52237619D01*
X149044046Y-52237619D02*
X148853570Y-52237619D01*
X148853570Y-52237619D02*
X148758332Y-52190000D01*
X148758332Y-52190000D02*
X148710713Y-52142380D01*
X148710713Y-52142380D02*
X148663094Y-52047142D01*
X148663094Y-52047142D02*
X148663094Y-51761428D01*
X148663094Y-51761428D02*
X148710713Y-51666190D01*
X148710713Y-51666190D02*
X148758332Y-51618571D01*
X148758332Y-51618571D02*
X148853570Y-51570952D01*
X148853570Y-51570952D02*
X149044046Y-51570952D01*
X149044046Y-51570952D02*
X149139284Y-51618571D01*
X149424999Y-51570952D02*
X149805951Y-51570952D01*
X149567856Y-51237619D02*
X149567856Y-52094761D01*
X149567856Y-52094761D02*
X149615475Y-52190000D01*
X149615475Y-52190000D02*
X149710713Y-52237619D01*
X149710713Y-52237619D02*
X149805951Y-52237619D01*
X150282142Y-52237619D02*
X150186904Y-52190000D01*
X150186904Y-52190000D02*
X150139285Y-52142380D01*
X150139285Y-52142380D02*
X150091666Y-52047142D01*
X150091666Y-52047142D02*
X150091666Y-51761428D01*
X150091666Y-51761428D02*
X150139285Y-51666190D01*
X150139285Y-51666190D02*
X150186904Y-51618571D01*
X150186904Y-51618571D02*
X150282142Y-51570952D01*
X150282142Y-51570952D02*
X150424999Y-51570952D01*
X150424999Y-51570952D02*
X150520237Y-51618571D01*
X150520237Y-51618571D02*
X150567856Y-51666190D01*
X150567856Y-51666190D02*
X150615475Y-51761428D01*
X150615475Y-51761428D02*
X150615475Y-52047142D01*
X150615475Y-52047142D02*
X150567856Y-52142380D01*
X150567856Y-52142380D02*
X150520237Y-52190000D01*
X150520237Y-52190000D02*
X150424999Y-52237619D01*
X150424999Y-52237619D02*
X150282142Y-52237619D01*
X151044047Y-52237619D02*
X151044047Y-51570952D01*
X151044047Y-51761428D02*
X151091666Y-51666190D01*
X151091666Y-51666190D02*
X151139285Y-51618571D01*
X151139285Y-51618571D02*
X151234523Y-51570952D01*
X151234523Y-51570952D02*
X151329761Y-51570952D01*
X130336903Y-70357000D02*
X130451189Y-70395095D01*
X130451189Y-70395095D02*
X130641665Y-70395095D01*
X130641665Y-70395095D02*
X130717856Y-70357000D01*
X130717856Y-70357000D02*
X130755951Y-70318904D01*
X130755951Y-70318904D02*
X130794046Y-70242714D01*
X130794046Y-70242714D02*
X130794046Y-70166523D01*
X130794046Y-70166523D02*
X130755951Y-70090333D01*
X130755951Y-70090333D02*
X130717856Y-70052238D01*
X130717856Y-70052238D02*
X130641665Y-70014142D01*
X130641665Y-70014142D02*
X130489284Y-69976047D01*
X130489284Y-69976047D02*
X130413094Y-69937952D01*
X130413094Y-69937952D02*
X130374999Y-69899857D01*
X130374999Y-69899857D02*
X130336903Y-69823666D01*
X130336903Y-69823666D02*
X130336903Y-69747476D01*
X130336903Y-69747476D02*
X130374999Y-69671285D01*
X130374999Y-69671285D02*
X130413094Y-69633190D01*
X130413094Y-69633190D02*
X130489284Y-69595095D01*
X130489284Y-69595095D02*
X130679761Y-69595095D01*
X130679761Y-69595095D02*
X130794046Y-69633190D01*
X131136904Y-69861761D02*
X131136904Y-70661761D01*
X131136904Y-69899857D02*
X131213094Y-69861761D01*
X131213094Y-69861761D02*
X131365475Y-69861761D01*
X131365475Y-69861761D02*
X131441666Y-69899857D01*
X131441666Y-69899857D02*
X131479761Y-69937952D01*
X131479761Y-69937952D02*
X131517856Y-70014142D01*
X131517856Y-70014142D02*
X131517856Y-70242714D01*
X131517856Y-70242714D02*
X131479761Y-70318904D01*
X131479761Y-70318904D02*
X131441666Y-70357000D01*
X131441666Y-70357000D02*
X131365475Y-70395095D01*
X131365475Y-70395095D02*
X131213094Y-70395095D01*
X131213094Y-70395095D02*
X131136904Y-70357000D01*
X132165476Y-70357000D02*
X132089285Y-70395095D01*
X132089285Y-70395095D02*
X131936904Y-70395095D01*
X131936904Y-70395095D02*
X131860714Y-70357000D01*
X131860714Y-70357000D02*
X131822618Y-70280809D01*
X131822618Y-70280809D02*
X131822618Y-69976047D01*
X131822618Y-69976047D02*
X131860714Y-69899857D01*
X131860714Y-69899857D02*
X131936904Y-69861761D01*
X131936904Y-69861761D02*
X132089285Y-69861761D01*
X132089285Y-69861761D02*
X132165476Y-69899857D01*
X132165476Y-69899857D02*
X132203571Y-69976047D01*
X132203571Y-69976047D02*
X132203571Y-70052238D01*
X132203571Y-70052238D02*
X131822618Y-70128428D01*
X132546428Y-69861761D02*
X132546428Y-70395095D01*
X132546428Y-69937952D02*
X132584523Y-69899857D01*
X132584523Y-69899857D02*
X132660713Y-69861761D01*
X132660713Y-69861761D02*
X132774999Y-69861761D01*
X132774999Y-69861761D02*
X132851190Y-69899857D01*
X132851190Y-69899857D02*
X132889285Y-69976047D01*
X132889285Y-69976047D02*
X132889285Y-70395095D01*
X133613095Y-70357000D02*
X133536904Y-70395095D01*
X133536904Y-70395095D02*
X133384523Y-70395095D01*
X133384523Y-70395095D02*
X133308333Y-70357000D01*
X133308333Y-70357000D02*
X133270238Y-70318904D01*
X133270238Y-70318904D02*
X133232142Y-70242714D01*
X133232142Y-70242714D02*
X133232142Y-70014142D01*
X133232142Y-70014142D02*
X133270238Y-69937952D01*
X133270238Y-69937952D02*
X133308333Y-69899857D01*
X133308333Y-69899857D02*
X133384523Y-69861761D01*
X133384523Y-69861761D02*
X133536904Y-69861761D01*
X133536904Y-69861761D02*
X133613095Y-69899857D01*
X134260714Y-70357000D02*
X134184523Y-70395095D01*
X134184523Y-70395095D02*
X134032142Y-70395095D01*
X134032142Y-70395095D02*
X133955952Y-70357000D01*
X133955952Y-70357000D02*
X133917856Y-70280809D01*
X133917856Y-70280809D02*
X133917856Y-69976047D01*
X133917856Y-69976047D02*
X133955952Y-69899857D01*
X133955952Y-69899857D02*
X134032142Y-69861761D01*
X134032142Y-69861761D02*
X134184523Y-69861761D01*
X134184523Y-69861761D02*
X134260714Y-69899857D01*
X134260714Y-69899857D02*
X134298809Y-69976047D01*
X134298809Y-69976047D02*
X134298809Y-70052238D01*
X134298809Y-70052238D02*
X133917856Y-70128428D01*
X134641666Y-70395095D02*
X134641666Y-69861761D01*
X134641666Y-70014142D02*
X134679761Y-69937952D01*
X134679761Y-69937952D02*
X134717856Y-69899857D01*
X134717856Y-69899857D02*
X134794047Y-69861761D01*
X134794047Y-69861761D02*
X134870237Y-69861761D01*
X135746428Y-70395095D02*
X135746428Y-69595095D01*
X135746428Y-69595095D02*
X136203571Y-70395095D01*
X136203571Y-70395095D02*
X136203571Y-69595095D01*
X136584523Y-70318904D02*
X136622618Y-70357000D01*
X136622618Y-70357000D02*
X136584523Y-70395095D01*
X136584523Y-70395095D02*
X136546427Y-70357000D01*
X136546427Y-70357000D02*
X136584523Y-70318904D01*
X136584523Y-70318904D02*
X136584523Y-70395095D01*
X137536903Y-70166523D02*
X137917856Y-70166523D01*
X137460713Y-70395095D02*
X137727380Y-69595095D01*
X137727380Y-69595095D02*
X137994046Y-70395095D01*
X138184522Y-70395095D02*
X138603570Y-69861761D01*
X138184522Y-69861761D02*
X138603570Y-70395095D01*
X139251189Y-70395095D02*
X139251189Y-69976047D01*
X139251189Y-69976047D02*
X139213094Y-69899857D01*
X139213094Y-69899857D02*
X139136903Y-69861761D01*
X139136903Y-69861761D02*
X138984522Y-69861761D01*
X138984522Y-69861761D02*
X138908332Y-69899857D01*
X139251189Y-70357000D02*
X139174998Y-70395095D01*
X139174998Y-70395095D02*
X138984522Y-70395095D01*
X138984522Y-70395095D02*
X138908332Y-70357000D01*
X138908332Y-70357000D02*
X138870236Y-70280809D01*
X138870236Y-70280809D02*
X138870236Y-70204619D01*
X138870236Y-70204619D02*
X138908332Y-70128428D01*
X138908332Y-70128428D02*
X138984522Y-70090333D01*
X138984522Y-70090333D02*
X139174998Y-70090333D01*
X139174998Y-70090333D02*
X139251189Y-70052238D01*
X139632142Y-69861761D02*
X139632142Y-70395095D01*
X139632142Y-69937952D02*
X139670237Y-69899857D01*
X139670237Y-69899857D02*
X139746427Y-69861761D01*
X139746427Y-69861761D02*
X139860713Y-69861761D01*
X139860713Y-69861761D02*
X139936904Y-69899857D01*
X139936904Y-69899857D02*
X139974999Y-69976047D01*
X139974999Y-69976047D02*
X139974999Y-70395095D01*
X140355952Y-70395095D02*
X140355952Y-69861761D01*
X140355952Y-69595095D02*
X140317856Y-69633190D01*
X140317856Y-69633190D02*
X140355952Y-69671285D01*
X140355952Y-69671285D02*
X140394047Y-69633190D01*
X140394047Y-69633190D02*
X140355952Y-69595095D01*
X140355952Y-69595095D02*
X140355952Y-69671285D01*
X141574999Y-70699857D02*
X141536904Y-70661761D01*
X141536904Y-70661761D02*
X141460713Y-70547476D01*
X141460713Y-70547476D02*
X141422618Y-70471285D01*
X141422618Y-70471285D02*
X141384523Y-70357000D01*
X141384523Y-70357000D02*
X141346428Y-70166523D01*
X141346428Y-70166523D02*
X141346428Y-70014142D01*
X141346428Y-70014142D02*
X141384523Y-69823666D01*
X141384523Y-69823666D02*
X141422618Y-69709380D01*
X141422618Y-69709380D02*
X141460713Y-69633190D01*
X141460713Y-69633190D02*
X141536904Y-69518904D01*
X141536904Y-69518904D02*
X141574999Y-69480809D01*
X141841665Y-70357000D02*
X141917856Y-70395095D01*
X141917856Y-70395095D02*
X142070237Y-70395095D01*
X142070237Y-70395095D02*
X142146427Y-70357000D01*
X142146427Y-70357000D02*
X142184523Y-70280809D01*
X142184523Y-70280809D02*
X142184523Y-70242714D01*
X142184523Y-70242714D02*
X142146427Y-70166523D01*
X142146427Y-70166523D02*
X142070237Y-70128428D01*
X142070237Y-70128428D02*
X141955951Y-70128428D01*
X141955951Y-70128428D02*
X141879761Y-70090333D01*
X141879761Y-70090333D02*
X141841665Y-70014142D01*
X141841665Y-70014142D02*
X141841665Y-69976047D01*
X141841665Y-69976047D02*
X141879761Y-69899857D01*
X141879761Y-69899857D02*
X141955951Y-69861761D01*
X141955951Y-69861761D02*
X142070237Y-69861761D01*
X142070237Y-69861761D02*
X142146427Y-69899857D01*
X142870237Y-70395095D02*
X142870237Y-69976047D01*
X142870237Y-69976047D02*
X142832142Y-69899857D01*
X142832142Y-69899857D02*
X142755951Y-69861761D01*
X142755951Y-69861761D02*
X142603570Y-69861761D01*
X142603570Y-69861761D02*
X142527380Y-69899857D01*
X142870237Y-70357000D02*
X142794046Y-70395095D01*
X142794046Y-70395095D02*
X142603570Y-70395095D01*
X142603570Y-70395095D02*
X142527380Y-70357000D01*
X142527380Y-70357000D02*
X142489284Y-70280809D01*
X142489284Y-70280809D02*
X142489284Y-70204619D01*
X142489284Y-70204619D02*
X142527380Y-70128428D01*
X142527380Y-70128428D02*
X142603570Y-70090333D01*
X142603570Y-70090333D02*
X142794046Y-70090333D01*
X142794046Y-70090333D02*
X142870237Y-70052238D01*
X143174999Y-70395095D02*
X143594047Y-69861761D01*
X143174999Y-69861761D02*
X143594047Y-70395095D01*
X144241666Y-70395095D02*
X144241666Y-69976047D01*
X144241666Y-69976047D02*
X144203571Y-69899857D01*
X144203571Y-69899857D02*
X144127380Y-69861761D01*
X144127380Y-69861761D02*
X143974999Y-69861761D01*
X143974999Y-69861761D02*
X143898809Y-69899857D01*
X144241666Y-70357000D02*
X144165475Y-70395095D01*
X144165475Y-70395095D02*
X143974999Y-70395095D01*
X143974999Y-70395095D02*
X143898809Y-70357000D01*
X143898809Y-70357000D02*
X143860713Y-70280809D01*
X143860713Y-70280809D02*
X143860713Y-70204619D01*
X143860713Y-70204619D02*
X143898809Y-70128428D01*
X143898809Y-70128428D02*
X143974999Y-70090333D01*
X143974999Y-70090333D02*
X144165475Y-70090333D01*
X144165475Y-70090333D02*
X144241666Y-70052238D01*
X144622619Y-69861761D02*
X144622619Y-70395095D01*
X144622619Y-69937952D02*
X144660714Y-69899857D01*
X144660714Y-69899857D02*
X144736904Y-69861761D01*
X144736904Y-69861761D02*
X144851190Y-69861761D01*
X144851190Y-69861761D02*
X144927381Y-69899857D01*
X144927381Y-69899857D02*
X144965476Y-69976047D01*
X144965476Y-69976047D02*
X144965476Y-70395095D01*
X145346429Y-70395095D02*
X145346429Y-69861761D01*
X145346429Y-69595095D02*
X145308333Y-69633190D01*
X145308333Y-69633190D02*
X145346429Y-69671285D01*
X145346429Y-69671285D02*
X145384524Y-69633190D01*
X145384524Y-69633190D02*
X145346429Y-69595095D01*
X145346429Y-69595095D02*
X145346429Y-69671285D01*
X146222619Y-70014142D02*
X146184524Y-69976047D01*
X146184524Y-69976047D02*
X146108333Y-69937952D01*
X146108333Y-69937952D02*
X146032143Y-69937952D01*
X146032143Y-69937952D02*
X145955952Y-69976047D01*
X145955952Y-69976047D02*
X145917857Y-70014142D01*
X145917857Y-70014142D02*
X145879762Y-70090333D01*
X145879762Y-70090333D02*
X145879762Y-70166523D01*
X145879762Y-70166523D02*
X145917857Y-70242714D01*
X145917857Y-70242714D02*
X145955952Y-70280809D01*
X145955952Y-70280809D02*
X146032143Y-70318904D01*
X146032143Y-70318904D02*
X146108333Y-70318904D01*
X146108333Y-70318904D02*
X146184524Y-70280809D01*
X146184524Y-70280809D02*
X146222619Y-70242714D01*
X146222619Y-69937952D02*
X146222619Y-70242714D01*
X146222619Y-70242714D02*
X146260714Y-70280809D01*
X146260714Y-70280809D02*
X146298809Y-70280809D01*
X146298809Y-70280809D02*
X146375000Y-70242714D01*
X146375000Y-70242714D02*
X146413095Y-70166523D01*
X146413095Y-70166523D02*
X146413095Y-69976047D01*
X146413095Y-69976047D02*
X146336905Y-69861761D01*
X146336905Y-69861761D02*
X146222619Y-69785571D01*
X146222619Y-69785571D02*
X146070238Y-69747476D01*
X146070238Y-69747476D02*
X145917857Y-69785571D01*
X145917857Y-69785571D02*
X145803571Y-69861761D01*
X145803571Y-69861761D02*
X145727381Y-69976047D01*
X145727381Y-69976047D02*
X145689285Y-70128428D01*
X145689285Y-70128428D02*
X145727381Y-70280809D01*
X145727381Y-70280809D02*
X145803571Y-70395095D01*
X145803571Y-70395095D02*
X145917857Y-70471285D01*
X145917857Y-70471285D02*
X146070238Y-70509380D01*
X146070238Y-70509380D02*
X146222619Y-70471285D01*
X146222619Y-70471285D02*
X146336905Y-70395095D01*
X147098809Y-69861761D02*
X147098809Y-70395095D01*
X146755952Y-69861761D02*
X146755952Y-70280809D01*
X146755952Y-70280809D02*
X146794047Y-70357000D01*
X146794047Y-70357000D02*
X146870237Y-70395095D01*
X146870237Y-70395095D02*
X146984523Y-70395095D01*
X146984523Y-70395095D02*
X147060714Y-70357000D01*
X147060714Y-70357000D02*
X147098809Y-70318904D01*
X147822619Y-70395095D02*
X147822619Y-69595095D01*
X147822619Y-70357000D02*
X147746428Y-70395095D01*
X147746428Y-70395095D02*
X147594047Y-70395095D01*
X147594047Y-70395095D02*
X147517857Y-70357000D01*
X147517857Y-70357000D02*
X147479762Y-70318904D01*
X147479762Y-70318904D02*
X147441666Y-70242714D01*
X147441666Y-70242714D02*
X147441666Y-70014142D01*
X147441666Y-70014142D02*
X147479762Y-69937952D01*
X147479762Y-69937952D02*
X147517857Y-69899857D01*
X147517857Y-69899857D02*
X147594047Y-69861761D01*
X147594047Y-69861761D02*
X147746428Y-69861761D01*
X147746428Y-69861761D02*
X147822619Y-69899857D01*
X148508334Y-70357000D02*
X148432143Y-70395095D01*
X148432143Y-70395095D02*
X148279762Y-70395095D01*
X148279762Y-70395095D02*
X148203572Y-70357000D01*
X148203572Y-70357000D02*
X148165476Y-70280809D01*
X148165476Y-70280809D02*
X148165476Y-69976047D01*
X148165476Y-69976047D02*
X148203572Y-69899857D01*
X148203572Y-69899857D02*
X148279762Y-69861761D01*
X148279762Y-69861761D02*
X148432143Y-69861761D01*
X148432143Y-69861761D02*
X148508334Y-69899857D01*
X148508334Y-69899857D02*
X148546429Y-69976047D01*
X148546429Y-69976047D02*
X148546429Y-70052238D01*
X148546429Y-70052238D02*
X148165476Y-70128428D01*
X149003571Y-70395095D02*
X148927381Y-70357000D01*
X148927381Y-70357000D02*
X148889286Y-70280809D01*
X148889286Y-70280809D02*
X148889286Y-69595095D01*
X149308334Y-70318904D02*
X149346429Y-70357000D01*
X149346429Y-70357000D02*
X149308334Y-70395095D01*
X149308334Y-70395095D02*
X149270238Y-70357000D01*
X149270238Y-70357000D02*
X149308334Y-70318904D01*
X149308334Y-70318904D02*
X149308334Y-70395095D01*
X149994048Y-70357000D02*
X149917857Y-70395095D01*
X149917857Y-70395095D02*
X149765476Y-70395095D01*
X149765476Y-70395095D02*
X149689286Y-70357000D01*
X149689286Y-70357000D02*
X149651190Y-70280809D01*
X149651190Y-70280809D02*
X149651190Y-69976047D01*
X149651190Y-69976047D02*
X149689286Y-69899857D01*
X149689286Y-69899857D02*
X149765476Y-69861761D01*
X149765476Y-69861761D02*
X149917857Y-69861761D01*
X149917857Y-69861761D02*
X149994048Y-69899857D01*
X149994048Y-69899857D02*
X150032143Y-69976047D01*
X150032143Y-69976047D02*
X150032143Y-70052238D01*
X150032143Y-70052238D02*
X149651190Y-70128428D01*
X150717857Y-70395095D02*
X150717857Y-69595095D01*
X150717857Y-70357000D02*
X150641666Y-70395095D01*
X150641666Y-70395095D02*
X150489285Y-70395095D01*
X150489285Y-70395095D02*
X150413095Y-70357000D01*
X150413095Y-70357000D02*
X150375000Y-70318904D01*
X150375000Y-70318904D02*
X150336904Y-70242714D01*
X150336904Y-70242714D02*
X150336904Y-70014142D01*
X150336904Y-70014142D02*
X150375000Y-69937952D01*
X150375000Y-69937952D02*
X150413095Y-69899857D01*
X150413095Y-69899857D02*
X150489285Y-69861761D01*
X150489285Y-69861761D02*
X150641666Y-69861761D01*
X150641666Y-69861761D02*
X150717857Y-69899857D01*
X151441667Y-69861761D02*
X151441667Y-70395095D01*
X151098810Y-69861761D02*
X151098810Y-70280809D01*
X151098810Y-70280809D02*
X151136905Y-70357000D01*
X151136905Y-70357000D02*
X151213095Y-70395095D01*
X151213095Y-70395095D02*
X151327381Y-70395095D01*
X151327381Y-70395095D02*
X151403572Y-70357000D01*
X151403572Y-70357000D02*
X151441667Y-70318904D01*
X151746429Y-70699857D02*
X151784524Y-70661761D01*
X151784524Y-70661761D02*
X151860715Y-70547476D01*
X151860715Y-70547476D02*
X151898810Y-70471285D01*
X151898810Y-70471285D02*
X151936905Y-70357000D01*
X151936905Y-70357000D02*
X151975001Y-70166523D01*
X151975001Y-70166523D02*
X151975001Y-70014142D01*
X151975001Y-70014142D02*
X151936905Y-69823666D01*
X151936905Y-69823666D02*
X151898810Y-69709380D01*
X151898810Y-69709380D02*
X151860715Y-69633190D01*
X151860715Y-69633190D02*
X151784524Y-69518904D01*
X151784524Y-69518904D02*
X151746429Y-69480809D01*
X64706902Y-140672000D02*
X64821188Y-140710095D01*
X64821188Y-140710095D02*
X65011664Y-140710095D01*
X65011664Y-140710095D02*
X65087855Y-140672000D01*
X65087855Y-140672000D02*
X65125950Y-140633904D01*
X65125950Y-140633904D02*
X65164045Y-140557714D01*
X65164045Y-140557714D02*
X65164045Y-140481523D01*
X65164045Y-140481523D02*
X65125950Y-140405333D01*
X65125950Y-140405333D02*
X65087855Y-140367238D01*
X65087855Y-140367238D02*
X65011664Y-140329142D01*
X65011664Y-140329142D02*
X64859283Y-140291047D01*
X64859283Y-140291047D02*
X64783093Y-140252952D01*
X64783093Y-140252952D02*
X64744998Y-140214857D01*
X64744998Y-140214857D02*
X64706902Y-140138666D01*
X64706902Y-140138666D02*
X64706902Y-140062476D01*
X64706902Y-140062476D02*
X64744998Y-139986285D01*
X64744998Y-139986285D02*
X64783093Y-139948190D01*
X64783093Y-139948190D02*
X64859283Y-139910095D01*
X64859283Y-139910095D02*
X65049760Y-139910095D01*
X65049760Y-139910095D02*
X65164045Y-139948190D01*
X65811665Y-140672000D02*
X65735474Y-140710095D01*
X65735474Y-140710095D02*
X65583093Y-140710095D01*
X65583093Y-140710095D02*
X65506903Y-140672000D01*
X65506903Y-140672000D02*
X65468807Y-140595809D01*
X65468807Y-140595809D02*
X65468807Y-140291047D01*
X65468807Y-140291047D02*
X65506903Y-140214857D01*
X65506903Y-140214857D02*
X65583093Y-140176761D01*
X65583093Y-140176761D02*
X65735474Y-140176761D01*
X65735474Y-140176761D02*
X65811665Y-140214857D01*
X65811665Y-140214857D02*
X65849760Y-140291047D01*
X65849760Y-140291047D02*
X65849760Y-140367238D01*
X65849760Y-140367238D02*
X65468807Y-140443428D01*
X66192617Y-140710095D02*
X66192617Y-140176761D01*
X66192617Y-140329142D02*
X66230712Y-140252952D01*
X66230712Y-140252952D02*
X66268807Y-140214857D01*
X66268807Y-140214857D02*
X66344998Y-140176761D01*
X66344998Y-140176761D02*
X66421188Y-140176761D01*
X66687855Y-140710095D02*
X66687855Y-140176761D01*
X66687855Y-139910095D02*
X66649759Y-139948190D01*
X66649759Y-139948190D02*
X66687855Y-139986285D01*
X66687855Y-139986285D02*
X66725950Y-139948190D01*
X66725950Y-139948190D02*
X66687855Y-139910095D01*
X66687855Y-139910095D02*
X66687855Y-139986285D01*
X67411664Y-140710095D02*
X67411664Y-140291047D01*
X67411664Y-140291047D02*
X67373569Y-140214857D01*
X67373569Y-140214857D02*
X67297378Y-140176761D01*
X67297378Y-140176761D02*
X67144997Y-140176761D01*
X67144997Y-140176761D02*
X67068807Y-140214857D01*
X67411664Y-140672000D02*
X67335473Y-140710095D01*
X67335473Y-140710095D02*
X67144997Y-140710095D01*
X67144997Y-140710095D02*
X67068807Y-140672000D01*
X67068807Y-140672000D02*
X67030711Y-140595809D01*
X67030711Y-140595809D02*
X67030711Y-140519619D01*
X67030711Y-140519619D02*
X67068807Y-140443428D01*
X67068807Y-140443428D02*
X67144997Y-140405333D01*
X67144997Y-140405333D02*
X67335473Y-140405333D01*
X67335473Y-140405333D02*
X67411664Y-140367238D01*
X67906902Y-140710095D02*
X67830712Y-140672000D01*
X67830712Y-140672000D02*
X67792617Y-140595809D01*
X67792617Y-140595809D02*
X67792617Y-139910095D01*
X68821189Y-140710095D02*
X68821189Y-139910095D01*
X68821189Y-139910095D02*
X69278332Y-140710095D01*
X69278332Y-140710095D02*
X69278332Y-139910095D01*
X70002141Y-140176761D02*
X70002141Y-140710095D01*
X69659284Y-140176761D02*
X69659284Y-140595809D01*
X69659284Y-140595809D02*
X69697379Y-140672000D01*
X69697379Y-140672000D02*
X69773569Y-140710095D01*
X69773569Y-140710095D02*
X69887855Y-140710095D01*
X69887855Y-140710095D02*
X69964046Y-140672000D01*
X69964046Y-140672000D02*
X70002141Y-140633904D01*
X70383094Y-140710095D02*
X70383094Y-140176761D01*
X70383094Y-140252952D02*
X70421189Y-140214857D01*
X70421189Y-140214857D02*
X70497379Y-140176761D01*
X70497379Y-140176761D02*
X70611665Y-140176761D01*
X70611665Y-140176761D02*
X70687856Y-140214857D01*
X70687856Y-140214857D02*
X70725951Y-140291047D01*
X70725951Y-140291047D02*
X70725951Y-140710095D01*
X70725951Y-140291047D02*
X70764046Y-140214857D01*
X70764046Y-140214857D02*
X70840237Y-140176761D01*
X70840237Y-140176761D02*
X70954522Y-140176761D01*
X70954522Y-140176761D02*
X71030713Y-140214857D01*
X71030713Y-140214857D02*
X71068808Y-140291047D01*
X71068808Y-140291047D02*
X71068808Y-140710095D01*
X71449761Y-140710095D02*
X71449761Y-139910095D01*
X71449761Y-140214857D02*
X71525951Y-140176761D01*
X71525951Y-140176761D02*
X71678332Y-140176761D01*
X71678332Y-140176761D02*
X71754523Y-140214857D01*
X71754523Y-140214857D02*
X71792618Y-140252952D01*
X71792618Y-140252952D02*
X71830713Y-140329142D01*
X71830713Y-140329142D02*
X71830713Y-140557714D01*
X71830713Y-140557714D02*
X71792618Y-140633904D01*
X71792618Y-140633904D02*
X71754523Y-140672000D01*
X71754523Y-140672000D02*
X71678332Y-140710095D01*
X71678332Y-140710095D02*
X71525951Y-140710095D01*
X71525951Y-140710095D02*
X71449761Y-140672000D01*
X72478333Y-140672000D02*
X72402142Y-140710095D01*
X72402142Y-140710095D02*
X72249761Y-140710095D01*
X72249761Y-140710095D02*
X72173571Y-140672000D01*
X72173571Y-140672000D02*
X72135475Y-140595809D01*
X72135475Y-140595809D02*
X72135475Y-140291047D01*
X72135475Y-140291047D02*
X72173571Y-140214857D01*
X72173571Y-140214857D02*
X72249761Y-140176761D01*
X72249761Y-140176761D02*
X72402142Y-140176761D01*
X72402142Y-140176761D02*
X72478333Y-140214857D01*
X72478333Y-140214857D02*
X72516428Y-140291047D01*
X72516428Y-140291047D02*
X72516428Y-140367238D01*
X72516428Y-140367238D02*
X72135475Y-140443428D01*
X72859285Y-140710095D02*
X72859285Y-140176761D01*
X72859285Y-140329142D02*
X72897380Y-140252952D01*
X72897380Y-140252952D02*
X72935475Y-140214857D01*
X72935475Y-140214857D02*
X73011666Y-140176761D01*
X73011666Y-140176761D02*
X73087856Y-140176761D01*
X73354523Y-140633904D02*
X73392618Y-140672000D01*
X73392618Y-140672000D02*
X73354523Y-140710095D01*
X73354523Y-140710095D02*
X73316427Y-140672000D01*
X73316427Y-140672000D02*
X73354523Y-140633904D01*
X73354523Y-140633904D02*
X73354523Y-140710095D01*
X73354523Y-140214857D02*
X73392618Y-140252952D01*
X73392618Y-140252952D02*
X73354523Y-140291047D01*
X73354523Y-140291047D02*
X73316427Y-140252952D01*
X73316427Y-140252952D02*
X73354523Y-140214857D01*
X73354523Y-140214857D02*
X73354523Y-140291047D01*
X74497380Y-139910095D02*
X74573570Y-139910095D01*
X74573570Y-139910095D02*
X74649761Y-139948190D01*
X74649761Y-139948190D02*
X74687856Y-139986285D01*
X74687856Y-139986285D02*
X74725951Y-140062476D01*
X74725951Y-140062476D02*
X74764046Y-140214857D01*
X74764046Y-140214857D02*
X74764046Y-140405333D01*
X74764046Y-140405333D02*
X74725951Y-140557714D01*
X74725951Y-140557714D02*
X74687856Y-140633904D01*
X74687856Y-140633904D02*
X74649761Y-140672000D01*
X74649761Y-140672000D02*
X74573570Y-140710095D01*
X74573570Y-140710095D02*
X74497380Y-140710095D01*
X74497380Y-140710095D02*
X74421189Y-140672000D01*
X74421189Y-140672000D02*
X74383094Y-140633904D01*
X74383094Y-140633904D02*
X74344999Y-140557714D01*
X74344999Y-140557714D02*
X74306903Y-140405333D01*
X74306903Y-140405333D02*
X74306903Y-140214857D01*
X74306903Y-140214857D02*
X74344999Y-140062476D01*
X74344999Y-140062476D02*
X74383094Y-139986285D01*
X74383094Y-139986285D02*
X74421189Y-139948190D01*
X74421189Y-139948190D02*
X74497380Y-139910095D01*
X75525951Y-140710095D02*
X75068808Y-140710095D01*
X75297380Y-140710095D02*
X75297380Y-139910095D01*
X75297380Y-139910095D02*
X75221189Y-140024380D01*
X75221189Y-140024380D02*
X75144999Y-140100571D01*
X75144999Y-140100571D02*
X75068808Y-140138666D01*
X76021190Y-139910095D02*
X76097380Y-139910095D01*
X76097380Y-139910095D02*
X76173571Y-139948190D01*
X76173571Y-139948190D02*
X76211666Y-139986285D01*
X76211666Y-139986285D02*
X76249761Y-140062476D01*
X76249761Y-140062476D02*
X76287856Y-140214857D01*
X76287856Y-140214857D02*
X76287856Y-140405333D01*
X76287856Y-140405333D02*
X76249761Y-140557714D01*
X76249761Y-140557714D02*
X76211666Y-140633904D01*
X76211666Y-140633904D02*
X76173571Y-140672000D01*
X76173571Y-140672000D02*
X76097380Y-140710095D01*
X76097380Y-140710095D02*
X76021190Y-140710095D01*
X76021190Y-140710095D02*
X75944999Y-140672000D01*
X75944999Y-140672000D02*
X75906904Y-140633904D01*
X75906904Y-140633904D02*
X75868809Y-140557714D01*
X75868809Y-140557714D02*
X75830713Y-140405333D01*
X75830713Y-140405333D02*
X75830713Y-140214857D01*
X75830713Y-140214857D02*
X75868809Y-140062476D01*
X75868809Y-140062476D02*
X75906904Y-139986285D01*
X75906904Y-139986285D02*
X75944999Y-139948190D01*
X75944999Y-139948190D02*
X76021190Y-139910095D01*
X76783095Y-139910095D02*
X76859285Y-139910095D01*
X76859285Y-139910095D02*
X76935476Y-139948190D01*
X76935476Y-139948190D02*
X76973571Y-139986285D01*
X76973571Y-139986285D02*
X77011666Y-140062476D01*
X77011666Y-140062476D02*
X77049761Y-140214857D01*
X77049761Y-140214857D02*
X77049761Y-140405333D01*
X77049761Y-140405333D02*
X77011666Y-140557714D01*
X77011666Y-140557714D02*
X76973571Y-140633904D01*
X76973571Y-140633904D02*
X76935476Y-140672000D01*
X76935476Y-140672000D02*
X76859285Y-140710095D01*
X76859285Y-140710095D02*
X76783095Y-140710095D01*
X76783095Y-140710095D02*
X76706904Y-140672000D01*
X76706904Y-140672000D02*
X76668809Y-140633904D01*
X76668809Y-140633904D02*
X76630714Y-140557714D01*
X76630714Y-140557714D02*
X76592618Y-140405333D01*
X76592618Y-140405333D02*
X76592618Y-140214857D01*
X76592618Y-140214857D02*
X76630714Y-140062476D01*
X76630714Y-140062476D02*
X76668809Y-139986285D01*
X76668809Y-139986285D02*
X76706904Y-139948190D01*
X76706904Y-139948190D02*
X76783095Y-139910095D01*
X77811666Y-140710095D02*
X77354523Y-140710095D01*
X77583095Y-140710095D02*
X77583095Y-139910095D01*
X77583095Y-139910095D02*
X77506904Y-140024380D01*
X77506904Y-140024380D02*
X77430714Y-140100571D01*
X77430714Y-140100571D02*
X77354523Y-140138666D01*
X78306905Y-139910095D02*
X78383095Y-139910095D01*
X78383095Y-139910095D02*
X78459286Y-139948190D01*
X78459286Y-139948190D02*
X78497381Y-139986285D01*
X78497381Y-139986285D02*
X78535476Y-140062476D01*
X78535476Y-140062476D02*
X78573571Y-140214857D01*
X78573571Y-140214857D02*
X78573571Y-140405333D01*
X78573571Y-140405333D02*
X78535476Y-140557714D01*
X78535476Y-140557714D02*
X78497381Y-140633904D01*
X78497381Y-140633904D02*
X78459286Y-140672000D01*
X78459286Y-140672000D02*
X78383095Y-140710095D01*
X78383095Y-140710095D02*
X78306905Y-140710095D01*
X78306905Y-140710095D02*
X78230714Y-140672000D01*
X78230714Y-140672000D02*
X78192619Y-140633904D01*
X78192619Y-140633904D02*
X78154524Y-140557714D01*
X78154524Y-140557714D02*
X78116428Y-140405333D01*
X78116428Y-140405333D02*
X78116428Y-140214857D01*
X78116428Y-140214857D02*
X78154524Y-140062476D01*
X78154524Y-140062476D02*
X78192619Y-139986285D01*
X78192619Y-139986285D02*
X78230714Y-139948190D01*
X78230714Y-139948190D02*
X78306905Y-139910095D01*
X79068810Y-139910095D02*
X79145000Y-139910095D01*
X79145000Y-139910095D02*
X79221191Y-139948190D01*
X79221191Y-139948190D02*
X79259286Y-139986285D01*
X79259286Y-139986285D02*
X79297381Y-140062476D01*
X79297381Y-140062476D02*
X79335476Y-140214857D01*
X79335476Y-140214857D02*
X79335476Y-140405333D01*
X79335476Y-140405333D02*
X79297381Y-140557714D01*
X79297381Y-140557714D02*
X79259286Y-140633904D01*
X79259286Y-140633904D02*
X79221191Y-140672000D01*
X79221191Y-140672000D02*
X79145000Y-140710095D01*
X79145000Y-140710095D02*
X79068810Y-140710095D01*
X79068810Y-140710095D02*
X78992619Y-140672000D01*
X78992619Y-140672000D02*
X78954524Y-140633904D01*
X78954524Y-140633904D02*
X78916429Y-140557714D01*
X78916429Y-140557714D02*
X78878333Y-140405333D01*
X78878333Y-140405333D02*
X78878333Y-140214857D01*
X78878333Y-140214857D02*
X78916429Y-140062476D01*
X78916429Y-140062476D02*
X78954524Y-139986285D01*
X78954524Y-139986285D02*
X78992619Y-139948190D01*
X78992619Y-139948190D02*
X79068810Y-139910095D01*
X80097381Y-140710095D02*
X79640238Y-140710095D01*
X79868810Y-140710095D02*
X79868810Y-139910095D01*
X79868810Y-139910095D02*
X79792619Y-140024380D01*
X79792619Y-140024380D02*
X79716429Y-140100571D01*
X79716429Y-140100571D02*
X79640238Y-140138666D01*
X80592620Y-139910095D02*
X80668810Y-139910095D01*
X80668810Y-139910095D02*
X80745001Y-139948190D01*
X80745001Y-139948190D02*
X80783096Y-139986285D01*
X80783096Y-139986285D02*
X80821191Y-140062476D01*
X80821191Y-140062476D02*
X80859286Y-140214857D01*
X80859286Y-140214857D02*
X80859286Y-140405333D01*
X80859286Y-140405333D02*
X80821191Y-140557714D01*
X80821191Y-140557714D02*
X80783096Y-140633904D01*
X80783096Y-140633904D02*
X80745001Y-140672000D01*
X80745001Y-140672000D02*
X80668810Y-140710095D01*
X80668810Y-140710095D02*
X80592620Y-140710095D01*
X80592620Y-140710095D02*
X80516429Y-140672000D01*
X80516429Y-140672000D02*
X80478334Y-140633904D01*
X80478334Y-140633904D02*
X80440239Y-140557714D01*
X80440239Y-140557714D02*
X80402143Y-140405333D01*
X80402143Y-140405333D02*
X80402143Y-140214857D01*
X80402143Y-140214857D02*
X80440239Y-140062476D01*
X80440239Y-140062476D02*
X80478334Y-139986285D01*
X80478334Y-139986285D02*
X80516429Y-139948190D01*
X80516429Y-139948190D02*
X80592620Y-139910095D01*
X81354525Y-139910095D02*
X81430715Y-139910095D01*
X81430715Y-139910095D02*
X81506906Y-139948190D01*
X81506906Y-139948190D02*
X81545001Y-139986285D01*
X81545001Y-139986285D02*
X81583096Y-140062476D01*
X81583096Y-140062476D02*
X81621191Y-140214857D01*
X81621191Y-140214857D02*
X81621191Y-140405333D01*
X81621191Y-140405333D02*
X81583096Y-140557714D01*
X81583096Y-140557714D02*
X81545001Y-140633904D01*
X81545001Y-140633904D02*
X81506906Y-140672000D01*
X81506906Y-140672000D02*
X81430715Y-140710095D01*
X81430715Y-140710095D02*
X81354525Y-140710095D01*
X81354525Y-140710095D02*
X81278334Y-140672000D01*
X81278334Y-140672000D02*
X81240239Y-140633904D01*
X81240239Y-140633904D02*
X81202144Y-140557714D01*
X81202144Y-140557714D02*
X81164048Y-140405333D01*
X81164048Y-140405333D02*
X81164048Y-140214857D01*
X81164048Y-140214857D02*
X81202144Y-140062476D01*
X81202144Y-140062476D02*
X81240239Y-139986285D01*
X81240239Y-139986285D02*
X81278334Y-139948190D01*
X81278334Y-139948190D02*
X81354525Y-139910095D01*
X82383096Y-140710095D02*
X81925953Y-140710095D01*
X82154525Y-140710095D02*
X82154525Y-139910095D01*
X82154525Y-139910095D02*
X82078334Y-140024380D01*
X82078334Y-140024380D02*
X82002144Y-140100571D01*
X82002144Y-140100571D02*
X81925953Y-140138666D01*
X84270095Y-112246427D02*
X83470095Y-112246427D01*
X83851047Y-112246427D02*
X83851047Y-111789284D01*
X84270095Y-111789284D02*
X83470095Y-111789284D01*
X83470095Y-111522618D02*
X84270095Y-111255951D01*
X84270095Y-111255951D02*
X83470095Y-110989285D01*
X64201189Y-100620095D02*
X64124999Y-100582000D01*
X64124999Y-100582000D02*
X64086904Y-100505809D01*
X64086904Y-100505809D02*
X64086904Y-99820095D01*
X64505952Y-100620095D02*
X64505952Y-100086761D01*
X64505952Y-100162952D02*
X64544047Y-100124857D01*
X64544047Y-100124857D02*
X64620237Y-100086761D01*
X64620237Y-100086761D02*
X64734523Y-100086761D01*
X64734523Y-100086761D02*
X64810714Y-100124857D01*
X64810714Y-100124857D02*
X64848809Y-100201047D01*
X64848809Y-100201047D02*
X64848809Y-100620095D01*
X64848809Y-100201047D02*
X64886904Y-100124857D01*
X64886904Y-100124857D02*
X64963095Y-100086761D01*
X64963095Y-100086761D02*
X65077380Y-100086761D01*
X65077380Y-100086761D02*
X65153571Y-100124857D01*
X65153571Y-100124857D02*
X65191666Y-100201047D01*
X65191666Y-100201047D02*
X65191666Y-100620095D01*
X65572619Y-100620095D02*
X65572619Y-99820095D01*
X65915476Y-100620095D02*
X65915476Y-100201047D01*
X65915476Y-100201047D02*
X65877381Y-100124857D01*
X65877381Y-100124857D02*
X65801190Y-100086761D01*
X65801190Y-100086761D02*
X65686904Y-100086761D01*
X65686904Y-100086761D02*
X65610714Y-100124857D01*
X65610714Y-100124857D02*
X65572619Y-100162952D01*
X66639286Y-99820095D02*
X66486905Y-99820095D01*
X66486905Y-99820095D02*
X66410714Y-99858190D01*
X66410714Y-99858190D02*
X66372619Y-99896285D01*
X66372619Y-99896285D02*
X66296429Y-100010571D01*
X66296429Y-100010571D02*
X66258333Y-100162952D01*
X66258333Y-100162952D02*
X66258333Y-100467714D01*
X66258333Y-100467714D02*
X66296429Y-100543904D01*
X66296429Y-100543904D02*
X66334524Y-100582000D01*
X66334524Y-100582000D02*
X66410714Y-100620095D01*
X66410714Y-100620095D02*
X66563095Y-100620095D01*
X66563095Y-100620095D02*
X66639286Y-100582000D01*
X66639286Y-100582000D02*
X66677381Y-100543904D01*
X66677381Y-100543904D02*
X66715476Y-100467714D01*
X66715476Y-100467714D02*
X66715476Y-100277238D01*
X66715476Y-100277238D02*
X66677381Y-100201047D01*
X66677381Y-100201047D02*
X66639286Y-100162952D01*
X66639286Y-100162952D02*
X66563095Y-100124857D01*
X66563095Y-100124857D02*
X66410714Y-100124857D01*
X66410714Y-100124857D02*
X66334524Y-100162952D01*
X66334524Y-100162952D02*
X66296429Y-100201047D01*
X66296429Y-100201047D02*
X66258333Y-100277238D01*
X67401191Y-99820095D02*
X67248810Y-99820095D01*
X67248810Y-99820095D02*
X67172619Y-99858190D01*
X67172619Y-99858190D02*
X67134524Y-99896285D01*
X67134524Y-99896285D02*
X67058334Y-100010571D01*
X67058334Y-100010571D02*
X67020238Y-100162952D01*
X67020238Y-100162952D02*
X67020238Y-100467714D01*
X67020238Y-100467714D02*
X67058334Y-100543904D01*
X67058334Y-100543904D02*
X67096429Y-100582000D01*
X67096429Y-100582000D02*
X67172619Y-100620095D01*
X67172619Y-100620095D02*
X67325000Y-100620095D01*
X67325000Y-100620095D02*
X67401191Y-100582000D01*
X67401191Y-100582000D02*
X67439286Y-100543904D01*
X67439286Y-100543904D02*
X67477381Y-100467714D01*
X67477381Y-100467714D02*
X67477381Y-100277238D01*
X67477381Y-100277238D02*
X67439286Y-100201047D01*
X67439286Y-100201047D02*
X67401191Y-100162952D01*
X67401191Y-100162952D02*
X67325000Y-100124857D01*
X67325000Y-100124857D02*
X67172619Y-100124857D01*
X67172619Y-100124857D02*
X67096429Y-100162952D01*
X67096429Y-100162952D02*
X67058334Y-100201047D01*
X67058334Y-100201047D02*
X67020238Y-100277238D01*
X68201191Y-99820095D02*
X67820239Y-99820095D01*
X67820239Y-99820095D02*
X67782143Y-100201047D01*
X67782143Y-100201047D02*
X67820239Y-100162952D01*
X67820239Y-100162952D02*
X67896429Y-100124857D01*
X67896429Y-100124857D02*
X68086905Y-100124857D01*
X68086905Y-100124857D02*
X68163096Y-100162952D01*
X68163096Y-100162952D02*
X68201191Y-100201047D01*
X68201191Y-100201047D02*
X68239286Y-100277238D01*
X68239286Y-100277238D02*
X68239286Y-100467714D01*
X68239286Y-100467714D02*
X68201191Y-100543904D01*
X68201191Y-100543904D02*
X68163096Y-100582000D01*
X68163096Y-100582000D02*
X68086905Y-100620095D01*
X68086905Y-100620095D02*
X67896429Y-100620095D01*
X67896429Y-100620095D02*
X67820239Y-100582000D01*
X67820239Y-100582000D02*
X67782143Y-100543904D01*
X68696429Y-100162952D02*
X68620239Y-100124857D01*
X68620239Y-100124857D02*
X68582144Y-100086761D01*
X68582144Y-100086761D02*
X68544048Y-100010571D01*
X68544048Y-100010571D02*
X68544048Y-99972476D01*
X68544048Y-99972476D02*
X68582144Y-99896285D01*
X68582144Y-99896285D02*
X68620239Y-99858190D01*
X68620239Y-99858190D02*
X68696429Y-99820095D01*
X68696429Y-99820095D02*
X68848810Y-99820095D01*
X68848810Y-99820095D02*
X68925001Y-99858190D01*
X68925001Y-99858190D02*
X68963096Y-99896285D01*
X68963096Y-99896285D02*
X69001191Y-99972476D01*
X69001191Y-99972476D02*
X69001191Y-100010571D01*
X69001191Y-100010571D02*
X68963096Y-100086761D01*
X68963096Y-100086761D02*
X68925001Y-100124857D01*
X68925001Y-100124857D02*
X68848810Y-100162952D01*
X68848810Y-100162952D02*
X68696429Y-100162952D01*
X68696429Y-100162952D02*
X68620239Y-100201047D01*
X68620239Y-100201047D02*
X68582144Y-100239142D01*
X68582144Y-100239142D02*
X68544048Y-100315333D01*
X68544048Y-100315333D02*
X68544048Y-100467714D01*
X68544048Y-100467714D02*
X68582144Y-100543904D01*
X68582144Y-100543904D02*
X68620239Y-100582000D01*
X68620239Y-100582000D02*
X68696429Y-100620095D01*
X68696429Y-100620095D02*
X68848810Y-100620095D01*
X68848810Y-100620095D02*
X68925001Y-100582000D01*
X68925001Y-100582000D02*
X68963096Y-100543904D01*
X68963096Y-100543904D02*
X69001191Y-100467714D01*
X69001191Y-100467714D02*
X69001191Y-100315333D01*
X69001191Y-100315333D02*
X68963096Y-100239142D01*
X68963096Y-100239142D02*
X68925001Y-100201047D01*
X68925001Y-100201047D02*
X68848810Y-100162952D01*
X86073190Y-111859523D02*
X86035095Y-111935713D01*
X86035095Y-111935713D02*
X86035095Y-112049999D01*
X86035095Y-112049999D02*
X86073190Y-112164285D01*
X86073190Y-112164285D02*
X86149380Y-112240475D01*
X86149380Y-112240475D02*
X86225571Y-112278570D01*
X86225571Y-112278570D02*
X86377952Y-112316666D01*
X86377952Y-112316666D02*
X86492238Y-112316666D01*
X86492238Y-112316666D02*
X86644619Y-112278570D01*
X86644619Y-112278570D02*
X86720809Y-112240475D01*
X86720809Y-112240475D02*
X86797000Y-112164285D01*
X86797000Y-112164285D02*
X86835095Y-112049999D01*
X86835095Y-112049999D02*
X86835095Y-111973808D01*
X86835095Y-111973808D02*
X86797000Y-111859523D01*
X86797000Y-111859523D02*
X86758904Y-111821427D01*
X86758904Y-111821427D02*
X86492238Y-111821427D01*
X86492238Y-111821427D02*
X86492238Y-111973808D01*
X86835095Y-111478570D02*
X86035095Y-111478570D01*
X86035095Y-111478570D02*
X86835095Y-111021427D01*
X86835095Y-111021427D02*
X86035095Y-111021427D01*
X86835095Y-110640475D02*
X86035095Y-110640475D01*
X86035095Y-110640475D02*
X86035095Y-110449999D01*
X86035095Y-110449999D02*
X86073190Y-110335713D01*
X86073190Y-110335713D02*
X86149380Y-110259523D01*
X86149380Y-110259523D02*
X86225571Y-110221428D01*
X86225571Y-110221428D02*
X86377952Y-110183332D01*
X86377952Y-110183332D02*
X86492238Y-110183332D01*
X86492238Y-110183332D02*
X86644619Y-110221428D01*
X86644619Y-110221428D02*
X86720809Y-110259523D01*
X86720809Y-110259523D02*
X86797000Y-110335713D01*
X86797000Y-110335713D02*
X86835095Y-110449999D01*
X86835095Y-110449999D02*
X86835095Y-110640475D01*
X81376047Y-111930714D02*
X81376047Y-112197380D01*
X81795095Y-112197380D02*
X80995095Y-112197380D01*
X80995095Y-112197380D02*
X80995095Y-111816428D01*
X89277000Y-112273571D02*
X89315095Y-112159285D01*
X89315095Y-112159285D02*
X89315095Y-111968809D01*
X89315095Y-111968809D02*
X89277000Y-111892618D01*
X89277000Y-111892618D02*
X89238904Y-111854523D01*
X89238904Y-111854523D02*
X89162714Y-111816428D01*
X89162714Y-111816428D02*
X89086523Y-111816428D01*
X89086523Y-111816428D02*
X89010333Y-111854523D01*
X89010333Y-111854523D02*
X88972238Y-111892618D01*
X88972238Y-111892618D02*
X88934142Y-111968809D01*
X88934142Y-111968809D02*
X88896047Y-112121190D01*
X88896047Y-112121190D02*
X88857952Y-112197380D01*
X88857952Y-112197380D02*
X88819857Y-112235475D01*
X88819857Y-112235475D02*
X88743666Y-112273571D01*
X88743666Y-112273571D02*
X88667476Y-112273571D01*
X88667476Y-112273571D02*
X88591285Y-112235475D01*
X88591285Y-112235475D02*
X88553190Y-112197380D01*
X88553190Y-112197380D02*
X88515095Y-112121190D01*
X88515095Y-112121190D02*
X88515095Y-111930713D01*
X88515095Y-111930713D02*
X88553190Y-111816428D01*
X80626428Y-88277000D02*
X80740714Y-88315095D01*
X80740714Y-88315095D02*
X80931190Y-88315095D01*
X80931190Y-88315095D02*
X81007381Y-88277000D01*
X81007381Y-88277000D02*
X81045476Y-88238904D01*
X81045476Y-88238904D02*
X81083571Y-88162714D01*
X81083571Y-88162714D02*
X81083571Y-88086523D01*
X81083571Y-88086523D02*
X81045476Y-88010333D01*
X81045476Y-88010333D02*
X81007381Y-87972238D01*
X81007381Y-87972238D02*
X80931190Y-87934142D01*
X80931190Y-87934142D02*
X80778809Y-87896047D01*
X80778809Y-87896047D02*
X80702619Y-87857952D01*
X80702619Y-87857952D02*
X80664524Y-87819857D01*
X80664524Y-87819857D02*
X80626428Y-87743666D01*
X80626428Y-87743666D02*
X80626428Y-87667476D01*
X80626428Y-87667476D02*
X80664524Y-87591285D01*
X80664524Y-87591285D02*
X80702619Y-87553190D01*
X80702619Y-87553190D02*
X80778809Y-87515095D01*
X80778809Y-87515095D02*
X80969286Y-87515095D01*
X80969286Y-87515095D02*
X81083571Y-87553190D01*
X81426429Y-87781761D02*
X81426429Y-88581761D01*
X81426429Y-87819857D02*
X81502619Y-87781761D01*
X81502619Y-87781761D02*
X81655000Y-87781761D01*
X81655000Y-87781761D02*
X81731191Y-87819857D01*
X81731191Y-87819857D02*
X81769286Y-87857952D01*
X81769286Y-87857952D02*
X81807381Y-87934142D01*
X81807381Y-87934142D02*
X81807381Y-88162714D01*
X81807381Y-88162714D02*
X81769286Y-88238904D01*
X81769286Y-88238904D02*
X81731191Y-88277000D01*
X81731191Y-88277000D02*
X81655000Y-88315095D01*
X81655000Y-88315095D02*
X81502619Y-88315095D01*
X81502619Y-88315095D02*
X81426429Y-88277000D01*
X82455001Y-88277000D02*
X82378810Y-88315095D01*
X82378810Y-88315095D02*
X82226429Y-88315095D01*
X82226429Y-88315095D02*
X82150239Y-88277000D01*
X82150239Y-88277000D02*
X82112143Y-88200809D01*
X82112143Y-88200809D02*
X82112143Y-87896047D01*
X82112143Y-87896047D02*
X82150239Y-87819857D01*
X82150239Y-87819857D02*
X82226429Y-87781761D01*
X82226429Y-87781761D02*
X82378810Y-87781761D01*
X82378810Y-87781761D02*
X82455001Y-87819857D01*
X82455001Y-87819857D02*
X82493096Y-87896047D01*
X82493096Y-87896047D02*
X82493096Y-87972238D01*
X82493096Y-87972238D02*
X82112143Y-88048428D01*
X82835953Y-87781761D02*
X82835953Y-88315095D01*
X82835953Y-87857952D02*
X82874048Y-87819857D01*
X82874048Y-87819857D02*
X82950238Y-87781761D01*
X82950238Y-87781761D02*
X83064524Y-87781761D01*
X83064524Y-87781761D02*
X83140715Y-87819857D01*
X83140715Y-87819857D02*
X83178810Y-87896047D01*
X83178810Y-87896047D02*
X83178810Y-88315095D01*
X83902620Y-88277000D02*
X83826429Y-88315095D01*
X83826429Y-88315095D02*
X83674048Y-88315095D01*
X83674048Y-88315095D02*
X83597858Y-88277000D01*
X83597858Y-88277000D02*
X83559763Y-88238904D01*
X83559763Y-88238904D02*
X83521667Y-88162714D01*
X83521667Y-88162714D02*
X83521667Y-87934142D01*
X83521667Y-87934142D02*
X83559763Y-87857952D01*
X83559763Y-87857952D02*
X83597858Y-87819857D01*
X83597858Y-87819857D02*
X83674048Y-87781761D01*
X83674048Y-87781761D02*
X83826429Y-87781761D01*
X83826429Y-87781761D02*
X83902620Y-87819857D01*
X84550239Y-88277000D02*
X84474048Y-88315095D01*
X84474048Y-88315095D02*
X84321667Y-88315095D01*
X84321667Y-88315095D02*
X84245477Y-88277000D01*
X84245477Y-88277000D02*
X84207381Y-88200809D01*
X84207381Y-88200809D02*
X84207381Y-87896047D01*
X84207381Y-87896047D02*
X84245477Y-87819857D01*
X84245477Y-87819857D02*
X84321667Y-87781761D01*
X84321667Y-87781761D02*
X84474048Y-87781761D01*
X84474048Y-87781761D02*
X84550239Y-87819857D01*
X84550239Y-87819857D02*
X84588334Y-87896047D01*
X84588334Y-87896047D02*
X84588334Y-87972238D01*
X84588334Y-87972238D02*
X84207381Y-88048428D01*
X84931191Y-88315095D02*
X84931191Y-87781761D01*
X84931191Y-87934142D02*
X84969286Y-87857952D01*
X84969286Y-87857952D02*
X85007381Y-87819857D01*
X85007381Y-87819857D02*
X85083572Y-87781761D01*
X85083572Y-87781761D02*
X85159762Y-87781761D01*
X86035953Y-88315095D02*
X86035953Y-87515095D01*
X86035953Y-87515095D02*
X86493096Y-88315095D01*
X86493096Y-88315095D02*
X86493096Y-87515095D01*
X86874048Y-88238904D02*
X86912143Y-88277000D01*
X86912143Y-88277000D02*
X86874048Y-88315095D01*
X86874048Y-88315095D02*
X86835952Y-88277000D01*
X86835952Y-88277000D02*
X86874048Y-88238904D01*
X86874048Y-88238904D02*
X86874048Y-88315095D01*
X87826428Y-88086523D02*
X88207381Y-88086523D01*
X87750238Y-88315095D02*
X88016905Y-87515095D01*
X88016905Y-87515095D02*
X88283571Y-88315095D01*
X88474047Y-88315095D02*
X88893095Y-87781761D01*
X88474047Y-87781761D02*
X88893095Y-88315095D01*
X89540714Y-88315095D02*
X89540714Y-87896047D01*
X89540714Y-87896047D02*
X89502619Y-87819857D01*
X89502619Y-87819857D02*
X89426428Y-87781761D01*
X89426428Y-87781761D02*
X89274047Y-87781761D01*
X89274047Y-87781761D02*
X89197857Y-87819857D01*
X89540714Y-88277000D02*
X89464523Y-88315095D01*
X89464523Y-88315095D02*
X89274047Y-88315095D01*
X89274047Y-88315095D02*
X89197857Y-88277000D01*
X89197857Y-88277000D02*
X89159761Y-88200809D01*
X89159761Y-88200809D02*
X89159761Y-88124619D01*
X89159761Y-88124619D02*
X89197857Y-88048428D01*
X89197857Y-88048428D02*
X89274047Y-88010333D01*
X89274047Y-88010333D02*
X89464523Y-88010333D01*
X89464523Y-88010333D02*
X89540714Y-87972238D01*
X89921667Y-87781761D02*
X89921667Y-88315095D01*
X89921667Y-87857952D02*
X89959762Y-87819857D01*
X89959762Y-87819857D02*
X90035952Y-87781761D01*
X90035952Y-87781761D02*
X90150238Y-87781761D01*
X90150238Y-87781761D02*
X90226429Y-87819857D01*
X90226429Y-87819857D02*
X90264524Y-87896047D01*
X90264524Y-87896047D02*
X90264524Y-88315095D01*
X90645477Y-88315095D02*
X90645477Y-87781761D01*
X90645477Y-87515095D02*
X90607381Y-87553190D01*
X90607381Y-87553190D02*
X90645477Y-87591285D01*
X90645477Y-87591285D02*
X90683572Y-87553190D01*
X90683572Y-87553190D02*
X90645477Y-87515095D01*
X90645477Y-87515095D02*
X90645477Y-87591285D01*
X91829285Y-88619857D02*
X91791190Y-88581761D01*
X91791190Y-88581761D02*
X91714999Y-88467476D01*
X91714999Y-88467476D02*
X91676904Y-88391285D01*
X91676904Y-88391285D02*
X91638809Y-88277000D01*
X91638809Y-88277000D02*
X91600714Y-88086523D01*
X91600714Y-88086523D02*
X91600714Y-87934142D01*
X91600714Y-87934142D02*
X91638809Y-87743666D01*
X91638809Y-87743666D02*
X91676904Y-87629380D01*
X91676904Y-87629380D02*
X91714999Y-87553190D01*
X91714999Y-87553190D02*
X91791190Y-87438904D01*
X91791190Y-87438904D02*
X91829285Y-87400809D01*
X92095951Y-88277000D02*
X92172142Y-88315095D01*
X92172142Y-88315095D02*
X92324523Y-88315095D01*
X92324523Y-88315095D02*
X92400713Y-88277000D01*
X92400713Y-88277000D02*
X92438809Y-88200809D01*
X92438809Y-88200809D02*
X92438809Y-88162714D01*
X92438809Y-88162714D02*
X92400713Y-88086523D01*
X92400713Y-88086523D02*
X92324523Y-88048428D01*
X92324523Y-88048428D02*
X92210237Y-88048428D01*
X92210237Y-88048428D02*
X92134047Y-88010333D01*
X92134047Y-88010333D02*
X92095951Y-87934142D01*
X92095951Y-87934142D02*
X92095951Y-87896047D01*
X92095951Y-87896047D02*
X92134047Y-87819857D01*
X92134047Y-87819857D02*
X92210237Y-87781761D01*
X92210237Y-87781761D02*
X92324523Y-87781761D01*
X92324523Y-87781761D02*
X92400713Y-87819857D01*
X93124523Y-88315095D02*
X93124523Y-87896047D01*
X93124523Y-87896047D02*
X93086428Y-87819857D01*
X93086428Y-87819857D02*
X93010237Y-87781761D01*
X93010237Y-87781761D02*
X92857856Y-87781761D01*
X92857856Y-87781761D02*
X92781666Y-87819857D01*
X93124523Y-88277000D02*
X93048332Y-88315095D01*
X93048332Y-88315095D02*
X92857856Y-88315095D01*
X92857856Y-88315095D02*
X92781666Y-88277000D01*
X92781666Y-88277000D02*
X92743570Y-88200809D01*
X92743570Y-88200809D02*
X92743570Y-88124619D01*
X92743570Y-88124619D02*
X92781666Y-88048428D01*
X92781666Y-88048428D02*
X92857856Y-88010333D01*
X92857856Y-88010333D02*
X93048332Y-88010333D01*
X93048332Y-88010333D02*
X93124523Y-87972238D01*
X93429285Y-88315095D02*
X93848333Y-87781761D01*
X93429285Y-87781761D02*
X93848333Y-88315095D01*
X94495952Y-88315095D02*
X94495952Y-87896047D01*
X94495952Y-87896047D02*
X94457857Y-87819857D01*
X94457857Y-87819857D02*
X94381666Y-87781761D01*
X94381666Y-87781761D02*
X94229285Y-87781761D01*
X94229285Y-87781761D02*
X94153095Y-87819857D01*
X94495952Y-88277000D02*
X94419761Y-88315095D01*
X94419761Y-88315095D02*
X94229285Y-88315095D01*
X94229285Y-88315095D02*
X94153095Y-88277000D01*
X94153095Y-88277000D02*
X94114999Y-88200809D01*
X94114999Y-88200809D02*
X94114999Y-88124619D01*
X94114999Y-88124619D02*
X94153095Y-88048428D01*
X94153095Y-88048428D02*
X94229285Y-88010333D01*
X94229285Y-88010333D02*
X94419761Y-88010333D01*
X94419761Y-88010333D02*
X94495952Y-87972238D01*
X94876905Y-87781761D02*
X94876905Y-88315095D01*
X94876905Y-87857952D02*
X94915000Y-87819857D01*
X94915000Y-87819857D02*
X94991190Y-87781761D01*
X94991190Y-87781761D02*
X95105476Y-87781761D01*
X95105476Y-87781761D02*
X95181667Y-87819857D01*
X95181667Y-87819857D02*
X95219762Y-87896047D01*
X95219762Y-87896047D02*
X95219762Y-88315095D01*
X95600715Y-88315095D02*
X95600715Y-87781761D01*
X95600715Y-87515095D02*
X95562619Y-87553190D01*
X95562619Y-87553190D02*
X95600715Y-87591285D01*
X95600715Y-87591285D02*
X95638810Y-87553190D01*
X95638810Y-87553190D02*
X95600715Y-87515095D01*
X95600715Y-87515095D02*
X95600715Y-87591285D01*
X96476905Y-87934142D02*
X96438810Y-87896047D01*
X96438810Y-87896047D02*
X96362619Y-87857952D01*
X96362619Y-87857952D02*
X96286429Y-87857952D01*
X96286429Y-87857952D02*
X96210238Y-87896047D01*
X96210238Y-87896047D02*
X96172143Y-87934142D01*
X96172143Y-87934142D02*
X96134048Y-88010333D01*
X96134048Y-88010333D02*
X96134048Y-88086523D01*
X96134048Y-88086523D02*
X96172143Y-88162714D01*
X96172143Y-88162714D02*
X96210238Y-88200809D01*
X96210238Y-88200809D02*
X96286429Y-88238904D01*
X96286429Y-88238904D02*
X96362619Y-88238904D01*
X96362619Y-88238904D02*
X96438810Y-88200809D01*
X96438810Y-88200809D02*
X96476905Y-88162714D01*
X96476905Y-87857952D02*
X96476905Y-88162714D01*
X96476905Y-88162714D02*
X96515000Y-88200809D01*
X96515000Y-88200809D02*
X96553095Y-88200809D01*
X96553095Y-88200809D02*
X96629286Y-88162714D01*
X96629286Y-88162714D02*
X96667381Y-88086523D01*
X96667381Y-88086523D02*
X96667381Y-87896047D01*
X96667381Y-87896047D02*
X96591191Y-87781761D01*
X96591191Y-87781761D02*
X96476905Y-87705571D01*
X96476905Y-87705571D02*
X96324524Y-87667476D01*
X96324524Y-87667476D02*
X96172143Y-87705571D01*
X96172143Y-87705571D02*
X96057857Y-87781761D01*
X96057857Y-87781761D02*
X95981667Y-87896047D01*
X95981667Y-87896047D02*
X95943571Y-88048428D01*
X95943571Y-88048428D02*
X95981667Y-88200809D01*
X95981667Y-88200809D02*
X96057857Y-88315095D01*
X96057857Y-88315095D02*
X96172143Y-88391285D01*
X96172143Y-88391285D02*
X96324524Y-88429380D01*
X96324524Y-88429380D02*
X96476905Y-88391285D01*
X96476905Y-88391285D02*
X96591191Y-88315095D01*
X97353095Y-87781761D02*
X97353095Y-88315095D01*
X97010238Y-87781761D02*
X97010238Y-88200809D01*
X97010238Y-88200809D02*
X97048333Y-88277000D01*
X97048333Y-88277000D02*
X97124523Y-88315095D01*
X97124523Y-88315095D02*
X97238809Y-88315095D01*
X97238809Y-88315095D02*
X97315000Y-88277000D01*
X97315000Y-88277000D02*
X97353095Y-88238904D01*
X98076905Y-88315095D02*
X98076905Y-87515095D01*
X98076905Y-88277000D02*
X98000714Y-88315095D01*
X98000714Y-88315095D02*
X97848333Y-88315095D01*
X97848333Y-88315095D02*
X97772143Y-88277000D01*
X97772143Y-88277000D02*
X97734048Y-88238904D01*
X97734048Y-88238904D02*
X97695952Y-88162714D01*
X97695952Y-88162714D02*
X97695952Y-87934142D01*
X97695952Y-87934142D02*
X97734048Y-87857952D01*
X97734048Y-87857952D02*
X97772143Y-87819857D01*
X97772143Y-87819857D02*
X97848333Y-87781761D01*
X97848333Y-87781761D02*
X98000714Y-87781761D01*
X98000714Y-87781761D02*
X98076905Y-87819857D01*
X98762620Y-88277000D02*
X98686429Y-88315095D01*
X98686429Y-88315095D02*
X98534048Y-88315095D01*
X98534048Y-88315095D02*
X98457858Y-88277000D01*
X98457858Y-88277000D02*
X98419762Y-88200809D01*
X98419762Y-88200809D02*
X98419762Y-87896047D01*
X98419762Y-87896047D02*
X98457858Y-87819857D01*
X98457858Y-87819857D02*
X98534048Y-87781761D01*
X98534048Y-87781761D02*
X98686429Y-87781761D01*
X98686429Y-87781761D02*
X98762620Y-87819857D01*
X98762620Y-87819857D02*
X98800715Y-87896047D01*
X98800715Y-87896047D02*
X98800715Y-87972238D01*
X98800715Y-87972238D02*
X98419762Y-88048428D01*
X99257857Y-88315095D02*
X99181667Y-88277000D01*
X99181667Y-88277000D02*
X99143572Y-88200809D01*
X99143572Y-88200809D02*
X99143572Y-87515095D01*
X99562620Y-88238904D02*
X99600715Y-88277000D01*
X99600715Y-88277000D02*
X99562620Y-88315095D01*
X99562620Y-88315095D02*
X99524524Y-88277000D01*
X99524524Y-88277000D02*
X99562620Y-88238904D01*
X99562620Y-88238904D02*
X99562620Y-88315095D01*
X100248334Y-88277000D02*
X100172143Y-88315095D01*
X100172143Y-88315095D02*
X100019762Y-88315095D01*
X100019762Y-88315095D02*
X99943572Y-88277000D01*
X99943572Y-88277000D02*
X99905476Y-88200809D01*
X99905476Y-88200809D02*
X99905476Y-87896047D01*
X99905476Y-87896047D02*
X99943572Y-87819857D01*
X99943572Y-87819857D02*
X100019762Y-87781761D01*
X100019762Y-87781761D02*
X100172143Y-87781761D01*
X100172143Y-87781761D02*
X100248334Y-87819857D01*
X100248334Y-87819857D02*
X100286429Y-87896047D01*
X100286429Y-87896047D02*
X100286429Y-87972238D01*
X100286429Y-87972238D02*
X99905476Y-88048428D01*
X100972143Y-88315095D02*
X100972143Y-87515095D01*
X100972143Y-88277000D02*
X100895952Y-88315095D01*
X100895952Y-88315095D02*
X100743571Y-88315095D01*
X100743571Y-88315095D02*
X100667381Y-88277000D01*
X100667381Y-88277000D02*
X100629286Y-88238904D01*
X100629286Y-88238904D02*
X100591190Y-88162714D01*
X100591190Y-88162714D02*
X100591190Y-87934142D01*
X100591190Y-87934142D02*
X100629286Y-87857952D01*
X100629286Y-87857952D02*
X100667381Y-87819857D01*
X100667381Y-87819857D02*
X100743571Y-87781761D01*
X100743571Y-87781761D02*
X100895952Y-87781761D01*
X100895952Y-87781761D02*
X100972143Y-87819857D01*
X101695953Y-87781761D02*
X101695953Y-88315095D01*
X101353096Y-87781761D02*
X101353096Y-88200809D01*
X101353096Y-88200809D02*
X101391191Y-88277000D01*
X101391191Y-88277000D02*
X101467381Y-88315095D01*
X101467381Y-88315095D02*
X101581667Y-88315095D01*
X101581667Y-88315095D02*
X101657858Y-88277000D01*
X101657858Y-88277000D02*
X101695953Y-88238904D01*
X102000715Y-88619857D02*
X102038810Y-88581761D01*
X102038810Y-88581761D02*
X102115001Y-88467476D01*
X102115001Y-88467476D02*
X102153096Y-88391285D01*
X102153096Y-88391285D02*
X102191191Y-88277000D01*
X102191191Y-88277000D02*
X102229287Y-88086523D01*
X102229287Y-88086523D02*
X102229287Y-87934142D01*
X102229287Y-87934142D02*
X102191191Y-87743666D01*
X102191191Y-87743666D02*
X102153096Y-87629380D01*
X102153096Y-87629380D02*
X102115001Y-87553190D01*
X102115001Y-87553190D02*
X102038810Y-87438904D01*
X102038810Y-87438904D02*
X102000715Y-87400809D01*
X100202619Y-91176904D02*
X101012142Y-91176904D01*
X101012142Y-91176904D02*
X101107380Y-91129285D01*
X101107380Y-91129285D02*
X101155000Y-91081666D01*
X101155000Y-91081666D02*
X101202619Y-90986428D01*
X101202619Y-90986428D02*
X101202619Y-90795952D01*
X101202619Y-90795952D02*
X101155000Y-90700714D01*
X101155000Y-90700714D02*
X101107380Y-90653095D01*
X101107380Y-90653095D02*
X101012142Y-90605476D01*
X101012142Y-90605476D02*
X100202619Y-90605476D01*
X100202619Y-90224523D02*
X100202619Y-89557857D01*
X100202619Y-89557857D02*
X101202619Y-89986428D01*
X84095476Y-57345095D02*
X84095476Y-57992714D01*
X84095476Y-57992714D02*
X84133571Y-58068904D01*
X84133571Y-58068904D02*
X84171666Y-58107000D01*
X84171666Y-58107000D02*
X84247857Y-58145095D01*
X84247857Y-58145095D02*
X84400238Y-58145095D01*
X84400238Y-58145095D02*
X84476428Y-58107000D01*
X84476428Y-58107000D02*
X84514523Y-58068904D01*
X84514523Y-58068904D02*
X84552619Y-57992714D01*
X84552619Y-57992714D02*
X84552619Y-57345095D01*
X84895475Y-57421285D02*
X84933571Y-57383190D01*
X84933571Y-57383190D02*
X85009761Y-57345095D01*
X85009761Y-57345095D02*
X85200237Y-57345095D01*
X85200237Y-57345095D02*
X85276428Y-57383190D01*
X85276428Y-57383190D02*
X85314523Y-57421285D01*
X85314523Y-57421285D02*
X85352618Y-57497476D01*
X85352618Y-57497476D02*
X85352618Y-57573666D01*
X85352618Y-57573666D02*
X85314523Y-57687952D01*
X85314523Y-57687952D02*
X84857380Y-58145095D01*
X84857380Y-58145095D02*
X85352618Y-58145095D01*
X78844523Y-61591523D02*
X79225476Y-61591523D01*
X78768333Y-61820095D02*
X79035000Y-61020095D01*
X79035000Y-61020095D02*
X79301666Y-61820095D01*
X83217619Y-63718904D02*
X83179523Y-63757000D01*
X83179523Y-63757000D02*
X83065238Y-63795095D01*
X83065238Y-63795095D02*
X82989047Y-63795095D01*
X82989047Y-63795095D02*
X82874761Y-63757000D01*
X82874761Y-63757000D02*
X82798571Y-63680809D01*
X82798571Y-63680809D02*
X82760476Y-63604619D01*
X82760476Y-63604619D02*
X82722380Y-63452238D01*
X82722380Y-63452238D02*
X82722380Y-63337952D01*
X82722380Y-63337952D02*
X82760476Y-63185571D01*
X82760476Y-63185571D02*
X82798571Y-63109380D01*
X82798571Y-63109380D02*
X82874761Y-63033190D01*
X82874761Y-63033190D02*
X82989047Y-62995095D01*
X82989047Y-62995095D02*
X83065238Y-62995095D01*
X83065238Y-62995095D02*
X83179523Y-63033190D01*
X83179523Y-63033190D02*
X83217619Y-63071285D01*
X79282619Y-59818904D02*
X79244523Y-59857000D01*
X79244523Y-59857000D02*
X79130238Y-59895095D01*
X79130238Y-59895095D02*
X79054047Y-59895095D01*
X79054047Y-59895095D02*
X78939761Y-59857000D01*
X78939761Y-59857000D02*
X78863571Y-59780809D01*
X78863571Y-59780809D02*
X78825476Y-59704619D01*
X78825476Y-59704619D02*
X78787380Y-59552238D01*
X78787380Y-59552238D02*
X78787380Y-59437952D01*
X78787380Y-59437952D02*
X78825476Y-59285571D01*
X78825476Y-59285571D02*
X78863571Y-59209380D01*
X78863571Y-59209380D02*
X78939761Y-59133190D01*
X78939761Y-59133190D02*
X79054047Y-59095095D01*
X79054047Y-59095095D02*
X79130238Y-59095095D01*
X79130238Y-59095095D02*
X79244523Y-59133190D01*
X79244523Y-59133190D02*
X79282619Y-59171285D01*
X83144285Y-61376047D02*
X82877619Y-61376047D01*
X82877619Y-61795095D02*
X82877619Y-60995095D01*
X82877619Y-60995095D02*
X83258571Y-60995095D01*
X119350095Y-104541428D02*
X118550095Y-104541428D01*
X118550095Y-104541428D02*
X118550095Y-104236666D01*
X118550095Y-104236666D02*
X118588190Y-104160476D01*
X118588190Y-104160476D02*
X118626285Y-104122381D01*
X118626285Y-104122381D02*
X118702476Y-104084285D01*
X118702476Y-104084285D02*
X118816761Y-104084285D01*
X118816761Y-104084285D02*
X118892952Y-104122381D01*
X118892952Y-104122381D02*
X118931047Y-104160476D01*
X118931047Y-104160476D02*
X118969142Y-104236666D01*
X118969142Y-104236666D02*
X118969142Y-104541428D01*
X119350095Y-103322381D02*
X119350095Y-103779524D01*
X119350095Y-103550952D02*
X118550095Y-103550952D01*
X118550095Y-103550952D02*
X118664380Y-103627143D01*
X118664380Y-103627143D02*
X118740571Y-103703333D01*
X118740571Y-103703333D02*
X118778666Y-103779524D01*
X118550095Y-102827142D02*
X118550095Y-102750952D01*
X118550095Y-102750952D02*
X118588190Y-102674761D01*
X118588190Y-102674761D02*
X118626285Y-102636666D01*
X118626285Y-102636666D02*
X118702476Y-102598571D01*
X118702476Y-102598571D02*
X118854857Y-102560476D01*
X118854857Y-102560476D02*
X119045333Y-102560476D01*
X119045333Y-102560476D02*
X119197714Y-102598571D01*
X119197714Y-102598571D02*
X119273904Y-102636666D01*
X119273904Y-102636666D02*
X119312000Y-102674761D01*
X119312000Y-102674761D02*
X119350095Y-102750952D01*
X119350095Y-102750952D02*
X119350095Y-102827142D01*
X119350095Y-102827142D02*
X119312000Y-102903333D01*
X119312000Y-102903333D02*
X119273904Y-102941428D01*
X119273904Y-102941428D02*
X119197714Y-102979523D01*
X119197714Y-102979523D02*
X119045333Y-103017619D01*
X119045333Y-103017619D02*
X118854857Y-103017619D01*
X118854857Y-103017619D02*
X118702476Y-102979523D01*
X118702476Y-102979523D02*
X118626285Y-102941428D01*
X118626285Y-102941428D02*
X118588190Y-102903333D01*
X118588190Y-102903333D02*
X118550095Y-102827142D01*
X55765095Y-100631666D02*
X56336523Y-100631666D01*
X56336523Y-100631666D02*
X56450809Y-100669761D01*
X56450809Y-100669761D02*
X56527000Y-100745952D01*
X56527000Y-100745952D02*
X56565095Y-100860237D01*
X56565095Y-100860237D02*
X56565095Y-100936428D01*
X55765095Y-100326904D02*
X55765095Y-99831666D01*
X55765095Y-99831666D02*
X56069857Y-100098332D01*
X56069857Y-100098332D02*
X56069857Y-99984047D01*
X56069857Y-99984047D02*
X56107952Y-99907856D01*
X56107952Y-99907856D02*
X56146047Y-99869761D01*
X56146047Y-99869761D02*
X56222238Y-99831666D01*
X56222238Y-99831666D02*
X56412714Y-99831666D01*
X56412714Y-99831666D02*
X56488904Y-99869761D01*
X56488904Y-99869761D02*
X56527000Y-99907856D01*
X56527000Y-99907856D02*
X56565095Y-99984047D01*
X56565095Y-99984047D02*
X56565095Y-100212618D01*
X56565095Y-100212618D02*
X56527000Y-100288809D01*
X56527000Y-100288809D02*
X56488904Y-100326904D01*
D13*
X103070000Y-91745000D02*
X101740000Y-91745000D01*
X106940000Y-91745000D02*
X106940000Y-89085000D01*
X104340000Y-91745000D02*
X106940000Y-91745000D01*
X104340000Y-91745000D02*
X104340000Y-89085000D01*
X101740000Y-91745000D02*
X101740000Y-90415000D01*
X104340000Y-89085000D02*
X106940000Y-89085000D01*
D10*
X82510000Y-62925000D02*
X82510000Y-59925000D01*
X82510000Y-59925000D02*
X79510000Y-59925000D01*
X81635000Y-62212500D02*
X81635000Y-62437500D01*
X81735000Y-61425000D02*
X80335000Y-61425000D01*
X81497500Y-62325000D02*
X81772500Y-62325000D01*
X79510000Y-62925000D02*
X82510000Y-62925000D01*
X79510000Y-59925000D02*
X79510000Y-62925000D01*
X82536777Y-63400000D02*
G75*
G03*
X82536777Y-63400000I-176777J0D01*
G01*
D14*
X156947089Y-94020303D02*
X157016357Y-94230038D01*
X157036347Y-94362930D01*
X157054307Y-94723986D01*
X157008964Y-94929266D01*
X156922921Y-94982333D01*
X156818745Y-94905114D01*
X156753831Y-94698223D01*
X156738394Y-94398814D01*
X156742506Y-94326167D01*
X156789212Y-94065747D01*
X156864390Y-93964666D01*
X156947089Y-94020303D01*
G36*
X156947089Y-94020303D02*
G01*
X157016357Y-94230038D01*
X157036347Y-94362930D01*
X157054307Y-94723986D01*
X157008964Y-94929266D01*
X156922921Y-94982333D01*
X156818745Y-94905114D01*
X156753831Y-94698223D01*
X156738394Y-94398814D01*
X156742506Y-94326167D01*
X156789212Y-94065747D01*
X156864390Y-93964666D01*
X156947089Y-94020303D01*
G37*
X158760572Y-105125874D02*
X158850431Y-105287212D01*
X158822323Y-105476754D01*
X158788295Y-105527396D01*
X158652009Y-105638242D01*
X158514174Y-105602508D01*
X158416715Y-105517286D01*
X158307387Y-105378595D01*
X158311029Y-105241647D01*
X158339740Y-105163500D01*
X158448225Y-105080811D01*
X158581351Y-105057667D01*
X158760572Y-105125874D01*
G36*
X158760572Y-105125874D02*
G01*
X158850431Y-105287212D01*
X158822323Y-105476754D01*
X158788295Y-105527396D01*
X158652009Y-105638242D01*
X158514174Y-105602508D01*
X158416715Y-105517286D01*
X158307387Y-105378595D01*
X158311029Y-105241647D01*
X158339740Y-105163500D01*
X158448225Y-105080811D01*
X158581351Y-105057667D01*
X158760572Y-105125874D01*
G37*
X157564654Y-94039837D02*
X157621892Y-94218694D01*
X157637459Y-94440418D01*
X157601751Y-94642524D01*
X157585052Y-94680092D01*
X157512540Y-94793785D01*
X157445729Y-94766067D01*
X157383522Y-94685076D01*
X157297617Y-94543028D01*
X157280353Y-94479318D01*
X157301166Y-94368750D01*
X157328310Y-94199167D01*
X157389070Y-94030051D01*
X157475348Y-93966333D01*
X157564654Y-94039837D01*
G36*
X157564654Y-94039837D02*
G01*
X157621892Y-94218694D01*
X157637459Y-94440418D01*
X157601751Y-94642524D01*
X157585052Y-94680092D01*
X157512540Y-94793785D01*
X157445729Y-94766067D01*
X157383522Y-94685076D01*
X157297617Y-94543028D01*
X157280353Y-94479318D01*
X157301166Y-94368750D01*
X157328310Y-94199167D01*
X157389070Y-94030051D01*
X157475348Y-93966333D01*
X157564654Y-94039837D01*
G37*
X158137517Y-94029292D02*
X158199621Y-94241729D01*
X158213108Y-94358093D01*
X158210073Y-94641242D01*
X158161203Y-94851965D01*
X158080742Y-94961282D01*
X157982935Y-94940211D01*
X157947906Y-94897667D01*
X157880788Y-94745167D01*
X157875863Y-94686000D01*
X157892632Y-94551355D01*
X157917259Y-94328880D01*
X157922011Y-94283833D01*
X157975854Y-94044513D01*
X158055309Y-93961609D01*
X158137517Y-94029292D01*
G36*
X158137517Y-94029292D02*
G01*
X158199621Y-94241729D01*
X158213108Y-94358093D01*
X158210073Y-94641242D01*
X158161203Y-94851965D01*
X158080742Y-94961282D01*
X157982935Y-94940211D01*
X157947906Y-94897667D01*
X157880788Y-94745167D01*
X157875863Y-94686000D01*
X157892632Y-94551355D01*
X157917259Y-94328880D01*
X157922011Y-94283833D01*
X157975854Y-94044513D01*
X158055309Y-93961609D01*
X158137517Y-94029292D01*
G37*
X158756802Y-94132978D02*
X158789866Y-94435351D01*
X158790371Y-94500497D01*
X158769983Y-94830040D01*
X158716664Y-95048397D01*
X158638826Y-95136614D01*
X158544880Y-95075733D01*
X158538964Y-95067000D01*
X158488001Y-94908304D01*
X158461069Y-94664119D01*
X158458243Y-94394601D01*
X158479596Y-94159906D01*
X158525202Y-94020188D01*
X158537667Y-94008667D01*
X158672573Y-93990434D01*
X158756802Y-94132978D01*
G36*
X158756802Y-94132978D02*
G01*
X158789866Y-94435351D01*
X158790371Y-94500497D01*
X158769983Y-94830040D01*
X158716664Y-95048397D01*
X158638826Y-95136614D01*
X158544880Y-95075733D01*
X158538964Y-95067000D01*
X158488001Y-94908304D01*
X158461069Y-94664119D01*
X158458243Y-94394601D01*
X158479596Y-94159906D01*
X158525202Y-94020188D01*
X158537667Y-94008667D01*
X158672573Y-93990434D01*
X158756802Y-94132978D01*
G37*
X156470802Y-94132978D02*
X156503866Y-94435351D01*
X156504371Y-94500497D01*
X156483983Y-94830040D01*
X156430664Y-95048397D01*
X156352826Y-95136614D01*
X156258880Y-95075733D01*
X156252964Y-95067000D01*
X156202001Y-94908304D01*
X156175069Y-94664119D01*
X156172243Y-94394601D01*
X156193596Y-94159906D01*
X156239202Y-94020188D01*
X156251667Y-94008667D01*
X156386573Y-93990434D01*
X156470802Y-94132978D01*
G36*
X156470802Y-94132978D02*
G01*
X156503866Y-94435351D01*
X156504371Y-94500497D01*
X156483983Y-94830040D01*
X156430664Y-95048397D01*
X156352826Y-95136614D01*
X156258880Y-95075733D01*
X156252964Y-95067000D01*
X156202001Y-94908304D01*
X156175069Y-94664119D01*
X156172243Y-94394601D01*
X156193596Y-94159906D01*
X156239202Y-94020188D01*
X156251667Y-94008667D01*
X156386573Y-93990434D01*
X156470802Y-94132978D01*
G37*
X157583322Y-105060116D02*
X157821089Y-105072516D01*
X157957250Y-105102449D01*
X158025661Y-105157492D01*
X158060178Y-105245227D01*
X158060970Y-105248167D01*
X158104127Y-105430865D01*
X158098154Y-105548102D01*
X158016607Y-105613029D01*
X157833044Y-105638800D01*
X157521021Y-105638568D01*
X157288834Y-105632232D01*
X156463334Y-105608000D01*
X156436803Y-105332833D01*
X156410272Y-105057667D01*
X157210095Y-105057667D01*
X157583322Y-105060116D01*
G36*
X157583322Y-105060116D02*
G01*
X157821089Y-105072516D01*
X157957250Y-105102449D01*
X158025661Y-105157492D01*
X158060178Y-105245227D01*
X158060970Y-105248167D01*
X158104127Y-105430865D01*
X158098154Y-105548102D01*
X158016607Y-105613029D01*
X157833044Y-105638800D01*
X157521021Y-105638568D01*
X157288834Y-105632232D01*
X156463334Y-105608000D01*
X156436803Y-105332833D01*
X156410272Y-105057667D01*
X157210095Y-105057667D01*
X157583322Y-105060116D01*
G37*
X155768500Y-93988326D02*
X155828431Y-94086338D01*
X155876067Y-94305562D01*
X155908529Y-94598138D01*
X155922938Y-94916205D01*
X155916415Y-95211904D01*
X155886080Y-95437375D01*
X155860084Y-95510709D01*
X155764834Y-95688085D01*
X155669584Y-95510108D01*
X155602402Y-95363236D01*
X155591373Y-95305399D01*
X155602833Y-95214279D01*
X155617934Y-94996651D01*
X155633824Y-94695218D01*
X155637372Y-94616666D01*
X155662436Y-94257049D01*
X155701020Y-94051801D01*
X155756178Y-93986281D01*
X155768500Y-93988326D01*
G36*
X155768500Y-93988326D02*
G01*
X155828431Y-94086338D01*
X155876067Y-94305562D01*
X155908529Y-94598138D01*
X155922938Y-94916205D01*
X155916415Y-95211904D01*
X155886080Y-95437375D01*
X155860084Y-95510709D01*
X155764834Y-95688085D01*
X155669584Y-95510108D01*
X155602402Y-95363236D01*
X155591373Y-95305399D01*
X155602833Y-95214279D01*
X155617934Y-94996651D01*
X155633824Y-94695218D01*
X155637372Y-94616666D01*
X155662436Y-94257049D01*
X155701020Y-94051801D01*
X155756178Y-93986281D01*
X155768500Y-93988326D01*
G37*
X159252781Y-94016993D02*
X159286603Y-94168767D01*
X159299307Y-94463554D01*
X159299667Y-94545020D01*
X159305696Y-94858663D01*
X159321506Y-95112715D01*
X159343686Y-95252523D01*
X159343869Y-95253005D01*
X159333923Y-95407671D01*
X159276137Y-95521270D01*
X159188025Y-95620362D01*
X159129496Y-95579905D01*
X159083769Y-95476507D01*
X159049548Y-95295714D01*
X159035472Y-95006997D01*
X159044332Y-94670875D01*
X159045667Y-94650326D01*
X159083941Y-94289483D01*
X159139121Y-94061242D01*
X159193834Y-93987103D01*
X159252781Y-94016993D01*
G36*
X159252781Y-94016993D02*
G01*
X159286603Y-94168767D01*
X159299307Y-94463554D01*
X159299667Y-94545020D01*
X159305696Y-94858663D01*
X159321506Y-95112715D01*
X159343686Y-95252523D01*
X159343869Y-95253005D01*
X159333923Y-95407671D01*
X159276137Y-95521270D01*
X159188025Y-95620362D01*
X159129496Y-95579905D01*
X159083769Y-95476507D01*
X159049548Y-95295714D01*
X159035472Y-95006997D01*
X159044332Y-94670875D01*
X159045667Y-94650326D01*
X159083941Y-94289483D01*
X159139121Y-94061242D01*
X159193834Y-93987103D01*
X159252781Y-94016993D01*
G37*
X157346300Y-98471608D02*
X157670750Y-98610902D01*
X157826467Y-98741533D01*
X158055110Y-99072461D01*
X158118900Y-99438688D01*
X158016772Y-99832517D01*
X157986457Y-99894694D01*
X157783675Y-100160161D01*
X157502468Y-100292380D01*
X157249739Y-100316333D01*
X156887009Y-100238276D01*
X156595932Y-100009899D01*
X156462850Y-99807398D01*
X156356369Y-99532254D01*
X156358478Y-99388737D01*
X156687923Y-99388737D01*
X156698895Y-99563284D01*
X156808925Y-99672275D01*
X157084741Y-99724593D01*
X157375595Y-99698219D01*
X157633361Y-99608557D01*
X157809910Y-99471011D01*
X157860334Y-99335770D01*
X157786609Y-99201512D01*
X157598654Y-99114264D01*
X157346300Y-99079104D01*
X157079377Y-99101114D01*
X156847716Y-99185374D01*
X156788903Y-99226536D01*
X156687923Y-99388737D01*
X156358478Y-99388737D01*
X156360064Y-99280859D01*
X156475808Y-98980569D01*
X156484632Y-98962844D01*
X156718230Y-98650452D01*
X157013868Y-98484352D01*
X157341417Y-98469512D01*
X157346300Y-98471608D01*
G36*
X157346300Y-98471608D02*
G01*
X157670750Y-98610902D01*
X157826467Y-98741533D01*
X158055110Y-99072461D01*
X158118900Y-99438688D01*
X158016772Y-99832517D01*
X157986457Y-99894694D01*
X157783675Y-100160161D01*
X157502468Y-100292380D01*
X157249739Y-100316333D01*
X156887009Y-100238276D01*
X156595932Y-100009899D01*
X156462850Y-99807398D01*
X156356369Y-99532254D01*
X156358478Y-99388737D01*
X156687923Y-99388737D01*
X156698895Y-99563284D01*
X156808925Y-99672275D01*
X157084741Y-99724593D01*
X157375595Y-99698219D01*
X157633361Y-99608557D01*
X157809910Y-99471011D01*
X157860334Y-99335770D01*
X157786609Y-99201512D01*
X157598654Y-99114264D01*
X157346300Y-99079104D01*
X157079377Y-99101114D01*
X156847716Y-99185374D01*
X156788903Y-99226536D01*
X156687923Y-99388737D01*
X156358478Y-99388737D01*
X156360064Y-99280859D01*
X156475808Y-98980569D01*
X156484632Y-98962844D01*
X156718230Y-98650452D01*
X157013868Y-98484352D01*
X157341417Y-98469512D01*
X157346300Y-98471608D01*
G37*
X157549729Y-105963528D02*
X157836743Y-106142044D01*
X158019758Y-106385600D01*
X158100397Y-106673111D01*
X158101374Y-107001155D01*
X158026688Y-107264566D01*
X157888818Y-107388515D01*
X157702457Y-107423911D01*
X157540551Y-107366709D01*
X157488392Y-107294408D01*
X157443238Y-107097404D01*
X157521326Y-106974495D01*
X157648667Y-106904928D01*
X157804925Y-106795936D01*
X157860334Y-106692981D01*
X157787305Y-106562782D01*
X157601957Y-106483257D01*
X157354900Y-106458947D01*
X157096744Y-106494393D01*
X156878097Y-106594138D01*
X156865500Y-106603708D01*
X156765786Y-106770672D01*
X156811406Y-106969584D01*
X156984243Y-107154469D01*
X157125785Y-107308032D01*
X157136722Y-107439883D01*
X157018530Y-107509870D01*
X156971058Y-107513000D01*
X156786346Y-107442923D01*
X156591997Y-107268939D01*
X156438560Y-107045422D01*
X156380739Y-106878000D01*
X156379930Y-106616372D01*
X156426916Y-106412333D01*
X156622183Y-106127072D01*
X156901624Y-105956727D01*
X157224414Y-105901984D01*
X157549729Y-105963528D01*
G36*
X157549729Y-105963528D02*
G01*
X157836743Y-106142044D01*
X158019758Y-106385600D01*
X158100397Y-106673111D01*
X158101374Y-107001155D01*
X158026688Y-107264566D01*
X157888818Y-107388515D01*
X157702457Y-107423911D01*
X157540551Y-107366709D01*
X157488392Y-107294408D01*
X157443238Y-107097404D01*
X157521326Y-106974495D01*
X157648667Y-106904928D01*
X157804925Y-106795936D01*
X157860334Y-106692981D01*
X157787305Y-106562782D01*
X157601957Y-106483257D01*
X157354900Y-106458947D01*
X157096744Y-106494393D01*
X156878097Y-106594138D01*
X156865500Y-106603708D01*
X156765786Y-106770672D01*
X156811406Y-106969584D01*
X156984243Y-107154469D01*
X157125785Y-107308032D01*
X157136722Y-107439883D01*
X157018530Y-107509870D01*
X156971058Y-107513000D01*
X156786346Y-107442923D01*
X156591997Y-107268939D01*
X156438560Y-107045422D01*
X156380739Y-106878000D01*
X156379930Y-106616372D01*
X156426916Y-106412333D01*
X156622183Y-106127072D01*
X156901624Y-105956727D01*
X157224414Y-105901984D01*
X157549729Y-105963528D01*
G37*
X155269230Y-107937386D02*
X155594066Y-107943383D01*
X155804363Y-107958578D01*
X155927519Y-107987227D01*
X155990930Y-108033585D01*
X156021994Y-108101907D01*
X156028970Y-108126833D01*
X156075535Y-108354584D01*
X156038169Y-108475109D01*
X155886484Y-108521978D01*
X155664911Y-108529000D01*
X155417930Y-108533328D01*
X155303362Y-108562719D01*
X155284290Y-108641787D01*
X155314487Y-108762614D01*
X155335153Y-109072316D01*
X155224999Y-109330051D01*
X155076676Y-109454798D01*
X154911891Y-109498909D01*
X154634796Y-109531048D01*
X154302320Y-109544870D01*
X154267567Y-109545000D01*
X153627000Y-109545000D01*
X153627000Y-108952333D01*
X154304334Y-108952333D01*
X154618869Y-108943385D01*
X154855729Y-108919605D01*
X154974859Y-108885591D01*
X154981667Y-108874591D01*
X154958504Y-108705346D01*
X154868301Y-108601263D01*
X154679989Y-108547607D01*
X154362496Y-108529643D01*
X154252942Y-108529000D01*
X153627000Y-108529000D01*
X153627000Y-107936333D01*
X154802459Y-107936333D01*
X155269230Y-107937386D01*
G36*
X155269230Y-107937386D02*
G01*
X155594066Y-107943383D01*
X155804363Y-107958578D01*
X155927519Y-107987227D01*
X155990930Y-108033585D01*
X156021994Y-108101907D01*
X156028970Y-108126833D01*
X156075535Y-108354584D01*
X156038169Y-108475109D01*
X155886484Y-108521978D01*
X155664911Y-108529000D01*
X155417930Y-108533328D01*
X155303362Y-108562719D01*
X155284290Y-108641787D01*
X155314487Y-108762614D01*
X155335153Y-109072316D01*
X155224999Y-109330051D01*
X155076676Y-109454798D01*
X154911891Y-109498909D01*
X154634796Y-109531048D01*
X154302320Y-109544870D01*
X154267567Y-109545000D01*
X153627000Y-109545000D01*
X153627000Y-108952333D01*
X154304334Y-108952333D01*
X154618869Y-108943385D01*
X154855729Y-108919605D01*
X154974859Y-108885591D01*
X154981667Y-108874591D01*
X154958504Y-108705346D01*
X154868301Y-108601263D01*
X154679989Y-108547607D01*
X154362496Y-108529643D01*
X154252942Y-108529000D01*
X153627000Y-108529000D01*
X153627000Y-107936333D01*
X154802459Y-107936333D01*
X155269230Y-107937386D01*
G37*
X154802095Y-106110289D02*
X155102773Y-106332002D01*
X155149677Y-106387547D01*
X155275227Y-106657712D01*
X155320411Y-106996678D01*
X155278592Y-107320808D01*
X155232688Y-107433899D01*
X155079269Y-107572764D01*
X154882240Y-107578862D01*
X154732159Y-107476079D01*
X154686676Y-107311889D01*
X154746612Y-107133677D01*
X154878136Y-107017272D01*
X154942313Y-107005000D01*
X155050405Y-106953060D01*
X155050321Y-106834092D01*
X154951000Y-106703371D01*
X154886657Y-106660797D01*
X154646979Y-106607389D01*
X154357875Y-106637180D01*
X154110366Y-106738774D01*
X154079570Y-106761870D01*
X153974442Y-106926476D01*
X154028663Y-107120785D01*
X154192069Y-107307574D01*
X154337915Y-107476582D01*
X154342411Y-107590569D01*
X154328159Y-107607708D01*
X154189500Y-107640245D01*
X153994373Y-107570673D01*
X153798945Y-107423320D01*
X153735527Y-107351003D01*
X153643260Y-107115501D01*
X153632808Y-106811846D01*
X153698921Y-106517124D01*
X153804464Y-106338445D01*
X154115450Y-106112142D01*
X154460490Y-106036546D01*
X154802095Y-106110289D01*
G36*
X154802095Y-106110289D02*
G01*
X155102773Y-106332002D01*
X155149677Y-106387547D01*
X155275227Y-106657712D01*
X155320411Y-106996678D01*
X155278592Y-107320808D01*
X155232688Y-107433899D01*
X155079269Y-107572764D01*
X154882240Y-107578862D01*
X154732159Y-107476079D01*
X154686676Y-107311889D01*
X154746612Y-107133677D01*
X154878136Y-107017272D01*
X154942313Y-107005000D01*
X155050405Y-106953060D01*
X155050321Y-106834092D01*
X154951000Y-106703371D01*
X154886657Y-106660797D01*
X154646979Y-106607389D01*
X154357875Y-106637180D01*
X154110366Y-106738774D01*
X154079570Y-106761870D01*
X153974442Y-106926476D01*
X154028663Y-107120785D01*
X154192069Y-107307574D01*
X154337915Y-107476582D01*
X154342411Y-107590569D01*
X154328159Y-107607708D01*
X154189500Y-107640245D01*
X153994373Y-107570673D01*
X153798945Y-107423320D01*
X153735527Y-107351003D01*
X153643260Y-107115501D01*
X153632808Y-106811846D01*
X153698921Y-106517124D01*
X153804464Y-106338445D01*
X154115450Y-106112142D01*
X154460490Y-106036546D01*
X154802095Y-106110289D01*
G37*
X158075520Y-102792833D02*
X158057485Y-103126218D01*
X158043354Y-103396060D01*
X158035522Y-103556369D01*
X158034765Y-103576000D01*
X158044238Y-103708011D01*
X158070842Y-103933110D01*
X158081057Y-104008276D01*
X158098217Y-104246560D01*
X158045931Y-104397707D01*
X157898976Y-104537443D01*
X157738384Y-104637341D01*
X157541215Y-104693303D01*
X157255578Y-104716354D01*
X157044582Y-104719000D01*
X156421000Y-104719000D01*
X156421000Y-104126333D01*
X157051004Y-104126333D01*
X157418136Y-104116347D01*
X157640012Y-104079742D01*
X157739885Y-104006551D01*
X157741011Y-103886806D01*
X157724550Y-103837640D01*
X157659787Y-103765015D01*
X157512136Y-103723085D01*
X157247701Y-103705114D01*
X157046942Y-103703000D01*
X156421000Y-103703000D01*
X156421000Y-103110333D01*
X157051004Y-103110333D01*
X157418136Y-103100347D01*
X157640012Y-103063742D01*
X157739885Y-102990551D01*
X157741011Y-102870806D01*
X157724550Y-102821640D01*
X157659787Y-102749015D01*
X157512136Y-102707085D01*
X157247701Y-102689114D01*
X157046942Y-102687000D01*
X156421000Y-102687000D01*
X156421000Y-102094333D01*
X158113837Y-102094333D01*
X158075520Y-102792833D01*
G36*
X158075520Y-102792833D02*
G01*
X158057485Y-103126218D01*
X158043354Y-103396060D01*
X158035522Y-103556369D01*
X158034765Y-103576000D01*
X158044238Y-103708011D01*
X158070842Y-103933110D01*
X158081057Y-104008276D01*
X158098217Y-104246560D01*
X158045931Y-104397707D01*
X157898976Y-104537443D01*
X157738384Y-104637341D01*
X157541215Y-104693303D01*
X157255578Y-104716354D01*
X157044582Y-104719000D01*
X156421000Y-104719000D01*
X156421000Y-104126333D01*
X157051004Y-104126333D01*
X157418136Y-104116347D01*
X157640012Y-104079742D01*
X157739885Y-104006551D01*
X157741011Y-103886806D01*
X157724550Y-103837640D01*
X157659787Y-103765015D01*
X157512136Y-103723085D01*
X157247701Y-103705114D01*
X157046942Y-103703000D01*
X156421000Y-103703000D01*
X156421000Y-103110333D01*
X157051004Y-103110333D01*
X157418136Y-103100347D01*
X157640012Y-103063742D01*
X157739885Y-102990551D01*
X157741011Y-102870806D01*
X157724550Y-102821640D01*
X157659787Y-102749015D01*
X157512136Y-102707085D01*
X157247701Y-102689114D01*
X157046942Y-102687000D01*
X156421000Y-102687000D01*
X156421000Y-102094333D01*
X158113837Y-102094333D01*
X158075520Y-102792833D01*
G37*
X154046966Y-102966993D02*
X154199322Y-102989330D01*
X154414406Y-103158349D01*
X154593486Y-103448726D01*
X154647558Y-103589809D01*
X154761668Y-103808652D01*
X154901461Y-103863947D01*
X155059894Y-103753031D01*
X155064582Y-103747444D01*
X155112763Y-103644518D01*
X155029154Y-103562155D01*
X154952607Y-103524309D01*
X154740140Y-103378305D01*
X154693682Y-103206845D01*
X154761352Y-103065510D01*
X154902409Y-102964945D01*
X155050543Y-103003084D01*
X155186869Y-103151300D01*
X155292500Y-103380965D01*
X155348552Y-103663452D01*
X155340409Y-103943270D01*
X155263180Y-104188050D01*
X155101311Y-104346770D01*
X154831131Y-104430820D01*
X154428969Y-104451590D01*
X154292093Y-104447723D01*
X153669334Y-104422667D01*
X153648850Y-103814198D01*
X153648369Y-103612918D01*
X153978603Y-103612918D01*
X153981350Y-103681833D01*
X154085933Y-103808424D01*
X154261512Y-103858716D01*
X154432529Y-103872047D01*
X154455723Y-103832831D01*
X154353499Y-103710549D01*
X154185222Y-103573446D01*
X154046966Y-103539877D01*
X153978603Y-103612918D01*
X153648369Y-103612918D01*
X153647992Y-103455086D01*
X153678582Y-103225845D01*
X153746283Y-103088988D01*
X153760731Y-103073364D01*
X153973131Y-102956169D01*
X154046966Y-102966993D01*
G36*
X154046966Y-102966993D02*
G01*
X154199322Y-102989330D01*
X154414406Y-103158349D01*
X154593486Y-103448726D01*
X154647558Y-103589809D01*
X154761668Y-103808652D01*
X154901461Y-103863947D01*
X155059894Y-103753031D01*
X155064582Y-103747444D01*
X155112763Y-103644518D01*
X155029154Y-103562155D01*
X154952607Y-103524309D01*
X154740140Y-103378305D01*
X154693682Y-103206845D01*
X154761352Y-103065510D01*
X154902409Y-102964945D01*
X155050543Y-103003084D01*
X155186869Y-103151300D01*
X155292500Y-103380965D01*
X155348552Y-103663452D01*
X155340409Y-103943270D01*
X155263180Y-104188050D01*
X155101311Y-104346770D01*
X154831131Y-104430820D01*
X154428969Y-104451590D01*
X154292093Y-104447723D01*
X153669334Y-104422667D01*
X153648850Y-103814198D01*
X153648369Y-103612918D01*
X153978603Y-103612918D01*
X153981350Y-103681833D01*
X154085933Y-103808424D01*
X154261512Y-103858716D01*
X154432529Y-103872047D01*
X154455723Y-103832831D01*
X154353499Y-103710549D01*
X154185222Y-103573446D01*
X154046966Y-103539877D01*
X153978603Y-103612918D01*
X153648369Y-103612918D01*
X153647992Y-103455086D01*
X153678582Y-103225845D01*
X153746283Y-103088988D01*
X153760731Y-103073364D01*
X153973131Y-102956169D01*
X154046966Y-102966993D01*
G37*
X156843548Y-100553127D02*
X156872421Y-100698727D01*
X156842526Y-100837294D01*
X156795428Y-100880904D01*
X156702835Y-100982659D01*
X156676392Y-101141411D01*
X156715294Y-101282368D01*
X156800280Y-101332333D01*
X156911819Y-101262840D01*
X157045563Y-101087821D01*
X157096890Y-100996497D01*
X157309084Y-100675179D01*
X157531680Y-100517593D01*
X157759759Y-100525722D01*
X157945000Y-100655000D01*
X158074502Y-100882146D01*
X158115976Y-101169537D01*
X158068339Y-101445576D01*
X157959500Y-101615544D01*
X157819843Y-101723289D01*
X157747834Y-101755667D01*
X157694715Y-101689964D01*
X157709223Y-101534172D01*
X157784479Y-101350262D01*
X157794714Y-101333298D01*
X157854385Y-101171951D01*
X157801918Y-101070717D01*
X157718121Y-101049813D01*
X157605464Y-101151722D01*
X157473881Y-101343770D01*
X157323275Y-101568239D01*
X157195858Y-101730995D01*
X157149177Y-101775537D01*
X156952526Y-101834630D01*
X156716947Y-101820965D01*
X156533300Y-101742335D01*
X156511937Y-101720888D01*
X156424651Y-101530759D01*
X156372881Y-101263016D01*
X156369900Y-101007910D01*
X156392518Y-100909000D01*
X156490038Y-100739899D01*
X156624793Y-100579636D01*
X156742832Y-100489870D01*
X156762915Y-100485667D01*
X156843548Y-100553127D01*
G36*
X156843548Y-100553127D02*
G01*
X156872421Y-100698727D01*
X156842526Y-100837294D01*
X156795428Y-100880904D01*
X156702835Y-100982659D01*
X156676392Y-101141411D01*
X156715294Y-101282368D01*
X156800280Y-101332333D01*
X156911819Y-101262840D01*
X157045563Y-101087821D01*
X157096890Y-100996497D01*
X157309084Y-100675179D01*
X157531680Y-100517593D01*
X157759759Y-100525722D01*
X157945000Y-100655000D01*
X158074502Y-100882146D01*
X158115976Y-101169537D01*
X158068339Y-101445576D01*
X157959500Y-101615544D01*
X157819843Y-101723289D01*
X157747834Y-101755667D01*
X157694715Y-101689964D01*
X157709223Y-101534172D01*
X157784479Y-101350262D01*
X157794714Y-101333298D01*
X157854385Y-101171951D01*
X157801918Y-101070717D01*
X157718121Y-101049813D01*
X157605464Y-101151722D01*
X157473881Y-101343770D01*
X157323275Y-101568239D01*
X157195858Y-101730995D01*
X157149177Y-101775537D01*
X156952526Y-101834630D01*
X156716947Y-101820965D01*
X156533300Y-101742335D01*
X156511937Y-101720888D01*
X156424651Y-101530759D01*
X156372881Y-101263016D01*
X156369900Y-101007910D01*
X156392518Y-100909000D01*
X156490038Y-100739899D01*
X156624793Y-100579636D01*
X156742832Y-100489870D01*
X156762915Y-100485667D01*
X156843548Y-100553127D01*
G37*
X155195825Y-104662724D02*
X155334070Y-104814828D01*
X155350674Y-104839578D01*
X155509091Y-105011362D01*
X155656745Y-105099284D01*
X155795566Y-105211087D01*
X155828334Y-105317372D01*
X155785721Y-105437836D01*
X155630589Y-105479711D01*
X155574334Y-105481000D01*
X155392807Y-105503781D01*
X155326400Y-105600621D01*
X155320334Y-105692667D01*
X155276173Y-105862905D01*
X155193334Y-105904333D01*
X155091191Y-105830732D01*
X155066334Y-105692667D01*
X155056722Y-105579011D01*
X155002420Y-105515637D01*
X154865224Y-105487893D01*
X154606933Y-105481129D01*
X154514387Y-105481000D01*
X154219035Y-105483772D01*
X154058466Y-105501861D01*
X153998131Y-105549929D01*
X154003483Y-105642633D01*
X154015566Y-105692667D01*
X154028381Y-105856105D01*
X153943937Y-105904331D01*
X153942879Y-105904333D01*
X153765885Y-105829936D01*
X153640821Y-105642769D01*
X153590476Y-105396871D01*
X153630428Y-105163500D01*
X153682048Y-105068396D01*
X153769095Y-105011521D01*
X153930011Y-104983186D01*
X154203240Y-104973702D01*
X154386272Y-104973000D01*
X154724562Y-104969492D01*
X154927568Y-104953323D01*
X155029289Y-104916029D01*
X155063723Y-104849144D01*
X155066334Y-104803667D01*
X155101331Y-104658341D01*
X155195825Y-104662724D01*
G36*
X155195825Y-104662724D02*
G01*
X155334070Y-104814828D01*
X155350674Y-104839578D01*
X155509091Y-105011362D01*
X155656745Y-105099284D01*
X155795566Y-105211087D01*
X155828334Y-105317372D01*
X155785721Y-105437836D01*
X155630589Y-105479711D01*
X155574334Y-105481000D01*
X155392807Y-105503781D01*
X155326400Y-105600621D01*
X155320334Y-105692667D01*
X155276173Y-105862905D01*
X155193334Y-105904333D01*
X155091191Y-105830732D01*
X155066334Y-105692667D01*
X155056722Y-105579011D01*
X155002420Y-105515637D01*
X154865224Y-105487893D01*
X154606933Y-105481129D01*
X154514387Y-105481000D01*
X154219035Y-105483772D01*
X154058466Y-105501861D01*
X153998131Y-105549929D01*
X154003483Y-105642633D01*
X154015566Y-105692667D01*
X154028381Y-105856105D01*
X153943937Y-105904331D01*
X153942879Y-105904333D01*
X153765885Y-105829936D01*
X153640821Y-105642769D01*
X153590476Y-105396871D01*
X153630428Y-105163500D01*
X153682048Y-105068396D01*
X153769095Y-105011521D01*
X153930011Y-104983186D01*
X154203240Y-104973702D01*
X154386272Y-104973000D01*
X154724562Y-104969492D01*
X154927568Y-104953323D01*
X155029289Y-104916029D01*
X155063723Y-104849144D01*
X155066334Y-104803667D01*
X155101331Y-104658341D01*
X155195825Y-104662724D01*
G37*
X155818040Y-99988954D02*
X155828334Y-100178303D01*
X155821529Y-100328277D01*
X155779417Y-100432083D01*
X155669448Y-100517073D01*
X155459073Y-100610597D01*
X155194952Y-100710559D01*
X154909216Y-100825912D01*
X154706900Y-100925330D01*
X154621291Y-100991789D01*
X154623452Y-101002856D01*
X154730004Y-101058748D01*
X154948379Y-101149621D01*
X155217101Y-101250598D01*
X155493228Y-101356826D01*
X155699380Y-101449331D01*
X155788901Y-101506360D01*
X155735914Y-101565482D01*
X155559338Y-101663181D01*
X155294777Y-101780305D01*
X155235967Y-101803776D01*
X154952011Y-101922021D01*
X154742204Y-102022420D01*
X154645420Y-102086074D01*
X154643000Y-102092052D01*
X154716572Y-102145561D01*
X154910044Y-102233756D01*
X155182555Y-102338135D01*
X155200532Y-102344510D01*
X155539841Y-102478607D01*
X155738236Y-102600318D01*
X155820627Y-102731545D01*
X155814328Y-102884168D01*
X155769029Y-102922638D01*
X155647158Y-102913880D01*
X155427927Y-102852348D01*
X155090550Y-102732494D01*
X154735398Y-102596278D01*
X154338524Y-102437419D01*
X153996409Y-102293223D01*
X153741496Y-102177890D01*
X153606229Y-102105621D01*
X153596632Y-102097831D01*
X153558036Y-101991791D01*
X153657128Y-101876181D01*
X153904279Y-101742818D01*
X154195386Y-101625350D01*
X154678116Y-101445222D01*
X154137888Y-101238935D01*
X153799878Y-101095926D01*
X153613481Y-100977638D01*
X153565250Y-100870993D01*
X153641740Y-100762913D01*
X153645347Y-100759903D01*
X153760506Y-100697324D01*
X153995059Y-100590539D01*
X154310130Y-100455535D01*
X154666840Y-100308302D01*
X155026313Y-100164830D01*
X155349671Y-100041108D01*
X155598036Y-99953126D01*
X155637834Y-99940437D01*
X155765097Y-99918951D01*
X155818040Y-99988954D01*
G36*
X155818040Y-99988954D02*
G01*
X155828334Y-100178303D01*
X155821529Y-100328277D01*
X155779417Y-100432083D01*
X155669448Y-100517073D01*
X155459073Y-100610597D01*
X155194952Y-100710559D01*
X154909216Y-100825912D01*
X154706900Y-100925330D01*
X154621291Y-100991789D01*
X154623452Y-101002856D01*
X154730004Y-101058748D01*
X154948379Y-101149621D01*
X155217101Y-101250598D01*
X155493228Y-101356826D01*
X155699380Y-101449331D01*
X155788901Y-101506360D01*
X155735914Y-101565482D01*
X155559338Y-101663181D01*
X155294777Y-101780305D01*
X155235967Y-101803776D01*
X154952011Y-101922021D01*
X154742204Y-102022420D01*
X154645420Y-102086074D01*
X154643000Y-102092052D01*
X154716572Y-102145561D01*
X154910044Y-102233756D01*
X155182555Y-102338135D01*
X155200532Y-102344510D01*
X155539841Y-102478607D01*
X155738236Y-102600318D01*
X155820627Y-102731545D01*
X155814328Y-102884168D01*
X155769029Y-102922638D01*
X155647158Y-102913880D01*
X155427927Y-102852348D01*
X155090550Y-102732494D01*
X154735398Y-102596278D01*
X154338524Y-102437419D01*
X153996409Y-102293223D01*
X153741496Y-102177890D01*
X153606229Y-102105621D01*
X153596632Y-102097831D01*
X153558036Y-101991791D01*
X153657128Y-101876181D01*
X153904279Y-101742818D01*
X154195386Y-101625350D01*
X154678116Y-101445222D01*
X154137888Y-101238935D01*
X153799878Y-101095926D01*
X153613481Y-100977638D01*
X153565250Y-100870993D01*
X153641740Y-100762913D01*
X153645347Y-100759903D01*
X153760506Y-100697324D01*
X153995059Y-100590539D01*
X154310130Y-100455535D01*
X154666840Y-100308302D01*
X155026313Y-100164830D01*
X155349671Y-100041108D01*
X155598036Y-99953126D01*
X155637834Y-99940437D01*
X155765097Y-99918951D01*
X155818040Y-99988954D01*
G37*
X157538629Y-95184008D02*
X157809973Y-95194056D01*
X158156667Y-95318375D01*
X158229173Y-95344375D01*
X158424778Y-95488149D01*
X158495334Y-95540010D01*
X158555246Y-95584046D01*
X158591019Y-95610341D01*
X158873721Y-95974123D01*
X159055490Y-96417889D01*
X159114538Y-96923807D01*
X159100851Y-97123754D01*
X158993397Y-97537334D01*
X158790828Y-97919945D01*
X158527482Y-98211681D01*
X158442712Y-98271936D01*
X158295950Y-98341317D01*
X158210512Y-98295761D01*
X158177914Y-98243647D01*
X158058417Y-98144041D01*
X157874694Y-98156788D01*
X157651440Y-98212822D01*
X157875075Y-98036911D01*
X158068981Y-97914642D01*
X158230073Y-97861098D01*
X158234766Y-97861000D01*
X158357868Y-97793037D01*
X158505479Y-97628249D01*
X158635016Y-97425288D01*
X158703898Y-97242802D01*
X158706684Y-97210999D01*
X158632853Y-97145283D01*
X158453000Y-97143476D01*
X158262631Y-97141103D01*
X158199410Y-97060387D01*
X158199000Y-97048706D01*
X158131442Y-96924416D01*
X157966611Y-96790366D01*
X157944868Y-96777562D01*
X157922465Y-96760333D01*
X158368334Y-96760333D01*
X158399312Y-96830023D01*
X158424778Y-96816778D01*
X158434911Y-96716298D01*
X158424778Y-96703889D01*
X158374444Y-96715511D01*
X158368334Y-96760333D01*
X157922465Y-96760333D01*
X157785135Y-96654720D01*
X157729867Y-96548667D01*
X158540260Y-96548667D01*
X158582416Y-96687806D01*
X158622334Y-96760333D01*
X158689421Y-96828102D01*
X158704408Y-96802667D01*
X158662251Y-96663527D01*
X158622334Y-96591000D01*
X158555246Y-96523231D01*
X158540260Y-96548667D01*
X157729867Y-96548667D01*
X157726755Y-96542695D01*
X157729504Y-96530211D01*
X157720174Y-96406512D01*
X157696175Y-96382531D01*
X157612969Y-96407764D01*
X157540454Y-96539259D01*
X157508595Y-96715044D01*
X157511195Y-96765080D01*
X157490062Y-96924911D01*
X157418124Y-97154326D01*
X157396071Y-97209580D01*
X157254645Y-97437671D01*
X157068308Y-97520567D01*
X156815459Y-97462098D01*
X156604920Y-97349926D01*
X156323172Y-97178152D01*
X156381426Y-97371409D01*
X156476706Y-97556397D01*
X156640360Y-97773983D01*
X156687147Y-97825593D01*
X156856529Y-98054464D01*
X156881091Y-98225960D01*
X156880416Y-98227760D01*
X156816599Y-98339908D01*
X156728980Y-98345628D01*
X156586607Y-98235355D01*
X156447088Y-98093833D01*
X156108792Y-97637329D01*
X155937282Y-97153862D01*
X155934028Y-96867780D01*
X156343018Y-96867780D01*
X156369562Y-96969207D01*
X156491983Y-96978491D01*
X156569167Y-96962501D01*
X156812406Y-96861046D01*
X156986233Y-96740351D01*
X157144135Y-96637208D01*
X157257448Y-96627017D01*
X157331754Y-96589287D01*
X157411368Y-96422253D01*
X157424363Y-96379333D01*
X158453000Y-96379333D01*
X158495334Y-96421667D01*
X158537667Y-96379333D01*
X158495334Y-96337000D01*
X158453000Y-96379333D01*
X157424363Y-96379333D01*
X157435558Y-96342358D01*
X157527269Y-96107070D01*
X157573524Y-96040667D01*
X158114334Y-96040667D01*
X158156667Y-96083000D01*
X158199000Y-96040667D01*
X158156667Y-95998333D01*
X158114334Y-96040667D01*
X157573524Y-96040667D01*
X157642169Y-95942120D01*
X157672342Y-95919044D01*
X157742232Y-95861783D01*
X157674296Y-95836577D01*
X157538629Y-95831574D01*
X157157889Y-95899589D01*
X156810547Y-96088293D01*
X156535419Y-96364044D01*
X156371322Y-96693202D01*
X156343018Y-96867780D01*
X155934028Y-96867780D01*
X155931417Y-96638227D01*
X156036499Y-96223139D01*
X156276177Y-95780129D01*
X156643988Y-95445135D01*
X156886667Y-95311690D01*
X157355208Y-95177217D01*
X157538629Y-95184008D01*
G36*
X157538629Y-95184008D02*
G01*
X157809973Y-95194056D01*
X158156667Y-95318375D01*
X158229173Y-95344375D01*
X158424778Y-95488149D01*
X158495334Y-95540010D01*
X158555246Y-95584046D01*
X158591019Y-95610341D01*
X158873721Y-95974123D01*
X159055490Y-96417889D01*
X159114538Y-96923807D01*
X159100851Y-97123754D01*
X158993397Y-97537334D01*
X158790828Y-97919945D01*
X158527482Y-98211681D01*
X158442712Y-98271936D01*
X158295950Y-98341317D01*
X158210512Y-98295761D01*
X158177914Y-98243647D01*
X158058417Y-98144041D01*
X157874694Y-98156788D01*
X157651440Y-98212822D01*
X157875075Y-98036911D01*
X158068981Y-97914642D01*
X158230073Y-97861098D01*
X158234766Y-97861000D01*
X158357868Y-97793037D01*
X158505479Y-97628249D01*
X158635016Y-97425288D01*
X158703898Y-97242802D01*
X158706684Y-97210999D01*
X158632853Y-97145283D01*
X158453000Y-97143476D01*
X158262631Y-97141103D01*
X158199410Y-97060387D01*
X158199000Y-97048706D01*
X158131442Y-96924416D01*
X157966611Y-96790366D01*
X157944868Y-96777562D01*
X157922465Y-96760333D01*
X158368334Y-96760333D01*
X158399312Y-96830023D01*
X158424778Y-96816778D01*
X158434911Y-96716298D01*
X158424778Y-96703889D01*
X158374444Y-96715511D01*
X158368334Y-96760333D01*
X157922465Y-96760333D01*
X157785135Y-96654720D01*
X157729867Y-96548667D01*
X158540260Y-96548667D01*
X158582416Y-96687806D01*
X158622334Y-96760333D01*
X158689421Y-96828102D01*
X158704408Y-96802667D01*
X158662251Y-96663527D01*
X158622334Y-96591000D01*
X158555246Y-96523231D01*
X158540260Y-96548667D01*
X157729867Y-96548667D01*
X157726755Y-96542695D01*
X157729504Y-96530211D01*
X157720174Y-96406512D01*
X157696175Y-96382531D01*
X157612969Y-96407764D01*
X157540454Y-96539259D01*
X157508595Y-96715044D01*
X157511195Y-96765080D01*
X157490062Y-96924911D01*
X157418124Y-97154326D01*
X157396071Y-97209580D01*
X157254645Y-97437671D01*
X157068308Y-97520567D01*
X156815459Y-97462098D01*
X156604920Y-97349926D01*
X156323172Y-97178152D01*
X156381426Y-97371409D01*
X156476706Y-97556397D01*
X156640360Y-97773983D01*
X156687147Y-97825593D01*
X156856529Y-98054464D01*
X156881091Y-98225960D01*
X156880416Y-98227760D01*
X156816599Y-98339908D01*
X156728980Y-98345628D01*
X156586607Y-98235355D01*
X156447088Y-98093833D01*
X156108792Y-97637329D01*
X155937282Y-97153862D01*
X155934028Y-96867780D01*
X156343018Y-96867780D01*
X156369562Y-96969207D01*
X156491983Y-96978491D01*
X156569167Y-96962501D01*
X156812406Y-96861046D01*
X156986233Y-96740351D01*
X157144135Y-96637208D01*
X157257448Y-96627017D01*
X157331754Y-96589287D01*
X157411368Y-96422253D01*
X157424363Y-96379333D01*
X158453000Y-96379333D01*
X158495334Y-96421667D01*
X158537667Y-96379333D01*
X158495334Y-96337000D01*
X158453000Y-96379333D01*
X157424363Y-96379333D01*
X157435558Y-96342358D01*
X157527269Y-96107070D01*
X157573524Y-96040667D01*
X158114334Y-96040667D01*
X158156667Y-96083000D01*
X158199000Y-96040667D01*
X158156667Y-95998333D01*
X158114334Y-96040667D01*
X157573524Y-96040667D01*
X157642169Y-95942120D01*
X157672342Y-95919044D01*
X157742232Y-95861783D01*
X157674296Y-95836577D01*
X157538629Y-95831574D01*
X157157889Y-95899589D01*
X156810547Y-96088293D01*
X156535419Y-96364044D01*
X156371322Y-96693202D01*
X156343018Y-96867780D01*
X155934028Y-96867780D01*
X155931417Y-96638227D01*
X156036499Y-96223139D01*
X156276177Y-95780129D01*
X156643988Y-95445135D01*
X156886667Y-95311690D01*
X157355208Y-95177217D01*
X157538629Y-95184008D01*
G37*
D13*
X117980000Y-100970000D02*
X117980000Y-102300000D01*
X116650000Y-100970000D02*
X117980000Y-100970000D01*
X115380000Y-100970000D02*
X112780000Y-100970000D01*
X115380000Y-100970000D02*
X115380000Y-103570000D01*
X112780000Y-100970000D02*
X112780000Y-106170000D01*
X117980000Y-103570000D02*
X117980000Y-106170000D01*
X115380000Y-103570000D02*
X117980000Y-103570000D01*
X117980000Y-106170000D02*
X112780000Y-106170000D01*
D10*
X116307500Y-97125000D02*
X116307500Y-90125000D01*
X121307500Y-95925000D02*
X123807500Y-95925000D01*
X123807500Y-95125000D02*
X124207500Y-95125000D01*
X124207500Y-95125000D02*
X124207500Y-92125000D01*
X123807500Y-92125000D02*
X124207500Y-92125000D01*
X121307500Y-91325000D02*
X123807500Y-91325000D01*
X123807500Y-91325000D02*
X123807500Y-95925000D01*
D13*
X80025000Y-115505000D02*
X80025000Y-114175000D01*
X81355000Y-115505000D02*
X80025000Y-115505000D01*
X82625000Y-115505000D02*
X90305000Y-115505000D01*
X82625000Y-115505000D02*
X82625000Y-112845000D01*
X90305000Y-115505000D02*
X90305000Y-112845000D01*
X82625000Y-112845000D02*
X90305000Y-112845000D01*
X65421370Y-62750023D02*
X65421370Y-61420023D01*
X66751370Y-62750023D02*
X65421370Y-62750023D01*
X68021370Y-62750023D02*
X75701370Y-62750023D01*
X68021370Y-62750023D02*
X68021370Y-60090023D01*
X75701370Y-62750023D02*
X75701370Y-60090023D01*
X68021370Y-60090023D02*
X75701370Y-60090023D01*
X103100000Y-135750000D02*
X103100000Y-119750000D01*
X103100000Y-119750000D02*
X91100000Y-119750000D01*
X103030000Y-135680000D02*
X101700000Y-135680000D01*
X103030000Y-134350000D02*
X103030000Y-135680000D01*
X103030000Y-133080000D02*
X103030000Y-125400000D01*
X103030000Y-133080000D02*
X100370000Y-133080000D01*
X103030000Y-125400000D02*
X100370000Y-125400000D01*
X100370000Y-133080000D02*
X100370000Y-125400000D01*
X91100000Y-135750000D02*
X103100000Y-135750000D01*
X91100000Y-119750000D02*
X91100000Y-135750000D01*
X61725000Y-138275000D02*
X62025000Y-138275000D01*
X61725000Y-138275000D02*
X61725000Y-117275000D01*
X64125000Y-138275000D02*
X64525000Y-138275000D01*
X64392000Y-138275000D02*
X64392000Y-135268000D01*
X66725000Y-138275000D02*
X67125000Y-138275000D01*
X69225000Y-138275000D02*
X69625000Y-138275000D01*
X71825000Y-138275000D02*
X72225000Y-138275000D01*
X74325000Y-138275000D02*
X74725000Y-138275000D01*
X76825000Y-138275000D02*
X77225000Y-138275000D01*
X79425000Y-138275000D02*
X79825000Y-138275000D01*
X81925000Y-138275000D02*
X82325000Y-138275000D01*
X84525000Y-138275000D02*
X84925000Y-138275000D01*
X87025000Y-138275000D02*
X87425000Y-138275000D01*
X89525000Y-138275000D02*
X89925000Y-138275000D01*
X92125000Y-138275000D02*
X92525000Y-138275000D01*
X94625000Y-138275000D02*
X95025000Y-138275000D01*
X97225000Y-138275000D02*
X97625000Y-138275000D01*
X99725000Y-138275000D02*
X100125000Y-138275000D01*
X102325000Y-138275000D02*
X102725000Y-138275000D01*
X104825000Y-138275000D02*
X105225000Y-138275000D01*
X107325000Y-138275000D02*
X107725000Y-138275000D01*
X109925000Y-138275000D02*
X110325000Y-138275000D01*
X64392000Y-135268000D02*
X61725000Y-135268000D01*
X112725000Y-131475000D02*
X112725000Y-138275000D01*
X112725000Y-129275000D02*
X112725000Y-128875000D01*
X112725000Y-126675000D02*
X112725000Y-126275000D01*
X61725000Y-117275000D02*
X62025000Y-117275000D01*
X64125000Y-117275000D02*
X64525000Y-117275000D01*
X66725000Y-117275000D02*
X67125000Y-117275000D01*
X69225000Y-117275000D02*
X69625000Y-117275000D01*
X71825000Y-117275000D02*
X72225000Y-117275000D01*
X74325000Y-117275000D02*
X74725000Y-117275000D01*
X76825000Y-117275000D02*
X77225000Y-117275000D01*
X79425000Y-117275000D02*
X79825000Y-117275000D01*
X81925000Y-117275000D02*
X82325000Y-117275000D01*
X84525000Y-117275000D02*
X84925000Y-117275000D01*
X87025000Y-117275000D02*
X87425000Y-117275000D01*
X89525000Y-117275000D02*
X89925000Y-117275000D01*
X92125000Y-117275000D02*
X92525000Y-117275000D01*
X94625000Y-117275000D02*
X95025000Y-117275000D01*
X97225000Y-117275000D02*
X97625000Y-117275000D01*
X99725000Y-117275000D02*
X100125000Y-117275000D01*
X102325000Y-117275000D02*
X102725000Y-117275000D01*
X104825000Y-117275000D02*
X105225000Y-117275000D01*
X107325000Y-117275000D02*
X107725000Y-117275000D01*
X109925000Y-117275000D02*
X110325000Y-117275000D01*
X112725000Y-117275000D02*
X112725000Y-124075000D01*
X122130000Y-79070000D02*
X122130000Y-80400000D01*
X120800000Y-79070000D02*
X122130000Y-79070000D01*
X119530000Y-79070000D02*
X119470000Y-79070000D01*
X119530000Y-79070000D02*
X119530000Y-81730000D01*
X119470000Y-79070000D02*
X119470000Y-81730000D01*
X119530000Y-81730000D02*
X119470000Y-81730000D01*
X128505000Y-79070000D02*
X128505000Y-80400000D01*
X127175000Y-79070000D02*
X128505000Y-79070000D01*
X125905000Y-79070000D02*
X125845000Y-79070000D01*
X125905000Y-79070000D02*
X125905000Y-81730000D01*
X125845000Y-79070000D02*
X125845000Y-81730000D01*
X125905000Y-81730000D02*
X125845000Y-81730000D01*
X70695000Y-91915000D02*
X69695000Y-91915000D01*
X69695000Y-91915000D02*
X70195000Y-92415000D01*
X70195000Y-92415000D02*
X70695000Y-91915000D01*
X73985000Y-92495000D02*
X57245000Y-92495000D01*
X73985000Y-108215000D02*
X73985000Y-92495000D01*
X73985000Y-108225000D02*
X57245000Y-108225000D01*
X57245000Y-108225000D02*
X57245000Y-92495000D01*
D15*
X117707500Y-97125000D03*
D16*
X120207500Y-95875000D03*
D15*
X117707500Y-90125000D03*
D16*
X120207500Y-91375000D03*
D17*
X63845000Y-94645000D03*
X63845000Y-106075000D03*
D18*
X64145000Y-114525000D03*
M02*
