G04 #@! TF.GenerationSoftware,KiCad,Pcbnew,(5.1.5-0-10_14)*
G04 #@! TF.CreationDate,2021-05-04T13:32:50-04:00*
G04 #@! TF.ProjectId,FEA,4645412e-6b69-4636-9164-5f7063625858,rev?*
G04 #@! TF.SameCoordinates,Original*
G04 #@! TF.FileFunction,Legend,Bot*
G04 #@! TF.FilePolarity,Positive*
%FSLAX46Y46*%
G04 Gerber Fmt 4.6, Leading zero omitted, Abs format (unit mm)*
G04 Created by KiCad (PCBNEW (5.1.5-0-10_14)) date 2021-05-04 13:32:50*
%MOMM*%
%LPD*%
G04 APERTURE LIST*
%ADD10C,0.150000*%
%ADD11C,0.120000*%
G04 APERTURE END LIST*
D10*
X31830000Y-179986666D02*
X31830000Y-179286666D01*
X31596666Y-179786666D01*
X31363333Y-179286666D01*
X31363333Y-179986666D01*
X30930000Y-179986666D02*
X30996666Y-179953333D01*
X31030000Y-179920000D01*
X31063333Y-179853333D01*
X31063333Y-179653333D01*
X31030000Y-179586666D01*
X30996666Y-179553333D01*
X30930000Y-179520000D01*
X30830000Y-179520000D01*
X30763333Y-179553333D01*
X30730000Y-179586666D01*
X30696666Y-179653333D01*
X30696666Y-179853333D01*
X30730000Y-179920000D01*
X30763333Y-179953333D01*
X30830000Y-179986666D01*
X30930000Y-179986666D01*
X30030000Y-179320000D02*
X30096666Y-179286666D01*
X30196666Y-179286666D01*
X30296666Y-179320000D01*
X30363333Y-179386666D01*
X30396666Y-179453333D01*
X30430000Y-179586666D01*
X30430000Y-179686666D01*
X30396666Y-179820000D01*
X30363333Y-179886666D01*
X30296666Y-179953333D01*
X30196666Y-179986666D01*
X30130000Y-179986666D01*
X30030000Y-179953333D01*
X29996666Y-179920000D01*
X29996666Y-179686666D01*
X30130000Y-179686666D01*
X29696666Y-179286666D02*
X29696666Y-179853333D01*
X29663333Y-179920000D01*
X29630000Y-179953333D01*
X29563333Y-179986666D01*
X29430000Y-179986666D01*
X29363333Y-179953333D01*
X29330000Y-179920000D01*
X29296666Y-179853333D01*
X29296666Y-179286666D01*
X28563333Y-179986666D02*
X28796666Y-179653333D01*
X28963333Y-179986666D02*
X28963333Y-179286666D01*
X28696666Y-179286666D01*
X28630000Y-179320000D01*
X28596666Y-179353333D01*
X28563333Y-179420000D01*
X28563333Y-179520000D01*
X28596666Y-179586666D01*
X28630000Y-179620000D01*
X28696666Y-179653333D01*
X28963333Y-179653333D01*
X28296666Y-179786666D02*
X27963333Y-179786666D01*
X28363333Y-179986666D02*
X28130000Y-179286666D01*
X27896666Y-179986666D01*
X27696666Y-179353333D02*
X27663333Y-179320000D01*
X27596666Y-179286666D01*
X27430000Y-179286666D01*
X27363333Y-179320000D01*
X27330000Y-179353333D01*
X27296666Y-179420000D01*
X27296666Y-179486666D01*
X27330000Y-179586666D01*
X27730000Y-179986666D01*
X27296666Y-179986666D01*
X37013333Y-180986666D02*
X36680000Y-180986666D01*
X37080000Y-181186666D02*
X36846666Y-180486666D01*
X36613333Y-181186666D01*
X36380000Y-180720000D02*
X36380000Y-181186666D01*
X36380000Y-180786666D02*
X36346666Y-180753333D01*
X36280000Y-180720000D01*
X36180000Y-180720000D01*
X36113333Y-180753333D01*
X36080000Y-180820000D01*
X36080000Y-181186666D01*
X35446666Y-181186666D02*
X35446666Y-180820000D01*
X35480000Y-180753333D01*
X35546666Y-180720000D01*
X35680000Y-180720000D01*
X35746666Y-180753333D01*
X35446666Y-181153333D02*
X35513333Y-181186666D01*
X35680000Y-181186666D01*
X35746666Y-181153333D01*
X35780000Y-181086666D01*
X35780000Y-181020000D01*
X35746666Y-180953333D01*
X35680000Y-180920000D01*
X35513333Y-180920000D01*
X35446666Y-180886666D01*
X35013333Y-181186666D02*
X35080000Y-181153333D01*
X35113333Y-181086666D01*
X35113333Y-180486666D01*
X34646666Y-181186666D02*
X34713333Y-181153333D01*
X34746666Y-181120000D01*
X34780000Y-181053333D01*
X34780000Y-180853333D01*
X34746666Y-180786666D01*
X34713333Y-180753333D01*
X34646666Y-180720000D01*
X34546666Y-180720000D01*
X34480000Y-180753333D01*
X34446666Y-180786666D01*
X34413333Y-180853333D01*
X34413333Y-181053333D01*
X34446666Y-181120000D01*
X34480000Y-181153333D01*
X34546666Y-181186666D01*
X34646666Y-181186666D01*
X33813333Y-180720000D02*
X33813333Y-181286666D01*
X33846666Y-181353333D01*
X33880000Y-181386666D01*
X33946666Y-181420000D01*
X34046666Y-181420000D01*
X34113333Y-181386666D01*
X33813333Y-181153333D02*
X33880000Y-181186666D01*
X34013333Y-181186666D01*
X34080000Y-181153333D01*
X34113333Y-181120000D01*
X34146666Y-181053333D01*
X34146666Y-180853333D01*
X34113333Y-180786666D01*
X34080000Y-180753333D01*
X34013333Y-180720000D01*
X33880000Y-180720000D01*
X33813333Y-180753333D01*
X32713333Y-180820000D02*
X32946666Y-180820000D01*
X32946666Y-181186666D02*
X32946666Y-180486666D01*
X32613333Y-180486666D01*
X32346666Y-181186666D02*
X32346666Y-180720000D01*
X32346666Y-180853333D02*
X32313333Y-180786666D01*
X32280000Y-180753333D01*
X32213333Y-180720000D01*
X32146666Y-180720000D01*
X31813333Y-181186666D02*
X31880000Y-181153333D01*
X31913333Y-181120000D01*
X31946666Y-181053333D01*
X31946666Y-180853333D01*
X31913333Y-180786666D01*
X31880000Y-180753333D01*
X31813333Y-180720000D01*
X31713333Y-180720000D01*
X31646666Y-180753333D01*
X31613333Y-180786666D01*
X31580000Y-180853333D01*
X31580000Y-181053333D01*
X31613333Y-181120000D01*
X31646666Y-181153333D01*
X31713333Y-181186666D01*
X31813333Y-181186666D01*
X31280000Y-180720000D02*
X31280000Y-181186666D01*
X31280000Y-180786666D02*
X31246666Y-180753333D01*
X31180000Y-180720000D01*
X31080000Y-180720000D01*
X31013333Y-180753333D01*
X30980000Y-180820000D01*
X30980000Y-181186666D01*
X30746666Y-180720000D02*
X30479999Y-180720000D01*
X30646666Y-180486666D02*
X30646666Y-181086666D01*
X30613333Y-181153333D01*
X30546666Y-181186666D01*
X30479999Y-181186666D01*
X29979999Y-181153333D02*
X30046666Y-181186666D01*
X30179999Y-181186666D01*
X30246666Y-181153333D01*
X30279999Y-181086666D01*
X30279999Y-180820000D01*
X30246666Y-180753333D01*
X30179999Y-180720000D01*
X30046666Y-180720000D01*
X29979999Y-180753333D01*
X29946666Y-180820000D01*
X29946666Y-180886666D01*
X30279999Y-180953333D01*
X29646666Y-180720000D02*
X29646666Y-181186666D01*
X29646666Y-180786666D02*
X29613333Y-180753333D01*
X29546666Y-180720000D01*
X29446666Y-180720000D01*
X29379999Y-180753333D01*
X29346666Y-180820000D01*
X29346666Y-181186666D01*
X28713333Y-181186666D02*
X28713333Y-180486666D01*
X28713333Y-181153333D02*
X28779999Y-181186666D01*
X28913333Y-181186666D01*
X28979999Y-181153333D01*
X29013333Y-181120000D01*
X29046666Y-181053333D01*
X29046666Y-180853333D01*
X29013333Y-180786666D01*
X28979999Y-180753333D01*
X28913333Y-180720000D01*
X28779999Y-180720000D01*
X28713333Y-180753333D01*
X27946666Y-180486666D02*
X27713333Y-181186666D01*
X27480000Y-180486666D01*
X26980000Y-181153333D02*
X27046666Y-181186666D01*
X27180000Y-181186666D01*
X27246666Y-181153333D01*
X27280000Y-181086666D01*
X27280000Y-180820000D01*
X27246666Y-180753333D01*
X27180000Y-180720000D01*
X27046666Y-180720000D01*
X26980000Y-180753333D01*
X26946666Y-180820000D01*
X26946666Y-180886666D01*
X27280000Y-180953333D01*
X26646666Y-181186666D02*
X26646666Y-180720000D01*
X26646666Y-180853333D02*
X26613333Y-180786666D01*
X26580000Y-180753333D01*
X26513333Y-180720000D01*
X26446666Y-180720000D01*
X26246666Y-181153333D02*
X26180000Y-181186666D01*
X26046666Y-181186666D01*
X25980000Y-181153333D01*
X25946666Y-181086666D01*
X25946666Y-181053333D01*
X25980000Y-180986666D01*
X26046666Y-180953333D01*
X26146666Y-180953333D01*
X26213333Y-180920000D01*
X26246666Y-180853333D01*
X26246666Y-180820000D01*
X26213333Y-180753333D01*
X26146666Y-180720000D01*
X26046666Y-180720000D01*
X25980000Y-180753333D01*
X25646666Y-181186666D02*
X25646666Y-180720000D01*
X25646666Y-180486666D02*
X25680000Y-180520000D01*
X25646666Y-180553333D01*
X25613333Y-180520000D01*
X25646666Y-180486666D01*
X25646666Y-180553333D01*
X25213333Y-181186666D02*
X25280000Y-181153333D01*
X25313333Y-181120000D01*
X25346666Y-181053333D01*
X25346666Y-180853333D01*
X25313333Y-180786666D01*
X25280000Y-180753333D01*
X25213333Y-180720000D01*
X25113333Y-180720000D01*
X25046666Y-180753333D01*
X25013333Y-180786666D01*
X24980000Y-180853333D01*
X24980000Y-181053333D01*
X25013333Y-181120000D01*
X25046666Y-181153333D01*
X25113333Y-181186666D01*
X25213333Y-181186666D01*
X24680000Y-180720000D02*
X24680000Y-181186666D01*
X24680000Y-180786666D02*
X24646666Y-180753333D01*
X24580000Y-180720000D01*
X24480000Y-180720000D01*
X24413333Y-180753333D01*
X24380000Y-180820000D01*
X24380000Y-181186666D01*
X23146666Y-181186666D02*
X23546666Y-181186666D01*
X23346666Y-181186666D02*
X23346666Y-180486666D01*
X23413333Y-180586666D01*
X23480000Y-180653333D01*
X23546666Y-180686666D01*
X22846666Y-181120000D02*
X22813333Y-181153333D01*
X22846666Y-181186666D01*
X22880000Y-181153333D01*
X22846666Y-181120000D01*
X22846666Y-181186666D01*
X22580000Y-180486666D02*
X22146666Y-180486666D01*
X22380000Y-180753333D01*
X22280000Y-180753333D01*
X22213333Y-180786666D01*
X22180000Y-180820000D01*
X22146666Y-180886666D01*
X22146666Y-181053333D01*
X22180000Y-181120000D01*
X22213333Y-181153333D01*
X22280000Y-181186666D01*
X22480000Y-181186666D01*
X22546666Y-181153333D01*
X22580000Y-181120000D01*
X33980000Y-182353333D02*
X33880000Y-182386666D01*
X33713333Y-182386666D01*
X33646666Y-182353333D01*
X33613333Y-182320000D01*
X33580000Y-182253333D01*
X33580000Y-182186666D01*
X33613333Y-182120000D01*
X33646666Y-182086666D01*
X33713333Y-182053333D01*
X33846666Y-182020000D01*
X33913333Y-181986666D01*
X33946666Y-181953333D01*
X33980000Y-181886666D01*
X33980000Y-181820000D01*
X33946666Y-181753333D01*
X33913333Y-181720000D01*
X33846666Y-181686666D01*
X33680000Y-181686666D01*
X33580000Y-181720000D01*
X33280000Y-181920000D02*
X33280000Y-182620000D01*
X33280000Y-181953333D02*
X33213333Y-181920000D01*
X33080000Y-181920000D01*
X33013333Y-181953333D01*
X32980000Y-181986666D01*
X32946666Y-182053333D01*
X32946666Y-182253333D01*
X32980000Y-182320000D01*
X33013333Y-182353333D01*
X33080000Y-182386666D01*
X33213333Y-182386666D01*
X33280000Y-182353333D01*
X32380000Y-182353333D02*
X32446666Y-182386666D01*
X32580000Y-182386666D01*
X32646666Y-182353333D01*
X32680000Y-182286666D01*
X32680000Y-182020000D01*
X32646666Y-181953333D01*
X32580000Y-181920000D01*
X32446666Y-181920000D01*
X32380000Y-181953333D01*
X32346666Y-182020000D01*
X32346666Y-182086666D01*
X32680000Y-182153333D01*
X32046666Y-181920000D02*
X32046666Y-182386666D01*
X32046666Y-181986666D02*
X32013333Y-181953333D01*
X31946666Y-181920000D01*
X31846666Y-181920000D01*
X31780000Y-181953333D01*
X31746666Y-182020000D01*
X31746666Y-182386666D01*
X31113333Y-182353333D02*
X31180000Y-182386666D01*
X31313333Y-182386666D01*
X31380000Y-182353333D01*
X31413333Y-182320000D01*
X31446666Y-182253333D01*
X31446666Y-182053333D01*
X31413333Y-181986666D01*
X31380000Y-181953333D01*
X31313333Y-181920000D01*
X31180000Y-181920000D01*
X31113333Y-181953333D01*
X30546666Y-182353333D02*
X30613333Y-182386666D01*
X30746666Y-182386666D01*
X30813333Y-182353333D01*
X30846666Y-182286666D01*
X30846666Y-182020000D01*
X30813333Y-181953333D01*
X30746666Y-181920000D01*
X30613333Y-181920000D01*
X30546666Y-181953333D01*
X30513333Y-182020000D01*
X30513333Y-182086666D01*
X30846666Y-182153333D01*
X30213333Y-182386666D02*
X30213333Y-181920000D01*
X30213333Y-182053333D02*
X30180000Y-181986666D01*
X30146666Y-181953333D01*
X30080000Y-181920000D01*
X30013333Y-181920000D01*
X29246666Y-182386666D02*
X29246666Y-181686666D01*
X28846666Y-182386666D01*
X28846666Y-181686666D01*
X28513333Y-182320000D02*
X28480000Y-182353333D01*
X28513333Y-182386666D01*
X28546666Y-182353333D01*
X28513333Y-182320000D01*
X28513333Y-182386666D01*
X27680000Y-182186666D02*
X27346666Y-182186666D01*
X27746666Y-182386666D02*
X27513333Y-181686666D01*
X27280000Y-182386666D01*
X27113333Y-182386666D02*
X26746666Y-181920000D01*
X27113333Y-181920000D02*
X26746666Y-182386666D01*
X26180000Y-182386666D02*
X26180000Y-182020000D01*
X26213333Y-181953333D01*
X26280000Y-181920000D01*
X26413333Y-181920000D01*
X26480000Y-181953333D01*
X26180000Y-182353333D02*
X26246666Y-182386666D01*
X26413333Y-182386666D01*
X26480000Y-182353333D01*
X26513333Y-182286666D01*
X26513333Y-182220000D01*
X26480000Y-182153333D01*
X26413333Y-182120000D01*
X26246666Y-182120000D01*
X26180000Y-182086666D01*
X25846666Y-181920000D02*
X25846666Y-182386666D01*
X25846666Y-181986666D02*
X25813333Y-181953333D01*
X25746666Y-181920000D01*
X25646666Y-181920000D01*
X25580000Y-181953333D01*
X25546666Y-182020000D01*
X25546666Y-182386666D01*
X25213333Y-182386666D02*
X25213333Y-181920000D01*
X25213333Y-181686666D02*
X25246666Y-181720000D01*
X25213333Y-181753333D01*
X25180000Y-181720000D01*
X25213333Y-181686666D01*
X25213333Y-181753333D01*
X33513333Y-183553333D02*
X33446666Y-183586666D01*
X33313333Y-183586666D01*
X33246666Y-183553333D01*
X33213333Y-183486666D01*
X33213333Y-183453333D01*
X33246666Y-183386666D01*
X33313333Y-183353333D01*
X33413333Y-183353333D01*
X33480000Y-183320000D01*
X33513333Y-183253333D01*
X33513333Y-183220000D01*
X33480000Y-183153333D01*
X33413333Y-183120000D01*
X33313333Y-183120000D01*
X33246666Y-183153333D01*
X32613333Y-183586666D02*
X32613333Y-183220000D01*
X32646666Y-183153333D01*
X32713333Y-183120000D01*
X32846666Y-183120000D01*
X32913333Y-183153333D01*
X32613333Y-183553333D02*
X32680000Y-183586666D01*
X32846666Y-183586666D01*
X32913333Y-183553333D01*
X32946666Y-183486666D01*
X32946666Y-183420000D01*
X32913333Y-183353333D01*
X32846666Y-183320000D01*
X32680000Y-183320000D01*
X32613333Y-183286666D01*
X32346666Y-183586666D02*
X31980000Y-183120000D01*
X32346666Y-183120000D02*
X31980000Y-183586666D01*
X31413333Y-183586666D02*
X31413333Y-183220000D01*
X31446666Y-183153333D01*
X31513333Y-183120000D01*
X31646666Y-183120000D01*
X31713333Y-183153333D01*
X31413333Y-183553333D02*
X31480000Y-183586666D01*
X31646666Y-183586666D01*
X31713333Y-183553333D01*
X31746666Y-183486666D01*
X31746666Y-183420000D01*
X31713333Y-183353333D01*
X31646666Y-183320000D01*
X31480000Y-183320000D01*
X31413333Y-183286666D01*
X31080000Y-183120000D02*
X31080000Y-183586666D01*
X31080000Y-183186666D02*
X31046666Y-183153333D01*
X30980000Y-183120000D01*
X30880000Y-183120000D01*
X30813333Y-183153333D01*
X30780000Y-183220000D01*
X30780000Y-183586666D01*
X30446666Y-183586666D02*
X30446666Y-183120000D01*
X30446666Y-182886666D02*
X30480000Y-182920000D01*
X30446666Y-182953333D01*
X30413333Y-182920000D01*
X30446666Y-182886666D01*
X30446666Y-182953333D01*
X29680000Y-183253333D02*
X29713333Y-183220000D01*
X29780000Y-183186666D01*
X29846666Y-183186666D01*
X29913333Y-183220000D01*
X29946666Y-183253333D01*
X29980000Y-183320000D01*
X29980000Y-183386666D01*
X29946666Y-183453333D01*
X29913333Y-183486666D01*
X29846666Y-183520000D01*
X29780000Y-183520000D01*
X29713333Y-183486666D01*
X29680000Y-183453333D01*
X29680000Y-183186666D02*
X29680000Y-183453333D01*
X29646666Y-183486666D01*
X29613333Y-183486666D01*
X29546666Y-183453333D01*
X29513333Y-183386666D01*
X29513333Y-183220000D01*
X29580000Y-183120000D01*
X29680000Y-183053333D01*
X29813333Y-183020000D01*
X29946666Y-183053333D01*
X30046666Y-183120000D01*
X30113333Y-183220000D01*
X30146666Y-183353333D01*
X30113333Y-183486666D01*
X30046666Y-183586666D01*
X29946666Y-183653333D01*
X29813333Y-183686666D01*
X29680000Y-183653333D01*
X29580000Y-183586666D01*
X29213333Y-183586666D02*
X29213333Y-183120000D01*
X29213333Y-183186666D02*
X29180000Y-183153333D01*
X29113333Y-183120000D01*
X29013333Y-183120000D01*
X28946666Y-183153333D01*
X28913333Y-183220000D01*
X28913333Y-183586666D01*
X28913333Y-183220000D02*
X28880000Y-183153333D01*
X28813333Y-183120000D01*
X28713333Y-183120000D01*
X28646666Y-183153333D01*
X28613333Y-183220000D01*
X28613333Y-183586666D01*
X28280000Y-183586666D02*
X28280000Y-183120000D01*
X28280000Y-182886666D02*
X28313333Y-182920000D01*
X28280000Y-182953333D01*
X28246666Y-182920000D01*
X28280000Y-182886666D01*
X28280000Y-182953333D01*
X28046666Y-183120000D02*
X27780000Y-183120000D01*
X27946666Y-182886666D02*
X27946666Y-183486666D01*
X27913333Y-183553333D01*
X27846666Y-183586666D01*
X27780000Y-183586666D01*
X27546666Y-183520000D02*
X27513333Y-183553333D01*
X27546666Y-183586666D01*
X27580000Y-183553333D01*
X27546666Y-183520000D01*
X27546666Y-183586666D01*
X26946666Y-183553333D02*
X27013333Y-183586666D01*
X27146666Y-183586666D01*
X27213333Y-183553333D01*
X27246666Y-183486666D01*
X27246666Y-183220000D01*
X27213333Y-183153333D01*
X27146666Y-183120000D01*
X27013333Y-183120000D01*
X26946666Y-183153333D01*
X26913333Y-183220000D01*
X26913333Y-183286666D01*
X27246666Y-183353333D01*
X26313333Y-183586666D02*
X26313333Y-182886666D01*
X26313333Y-183553333D02*
X26380000Y-183586666D01*
X26513333Y-183586666D01*
X26580000Y-183553333D01*
X26613333Y-183520000D01*
X26646666Y-183453333D01*
X26646666Y-183253333D01*
X26613333Y-183186666D01*
X26580000Y-183153333D01*
X26513333Y-183120000D01*
X26380000Y-183120000D01*
X26313333Y-183153333D01*
X25680000Y-183120000D02*
X25680000Y-183586666D01*
X25980000Y-183120000D02*
X25980000Y-183486666D01*
X25946666Y-183553333D01*
X25880000Y-183586666D01*
X25780000Y-183586666D01*
X25713333Y-183553333D01*
X25680000Y-183520000D01*
D11*
X82900000Y-119300000D02*
X81900000Y-119300000D01*
X81900000Y-117600000D02*
X82900000Y-117600000D01*
D10*
X106325000Y-151825000D02*
X106325000Y-102325000D01*
X119625000Y-151825000D02*
X119625000Y-102325000D01*
X108625000Y-156025000D02*
X106325000Y-153725000D01*
X106325000Y-153725000D02*
X106325000Y-151825000D01*
X108625000Y-156025000D02*
X119625000Y-156025000D01*
X119625000Y-156025000D02*
X119625000Y-151825000D01*
X106325000Y-102325000D02*
X106325000Y-98125000D01*
X106325000Y-98125000D02*
X119625000Y-98125000D01*
X119625000Y-98125000D02*
X119625000Y-102325000D01*
D11*
X32400000Y-150550000D02*
X31400000Y-150550000D01*
X31400000Y-148850000D02*
X32400000Y-148850000D01*
X32450000Y-141650000D02*
X31450000Y-141650000D01*
X31450000Y-139950000D02*
X32450000Y-139950000D01*
X31450000Y-146350000D02*
X32450000Y-146350000D01*
X32450000Y-148050000D02*
X31450000Y-148050000D01*
X31400000Y-134950000D02*
X32400000Y-134950000D01*
X32400000Y-136650000D02*
X31400000Y-136650000D01*
X37200000Y-120150000D02*
X38200000Y-120150000D01*
X38200000Y-121850000D02*
X37200000Y-121850000D01*
X49300000Y-107800000D02*
X49300000Y-108800000D01*
X47600000Y-108800000D02*
X47600000Y-107800000D01*
X38250000Y-118700000D02*
X37550000Y-118700000D01*
X37550000Y-119900000D02*
X38250000Y-119900000D01*
X46200000Y-107700000D02*
X46200000Y-108400000D01*
X47400000Y-108400000D02*
X47400000Y-107700000D01*
X50550000Y-105000000D02*
X50550000Y-104300000D01*
X49350000Y-104300000D02*
X49350000Y-105000000D01*
X49850000Y-115850000D02*
X49150000Y-115850000D01*
X49150000Y-117050000D02*
X49850000Y-117050000D01*
X45850000Y-100750000D02*
X45850000Y-101450000D01*
X47050000Y-101450000D02*
X47050000Y-100750000D01*
X49000000Y-100150000D02*
X49000000Y-101150000D01*
X47300000Y-101150000D02*
X47300000Y-100150000D01*
X49250000Y-113850000D02*
X50250000Y-113850000D01*
X50250000Y-115550000D02*
X49250000Y-115550000D01*
X42000000Y-120320000D02*
X41000000Y-120320000D01*
X41000000Y-121680000D02*
X42000000Y-121680000D01*
X49520000Y-107950000D02*
X49520000Y-108950000D01*
X50880000Y-108950000D02*
X50880000Y-107950000D01*
X46400000Y-113170000D02*
X45400000Y-113170000D01*
X45400000Y-114530000D02*
X46400000Y-114530000D01*
X50630000Y-101150000D02*
X50630000Y-100150000D01*
X49270000Y-100150000D02*
X49270000Y-101150000D01*
X42300000Y-114850000D02*
X42300000Y-115550000D01*
X43500000Y-115550000D02*
X43500000Y-114850000D01*
X44000000Y-116700000D02*
X43300000Y-116700000D01*
X43300000Y-117900000D02*
X44000000Y-117900000D01*
X81900000Y-113600000D02*
X82900000Y-113600000D01*
X82900000Y-115300000D02*
X81900000Y-115300000D01*
X77600000Y-111700000D02*
X77600000Y-111000000D01*
X76400000Y-111000000D02*
X76400000Y-111700000D01*
X77600000Y-116900000D02*
X77600000Y-116200000D01*
X76400000Y-116200000D02*
X76400000Y-116900000D01*
X77600000Y-122150000D02*
X77600000Y-121450000D01*
X76400000Y-121450000D02*
X76400000Y-122150000D01*
X81900000Y-100500000D02*
X82900000Y-100500000D01*
X82900000Y-102200000D02*
X81900000Y-102200000D01*
X75900000Y-99250000D02*
X76600000Y-99250000D01*
X76600000Y-98050000D02*
X75900000Y-98050000D01*
X76400000Y-102900000D02*
X76400000Y-103600000D01*
X77600000Y-103600000D02*
X77600000Y-102900000D01*
X76400000Y-108100000D02*
X76400000Y-108800000D01*
X77600000Y-108800000D02*
X77600000Y-108100000D01*
X82900000Y-106000000D02*
X81900000Y-106000000D01*
X81900000Y-104300000D02*
X82900000Y-104300000D01*
X80400000Y-111730000D02*
X81400000Y-111730000D01*
X81400000Y-110370000D02*
X80400000Y-110370000D01*
X81300000Y-121020000D02*
X80300000Y-121020000D01*
X80300000Y-122380000D02*
X81300000Y-122380000D01*
X81350000Y-97120000D02*
X80350000Y-97120000D01*
X80350000Y-98480000D02*
X81350000Y-98480000D01*
X80300000Y-109230000D02*
X81300000Y-109230000D01*
X81300000Y-107870000D02*
X80300000Y-107870000D01*
X50300000Y-151850000D02*
X51300000Y-151850000D01*
X51300000Y-153550000D02*
X50300000Y-153550000D01*
X60950000Y-139950000D02*
X60950000Y-138950000D01*
X62650000Y-138950000D02*
X62650000Y-139950000D01*
X51400000Y-150450000D02*
X50700000Y-150450000D01*
X50700000Y-151650000D02*
X51400000Y-151650000D01*
X59500000Y-138800000D02*
X59500000Y-139500000D01*
X60700000Y-139500000D02*
X60700000Y-138800000D01*
X62750000Y-135350000D02*
X62750000Y-136050000D01*
X63950000Y-136050000D02*
X63950000Y-135350000D01*
X62950000Y-147450000D02*
X62250000Y-147450000D01*
X62250000Y-148650000D02*
X62950000Y-148650000D01*
X59100000Y-131900000D02*
X59100000Y-132600000D01*
X60300000Y-132600000D02*
X60300000Y-131900000D01*
X60500000Y-132500000D02*
X60500000Y-131500000D01*
X62200000Y-131500000D02*
X62200000Y-132500000D01*
X62350000Y-145550000D02*
X63350000Y-145550000D01*
X63350000Y-147250000D02*
X62350000Y-147250000D01*
X95500000Y-131850000D02*
X96500000Y-131850000D01*
X96500000Y-133550000D02*
X95500000Y-133550000D01*
X90200000Y-129400000D02*
X89500000Y-129400000D01*
X89500000Y-130600000D02*
X90200000Y-130600000D01*
X96600000Y-146350000D02*
X95600000Y-146350000D01*
X95600000Y-144650000D02*
X96600000Y-144650000D01*
X89600000Y-143600000D02*
X90300000Y-143600000D01*
X90300000Y-142400000D02*
X89600000Y-142400000D01*
X91250000Y-134950000D02*
X91250000Y-134250000D01*
X90050000Y-134250000D02*
X90050000Y-134950000D01*
X90100000Y-147150000D02*
X90100000Y-147850000D01*
X91300000Y-147850000D02*
X91300000Y-147150000D01*
X91250000Y-140100000D02*
X91250000Y-139400000D01*
X90050000Y-139400000D02*
X90050000Y-140100000D01*
X96600000Y-137200000D02*
X95600000Y-137200000D01*
X95600000Y-135500000D02*
X96600000Y-135500000D01*
X90100000Y-152350000D02*
X90100000Y-153050000D01*
X91300000Y-153050000D02*
X91300000Y-152350000D01*
X95550000Y-148400000D02*
X96550000Y-148400000D01*
X96550000Y-150100000D02*
X95550000Y-150100000D01*
X55100000Y-152020000D02*
X54100000Y-152020000D01*
X54100000Y-153380000D02*
X55100000Y-153380000D01*
X64180000Y-140050000D02*
X64180000Y-139050000D01*
X62820000Y-139050000D02*
X62820000Y-140050000D01*
X58550000Y-146030000D02*
X59550000Y-146030000D01*
X59550000Y-144670000D02*
X58550000Y-144670000D01*
X62420000Y-131400000D02*
X62420000Y-132400000D01*
X63780000Y-132400000D02*
X63780000Y-131400000D01*
X95000000Y-128520000D02*
X94000000Y-128520000D01*
X94000000Y-129880000D02*
X95000000Y-129880000D01*
X94950000Y-141620000D02*
X93950000Y-141620000D01*
X93950000Y-142980000D02*
X94950000Y-142980000D01*
X95400000Y-139170000D02*
X94400000Y-139170000D01*
X94400000Y-140530000D02*
X95400000Y-140530000D01*
X95150000Y-152020000D02*
X94150000Y-152020000D01*
X94150000Y-153380000D02*
X95150000Y-153380000D01*
X56700000Y-146550000D02*
X56700000Y-145850000D01*
X55500000Y-145850000D02*
X55500000Y-146550000D01*
X57200000Y-147700000D02*
X56500000Y-147700000D01*
X56500000Y-148900000D02*
X57200000Y-148900000D01*
X48000000Y-181300000D02*
X49000000Y-181300000D01*
X49000000Y-183000000D02*
X48000000Y-183000000D01*
X58400000Y-169000000D02*
X58400000Y-168000000D01*
X60100000Y-168000000D02*
X60100000Y-169000000D01*
X48950000Y-179900000D02*
X48250000Y-179900000D01*
X48250000Y-181100000D02*
X48950000Y-181100000D01*
X57000000Y-167900000D02*
X57000000Y-168600000D01*
X58200000Y-168600000D02*
X58200000Y-167900000D01*
X60150000Y-164400000D02*
X60150000Y-165100000D01*
X61350000Y-165100000D02*
X61350000Y-164400000D01*
X60500000Y-177050000D02*
X59800000Y-177050000D01*
X59800000Y-178250000D02*
X60500000Y-178250000D01*
X56550000Y-161000000D02*
X56550000Y-161700000D01*
X57750000Y-161700000D02*
X57750000Y-161000000D01*
X57950000Y-161600000D02*
X57950000Y-160600000D01*
X59650000Y-160600000D02*
X59650000Y-161600000D01*
X59900000Y-175100000D02*
X60900000Y-175100000D01*
X60900000Y-176800000D02*
X59900000Y-176800000D01*
X90950000Y-162250000D02*
X91950000Y-162250000D01*
X91950000Y-163950000D02*
X90950000Y-163950000D01*
X85850000Y-159750000D02*
X85150000Y-159750000D01*
X85150000Y-160950000D02*
X85850000Y-160950000D01*
X92450000Y-177050000D02*
X91450000Y-177050000D01*
X91450000Y-175350000D02*
X92450000Y-175350000D01*
X85500000Y-174200000D02*
X86200000Y-174200000D01*
X86200000Y-173000000D02*
X85500000Y-173000000D01*
X86850000Y-165250000D02*
X86850000Y-164550000D01*
X85650000Y-164550000D02*
X85650000Y-165250000D01*
X86000000Y-177750000D02*
X86000000Y-178450000D01*
X87200000Y-178450000D02*
X87200000Y-177750000D01*
X86900000Y-170450000D02*
X86900000Y-169750000D01*
X85700000Y-169750000D02*
X85700000Y-170450000D01*
X92000000Y-167500000D02*
X91000000Y-167500000D01*
X91000000Y-165800000D02*
X92000000Y-165800000D01*
X85950000Y-183000000D02*
X85950000Y-183700000D01*
X87150000Y-183700000D02*
X87150000Y-183000000D01*
X91550000Y-179050000D02*
X92550000Y-179050000D01*
X92550000Y-180750000D02*
X91550000Y-180750000D01*
X52750000Y-181470000D02*
X51750000Y-181470000D01*
X51750000Y-182830000D02*
X52750000Y-182830000D01*
X61630000Y-169050000D02*
X61630000Y-168050000D01*
X60270000Y-168050000D02*
X60270000Y-169050000D01*
X56050000Y-175630000D02*
X57050000Y-175630000D01*
X57050000Y-174270000D02*
X56050000Y-174270000D01*
X59870000Y-160500000D02*
X59870000Y-161500000D01*
X61230000Y-161500000D02*
X61230000Y-160500000D01*
X90500000Y-158970000D02*
X89500000Y-158970000D01*
X89500000Y-160330000D02*
X90500000Y-160330000D01*
X91000000Y-172070000D02*
X90000000Y-172070000D01*
X90000000Y-173430000D02*
X91000000Y-173430000D01*
X90550000Y-169320000D02*
X89550000Y-169320000D01*
X89550000Y-170680000D02*
X90550000Y-170680000D01*
X90950000Y-182520000D02*
X89950000Y-182520000D01*
X89950000Y-183880000D02*
X90950000Y-183880000D01*
X53050000Y-175700000D02*
X53050000Y-176400000D01*
X54250000Y-176400000D02*
X54250000Y-175700000D01*
X54750000Y-177850000D02*
X54050000Y-177850000D01*
X54050000Y-179050000D02*
X54750000Y-179050000D01*
X56500000Y-150350000D02*
X57200000Y-150350000D01*
X57200000Y-149150000D02*
X56500000Y-149150000D01*
X72250000Y-139850000D02*
X72250000Y-138850000D01*
X73950000Y-138850000D02*
X73950000Y-139850000D01*
X70850000Y-138800000D02*
X70850000Y-139500000D01*
X72050000Y-139500000D02*
X72050000Y-138800000D01*
X74250000Y-135250000D02*
X74250000Y-135950000D01*
X75450000Y-135950000D02*
X75450000Y-135250000D01*
X69900000Y-131700000D02*
X69900000Y-132400000D01*
X71100000Y-132400000D02*
X71100000Y-131700000D01*
X71300000Y-132250000D02*
X71300000Y-131250000D01*
X73000000Y-131250000D02*
X73000000Y-132250000D01*
X54750000Y-179300000D02*
X54050000Y-179300000D01*
X54050000Y-180500000D02*
X54750000Y-180500000D01*
X68950000Y-169650000D02*
X68950000Y-168650000D01*
X70650000Y-168650000D02*
X70650000Y-169650000D01*
X68700000Y-169200000D02*
X68700000Y-168500000D01*
X67500000Y-168500000D02*
X67500000Y-169200000D01*
X71150000Y-165600000D02*
X71150000Y-164900000D01*
X69950000Y-164900000D02*
X69950000Y-165600000D01*
X67750000Y-162150000D02*
X67750000Y-161450000D01*
X66550000Y-161450000D02*
X66550000Y-162150000D01*
X67950000Y-161950000D02*
X67950000Y-160950000D01*
X69650000Y-160950000D02*
X69650000Y-161950000D01*
X44000000Y-118200000D02*
X43300000Y-118200000D01*
X43300000Y-119400000D02*
X44000000Y-119400000D01*
X58650000Y-108950000D02*
X58650000Y-107950000D01*
X60350000Y-107950000D02*
X60350000Y-108950000D01*
X58350000Y-108550000D02*
X58350000Y-107850000D01*
X57150000Y-107850000D02*
X57150000Y-108550000D01*
X61550000Y-105050000D02*
X61550000Y-104350000D01*
X60350000Y-104350000D02*
X60350000Y-105050000D01*
X57400000Y-101400000D02*
X57400000Y-100700000D01*
X56200000Y-100700000D02*
X56200000Y-101400000D01*
X57700000Y-101300000D02*
X57700000Y-100300000D01*
X59400000Y-100300000D02*
X59400000Y-101300000D01*
X75530000Y-139950000D02*
X75530000Y-138950000D01*
X74170000Y-138950000D02*
X74170000Y-139950000D01*
X73270000Y-131150000D02*
X73270000Y-132150000D01*
X74630000Y-132150000D02*
X74630000Y-131150000D01*
X72280000Y-169750000D02*
X72280000Y-168750000D01*
X70920000Y-168750000D02*
X70920000Y-169750000D01*
X69870000Y-160750000D02*
X69870000Y-161750000D01*
X71230000Y-161750000D02*
X71230000Y-160750000D01*
X61930000Y-109050000D02*
X61930000Y-108050000D01*
X60570000Y-108050000D02*
X60570000Y-109050000D01*
X59570000Y-100250000D02*
X59570000Y-101250000D01*
X60930000Y-101250000D02*
X60930000Y-100250000D01*
D10*
X85650000Y-118800000D02*
X85683333Y-118833333D01*
X85783333Y-118866666D01*
X85850000Y-118866666D01*
X85950000Y-118833333D01*
X86016666Y-118766666D01*
X86050000Y-118700000D01*
X86083333Y-118566666D01*
X86083333Y-118466666D01*
X86050000Y-118333333D01*
X86016666Y-118266666D01*
X85950000Y-118200000D01*
X85850000Y-118166666D01*
X85783333Y-118166666D01*
X85683333Y-118200000D01*
X85650000Y-118233333D01*
X85416666Y-118166666D02*
X84983333Y-118166666D01*
X85216666Y-118433333D01*
X85116666Y-118433333D01*
X85050000Y-118466666D01*
X85016666Y-118500000D01*
X84983333Y-118566666D01*
X84983333Y-118733333D01*
X85016666Y-118800000D01*
X85050000Y-118833333D01*
X85116666Y-118866666D01*
X85316666Y-118866666D01*
X85383333Y-118833333D01*
X85416666Y-118800000D01*
X84350000Y-118166666D02*
X84683333Y-118166666D01*
X84716666Y-118500000D01*
X84683333Y-118466666D01*
X84616666Y-118433333D01*
X84450000Y-118433333D01*
X84383333Y-118466666D01*
X84350000Y-118500000D01*
X84316666Y-118566666D01*
X84316666Y-118733333D01*
X84350000Y-118800000D01*
X84383333Y-118833333D01*
X84450000Y-118866666D01*
X84616666Y-118866666D01*
X84683333Y-118833333D01*
X84716666Y-118800000D01*
X118058333Y-154791666D02*
X118058333Y-155358333D01*
X118025000Y-155425000D01*
X117991666Y-155458333D01*
X117925000Y-155491666D01*
X117791666Y-155491666D01*
X117725000Y-155458333D01*
X117691666Y-155425000D01*
X117658333Y-155358333D01*
X117658333Y-154791666D01*
X117025000Y-155025000D02*
X117025000Y-155491666D01*
X117191666Y-154758333D02*
X117358333Y-155258333D01*
X116925000Y-155258333D01*
X32783333Y-151450000D02*
X32816666Y-151483333D01*
X32916666Y-151516666D01*
X32983333Y-151516666D01*
X33083333Y-151483333D01*
X33150000Y-151416666D01*
X33183333Y-151350000D01*
X33216666Y-151216666D01*
X33216666Y-151116666D01*
X33183333Y-150983333D01*
X33150000Y-150916666D01*
X33083333Y-150850000D01*
X32983333Y-150816666D01*
X32916666Y-150816666D01*
X32816666Y-150850000D01*
X32783333Y-150883333D01*
X32116666Y-151516666D02*
X32516666Y-151516666D01*
X32316666Y-151516666D02*
X32316666Y-150816666D01*
X32383333Y-150916666D01*
X32450000Y-150983333D01*
X32516666Y-151016666D01*
X31883333Y-150816666D02*
X31450000Y-150816666D01*
X31683333Y-151083333D01*
X31583333Y-151083333D01*
X31516666Y-151116666D01*
X31483333Y-151150000D01*
X31450000Y-151216666D01*
X31450000Y-151383333D01*
X31483333Y-151450000D01*
X31516666Y-151483333D01*
X31583333Y-151516666D01*
X31783333Y-151516666D01*
X31850000Y-151483333D01*
X31883333Y-151450000D01*
X31116666Y-151516666D02*
X30983333Y-151516666D01*
X30916666Y-151483333D01*
X30883333Y-151450000D01*
X30816666Y-151350000D01*
X30783333Y-151216666D01*
X30783333Y-150950000D01*
X30816666Y-150883333D01*
X30850000Y-150850000D01*
X30916666Y-150816666D01*
X31050000Y-150816666D01*
X31116666Y-150850000D01*
X31150000Y-150883333D01*
X31183333Y-150950000D01*
X31183333Y-151116666D01*
X31150000Y-151183333D01*
X31116666Y-151216666D01*
X31050000Y-151250000D01*
X30916666Y-151250000D01*
X30850000Y-151216666D01*
X30816666Y-151183333D01*
X30783333Y-151116666D01*
X32858333Y-142525000D02*
X32891666Y-142558333D01*
X32991666Y-142591666D01*
X33058333Y-142591666D01*
X33158333Y-142558333D01*
X33225000Y-142491666D01*
X33258333Y-142425000D01*
X33291666Y-142291666D01*
X33291666Y-142191666D01*
X33258333Y-142058333D01*
X33225000Y-141991666D01*
X33158333Y-141925000D01*
X33058333Y-141891666D01*
X32991666Y-141891666D01*
X32891666Y-141925000D01*
X32858333Y-141958333D01*
X32191666Y-142591666D02*
X32591666Y-142591666D01*
X32391666Y-142591666D02*
X32391666Y-141891666D01*
X32458333Y-141991666D01*
X32525000Y-142058333D01*
X32591666Y-142091666D01*
X31591666Y-142125000D02*
X31591666Y-142591666D01*
X31758333Y-141858333D02*
X31925000Y-142358333D01*
X31491666Y-142358333D01*
X31091666Y-141891666D02*
X31025000Y-141891666D01*
X30958333Y-141925000D01*
X30925000Y-141958333D01*
X30891666Y-142025000D01*
X30858333Y-142158333D01*
X30858333Y-142325000D01*
X30891666Y-142458333D01*
X30925000Y-142525000D01*
X30958333Y-142558333D01*
X31025000Y-142591666D01*
X31091666Y-142591666D01*
X31158333Y-142558333D01*
X31191666Y-142525000D01*
X31225000Y-142458333D01*
X31258333Y-142325000D01*
X31258333Y-142158333D01*
X31225000Y-142025000D01*
X31191666Y-141958333D01*
X31158333Y-141925000D01*
X31091666Y-141891666D01*
X32733333Y-145950000D02*
X32766666Y-145983333D01*
X32866666Y-146016666D01*
X32933333Y-146016666D01*
X33033333Y-145983333D01*
X33100000Y-145916666D01*
X33133333Y-145850000D01*
X33166666Y-145716666D01*
X33166666Y-145616666D01*
X33133333Y-145483333D01*
X33100000Y-145416666D01*
X33033333Y-145350000D01*
X32933333Y-145316666D01*
X32866666Y-145316666D01*
X32766666Y-145350000D01*
X32733333Y-145383333D01*
X32066666Y-146016666D02*
X32466666Y-146016666D01*
X32266666Y-146016666D02*
X32266666Y-145316666D01*
X32333333Y-145416666D01*
X32400000Y-145483333D01*
X32466666Y-145516666D01*
X31466666Y-145550000D02*
X31466666Y-146016666D01*
X31633333Y-145283333D02*
X31800000Y-145783333D01*
X31366666Y-145783333D01*
X30733333Y-146016666D02*
X31133333Y-146016666D01*
X30933333Y-146016666D02*
X30933333Y-145316666D01*
X31000000Y-145416666D01*
X31066666Y-145483333D01*
X31133333Y-145516666D01*
X32683333Y-134550000D02*
X32716666Y-134583333D01*
X32816666Y-134616666D01*
X32883333Y-134616666D01*
X32983333Y-134583333D01*
X33050000Y-134516666D01*
X33083333Y-134450000D01*
X33116666Y-134316666D01*
X33116666Y-134216666D01*
X33083333Y-134083333D01*
X33050000Y-134016666D01*
X32983333Y-133950000D01*
X32883333Y-133916666D01*
X32816666Y-133916666D01*
X32716666Y-133950000D01*
X32683333Y-133983333D01*
X32016666Y-134616666D02*
X32416666Y-134616666D01*
X32216666Y-134616666D02*
X32216666Y-133916666D01*
X32283333Y-134016666D01*
X32350000Y-134083333D01*
X32416666Y-134116666D01*
X31416666Y-134150000D02*
X31416666Y-134616666D01*
X31583333Y-133883333D02*
X31750000Y-134383333D01*
X31316666Y-134383333D01*
X31083333Y-133983333D02*
X31050000Y-133950000D01*
X30983333Y-133916666D01*
X30816666Y-133916666D01*
X30750000Y-133950000D01*
X30716666Y-133983333D01*
X30683333Y-134050000D01*
X30683333Y-134116666D01*
X30716666Y-134216666D01*
X31116666Y-134616666D01*
X30683333Y-134616666D01*
X35266666Y-121200000D02*
X35300000Y-121233333D01*
X35400000Y-121266666D01*
X35466666Y-121266666D01*
X35566666Y-121233333D01*
X35633333Y-121166666D01*
X35666666Y-121100000D01*
X35700000Y-120966666D01*
X35700000Y-120866666D01*
X35666666Y-120733333D01*
X35633333Y-120666666D01*
X35566666Y-120600000D01*
X35466666Y-120566666D01*
X35400000Y-120566666D01*
X35300000Y-120600000D01*
X35266666Y-120633333D01*
X34666666Y-120800000D02*
X34666666Y-121266666D01*
X34833333Y-120533333D02*
X35000000Y-121033333D01*
X34566666Y-121033333D01*
X48900000Y-110833333D02*
X48933333Y-110800000D01*
X48966666Y-110700000D01*
X48966666Y-110633333D01*
X48933333Y-110533333D01*
X48866666Y-110466666D01*
X48800000Y-110433333D01*
X48666666Y-110400000D01*
X48566666Y-110400000D01*
X48433333Y-110433333D01*
X48366666Y-110466666D01*
X48300000Y-110533333D01*
X48266666Y-110633333D01*
X48266666Y-110700000D01*
X48300000Y-110800000D01*
X48333333Y-110833333D01*
X48266666Y-111066666D02*
X48266666Y-111533333D01*
X48966666Y-111233333D01*
X35916666Y-119450000D02*
X35950000Y-119483333D01*
X36050000Y-119516666D01*
X36116666Y-119516666D01*
X36216666Y-119483333D01*
X36283333Y-119416666D01*
X36316666Y-119350000D01*
X36350000Y-119216666D01*
X36350000Y-119116666D01*
X36316666Y-118983333D01*
X36283333Y-118916666D01*
X36216666Y-118850000D01*
X36116666Y-118816666D01*
X36050000Y-118816666D01*
X35950000Y-118850000D01*
X35916666Y-118883333D01*
X35516666Y-119116666D02*
X35583333Y-119083333D01*
X35616666Y-119050000D01*
X35650000Y-118983333D01*
X35650000Y-118950000D01*
X35616666Y-118883333D01*
X35583333Y-118850000D01*
X35516666Y-118816666D01*
X35383333Y-118816666D01*
X35316666Y-118850000D01*
X35283333Y-118883333D01*
X35250000Y-118950000D01*
X35250000Y-118983333D01*
X35283333Y-119050000D01*
X35316666Y-119083333D01*
X35383333Y-119116666D01*
X35516666Y-119116666D01*
X35583333Y-119150000D01*
X35616666Y-119183333D01*
X35650000Y-119250000D01*
X35650000Y-119383333D01*
X35616666Y-119450000D01*
X35583333Y-119483333D01*
X35516666Y-119516666D01*
X35383333Y-119516666D01*
X35316666Y-119483333D01*
X35283333Y-119450000D01*
X35250000Y-119383333D01*
X35250000Y-119250000D01*
X35283333Y-119183333D01*
X35316666Y-119150000D01*
X35383333Y-119116666D01*
X47000000Y-110033333D02*
X47033333Y-110000000D01*
X47066666Y-109900000D01*
X47066666Y-109833333D01*
X47033333Y-109733333D01*
X46966666Y-109666666D01*
X46900000Y-109633333D01*
X46766666Y-109600000D01*
X46666666Y-109600000D01*
X46533333Y-109633333D01*
X46466666Y-109666666D01*
X46400000Y-109733333D01*
X46366666Y-109833333D01*
X46366666Y-109900000D01*
X46400000Y-110000000D01*
X46433333Y-110033333D01*
X47066666Y-110366666D02*
X47066666Y-110500000D01*
X47033333Y-110566666D01*
X47000000Y-110600000D01*
X46900000Y-110666666D01*
X46766666Y-110700000D01*
X46500000Y-110700000D01*
X46433333Y-110666666D01*
X46400000Y-110633333D01*
X46366666Y-110566666D01*
X46366666Y-110433333D01*
X46400000Y-110366666D01*
X46433333Y-110333333D01*
X46500000Y-110300000D01*
X46666666Y-110300000D01*
X46733333Y-110333333D01*
X46766666Y-110366666D01*
X46800000Y-110433333D01*
X46800000Y-110566666D01*
X46766666Y-110633333D01*
X46733333Y-110666666D01*
X46666666Y-110700000D01*
X51200000Y-104100000D02*
X51233333Y-104066666D01*
X51266666Y-103966666D01*
X51266666Y-103900000D01*
X51233333Y-103800000D01*
X51166666Y-103733333D01*
X51100000Y-103700000D01*
X50966666Y-103666666D01*
X50866666Y-103666666D01*
X50733333Y-103700000D01*
X50666666Y-103733333D01*
X50600000Y-103800000D01*
X50566666Y-103900000D01*
X50566666Y-103966666D01*
X50600000Y-104066666D01*
X50633333Y-104100000D01*
X51266666Y-104766666D02*
X51266666Y-104366666D01*
X51266666Y-104566666D02*
X50566666Y-104566666D01*
X50666666Y-104500000D01*
X50733333Y-104433333D01*
X50766666Y-104366666D01*
X50566666Y-105000000D02*
X50566666Y-105433333D01*
X50833333Y-105200000D01*
X50833333Y-105300000D01*
X50866666Y-105366666D01*
X50900000Y-105400000D01*
X50966666Y-105433333D01*
X51133333Y-105433333D01*
X51200000Y-105400000D01*
X51233333Y-105366666D01*
X51266666Y-105300000D01*
X51266666Y-105100000D01*
X51233333Y-105033333D01*
X51200000Y-105000000D01*
X52500000Y-116700000D02*
X52533333Y-116733333D01*
X52633333Y-116766666D01*
X52700000Y-116766666D01*
X52800000Y-116733333D01*
X52866666Y-116666666D01*
X52900000Y-116600000D01*
X52933333Y-116466666D01*
X52933333Y-116366666D01*
X52900000Y-116233333D01*
X52866666Y-116166666D01*
X52800000Y-116100000D01*
X52700000Y-116066666D01*
X52633333Y-116066666D01*
X52533333Y-116100000D01*
X52500000Y-116133333D01*
X51833333Y-116766666D02*
X52233333Y-116766666D01*
X52033333Y-116766666D02*
X52033333Y-116066666D01*
X52100000Y-116166666D01*
X52166666Y-116233333D01*
X52233333Y-116266666D01*
X51233333Y-116066666D02*
X51366666Y-116066666D01*
X51433333Y-116100000D01*
X51466666Y-116133333D01*
X51533333Y-116233333D01*
X51566666Y-116366666D01*
X51566666Y-116633333D01*
X51533333Y-116700000D01*
X51500000Y-116733333D01*
X51433333Y-116766666D01*
X51300000Y-116766666D01*
X51233333Y-116733333D01*
X51200000Y-116700000D01*
X51166666Y-116633333D01*
X51166666Y-116466666D01*
X51200000Y-116400000D01*
X51233333Y-116366666D01*
X51300000Y-116333333D01*
X51433333Y-116333333D01*
X51500000Y-116366666D01*
X51533333Y-116400000D01*
X51566666Y-116466666D01*
X46600000Y-98200000D02*
X46633333Y-98166666D01*
X46666666Y-98066666D01*
X46666666Y-98000000D01*
X46633333Y-97900000D01*
X46566666Y-97833333D01*
X46500000Y-97800000D01*
X46366666Y-97766666D01*
X46266666Y-97766666D01*
X46133333Y-97800000D01*
X46066666Y-97833333D01*
X46000000Y-97900000D01*
X45966666Y-98000000D01*
X45966666Y-98066666D01*
X46000000Y-98166666D01*
X46033333Y-98200000D01*
X46666666Y-98866666D02*
X46666666Y-98466666D01*
X46666666Y-98666666D02*
X45966666Y-98666666D01*
X46066666Y-98600000D01*
X46133333Y-98533333D01*
X46166666Y-98466666D01*
X45966666Y-99100000D02*
X45966666Y-99566666D01*
X46666666Y-99266666D01*
X48350000Y-97400000D02*
X48383333Y-97366666D01*
X48416666Y-97266666D01*
X48416666Y-97200000D01*
X48383333Y-97100000D01*
X48316666Y-97033333D01*
X48250000Y-97000000D01*
X48116666Y-96966666D01*
X48016666Y-96966666D01*
X47883333Y-97000000D01*
X47816666Y-97033333D01*
X47750000Y-97100000D01*
X47716666Y-97200000D01*
X47716666Y-97266666D01*
X47750000Y-97366666D01*
X47783333Y-97400000D01*
X48416666Y-98066666D02*
X48416666Y-97666666D01*
X48416666Y-97866666D02*
X47716666Y-97866666D01*
X47816666Y-97800000D01*
X47883333Y-97733333D01*
X47916666Y-97666666D01*
X48016666Y-98466666D02*
X47983333Y-98400000D01*
X47950000Y-98366666D01*
X47883333Y-98333333D01*
X47850000Y-98333333D01*
X47783333Y-98366666D01*
X47750000Y-98400000D01*
X47716666Y-98466666D01*
X47716666Y-98600000D01*
X47750000Y-98666666D01*
X47783333Y-98700000D01*
X47850000Y-98733333D01*
X47883333Y-98733333D01*
X47950000Y-98700000D01*
X47983333Y-98666666D01*
X48016666Y-98600000D01*
X48016666Y-98466666D01*
X48050000Y-98400000D01*
X48083333Y-98366666D01*
X48150000Y-98333333D01*
X48283333Y-98333333D01*
X48350000Y-98366666D01*
X48383333Y-98400000D01*
X48416666Y-98466666D01*
X48416666Y-98600000D01*
X48383333Y-98666666D01*
X48350000Y-98700000D01*
X48283333Y-98733333D01*
X48150000Y-98733333D01*
X48083333Y-98700000D01*
X48050000Y-98666666D01*
X48016666Y-98600000D01*
X52900000Y-114900000D02*
X52933333Y-114933333D01*
X53033333Y-114966666D01*
X53100000Y-114966666D01*
X53200000Y-114933333D01*
X53266666Y-114866666D01*
X53300000Y-114800000D01*
X53333333Y-114666666D01*
X53333333Y-114566666D01*
X53300000Y-114433333D01*
X53266666Y-114366666D01*
X53200000Y-114300000D01*
X53100000Y-114266666D01*
X53033333Y-114266666D01*
X52933333Y-114300000D01*
X52900000Y-114333333D01*
X52233333Y-114966666D02*
X52633333Y-114966666D01*
X52433333Y-114966666D02*
X52433333Y-114266666D01*
X52500000Y-114366666D01*
X52566666Y-114433333D01*
X52633333Y-114466666D01*
X51900000Y-114966666D02*
X51766666Y-114966666D01*
X51700000Y-114933333D01*
X51666666Y-114900000D01*
X51600000Y-114800000D01*
X51566666Y-114666666D01*
X51566666Y-114400000D01*
X51600000Y-114333333D01*
X51633333Y-114300000D01*
X51700000Y-114266666D01*
X51833333Y-114266666D01*
X51900000Y-114300000D01*
X51933333Y-114333333D01*
X51966666Y-114400000D01*
X51966666Y-114566666D01*
X51933333Y-114633333D01*
X51900000Y-114666666D01*
X51833333Y-114700000D01*
X51700000Y-114700000D01*
X51633333Y-114666666D01*
X51600000Y-114633333D01*
X51566666Y-114566666D01*
X44416666Y-121416666D02*
X44750000Y-121416666D01*
X44750000Y-120716666D01*
X44250000Y-120716666D02*
X43816666Y-120716666D01*
X44050000Y-120983333D01*
X43950000Y-120983333D01*
X43883333Y-121016666D01*
X43850000Y-121050000D01*
X43816666Y-121116666D01*
X43816666Y-121283333D01*
X43850000Y-121350000D01*
X43883333Y-121383333D01*
X43950000Y-121416666D01*
X44150000Y-121416666D01*
X44216666Y-121383333D01*
X44250000Y-121350000D01*
X50666666Y-110933333D02*
X50666666Y-110600000D01*
X49966666Y-110600000D01*
X50200000Y-111466666D02*
X50666666Y-111466666D01*
X49933333Y-111300000D02*
X50433333Y-111133333D01*
X50433333Y-111566666D01*
X46116666Y-112716666D02*
X46450000Y-112716666D01*
X46450000Y-112016666D01*
X45550000Y-112016666D02*
X45883333Y-112016666D01*
X45916666Y-112350000D01*
X45883333Y-112316666D01*
X45816666Y-112283333D01*
X45650000Y-112283333D01*
X45583333Y-112316666D01*
X45550000Y-112350000D01*
X45516666Y-112416666D01*
X45516666Y-112583333D01*
X45550000Y-112650000D01*
X45583333Y-112683333D01*
X45650000Y-112716666D01*
X45816666Y-112716666D01*
X45883333Y-112683333D01*
X45916666Y-112650000D01*
X50266666Y-97883333D02*
X50266666Y-97550000D01*
X49566666Y-97550000D01*
X49566666Y-98416666D02*
X49566666Y-98283333D01*
X49600000Y-98216666D01*
X49633333Y-98183333D01*
X49733333Y-98116666D01*
X49866666Y-98083333D01*
X50133333Y-98083333D01*
X50200000Y-98116666D01*
X50233333Y-98150000D01*
X50266666Y-98216666D01*
X50266666Y-98350000D01*
X50233333Y-98416666D01*
X50200000Y-98450000D01*
X50133333Y-98483333D01*
X49966666Y-98483333D01*
X49900000Y-98450000D01*
X49866666Y-98416666D01*
X49833333Y-98350000D01*
X49833333Y-98216666D01*
X49866666Y-98150000D01*
X49900000Y-98116666D01*
X49966666Y-98083333D01*
X42966666Y-113716666D02*
X43200000Y-113383333D01*
X43366666Y-113716666D02*
X43366666Y-113016666D01*
X43100000Y-113016666D01*
X43033333Y-113050000D01*
X43000000Y-113083333D01*
X42966666Y-113150000D01*
X42966666Y-113250000D01*
X43000000Y-113316666D01*
X43033333Y-113350000D01*
X43100000Y-113383333D01*
X43366666Y-113383333D01*
X42333333Y-113016666D02*
X42666666Y-113016666D01*
X42700000Y-113350000D01*
X42666666Y-113316666D01*
X42600000Y-113283333D01*
X42433333Y-113283333D01*
X42366666Y-113316666D01*
X42333333Y-113350000D01*
X42300000Y-113416666D01*
X42300000Y-113583333D01*
X42333333Y-113650000D01*
X42366666Y-113683333D01*
X42433333Y-113716666D01*
X42600000Y-113716666D01*
X42666666Y-113683333D01*
X42700000Y-113650000D01*
X44466666Y-116516666D02*
X44700000Y-116183333D01*
X44866666Y-116516666D02*
X44866666Y-115816666D01*
X44600000Y-115816666D01*
X44533333Y-115850000D01*
X44500000Y-115883333D01*
X44466666Y-115950000D01*
X44466666Y-116050000D01*
X44500000Y-116116666D01*
X44533333Y-116150000D01*
X44600000Y-116183333D01*
X44866666Y-116183333D01*
X44133333Y-116516666D02*
X44000000Y-116516666D01*
X43933333Y-116483333D01*
X43900000Y-116450000D01*
X43833333Y-116350000D01*
X43800000Y-116216666D01*
X43800000Y-115950000D01*
X43833333Y-115883333D01*
X43866666Y-115850000D01*
X43933333Y-115816666D01*
X44066666Y-115816666D01*
X44133333Y-115850000D01*
X44166666Y-115883333D01*
X44200000Y-115950000D01*
X44200000Y-116116666D01*
X44166666Y-116183333D01*
X44133333Y-116216666D01*
X44066666Y-116250000D01*
X43933333Y-116250000D01*
X43866666Y-116216666D01*
X43833333Y-116183333D01*
X43800000Y-116116666D01*
X85600000Y-114750000D02*
X85633333Y-114783333D01*
X85733333Y-114816666D01*
X85800000Y-114816666D01*
X85900000Y-114783333D01*
X85966666Y-114716666D01*
X86000000Y-114650000D01*
X86033333Y-114516666D01*
X86033333Y-114416666D01*
X86000000Y-114283333D01*
X85966666Y-114216666D01*
X85900000Y-114150000D01*
X85800000Y-114116666D01*
X85733333Y-114116666D01*
X85633333Y-114150000D01*
X85600000Y-114183333D01*
X85333333Y-114183333D02*
X85300000Y-114150000D01*
X85233333Y-114116666D01*
X85066666Y-114116666D01*
X85000000Y-114150000D01*
X84966666Y-114183333D01*
X84933333Y-114250000D01*
X84933333Y-114316666D01*
X84966666Y-114416666D01*
X85366666Y-114816666D01*
X84933333Y-114816666D01*
X84666666Y-114183333D02*
X84633333Y-114150000D01*
X84566666Y-114116666D01*
X84400000Y-114116666D01*
X84333333Y-114150000D01*
X84300000Y-114183333D01*
X84266666Y-114250000D01*
X84266666Y-114316666D01*
X84300000Y-114416666D01*
X84700000Y-114816666D01*
X84266666Y-114816666D01*
X76100000Y-110900000D02*
X76133333Y-110866666D01*
X76166666Y-110766666D01*
X76166666Y-110700000D01*
X76133333Y-110600000D01*
X76066666Y-110533333D01*
X76000000Y-110500000D01*
X75866666Y-110466666D01*
X75766666Y-110466666D01*
X75633333Y-110500000D01*
X75566666Y-110533333D01*
X75500000Y-110600000D01*
X75466666Y-110700000D01*
X75466666Y-110766666D01*
X75500000Y-110866666D01*
X75533333Y-110900000D01*
X75533333Y-111166666D02*
X75500000Y-111200000D01*
X75466666Y-111266666D01*
X75466666Y-111433333D01*
X75500000Y-111500000D01*
X75533333Y-111533333D01*
X75600000Y-111566666D01*
X75666666Y-111566666D01*
X75766666Y-111533333D01*
X76166666Y-111133333D01*
X76166666Y-111566666D01*
X75466666Y-111800000D02*
X75466666Y-112233333D01*
X75733333Y-112000000D01*
X75733333Y-112100000D01*
X75766666Y-112166666D01*
X75800000Y-112200000D01*
X75866666Y-112233333D01*
X76033333Y-112233333D01*
X76100000Y-112200000D01*
X76133333Y-112166666D01*
X76166666Y-112100000D01*
X76166666Y-111900000D01*
X76133333Y-111833333D01*
X76100000Y-111800000D01*
X78750000Y-116100000D02*
X78783333Y-116066666D01*
X78816666Y-115966666D01*
X78816666Y-115900000D01*
X78783333Y-115800000D01*
X78716666Y-115733333D01*
X78650000Y-115700000D01*
X78516666Y-115666666D01*
X78416666Y-115666666D01*
X78283333Y-115700000D01*
X78216666Y-115733333D01*
X78150000Y-115800000D01*
X78116666Y-115900000D01*
X78116666Y-115966666D01*
X78150000Y-116066666D01*
X78183333Y-116100000D01*
X78183333Y-116366666D02*
X78150000Y-116400000D01*
X78116666Y-116466666D01*
X78116666Y-116633333D01*
X78150000Y-116700000D01*
X78183333Y-116733333D01*
X78250000Y-116766666D01*
X78316666Y-116766666D01*
X78416666Y-116733333D01*
X78816666Y-116333333D01*
X78816666Y-116766666D01*
X78416666Y-117166666D02*
X78383333Y-117100000D01*
X78350000Y-117066666D01*
X78283333Y-117033333D01*
X78250000Y-117033333D01*
X78183333Y-117066666D01*
X78150000Y-117100000D01*
X78116666Y-117166666D01*
X78116666Y-117300000D01*
X78150000Y-117366666D01*
X78183333Y-117400000D01*
X78250000Y-117433333D01*
X78283333Y-117433333D01*
X78350000Y-117400000D01*
X78383333Y-117366666D01*
X78416666Y-117300000D01*
X78416666Y-117166666D01*
X78450000Y-117100000D01*
X78483333Y-117066666D01*
X78550000Y-117033333D01*
X78683333Y-117033333D01*
X78750000Y-117066666D01*
X78783333Y-117100000D01*
X78816666Y-117166666D01*
X78816666Y-117300000D01*
X78783333Y-117366666D01*
X78750000Y-117400000D01*
X78683333Y-117433333D01*
X78550000Y-117433333D01*
X78483333Y-117400000D01*
X78450000Y-117366666D01*
X78416666Y-117300000D01*
X78200000Y-121400000D02*
X78233333Y-121366666D01*
X78266666Y-121266666D01*
X78266666Y-121200000D01*
X78233333Y-121100000D01*
X78166666Y-121033333D01*
X78100000Y-121000000D01*
X77966666Y-120966666D01*
X77866666Y-120966666D01*
X77733333Y-121000000D01*
X77666666Y-121033333D01*
X77600000Y-121100000D01*
X77566666Y-121200000D01*
X77566666Y-121266666D01*
X77600000Y-121366666D01*
X77633333Y-121400000D01*
X77566666Y-121633333D02*
X77566666Y-122066666D01*
X77833333Y-121833333D01*
X77833333Y-121933333D01*
X77866666Y-122000000D01*
X77900000Y-122033333D01*
X77966666Y-122066666D01*
X78133333Y-122066666D01*
X78200000Y-122033333D01*
X78233333Y-122000000D01*
X78266666Y-121933333D01*
X78266666Y-121733333D01*
X78233333Y-121666666D01*
X78200000Y-121633333D01*
X77633333Y-122333333D02*
X77600000Y-122366666D01*
X77566666Y-122433333D01*
X77566666Y-122600000D01*
X77600000Y-122666666D01*
X77633333Y-122700000D01*
X77700000Y-122733333D01*
X77766666Y-122733333D01*
X77866666Y-122700000D01*
X78266666Y-122300000D01*
X78266666Y-122733333D01*
X85600000Y-101600000D02*
X85633333Y-101633333D01*
X85733333Y-101666666D01*
X85800000Y-101666666D01*
X85900000Y-101633333D01*
X85966666Y-101566666D01*
X86000000Y-101500000D01*
X86033333Y-101366666D01*
X86033333Y-101266666D01*
X86000000Y-101133333D01*
X85966666Y-101066666D01*
X85900000Y-101000000D01*
X85800000Y-100966666D01*
X85733333Y-100966666D01*
X85633333Y-101000000D01*
X85600000Y-101033333D01*
X84966666Y-100966666D02*
X85300000Y-100966666D01*
X85333333Y-101300000D01*
X85300000Y-101266666D01*
X85233333Y-101233333D01*
X85066666Y-101233333D01*
X85000000Y-101266666D01*
X84966666Y-101300000D01*
X84933333Y-101366666D01*
X84933333Y-101533333D01*
X84966666Y-101600000D01*
X85000000Y-101633333D01*
X85066666Y-101666666D01*
X85233333Y-101666666D01*
X85300000Y-101633333D01*
X85333333Y-101600000D01*
X84666666Y-101033333D02*
X84633333Y-101000000D01*
X84566666Y-100966666D01*
X84400000Y-100966666D01*
X84333333Y-101000000D01*
X84300000Y-101033333D01*
X84266666Y-101100000D01*
X84266666Y-101166666D01*
X84300000Y-101266666D01*
X84700000Y-101666666D01*
X84266666Y-101666666D01*
X76700000Y-97850000D02*
X76733333Y-97883333D01*
X76833333Y-97916666D01*
X76900000Y-97916666D01*
X77000000Y-97883333D01*
X77066666Y-97816666D01*
X77100000Y-97750000D01*
X77133333Y-97616666D01*
X77133333Y-97516666D01*
X77100000Y-97383333D01*
X77066666Y-97316666D01*
X77000000Y-97250000D01*
X76900000Y-97216666D01*
X76833333Y-97216666D01*
X76733333Y-97250000D01*
X76700000Y-97283333D01*
X76066666Y-97216666D02*
X76400000Y-97216666D01*
X76433333Y-97550000D01*
X76400000Y-97516666D01*
X76333333Y-97483333D01*
X76166666Y-97483333D01*
X76100000Y-97516666D01*
X76066666Y-97550000D01*
X76033333Y-97616666D01*
X76033333Y-97783333D01*
X76066666Y-97850000D01*
X76100000Y-97883333D01*
X76166666Y-97916666D01*
X76333333Y-97916666D01*
X76400000Y-97883333D01*
X76433333Y-97850000D01*
X75800000Y-97216666D02*
X75366666Y-97216666D01*
X75600000Y-97483333D01*
X75500000Y-97483333D01*
X75433333Y-97516666D01*
X75400000Y-97550000D01*
X75366666Y-97616666D01*
X75366666Y-97783333D01*
X75400000Y-97850000D01*
X75433333Y-97883333D01*
X75500000Y-97916666D01*
X75700000Y-97916666D01*
X75766666Y-97883333D01*
X75800000Y-97850000D01*
X76200000Y-102650000D02*
X76233333Y-102616666D01*
X76266666Y-102516666D01*
X76266666Y-102450000D01*
X76233333Y-102350000D01*
X76166666Y-102283333D01*
X76100000Y-102250000D01*
X75966666Y-102216666D01*
X75866666Y-102216666D01*
X75733333Y-102250000D01*
X75666666Y-102283333D01*
X75600000Y-102350000D01*
X75566666Y-102450000D01*
X75566666Y-102516666D01*
X75600000Y-102616666D01*
X75633333Y-102650000D01*
X75566666Y-103283333D02*
X75566666Y-102950000D01*
X75900000Y-102916666D01*
X75866666Y-102950000D01*
X75833333Y-103016666D01*
X75833333Y-103183333D01*
X75866666Y-103250000D01*
X75900000Y-103283333D01*
X75966666Y-103316666D01*
X76133333Y-103316666D01*
X76200000Y-103283333D01*
X76233333Y-103250000D01*
X76266666Y-103183333D01*
X76266666Y-103016666D01*
X76233333Y-102950000D01*
X76200000Y-102916666D01*
X75566666Y-103950000D02*
X75566666Y-103616666D01*
X75900000Y-103583333D01*
X75866666Y-103616666D01*
X75833333Y-103683333D01*
X75833333Y-103850000D01*
X75866666Y-103916666D01*
X75900000Y-103950000D01*
X75966666Y-103983333D01*
X76133333Y-103983333D01*
X76200000Y-103950000D01*
X76233333Y-103916666D01*
X76266666Y-103850000D01*
X76266666Y-103683333D01*
X76233333Y-103616666D01*
X76200000Y-103583333D01*
X78750000Y-108000000D02*
X78783333Y-107966666D01*
X78816666Y-107866666D01*
X78816666Y-107800000D01*
X78783333Y-107700000D01*
X78716666Y-107633333D01*
X78650000Y-107600000D01*
X78516666Y-107566666D01*
X78416666Y-107566666D01*
X78283333Y-107600000D01*
X78216666Y-107633333D01*
X78150000Y-107700000D01*
X78116666Y-107800000D01*
X78116666Y-107866666D01*
X78150000Y-107966666D01*
X78183333Y-108000000D01*
X78116666Y-108633333D02*
X78116666Y-108300000D01*
X78450000Y-108266666D01*
X78416666Y-108300000D01*
X78383333Y-108366666D01*
X78383333Y-108533333D01*
X78416666Y-108600000D01*
X78450000Y-108633333D01*
X78516666Y-108666666D01*
X78683333Y-108666666D01*
X78750000Y-108633333D01*
X78783333Y-108600000D01*
X78816666Y-108533333D01*
X78816666Y-108366666D01*
X78783333Y-108300000D01*
X78750000Y-108266666D01*
X78116666Y-108900000D02*
X78116666Y-109366666D01*
X78816666Y-109066666D01*
X85700000Y-105450000D02*
X85733333Y-105483333D01*
X85833333Y-105516666D01*
X85900000Y-105516666D01*
X86000000Y-105483333D01*
X86066666Y-105416666D01*
X86100000Y-105350000D01*
X86133333Y-105216666D01*
X86133333Y-105116666D01*
X86100000Y-104983333D01*
X86066666Y-104916666D01*
X86000000Y-104850000D01*
X85900000Y-104816666D01*
X85833333Y-104816666D01*
X85733333Y-104850000D01*
X85700000Y-104883333D01*
X85066666Y-104816666D02*
X85400000Y-104816666D01*
X85433333Y-105150000D01*
X85400000Y-105116666D01*
X85333333Y-105083333D01*
X85166666Y-105083333D01*
X85100000Y-105116666D01*
X85066666Y-105150000D01*
X85033333Y-105216666D01*
X85033333Y-105383333D01*
X85066666Y-105450000D01*
X85100000Y-105483333D01*
X85166666Y-105516666D01*
X85333333Y-105516666D01*
X85400000Y-105483333D01*
X85433333Y-105450000D01*
X84700000Y-105516666D02*
X84566666Y-105516666D01*
X84500000Y-105483333D01*
X84466666Y-105450000D01*
X84400000Y-105350000D01*
X84366666Y-105216666D01*
X84366666Y-104950000D01*
X84400000Y-104883333D01*
X84433333Y-104850000D01*
X84500000Y-104816666D01*
X84633333Y-104816666D01*
X84700000Y-104850000D01*
X84733333Y-104883333D01*
X84766666Y-104950000D01*
X84766666Y-105116666D01*
X84733333Y-105183333D01*
X84700000Y-105216666D01*
X84633333Y-105250000D01*
X84500000Y-105250000D01*
X84433333Y-105216666D01*
X84400000Y-105183333D01*
X84366666Y-105116666D01*
X83616666Y-111366666D02*
X83950000Y-111366666D01*
X83950000Y-110666666D01*
X83416666Y-110733333D02*
X83383333Y-110700000D01*
X83316666Y-110666666D01*
X83150000Y-110666666D01*
X83083333Y-110700000D01*
X83050000Y-110733333D01*
X83016666Y-110800000D01*
X83016666Y-110866666D01*
X83050000Y-110966666D01*
X83450000Y-111366666D01*
X83016666Y-111366666D01*
X84250000Y-122116666D02*
X84583333Y-122116666D01*
X84583333Y-121416666D01*
X83650000Y-122116666D02*
X84050000Y-122116666D01*
X83850000Y-122116666D02*
X83850000Y-121416666D01*
X83916666Y-121516666D01*
X83983333Y-121583333D01*
X84050000Y-121616666D01*
X83216666Y-121416666D02*
X83150000Y-121416666D01*
X83083333Y-121450000D01*
X83050000Y-121483333D01*
X83016666Y-121550000D01*
X82983333Y-121683333D01*
X82983333Y-121850000D01*
X83016666Y-121983333D01*
X83050000Y-122050000D01*
X83083333Y-122083333D01*
X83150000Y-122116666D01*
X83216666Y-122116666D01*
X83283333Y-122083333D01*
X83316666Y-122050000D01*
X83350000Y-121983333D01*
X83383333Y-121850000D01*
X83383333Y-121683333D01*
X83350000Y-121550000D01*
X83316666Y-121483333D01*
X83283333Y-121450000D01*
X83216666Y-121416666D01*
X84250000Y-98216666D02*
X84583333Y-98216666D01*
X84583333Y-97516666D01*
X83650000Y-98216666D02*
X84050000Y-98216666D01*
X83850000Y-98216666D02*
X83850000Y-97516666D01*
X83916666Y-97616666D01*
X83983333Y-97683333D01*
X84050000Y-97716666D01*
X83416666Y-97516666D02*
X82983333Y-97516666D01*
X83216666Y-97783333D01*
X83116666Y-97783333D01*
X83050000Y-97816666D01*
X83016666Y-97850000D01*
X82983333Y-97916666D01*
X82983333Y-98083333D01*
X83016666Y-98150000D01*
X83050000Y-98183333D01*
X83116666Y-98216666D01*
X83316666Y-98216666D01*
X83383333Y-98183333D01*
X83416666Y-98150000D01*
X84100000Y-108866666D02*
X84433333Y-108866666D01*
X84433333Y-108166666D01*
X83500000Y-108866666D02*
X83900000Y-108866666D01*
X83700000Y-108866666D02*
X83700000Y-108166666D01*
X83766666Y-108266666D01*
X83833333Y-108333333D01*
X83900000Y-108366666D01*
X82900000Y-108400000D02*
X82900000Y-108866666D01*
X83066666Y-108133333D02*
X83233333Y-108633333D01*
X82800000Y-108633333D01*
X48550000Y-152850000D02*
X48583333Y-152883333D01*
X48683333Y-152916666D01*
X48750000Y-152916666D01*
X48850000Y-152883333D01*
X48916666Y-152816666D01*
X48950000Y-152750000D01*
X48983333Y-152616666D01*
X48983333Y-152516666D01*
X48950000Y-152383333D01*
X48916666Y-152316666D01*
X48850000Y-152250000D01*
X48750000Y-152216666D01*
X48683333Y-152216666D01*
X48583333Y-152250000D01*
X48550000Y-152283333D01*
X47883333Y-152916666D02*
X48283333Y-152916666D01*
X48083333Y-152916666D02*
X48083333Y-152216666D01*
X48150000Y-152316666D01*
X48216666Y-152383333D01*
X48283333Y-152416666D01*
X47216666Y-152916666D02*
X47616666Y-152916666D01*
X47416666Y-152916666D02*
X47416666Y-152216666D01*
X47483333Y-152316666D01*
X47550000Y-152383333D01*
X47616666Y-152416666D01*
X61850000Y-141800000D02*
X61883333Y-141766666D01*
X61916666Y-141666666D01*
X61916666Y-141600000D01*
X61883333Y-141500000D01*
X61816666Y-141433333D01*
X61750000Y-141400000D01*
X61616666Y-141366666D01*
X61516666Y-141366666D01*
X61383333Y-141400000D01*
X61316666Y-141433333D01*
X61250000Y-141500000D01*
X61216666Y-141600000D01*
X61216666Y-141666666D01*
X61250000Y-141766666D01*
X61283333Y-141800000D01*
X61216666Y-142033333D02*
X61216666Y-142466666D01*
X61483333Y-142233333D01*
X61483333Y-142333333D01*
X61516666Y-142400000D01*
X61550000Y-142433333D01*
X61616666Y-142466666D01*
X61783333Y-142466666D01*
X61850000Y-142433333D01*
X61883333Y-142400000D01*
X61916666Y-142333333D01*
X61916666Y-142133333D01*
X61883333Y-142066666D01*
X61850000Y-142033333D01*
X61216666Y-143066666D02*
X61216666Y-142933333D01*
X61250000Y-142866666D01*
X61283333Y-142833333D01*
X61383333Y-142766666D01*
X61516666Y-142733333D01*
X61783333Y-142733333D01*
X61850000Y-142766666D01*
X61883333Y-142800000D01*
X61916666Y-142866666D01*
X61916666Y-143000000D01*
X61883333Y-143066666D01*
X61850000Y-143100000D01*
X61783333Y-143133333D01*
X61616666Y-143133333D01*
X61550000Y-143100000D01*
X61516666Y-143066666D01*
X61483333Y-143000000D01*
X61483333Y-142866666D01*
X61516666Y-142800000D01*
X61550000Y-142766666D01*
X61616666Y-142733333D01*
X48950000Y-151300000D02*
X48983333Y-151333333D01*
X49083333Y-151366666D01*
X49150000Y-151366666D01*
X49250000Y-151333333D01*
X49316666Y-151266666D01*
X49350000Y-151200000D01*
X49383333Y-151066666D01*
X49383333Y-150966666D01*
X49350000Y-150833333D01*
X49316666Y-150766666D01*
X49250000Y-150700000D01*
X49150000Y-150666666D01*
X49083333Y-150666666D01*
X48983333Y-150700000D01*
X48950000Y-150733333D01*
X48716666Y-150666666D02*
X48283333Y-150666666D01*
X48516666Y-150933333D01*
X48416666Y-150933333D01*
X48350000Y-150966666D01*
X48316666Y-151000000D01*
X48283333Y-151066666D01*
X48283333Y-151233333D01*
X48316666Y-151300000D01*
X48350000Y-151333333D01*
X48416666Y-151366666D01*
X48616666Y-151366666D01*
X48683333Y-151333333D01*
X48716666Y-151300000D01*
X48050000Y-150666666D02*
X47583333Y-150666666D01*
X47883333Y-151366666D01*
X60300000Y-141200000D02*
X60333333Y-141166666D01*
X60366666Y-141066666D01*
X60366666Y-141000000D01*
X60333333Y-140900000D01*
X60266666Y-140833333D01*
X60200000Y-140800000D01*
X60066666Y-140766666D01*
X59966666Y-140766666D01*
X59833333Y-140800000D01*
X59766666Y-140833333D01*
X59700000Y-140900000D01*
X59666666Y-141000000D01*
X59666666Y-141066666D01*
X59700000Y-141166666D01*
X59733333Y-141200000D01*
X59666666Y-141433333D02*
X59666666Y-141866666D01*
X59933333Y-141633333D01*
X59933333Y-141733333D01*
X59966666Y-141800000D01*
X60000000Y-141833333D01*
X60066666Y-141866666D01*
X60233333Y-141866666D01*
X60300000Y-141833333D01*
X60333333Y-141800000D01*
X60366666Y-141733333D01*
X60366666Y-141533333D01*
X60333333Y-141466666D01*
X60300000Y-141433333D01*
X59966666Y-142266666D02*
X59933333Y-142200000D01*
X59900000Y-142166666D01*
X59833333Y-142133333D01*
X59800000Y-142133333D01*
X59733333Y-142166666D01*
X59700000Y-142200000D01*
X59666666Y-142266666D01*
X59666666Y-142400000D01*
X59700000Y-142466666D01*
X59733333Y-142500000D01*
X59800000Y-142533333D01*
X59833333Y-142533333D01*
X59900000Y-142500000D01*
X59933333Y-142466666D01*
X59966666Y-142400000D01*
X59966666Y-142266666D01*
X60000000Y-142200000D01*
X60033333Y-142166666D01*
X60100000Y-142133333D01*
X60233333Y-142133333D01*
X60300000Y-142166666D01*
X60333333Y-142200000D01*
X60366666Y-142266666D01*
X60366666Y-142400000D01*
X60333333Y-142466666D01*
X60300000Y-142500000D01*
X60233333Y-142533333D01*
X60100000Y-142533333D01*
X60033333Y-142500000D01*
X60000000Y-142466666D01*
X59966666Y-142400000D01*
X64600000Y-135300000D02*
X64633333Y-135266666D01*
X64666666Y-135166666D01*
X64666666Y-135100000D01*
X64633333Y-135000000D01*
X64566666Y-134933333D01*
X64500000Y-134900000D01*
X64366666Y-134866666D01*
X64266666Y-134866666D01*
X64133333Y-134900000D01*
X64066666Y-134933333D01*
X64000000Y-135000000D01*
X63966666Y-135100000D01*
X63966666Y-135166666D01*
X64000000Y-135266666D01*
X64033333Y-135300000D01*
X64200000Y-135900000D02*
X64666666Y-135900000D01*
X63933333Y-135733333D02*
X64433333Y-135566666D01*
X64433333Y-136000000D01*
X64666666Y-136633333D02*
X64666666Y-136233333D01*
X64666666Y-136433333D02*
X63966666Y-136433333D01*
X64066666Y-136366666D01*
X64133333Y-136300000D01*
X64166666Y-136233333D01*
X65550000Y-148300000D02*
X65583333Y-148333333D01*
X65683333Y-148366666D01*
X65750000Y-148366666D01*
X65850000Y-148333333D01*
X65916666Y-148266666D01*
X65950000Y-148200000D01*
X65983333Y-148066666D01*
X65983333Y-147966666D01*
X65950000Y-147833333D01*
X65916666Y-147766666D01*
X65850000Y-147700000D01*
X65750000Y-147666666D01*
X65683333Y-147666666D01*
X65583333Y-147700000D01*
X65550000Y-147733333D01*
X64950000Y-147900000D02*
X64950000Y-148366666D01*
X65116666Y-147633333D02*
X65283333Y-148133333D01*
X64850000Y-148133333D01*
X64283333Y-147900000D02*
X64283333Y-148366666D01*
X64450000Y-147633333D02*
X64616666Y-148133333D01*
X64183333Y-148133333D01*
X60000000Y-129350000D02*
X60033333Y-129316666D01*
X60066666Y-129216666D01*
X60066666Y-129150000D01*
X60033333Y-129050000D01*
X59966666Y-128983333D01*
X59900000Y-128950000D01*
X59766666Y-128916666D01*
X59666666Y-128916666D01*
X59533333Y-128950000D01*
X59466666Y-128983333D01*
X59400000Y-129050000D01*
X59366666Y-129150000D01*
X59366666Y-129216666D01*
X59400000Y-129316666D01*
X59433333Y-129350000D01*
X59600000Y-129950000D02*
X60066666Y-129950000D01*
X59333333Y-129783333D02*
X59833333Y-129616666D01*
X59833333Y-130050000D01*
X59366666Y-130650000D02*
X59366666Y-130316666D01*
X59700000Y-130283333D01*
X59666666Y-130316666D01*
X59633333Y-130383333D01*
X59633333Y-130550000D01*
X59666666Y-130616666D01*
X59700000Y-130650000D01*
X59766666Y-130683333D01*
X59933333Y-130683333D01*
X60000000Y-130650000D01*
X60033333Y-130616666D01*
X60066666Y-130550000D01*
X60066666Y-130383333D01*
X60033333Y-130316666D01*
X60000000Y-130283333D01*
X61550000Y-128800000D02*
X61583333Y-128766666D01*
X61616666Y-128666666D01*
X61616666Y-128600000D01*
X61583333Y-128500000D01*
X61516666Y-128433333D01*
X61450000Y-128400000D01*
X61316666Y-128366666D01*
X61216666Y-128366666D01*
X61083333Y-128400000D01*
X61016666Y-128433333D01*
X60950000Y-128500000D01*
X60916666Y-128600000D01*
X60916666Y-128666666D01*
X60950000Y-128766666D01*
X60983333Y-128800000D01*
X61150000Y-129400000D02*
X61616666Y-129400000D01*
X60883333Y-129233333D02*
X61383333Y-129066666D01*
X61383333Y-129500000D01*
X60916666Y-130066666D02*
X60916666Y-129933333D01*
X60950000Y-129866666D01*
X60983333Y-129833333D01*
X61083333Y-129766666D01*
X61216666Y-129733333D01*
X61483333Y-129733333D01*
X61550000Y-129766666D01*
X61583333Y-129800000D01*
X61616666Y-129866666D01*
X61616666Y-130000000D01*
X61583333Y-130066666D01*
X61550000Y-130100000D01*
X61483333Y-130133333D01*
X61316666Y-130133333D01*
X61250000Y-130100000D01*
X61216666Y-130066666D01*
X61183333Y-130000000D01*
X61183333Y-129866666D01*
X61216666Y-129800000D01*
X61250000Y-129766666D01*
X61316666Y-129733333D01*
X65950000Y-146700000D02*
X65983333Y-146733333D01*
X66083333Y-146766666D01*
X66150000Y-146766666D01*
X66250000Y-146733333D01*
X66316666Y-146666666D01*
X66350000Y-146600000D01*
X66383333Y-146466666D01*
X66383333Y-146366666D01*
X66350000Y-146233333D01*
X66316666Y-146166666D01*
X66250000Y-146100000D01*
X66150000Y-146066666D01*
X66083333Y-146066666D01*
X65983333Y-146100000D01*
X65950000Y-146133333D01*
X65350000Y-146300000D02*
X65350000Y-146766666D01*
X65516666Y-146033333D02*
X65683333Y-146533333D01*
X65250000Y-146533333D01*
X65050000Y-146066666D02*
X64583333Y-146066666D01*
X64883333Y-146766666D01*
X96450000Y-134350000D02*
X96483333Y-134383333D01*
X96583333Y-134416666D01*
X96650000Y-134416666D01*
X96750000Y-134383333D01*
X96816666Y-134316666D01*
X96850000Y-134250000D01*
X96883333Y-134116666D01*
X96883333Y-134016666D01*
X96850000Y-133883333D01*
X96816666Y-133816666D01*
X96750000Y-133750000D01*
X96650000Y-133716666D01*
X96583333Y-133716666D01*
X96483333Y-133750000D01*
X96450000Y-133783333D01*
X95816666Y-133716666D02*
X96150000Y-133716666D01*
X96183333Y-134050000D01*
X96150000Y-134016666D01*
X96083333Y-133983333D01*
X95916666Y-133983333D01*
X95850000Y-134016666D01*
X95816666Y-134050000D01*
X95783333Y-134116666D01*
X95783333Y-134283333D01*
X95816666Y-134350000D01*
X95850000Y-134383333D01*
X95916666Y-134416666D01*
X96083333Y-134416666D01*
X96150000Y-134383333D01*
X96183333Y-134350000D01*
X95350000Y-133716666D02*
X95283333Y-133716666D01*
X95216666Y-133750000D01*
X95183333Y-133783333D01*
X95150000Y-133850000D01*
X95116666Y-133983333D01*
X95116666Y-134150000D01*
X95150000Y-134283333D01*
X95183333Y-134350000D01*
X95216666Y-134383333D01*
X95283333Y-134416666D01*
X95350000Y-134416666D01*
X95416666Y-134383333D01*
X95450000Y-134350000D01*
X95483333Y-134283333D01*
X95516666Y-134150000D01*
X95516666Y-133983333D01*
X95483333Y-133850000D01*
X95450000Y-133783333D01*
X95416666Y-133750000D01*
X95350000Y-133716666D01*
X90350000Y-129100000D02*
X90383333Y-129133333D01*
X90483333Y-129166666D01*
X90550000Y-129166666D01*
X90650000Y-129133333D01*
X90716666Y-129066666D01*
X90750000Y-129000000D01*
X90783333Y-128866666D01*
X90783333Y-128766666D01*
X90750000Y-128633333D01*
X90716666Y-128566666D01*
X90650000Y-128500000D01*
X90550000Y-128466666D01*
X90483333Y-128466666D01*
X90383333Y-128500000D01*
X90350000Y-128533333D01*
X89750000Y-128466666D02*
X89883333Y-128466666D01*
X89950000Y-128500000D01*
X89983333Y-128533333D01*
X90050000Y-128633333D01*
X90083333Y-128766666D01*
X90083333Y-129033333D01*
X90050000Y-129100000D01*
X90016666Y-129133333D01*
X89950000Y-129166666D01*
X89816666Y-129166666D01*
X89750000Y-129133333D01*
X89716666Y-129100000D01*
X89683333Y-129033333D01*
X89683333Y-128866666D01*
X89716666Y-128800000D01*
X89750000Y-128766666D01*
X89816666Y-128733333D01*
X89950000Y-128733333D01*
X90016666Y-128766666D01*
X90050000Y-128800000D01*
X90083333Y-128866666D01*
X89250000Y-128466666D02*
X89183333Y-128466666D01*
X89116666Y-128500000D01*
X89083333Y-128533333D01*
X89050000Y-128600000D01*
X89016666Y-128733333D01*
X89016666Y-128900000D01*
X89050000Y-129033333D01*
X89083333Y-129100000D01*
X89116666Y-129133333D01*
X89183333Y-129166666D01*
X89250000Y-129166666D01*
X89316666Y-129133333D01*
X89350000Y-129100000D01*
X89383333Y-129033333D01*
X89416666Y-128900000D01*
X89416666Y-128733333D01*
X89383333Y-128600000D01*
X89350000Y-128533333D01*
X89316666Y-128500000D01*
X89250000Y-128466666D01*
X94250000Y-144900000D02*
X94283333Y-144866666D01*
X94316666Y-144766666D01*
X94316666Y-144700000D01*
X94283333Y-144600000D01*
X94216666Y-144533333D01*
X94150000Y-144500000D01*
X94016666Y-144466666D01*
X93916666Y-144466666D01*
X93783333Y-144500000D01*
X93716666Y-144533333D01*
X93650000Y-144600000D01*
X93616666Y-144700000D01*
X93616666Y-144766666D01*
X93650000Y-144866666D01*
X93683333Y-144900000D01*
X93616666Y-145500000D02*
X93616666Y-145366666D01*
X93650000Y-145300000D01*
X93683333Y-145266666D01*
X93783333Y-145200000D01*
X93916666Y-145166666D01*
X94183333Y-145166666D01*
X94250000Y-145200000D01*
X94283333Y-145233333D01*
X94316666Y-145300000D01*
X94316666Y-145433333D01*
X94283333Y-145500000D01*
X94250000Y-145533333D01*
X94183333Y-145566666D01*
X94016666Y-145566666D01*
X93950000Y-145533333D01*
X93916666Y-145500000D01*
X93883333Y-145433333D01*
X93883333Y-145300000D01*
X93916666Y-145233333D01*
X93950000Y-145200000D01*
X94016666Y-145166666D01*
X93616666Y-145800000D02*
X93616666Y-146233333D01*
X93883333Y-146000000D01*
X93883333Y-146100000D01*
X93916666Y-146166666D01*
X93950000Y-146200000D01*
X94016666Y-146233333D01*
X94183333Y-146233333D01*
X94250000Y-146200000D01*
X94283333Y-146166666D01*
X94316666Y-146100000D01*
X94316666Y-145900000D01*
X94283333Y-145833333D01*
X94250000Y-145800000D01*
X90350000Y-142150000D02*
X90383333Y-142183333D01*
X90483333Y-142216666D01*
X90550000Y-142216666D01*
X90650000Y-142183333D01*
X90716666Y-142116666D01*
X90750000Y-142050000D01*
X90783333Y-141916666D01*
X90783333Y-141816666D01*
X90750000Y-141683333D01*
X90716666Y-141616666D01*
X90650000Y-141550000D01*
X90550000Y-141516666D01*
X90483333Y-141516666D01*
X90383333Y-141550000D01*
X90350000Y-141583333D01*
X89750000Y-141516666D02*
X89883333Y-141516666D01*
X89950000Y-141550000D01*
X89983333Y-141583333D01*
X90050000Y-141683333D01*
X90083333Y-141816666D01*
X90083333Y-142083333D01*
X90050000Y-142150000D01*
X90016666Y-142183333D01*
X89950000Y-142216666D01*
X89816666Y-142216666D01*
X89750000Y-142183333D01*
X89716666Y-142150000D01*
X89683333Y-142083333D01*
X89683333Y-141916666D01*
X89716666Y-141850000D01*
X89750000Y-141816666D01*
X89816666Y-141783333D01*
X89950000Y-141783333D01*
X90016666Y-141816666D01*
X90050000Y-141850000D01*
X90083333Y-141916666D01*
X89083333Y-141750000D02*
X89083333Y-142216666D01*
X89250000Y-141483333D02*
X89416666Y-141983333D01*
X88983333Y-141983333D01*
X89850000Y-134050000D02*
X89883333Y-134016666D01*
X89916666Y-133916666D01*
X89916666Y-133850000D01*
X89883333Y-133750000D01*
X89816666Y-133683333D01*
X89750000Y-133650000D01*
X89616666Y-133616666D01*
X89516666Y-133616666D01*
X89383333Y-133650000D01*
X89316666Y-133683333D01*
X89250000Y-133750000D01*
X89216666Y-133850000D01*
X89216666Y-133916666D01*
X89250000Y-134016666D01*
X89283333Y-134050000D01*
X89216666Y-134650000D02*
X89216666Y-134516666D01*
X89250000Y-134450000D01*
X89283333Y-134416666D01*
X89383333Y-134350000D01*
X89516666Y-134316666D01*
X89783333Y-134316666D01*
X89850000Y-134350000D01*
X89883333Y-134383333D01*
X89916666Y-134450000D01*
X89916666Y-134583333D01*
X89883333Y-134650000D01*
X89850000Y-134683333D01*
X89783333Y-134716666D01*
X89616666Y-134716666D01*
X89550000Y-134683333D01*
X89516666Y-134650000D01*
X89483333Y-134583333D01*
X89483333Y-134450000D01*
X89516666Y-134383333D01*
X89550000Y-134350000D01*
X89616666Y-134316666D01*
X89216666Y-135350000D02*
X89216666Y-135016666D01*
X89550000Y-134983333D01*
X89516666Y-135016666D01*
X89483333Y-135083333D01*
X89483333Y-135250000D01*
X89516666Y-135316666D01*
X89550000Y-135350000D01*
X89616666Y-135383333D01*
X89783333Y-135383333D01*
X89850000Y-135350000D01*
X89883333Y-135316666D01*
X89916666Y-135250000D01*
X89916666Y-135083333D01*
X89883333Y-135016666D01*
X89850000Y-134983333D01*
X92450000Y-147050000D02*
X92483333Y-147016666D01*
X92516666Y-146916666D01*
X92516666Y-146850000D01*
X92483333Y-146750000D01*
X92416666Y-146683333D01*
X92350000Y-146650000D01*
X92216666Y-146616666D01*
X92116666Y-146616666D01*
X91983333Y-146650000D01*
X91916666Y-146683333D01*
X91850000Y-146750000D01*
X91816666Y-146850000D01*
X91816666Y-146916666D01*
X91850000Y-147016666D01*
X91883333Y-147050000D01*
X91816666Y-147283333D02*
X91816666Y-147750000D01*
X92516666Y-147450000D01*
X91816666Y-148150000D02*
X91816666Y-148216666D01*
X91850000Y-148283333D01*
X91883333Y-148316666D01*
X91950000Y-148350000D01*
X92083333Y-148383333D01*
X92250000Y-148383333D01*
X92383333Y-148350000D01*
X92450000Y-148316666D01*
X92483333Y-148283333D01*
X92516666Y-148216666D01*
X92516666Y-148150000D01*
X92483333Y-148083333D01*
X92450000Y-148050000D01*
X92383333Y-148016666D01*
X92250000Y-147983333D01*
X92083333Y-147983333D01*
X91950000Y-148016666D01*
X91883333Y-148050000D01*
X91850000Y-148083333D01*
X91816666Y-148150000D01*
X92100000Y-138900000D02*
X92133333Y-138866666D01*
X92166666Y-138766666D01*
X92166666Y-138700000D01*
X92133333Y-138600000D01*
X92066666Y-138533333D01*
X92000000Y-138500000D01*
X91866666Y-138466666D01*
X91766666Y-138466666D01*
X91633333Y-138500000D01*
X91566666Y-138533333D01*
X91500000Y-138600000D01*
X91466666Y-138700000D01*
X91466666Y-138766666D01*
X91500000Y-138866666D01*
X91533333Y-138900000D01*
X91466666Y-139133333D02*
X91466666Y-139600000D01*
X92166666Y-139300000D01*
X91533333Y-139833333D02*
X91500000Y-139866666D01*
X91466666Y-139933333D01*
X91466666Y-140100000D01*
X91500000Y-140166666D01*
X91533333Y-140200000D01*
X91600000Y-140233333D01*
X91666666Y-140233333D01*
X91766666Y-140200000D01*
X92166666Y-139800000D01*
X92166666Y-140233333D01*
X96550000Y-135200000D02*
X96583333Y-135233333D01*
X96683333Y-135266666D01*
X96750000Y-135266666D01*
X96850000Y-135233333D01*
X96916666Y-135166666D01*
X96950000Y-135100000D01*
X96983333Y-134966666D01*
X96983333Y-134866666D01*
X96950000Y-134733333D01*
X96916666Y-134666666D01*
X96850000Y-134600000D01*
X96750000Y-134566666D01*
X96683333Y-134566666D01*
X96583333Y-134600000D01*
X96550000Y-134633333D01*
X96316666Y-134566666D02*
X95850000Y-134566666D01*
X96150000Y-135266666D01*
X95650000Y-134566666D02*
X95216666Y-134566666D01*
X95450000Y-134833333D01*
X95350000Y-134833333D01*
X95283333Y-134866666D01*
X95250000Y-134900000D01*
X95216666Y-134966666D01*
X95216666Y-135133333D01*
X95250000Y-135200000D01*
X95283333Y-135233333D01*
X95350000Y-135266666D01*
X95550000Y-135266666D01*
X95616666Y-135233333D01*
X95650000Y-135200000D01*
X92450000Y-152250000D02*
X92483333Y-152216666D01*
X92516666Y-152116666D01*
X92516666Y-152050000D01*
X92483333Y-151950000D01*
X92416666Y-151883333D01*
X92350000Y-151850000D01*
X92216666Y-151816666D01*
X92116666Y-151816666D01*
X91983333Y-151850000D01*
X91916666Y-151883333D01*
X91850000Y-151950000D01*
X91816666Y-152050000D01*
X91816666Y-152116666D01*
X91850000Y-152216666D01*
X91883333Y-152250000D01*
X91816666Y-152483333D02*
X91816666Y-152950000D01*
X92516666Y-152650000D01*
X91816666Y-153150000D02*
X91816666Y-153616666D01*
X92516666Y-153316666D01*
X93950000Y-148700000D02*
X93983333Y-148666666D01*
X94016666Y-148566666D01*
X94016666Y-148500000D01*
X93983333Y-148400000D01*
X93916666Y-148333333D01*
X93850000Y-148300000D01*
X93716666Y-148266666D01*
X93616666Y-148266666D01*
X93483333Y-148300000D01*
X93416666Y-148333333D01*
X93350000Y-148400000D01*
X93316666Y-148500000D01*
X93316666Y-148566666D01*
X93350000Y-148666666D01*
X93383333Y-148700000D01*
X93316666Y-148933333D02*
X93316666Y-149400000D01*
X94016666Y-149100000D01*
X93616666Y-149766666D02*
X93583333Y-149700000D01*
X93550000Y-149666666D01*
X93483333Y-149633333D01*
X93450000Y-149633333D01*
X93383333Y-149666666D01*
X93350000Y-149700000D01*
X93316666Y-149766666D01*
X93316666Y-149900000D01*
X93350000Y-149966666D01*
X93383333Y-150000000D01*
X93450000Y-150033333D01*
X93483333Y-150033333D01*
X93550000Y-150000000D01*
X93583333Y-149966666D01*
X93616666Y-149900000D01*
X93616666Y-149766666D01*
X93650000Y-149700000D01*
X93683333Y-149666666D01*
X93750000Y-149633333D01*
X93883333Y-149633333D01*
X93950000Y-149666666D01*
X93983333Y-149700000D01*
X94016666Y-149766666D01*
X94016666Y-149900000D01*
X93983333Y-149966666D01*
X93950000Y-150000000D01*
X93883333Y-150033333D01*
X93750000Y-150033333D01*
X93683333Y-150000000D01*
X93650000Y-149966666D01*
X93616666Y-149900000D01*
X57800000Y-153316666D02*
X58133333Y-153316666D01*
X58133333Y-152616666D01*
X57200000Y-153316666D02*
X57600000Y-153316666D01*
X57400000Y-153316666D02*
X57400000Y-152616666D01*
X57466666Y-152716666D01*
X57533333Y-152783333D01*
X57600000Y-152816666D01*
X56533333Y-153316666D02*
X56933333Y-153316666D01*
X56733333Y-153316666D02*
X56733333Y-152616666D01*
X56800000Y-152716666D01*
X56866666Y-152783333D01*
X56933333Y-152816666D01*
X63766666Y-141950000D02*
X63766666Y-141616666D01*
X63066666Y-141616666D01*
X63766666Y-142550000D02*
X63766666Y-142150000D01*
X63766666Y-142350000D02*
X63066666Y-142350000D01*
X63166666Y-142283333D01*
X63233333Y-142216666D01*
X63266666Y-142150000D01*
X63133333Y-142816666D02*
X63100000Y-142850000D01*
X63066666Y-142916666D01*
X63066666Y-143083333D01*
X63100000Y-143150000D01*
X63133333Y-143183333D01*
X63200000Y-143216666D01*
X63266666Y-143216666D01*
X63366666Y-143183333D01*
X63766666Y-142783333D01*
X63766666Y-143216666D01*
X59550000Y-144466666D02*
X59883333Y-144466666D01*
X59883333Y-143766666D01*
X58950000Y-144466666D02*
X59350000Y-144466666D01*
X59150000Y-144466666D02*
X59150000Y-143766666D01*
X59216666Y-143866666D01*
X59283333Y-143933333D01*
X59350000Y-143966666D01*
X58316666Y-143766666D02*
X58650000Y-143766666D01*
X58683333Y-144100000D01*
X58650000Y-144066666D01*
X58583333Y-144033333D01*
X58416666Y-144033333D01*
X58350000Y-144066666D01*
X58316666Y-144100000D01*
X58283333Y-144166666D01*
X58283333Y-144333333D01*
X58316666Y-144400000D01*
X58350000Y-144433333D01*
X58416666Y-144466666D01*
X58583333Y-144466666D01*
X58650000Y-144433333D01*
X58683333Y-144400000D01*
X63416666Y-128650000D02*
X63416666Y-128316666D01*
X62716666Y-128316666D01*
X63416666Y-129250000D02*
X63416666Y-128850000D01*
X63416666Y-129050000D02*
X62716666Y-129050000D01*
X62816666Y-128983333D01*
X62883333Y-128916666D01*
X62916666Y-128850000D01*
X62716666Y-129850000D02*
X62716666Y-129716666D01*
X62750000Y-129650000D01*
X62783333Y-129616666D01*
X62883333Y-129550000D01*
X63016666Y-129516666D01*
X63283333Y-129516666D01*
X63350000Y-129550000D01*
X63383333Y-129583333D01*
X63416666Y-129650000D01*
X63416666Y-129783333D01*
X63383333Y-129850000D01*
X63350000Y-129883333D01*
X63283333Y-129916666D01*
X63116666Y-129916666D01*
X63050000Y-129883333D01*
X63016666Y-129850000D01*
X62983333Y-129783333D01*
X62983333Y-129650000D01*
X63016666Y-129583333D01*
X63050000Y-129550000D01*
X63116666Y-129516666D01*
X97900000Y-129466666D02*
X98233333Y-129466666D01*
X98233333Y-128766666D01*
X97300000Y-129466666D02*
X97700000Y-129466666D01*
X97500000Y-129466666D02*
X97500000Y-128766666D01*
X97566666Y-128866666D01*
X97633333Y-128933333D01*
X97700000Y-128966666D01*
X97066666Y-128766666D02*
X96600000Y-128766666D01*
X96900000Y-129466666D01*
X97700000Y-142716666D02*
X98033333Y-142716666D01*
X98033333Y-142016666D01*
X97100000Y-142716666D02*
X97500000Y-142716666D01*
X97300000Y-142716666D02*
X97300000Y-142016666D01*
X97366666Y-142116666D01*
X97433333Y-142183333D01*
X97500000Y-142216666D01*
X96766666Y-142716666D02*
X96633333Y-142716666D01*
X96566666Y-142683333D01*
X96533333Y-142650000D01*
X96466666Y-142550000D01*
X96433333Y-142416666D01*
X96433333Y-142150000D01*
X96466666Y-142083333D01*
X96500000Y-142050000D01*
X96566666Y-142016666D01*
X96700000Y-142016666D01*
X96766666Y-142050000D01*
X96800000Y-142083333D01*
X96833333Y-142150000D01*
X96833333Y-142316666D01*
X96800000Y-142383333D01*
X96766666Y-142416666D01*
X96700000Y-142450000D01*
X96566666Y-142450000D01*
X96500000Y-142416666D01*
X96466666Y-142383333D01*
X96433333Y-142316666D01*
X95350000Y-138716666D02*
X95683333Y-138716666D01*
X95683333Y-138016666D01*
X95150000Y-138083333D02*
X95116666Y-138050000D01*
X95050000Y-138016666D01*
X94883333Y-138016666D01*
X94816666Y-138050000D01*
X94783333Y-138083333D01*
X94750000Y-138150000D01*
X94750000Y-138216666D01*
X94783333Y-138316666D01*
X95183333Y-138716666D01*
X94750000Y-138716666D01*
X94483333Y-138083333D02*
X94450000Y-138050000D01*
X94383333Y-138016666D01*
X94216666Y-138016666D01*
X94150000Y-138050000D01*
X94116666Y-138083333D01*
X94083333Y-138150000D01*
X94083333Y-138216666D01*
X94116666Y-138316666D01*
X94516666Y-138716666D01*
X94083333Y-138716666D01*
X95100000Y-154216666D02*
X95433333Y-154216666D01*
X95433333Y-153516666D01*
X94900000Y-153583333D02*
X94866666Y-153550000D01*
X94800000Y-153516666D01*
X94633333Y-153516666D01*
X94566666Y-153550000D01*
X94533333Y-153583333D01*
X94500000Y-153650000D01*
X94500000Y-153716666D01*
X94533333Y-153816666D01*
X94933333Y-154216666D01*
X94500000Y-154216666D01*
X93900000Y-153750000D02*
X93900000Y-154216666D01*
X94066666Y-153483333D02*
X94233333Y-153983333D01*
X93800000Y-153983333D01*
X55216666Y-145400000D02*
X54883333Y-145166666D01*
X55216666Y-145000000D02*
X54516666Y-145000000D01*
X54516666Y-145266666D01*
X54550000Y-145333333D01*
X54583333Y-145366666D01*
X54650000Y-145400000D01*
X54750000Y-145400000D01*
X54816666Y-145366666D01*
X54850000Y-145333333D01*
X54883333Y-145266666D01*
X54883333Y-145000000D01*
X54516666Y-145633333D02*
X54516666Y-146066666D01*
X54783333Y-145833333D01*
X54783333Y-145933333D01*
X54816666Y-146000000D01*
X54850000Y-146033333D01*
X54916666Y-146066666D01*
X55083333Y-146066666D01*
X55150000Y-146033333D01*
X55183333Y-146000000D01*
X55216666Y-145933333D01*
X55216666Y-145733333D01*
X55183333Y-145666666D01*
X55150000Y-145633333D01*
X54516666Y-146300000D02*
X54516666Y-146766666D01*
X55216666Y-146466666D01*
X58300000Y-147566666D02*
X58533333Y-147233333D01*
X58700000Y-147566666D02*
X58700000Y-146866666D01*
X58433333Y-146866666D01*
X58366666Y-146900000D01*
X58333333Y-146933333D01*
X58300000Y-147000000D01*
X58300000Y-147100000D01*
X58333333Y-147166666D01*
X58366666Y-147200000D01*
X58433333Y-147233333D01*
X58700000Y-147233333D01*
X57700000Y-147100000D02*
X57700000Y-147566666D01*
X57866666Y-146833333D02*
X58033333Y-147333333D01*
X57600000Y-147333333D01*
X57200000Y-146866666D02*
X57133333Y-146866666D01*
X57066666Y-146900000D01*
X57033333Y-146933333D01*
X57000000Y-147000000D01*
X56966666Y-147133333D01*
X56966666Y-147300000D01*
X57000000Y-147433333D01*
X57033333Y-147500000D01*
X57066666Y-147533333D01*
X57133333Y-147566666D01*
X57200000Y-147566666D01*
X57266666Y-147533333D01*
X57300000Y-147500000D01*
X57333333Y-147433333D01*
X57366666Y-147300000D01*
X57366666Y-147133333D01*
X57333333Y-147000000D01*
X57300000Y-146933333D01*
X57266666Y-146900000D01*
X57200000Y-146866666D01*
X46300000Y-182350000D02*
X46333333Y-182383333D01*
X46433333Y-182416666D01*
X46500000Y-182416666D01*
X46600000Y-182383333D01*
X46666666Y-182316666D01*
X46700000Y-182250000D01*
X46733333Y-182116666D01*
X46733333Y-182016666D01*
X46700000Y-181883333D01*
X46666666Y-181816666D01*
X46600000Y-181750000D01*
X46500000Y-181716666D01*
X46433333Y-181716666D01*
X46333333Y-181750000D01*
X46300000Y-181783333D01*
X45900000Y-182016666D02*
X45966666Y-181983333D01*
X46000000Y-181950000D01*
X46033333Y-181883333D01*
X46033333Y-181850000D01*
X46000000Y-181783333D01*
X45966666Y-181750000D01*
X45900000Y-181716666D01*
X45766666Y-181716666D01*
X45700000Y-181750000D01*
X45666666Y-181783333D01*
X45633333Y-181850000D01*
X45633333Y-181883333D01*
X45666666Y-181950000D01*
X45700000Y-181983333D01*
X45766666Y-182016666D01*
X45900000Y-182016666D01*
X45966666Y-182050000D01*
X46000000Y-182083333D01*
X46033333Y-182150000D01*
X46033333Y-182283333D01*
X46000000Y-182350000D01*
X45966666Y-182383333D01*
X45900000Y-182416666D01*
X45766666Y-182416666D01*
X45700000Y-182383333D01*
X45666666Y-182350000D01*
X45633333Y-182283333D01*
X45633333Y-182150000D01*
X45666666Y-182083333D01*
X45700000Y-182050000D01*
X45766666Y-182016666D01*
X45233333Y-182016666D02*
X45300000Y-181983333D01*
X45333333Y-181950000D01*
X45366666Y-181883333D01*
X45366666Y-181850000D01*
X45333333Y-181783333D01*
X45300000Y-181750000D01*
X45233333Y-181716666D01*
X45100000Y-181716666D01*
X45033333Y-181750000D01*
X45000000Y-181783333D01*
X44966666Y-181850000D01*
X44966666Y-181883333D01*
X45000000Y-181950000D01*
X45033333Y-181983333D01*
X45100000Y-182016666D01*
X45233333Y-182016666D01*
X45300000Y-182050000D01*
X45333333Y-182083333D01*
X45366666Y-182150000D01*
X45366666Y-182283333D01*
X45333333Y-182350000D01*
X45300000Y-182383333D01*
X45233333Y-182416666D01*
X45100000Y-182416666D01*
X45033333Y-182383333D01*
X45000000Y-182350000D01*
X44966666Y-182283333D01*
X44966666Y-182150000D01*
X45000000Y-182083333D01*
X45033333Y-182050000D01*
X45100000Y-182016666D01*
X59500000Y-170700000D02*
X59533333Y-170666666D01*
X59566666Y-170566666D01*
X59566666Y-170500000D01*
X59533333Y-170400000D01*
X59466666Y-170333333D01*
X59400000Y-170300000D01*
X59266666Y-170266666D01*
X59166666Y-170266666D01*
X59033333Y-170300000D01*
X58966666Y-170333333D01*
X58900000Y-170400000D01*
X58866666Y-170500000D01*
X58866666Y-170566666D01*
X58900000Y-170666666D01*
X58933333Y-170700000D01*
X59166666Y-171100000D02*
X59133333Y-171033333D01*
X59100000Y-171000000D01*
X59033333Y-170966666D01*
X59000000Y-170966666D01*
X58933333Y-171000000D01*
X58900000Y-171033333D01*
X58866666Y-171100000D01*
X58866666Y-171233333D01*
X58900000Y-171300000D01*
X58933333Y-171333333D01*
X59000000Y-171366666D01*
X59033333Y-171366666D01*
X59100000Y-171333333D01*
X59133333Y-171300000D01*
X59166666Y-171233333D01*
X59166666Y-171100000D01*
X59200000Y-171033333D01*
X59233333Y-171000000D01*
X59300000Y-170966666D01*
X59433333Y-170966666D01*
X59500000Y-171000000D01*
X59533333Y-171033333D01*
X59566666Y-171100000D01*
X59566666Y-171233333D01*
X59533333Y-171300000D01*
X59500000Y-171333333D01*
X59433333Y-171366666D01*
X59300000Y-171366666D01*
X59233333Y-171333333D01*
X59200000Y-171300000D01*
X59166666Y-171233333D01*
X59566666Y-171700000D02*
X59566666Y-171833333D01*
X59533333Y-171900000D01*
X59500000Y-171933333D01*
X59400000Y-172000000D01*
X59266666Y-172033333D01*
X59000000Y-172033333D01*
X58933333Y-172000000D01*
X58900000Y-171966666D01*
X58866666Y-171900000D01*
X58866666Y-171766666D01*
X58900000Y-171700000D01*
X58933333Y-171666666D01*
X59000000Y-171633333D01*
X59166666Y-171633333D01*
X59233333Y-171666666D01*
X59266666Y-171700000D01*
X59300000Y-171766666D01*
X59300000Y-171900000D01*
X59266666Y-171966666D01*
X59233333Y-172000000D01*
X59166666Y-172033333D01*
X46550000Y-180750000D02*
X46583333Y-180783333D01*
X46683333Y-180816666D01*
X46750000Y-180816666D01*
X46850000Y-180783333D01*
X46916666Y-180716666D01*
X46950000Y-180650000D01*
X46983333Y-180516666D01*
X46983333Y-180416666D01*
X46950000Y-180283333D01*
X46916666Y-180216666D01*
X46850000Y-180150000D01*
X46750000Y-180116666D01*
X46683333Y-180116666D01*
X46583333Y-180150000D01*
X46550000Y-180183333D01*
X46216666Y-180816666D02*
X46083333Y-180816666D01*
X46016666Y-180783333D01*
X45983333Y-180750000D01*
X45916666Y-180650000D01*
X45883333Y-180516666D01*
X45883333Y-180250000D01*
X45916666Y-180183333D01*
X45950000Y-180150000D01*
X46016666Y-180116666D01*
X46150000Y-180116666D01*
X46216666Y-180150000D01*
X46250000Y-180183333D01*
X46283333Y-180250000D01*
X46283333Y-180416666D01*
X46250000Y-180483333D01*
X46216666Y-180516666D01*
X46150000Y-180550000D01*
X46016666Y-180550000D01*
X45950000Y-180516666D01*
X45916666Y-180483333D01*
X45883333Y-180416666D01*
X45450000Y-180116666D02*
X45383333Y-180116666D01*
X45316666Y-180150000D01*
X45283333Y-180183333D01*
X45250000Y-180250000D01*
X45216666Y-180383333D01*
X45216666Y-180550000D01*
X45250000Y-180683333D01*
X45283333Y-180750000D01*
X45316666Y-180783333D01*
X45383333Y-180816666D01*
X45450000Y-180816666D01*
X45516666Y-180783333D01*
X45550000Y-180750000D01*
X45583333Y-180683333D01*
X45616666Y-180550000D01*
X45616666Y-180383333D01*
X45583333Y-180250000D01*
X45550000Y-180183333D01*
X45516666Y-180150000D01*
X45450000Y-180116666D01*
X57850000Y-170150000D02*
X57883333Y-170116666D01*
X57916666Y-170016666D01*
X57916666Y-169950000D01*
X57883333Y-169850000D01*
X57816666Y-169783333D01*
X57750000Y-169750000D01*
X57616666Y-169716666D01*
X57516666Y-169716666D01*
X57383333Y-169750000D01*
X57316666Y-169783333D01*
X57250000Y-169850000D01*
X57216666Y-169950000D01*
X57216666Y-170016666D01*
X57250000Y-170116666D01*
X57283333Y-170150000D01*
X57916666Y-170483333D02*
X57916666Y-170616666D01*
X57883333Y-170683333D01*
X57850000Y-170716666D01*
X57750000Y-170783333D01*
X57616666Y-170816666D01*
X57350000Y-170816666D01*
X57283333Y-170783333D01*
X57250000Y-170750000D01*
X57216666Y-170683333D01*
X57216666Y-170550000D01*
X57250000Y-170483333D01*
X57283333Y-170450000D01*
X57350000Y-170416666D01*
X57516666Y-170416666D01*
X57583333Y-170450000D01*
X57616666Y-170483333D01*
X57650000Y-170550000D01*
X57650000Y-170683333D01*
X57616666Y-170750000D01*
X57583333Y-170783333D01*
X57516666Y-170816666D01*
X57916666Y-171483333D02*
X57916666Y-171083333D01*
X57916666Y-171283333D02*
X57216666Y-171283333D01*
X57316666Y-171216666D01*
X57383333Y-171150000D01*
X57416666Y-171083333D01*
X62250000Y-164250000D02*
X62283333Y-164216666D01*
X62316666Y-164116666D01*
X62316666Y-164050000D01*
X62283333Y-163950000D01*
X62216666Y-163883333D01*
X62150000Y-163850000D01*
X62016666Y-163816666D01*
X61916666Y-163816666D01*
X61783333Y-163850000D01*
X61716666Y-163883333D01*
X61650000Y-163950000D01*
X61616666Y-164050000D01*
X61616666Y-164116666D01*
X61650000Y-164216666D01*
X61683333Y-164250000D01*
X62316666Y-164583333D02*
X62316666Y-164716666D01*
X62283333Y-164783333D01*
X62250000Y-164816666D01*
X62150000Y-164883333D01*
X62016666Y-164916666D01*
X61750000Y-164916666D01*
X61683333Y-164883333D01*
X61650000Y-164850000D01*
X61616666Y-164783333D01*
X61616666Y-164650000D01*
X61650000Y-164583333D01*
X61683333Y-164550000D01*
X61750000Y-164516666D01*
X61916666Y-164516666D01*
X61983333Y-164550000D01*
X62016666Y-164583333D01*
X62050000Y-164650000D01*
X62050000Y-164783333D01*
X62016666Y-164850000D01*
X61983333Y-164883333D01*
X61916666Y-164916666D01*
X61850000Y-165516666D02*
X62316666Y-165516666D01*
X61583333Y-165350000D02*
X62083333Y-165183333D01*
X62083333Y-165616666D01*
X62900000Y-178050000D02*
X62933333Y-178083333D01*
X63033333Y-178116666D01*
X63100000Y-178116666D01*
X63200000Y-178083333D01*
X63266666Y-178016666D01*
X63300000Y-177950000D01*
X63333333Y-177816666D01*
X63333333Y-177716666D01*
X63300000Y-177583333D01*
X63266666Y-177516666D01*
X63200000Y-177450000D01*
X63100000Y-177416666D01*
X63033333Y-177416666D01*
X62933333Y-177450000D01*
X62900000Y-177483333D01*
X62566666Y-178116666D02*
X62433333Y-178116666D01*
X62366666Y-178083333D01*
X62333333Y-178050000D01*
X62266666Y-177950000D01*
X62233333Y-177816666D01*
X62233333Y-177550000D01*
X62266666Y-177483333D01*
X62300000Y-177450000D01*
X62366666Y-177416666D01*
X62500000Y-177416666D01*
X62566666Y-177450000D01*
X62600000Y-177483333D01*
X62633333Y-177550000D01*
X62633333Y-177716666D01*
X62600000Y-177783333D01*
X62566666Y-177816666D01*
X62500000Y-177850000D01*
X62366666Y-177850000D01*
X62300000Y-177816666D01*
X62266666Y-177783333D01*
X62233333Y-177716666D01*
X62000000Y-177416666D02*
X61533333Y-177416666D01*
X61833333Y-178116666D01*
X57350000Y-158550000D02*
X57383333Y-158516666D01*
X57416666Y-158416666D01*
X57416666Y-158350000D01*
X57383333Y-158250000D01*
X57316666Y-158183333D01*
X57250000Y-158150000D01*
X57116666Y-158116666D01*
X57016666Y-158116666D01*
X56883333Y-158150000D01*
X56816666Y-158183333D01*
X56750000Y-158250000D01*
X56716666Y-158350000D01*
X56716666Y-158416666D01*
X56750000Y-158516666D01*
X56783333Y-158550000D01*
X57416666Y-158883333D02*
X57416666Y-159016666D01*
X57383333Y-159083333D01*
X57350000Y-159116666D01*
X57250000Y-159183333D01*
X57116666Y-159216666D01*
X56850000Y-159216666D01*
X56783333Y-159183333D01*
X56750000Y-159150000D01*
X56716666Y-159083333D01*
X56716666Y-158950000D01*
X56750000Y-158883333D01*
X56783333Y-158850000D01*
X56850000Y-158816666D01*
X57016666Y-158816666D01*
X57083333Y-158850000D01*
X57116666Y-158883333D01*
X57150000Y-158950000D01*
X57150000Y-159083333D01*
X57116666Y-159150000D01*
X57083333Y-159183333D01*
X57016666Y-159216666D01*
X57016666Y-159616666D02*
X56983333Y-159550000D01*
X56950000Y-159516666D01*
X56883333Y-159483333D01*
X56850000Y-159483333D01*
X56783333Y-159516666D01*
X56750000Y-159550000D01*
X56716666Y-159616666D01*
X56716666Y-159750000D01*
X56750000Y-159816666D01*
X56783333Y-159850000D01*
X56850000Y-159883333D01*
X56883333Y-159883333D01*
X56950000Y-159850000D01*
X56983333Y-159816666D01*
X57016666Y-159750000D01*
X57016666Y-159616666D01*
X57050000Y-159550000D01*
X57083333Y-159516666D01*
X57150000Y-159483333D01*
X57283333Y-159483333D01*
X57350000Y-159516666D01*
X57383333Y-159550000D01*
X57416666Y-159616666D01*
X57416666Y-159750000D01*
X57383333Y-159816666D01*
X57350000Y-159850000D01*
X57283333Y-159883333D01*
X57150000Y-159883333D01*
X57083333Y-159850000D01*
X57050000Y-159816666D01*
X57016666Y-159750000D01*
X59000000Y-158000000D02*
X59033333Y-157966666D01*
X59066666Y-157866666D01*
X59066666Y-157800000D01*
X59033333Y-157700000D01*
X58966666Y-157633333D01*
X58900000Y-157600000D01*
X58766666Y-157566666D01*
X58666666Y-157566666D01*
X58533333Y-157600000D01*
X58466666Y-157633333D01*
X58400000Y-157700000D01*
X58366666Y-157800000D01*
X58366666Y-157866666D01*
X58400000Y-157966666D01*
X58433333Y-158000000D01*
X59066666Y-158333333D02*
X59066666Y-158466666D01*
X59033333Y-158533333D01*
X59000000Y-158566666D01*
X58900000Y-158633333D01*
X58766666Y-158666666D01*
X58500000Y-158666666D01*
X58433333Y-158633333D01*
X58400000Y-158600000D01*
X58366666Y-158533333D01*
X58366666Y-158400000D01*
X58400000Y-158333333D01*
X58433333Y-158300000D01*
X58500000Y-158266666D01*
X58666666Y-158266666D01*
X58733333Y-158300000D01*
X58766666Y-158333333D01*
X58800000Y-158400000D01*
X58800000Y-158533333D01*
X58766666Y-158600000D01*
X58733333Y-158633333D01*
X58666666Y-158666666D01*
X59066666Y-159000000D02*
X59066666Y-159133333D01*
X59033333Y-159200000D01*
X59000000Y-159233333D01*
X58900000Y-159300000D01*
X58766666Y-159333333D01*
X58500000Y-159333333D01*
X58433333Y-159300000D01*
X58400000Y-159266666D01*
X58366666Y-159200000D01*
X58366666Y-159066666D01*
X58400000Y-159000000D01*
X58433333Y-158966666D01*
X58500000Y-158933333D01*
X58666666Y-158933333D01*
X58733333Y-158966666D01*
X58766666Y-159000000D01*
X58800000Y-159066666D01*
X58800000Y-159200000D01*
X58766666Y-159266666D01*
X58733333Y-159300000D01*
X58666666Y-159333333D01*
X64383333Y-176150000D02*
X64416666Y-176183333D01*
X64516666Y-176216666D01*
X64583333Y-176216666D01*
X64683333Y-176183333D01*
X64750000Y-176116666D01*
X64783333Y-176050000D01*
X64816666Y-175916666D01*
X64816666Y-175816666D01*
X64783333Y-175683333D01*
X64750000Y-175616666D01*
X64683333Y-175550000D01*
X64583333Y-175516666D01*
X64516666Y-175516666D01*
X64416666Y-175550000D01*
X64383333Y-175583333D01*
X63716666Y-176216666D02*
X64116666Y-176216666D01*
X63916666Y-176216666D02*
X63916666Y-175516666D01*
X63983333Y-175616666D01*
X64050000Y-175683333D01*
X64116666Y-175716666D01*
X63283333Y-175516666D02*
X63216666Y-175516666D01*
X63150000Y-175550000D01*
X63116666Y-175583333D01*
X63083333Y-175650000D01*
X63050000Y-175783333D01*
X63050000Y-175950000D01*
X63083333Y-176083333D01*
X63116666Y-176150000D01*
X63150000Y-176183333D01*
X63216666Y-176216666D01*
X63283333Y-176216666D01*
X63350000Y-176183333D01*
X63383333Y-176150000D01*
X63416666Y-176083333D01*
X63450000Y-175950000D01*
X63450000Y-175783333D01*
X63416666Y-175650000D01*
X63383333Y-175583333D01*
X63350000Y-175550000D01*
X63283333Y-175516666D01*
X62616666Y-175516666D02*
X62550000Y-175516666D01*
X62483333Y-175550000D01*
X62450000Y-175583333D01*
X62416666Y-175650000D01*
X62383333Y-175783333D01*
X62383333Y-175950000D01*
X62416666Y-176083333D01*
X62450000Y-176150000D01*
X62483333Y-176183333D01*
X62550000Y-176216666D01*
X62616666Y-176216666D01*
X62683333Y-176183333D01*
X62716666Y-176150000D01*
X62750000Y-176083333D01*
X62783333Y-175950000D01*
X62783333Y-175783333D01*
X62750000Y-175650000D01*
X62716666Y-175583333D01*
X62683333Y-175550000D01*
X62616666Y-175516666D01*
X92233333Y-161850000D02*
X92266666Y-161883333D01*
X92366666Y-161916666D01*
X92433333Y-161916666D01*
X92533333Y-161883333D01*
X92600000Y-161816666D01*
X92633333Y-161750000D01*
X92666666Y-161616666D01*
X92666666Y-161516666D01*
X92633333Y-161383333D01*
X92600000Y-161316666D01*
X92533333Y-161250000D01*
X92433333Y-161216666D01*
X92366666Y-161216666D01*
X92266666Y-161250000D01*
X92233333Y-161283333D01*
X91566666Y-161916666D02*
X91966666Y-161916666D01*
X91766666Y-161916666D02*
X91766666Y-161216666D01*
X91833333Y-161316666D01*
X91900000Y-161383333D01*
X91966666Y-161416666D01*
X91133333Y-161216666D02*
X91066666Y-161216666D01*
X91000000Y-161250000D01*
X90966666Y-161283333D01*
X90933333Y-161350000D01*
X90900000Y-161483333D01*
X90900000Y-161650000D01*
X90933333Y-161783333D01*
X90966666Y-161850000D01*
X91000000Y-161883333D01*
X91066666Y-161916666D01*
X91133333Y-161916666D01*
X91200000Y-161883333D01*
X91233333Y-161850000D01*
X91266666Y-161783333D01*
X91300000Y-161650000D01*
X91300000Y-161483333D01*
X91266666Y-161350000D01*
X91233333Y-161283333D01*
X91200000Y-161250000D01*
X91133333Y-161216666D01*
X90666666Y-161216666D02*
X90233333Y-161216666D01*
X90466666Y-161483333D01*
X90366666Y-161483333D01*
X90300000Y-161516666D01*
X90266666Y-161550000D01*
X90233333Y-161616666D01*
X90233333Y-161783333D01*
X90266666Y-161850000D01*
X90300000Y-161883333D01*
X90366666Y-161916666D01*
X90566666Y-161916666D01*
X90633333Y-161883333D01*
X90666666Y-161850000D01*
X86433333Y-159450000D02*
X86466666Y-159483333D01*
X86566666Y-159516666D01*
X86633333Y-159516666D01*
X86733333Y-159483333D01*
X86800000Y-159416666D01*
X86833333Y-159350000D01*
X86866666Y-159216666D01*
X86866666Y-159116666D01*
X86833333Y-158983333D01*
X86800000Y-158916666D01*
X86733333Y-158850000D01*
X86633333Y-158816666D01*
X86566666Y-158816666D01*
X86466666Y-158850000D01*
X86433333Y-158883333D01*
X85766666Y-159516666D02*
X86166666Y-159516666D01*
X85966666Y-159516666D02*
X85966666Y-158816666D01*
X86033333Y-158916666D01*
X86100000Y-158983333D01*
X86166666Y-159016666D01*
X85333333Y-158816666D02*
X85266666Y-158816666D01*
X85200000Y-158850000D01*
X85166666Y-158883333D01*
X85133333Y-158950000D01*
X85100000Y-159083333D01*
X85100000Y-159250000D01*
X85133333Y-159383333D01*
X85166666Y-159450000D01*
X85200000Y-159483333D01*
X85266666Y-159516666D01*
X85333333Y-159516666D01*
X85400000Y-159483333D01*
X85433333Y-159450000D01*
X85466666Y-159383333D01*
X85500000Y-159250000D01*
X85500000Y-159083333D01*
X85466666Y-158950000D01*
X85433333Y-158883333D01*
X85400000Y-158850000D01*
X85333333Y-158816666D01*
X84500000Y-159050000D02*
X84500000Y-159516666D01*
X84666666Y-158783333D02*
X84833333Y-159283333D01*
X84400000Y-159283333D01*
X92883333Y-177800000D02*
X92916666Y-177833333D01*
X93016666Y-177866666D01*
X93083333Y-177866666D01*
X93183333Y-177833333D01*
X93250000Y-177766666D01*
X93283333Y-177700000D01*
X93316666Y-177566666D01*
X93316666Y-177466666D01*
X93283333Y-177333333D01*
X93250000Y-177266666D01*
X93183333Y-177200000D01*
X93083333Y-177166666D01*
X93016666Y-177166666D01*
X92916666Y-177200000D01*
X92883333Y-177233333D01*
X92216666Y-177866666D02*
X92616666Y-177866666D01*
X92416666Y-177866666D02*
X92416666Y-177166666D01*
X92483333Y-177266666D01*
X92550000Y-177333333D01*
X92616666Y-177366666D01*
X91783333Y-177166666D02*
X91716666Y-177166666D01*
X91650000Y-177200000D01*
X91616666Y-177233333D01*
X91583333Y-177300000D01*
X91550000Y-177433333D01*
X91550000Y-177600000D01*
X91583333Y-177733333D01*
X91616666Y-177800000D01*
X91650000Y-177833333D01*
X91716666Y-177866666D01*
X91783333Y-177866666D01*
X91850000Y-177833333D01*
X91883333Y-177800000D01*
X91916666Y-177733333D01*
X91950000Y-177600000D01*
X91950000Y-177433333D01*
X91916666Y-177300000D01*
X91883333Y-177233333D01*
X91850000Y-177200000D01*
X91783333Y-177166666D01*
X91316666Y-177166666D02*
X90850000Y-177166666D01*
X91150000Y-177866666D01*
X86633333Y-172800000D02*
X86666666Y-172833333D01*
X86766666Y-172866666D01*
X86833333Y-172866666D01*
X86933333Y-172833333D01*
X87000000Y-172766666D01*
X87033333Y-172700000D01*
X87066666Y-172566666D01*
X87066666Y-172466666D01*
X87033333Y-172333333D01*
X87000000Y-172266666D01*
X86933333Y-172200000D01*
X86833333Y-172166666D01*
X86766666Y-172166666D01*
X86666666Y-172200000D01*
X86633333Y-172233333D01*
X85966666Y-172866666D02*
X86366666Y-172866666D01*
X86166666Y-172866666D02*
X86166666Y-172166666D01*
X86233333Y-172266666D01*
X86300000Y-172333333D01*
X86366666Y-172366666D01*
X85533333Y-172166666D02*
X85466666Y-172166666D01*
X85400000Y-172200000D01*
X85366666Y-172233333D01*
X85333333Y-172300000D01*
X85300000Y-172433333D01*
X85300000Y-172600000D01*
X85333333Y-172733333D01*
X85366666Y-172800000D01*
X85400000Y-172833333D01*
X85466666Y-172866666D01*
X85533333Y-172866666D01*
X85600000Y-172833333D01*
X85633333Y-172800000D01*
X85666666Y-172733333D01*
X85700000Y-172600000D01*
X85700000Y-172433333D01*
X85666666Y-172300000D01*
X85633333Y-172233333D01*
X85600000Y-172200000D01*
X85533333Y-172166666D01*
X84900000Y-172466666D02*
X84966666Y-172433333D01*
X85000000Y-172400000D01*
X85033333Y-172333333D01*
X85033333Y-172300000D01*
X85000000Y-172233333D01*
X84966666Y-172200000D01*
X84900000Y-172166666D01*
X84766666Y-172166666D01*
X84700000Y-172200000D01*
X84666666Y-172233333D01*
X84633333Y-172300000D01*
X84633333Y-172333333D01*
X84666666Y-172400000D01*
X84700000Y-172433333D01*
X84766666Y-172466666D01*
X84900000Y-172466666D01*
X84966666Y-172500000D01*
X85000000Y-172533333D01*
X85033333Y-172600000D01*
X85033333Y-172733333D01*
X85000000Y-172800000D01*
X84966666Y-172833333D01*
X84900000Y-172866666D01*
X84766666Y-172866666D01*
X84700000Y-172833333D01*
X84666666Y-172800000D01*
X84633333Y-172733333D01*
X84633333Y-172600000D01*
X84666666Y-172533333D01*
X84700000Y-172500000D01*
X84766666Y-172466666D01*
X85350000Y-164116666D02*
X85383333Y-164083333D01*
X85416666Y-163983333D01*
X85416666Y-163916666D01*
X85383333Y-163816666D01*
X85316666Y-163750000D01*
X85250000Y-163716666D01*
X85116666Y-163683333D01*
X85016666Y-163683333D01*
X84883333Y-163716666D01*
X84816666Y-163750000D01*
X84750000Y-163816666D01*
X84716666Y-163916666D01*
X84716666Y-163983333D01*
X84750000Y-164083333D01*
X84783333Y-164116666D01*
X85416666Y-164783333D02*
X85416666Y-164383333D01*
X85416666Y-164583333D02*
X84716666Y-164583333D01*
X84816666Y-164516666D01*
X84883333Y-164450000D01*
X84916666Y-164383333D01*
X85416666Y-165450000D02*
X85416666Y-165050000D01*
X85416666Y-165250000D02*
X84716666Y-165250000D01*
X84816666Y-165183333D01*
X84883333Y-165116666D01*
X84916666Y-165050000D01*
X84716666Y-165883333D02*
X84716666Y-165950000D01*
X84750000Y-166016666D01*
X84783333Y-166050000D01*
X84850000Y-166083333D01*
X84983333Y-166116666D01*
X85150000Y-166116666D01*
X85283333Y-166083333D01*
X85350000Y-166050000D01*
X85383333Y-166016666D01*
X85416666Y-165950000D01*
X85416666Y-165883333D01*
X85383333Y-165816666D01*
X85350000Y-165783333D01*
X85283333Y-165750000D01*
X85150000Y-165716666D01*
X84983333Y-165716666D01*
X84850000Y-165750000D01*
X84783333Y-165783333D01*
X84750000Y-165816666D01*
X84716666Y-165883333D01*
X87900000Y-177316666D02*
X87933333Y-177283333D01*
X87966666Y-177183333D01*
X87966666Y-177116666D01*
X87933333Y-177016666D01*
X87866666Y-176950000D01*
X87800000Y-176916666D01*
X87666666Y-176883333D01*
X87566666Y-176883333D01*
X87433333Y-176916666D01*
X87366666Y-176950000D01*
X87300000Y-177016666D01*
X87266666Y-177116666D01*
X87266666Y-177183333D01*
X87300000Y-177283333D01*
X87333333Y-177316666D01*
X87966666Y-177983333D02*
X87966666Y-177583333D01*
X87966666Y-177783333D02*
X87266666Y-177783333D01*
X87366666Y-177716666D01*
X87433333Y-177650000D01*
X87466666Y-177583333D01*
X87966666Y-178650000D02*
X87966666Y-178250000D01*
X87966666Y-178450000D02*
X87266666Y-178450000D01*
X87366666Y-178383333D01*
X87433333Y-178316666D01*
X87466666Y-178250000D01*
X87266666Y-179283333D02*
X87266666Y-178950000D01*
X87600000Y-178916666D01*
X87566666Y-178950000D01*
X87533333Y-179016666D01*
X87533333Y-179183333D01*
X87566666Y-179250000D01*
X87600000Y-179283333D01*
X87666666Y-179316666D01*
X87833333Y-179316666D01*
X87900000Y-179283333D01*
X87933333Y-179250000D01*
X87966666Y-179183333D01*
X87966666Y-179016666D01*
X87933333Y-178950000D01*
X87900000Y-178916666D01*
X87500000Y-169166666D02*
X87533333Y-169133333D01*
X87566666Y-169033333D01*
X87566666Y-168966666D01*
X87533333Y-168866666D01*
X87466666Y-168800000D01*
X87400000Y-168766666D01*
X87266666Y-168733333D01*
X87166666Y-168733333D01*
X87033333Y-168766666D01*
X86966666Y-168800000D01*
X86900000Y-168866666D01*
X86866666Y-168966666D01*
X86866666Y-169033333D01*
X86900000Y-169133333D01*
X86933333Y-169166666D01*
X87566666Y-169833333D02*
X87566666Y-169433333D01*
X87566666Y-169633333D02*
X86866666Y-169633333D01*
X86966666Y-169566666D01*
X87033333Y-169500000D01*
X87066666Y-169433333D01*
X87566666Y-170500000D02*
X87566666Y-170100000D01*
X87566666Y-170300000D02*
X86866666Y-170300000D01*
X86966666Y-170233333D01*
X87033333Y-170166666D01*
X87066666Y-170100000D01*
X86866666Y-170733333D02*
X86866666Y-171200000D01*
X87566666Y-170900000D01*
X92283333Y-165400000D02*
X92316666Y-165433333D01*
X92416666Y-165466666D01*
X92483333Y-165466666D01*
X92583333Y-165433333D01*
X92650000Y-165366666D01*
X92683333Y-165300000D01*
X92716666Y-165166666D01*
X92716666Y-165066666D01*
X92683333Y-164933333D01*
X92650000Y-164866666D01*
X92583333Y-164800000D01*
X92483333Y-164766666D01*
X92416666Y-164766666D01*
X92316666Y-164800000D01*
X92283333Y-164833333D01*
X91616666Y-165466666D02*
X92016666Y-165466666D01*
X91816666Y-165466666D02*
X91816666Y-164766666D01*
X91883333Y-164866666D01*
X91950000Y-164933333D01*
X92016666Y-164966666D01*
X90950000Y-165466666D02*
X91350000Y-165466666D01*
X91150000Y-165466666D02*
X91150000Y-164766666D01*
X91216666Y-164866666D01*
X91283333Y-164933333D01*
X91350000Y-164966666D01*
X90550000Y-165066666D02*
X90616666Y-165033333D01*
X90650000Y-165000000D01*
X90683333Y-164933333D01*
X90683333Y-164900000D01*
X90650000Y-164833333D01*
X90616666Y-164800000D01*
X90550000Y-164766666D01*
X90416666Y-164766666D01*
X90350000Y-164800000D01*
X90316666Y-164833333D01*
X90283333Y-164900000D01*
X90283333Y-164933333D01*
X90316666Y-165000000D01*
X90350000Y-165033333D01*
X90416666Y-165066666D01*
X90550000Y-165066666D01*
X90616666Y-165100000D01*
X90650000Y-165133333D01*
X90683333Y-165200000D01*
X90683333Y-165333333D01*
X90650000Y-165400000D01*
X90616666Y-165433333D01*
X90550000Y-165466666D01*
X90416666Y-165466666D01*
X90350000Y-165433333D01*
X90316666Y-165400000D01*
X90283333Y-165333333D01*
X90283333Y-165200000D01*
X90316666Y-165133333D01*
X90350000Y-165100000D01*
X90416666Y-165066666D01*
X88100000Y-182566666D02*
X88133333Y-182533333D01*
X88166666Y-182433333D01*
X88166666Y-182366666D01*
X88133333Y-182266666D01*
X88066666Y-182200000D01*
X88000000Y-182166666D01*
X87866666Y-182133333D01*
X87766666Y-182133333D01*
X87633333Y-182166666D01*
X87566666Y-182200000D01*
X87500000Y-182266666D01*
X87466666Y-182366666D01*
X87466666Y-182433333D01*
X87500000Y-182533333D01*
X87533333Y-182566666D01*
X88166666Y-183233333D02*
X88166666Y-182833333D01*
X88166666Y-183033333D02*
X87466666Y-183033333D01*
X87566666Y-182966666D01*
X87633333Y-182900000D01*
X87666666Y-182833333D01*
X87533333Y-183500000D02*
X87500000Y-183533333D01*
X87466666Y-183600000D01*
X87466666Y-183766666D01*
X87500000Y-183833333D01*
X87533333Y-183866666D01*
X87600000Y-183900000D01*
X87666666Y-183900000D01*
X87766666Y-183866666D01*
X88166666Y-183466666D01*
X88166666Y-183900000D01*
X87466666Y-184133333D02*
X87466666Y-184566666D01*
X87733333Y-184333333D01*
X87733333Y-184433333D01*
X87766666Y-184500000D01*
X87800000Y-184533333D01*
X87866666Y-184566666D01*
X88033333Y-184566666D01*
X88100000Y-184533333D01*
X88133333Y-184500000D01*
X88166666Y-184433333D01*
X88166666Y-184233333D01*
X88133333Y-184166666D01*
X88100000Y-184133333D01*
X92783333Y-178850000D02*
X92816666Y-178883333D01*
X92916666Y-178916666D01*
X92983333Y-178916666D01*
X93083333Y-178883333D01*
X93150000Y-178816666D01*
X93183333Y-178750000D01*
X93216666Y-178616666D01*
X93216666Y-178516666D01*
X93183333Y-178383333D01*
X93150000Y-178316666D01*
X93083333Y-178250000D01*
X92983333Y-178216666D01*
X92916666Y-178216666D01*
X92816666Y-178250000D01*
X92783333Y-178283333D01*
X92116666Y-178916666D02*
X92516666Y-178916666D01*
X92316666Y-178916666D02*
X92316666Y-178216666D01*
X92383333Y-178316666D01*
X92450000Y-178383333D01*
X92516666Y-178416666D01*
X91850000Y-178283333D02*
X91816666Y-178250000D01*
X91750000Y-178216666D01*
X91583333Y-178216666D01*
X91516666Y-178250000D01*
X91483333Y-178283333D01*
X91450000Y-178350000D01*
X91450000Y-178416666D01*
X91483333Y-178516666D01*
X91883333Y-178916666D01*
X91450000Y-178916666D01*
X90850000Y-178450000D02*
X90850000Y-178916666D01*
X91016666Y-178183333D02*
X91183333Y-178683333D01*
X90750000Y-178683333D01*
X55600000Y-182516666D02*
X55933333Y-182516666D01*
X55933333Y-181816666D01*
X55400000Y-181883333D02*
X55366666Y-181850000D01*
X55300000Y-181816666D01*
X55133333Y-181816666D01*
X55066666Y-181850000D01*
X55033333Y-181883333D01*
X55000000Y-181950000D01*
X55000000Y-182016666D01*
X55033333Y-182116666D01*
X55433333Y-182516666D01*
X55000000Y-182516666D01*
X54366666Y-181816666D02*
X54700000Y-181816666D01*
X54733333Y-182150000D01*
X54700000Y-182116666D01*
X54633333Y-182083333D01*
X54466666Y-182083333D01*
X54400000Y-182116666D01*
X54366666Y-182150000D01*
X54333333Y-182216666D01*
X54333333Y-182383333D01*
X54366666Y-182450000D01*
X54400000Y-182483333D01*
X54466666Y-182516666D01*
X54633333Y-182516666D01*
X54700000Y-182483333D01*
X54733333Y-182450000D01*
X61216666Y-171000000D02*
X61216666Y-170666666D01*
X60516666Y-170666666D01*
X60583333Y-171200000D02*
X60550000Y-171233333D01*
X60516666Y-171300000D01*
X60516666Y-171466666D01*
X60550000Y-171533333D01*
X60583333Y-171566666D01*
X60650000Y-171600000D01*
X60716666Y-171600000D01*
X60816666Y-171566666D01*
X61216666Y-171166666D01*
X61216666Y-171600000D01*
X60516666Y-172200000D02*
X60516666Y-172066666D01*
X60550000Y-172000000D01*
X60583333Y-171966666D01*
X60683333Y-171900000D01*
X60816666Y-171866666D01*
X61083333Y-171866666D01*
X61150000Y-171900000D01*
X61183333Y-171933333D01*
X61216666Y-172000000D01*
X61216666Y-172133333D01*
X61183333Y-172200000D01*
X61150000Y-172233333D01*
X61083333Y-172266666D01*
X60916666Y-172266666D01*
X60850000Y-172233333D01*
X60816666Y-172200000D01*
X60783333Y-172133333D01*
X60783333Y-172000000D01*
X60816666Y-171933333D01*
X60850000Y-171900000D01*
X60916666Y-171866666D01*
X56900000Y-173916666D02*
X57233333Y-173916666D01*
X57233333Y-173216666D01*
X56700000Y-173283333D02*
X56666666Y-173250000D01*
X56600000Y-173216666D01*
X56433333Y-173216666D01*
X56366666Y-173250000D01*
X56333333Y-173283333D01*
X56300000Y-173350000D01*
X56300000Y-173416666D01*
X56333333Y-173516666D01*
X56733333Y-173916666D01*
X56300000Y-173916666D01*
X56066666Y-173216666D02*
X55600000Y-173216666D01*
X55900000Y-173916666D01*
X60816666Y-157750000D02*
X60816666Y-157416666D01*
X60116666Y-157416666D01*
X60183333Y-157950000D02*
X60150000Y-157983333D01*
X60116666Y-158050000D01*
X60116666Y-158216666D01*
X60150000Y-158283333D01*
X60183333Y-158316666D01*
X60250000Y-158350000D01*
X60316666Y-158350000D01*
X60416666Y-158316666D01*
X60816666Y-157916666D01*
X60816666Y-158350000D01*
X60416666Y-158750000D02*
X60383333Y-158683333D01*
X60350000Y-158650000D01*
X60283333Y-158616666D01*
X60250000Y-158616666D01*
X60183333Y-158650000D01*
X60150000Y-158683333D01*
X60116666Y-158750000D01*
X60116666Y-158883333D01*
X60150000Y-158950000D01*
X60183333Y-158983333D01*
X60250000Y-159016666D01*
X60283333Y-159016666D01*
X60350000Y-158983333D01*
X60383333Y-158950000D01*
X60416666Y-158883333D01*
X60416666Y-158750000D01*
X60450000Y-158683333D01*
X60483333Y-158650000D01*
X60550000Y-158616666D01*
X60683333Y-158616666D01*
X60750000Y-158650000D01*
X60783333Y-158683333D01*
X60816666Y-158750000D01*
X60816666Y-158883333D01*
X60783333Y-158950000D01*
X60750000Y-158983333D01*
X60683333Y-159016666D01*
X60550000Y-159016666D01*
X60483333Y-158983333D01*
X60450000Y-158950000D01*
X60416666Y-158883333D01*
X93300000Y-159966666D02*
X93633333Y-159966666D01*
X93633333Y-159266666D01*
X93100000Y-159333333D02*
X93066666Y-159300000D01*
X93000000Y-159266666D01*
X92833333Y-159266666D01*
X92766666Y-159300000D01*
X92733333Y-159333333D01*
X92700000Y-159400000D01*
X92700000Y-159466666D01*
X92733333Y-159566666D01*
X93133333Y-159966666D01*
X92700000Y-159966666D01*
X92366666Y-159966666D02*
X92233333Y-159966666D01*
X92166666Y-159933333D01*
X92133333Y-159900000D01*
X92066666Y-159800000D01*
X92033333Y-159666666D01*
X92033333Y-159400000D01*
X92066666Y-159333333D01*
X92100000Y-159300000D01*
X92166666Y-159266666D01*
X92300000Y-159266666D01*
X92366666Y-159300000D01*
X92400000Y-159333333D01*
X92433333Y-159400000D01*
X92433333Y-159566666D01*
X92400000Y-159633333D01*
X92366666Y-159666666D01*
X92300000Y-159700000D01*
X92166666Y-159700000D01*
X92100000Y-159666666D01*
X92066666Y-159633333D01*
X92033333Y-159566666D01*
X93700000Y-173166666D02*
X94033333Y-173166666D01*
X94033333Y-172466666D01*
X93533333Y-172466666D02*
X93100000Y-172466666D01*
X93333333Y-172733333D01*
X93233333Y-172733333D01*
X93166666Y-172766666D01*
X93133333Y-172800000D01*
X93100000Y-172866666D01*
X93100000Y-173033333D01*
X93133333Y-173100000D01*
X93166666Y-173133333D01*
X93233333Y-173166666D01*
X93433333Y-173166666D01*
X93500000Y-173133333D01*
X93533333Y-173100000D01*
X92433333Y-173166666D02*
X92833333Y-173166666D01*
X92633333Y-173166666D02*
X92633333Y-172466666D01*
X92700000Y-172566666D01*
X92766666Y-172633333D01*
X92833333Y-172666666D01*
X93400000Y-170316666D02*
X93733333Y-170316666D01*
X93733333Y-169616666D01*
X93233333Y-169616666D02*
X92800000Y-169616666D01*
X93033333Y-169883333D01*
X92933333Y-169883333D01*
X92866666Y-169916666D01*
X92833333Y-169950000D01*
X92800000Y-170016666D01*
X92800000Y-170183333D01*
X92833333Y-170250000D01*
X92866666Y-170283333D01*
X92933333Y-170316666D01*
X93133333Y-170316666D01*
X93200000Y-170283333D01*
X93233333Y-170250000D01*
X92200000Y-169850000D02*
X92200000Y-170316666D01*
X92366666Y-169583333D02*
X92533333Y-170083333D01*
X92100000Y-170083333D01*
X93750000Y-183566666D02*
X94083333Y-183566666D01*
X94083333Y-182866666D01*
X93583333Y-182866666D02*
X93150000Y-182866666D01*
X93383333Y-183133333D01*
X93283333Y-183133333D01*
X93216666Y-183166666D01*
X93183333Y-183200000D01*
X93150000Y-183266666D01*
X93150000Y-183433333D01*
X93183333Y-183500000D01*
X93216666Y-183533333D01*
X93283333Y-183566666D01*
X93483333Y-183566666D01*
X93550000Y-183533333D01*
X93583333Y-183500000D01*
X92550000Y-182866666D02*
X92683333Y-182866666D01*
X92750000Y-182900000D01*
X92783333Y-182933333D01*
X92850000Y-183033333D01*
X92883333Y-183166666D01*
X92883333Y-183433333D01*
X92850000Y-183500000D01*
X92816666Y-183533333D01*
X92750000Y-183566666D01*
X92616666Y-183566666D01*
X92550000Y-183533333D01*
X92516666Y-183500000D01*
X92483333Y-183433333D01*
X92483333Y-183266666D01*
X92516666Y-183200000D01*
X92550000Y-183166666D01*
X92616666Y-183133333D01*
X92750000Y-183133333D01*
X92816666Y-183166666D01*
X92850000Y-183200000D01*
X92883333Y-183266666D01*
X53916666Y-173100000D02*
X53583333Y-172866666D01*
X53916666Y-172700000D02*
X53216666Y-172700000D01*
X53216666Y-172966666D01*
X53250000Y-173033333D01*
X53283333Y-173066666D01*
X53350000Y-173100000D01*
X53450000Y-173100000D01*
X53516666Y-173066666D01*
X53550000Y-173033333D01*
X53583333Y-172966666D01*
X53583333Y-172700000D01*
X53516666Y-173500000D02*
X53483333Y-173433333D01*
X53450000Y-173400000D01*
X53383333Y-173366666D01*
X53350000Y-173366666D01*
X53283333Y-173400000D01*
X53250000Y-173433333D01*
X53216666Y-173500000D01*
X53216666Y-173633333D01*
X53250000Y-173700000D01*
X53283333Y-173733333D01*
X53350000Y-173766666D01*
X53383333Y-173766666D01*
X53450000Y-173733333D01*
X53483333Y-173700000D01*
X53516666Y-173633333D01*
X53516666Y-173500000D01*
X53550000Y-173433333D01*
X53583333Y-173400000D01*
X53650000Y-173366666D01*
X53783333Y-173366666D01*
X53850000Y-173400000D01*
X53883333Y-173433333D01*
X53916666Y-173500000D01*
X53916666Y-173633333D01*
X53883333Y-173700000D01*
X53850000Y-173733333D01*
X53783333Y-173766666D01*
X53650000Y-173766666D01*
X53583333Y-173733333D01*
X53550000Y-173700000D01*
X53516666Y-173633333D01*
X53916666Y-174100000D02*
X53916666Y-174233333D01*
X53883333Y-174300000D01*
X53850000Y-174333333D01*
X53750000Y-174400000D01*
X53616666Y-174433333D01*
X53350000Y-174433333D01*
X53283333Y-174400000D01*
X53250000Y-174366666D01*
X53216666Y-174300000D01*
X53216666Y-174166666D01*
X53250000Y-174100000D01*
X53283333Y-174066666D01*
X53350000Y-174033333D01*
X53516666Y-174033333D01*
X53583333Y-174066666D01*
X53616666Y-174100000D01*
X53650000Y-174166666D01*
X53650000Y-174300000D01*
X53616666Y-174366666D01*
X53583333Y-174400000D01*
X53516666Y-174433333D01*
X55600000Y-177716666D02*
X55833333Y-177383333D01*
X56000000Y-177716666D02*
X56000000Y-177016666D01*
X55733333Y-177016666D01*
X55666666Y-177050000D01*
X55633333Y-177083333D01*
X55600000Y-177150000D01*
X55600000Y-177250000D01*
X55633333Y-177316666D01*
X55666666Y-177350000D01*
X55733333Y-177383333D01*
X56000000Y-177383333D01*
X55266666Y-177716666D02*
X55133333Y-177716666D01*
X55066666Y-177683333D01*
X55033333Y-177650000D01*
X54966666Y-177550000D01*
X54933333Y-177416666D01*
X54933333Y-177150000D01*
X54966666Y-177083333D01*
X55000000Y-177050000D01*
X55066666Y-177016666D01*
X55200000Y-177016666D01*
X55266666Y-177050000D01*
X55300000Y-177083333D01*
X55333333Y-177150000D01*
X55333333Y-177316666D01*
X55300000Y-177383333D01*
X55266666Y-177416666D01*
X55200000Y-177450000D01*
X55066666Y-177450000D01*
X55000000Y-177416666D01*
X54966666Y-177383333D01*
X54933333Y-177316666D01*
X54266666Y-177716666D02*
X54666666Y-177716666D01*
X54466666Y-177716666D02*
X54466666Y-177016666D01*
X54533333Y-177116666D01*
X54600000Y-177183333D01*
X54666666Y-177216666D01*
X57300000Y-151500000D02*
X57333333Y-151533333D01*
X57433333Y-151566666D01*
X57500000Y-151566666D01*
X57600000Y-151533333D01*
X57666666Y-151466666D01*
X57700000Y-151400000D01*
X57733333Y-151266666D01*
X57733333Y-151166666D01*
X57700000Y-151033333D01*
X57666666Y-150966666D01*
X57600000Y-150900000D01*
X57500000Y-150866666D01*
X57433333Y-150866666D01*
X57333333Y-150900000D01*
X57300000Y-150933333D01*
X57066666Y-150866666D02*
X56633333Y-150866666D01*
X56866666Y-151133333D01*
X56766666Y-151133333D01*
X56700000Y-151166666D01*
X56666666Y-151200000D01*
X56633333Y-151266666D01*
X56633333Y-151433333D01*
X56666666Y-151500000D01*
X56700000Y-151533333D01*
X56766666Y-151566666D01*
X56966666Y-151566666D01*
X57033333Y-151533333D01*
X57066666Y-151500000D01*
X56400000Y-150866666D02*
X55966666Y-150866666D01*
X56200000Y-151133333D01*
X56100000Y-151133333D01*
X56033333Y-151166666D01*
X56000000Y-151200000D01*
X55966666Y-151266666D01*
X55966666Y-151433333D01*
X56000000Y-151500000D01*
X56033333Y-151533333D01*
X56100000Y-151566666D01*
X56300000Y-151566666D01*
X56366666Y-151533333D01*
X56400000Y-151500000D01*
X73250000Y-141600000D02*
X73283333Y-141566666D01*
X73316666Y-141466666D01*
X73316666Y-141400000D01*
X73283333Y-141300000D01*
X73216666Y-141233333D01*
X73150000Y-141200000D01*
X73016666Y-141166666D01*
X72916666Y-141166666D01*
X72783333Y-141200000D01*
X72716666Y-141233333D01*
X72650000Y-141300000D01*
X72616666Y-141400000D01*
X72616666Y-141466666D01*
X72650000Y-141566666D01*
X72683333Y-141600000D01*
X72616666Y-141833333D02*
X72616666Y-142300000D01*
X73316666Y-142000000D01*
X73316666Y-142600000D02*
X73316666Y-142733333D01*
X73283333Y-142800000D01*
X73250000Y-142833333D01*
X73150000Y-142900000D01*
X73016666Y-142933333D01*
X72750000Y-142933333D01*
X72683333Y-142900000D01*
X72650000Y-142866666D01*
X72616666Y-142800000D01*
X72616666Y-142666666D01*
X72650000Y-142600000D01*
X72683333Y-142566666D01*
X72750000Y-142533333D01*
X72916666Y-142533333D01*
X72983333Y-142566666D01*
X73016666Y-142600000D01*
X73050000Y-142666666D01*
X73050000Y-142800000D01*
X73016666Y-142866666D01*
X72983333Y-142900000D01*
X72916666Y-142933333D01*
X71600000Y-141100000D02*
X71633333Y-141066666D01*
X71666666Y-140966666D01*
X71666666Y-140900000D01*
X71633333Y-140800000D01*
X71566666Y-140733333D01*
X71500000Y-140700000D01*
X71366666Y-140666666D01*
X71266666Y-140666666D01*
X71133333Y-140700000D01*
X71066666Y-140733333D01*
X71000000Y-140800000D01*
X70966666Y-140900000D01*
X70966666Y-140966666D01*
X71000000Y-141066666D01*
X71033333Y-141100000D01*
X71266666Y-141500000D02*
X71233333Y-141433333D01*
X71200000Y-141400000D01*
X71133333Y-141366666D01*
X71100000Y-141366666D01*
X71033333Y-141400000D01*
X71000000Y-141433333D01*
X70966666Y-141500000D01*
X70966666Y-141633333D01*
X71000000Y-141700000D01*
X71033333Y-141733333D01*
X71100000Y-141766666D01*
X71133333Y-141766666D01*
X71200000Y-141733333D01*
X71233333Y-141700000D01*
X71266666Y-141633333D01*
X71266666Y-141500000D01*
X71300000Y-141433333D01*
X71333333Y-141400000D01*
X71400000Y-141366666D01*
X71533333Y-141366666D01*
X71600000Y-141400000D01*
X71633333Y-141433333D01*
X71666666Y-141500000D01*
X71666666Y-141633333D01*
X71633333Y-141700000D01*
X71600000Y-141733333D01*
X71533333Y-141766666D01*
X71400000Y-141766666D01*
X71333333Y-141733333D01*
X71300000Y-141700000D01*
X71266666Y-141633333D01*
X70966666Y-142200000D02*
X70966666Y-142266666D01*
X71000000Y-142333333D01*
X71033333Y-142366666D01*
X71100000Y-142400000D01*
X71233333Y-142433333D01*
X71400000Y-142433333D01*
X71533333Y-142400000D01*
X71600000Y-142366666D01*
X71633333Y-142333333D01*
X71666666Y-142266666D01*
X71666666Y-142200000D01*
X71633333Y-142133333D01*
X71600000Y-142100000D01*
X71533333Y-142066666D01*
X71400000Y-142033333D01*
X71233333Y-142033333D01*
X71100000Y-142066666D01*
X71033333Y-142100000D01*
X71000000Y-142133333D01*
X70966666Y-142200000D01*
X76350000Y-135050000D02*
X76383333Y-135016666D01*
X76416666Y-134916666D01*
X76416666Y-134850000D01*
X76383333Y-134750000D01*
X76316666Y-134683333D01*
X76250000Y-134650000D01*
X76116666Y-134616666D01*
X76016666Y-134616666D01*
X75883333Y-134650000D01*
X75816666Y-134683333D01*
X75750000Y-134750000D01*
X75716666Y-134850000D01*
X75716666Y-134916666D01*
X75750000Y-135016666D01*
X75783333Y-135050000D01*
X76016666Y-135450000D02*
X75983333Y-135383333D01*
X75950000Y-135350000D01*
X75883333Y-135316666D01*
X75850000Y-135316666D01*
X75783333Y-135350000D01*
X75750000Y-135383333D01*
X75716666Y-135450000D01*
X75716666Y-135583333D01*
X75750000Y-135650000D01*
X75783333Y-135683333D01*
X75850000Y-135716666D01*
X75883333Y-135716666D01*
X75950000Y-135683333D01*
X75983333Y-135650000D01*
X76016666Y-135583333D01*
X76016666Y-135450000D01*
X76050000Y-135383333D01*
X76083333Y-135350000D01*
X76150000Y-135316666D01*
X76283333Y-135316666D01*
X76350000Y-135350000D01*
X76383333Y-135383333D01*
X76416666Y-135450000D01*
X76416666Y-135583333D01*
X76383333Y-135650000D01*
X76350000Y-135683333D01*
X76283333Y-135716666D01*
X76150000Y-135716666D01*
X76083333Y-135683333D01*
X76050000Y-135650000D01*
X76016666Y-135583333D01*
X75783333Y-135983333D02*
X75750000Y-136016666D01*
X75716666Y-136083333D01*
X75716666Y-136250000D01*
X75750000Y-136316666D01*
X75783333Y-136350000D01*
X75850000Y-136383333D01*
X75916666Y-136383333D01*
X76016666Y-136350000D01*
X76416666Y-135950000D01*
X76416666Y-136383333D01*
X70750000Y-129250000D02*
X70783333Y-129216666D01*
X70816666Y-129116666D01*
X70816666Y-129050000D01*
X70783333Y-128950000D01*
X70716666Y-128883333D01*
X70650000Y-128850000D01*
X70516666Y-128816666D01*
X70416666Y-128816666D01*
X70283333Y-128850000D01*
X70216666Y-128883333D01*
X70150000Y-128950000D01*
X70116666Y-129050000D01*
X70116666Y-129116666D01*
X70150000Y-129216666D01*
X70183333Y-129250000D01*
X70416666Y-129650000D02*
X70383333Y-129583333D01*
X70350000Y-129550000D01*
X70283333Y-129516666D01*
X70250000Y-129516666D01*
X70183333Y-129550000D01*
X70150000Y-129583333D01*
X70116666Y-129650000D01*
X70116666Y-129783333D01*
X70150000Y-129850000D01*
X70183333Y-129883333D01*
X70250000Y-129916666D01*
X70283333Y-129916666D01*
X70350000Y-129883333D01*
X70383333Y-129850000D01*
X70416666Y-129783333D01*
X70416666Y-129650000D01*
X70450000Y-129583333D01*
X70483333Y-129550000D01*
X70550000Y-129516666D01*
X70683333Y-129516666D01*
X70750000Y-129550000D01*
X70783333Y-129583333D01*
X70816666Y-129650000D01*
X70816666Y-129783333D01*
X70783333Y-129850000D01*
X70750000Y-129883333D01*
X70683333Y-129916666D01*
X70550000Y-129916666D01*
X70483333Y-129883333D01*
X70450000Y-129850000D01*
X70416666Y-129783333D01*
X70116666Y-130550000D02*
X70116666Y-130216666D01*
X70450000Y-130183333D01*
X70416666Y-130216666D01*
X70383333Y-130283333D01*
X70383333Y-130450000D01*
X70416666Y-130516666D01*
X70450000Y-130550000D01*
X70516666Y-130583333D01*
X70683333Y-130583333D01*
X70750000Y-130550000D01*
X70783333Y-130516666D01*
X70816666Y-130450000D01*
X70816666Y-130283333D01*
X70783333Y-130216666D01*
X70750000Y-130183333D01*
X72400000Y-128500000D02*
X72433333Y-128466666D01*
X72466666Y-128366666D01*
X72466666Y-128300000D01*
X72433333Y-128200000D01*
X72366666Y-128133333D01*
X72300000Y-128100000D01*
X72166666Y-128066666D01*
X72066666Y-128066666D01*
X71933333Y-128100000D01*
X71866666Y-128133333D01*
X71800000Y-128200000D01*
X71766666Y-128300000D01*
X71766666Y-128366666D01*
X71800000Y-128466666D01*
X71833333Y-128500000D01*
X72066666Y-128900000D02*
X72033333Y-128833333D01*
X72000000Y-128800000D01*
X71933333Y-128766666D01*
X71900000Y-128766666D01*
X71833333Y-128800000D01*
X71800000Y-128833333D01*
X71766666Y-128900000D01*
X71766666Y-129033333D01*
X71800000Y-129100000D01*
X71833333Y-129133333D01*
X71900000Y-129166666D01*
X71933333Y-129166666D01*
X72000000Y-129133333D01*
X72033333Y-129100000D01*
X72066666Y-129033333D01*
X72066666Y-128900000D01*
X72100000Y-128833333D01*
X72133333Y-128800000D01*
X72200000Y-128766666D01*
X72333333Y-128766666D01*
X72400000Y-128800000D01*
X72433333Y-128833333D01*
X72466666Y-128900000D01*
X72466666Y-129033333D01*
X72433333Y-129100000D01*
X72400000Y-129133333D01*
X72333333Y-129166666D01*
X72200000Y-129166666D01*
X72133333Y-129133333D01*
X72100000Y-129100000D01*
X72066666Y-129033333D01*
X71766666Y-129766666D02*
X71766666Y-129633333D01*
X71800000Y-129566666D01*
X71833333Y-129533333D01*
X71933333Y-129466666D01*
X72066666Y-129433333D01*
X72333333Y-129433333D01*
X72400000Y-129466666D01*
X72433333Y-129500000D01*
X72466666Y-129566666D01*
X72466666Y-129700000D01*
X72433333Y-129766666D01*
X72400000Y-129800000D01*
X72333333Y-129833333D01*
X72166666Y-129833333D01*
X72100000Y-129800000D01*
X72066666Y-129766666D01*
X72033333Y-129700000D01*
X72033333Y-129566666D01*
X72066666Y-129500000D01*
X72100000Y-129466666D01*
X72166666Y-129433333D01*
X55183333Y-181300000D02*
X55216666Y-181333333D01*
X55316666Y-181366666D01*
X55383333Y-181366666D01*
X55483333Y-181333333D01*
X55550000Y-181266666D01*
X55583333Y-181200000D01*
X55616666Y-181066666D01*
X55616666Y-180966666D01*
X55583333Y-180833333D01*
X55550000Y-180766666D01*
X55483333Y-180700000D01*
X55383333Y-180666666D01*
X55316666Y-180666666D01*
X55216666Y-180700000D01*
X55183333Y-180733333D01*
X54516666Y-181366666D02*
X54916666Y-181366666D01*
X54716666Y-181366666D02*
X54716666Y-180666666D01*
X54783333Y-180766666D01*
X54850000Y-180833333D01*
X54916666Y-180866666D01*
X54083333Y-180666666D02*
X54016666Y-180666666D01*
X53950000Y-180700000D01*
X53916666Y-180733333D01*
X53883333Y-180800000D01*
X53850000Y-180933333D01*
X53850000Y-181100000D01*
X53883333Y-181233333D01*
X53916666Y-181300000D01*
X53950000Y-181333333D01*
X54016666Y-181366666D01*
X54083333Y-181366666D01*
X54150000Y-181333333D01*
X54183333Y-181300000D01*
X54216666Y-181233333D01*
X54250000Y-181100000D01*
X54250000Y-180933333D01*
X54216666Y-180800000D01*
X54183333Y-180733333D01*
X54150000Y-180700000D01*
X54083333Y-180666666D01*
X53516666Y-181366666D02*
X53383333Y-181366666D01*
X53316666Y-181333333D01*
X53283333Y-181300000D01*
X53216666Y-181200000D01*
X53183333Y-181066666D01*
X53183333Y-180800000D01*
X53216666Y-180733333D01*
X53250000Y-180700000D01*
X53316666Y-180666666D01*
X53450000Y-180666666D01*
X53516666Y-180700000D01*
X53550000Y-180733333D01*
X53583333Y-180800000D01*
X53583333Y-180966666D01*
X53550000Y-181033333D01*
X53516666Y-181066666D01*
X53450000Y-181100000D01*
X53316666Y-181100000D01*
X53250000Y-181066666D01*
X53216666Y-181033333D01*
X53183333Y-180966666D01*
X70100000Y-171416666D02*
X70133333Y-171383333D01*
X70166666Y-171283333D01*
X70166666Y-171216666D01*
X70133333Y-171116666D01*
X70066666Y-171050000D01*
X70000000Y-171016666D01*
X69866666Y-170983333D01*
X69766666Y-170983333D01*
X69633333Y-171016666D01*
X69566666Y-171050000D01*
X69500000Y-171116666D01*
X69466666Y-171216666D01*
X69466666Y-171283333D01*
X69500000Y-171383333D01*
X69533333Y-171416666D01*
X70166666Y-172083333D02*
X70166666Y-171683333D01*
X70166666Y-171883333D02*
X69466666Y-171883333D01*
X69566666Y-171816666D01*
X69633333Y-171750000D01*
X69666666Y-171683333D01*
X69533333Y-172350000D02*
X69500000Y-172383333D01*
X69466666Y-172450000D01*
X69466666Y-172616666D01*
X69500000Y-172683333D01*
X69533333Y-172716666D01*
X69600000Y-172750000D01*
X69666666Y-172750000D01*
X69766666Y-172716666D01*
X70166666Y-172316666D01*
X70166666Y-172750000D01*
X69466666Y-173383333D02*
X69466666Y-173050000D01*
X69800000Y-173016666D01*
X69766666Y-173050000D01*
X69733333Y-173116666D01*
X69733333Y-173283333D01*
X69766666Y-173350000D01*
X69800000Y-173383333D01*
X69866666Y-173416666D01*
X70033333Y-173416666D01*
X70100000Y-173383333D01*
X70133333Y-173350000D01*
X70166666Y-173283333D01*
X70166666Y-173116666D01*
X70133333Y-173050000D01*
X70100000Y-173016666D01*
X68300000Y-170716666D02*
X68333333Y-170683333D01*
X68366666Y-170583333D01*
X68366666Y-170516666D01*
X68333333Y-170416666D01*
X68266666Y-170350000D01*
X68200000Y-170316666D01*
X68066666Y-170283333D01*
X67966666Y-170283333D01*
X67833333Y-170316666D01*
X67766666Y-170350000D01*
X67700000Y-170416666D01*
X67666666Y-170516666D01*
X67666666Y-170583333D01*
X67700000Y-170683333D01*
X67733333Y-170716666D01*
X68366666Y-171383333D02*
X68366666Y-170983333D01*
X68366666Y-171183333D02*
X67666666Y-171183333D01*
X67766666Y-171116666D01*
X67833333Y-171050000D01*
X67866666Y-170983333D01*
X67733333Y-171650000D02*
X67700000Y-171683333D01*
X67666666Y-171750000D01*
X67666666Y-171916666D01*
X67700000Y-171983333D01*
X67733333Y-172016666D01*
X67800000Y-172050000D01*
X67866666Y-172050000D01*
X67966666Y-172016666D01*
X68366666Y-171616666D01*
X68366666Y-172050000D01*
X67666666Y-172650000D02*
X67666666Y-172516666D01*
X67700000Y-172450000D01*
X67733333Y-172416666D01*
X67833333Y-172350000D01*
X67966666Y-172316666D01*
X68233333Y-172316666D01*
X68300000Y-172350000D01*
X68333333Y-172383333D01*
X68366666Y-172450000D01*
X68366666Y-172583333D01*
X68333333Y-172650000D01*
X68300000Y-172683333D01*
X68233333Y-172716666D01*
X68066666Y-172716666D01*
X68000000Y-172683333D01*
X67966666Y-172650000D01*
X67933333Y-172583333D01*
X67933333Y-172450000D01*
X67966666Y-172383333D01*
X68000000Y-172350000D01*
X68066666Y-172316666D01*
X72150000Y-164566666D02*
X72183333Y-164533333D01*
X72216666Y-164433333D01*
X72216666Y-164366666D01*
X72183333Y-164266666D01*
X72116666Y-164200000D01*
X72050000Y-164166666D01*
X71916666Y-164133333D01*
X71816666Y-164133333D01*
X71683333Y-164166666D01*
X71616666Y-164200000D01*
X71550000Y-164266666D01*
X71516666Y-164366666D01*
X71516666Y-164433333D01*
X71550000Y-164533333D01*
X71583333Y-164566666D01*
X72216666Y-165233333D02*
X72216666Y-164833333D01*
X72216666Y-165033333D02*
X71516666Y-165033333D01*
X71616666Y-164966666D01*
X71683333Y-164900000D01*
X71716666Y-164833333D01*
X71583333Y-165500000D02*
X71550000Y-165533333D01*
X71516666Y-165600000D01*
X71516666Y-165766666D01*
X71550000Y-165833333D01*
X71583333Y-165866666D01*
X71650000Y-165900000D01*
X71716666Y-165900000D01*
X71816666Y-165866666D01*
X72216666Y-165466666D01*
X72216666Y-165900000D01*
X71816666Y-166300000D02*
X71783333Y-166233333D01*
X71750000Y-166200000D01*
X71683333Y-166166666D01*
X71650000Y-166166666D01*
X71583333Y-166200000D01*
X71550000Y-166233333D01*
X71516666Y-166300000D01*
X71516666Y-166433333D01*
X71550000Y-166500000D01*
X71583333Y-166533333D01*
X71650000Y-166566666D01*
X71683333Y-166566666D01*
X71750000Y-166533333D01*
X71783333Y-166500000D01*
X71816666Y-166433333D01*
X71816666Y-166300000D01*
X71850000Y-166233333D01*
X71883333Y-166200000D01*
X71950000Y-166166666D01*
X72083333Y-166166666D01*
X72150000Y-166200000D01*
X72183333Y-166233333D01*
X72216666Y-166300000D01*
X72216666Y-166433333D01*
X72183333Y-166500000D01*
X72150000Y-166533333D01*
X72083333Y-166566666D01*
X71950000Y-166566666D01*
X71883333Y-166533333D01*
X71850000Y-166500000D01*
X71816666Y-166433333D01*
X67350000Y-158416666D02*
X67383333Y-158383333D01*
X67416666Y-158283333D01*
X67416666Y-158216666D01*
X67383333Y-158116666D01*
X67316666Y-158050000D01*
X67250000Y-158016666D01*
X67116666Y-157983333D01*
X67016666Y-157983333D01*
X66883333Y-158016666D01*
X66816666Y-158050000D01*
X66750000Y-158116666D01*
X66716666Y-158216666D01*
X66716666Y-158283333D01*
X66750000Y-158383333D01*
X66783333Y-158416666D01*
X67416666Y-159083333D02*
X67416666Y-158683333D01*
X67416666Y-158883333D02*
X66716666Y-158883333D01*
X66816666Y-158816666D01*
X66883333Y-158750000D01*
X66916666Y-158683333D01*
X66716666Y-159316666D02*
X66716666Y-159750000D01*
X66983333Y-159516666D01*
X66983333Y-159616666D01*
X67016666Y-159683333D01*
X67050000Y-159716666D01*
X67116666Y-159750000D01*
X67283333Y-159750000D01*
X67350000Y-159716666D01*
X67383333Y-159683333D01*
X67416666Y-159616666D01*
X67416666Y-159416666D01*
X67383333Y-159350000D01*
X67350000Y-159316666D01*
X67416666Y-160416666D02*
X67416666Y-160016666D01*
X67416666Y-160216666D02*
X66716666Y-160216666D01*
X66816666Y-160150000D01*
X66883333Y-160083333D01*
X66916666Y-160016666D01*
X68800000Y-157766666D02*
X68833333Y-157733333D01*
X68866666Y-157633333D01*
X68866666Y-157566666D01*
X68833333Y-157466666D01*
X68766666Y-157400000D01*
X68700000Y-157366666D01*
X68566666Y-157333333D01*
X68466666Y-157333333D01*
X68333333Y-157366666D01*
X68266666Y-157400000D01*
X68200000Y-157466666D01*
X68166666Y-157566666D01*
X68166666Y-157633333D01*
X68200000Y-157733333D01*
X68233333Y-157766666D01*
X68866666Y-158433333D02*
X68866666Y-158033333D01*
X68866666Y-158233333D02*
X68166666Y-158233333D01*
X68266666Y-158166666D01*
X68333333Y-158100000D01*
X68366666Y-158033333D01*
X68166666Y-158666666D02*
X68166666Y-159100000D01*
X68433333Y-158866666D01*
X68433333Y-158966666D01*
X68466666Y-159033333D01*
X68500000Y-159066666D01*
X68566666Y-159100000D01*
X68733333Y-159100000D01*
X68800000Y-159066666D01*
X68833333Y-159033333D01*
X68866666Y-158966666D01*
X68866666Y-158766666D01*
X68833333Y-158700000D01*
X68800000Y-158666666D01*
X68233333Y-159366666D02*
X68200000Y-159400000D01*
X68166666Y-159466666D01*
X68166666Y-159633333D01*
X68200000Y-159700000D01*
X68233333Y-159733333D01*
X68300000Y-159766666D01*
X68366666Y-159766666D01*
X68466666Y-159733333D01*
X68866666Y-159333333D01*
X68866666Y-159766666D01*
X44433333Y-120300000D02*
X44466666Y-120333333D01*
X44566666Y-120366666D01*
X44633333Y-120366666D01*
X44733333Y-120333333D01*
X44800000Y-120266666D01*
X44833333Y-120200000D01*
X44866666Y-120066666D01*
X44866666Y-119966666D01*
X44833333Y-119833333D01*
X44800000Y-119766666D01*
X44733333Y-119700000D01*
X44633333Y-119666666D01*
X44566666Y-119666666D01*
X44466666Y-119700000D01*
X44433333Y-119733333D01*
X43766666Y-120366666D02*
X44166666Y-120366666D01*
X43966666Y-120366666D02*
X43966666Y-119666666D01*
X44033333Y-119766666D01*
X44100000Y-119833333D01*
X44166666Y-119866666D01*
X43533333Y-119666666D02*
X43100000Y-119666666D01*
X43333333Y-119933333D01*
X43233333Y-119933333D01*
X43166666Y-119966666D01*
X43133333Y-120000000D01*
X43100000Y-120066666D01*
X43100000Y-120233333D01*
X43133333Y-120300000D01*
X43166666Y-120333333D01*
X43233333Y-120366666D01*
X43433333Y-120366666D01*
X43500000Y-120333333D01*
X43533333Y-120300000D01*
X42866666Y-119666666D02*
X42433333Y-119666666D01*
X42666666Y-119933333D01*
X42566666Y-119933333D01*
X42500000Y-119966666D01*
X42466666Y-120000000D01*
X42433333Y-120066666D01*
X42433333Y-120233333D01*
X42466666Y-120300000D01*
X42500000Y-120333333D01*
X42566666Y-120366666D01*
X42766666Y-120366666D01*
X42833333Y-120333333D01*
X42866666Y-120300000D01*
X59650000Y-110766666D02*
X59683333Y-110733333D01*
X59716666Y-110633333D01*
X59716666Y-110566666D01*
X59683333Y-110466666D01*
X59616666Y-110400000D01*
X59550000Y-110366666D01*
X59416666Y-110333333D01*
X59316666Y-110333333D01*
X59183333Y-110366666D01*
X59116666Y-110400000D01*
X59050000Y-110466666D01*
X59016666Y-110566666D01*
X59016666Y-110633333D01*
X59050000Y-110733333D01*
X59083333Y-110766666D01*
X59716666Y-111433333D02*
X59716666Y-111033333D01*
X59716666Y-111233333D02*
X59016666Y-111233333D01*
X59116666Y-111166666D01*
X59183333Y-111100000D01*
X59216666Y-111033333D01*
X59016666Y-111666666D02*
X59016666Y-112100000D01*
X59283333Y-111866666D01*
X59283333Y-111966666D01*
X59316666Y-112033333D01*
X59350000Y-112066666D01*
X59416666Y-112100000D01*
X59583333Y-112100000D01*
X59650000Y-112066666D01*
X59683333Y-112033333D01*
X59716666Y-111966666D01*
X59716666Y-111766666D01*
X59683333Y-111700000D01*
X59650000Y-111666666D01*
X59016666Y-112733333D02*
X59016666Y-112400000D01*
X59350000Y-112366666D01*
X59316666Y-112400000D01*
X59283333Y-112466666D01*
X59283333Y-112633333D01*
X59316666Y-112700000D01*
X59350000Y-112733333D01*
X59416666Y-112766666D01*
X59583333Y-112766666D01*
X59650000Y-112733333D01*
X59683333Y-112700000D01*
X59716666Y-112633333D01*
X59716666Y-112466666D01*
X59683333Y-112400000D01*
X59650000Y-112366666D01*
X58050000Y-110116666D02*
X58083333Y-110083333D01*
X58116666Y-109983333D01*
X58116666Y-109916666D01*
X58083333Y-109816666D01*
X58016666Y-109750000D01*
X57950000Y-109716666D01*
X57816666Y-109683333D01*
X57716666Y-109683333D01*
X57583333Y-109716666D01*
X57516666Y-109750000D01*
X57450000Y-109816666D01*
X57416666Y-109916666D01*
X57416666Y-109983333D01*
X57450000Y-110083333D01*
X57483333Y-110116666D01*
X58116666Y-110783333D02*
X58116666Y-110383333D01*
X58116666Y-110583333D02*
X57416666Y-110583333D01*
X57516666Y-110516666D01*
X57583333Y-110450000D01*
X57616666Y-110383333D01*
X57416666Y-111016666D02*
X57416666Y-111450000D01*
X57683333Y-111216666D01*
X57683333Y-111316666D01*
X57716666Y-111383333D01*
X57750000Y-111416666D01*
X57816666Y-111450000D01*
X57983333Y-111450000D01*
X58050000Y-111416666D01*
X58083333Y-111383333D01*
X58116666Y-111316666D01*
X58116666Y-111116666D01*
X58083333Y-111050000D01*
X58050000Y-111016666D01*
X57416666Y-112050000D02*
X57416666Y-111916666D01*
X57450000Y-111850000D01*
X57483333Y-111816666D01*
X57583333Y-111750000D01*
X57716666Y-111716666D01*
X57983333Y-111716666D01*
X58050000Y-111750000D01*
X58083333Y-111783333D01*
X58116666Y-111850000D01*
X58116666Y-111983333D01*
X58083333Y-112050000D01*
X58050000Y-112083333D01*
X57983333Y-112116666D01*
X57816666Y-112116666D01*
X57750000Y-112083333D01*
X57716666Y-112050000D01*
X57683333Y-111983333D01*
X57683333Y-111850000D01*
X57716666Y-111783333D01*
X57750000Y-111750000D01*
X57816666Y-111716666D01*
X62300000Y-103716666D02*
X62333333Y-103683333D01*
X62366666Y-103583333D01*
X62366666Y-103516666D01*
X62333333Y-103416666D01*
X62266666Y-103350000D01*
X62200000Y-103316666D01*
X62066666Y-103283333D01*
X61966666Y-103283333D01*
X61833333Y-103316666D01*
X61766666Y-103350000D01*
X61700000Y-103416666D01*
X61666666Y-103516666D01*
X61666666Y-103583333D01*
X61700000Y-103683333D01*
X61733333Y-103716666D01*
X62366666Y-104383333D02*
X62366666Y-103983333D01*
X62366666Y-104183333D02*
X61666666Y-104183333D01*
X61766666Y-104116666D01*
X61833333Y-104050000D01*
X61866666Y-103983333D01*
X61666666Y-104616666D02*
X61666666Y-105050000D01*
X61933333Y-104816666D01*
X61933333Y-104916666D01*
X61966666Y-104983333D01*
X62000000Y-105016666D01*
X62066666Y-105050000D01*
X62233333Y-105050000D01*
X62300000Y-105016666D01*
X62333333Y-104983333D01*
X62366666Y-104916666D01*
X62366666Y-104716666D01*
X62333333Y-104650000D01*
X62300000Y-104616666D01*
X61966666Y-105450000D02*
X61933333Y-105383333D01*
X61900000Y-105350000D01*
X61833333Y-105316666D01*
X61800000Y-105316666D01*
X61733333Y-105350000D01*
X61700000Y-105383333D01*
X61666666Y-105450000D01*
X61666666Y-105583333D01*
X61700000Y-105650000D01*
X61733333Y-105683333D01*
X61800000Y-105716666D01*
X61833333Y-105716666D01*
X61900000Y-105683333D01*
X61933333Y-105650000D01*
X61966666Y-105583333D01*
X61966666Y-105450000D01*
X62000000Y-105383333D01*
X62033333Y-105350000D01*
X62100000Y-105316666D01*
X62233333Y-105316666D01*
X62300000Y-105350000D01*
X62333333Y-105383333D01*
X62366666Y-105450000D01*
X62366666Y-105583333D01*
X62333333Y-105650000D01*
X62300000Y-105683333D01*
X62233333Y-105716666D01*
X62100000Y-105716666D01*
X62033333Y-105683333D01*
X62000000Y-105650000D01*
X61966666Y-105583333D01*
X56650000Y-97516666D02*
X56683333Y-97483333D01*
X56716666Y-97383333D01*
X56716666Y-97316666D01*
X56683333Y-97216666D01*
X56616666Y-97150000D01*
X56550000Y-97116666D01*
X56416666Y-97083333D01*
X56316666Y-97083333D01*
X56183333Y-97116666D01*
X56116666Y-97150000D01*
X56050000Y-97216666D01*
X56016666Y-97316666D01*
X56016666Y-97383333D01*
X56050000Y-97483333D01*
X56083333Y-97516666D01*
X56716666Y-98183333D02*
X56716666Y-97783333D01*
X56716666Y-97983333D02*
X56016666Y-97983333D01*
X56116666Y-97916666D01*
X56183333Y-97850000D01*
X56216666Y-97783333D01*
X56250000Y-98783333D02*
X56716666Y-98783333D01*
X55983333Y-98616666D02*
X56483333Y-98450000D01*
X56483333Y-98883333D01*
X56016666Y-99483333D02*
X56016666Y-99150000D01*
X56350000Y-99116666D01*
X56316666Y-99150000D01*
X56283333Y-99216666D01*
X56283333Y-99383333D01*
X56316666Y-99450000D01*
X56350000Y-99483333D01*
X56416666Y-99516666D01*
X56583333Y-99516666D01*
X56650000Y-99483333D01*
X56683333Y-99450000D01*
X56716666Y-99383333D01*
X56716666Y-99216666D01*
X56683333Y-99150000D01*
X56650000Y-99116666D01*
X59383333Y-98900000D02*
X59416666Y-98933333D01*
X59516666Y-98966666D01*
X59583333Y-98966666D01*
X59683333Y-98933333D01*
X59750000Y-98866666D01*
X59783333Y-98800000D01*
X59816666Y-98666666D01*
X59816666Y-98566666D01*
X59783333Y-98433333D01*
X59750000Y-98366666D01*
X59683333Y-98300000D01*
X59583333Y-98266666D01*
X59516666Y-98266666D01*
X59416666Y-98300000D01*
X59383333Y-98333333D01*
X58716666Y-98966666D02*
X59116666Y-98966666D01*
X58916666Y-98966666D02*
X58916666Y-98266666D01*
X58983333Y-98366666D01*
X59050000Y-98433333D01*
X59116666Y-98466666D01*
X58116666Y-98500000D02*
X58116666Y-98966666D01*
X58283333Y-98233333D02*
X58450000Y-98733333D01*
X58016666Y-98733333D01*
X57450000Y-98266666D02*
X57583333Y-98266666D01*
X57650000Y-98300000D01*
X57683333Y-98333333D01*
X57750000Y-98433333D01*
X57783333Y-98566666D01*
X57783333Y-98833333D01*
X57750000Y-98900000D01*
X57716666Y-98933333D01*
X57650000Y-98966666D01*
X57516666Y-98966666D01*
X57450000Y-98933333D01*
X57416666Y-98900000D01*
X57383333Y-98833333D01*
X57383333Y-98666666D01*
X57416666Y-98600000D01*
X57450000Y-98566666D01*
X57516666Y-98533333D01*
X57650000Y-98533333D01*
X57716666Y-98566666D01*
X57750000Y-98600000D01*
X57783333Y-98666666D01*
X75116666Y-141950000D02*
X75116666Y-141616666D01*
X74416666Y-141616666D01*
X74416666Y-142116666D02*
X74416666Y-142550000D01*
X74683333Y-142316666D01*
X74683333Y-142416666D01*
X74716666Y-142483333D01*
X74750000Y-142516666D01*
X74816666Y-142550000D01*
X74983333Y-142550000D01*
X75050000Y-142516666D01*
X75083333Y-142483333D01*
X75116666Y-142416666D01*
X75116666Y-142216666D01*
X75083333Y-142150000D01*
X75050000Y-142116666D01*
X74416666Y-142783333D02*
X74416666Y-143250000D01*
X75116666Y-142950000D01*
X74266666Y-128300000D02*
X74266666Y-127966666D01*
X73566666Y-127966666D01*
X73566666Y-128466666D02*
X73566666Y-128900000D01*
X73833333Y-128666666D01*
X73833333Y-128766666D01*
X73866666Y-128833333D01*
X73900000Y-128866666D01*
X73966666Y-128900000D01*
X74133333Y-128900000D01*
X74200000Y-128866666D01*
X74233333Y-128833333D01*
X74266666Y-128766666D01*
X74266666Y-128566666D01*
X74233333Y-128500000D01*
X74200000Y-128466666D01*
X73866666Y-129300000D02*
X73833333Y-129233333D01*
X73800000Y-129200000D01*
X73733333Y-129166666D01*
X73700000Y-129166666D01*
X73633333Y-129200000D01*
X73600000Y-129233333D01*
X73566666Y-129300000D01*
X73566666Y-129433333D01*
X73600000Y-129500000D01*
X73633333Y-129533333D01*
X73700000Y-129566666D01*
X73733333Y-129566666D01*
X73800000Y-129533333D01*
X73833333Y-129500000D01*
X73866666Y-129433333D01*
X73866666Y-129300000D01*
X73900000Y-129233333D01*
X73933333Y-129200000D01*
X74000000Y-129166666D01*
X74133333Y-129166666D01*
X74200000Y-129200000D01*
X74233333Y-129233333D01*
X74266666Y-129300000D01*
X74266666Y-129433333D01*
X74233333Y-129500000D01*
X74200000Y-129533333D01*
X74133333Y-129566666D01*
X74000000Y-129566666D01*
X73933333Y-129533333D01*
X73900000Y-129500000D01*
X73866666Y-129433333D01*
X71916666Y-171750000D02*
X71916666Y-171416666D01*
X71216666Y-171416666D01*
X71216666Y-171916666D02*
X71216666Y-172350000D01*
X71483333Y-172116666D01*
X71483333Y-172216666D01*
X71516666Y-172283333D01*
X71550000Y-172316666D01*
X71616666Y-172350000D01*
X71783333Y-172350000D01*
X71850000Y-172316666D01*
X71883333Y-172283333D01*
X71916666Y-172216666D01*
X71916666Y-172016666D01*
X71883333Y-171950000D01*
X71850000Y-171916666D01*
X71916666Y-172683333D02*
X71916666Y-172816666D01*
X71883333Y-172883333D01*
X71850000Y-172916666D01*
X71750000Y-172983333D01*
X71616666Y-173016666D01*
X71350000Y-173016666D01*
X71283333Y-172983333D01*
X71250000Y-172950000D01*
X71216666Y-172883333D01*
X71216666Y-172750000D01*
X71250000Y-172683333D01*
X71283333Y-172650000D01*
X71350000Y-172616666D01*
X71516666Y-172616666D01*
X71583333Y-172650000D01*
X71616666Y-172683333D01*
X71650000Y-172750000D01*
X71650000Y-172883333D01*
X71616666Y-172950000D01*
X71583333Y-172983333D01*
X71516666Y-173016666D01*
X70866666Y-157950000D02*
X70866666Y-157616666D01*
X70166666Y-157616666D01*
X70400000Y-158483333D02*
X70866666Y-158483333D01*
X70133333Y-158316666D02*
X70633333Y-158150000D01*
X70633333Y-158583333D01*
X70166666Y-158983333D02*
X70166666Y-159050000D01*
X70200000Y-159116666D01*
X70233333Y-159150000D01*
X70300000Y-159183333D01*
X70433333Y-159216666D01*
X70600000Y-159216666D01*
X70733333Y-159183333D01*
X70800000Y-159150000D01*
X70833333Y-159116666D01*
X70866666Y-159050000D01*
X70866666Y-158983333D01*
X70833333Y-158916666D01*
X70800000Y-158883333D01*
X70733333Y-158850000D01*
X70600000Y-158816666D01*
X70433333Y-158816666D01*
X70300000Y-158850000D01*
X70233333Y-158883333D01*
X70200000Y-158916666D01*
X70166666Y-158983333D01*
X61616666Y-110800000D02*
X61616666Y-110466666D01*
X60916666Y-110466666D01*
X61150000Y-111333333D02*
X61616666Y-111333333D01*
X60883333Y-111166666D02*
X61383333Y-111000000D01*
X61383333Y-111433333D01*
X61616666Y-112066666D02*
X61616666Y-111666666D01*
X61616666Y-111866666D02*
X60916666Y-111866666D01*
X61016666Y-111800000D01*
X61083333Y-111733333D01*
X61116666Y-111666666D01*
X61766666Y-100400000D02*
X61766666Y-100066666D01*
X61066666Y-100066666D01*
X61300000Y-100933333D02*
X61766666Y-100933333D01*
X61033333Y-100766666D02*
X61533333Y-100600000D01*
X61533333Y-101033333D01*
X61133333Y-101266666D02*
X61100000Y-101300000D01*
X61066666Y-101366666D01*
X61066666Y-101533333D01*
X61100000Y-101600000D01*
X61133333Y-101633333D01*
X61200000Y-101666666D01*
X61266666Y-101666666D01*
X61366666Y-101633333D01*
X61766666Y-101233333D01*
X61766666Y-101666666D01*
M02*
