M48
; DRILL file {KiCad (5.1.5-0-10_14)} date Tuesday, May 04, 2021 at 01:32:52 PM
; FORMAT={-:-/ absolute / metric / decimal}
; #@! TF.CreationDate,2021-05-04T13:32:52-04:00
; #@! TF.GenerationSoftware,Kicad,Pcbnew,(5.1.5-0-10_14)
; #@! TF.FileFunction,Plated,1,4,PTH
FMAT,2
METRIC
T1C0.300
T2C0.400
T3C1.000
T4C1.300
T5C1.480
%
G90
G05
T1
X84.9Y-115.75
X95.65Y-121.0
X81.0Y-135.5
X61.4Y-175.95
X40.75Y-116.77
X46.5Y-118.04
X61.35Y-131.0
X86.55Y-182.6
X86.55Y-184.1
X48.15Y-99.65
X101.95Y-160.6
X81.95Y-97.8
X60.25Y-99.65
X71.1Y-107.45
X90.65Y-139.0
X90.65Y-140.5
X84.75Y-160.35
X86.25Y-160.35
X90.6Y-130.0
X77.85Y-164.85
X49.15Y-172.15
X49.95Y-99.55
X48.5Y-163.71
X51.75Y-119.55
X77.0Y-110.6
X77.0Y-112.1
X23.55Y-162.25
X55.45Y-174.95
X44.95Y-105.65
X46.85Y-103.45
X82.0Y-111.05
X58.8Y-160.1
X89.415Y-150.25
X90.685Y-144.85
X90.685Y-150.25
X58.2Y-140.2
X94.55Y-178.7
X68.1Y-168.1
X68.1Y-169.6
X108.625Y-126.425
X108.625Y-144.205
X108.625Y-145.475
X108.625Y-146.745
X109.895Y-128.965
X109.895Y-132.775
X109.895Y-134.045
X109.895Y-142.935
X111.165Y-126.425
X111.165Y-128.965
X111.165Y-130.235
X111.165Y-132.775
X111.165Y-134.045
X112.435Y-128.965
X113.705Y-126.425
X114.975Y-126.425
X114.975Y-130.235
X114.975Y-131.505
X114.975Y-134.045
X114.975Y-137.855
X114.975Y-141.665
X116.245Y-126.425
X116.245Y-130.235
X116.245Y-131.505
X116.245Y-134.045
X116.245Y-135.315
X116.245Y-137.855
X116.245Y-139.125
X116.245Y-141.665
X117.515Y-126.425
X117.515Y-134.045
X117.515Y-135.315
X117.515Y-137.855
X117.515Y-139.125
X117.515Y-141.665
X117.515Y-142.935
X83.3Y-137.25
X46.45Y-100.35
X53.45Y-171.7
X71.45Y-176.55
X57.75Y-107.45
X57.75Y-108.95
X75.5Y-98.65
X77.0Y-98.65
X50.3Y-151.05
X91.6Y-172.75
X104.1Y-130.75
X81.9Y-121.7
X61.75Y-115.35
X95.55Y-142.3
X61.25Y-109.65
X84.965Y-167.6
X77.0Y-121.05
X77.0Y-122.55
X86.3Y-170.85
X72.15Y-130.75
X98.6Y-135.2
X28.22Y-125.4
X55.7Y-152.7
X83.2Y-129.55
X21.8Y-127.395
X21.8Y-128.895
X75.1Y-109.35
X50.65Y-143.35
X52.25Y-171.7
X80.75Y-182.25
X68.8Y-160.45
X77.0Y-110.6
X51.05Y-134.96
X60.95Y-169.65
X75.765Y-119.3
X77.035Y-113.9
X77.035Y-119.3
X58.1Y-115.35
X78.95Y-162.2
X59.25Y-169.5
X22.8Y-152.5
X43.9Y-159.5
X43.9Y-165.7
X43.9Y-177.3
X43.9Y-184.5
X45.4Y-186.0
X45.5Y-158.0
X50.6Y-185.97
X50.7Y-158.0
X56.645Y-185.97
X62.69Y-185.97
X68.735Y-185.97
X74.78Y-185.97
X74.88Y-158.0
X80.825Y-185.97
X86.87Y-185.97
X86.97Y-158.0
X92.915Y-185.97
X93.015Y-158.0
X98.5Y-186.0
X98.8Y-158.0
X100.1Y-184.4
X100.25Y-172.0
X100.3Y-159.5
X71.45Y-138.4
X71.45Y-139.9
X30.9Y-135.8
X42.8Y-110.65
X48.75Y-116.45
X50.25Y-116.45
X51.475Y-177.97
X57.225Y-179.24
X44.225Y-92.95
X50.025Y-92.95
X55.7Y-169.05
X57.6Y-163.7
X70.55Y-160.15
X89.2Y-153.45
X89.365Y-137.25
X94.15Y-165.5
X98.65Y-146.75
X42.8Y-111.85
X56.8Y-100.3
X56.8Y-101.8
X60.1Y-138.4
X60.1Y-139.9
X67.9Y-113.85
X84.85Y-151.65
X96.0Y-139.85
X72.05Y-146.9
X47.5Y-182.15
X44.8Y-113.85
X46.1Y-129.0
X46.1Y-135.2
X46.1Y-146.8
X46.1Y-154.0
X47.6Y-155.5
X47.7Y-127.5
X52.8Y-155.47
X52.9Y-127.5
X58.845Y-155.47
X64.89Y-155.47
X70.935Y-155.47
X76.98Y-155.47
X77.08Y-127.5
X83.025Y-155.47
X89.07Y-155.47
X89.17Y-127.5
X95.115Y-155.47
X95.215Y-127.5
X100.7Y-155.5
X101.0Y-127.5
X102.3Y-153.9
X102.45Y-141.5
X102.5Y-129.0
X30.95Y-147.2
X38.5Y-102.93
X69.55Y-139.9
X46.45Y-100.35
X46.45Y-101.85
X56.1Y-145.45
X59.5Y-109.45
X69.5Y-99.0
X84.75Y-138.7
X79.3Y-172.45
X65.4Y-92.95
X71.2Y-92.95
X95.6Y-129.2
X71.6Y-170.35
X53.975Y-148.42
X59.725Y-149.69
X76.45Y-164.85
X20.995Y-186.675
X25.195Y-174.525
X26.465Y-174.525
X27.735Y-174.525
X30.275Y-174.525
X31.545Y-174.525
X32.815Y-174.525
X38.245Y-186.625
X105.6Y-130.75
X50.75Y-114.7
X66.05Y-103.55
X50.3Y-151.05
X51.8Y-151.05
X84.95Y-102.5
X84.9Y-117.2
X66.2Y-169.55
X91.55Y-183.2
X75.715Y-105.95
X91.15Y-170.0
X33.125Y-97.575
X33.125Y-103.775
X33.125Y-115.375
X33.125Y-122.575
X34.625Y-124.075
X34.725Y-96.075
X39.825Y-124.045
X39.925Y-96.075
X45.87Y-124.045
X51.915Y-124.045
X57.96Y-124.045
X64.005Y-124.045
X70.05Y-124.045
X76.095Y-124.045
X76.195Y-96.075
X82.14Y-124.045
X82.24Y-96.075
X87.725Y-124.075
X88.025Y-96.075
X89.325Y-122.475
X89.475Y-110.075
X89.525Y-97.575
X27.55Y-157.75
X95.75Y-152.7
X94.15Y-164.1
X30.95Y-140.8
X32.95Y-140.8
X46.8Y-107.3
X46.8Y-108.8
X48.75Y-116.45
X50.25Y-116.45
X67.3Y-103.55
X86.3Y-169.35
X69.8Y-170.15
X71.45Y-139.9
X63.1Y-130.8
X83.25Y-141.85
X73.95Y-130.55
X38.4Y-111.85
X55.85Y-108.95
X79.85Y-135.5
X75.85Y-146.9
X91.1Y-159.65
X23.0Y-131.0
X95.65Y-122.5
X47.85Y-180.5
X49.35Y-180.5
X53.65Y-175.3
X54.95Y-142.95
X61.8Y-140.45
X90.7Y-151.95
X90.7Y-153.45
X94.55Y-177.2
X80.4Y-169.05
X70.5Y-131.3
X70.5Y-132.8
X89.2Y-143.0
X90.7Y-143.0
X48.45Y-109.3
X44.95Y-108.8
X77.0Y-107.7
X77.0Y-109.2
X67.15Y-161.05
X67.15Y-162.55
X37.1Y-119.35
X38.6Y-119.35
X57.15Y-160.6
X57.15Y-162.1
X69.6Y-105.95
X50.2Y-109.55
X53.75Y-142.95
X84.85Y-170.9
X53.35Y-182.15
X73.1Y-140.35
X57.95Y-145.35
X59.4Y-177.65
X60.9Y-177.65
X59.7Y-131.5
X59.7Y-133.0
X85.315Y-180.9
X86.585Y-175.5
X86.585Y-180.9
X71.15Y-120.7
X60.55Y-159.9
X89.15Y-140.5
X98.6Y-133.75
X57.6Y-167.5
X57.6Y-169.0
X84.95Y-103.95
X49.8Y-152.7
X98.65Y-148.15
X85.1Y-173.6
X86.6Y-173.6
X62.5Y-180.75
X54.84Y-92.98
X60.64Y-92.98
X67.75Y-176.55
X36.7Y-121.0
X42.9Y-114.45
X63.85Y-146.4
X22.8Y-165.75
X22.8Y-169.75
X85.05Y-184.1
X46.8Y-108.8
X42.6Y-121.0
X75.5Y-122.55
X103.6Y-159.9
X81.9Y-108.55
X30.9Y-149.7
X63.5Y-140.65
X58.55Y-99.8
X64.85Y-151.1
X23.615Y-127.4
X23.615Y-128.35
X23.615Y-129.3
X61.85Y-148.05
X63.35Y-148.05
X89.1Y-130.0
T2
X26.3Y-158.2
X26.35Y-157.25
X28.65Y-158.2
X28.7Y-157.25
X52.2Y-97.6
X54.75Y-97.55
X66.43Y-126.09
X67.25Y-105.95
X68.75Y-126.09
X71.1Y-97.5
X71.1Y-101.25
X75.7Y-103.25
X75.7Y-116.4
X81.8Y-116.4
X81.8Y-131.6
X82.0Y-133.2
X82.25Y-103.25
X84.95Y-164.75
X85.3Y-177.95
X89.3Y-134.45
X89.4Y-147.4
X91.05Y-164.8
X91.25Y-177.9
X94.1Y-124.65
X94.1Y-126.09
X94.45Y-134.45
X94.5Y-147.4
X102.25Y-132.35
X105.0Y-132.35
X105.0Y-133.3
X106.124Y-133.224
X118.75Y-131.55
T3
X35.0Y-135.77
X35.0Y-138.31
X35.0Y-140.85
X35.0Y-147.17
X35.0Y-149.71
X35.0Y-152.25
X31.68Y-130.7
X34.22Y-130.7
T4
X36.41Y-166.36
X36.41Y-171.44
X38.95Y-168.9
X41.49Y-166.36
X41.49Y-171.44
X38.66Y-147.06
X38.66Y-152.14
X41.2Y-149.6
X43.74Y-147.06
X43.74Y-152.14
X24.91Y-98.16
X24.91Y-103.24
X27.45Y-100.7
X29.99Y-98.16
X29.99Y-103.24
X91.85Y-105.43
X91.85Y-110.51
X94.39Y-107.97
X96.93Y-105.43
X96.93Y-110.51
X36.31Y-157.01
X36.31Y-162.09
X38.85Y-159.55
X41.39Y-157.01
X41.39Y-162.09
X38.66Y-137.56
X38.66Y-142.64
X41.2Y-140.1
X43.74Y-137.56
X43.74Y-142.64
X38.66Y-128.06
X38.66Y-133.14
X41.2Y-130.6
X43.74Y-128.06
X43.74Y-133.14
X99.83Y-110.46
X99.83Y-115.54
X102.37Y-113.0
X104.91Y-110.46
X104.91Y-115.54
X27.11Y-163.31
X27.11Y-168.39
X29.65Y-165.85
X32.19Y-163.31
X32.19Y-168.39
X24.91Y-107.56
X24.91Y-112.64
X27.45Y-110.1
X29.99Y-107.56
X29.99Y-112.64
X91.87Y-95.69
X91.87Y-100.77
X94.41Y-98.23
X96.95Y-95.69
X96.95Y-100.77
X24.91Y-116.76
X24.91Y-121.84
X27.45Y-119.3
X29.99Y-116.76
X29.99Y-121.84
X99.78Y-119.51
X99.78Y-124.59
X102.32Y-122.05
X104.86Y-119.51
X104.86Y-124.59
T5
X110.925Y-154.025
X112.925Y-100.125
T3
G00X88.95Y-92.6
M15
G01X88.95Y-91.6
M16
G05
G00X91.49Y-92.6
M15
G01X91.49Y-91.6
M16
G05
G00X94.03Y-92.6
M15
G01X94.03Y-91.6
M16
G05
G00X96.57Y-92.6
M15
G01X96.57Y-91.6
M16
G05
T0
M30
