G04 #@! TF.GenerationSoftware,KiCad,Pcbnew,(5.1.5-0-10_14)*
G04 #@! TF.CreationDate,2021-05-04T13:32:50-04:00*
G04 #@! TF.ProjectId,FEA,4645412e-6b69-4636-9164-5f7063625858,rev?*
G04 #@! TF.SameCoordinates,Original*
G04 #@! TF.FileFunction,Soldermask,Bot*
G04 #@! TF.FilePolarity,Negative*
%FSLAX46Y46*%
G04 Gerber Fmt 4.6, Leading zero omitted, Abs format (unit mm)*
G04 Created by KiCad (PCBNEW (5.1.5-0-10_14)) date 2021-05-04 13:32:50*
%MOMM*%
%LPD*%
G04 APERTURE LIST*
%ADD10R,4.440000X1.400000*%
%ADD11R,1.400000X4.440000*%
%ADD12R,0.800000X1.060000*%
%ADD13R,1.000000X1.950000*%
%ADD14R,1.400000X1.650000*%
%ADD15R,1.050000X1.460000*%
%ADD16R,2.200000X2.200000*%
%ADD17O,2.200000X2.200000*%
%ADD18C,1.880000*%
%ADD19C,1.000000*%
%ADD20R,2.100000X2.100000*%
%ADD21O,2.100000X2.100000*%
%ADD22R,2.000000X2.400000*%
%ADD23C,2.400000*%
%ADD24R,2.400000X4.400000*%
%ADD25R,1.150000X1.200000*%
%ADD26R,1.620000X1.050000*%
%ADD27R,2.100000X3.400000*%
%ADD28O,2.100000X3.400000*%
%ADD29R,1.200000X1.150000*%
%ADD30R,1.160000X5.150000*%
%ADD31R,3.400000X3.900000*%
%ADD32R,5.400000X3.900000*%
%ADD33R,1.650000X1.400000*%
%ADD34R,3.790000X2.360000*%
%ADD35R,1.060000X0.800000*%
%ADD36R,1.600000X1.300000*%
%ADD37R,1.300000X1.600000*%
%ADD38R,1.600000X1.600000*%
%ADD39R,2.600000X0.900000*%
G04 APERTURE END LIST*
D10*
X50700000Y-158000000D03*
D11*
X43900000Y-165700000D03*
X43900000Y-159500000D03*
D10*
X45500000Y-158000000D03*
X45400000Y-186000000D03*
D11*
X43900000Y-184500000D03*
X100100000Y-184400000D03*
D10*
X98500000Y-186000000D03*
D11*
X100300000Y-159500000D03*
D10*
X98800000Y-158000000D03*
D11*
X100250000Y-172000000D03*
X43900000Y-177300000D03*
D10*
X74880000Y-158000000D03*
X86970000Y-158000000D03*
X93015000Y-158000000D03*
X50600000Y-185970000D03*
X56645000Y-185970000D03*
X62690000Y-185970000D03*
X68735000Y-185970000D03*
X74780000Y-185970000D03*
X80825000Y-185970000D03*
X86870000Y-185970000D03*
X92915000Y-185970000D03*
D12*
X79850000Y-135500000D03*
D13*
X75715000Y-105950000D03*
D14*
X81400000Y-118450000D03*
X83400000Y-118450000D03*
D15*
X44950000Y-105650000D03*
X46850000Y-103450000D03*
D16*
X35000000Y-152250000D03*
D17*
X35000000Y-149710000D03*
X35000000Y-147170000D03*
X35000000Y-135770000D03*
X35000000Y-138310000D03*
D16*
X35000000Y-140850000D03*
D10*
X82140000Y-124045000D03*
X76095000Y-124045000D03*
X70050000Y-124045000D03*
X64005000Y-124045000D03*
X57960000Y-124045000D03*
X51915000Y-124045000D03*
X45870000Y-124045000D03*
X39825000Y-124045000D03*
X82240000Y-96075000D03*
X76195000Y-96075000D03*
D11*
X33125000Y-115375000D03*
X89475000Y-110075000D03*
D10*
X88025000Y-96075000D03*
D11*
X89525000Y-97575000D03*
D10*
X87725000Y-124075000D03*
D11*
X89325000Y-122475000D03*
X33125000Y-122575000D03*
D10*
X34625000Y-124075000D03*
X34725000Y-96075000D03*
D11*
X33125000Y-97575000D03*
X33125000Y-103775000D03*
D10*
X39925000Y-96075000D03*
D18*
X110925000Y-154025000D03*
X112925000Y-100125000D03*
D19*
X117515000Y-102295000D03*
X116245000Y-102295000D03*
X114975000Y-102295000D03*
X113705000Y-102295000D03*
X112435000Y-102295000D03*
X111165000Y-102295000D03*
X109895000Y-102295000D03*
X108625000Y-102295000D03*
X117515000Y-103565000D03*
X116245000Y-103565000D03*
X114975000Y-103565000D03*
X113705000Y-103565000D03*
X112435000Y-103565000D03*
X111165000Y-103565000D03*
X109895000Y-103565000D03*
X108625000Y-103565000D03*
X117515000Y-104835000D03*
X116245000Y-104835000D03*
X114975000Y-104835000D03*
X113705000Y-104835000D03*
X112435000Y-104835000D03*
X111165000Y-104835000D03*
X109895000Y-104835000D03*
X108625000Y-104835000D03*
X117515000Y-106105000D03*
X116245000Y-106105000D03*
X114975000Y-106105000D03*
X113705000Y-106105000D03*
X112435000Y-106105000D03*
X111165000Y-106105000D03*
X109895000Y-106105000D03*
X108625000Y-106105000D03*
X117515000Y-107375000D03*
X116245000Y-107375000D03*
X114975000Y-107375000D03*
X113705000Y-107375000D03*
X112435000Y-107375000D03*
X111165000Y-107375000D03*
X109895000Y-107375000D03*
X108625000Y-107375000D03*
X117515000Y-108645000D03*
X116245000Y-108645000D03*
X114975000Y-108645000D03*
X113705000Y-108645000D03*
X112435000Y-108645000D03*
X111165000Y-108645000D03*
X109895000Y-108645000D03*
X108625000Y-108645000D03*
X117515000Y-109915000D03*
X116245000Y-109915000D03*
X114975000Y-109915000D03*
X113705000Y-109915000D03*
X112435000Y-109915000D03*
X111165000Y-109915000D03*
X109895000Y-109915000D03*
X108625000Y-109915000D03*
X117515000Y-111185000D03*
X116245000Y-111185000D03*
X114975000Y-111185000D03*
X113705000Y-111185000D03*
X112435000Y-111185000D03*
X111165000Y-111185000D03*
X109895000Y-111185000D03*
X108625000Y-111185000D03*
X117515000Y-112455000D03*
X116245000Y-112455000D03*
X114975000Y-112455000D03*
X113705000Y-112455000D03*
X112435000Y-112455000D03*
X111165000Y-112455000D03*
X109895000Y-112455000D03*
X108625000Y-112455000D03*
X117515000Y-113725000D03*
X116245000Y-113725000D03*
X114975000Y-113725000D03*
X113705000Y-113725000D03*
X112435000Y-113725000D03*
X111165000Y-113725000D03*
X109895000Y-113725000D03*
X108625000Y-113725000D03*
X117515000Y-114995000D03*
X116245000Y-114995000D03*
X114975000Y-114995000D03*
X113705000Y-114995000D03*
X112435000Y-114995000D03*
X111165000Y-114995000D03*
X109895000Y-114995000D03*
X108625000Y-114995000D03*
X117515000Y-116265000D03*
X116245000Y-116265000D03*
X114975000Y-116265000D03*
X113705000Y-116265000D03*
X112435000Y-116265000D03*
X111165000Y-116265000D03*
X109895000Y-116265000D03*
X108625000Y-116265000D03*
X117515000Y-117535000D03*
X116245000Y-117535000D03*
X114975000Y-117535000D03*
X113705000Y-117535000D03*
X112435000Y-117535000D03*
X111165000Y-117535000D03*
X109895000Y-117535000D03*
X108625000Y-117535000D03*
X117515000Y-118805000D03*
X116245000Y-118805000D03*
X114975000Y-118805000D03*
X113705000Y-118805000D03*
X112435000Y-118805000D03*
X111165000Y-118805000D03*
X109895000Y-118805000D03*
X108625000Y-118805000D03*
X117515000Y-120075000D03*
X116245000Y-120075000D03*
X114975000Y-120075000D03*
X113705000Y-120075000D03*
X112435000Y-120075000D03*
X111165000Y-120075000D03*
X109895000Y-120075000D03*
X108625000Y-120075000D03*
X117515000Y-121345000D03*
X116245000Y-121345000D03*
X114975000Y-121345000D03*
X113705000Y-121345000D03*
X112435000Y-121345000D03*
X111165000Y-121345000D03*
X109895000Y-121345000D03*
X108625000Y-121345000D03*
X117515000Y-122615000D03*
X116245000Y-122615000D03*
X114975000Y-122615000D03*
X113705000Y-122615000D03*
X112435000Y-122615000D03*
X111165000Y-122615000D03*
X109895000Y-122615000D03*
X108625000Y-122615000D03*
X117515000Y-123885000D03*
X116245000Y-123885000D03*
X114975000Y-123885000D03*
X113705000Y-123885000D03*
X112435000Y-123885000D03*
X111165000Y-123885000D03*
X109895000Y-123885000D03*
X108625000Y-123885000D03*
X117515000Y-125155000D03*
X116245000Y-125155000D03*
X114975000Y-125155000D03*
X113705000Y-125155000D03*
X112435000Y-125155000D03*
X111165000Y-125155000D03*
X109895000Y-125155000D03*
X108625000Y-125155000D03*
X117515000Y-126425000D03*
X116245000Y-126425000D03*
X114975000Y-126425000D03*
X113705000Y-126425000D03*
X112435000Y-126425000D03*
X111165000Y-126425000D03*
X109895000Y-126425000D03*
X108625000Y-126425000D03*
X117515000Y-127695000D03*
X116245000Y-127695000D03*
X114975000Y-127695000D03*
X113705000Y-127695000D03*
X112435000Y-127695000D03*
X111165000Y-127695000D03*
X109895000Y-127695000D03*
X108625000Y-127695000D03*
X117515000Y-128965000D03*
X116245000Y-128965000D03*
X114975000Y-128965000D03*
X113705000Y-128965000D03*
X112435000Y-128965000D03*
X111165000Y-128965000D03*
X109895000Y-128965000D03*
X108625000Y-128965000D03*
X117515000Y-130235000D03*
X116245000Y-130235000D03*
X114975000Y-130235000D03*
X113705000Y-130235000D03*
X112435000Y-130235000D03*
X111165000Y-130235000D03*
X109895000Y-130235000D03*
X108625000Y-130235000D03*
X117515000Y-131505000D03*
X116245000Y-131505000D03*
X114975000Y-131505000D03*
X113705000Y-131505000D03*
X112435000Y-131505000D03*
X111165000Y-131505000D03*
X109895000Y-131505000D03*
X108625000Y-131505000D03*
X117515000Y-132775000D03*
X116245000Y-132775000D03*
X114975000Y-132775000D03*
X113705000Y-132775000D03*
X112435000Y-132775000D03*
X111165000Y-132775000D03*
X109895000Y-132775000D03*
X108625000Y-132775000D03*
X117515000Y-134045000D03*
X116245000Y-134045000D03*
X114975000Y-134045000D03*
X113705000Y-134045000D03*
X112435000Y-134045000D03*
X111165000Y-134045000D03*
X109895000Y-134045000D03*
X108625000Y-134045000D03*
X117515000Y-135315000D03*
X116245000Y-135315000D03*
X114975000Y-135315000D03*
X113705000Y-135315000D03*
X112435000Y-135315000D03*
X111165000Y-135315000D03*
X109895000Y-135315000D03*
X108625000Y-135315000D03*
X117515000Y-136585000D03*
X116245000Y-136585000D03*
X114975000Y-136585000D03*
X113705000Y-136585000D03*
X112435000Y-136585000D03*
X111165000Y-136585000D03*
X109895000Y-136585000D03*
X108625000Y-136585000D03*
X117515000Y-137855000D03*
X116245000Y-137855000D03*
X114975000Y-137855000D03*
X113705000Y-137855000D03*
X112435000Y-137855000D03*
X111165000Y-137855000D03*
X109895000Y-137855000D03*
X108625000Y-137855000D03*
X117515000Y-139125000D03*
X116245000Y-139125000D03*
X114975000Y-139125000D03*
X113705000Y-139125000D03*
X112435000Y-139125000D03*
X111165000Y-139125000D03*
X109895000Y-139125000D03*
X108625000Y-139125000D03*
X117515000Y-140395000D03*
X116245000Y-140395000D03*
X114975000Y-140395000D03*
X113705000Y-140395000D03*
X112435000Y-140395000D03*
X111165000Y-140395000D03*
X109895000Y-140395000D03*
X108625000Y-140395000D03*
X117515000Y-141665000D03*
X116245000Y-141665000D03*
X114975000Y-141665000D03*
X113705000Y-141665000D03*
X112435000Y-141665000D03*
X111165000Y-141665000D03*
X109895000Y-141665000D03*
X108625000Y-141665000D03*
X117515000Y-142935000D03*
X116245000Y-142935000D03*
X114975000Y-142935000D03*
X113705000Y-142935000D03*
X112435000Y-142935000D03*
X111165000Y-142935000D03*
X109895000Y-142935000D03*
X108625000Y-142935000D03*
X117515000Y-144205000D03*
X116245000Y-144205000D03*
X114975000Y-144205000D03*
X113705000Y-144205000D03*
X112435000Y-144205000D03*
X111165000Y-144205000D03*
X109895000Y-144205000D03*
X108625000Y-144205000D03*
X117515000Y-145475000D03*
X116245000Y-145475000D03*
X114975000Y-145475000D03*
X113705000Y-145475000D03*
X112435000Y-145475000D03*
X111165000Y-145475000D03*
X109895000Y-145475000D03*
X108625000Y-145475000D03*
X117515000Y-146745000D03*
X116245000Y-146745000D03*
X114975000Y-146745000D03*
X113705000Y-146745000D03*
X112435000Y-146745000D03*
X111165000Y-146745000D03*
X109895000Y-146745000D03*
X108625000Y-146745000D03*
X117515000Y-148015000D03*
X116245000Y-148015000D03*
X114975000Y-148015000D03*
X113705000Y-148015000D03*
X112435000Y-148015000D03*
X111165000Y-148015000D03*
X109895000Y-148015000D03*
X108625000Y-148015000D03*
X117515000Y-149285000D03*
X116245000Y-149285000D03*
X114975000Y-149285000D03*
X113705000Y-149285000D03*
X112435000Y-149285000D03*
X111165000Y-149285000D03*
X109895000Y-149285000D03*
X108625000Y-149285000D03*
X117515000Y-150555000D03*
X116245000Y-150555000D03*
X114975000Y-150555000D03*
X113705000Y-150555000D03*
X112435000Y-150555000D03*
X111165000Y-150555000D03*
X109895000Y-150555000D03*
X108625000Y-150555000D03*
X117515000Y-151825000D03*
X116245000Y-151825000D03*
X114975000Y-151825000D03*
X113705000Y-151825000D03*
X112435000Y-151825000D03*
X111165000Y-151825000D03*
X109895000Y-151825000D03*
X108625000Y-151825000D03*
D20*
X34220000Y-130700000D03*
D21*
X31680000Y-130700000D03*
D22*
X22800000Y-165750000D03*
X22800000Y-169750000D03*
D23*
X27450000Y-110100000D03*
X29990000Y-107560000D03*
X24910000Y-107560000D03*
X24910000Y-112640000D03*
X29990000Y-112640000D03*
X27450000Y-100700000D03*
X29990000Y-98160000D03*
X24910000Y-98160000D03*
X24910000Y-103240000D03*
X29990000Y-103240000D03*
D24*
X60640000Y-92980000D03*
X54840000Y-92980000D03*
X44225000Y-92950000D03*
X50025000Y-92950000D03*
D23*
X43740000Y-142640000D03*
X38660000Y-142640000D03*
X38660000Y-137560000D03*
X43740000Y-137560000D03*
X41200000Y-140100000D03*
X41200000Y-130600000D03*
X43740000Y-128060000D03*
X38660000Y-128060000D03*
X38660000Y-133140000D03*
X43740000Y-133140000D03*
X38950000Y-168900000D03*
X41490000Y-166360000D03*
X36410000Y-166360000D03*
X36410000Y-171440000D03*
X41490000Y-171440000D03*
X41390000Y-162090000D03*
X36310000Y-162090000D03*
X36310000Y-157010000D03*
X41390000Y-157010000D03*
X38850000Y-159550000D03*
X94410000Y-98230000D03*
X96950000Y-95690000D03*
X91870000Y-95690000D03*
X91870000Y-100770000D03*
X96950000Y-100770000D03*
X96930000Y-110510000D03*
X91850000Y-110510000D03*
X91850000Y-105430000D03*
X96930000Y-105430000D03*
X94390000Y-107970000D03*
X104910000Y-115540000D03*
X99830000Y-115540000D03*
X99830000Y-110460000D03*
X104910000Y-110460000D03*
X102370000Y-113000000D03*
X102320000Y-122050000D03*
X104860000Y-119510000D03*
X99780000Y-119510000D03*
X99780000Y-124590000D03*
X104860000Y-124590000D03*
D25*
X21800000Y-128895000D03*
X21800000Y-127395000D03*
D26*
X23615000Y-127400000D03*
X23615000Y-128350000D03*
X23615000Y-129300000D03*
D24*
X65400000Y-92950000D03*
X71200000Y-92950000D03*
D27*
X88950000Y-92100000D03*
D28*
X91490000Y-92100000D03*
X94030000Y-92100000D03*
X96570000Y-92100000D03*
D29*
X23000000Y-131000000D03*
D30*
X25195000Y-174525000D03*
X26465000Y-174525000D03*
X27735000Y-174525000D03*
X30275000Y-174525000D03*
X31545000Y-174525000D03*
X32815000Y-174525000D03*
D31*
X38245000Y-186625000D03*
D32*
X20995000Y-186675000D03*
D33*
X28220000Y-125400000D03*
D14*
X32900000Y-149700000D03*
X30900000Y-149700000D03*
X32950000Y-140800000D03*
X30950000Y-140800000D03*
X30950000Y-147200000D03*
X32950000Y-147200000D03*
X30900000Y-135800000D03*
X32900000Y-135800000D03*
D29*
X95650000Y-121000000D03*
X95650000Y-122500000D03*
D25*
X105600000Y-130750000D03*
X104100000Y-130750000D03*
X101950000Y-160600000D03*
X103600000Y-159900000D03*
D34*
X27550000Y-157750000D03*
X22800000Y-152500000D03*
D14*
X38700000Y-121000000D03*
X36700000Y-121000000D03*
D33*
X48450000Y-109300000D03*
X48450000Y-107300000D03*
D29*
X38650000Y-119300000D03*
X37150000Y-119300000D03*
D25*
X46800000Y-107300000D03*
X46800000Y-108800000D03*
D29*
X37100000Y-119350000D03*
X38600000Y-119350000D03*
D25*
X46800000Y-108800000D03*
X46800000Y-107300000D03*
X49950000Y-105400000D03*
X49950000Y-103900000D03*
D29*
X48750000Y-116450000D03*
X50250000Y-116450000D03*
D25*
X46450000Y-101850000D03*
X46450000Y-100350000D03*
D29*
X50250000Y-116450000D03*
X48750000Y-116450000D03*
D25*
X46450000Y-100350000D03*
X46450000Y-101850000D03*
D33*
X48150000Y-101650000D03*
X48150000Y-99650000D03*
D14*
X50750000Y-114700000D03*
X48750000Y-114700000D03*
D35*
X42800000Y-111850000D03*
X42800000Y-110650000D03*
D36*
X40400000Y-121000000D03*
X42600000Y-121000000D03*
D37*
X50200000Y-109550000D03*
X50200000Y-107350000D03*
D36*
X44800000Y-113850000D03*
X47000000Y-113850000D03*
D37*
X49950000Y-99550000D03*
X49950000Y-101750000D03*
D29*
X38400000Y-111850000D03*
D25*
X42900000Y-114450000D03*
X42900000Y-115950000D03*
X44950000Y-108800000D03*
D29*
X44400000Y-117300000D03*
X42900000Y-117300000D03*
D38*
X38500000Y-102930000D03*
D25*
X84950000Y-102500000D03*
D14*
X83400000Y-114450000D03*
X81400000Y-114450000D03*
D25*
X77000000Y-112100000D03*
X77000000Y-110600000D03*
X77000000Y-110600000D03*
X77000000Y-112100000D03*
X84900000Y-115750000D03*
X84950000Y-103950000D03*
X77000000Y-117300000D03*
X77000000Y-115800000D03*
X84900000Y-117200000D03*
X77000000Y-121050000D03*
X77000000Y-122550000D03*
X75500000Y-122550000D03*
X77000000Y-122550000D03*
X77000000Y-121050000D03*
D14*
X83400000Y-101350000D03*
X81400000Y-101350000D03*
D29*
X75500000Y-98650000D03*
X77000000Y-98650000D03*
X77000000Y-98650000D03*
X75500000Y-98650000D03*
D25*
X77000000Y-102500000D03*
X77000000Y-104000000D03*
X77000000Y-109200000D03*
X77000000Y-107700000D03*
X77000000Y-107700000D03*
X77000000Y-109200000D03*
X75100000Y-109350000D03*
D14*
X81400000Y-105150000D03*
X83400000Y-105150000D03*
D36*
X82000000Y-111050000D03*
X79800000Y-111050000D03*
X79700000Y-121700000D03*
X81900000Y-121700000D03*
X79750000Y-97800000D03*
X81950000Y-97800000D03*
X81900000Y-108550000D03*
X79700000Y-108550000D03*
D25*
X67900000Y-113850000D03*
D29*
X71150000Y-120700000D03*
D25*
X69500000Y-99000000D03*
D29*
X71100000Y-107450000D03*
X69600000Y-105950000D03*
D12*
X67300000Y-103550000D03*
X66050000Y-103550000D03*
X58100000Y-115350000D03*
X61750000Y-115350000D03*
D22*
X23550000Y-162250000D03*
D14*
X51800000Y-152700000D03*
X49800000Y-152700000D03*
D33*
X61800000Y-138450000D03*
X61800000Y-140450000D03*
D29*
X51800000Y-151050000D03*
X50300000Y-151050000D03*
D25*
X60100000Y-138400000D03*
X60100000Y-139900000D03*
D29*
X50300000Y-151050000D03*
X51800000Y-151050000D03*
D25*
X60100000Y-138400000D03*
X60100000Y-139900000D03*
X63350000Y-134950000D03*
X63350000Y-136450000D03*
D29*
X61850000Y-148050000D03*
X63350000Y-148050000D03*
D25*
X59700000Y-131500000D03*
X59700000Y-133000000D03*
D29*
X63350000Y-148050000D03*
X61850000Y-148050000D03*
D25*
X59700000Y-131500000D03*
X59700000Y-133000000D03*
D33*
X61350000Y-131000000D03*
X61350000Y-133000000D03*
D14*
X63850000Y-146400000D03*
X61850000Y-146400000D03*
X97000000Y-132700000D03*
X95000000Y-132700000D03*
D29*
X90600000Y-130000000D03*
X89100000Y-130000000D03*
X89100000Y-130000000D03*
D25*
X98600000Y-133750000D03*
D14*
X95100000Y-145500000D03*
X97100000Y-145500000D03*
D29*
X89200000Y-143000000D03*
X90700000Y-143000000D03*
D25*
X90650000Y-135350000D03*
X90650000Y-133850000D03*
D29*
X90700000Y-143000000D03*
X89200000Y-143000000D03*
D25*
X98650000Y-146750000D03*
X98600000Y-135200000D03*
X90650000Y-139000000D03*
X90650000Y-140500000D03*
X90700000Y-146750000D03*
X90700000Y-148250000D03*
X89150000Y-140500000D03*
X90650000Y-140500000D03*
X90650000Y-139000000D03*
D14*
X95100000Y-136350000D03*
X97100000Y-136350000D03*
D25*
X98650000Y-148150000D03*
X90700000Y-153450000D03*
X90700000Y-151950000D03*
X89200000Y-153450000D03*
X90700000Y-151950000D03*
X90700000Y-153450000D03*
D14*
X97050000Y-149250000D03*
X95050000Y-149250000D03*
D12*
X53750000Y-142950000D03*
X54950000Y-142950000D03*
X72050000Y-146900000D03*
X81000000Y-135500000D03*
X75850000Y-146900000D03*
D36*
X53500000Y-152700000D03*
X55700000Y-152700000D03*
D37*
X63500000Y-138450000D03*
X63500000Y-140650000D03*
D36*
X60150000Y-145350000D03*
X57950000Y-145350000D03*
D37*
X63100000Y-133000000D03*
X63100000Y-130800000D03*
D36*
X93400000Y-129200000D03*
X95600000Y-129200000D03*
X93350000Y-142300000D03*
X95550000Y-142300000D03*
X93800000Y-139850000D03*
X96000000Y-139850000D03*
X93550000Y-152700000D03*
X95750000Y-152700000D03*
D10*
X52900000Y-127500000D03*
D11*
X46100000Y-135200000D03*
X46100000Y-129000000D03*
D10*
X47700000Y-127500000D03*
X47600000Y-155500000D03*
D11*
X46100000Y-154000000D03*
X102300000Y-153900000D03*
D10*
X100700000Y-155500000D03*
D11*
X102500000Y-129000000D03*
D10*
X101000000Y-127500000D03*
D11*
X102450000Y-141500000D03*
X46100000Y-146800000D03*
D10*
X77080000Y-127500000D03*
X89170000Y-127500000D03*
X95215000Y-127500000D03*
X52800000Y-155470000D03*
X58845000Y-155470000D03*
X64890000Y-155470000D03*
X70935000Y-155470000D03*
X76980000Y-155470000D03*
X83025000Y-155470000D03*
X89070000Y-155470000D03*
X95115000Y-155470000D03*
D29*
X50650000Y-143350000D03*
D25*
X56100000Y-146950000D03*
X56100000Y-145450000D03*
X58200000Y-140200000D03*
D29*
X57600000Y-148300000D03*
X56100000Y-148300000D03*
D25*
X83200000Y-129550000D03*
X83250000Y-141850000D03*
D29*
X84750000Y-138700000D03*
X83300000Y-137250000D03*
X84850000Y-151650000D03*
D38*
X51050000Y-134960000D03*
D13*
X89365000Y-137250000D03*
D14*
X49500000Y-182150000D03*
X47500000Y-182150000D03*
D33*
X59250000Y-167500000D03*
X59250000Y-169500000D03*
D29*
X49350000Y-180500000D03*
X47850000Y-180500000D03*
D25*
X57600000Y-167500000D03*
X57600000Y-169000000D03*
D29*
X47850000Y-180500000D03*
X49350000Y-180500000D03*
D25*
X60750000Y-164000000D03*
X60750000Y-165500000D03*
X57150000Y-160600000D03*
X57150000Y-162100000D03*
D29*
X60900000Y-177650000D03*
X59400000Y-177650000D03*
D25*
X57150000Y-160600000D03*
X57150000Y-162100000D03*
D33*
X58800000Y-160100000D03*
X58800000Y-162100000D03*
D14*
X61400000Y-175950000D03*
X59400000Y-175950000D03*
X92450000Y-163100000D03*
X90450000Y-163100000D03*
D29*
X86250000Y-160350000D03*
X84750000Y-160350000D03*
X84750000Y-160350000D03*
X86250000Y-160350000D03*
D25*
X94150000Y-164100000D03*
D14*
X90950000Y-176200000D03*
X92950000Y-176200000D03*
D29*
X85100000Y-173600000D03*
X86600000Y-173600000D03*
D25*
X86250000Y-165650000D03*
X86250000Y-164150000D03*
D29*
X86600000Y-173600000D03*
X85100000Y-173600000D03*
D25*
X94550000Y-177200000D03*
X94150000Y-165500000D03*
X86300000Y-170850000D03*
X86600000Y-177350000D03*
X86600000Y-178850000D03*
X84850000Y-170900000D03*
X86300000Y-170850000D03*
X86300000Y-169350000D03*
D14*
X90500000Y-166650000D03*
X92500000Y-166650000D03*
D25*
X94550000Y-178700000D03*
X86550000Y-184100000D03*
X86550000Y-182600000D03*
X85050000Y-184100000D03*
X86550000Y-182600000D03*
X86550000Y-184100000D03*
D14*
X93050000Y-179900000D03*
X91050000Y-179900000D03*
D12*
X52250000Y-171700000D03*
X53450000Y-171700000D03*
X77850000Y-164850000D03*
X67750000Y-176550000D03*
X76450000Y-164850000D03*
X71450000Y-176550000D03*
D36*
X51150000Y-182150000D03*
X53350000Y-182150000D03*
D37*
X60950000Y-167450000D03*
X60950000Y-169650000D03*
D36*
X57650000Y-174950000D03*
X55450000Y-174950000D03*
D37*
X60550000Y-162100000D03*
X60550000Y-159900000D03*
D36*
X88900000Y-159650000D03*
X91100000Y-159650000D03*
X89400000Y-172750000D03*
X91600000Y-172750000D03*
X88950000Y-170000000D03*
X91150000Y-170000000D03*
X89350000Y-183200000D03*
X91550000Y-183200000D03*
D29*
X49150000Y-172150000D03*
D25*
X53650000Y-175300000D03*
X53650000Y-176800000D03*
X55700000Y-169050000D03*
D29*
X55150000Y-178450000D03*
X53650000Y-178450000D03*
D25*
X78950000Y-162200000D03*
X79300000Y-172450000D03*
D29*
X80400000Y-169050000D03*
X80750000Y-182250000D03*
D38*
X48500000Y-163710000D03*
D15*
X57600000Y-163700000D03*
D13*
X84965000Y-167600000D03*
D29*
X56100000Y-149750000D03*
X57600000Y-149750000D03*
D33*
X73100000Y-138350000D03*
X73100000Y-140350000D03*
D25*
X71450000Y-138400000D03*
X71450000Y-139900000D03*
X71450000Y-138400000D03*
X71450000Y-139900000D03*
X74850000Y-134850000D03*
X74850000Y-136350000D03*
X70500000Y-131300000D03*
X70500000Y-132800000D03*
X70500000Y-131300000D03*
X70500000Y-132800000D03*
D33*
X72150000Y-130750000D03*
X72150000Y-132750000D03*
D29*
X55150000Y-179900000D03*
X53650000Y-179900000D03*
D33*
X69800000Y-168150000D03*
X69800000Y-170150000D03*
D25*
X68100000Y-169600000D03*
X68100000Y-168100000D03*
X68100000Y-169600000D03*
X68100000Y-168100000D03*
X70550000Y-166000000D03*
X70550000Y-164500000D03*
X67150000Y-162550000D03*
X67150000Y-161050000D03*
X67150000Y-162550000D03*
X67150000Y-161050000D03*
D33*
X68800000Y-160450000D03*
X68800000Y-162450000D03*
D29*
X44400000Y-118800000D03*
X42900000Y-118800000D03*
D33*
X59500000Y-107450000D03*
X59500000Y-109450000D03*
D25*
X57750000Y-108950000D03*
X57750000Y-107450000D03*
X57750000Y-108950000D03*
X57750000Y-107450000D03*
X60950000Y-105450000D03*
X60950000Y-103950000D03*
X56800000Y-101800000D03*
X56800000Y-100300000D03*
X56800000Y-101800000D03*
X56800000Y-100300000D03*
D33*
X58550000Y-99800000D03*
X58550000Y-101800000D03*
D37*
X74850000Y-138350000D03*
X74850000Y-140550000D03*
X73950000Y-132750000D03*
X73950000Y-130550000D03*
X71600000Y-168150000D03*
X71600000Y-170350000D03*
X70550000Y-162350000D03*
X70550000Y-160150000D03*
X61250000Y-107450000D03*
X61250000Y-109650000D03*
X60250000Y-101850000D03*
X60250000Y-99650000D03*
D25*
X64850000Y-151100000D03*
X69550000Y-139900000D03*
X62500000Y-180750000D03*
X66200000Y-169550000D03*
X51750000Y-119550000D03*
X55850000Y-108950000D03*
D23*
X29990000Y-121840000D03*
X24910000Y-121840000D03*
X24910000Y-116760000D03*
X29990000Y-116760000D03*
X27450000Y-119300000D03*
X41200000Y-149600000D03*
X43740000Y-147060000D03*
X38660000Y-147060000D03*
X38660000Y-152140000D03*
X43740000Y-152140000D03*
X29650000Y-165850000D03*
X32190000Y-163310000D03*
X27110000Y-163310000D03*
X27110000Y-168390000D03*
X32190000Y-168390000D03*
D39*
X59725000Y-149690000D03*
X53975000Y-148420000D03*
D13*
X90685000Y-150250000D03*
X90685000Y-144850000D03*
X89415000Y-150250000D03*
D39*
X51475000Y-177970000D03*
X57225000Y-179240000D03*
D13*
X86585000Y-180900000D03*
X86585000Y-175500000D03*
X85315000Y-180900000D03*
D39*
X40750000Y-116770000D03*
X46500000Y-118040000D03*
D13*
X75765000Y-119300000D03*
X77035000Y-113900000D03*
X77035000Y-119300000D03*
M02*
