G04 #@! TF.GenerationSoftware,KiCad,Pcbnew,7.0.1-0*
G04 #@! TF.CreationDate,2023-11-21T15:01:45-05:00*
G04 #@! TF.ProjectId,CosmicWatch,436f736d-6963-4576-9174-63682e6b6963,rev?*
G04 #@! TF.SameCoordinates,Original*
G04 #@! TF.FileFunction,Soldermask,Bot*
G04 #@! TF.FilePolarity,Negative*
%FSLAX46Y46*%
G04 Gerber Fmt 4.6, Leading zero omitted, Abs format (unit mm)*
G04 Created by KiCad (PCBNEW 7.0.1-0) date 2023-11-21 15:01:45*
%MOMM*%
%LPD*%
G01*
G04 APERTURE LIST*
G04 Aperture macros list*
%AMRoundRect*
0 Rectangle with rounded corners*
0 $1 Rounding radius*
0 $2 $3 $4 $5 $6 $7 $8 $9 X,Y pos of 4 corners*
0 Add a 4 corners polygon primitive as box body*
4,1,4,$2,$3,$4,$5,$6,$7,$8,$9,$2,$3,0*
0 Add four circle primitives for the rounded corners*
1,1,$1+$1,$2,$3*
1,1,$1+$1,$4,$5*
1,1,$1+$1,$6,$7*
1,1,$1+$1,$8,$9*
0 Add four rect primitives between the rounded corners*
20,1,$1+$1,$2,$3,$4,$5,0*
20,1,$1+$1,$4,$5,$6,$7,0*
20,1,$1+$1,$6,$7,$8,$9,0*
20,1,$1+$1,$8,$9,$2,$3,0*%
%AMFreePoly0*
4,1,19,0.500000,-0.750000,0.000000,-0.750000,0.000000,-0.744911,-0.071157,-0.744911,-0.207708,-0.704816,-0.327430,-0.627875,-0.420627,-0.520320,-0.479746,-0.390866,-0.500000,-0.250000,-0.500000,0.250000,-0.479746,0.390866,-0.420627,0.520320,-0.327430,0.627875,-0.207708,0.704816,-0.071157,0.744911,0.000000,0.744911,0.000000,0.750000,0.500000,0.750000,0.500000,-0.750000,0.500000,-0.750000,
$1*%
%AMFreePoly1*
4,1,19,0.000000,0.744911,0.071157,0.744911,0.207708,0.704816,0.327430,0.627875,0.420627,0.520320,0.479746,0.390866,0.500000,0.250000,0.500000,-0.250000,0.479746,-0.390866,0.420627,-0.520320,0.327430,-0.627875,0.207708,-0.704816,0.071157,-0.744911,0.000000,-0.744911,0.000000,-0.750000,-0.500000,-0.750000,-0.500000,0.750000,0.000000,0.750000,0.000000,0.744911,0.000000,0.744911,
$1*%
G04 Aperture macros list end*
%ADD10RoundRect,0.225000X0.250000X-0.225000X0.250000X0.225000X-0.250000X0.225000X-0.250000X-0.225000X0*%
%ADD11R,1.700000X1.700000*%
%ADD12O,1.700000X1.700000*%
%ADD13RoundRect,0.150000X0.150000X-0.825000X0.150000X0.825000X-0.150000X0.825000X-0.150000X-0.825000X0*%
%ADD14C,1.000000*%
%ADD15RoundRect,0.225000X-0.225000X-0.250000X0.225000X-0.250000X0.225000X0.250000X-0.225000X0.250000X0*%
%ADD16R,1.560000X0.650000*%
%ADD17RoundRect,0.225000X0.225000X0.250000X-0.225000X0.250000X-0.225000X-0.250000X0.225000X-0.250000X0*%
%ADD18RoundRect,0.225000X-0.250000X0.225000X-0.250000X-0.225000X0.250000X-0.225000X0.250000X0.225000X0*%
%ADD19RoundRect,0.150000X-0.150000X-0.200000X0.150000X-0.200000X0.150000X0.200000X-0.150000X0.200000X0*%
%ADD20RoundRect,0.150000X-0.200000X0.150000X-0.200000X-0.150000X0.200000X-0.150000X0.200000X0.150000X0*%
%ADD21R,2.000000X4.000000*%
%ADD22C,2.032000*%
%ADD23C,2.000000*%
%ADD24R,2.000000X3.000000*%
%ADD25O,2.200000X3.000000*%
%ADD26R,2.000000X5.000000*%
%ADD27R,2.000000X3.800000*%
%ADD28R,2.500000X7.000000*%
%ADD29C,3.650000*%
%ADD30R,1.500000X1.500000*%
%ADD31C,1.500000*%
%ADD32R,0.500000X2.000000*%
%ADD33R,2.000000X0.500000*%
%ADD34R,1.800000X1.500000*%
%ADD35C,2.200000*%
%ADD36RoundRect,0.250000X-0.325000X-0.650000X0.325000X-0.650000X0.325000X0.650000X-0.325000X0.650000X0*%
%ADD37FreePoly0,0.000000*%
%ADD38FreePoly1,0.000000*%
%ADD39R,4.000000X1.400000*%
%ADD40R,0.650000X1.560000*%
%ADD41RoundRect,0.250000X0.650000X-0.325000X0.650000X0.325000X-0.650000X0.325000X-0.650000X-0.325000X0*%
%ADD42RoundRect,0.225000X-0.375000X0.225000X-0.375000X-0.225000X0.375000X-0.225000X0.375000X0.225000X0*%
%ADD43RoundRect,0.150000X0.150000X-0.587500X0.150000X0.587500X-0.150000X0.587500X-0.150000X-0.587500X0*%
G04 APERTURE END LIST*
D10*
X88245000Y-108240000D03*
X88245000Y-106690000D03*
D11*
X103070000Y-90415000D03*
D12*
X105610000Y-90415000D03*
D11*
X72505000Y-90065000D03*
D12*
X75045000Y-90065000D03*
D11*
X88755000Y-90365000D03*
D12*
X91295000Y-90365000D03*
D13*
X104350000Y-100365000D03*
X103080000Y-100365000D03*
X101810000Y-100365000D03*
X100540000Y-100365000D03*
X100540000Y-105315000D03*
X101810000Y-105315000D03*
X103080000Y-105315000D03*
X104350000Y-105315000D03*
D14*
X79760000Y-60175000D03*
X81020000Y-60175000D03*
X82280000Y-60175000D03*
X79760000Y-61435000D03*
X82280000Y-61435000D03*
X79760000Y-62695000D03*
X81020000Y-62695000D03*
X82280000Y-62695000D03*
D15*
X101575000Y-96450000D03*
X100025000Y-96450000D03*
D16*
X88895000Y-135015000D03*
X88895000Y-135965000D03*
X88895000Y-136915000D03*
X86195000Y-136915000D03*
X86195000Y-135965000D03*
X86195000Y-135015000D03*
D15*
X97320000Y-101040000D03*
X98870000Y-101040000D03*
D17*
X101745000Y-109515000D03*
X100195000Y-109515000D03*
X78845000Y-92865000D03*
X77295000Y-92865000D03*
D18*
X95320000Y-105265000D03*
X95320000Y-103715000D03*
D17*
X103150000Y-94850000D03*
X104700000Y-94850000D03*
D10*
X81965000Y-94920000D03*
X81965000Y-96470000D03*
X84945000Y-96290000D03*
X84945000Y-94740000D03*
X75465000Y-97710000D03*
X75465000Y-96160000D03*
X86675000Y-108220000D03*
X86675000Y-106670000D03*
D17*
X100220000Y-107815000D03*
X101770000Y-107815000D03*
D10*
X77105000Y-97725000D03*
X77105000Y-96175000D03*
X89875000Y-105075000D03*
X89875000Y-103525000D03*
X86675000Y-105090000D03*
X86675000Y-103540000D03*
D18*
X78755000Y-94615000D03*
X78755000Y-96165000D03*
D19*
X83335000Y-93375000D03*
X81935000Y-93375000D03*
D20*
X80385000Y-96172500D03*
X80385000Y-94772500D03*
D21*
X113595000Y-114175000D03*
D11*
X116650000Y-102300000D03*
D12*
X116650000Y-104840000D03*
X114110000Y-102300000D03*
X114110000Y-104840000D03*
D22*
X117707500Y-97125000D03*
D23*
X120207500Y-95875000D03*
D22*
X117707500Y-90125000D03*
D23*
X120207500Y-91375000D03*
D24*
X81355000Y-114175000D03*
D25*
X83895000Y-114175000D03*
X86435000Y-114175000D03*
X88975000Y-114175000D03*
D11*
X66751370Y-61420023D03*
D12*
X69291370Y-61420023D03*
X71831370Y-61420023D03*
X74371370Y-61420023D03*
D26*
X98825000Y-61375000D03*
D11*
X101700000Y-134350000D03*
D12*
X101700000Y-131810000D03*
X101700000Y-129270000D03*
X101700000Y-126730000D03*
D26*
X94925000Y-61425000D03*
D27*
X120800000Y-80400000D03*
D28*
X127175000Y-80400000D03*
D29*
X63845000Y-94645000D03*
X63845000Y-106075000D03*
D30*
X70195000Y-95915000D03*
D31*
X72735000Y-97185000D03*
X70195000Y-98455000D03*
X72735000Y-99725000D03*
X70195000Y-100995000D03*
X72735000Y-102265000D03*
X70195000Y-103535000D03*
X72735000Y-104805000D03*
D17*
X64685000Y-116455000D03*
X63135000Y-116455000D03*
D32*
X134915000Y-91935000D03*
X135715000Y-91935000D03*
X136515000Y-91935000D03*
D15*
X113225000Y-93675000D03*
X114775000Y-93675000D03*
D10*
X80735000Y-107225000D03*
X80735000Y-105675000D03*
X65625000Y-137800000D03*
X65625000Y-136250000D03*
D33*
X76465000Y-124551700D03*
X76465000Y-125662800D03*
X76465000Y-126773900D03*
X76465000Y-127885000D03*
X76465000Y-128996100D03*
X76465000Y-130107200D03*
D34*
X68240000Y-120704500D03*
X68190000Y-134604500D03*
D33*
X76465000Y-131218300D03*
X76465000Y-132329400D03*
X76465000Y-122329500D03*
X76465000Y-123440600D03*
D35*
X72965000Y-132679500D03*
X72965000Y-122529500D03*
D36*
X65415000Y-118485000D03*
X68365000Y-118485000D03*
D12*
X104685000Y-119395000D03*
X107225000Y-121935000D03*
X104685000Y-121935000D03*
X107225000Y-124475000D03*
X104685000Y-124475000D03*
X107225000Y-127015000D03*
X104685000Y-127015000D03*
D18*
X85035000Y-103525000D03*
X85035000Y-105075000D03*
D13*
X83240000Y-103550000D03*
X81970000Y-103550000D03*
X80700000Y-103550000D03*
X79430000Y-103550000D03*
X79430000Y-98600000D03*
X80700000Y-98600000D03*
X81970000Y-98600000D03*
X83240000Y-98600000D03*
D18*
X76035000Y-102000000D03*
X76035000Y-103550000D03*
X82301370Y-62695023D03*
X82301370Y-64245023D03*
X83901370Y-62720023D03*
X83901370Y-64270023D03*
X85501370Y-62695023D03*
X85501370Y-64245023D03*
D15*
X82435000Y-128965000D03*
X83985000Y-128965000D03*
X79120000Y-65915000D03*
X80670000Y-65915000D03*
D17*
X85085000Y-122295000D03*
X83535000Y-122295000D03*
D18*
X77635000Y-101975000D03*
X77635000Y-103525000D03*
D37*
X67975000Y-114175000D03*
D38*
X69275000Y-114175000D03*
D39*
X64145000Y-111625000D03*
X64145000Y-114525000D03*
D18*
X77951370Y-61420023D03*
X77951370Y-62970023D03*
D10*
X79745000Y-57190000D03*
X79745000Y-58740000D03*
X82845000Y-58740000D03*
X82845000Y-57190000D03*
X81295000Y-57190000D03*
X81295000Y-58740000D03*
X88145000Y-96315000D03*
X88145000Y-94765000D03*
D18*
X106145000Y-101915000D03*
X106145000Y-100365000D03*
D10*
X84401370Y-61045023D03*
X84401370Y-59495023D03*
X88990000Y-125420000D03*
X88990000Y-123870000D03*
D18*
X88990000Y-126960000D03*
X88990000Y-128510000D03*
D15*
X66190000Y-116455000D03*
X67740000Y-116455000D03*
D17*
X104700000Y-96450000D03*
X103150000Y-96450000D03*
D40*
X84465000Y-126910000D03*
X83515000Y-126910000D03*
X82565000Y-126910000D03*
X82565000Y-124210000D03*
X83515000Y-124210000D03*
X84465000Y-124210000D03*
D41*
X86640000Y-128455000D03*
X86640000Y-125505000D03*
D18*
X97245000Y-105265000D03*
X97245000Y-103715000D03*
D37*
X67965000Y-111225000D03*
D38*
X69265000Y-111225000D03*
D17*
X103125000Y-98050000D03*
X104675000Y-98050000D03*
D10*
X113825000Y-108975000D03*
X113825000Y-107425000D03*
D18*
X98845000Y-103690000D03*
X98845000Y-105240000D03*
X115425000Y-107425000D03*
X115425000Y-108975000D03*
D10*
X80890000Y-125530000D03*
X80890000Y-123980000D03*
X84245000Y-137105000D03*
X84245000Y-135555000D03*
D18*
X86585000Y-98725000D03*
X86585000Y-100275000D03*
X88275000Y-105085000D03*
X88275000Y-103535000D03*
D17*
X100025000Y-98050000D03*
X101575000Y-98050000D03*
D42*
X82190000Y-133830000D03*
X82190000Y-137130000D03*
D18*
X107745000Y-101940000D03*
X107745000Y-100390000D03*
D15*
X76576370Y-58620023D03*
X78126370Y-58620023D03*
D41*
X80480000Y-130125000D03*
X80480000Y-127175000D03*
D10*
X90870000Y-133465000D03*
X90870000Y-135015000D03*
X79135000Y-107225000D03*
X79135000Y-105675000D03*
D17*
X83985000Y-130535000D03*
X82435000Y-130535000D03*
D18*
X84935000Y-98700000D03*
X84935000Y-100250000D03*
X85035000Y-106675000D03*
X85035000Y-108225000D03*
D19*
X87430000Y-123865000D03*
X86030000Y-123865000D03*
D18*
X86545000Y-94740000D03*
X86545000Y-96290000D03*
D17*
X89295000Y-133265000D03*
X87745000Y-133265000D03*
D43*
X97445000Y-111890000D03*
X95545000Y-111890000D03*
X96495000Y-110015000D03*
G36*
X161362000Y-62437881D02*
G01*
X161408119Y-62484000D01*
X161425000Y-62547000D01*
X161425000Y-71072810D01*
X161415409Y-71121028D01*
X161388095Y-71161905D01*
X160961905Y-71588095D01*
X160921028Y-71615409D01*
X160872810Y-71625000D01*
X159777190Y-71625000D01*
X159728972Y-71615409D01*
X159688095Y-71588095D01*
X158225001Y-70125000D01*
X156724998Y-70125000D01*
X155261905Y-71588095D01*
X155221028Y-71615409D01*
X155172810Y-71625000D01*
X153397000Y-71625000D01*
X153334000Y-71608119D01*
X153287881Y-71562000D01*
X153271000Y-71499000D01*
X153271000Y-70301000D01*
X153287881Y-70238000D01*
X153334000Y-70191881D01*
X153397000Y-70175000D01*
X153525000Y-70175000D01*
X153525000Y-66625000D01*
X154924999Y-66625000D01*
X154944712Y-66938331D01*
X155003541Y-67246722D01*
X155100560Y-67545313D01*
X155234233Y-67829384D01*
X155402455Y-68094460D01*
X155602577Y-68336367D01*
X155831440Y-68551283D01*
X156085430Y-68735818D01*
X156360555Y-68887069D01*
X156652460Y-69002642D01*
X156956546Y-69080718D01*
X157268021Y-69120067D01*
X157581979Y-69120067D01*
X157893453Y-69080718D01*
X158197539Y-69002642D01*
X158489444Y-68887069D01*
X158764569Y-68735818D01*
X159018559Y-68551283D01*
X159247422Y-68336367D01*
X159447544Y-68094460D01*
X159615766Y-67829384D01*
X159749439Y-67545313D01*
X159846458Y-67246722D01*
X159905287Y-66938331D01*
X159925000Y-66625000D01*
X159905287Y-66311668D01*
X159846458Y-66003277D01*
X159749439Y-65704686D01*
X159615766Y-65420615D01*
X159447544Y-65155539D01*
X159247422Y-64913632D01*
X159018559Y-64698716D01*
X158764569Y-64514181D01*
X158489444Y-64362930D01*
X158197539Y-64247357D01*
X157893453Y-64169281D01*
X157581979Y-64129933D01*
X157268021Y-64129933D01*
X156956546Y-64169281D01*
X156652460Y-64247357D01*
X156360555Y-64362930D01*
X156085430Y-64514181D01*
X155831440Y-64698716D01*
X155602577Y-64913632D01*
X155402455Y-65155539D01*
X155234233Y-65420615D01*
X155100560Y-65704686D01*
X155003541Y-66003277D01*
X154944712Y-66311668D01*
X154924999Y-66625000D01*
X153525000Y-66625000D01*
X153525000Y-62801000D01*
X153541881Y-62738000D01*
X153588000Y-62691881D01*
X153651000Y-62675000D01*
X159975000Y-62675000D01*
X159975000Y-62547000D01*
X159991881Y-62484000D01*
X160038000Y-62437881D01*
X160101000Y-62421000D01*
X161299000Y-62421000D01*
X161362000Y-62437881D01*
G37*
G36*
X133466000Y-82441881D02*
G01*
X133512119Y-82488000D01*
X133529000Y-82551000D01*
X133529000Y-85524809D01*
X133515267Y-85582012D01*
X133477061Y-85626745D01*
X133422711Y-85649258D01*
X133364064Y-85644642D01*
X133313905Y-85613904D01*
X131861905Y-84161905D01*
X131834591Y-84121028D01*
X131825000Y-84072810D01*
X131825000Y-82977190D01*
X131834591Y-82928972D01*
X131861905Y-82888095D01*
X132288095Y-82461905D01*
X132328972Y-82434591D01*
X132377190Y-82425000D01*
X133403000Y-82425000D01*
X133466000Y-82441881D01*
G37*
G36*
X133477061Y-87123255D02*
G01*
X133515267Y-87167988D01*
X133529000Y-87225191D01*
X133529000Y-90299000D01*
X133512119Y-90362000D01*
X133466000Y-90408119D01*
X133403000Y-90425000D01*
X133275000Y-90425000D01*
X133275000Y-133975000D01*
X133403000Y-133975000D01*
X133466000Y-133991881D01*
X133512119Y-134038000D01*
X133529000Y-134101000D01*
X133529000Y-137124809D01*
X133515267Y-137182012D01*
X133477061Y-137226745D01*
X133422711Y-137249258D01*
X133364064Y-137244642D01*
X133313905Y-137213904D01*
X131861905Y-135761905D01*
X131834591Y-135721028D01*
X131825000Y-135672810D01*
X131825000Y-135374999D01*
X131811905Y-135361904D01*
X131784591Y-135321027D01*
X131775000Y-135272809D01*
X131775000Y-131477169D01*
X131784612Y-131428901D01*
X131811980Y-131387998D01*
X131825000Y-131375000D01*
X131825000Y-95624999D01*
X131811905Y-95611904D01*
X131784591Y-95571027D01*
X131775000Y-95522809D01*
X131775000Y-92277191D01*
X131784591Y-92228973D01*
X131811905Y-92188096D01*
X131825000Y-92175001D01*
X131825000Y-88677190D01*
X131834591Y-88628972D01*
X131861905Y-88588095D01*
X133313905Y-87136096D01*
X133364064Y-87105358D01*
X133422711Y-87100742D01*
X133477061Y-87123255D01*
G37*
G36*
X133477061Y-138723255D02*
G01*
X133515267Y-138767988D01*
X133529000Y-138825191D01*
X133529000Y-141799000D01*
X133512119Y-141862000D01*
X133466000Y-141908119D01*
X133403000Y-141925000D01*
X132377190Y-141925000D01*
X132328972Y-141915409D01*
X132288095Y-141888095D01*
X131861905Y-141461905D01*
X131834591Y-141421028D01*
X131825000Y-141372810D01*
X131825000Y-140277190D01*
X131834591Y-140228972D01*
X131861905Y-140188095D01*
X133313905Y-138736096D01*
X133364064Y-138705358D01*
X133422711Y-138700742D01*
X133477061Y-138723255D01*
G37*
G36*
X105082012Y-69934733D02*
G01*
X105126745Y-69972939D01*
X105149258Y-70027289D01*
X105144642Y-70085936D01*
X105113904Y-70136095D01*
X103661905Y-71588095D01*
X103621028Y-71615409D01*
X103572810Y-71625000D01*
X102477190Y-71625000D01*
X102428972Y-71615409D01*
X102388095Y-71588095D01*
X101961905Y-71161905D01*
X101934591Y-71121028D01*
X101925000Y-71072810D01*
X101925000Y-70047000D01*
X101941881Y-69984000D01*
X101988000Y-69937881D01*
X102051000Y-69921000D01*
X105024809Y-69921000D01*
X105082012Y-69934733D01*
G37*
G36*
X161362000Y-69937881D02*
G01*
X161408119Y-69984000D01*
X161425000Y-70047000D01*
X161425000Y-71072810D01*
X161415409Y-71121028D01*
X161388095Y-71161905D01*
X160961905Y-71588095D01*
X160921028Y-71615409D01*
X160872810Y-71625000D01*
X159777190Y-71625000D01*
X159728972Y-71615409D01*
X159688095Y-71588095D01*
X158236096Y-70136095D01*
X158205358Y-70085936D01*
X158200742Y-70027289D01*
X158223255Y-69972939D01*
X158267988Y-69934733D01*
X158325191Y-69921000D01*
X161299000Y-69921000D01*
X161362000Y-69937881D01*
G37*
G36*
X109812000Y-69937881D02*
G01*
X109858119Y-69984000D01*
X109875000Y-70047000D01*
X109875000Y-70175000D01*
X153525000Y-70175000D01*
X153525000Y-70047000D01*
X153541881Y-69984000D01*
X153588000Y-69937881D01*
X153651000Y-69921000D01*
X156624809Y-69921000D01*
X156682012Y-69934733D01*
X156726745Y-69972939D01*
X156749258Y-70027289D01*
X156744642Y-70085936D01*
X156713904Y-70136095D01*
X155261905Y-71588095D01*
X155221028Y-71615409D01*
X155172810Y-71625000D01*
X128499999Y-71625000D01*
X128486904Y-71638095D01*
X128446027Y-71665409D01*
X128397809Y-71675000D01*
X126602191Y-71675000D01*
X126553973Y-71665409D01*
X126513096Y-71638095D01*
X126500001Y-71625000D01*
X108177190Y-71625000D01*
X108128972Y-71615409D01*
X108088095Y-71588095D01*
X106636096Y-70136095D01*
X106605358Y-70085936D01*
X106600742Y-70027289D01*
X106623255Y-69972939D01*
X106667988Y-69934733D01*
X106725191Y-69921000D01*
X109749000Y-69921000D01*
X109812000Y-69937881D01*
G37*
G36*
X160821028Y-42034591D02*
G01*
X160861905Y-42061905D01*
X161388095Y-42588095D01*
X161415409Y-42628972D01*
X161425000Y-42677190D01*
X161425000Y-43603000D01*
X161408119Y-43666000D01*
X161362000Y-43712119D01*
X161299000Y-43729000D01*
X159440199Y-43729000D01*
X159387356Y-43717384D01*
X159344257Y-43684677D01*
X159149037Y-43455362D01*
X158921375Y-43248602D01*
X158669146Y-43072659D01*
X158396476Y-42930408D01*
X158107865Y-42824196D01*
X157808042Y-42755764D01*
X157501920Y-42726232D01*
X157194548Y-42736089D01*
X156890949Y-42785173D01*
X156596124Y-42872676D01*
X156314909Y-42997162D01*
X156051920Y-43156587D01*
X155811476Y-43348335D01*
X155597529Y-43569252D01*
X155516099Y-43678362D01*
X155471603Y-43715631D01*
X155415121Y-43729000D01*
X153601000Y-43729000D01*
X153538000Y-43712119D01*
X153491881Y-43666000D01*
X153475000Y-43603000D01*
X153475000Y-43475000D01*
X109875000Y-43475000D01*
X109875000Y-43603000D01*
X109858119Y-43666000D01*
X109812000Y-43712119D01*
X109749000Y-43729000D01*
X107940199Y-43729000D01*
X107887356Y-43717384D01*
X107844257Y-43684677D01*
X107649037Y-43455362D01*
X107421375Y-43248602D01*
X107169146Y-43072659D01*
X106896476Y-42930408D01*
X106607865Y-42824196D01*
X106308042Y-42755764D01*
X106001920Y-42726232D01*
X105694548Y-42736089D01*
X105390949Y-42785173D01*
X105096124Y-42872676D01*
X104814909Y-42997162D01*
X104551920Y-43156587D01*
X104311476Y-43348335D01*
X104097529Y-43569252D01*
X104016099Y-43678362D01*
X103971603Y-43715631D01*
X103915121Y-43729000D01*
X102001000Y-43729000D01*
X101938000Y-43712119D01*
X101891881Y-43666000D01*
X101875000Y-43603000D01*
X101875000Y-43027191D01*
X101884591Y-42978973D01*
X101911905Y-42938096D01*
X101925000Y-42925001D01*
X101925000Y-42677190D01*
X101934591Y-42628972D01*
X101961905Y-42588095D01*
X102488095Y-42061905D01*
X102528972Y-42034591D01*
X102577190Y-42025000D01*
X160772810Y-42025000D01*
X160821028Y-42034591D01*
G37*
G36*
X160821028Y-42034591D02*
G01*
X160861905Y-42061905D01*
X161388095Y-42588095D01*
X161415409Y-42628972D01*
X161425000Y-42677190D01*
X161425000Y-71072810D01*
X161415409Y-71121028D01*
X161388095Y-71161905D01*
X160961905Y-71588095D01*
X160921028Y-71615409D01*
X160872810Y-71625000D01*
X159847000Y-71625000D01*
X159784000Y-71608119D01*
X159737881Y-71562000D01*
X159721000Y-71499000D01*
X159721000Y-67633915D01*
X159732992Y-67580267D01*
X159749439Y-67545314D01*
X159846458Y-67246722D01*
X159905287Y-66938331D01*
X159925000Y-66625000D01*
X159905287Y-66311668D01*
X159846458Y-66003277D01*
X159749439Y-65704685D01*
X159732992Y-65669733D01*
X159721000Y-65616085D01*
X159721000Y-62801000D01*
X159737881Y-62738000D01*
X159784000Y-62691881D01*
X159847000Y-62675000D01*
X159975000Y-62675000D01*
X159975000Y-48475000D01*
X159847000Y-48475000D01*
X159784000Y-48458119D01*
X159737881Y-48412000D01*
X159721000Y-48349000D01*
X159721000Y-45830968D01*
X159727419Y-45791265D01*
X159746508Y-45733769D01*
X159805296Y-45431908D01*
X159824999Y-45124999D01*
X159805296Y-44818091D01*
X159746508Y-44516230D01*
X159727419Y-44458735D01*
X159721000Y-44419032D01*
X159721000Y-42151000D01*
X159737881Y-42088000D01*
X159784000Y-42041881D01*
X159847000Y-42025000D01*
X160772810Y-42025000D01*
X160821028Y-42034591D01*
G37*
G36*
X110066000Y-42041881D02*
G01*
X110112119Y-42088000D01*
X110129000Y-42151000D01*
X110129000Y-43349000D01*
X110112119Y-43412000D01*
X110066000Y-43458119D01*
X110003000Y-43475000D01*
X109875000Y-43475000D01*
X109875000Y-48399000D01*
X109858119Y-48462000D01*
X109812000Y-48508119D01*
X109749000Y-48525000D01*
X103375000Y-48525000D01*
X103375000Y-48653000D01*
X103358119Y-48716000D01*
X103312000Y-48762119D01*
X103249000Y-48779000D01*
X102051000Y-48779000D01*
X101988000Y-48762119D01*
X101941881Y-48716000D01*
X101925000Y-48653000D01*
X101925000Y-45278764D01*
X103529931Y-45278764D01*
X103569259Y-45583785D01*
X103647265Y-45881255D01*
X103762676Y-46166323D01*
X103913590Y-46434285D01*
X104097529Y-46680747D01*
X104311476Y-46901664D01*
X104551920Y-47093412D01*
X104814909Y-47252837D01*
X105096124Y-47377323D01*
X105390949Y-47464826D01*
X105694548Y-47513910D01*
X106001920Y-47523767D01*
X106308042Y-47494235D01*
X106607865Y-47425803D01*
X106896476Y-47319591D01*
X107169146Y-47177340D01*
X107421375Y-47001397D01*
X107649037Y-46794637D01*
X107848394Y-46560462D01*
X108016164Y-46302722D01*
X108149599Y-46025643D01*
X108246509Y-45733766D01*
X108305296Y-45431908D01*
X108324999Y-45124999D01*
X108305296Y-44818091D01*
X108246509Y-44516233D01*
X108149599Y-44224356D01*
X108016164Y-43947277D01*
X107848394Y-43689537D01*
X107649037Y-43455362D01*
X107421375Y-43248602D01*
X107169146Y-43072659D01*
X106896476Y-42930408D01*
X106607865Y-42824196D01*
X106308042Y-42755764D01*
X106001920Y-42726232D01*
X105694548Y-42736089D01*
X105390949Y-42785173D01*
X105096124Y-42872676D01*
X104814909Y-42997162D01*
X104551920Y-43156587D01*
X104311476Y-43348335D01*
X104097529Y-43569252D01*
X103913590Y-43815714D01*
X103762676Y-44083676D01*
X103647265Y-44368744D01*
X103569259Y-44666214D01*
X103529931Y-44971236D01*
X103529931Y-45278764D01*
X101925000Y-45278764D01*
X101925000Y-44094999D01*
X101911905Y-44081904D01*
X101884591Y-44041027D01*
X101875000Y-43992809D01*
X101875000Y-43027191D01*
X101884591Y-42978973D01*
X101911905Y-42938096D01*
X101925000Y-42925001D01*
X101925000Y-42677190D01*
X101934591Y-42628972D01*
X101961905Y-42588095D01*
X102488095Y-42061905D01*
X102528972Y-42034591D01*
X102577190Y-42025000D01*
X110003000Y-42025000D01*
X110066000Y-42041881D01*
G37*
G36*
X103566000Y-42041881D02*
G01*
X103612119Y-42088000D01*
X103629000Y-42151000D01*
X103629000Y-44422151D01*
X103624879Y-44454111D01*
X103569259Y-44666212D01*
X103529931Y-44971236D01*
X103529931Y-45278764D01*
X103569259Y-45583787D01*
X103624879Y-45795889D01*
X103629000Y-45827849D01*
X103629000Y-48399000D01*
X103612119Y-48462000D01*
X103566000Y-48508119D01*
X103503000Y-48525000D01*
X103375000Y-48525000D01*
X103375000Y-62525000D01*
X103503000Y-62525000D01*
X103566000Y-62541881D01*
X103612119Y-62588000D01*
X103629000Y-62651000D01*
X103629000Y-65616085D01*
X103617008Y-65669733D01*
X103600560Y-65704685D01*
X103503541Y-66003277D01*
X103444712Y-66311668D01*
X103424999Y-66624999D01*
X103444712Y-66938331D01*
X103503541Y-67246722D01*
X103600560Y-67545314D01*
X103617008Y-67580267D01*
X103629000Y-67633915D01*
X103629000Y-71499000D01*
X103612119Y-71562000D01*
X103566000Y-71608119D01*
X103503000Y-71625000D01*
X102477190Y-71625000D01*
X102428972Y-71615409D01*
X102388095Y-71588095D01*
X101961905Y-71161905D01*
X101934591Y-71121028D01*
X101925000Y-71072810D01*
X101925000Y-44094999D01*
X101911905Y-44081904D01*
X101884591Y-44041027D01*
X101875000Y-43992809D01*
X101875000Y-43027191D01*
X101884591Y-42978973D01*
X101911905Y-42938096D01*
X101925000Y-42925001D01*
X101925000Y-42677190D01*
X101934591Y-42628972D01*
X101961905Y-42588095D01*
X102488095Y-42061905D01*
X102528972Y-42034591D01*
X102577190Y-42025000D01*
X103503000Y-42025000D01*
X103566000Y-42041881D01*
G37*
G36*
X160821028Y-82434591D02*
G01*
X160861905Y-82461905D01*
X161338095Y-82938095D01*
X161365409Y-82978972D01*
X161375000Y-83027190D01*
X161375000Y-141322810D01*
X161365409Y-141371028D01*
X161338095Y-141411905D01*
X160861905Y-141888095D01*
X160821028Y-141915409D01*
X160772810Y-141925000D01*
X159747000Y-141925000D01*
X159684000Y-141908119D01*
X159637881Y-141862000D01*
X159621000Y-141799000D01*
X159621000Y-140006903D01*
X159635289Y-139948623D01*
X159674914Y-139903561D01*
X159821375Y-139801397D01*
X160049037Y-139594637D01*
X160248394Y-139360462D01*
X160416164Y-139102722D01*
X160549599Y-138825643D01*
X160646509Y-138533766D01*
X160705296Y-138231908D01*
X160724999Y-137925000D01*
X160705296Y-137618091D01*
X160646509Y-137316233D01*
X160549599Y-137024356D01*
X160416164Y-136747277D01*
X160248394Y-136489537D01*
X160049037Y-136255362D01*
X159821375Y-136048602D01*
X159674914Y-135946439D01*
X159635289Y-135901377D01*
X159621000Y-135843097D01*
X159621000Y-134101000D01*
X159637881Y-134038000D01*
X159684000Y-133991881D01*
X159747000Y-133975000D01*
X159875000Y-133975000D01*
X159875000Y-90425000D01*
X159747000Y-90425000D01*
X159684000Y-90408119D01*
X159637881Y-90362000D01*
X159621000Y-90299000D01*
X159621000Y-88506903D01*
X159635289Y-88448623D01*
X159674914Y-88403561D01*
X159821375Y-88301397D01*
X160049037Y-88094637D01*
X160248394Y-87860462D01*
X160416164Y-87602722D01*
X160549599Y-87325643D01*
X160646509Y-87033766D01*
X160705296Y-86731908D01*
X160724999Y-86424999D01*
X160705296Y-86118091D01*
X160646509Y-85816233D01*
X160549599Y-85524356D01*
X160416164Y-85247277D01*
X160248394Y-84989537D01*
X160049037Y-84755362D01*
X159821375Y-84548602D01*
X159674914Y-84446439D01*
X159635289Y-84401377D01*
X159621000Y-84343097D01*
X159621000Y-82551000D01*
X159637881Y-82488000D01*
X159684000Y-82441881D01*
X159747000Y-82425000D01*
X160772810Y-82425000D01*
X160821028Y-82434591D01*
G37*
G36*
X103312000Y-62287881D02*
G01*
X103358119Y-62334000D01*
X103375000Y-62397000D01*
X103375000Y-62525000D01*
X109749000Y-62525000D01*
X109812000Y-62541881D01*
X109858119Y-62588000D01*
X109875000Y-62651000D01*
X109875000Y-70175000D01*
X110003000Y-70175000D01*
X110066000Y-70191881D01*
X110112119Y-70238000D01*
X110129000Y-70301000D01*
X110129000Y-71499000D01*
X110112119Y-71562000D01*
X110066000Y-71608119D01*
X110003000Y-71625000D01*
X108177190Y-71625000D01*
X108128972Y-71615409D01*
X108088095Y-71588095D01*
X106625001Y-70125000D01*
X105124998Y-70125000D01*
X103661905Y-71588095D01*
X103621028Y-71615409D01*
X103572810Y-71625000D01*
X102477190Y-71625000D01*
X102428972Y-71615409D01*
X102388095Y-71588095D01*
X101961905Y-71161905D01*
X101934591Y-71121028D01*
X101925000Y-71072810D01*
X101925000Y-66624999D01*
X103424999Y-66624999D01*
X103444712Y-66938331D01*
X103503541Y-67246722D01*
X103600560Y-67545313D01*
X103734233Y-67829384D01*
X103902455Y-68094460D01*
X104102577Y-68336367D01*
X104331440Y-68551283D01*
X104585430Y-68735818D01*
X104860555Y-68887069D01*
X105152460Y-69002642D01*
X105456546Y-69080718D01*
X105768021Y-69120067D01*
X106081979Y-69120067D01*
X106393453Y-69080718D01*
X106697539Y-69002642D01*
X106989444Y-68887069D01*
X107264569Y-68735818D01*
X107518559Y-68551283D01*
X107747422Y-68336367D01*
X107947544Y-68094460D01*
X108115766Y-67829384D01*
X108249439Y-67545313D01*
X108346458Y-67246722D01*
X108405287Y-66938331D01*
X108425000Y-66624999D01*
X108405287Y-66311668D01*
X108346458Y-66003277D01*
X108249439Y-65704686D01*
X108115766Y-65420615D01*
X107947544Y-65155539D01*
X107747422Y-64913632D01*
X107518559Y-64698716D01*
X107264569Y-64514181D01*
X106989444Y-64362930D01*
X106697539Y-64247357D01*
X106393453Y-64169281D01*
X106081979Y-64129933D01*
X105768021Y-64129933D01*
X105456546Y-64169281D01*
X105152460Y-64247357D01*
X104860555Y-64362930D01*
X104585430Y-64514181D01*
X104331440Y-64698716D01*
X104102577Y-64913632D01*
X103902455Y-65155539D01*
X103734233Y-65420615D01*
X103600560Y-65704686D01*
X103503541Y-66003277D01*
X103444712Y-66311668D01*
X103424999Y-66624999D01*
X101925000Y-66624999D01*
X101925000Y-62397000D01*
X101941881Y-62334000D01*
X101988000Y-62287881D01*
X102051000Y-62271000D01*
X103249000Y-62271000D01*
X103312000Y-62287881D01*
G37*
G36*
X129912000Y-78416881D02*
G01*
X129958119Y-78463000D01*
X129975000Y-78526000D01*
X129975000Y-82274000D01*
X129958119Y-82337000D01*
X129912000Y-82383119D01*
X129849000Y-82400000D01*
X128926000Y-82400000D01*
X128863000Y-82383119D01*
X128816881Y-82337000D01*
X128800000Y-82274000D01*
X128800000Y-78526000D01*
X128816881Y-78463000D01*
X128863000Y-78416881D01*
X128926000Y-78400000D01*
X129849000Y-78400000D01*
X129912000Y-78416881D01*
G37*
G36*
X160821028Y-82434591D02*
G01*
X160861905Y-82461905D01*
X161338095Y-82938095D01*
X161365409Y-82978972D01*
X161375000Y-83027190D01*
X161375000Y-90553000D01*
X161358119Y-90616000D01*
X161312000Y-90662119D01*
X161249000Y-90679000D01*
X160001000Y-90679000D01*
X159938000Y-90662119D01*
X159891881Y-90616000D01*
X159875000Y-90553000D01*
X159875000Y-90425000D01*
X155001000Y-90425000D01*
X154938000Y-90408119D01*
X154891881Y-90362000D01*
X154875000Y-90299000D01*
X154875000Y-86578764D01*
X155929931Y-86578764D01*
X155969259Y-86883785D01*
X156047265Y-87181255D01*
X156162676Y-87466323D01*
X156313590Y-87734285D01*
X156497529Y-87980747D01*
X156711476Y-88201664D01*
X156951920Y-88393412D01*
X157214909Y-88552837D01*
X157496124Y-88677323D01*
X157790949Y-88764826D01*
X158094548Y-88813910D01*
X158401920Y-88823767D01*
X158708042Y-88794235D01*
X159007865Y-88725803D01*
X159296476Y-88619591D01*
X159569146Y-88477340D01*
X159821375Y-88301397D01*
X160049037Y-88094637D01*
X160248394Y-87860462D01*
X160416164Y-87602722D01*
X160549599Y-87325643D01*
X160646509Y-87033766D01*
X160705296Y-86731908D01*
X160724999Y-86424999D01*
X160705296Y-86118091D01*
X160646509Y-85816233D01*
X160549599Y-85524356D01*
X160416164Y-85247277D01*
X160248394Y-84989537D01*
X160049037Y-84755362D01*
X159821375Y-84548602D01*
X159569146Y-84372659D01*
X159296476Y-84230408D01*
X159007865Y-84124196D01*
X158708042Y-84055764D01*
X158401920Y-84026232D01*
X158094548Y-84036089D01*
X157790949Y-84085173D01*
X157496124Y-84172676D01*
X157214909Y-84297162D01*
X156951920Y-84456587D01*
X156711476Y-84648335D01*
X156497529Y-84869252D01*
X156313590Y-85115714D01*
X156162676Y-85383676D01*
X156047265Y-85668744D01*
X155969259Y-85966214D01*
X155929931Y-86271236D01*
X155929931Y-86578764D01*
X154875000Y-86578764D01*
X154875000Y-83925000D01*
X154747000Y-83925000D01*
X154684000Y-83908119D01*
X154637881Y-83862000D01*
X154621000Y-83799000D01*
X154621000Y-82551000D01*
X154637881Y-82488000D01*
X154684000Y-82441881D01*
X154747000Y-82425000D01*
X160772810Y-82425000D01*
X160821028Y-82434591D01*
G37*
G36*
X133212000Y-133737881D02*
G01*
X133258119Y-133784000D01*
X133275000Y-133847000D01*
X133275000Y-133975000D01*
X140649000Y-133975000D01*
X140712000Y-133991881D01*
X140758119Y-134038000D01*
X140775000Y-134101000D01*
X140775000Y-140425000D01*
X140903000Y-140425000D01*
X140966000Y-140441881D01*
X141012119Y-140488000D01*
X141029000Y-140551000D01*
X141029000Y-141799000D01*
X141012119Y-141862000D01*
X140966000Y-141908119D01*
X140903000Y-141925000D01*
X132377190Y-141925000D01*
X132328972Y-141915409D01*
X132288095Y-141888095D01*
X131861905Y-141461905D01*
X131834591Y-141421028D01*
X131825000Y-141372810D01*
X131825000Y-140277190D01*
X131834591Y-140228972D01*
X131861905Y-140188095D01*
X133325000Y-138725000D01*
X133325000Y-137924999D01*
X134324999Y-137924999D01*
X134344712Y-138238331D01*
X134403541Y-138546722D01*
X134500560Y-138845313D01*
X134634233Y-139129384D01*
X134802455Y-139394460D01*
X135002577Y-139636367D01*
X135231440Y-139851283D01*
X135485430Y-140035818D01*
X135760555Y-140187069D01*
X136052460Y-140302642D01*
X136356546Y-140380718D01*
X136668021Y-140420067D01*
X136981979Y-140420067D01*
X137293453Y-140380718D01*
X137597539Y-140302642D01*
X137889444Y-140187069D01*
X138164569Y-140035818D01*
X138418559Y-139851283D01*
X138647422Y-139636367D01*
X138847544Y-139394460D01*
X139015766Y-139129384D01*
X139149439Y-138845313D01*
X139246458Y-138546722D01*
X139305287Y-138238331D01*
X139325000Y-137925000D01*
X139305287Y-137611668D01*
X139246458Y-137303277D01*
X139149439Y-137004686D01*
X139015766Y-136720615D01*
X138847544Y-136455539D01*
X138647422Y-136213632D01*
X138418559Y-135998716D01*
X138164569Y-135814181D01*
X137889444Y-135662930D01*
X137597539Y-135547357D01*
X137293453Y-135469281D01*
X136981979Y-135429933D01*
X136668021Y-135429933D01*
X136356546Y-135469281D01*
X136052460Y-135547357D01*
X135760555Y-135662930D01*
X135485430Y-135814181D01*
X135231440Y-135998716D01*
X135002577Y-136213632D01*
X134802455Y-136455539D01*
X134634233Y-136720615D01*
X134500560Y-137004686D01*
X134403541Y-137303277D01*
X134344712Y-137611668D01*
X134324999Y-137924999D01*
X133325000Y-137924999D01*
X133325000Y-137225000D01*
X133324999Y-137224998D01*
X131861905Y-135761905D01*
X131834591Y-135721028D01*
X131825000Y-135672810D01*
X131825000Y-135374999D01*
X131811905Y-135361904D01*
X131784591Y-135321027D01*
X131775000Y-135272809D01*
X131775000Y-133847000D01*
X131791881Y-133784000D01*
X131838000Y-133737881D01*
X131901000Y-133721000D01*
X133149000Y-133721000D01*
X133212000Y-133737881D01*
G37*
G36*
X160821028Y-42034591D02*
G01*
X160861905Y-42061905D01*
X161388095Y-42588095D01*
X161415409Y-42628972D01*
X161425000Y-42677190D01*
X161425000Y-48603000D01*
X161408119Y-48666000D01*
X161362000Y-48712119D01*
X161299000Y-48729000D01*
X160101000Y-48729000D01*
X160038000Y-48712119D01*
X159991881Y-48666000D01*
X159975000Y-48603000D01*
X159975000Y-48475000D01*
X153601000Y-48475000D01*
X153538000Y-48458119D01*
X153491881Y-48412000D01*
X153475000Y-48349000D01*
X153475000Y-45278764D01*
X155029931Y-45278764D01*
X155069259Y-45583785D01*
X155147265Y-45881255D01*
X155262676Y-46166323D01*
X155413590Y-46434285D01*
X155597529Y-46680747D01*
X155811476Y-46901664D01*
X156051920Y-47093412D01*
X156314909Y-47252837D01*
X156596124Y-47377323D01*
X156890949Y-47464826D01*
X157194548Y-47513910D01*
X157501920Y-47523767D01*
X157808042Y-47494235D01*
X158107865Y-47425803D01*
X158396476Y-47319591D01*
X158669146Y-47177340D01*
X158921375Y-47001397D01*
X159149037Y-46794637D01*
X159348394Y-46560462D01*
X159516164Y-46302722D01*
X159649599Y-46025643D01*
X159746509Y-45733766D01*
X159805296Y-45431908D01*
X159824999Y-45124999D01*
X159805296Y-44818091D01*
X159746509Y-44516233D01*
X159649599Y-44224356D01*
X159516164Y-43947277D01*
X159348394Y-43689537D01*
X159149037Y-43455362D01*
X158921375Y-43248602D01*
X158669146Y-43072659D01*
X158396476Y-42930408D01*
X158107865Y-42824196D01*
X157808042Y-42755764D01*
X157501920Y-42726232D01*
X157194548Y-42736089D01*
X156890949Y-42785173D01*
X156596124Y-42872676D01*
X156314909Y-42997162D01*
X156051920Y-43156587D01*
X155811476Y-43348335D01*
X155597529Y-43569252D01*
X155413590Y-43815714D01*
X155262676Y-44083676D01*
X155147265Y-44368744D01*
X155069259Y-44666214D01*
X155029931Y-44971236D01*
X155029931Y-45278764D01*
X153475000Y-45278764D01*
X153475000Y-43475000D01*
X153347000Y-43475000D01*
X153284000Y-43458119D01*
X153237881Y-43412000D01*
X153221000Y-43349000D01*
X153221000Y-42151000D01*
X153237881Y-42088000D01*
X153284000Y-42041881D01*
X153347000Y-42025000D01*
X160772810Y-42025000D01*
X160821028Y-42034591D01*
G37*
G36*
X135752904Y-140184847D02*
G01*
X135753181Y-140184150D01*
X135758702Y-140186335D01*
X135759676Y-140186586D01*
X135760556Y-140187070D01*
X136052460Y-140302642D01*
X136356546Y-140380718D01*
X136668021Y-140420067D01*
X136981979Y-140420067D01*
X137293453Y-140380718D01*
X137597539Y-140302642D01*
X137889443Y-140187070D01*
X137890324Y-140186586D01*
X137891297Y-140186335D01*
X137896819Y-140184150D01*
X137897095Y-140184847D01*
X137951027Y-140171000D01*
X140649000Y-140171000D01*
X140712000Y-140187881D01*
X140758119Y-140234000D01*
X140775000Y-140297000D01*
X140775000Y-140425000D01*
X154875000Y-140425000D01*
X154875000Y-140297000D01*
X154891881Y-140234000D01*
X154938000Y-140187881D01*
X155001000Y-140171000D01*
X157456514Y-140171000D01*
X157492365Y-140176208D01*
X157790949Y-140264826D01*
X158094548Y-140313910D01*
X158401920Y-140323767D01*
X158708042Y-140294235D01*
X159007865Y-140225803D01*
X159135716Y-140178753D01*
X159179232Y-140171000D01*
X161249000Y-140171000D01*
X161312000Y-140187881D01*
X161358119Y-140234000D01*
X161375000Y-140297000D01*
X161375000Y-141322810D01*
X161365409Y-141371028D01*
X161338095Y-141411905D01*
X160861905Y-141888095D01*
X160821028Y-141915409D01*
X160772810Y-141925000D01*
X132377190Y-141925000D01*
X132328972Y-141915409D01*
X132288095Y-141888095D01*
X131861905Y-141461905D01*
X131834591Y-141421028D01*
X131825000Y-141372810D01*
X131825000Y-140297000D01*
X131841881Y-140234000D01*
X131888000Y-140187881D01*
X131951000Y-140171000D01*
X135698973Y-140171000D01*
X135752904Y-140184847D01*
G37*
G36*
X160821028Y-82434591D02*
G01*
X160861905Y-82461905D01*
X161338095Y-82938095D01*
X161365409Y-82978972D01*
X161375000Y-83027190D01*
X161375000Y-84053000D01*
X161358119Y-84116000D01*
X161312000Y-84162119D01*
X161249000Y-84179000D01*
X159179232Y-84179000D01*
X159135716Y-84171247D01*
X159007865Y-84124196D01*
X158708042Y-84055764D01*
X158401920Y-84026232D01*
X158094548Y-84036089D01*
X157790949Y-84085173D01*
X157492365Y-84173792D01*
X157456514Y-84179000D01*
X155001000Y-84179000D01*
X154938000Y-84162119D01*
X154891881Y-84116000D01*
X154875000Y-84053000D01*
X154875000Y-83925000D01*
X140925000Y-83925000D01*
X140925000Y-84053000D01*
X140908119Y-84116000D01*
X140862000Y-84162119D01*
X140799000Y-84179000D01*
X137951027Y-84179000D01*
X137897095Y-84165152D01*
X137896819Y-84165850D01*
X137891297Y-84163664D01*
X137890324Y-84163414D01*
X137889443Y-84162929D01*
X137597539Y-84047357D01*
X137293453Y-83969281D01*
X136981979Y-83929933D01*
X136668021Y-83929933D01*
X136356546Y-83969281D01*
X136052460Y-84047357D01*
X135760556Y-84162929D01*
X135759676Y-84163414D01*
X135758702Y-84163664D01*
X135753181Y-84165850D01*
X135752904Y-84165152D01*
X135698973Y-84179000D01*
X131951000Y-84179000D01*
X131888000Y-84162119D01*
X131841881Y-84116000D01*
X131825000Y-84053000D01*
X131825000Y-82977190D01*
X131834591Y-82928972D01*
X131861905Y-82888095D01*
X132288095Y-82461905D01*
X132328972Y-82434591D01*
X132377190Y-82425000D01*
X160772810Y-82425000D01*
X160821028Y-82434591D01*
G37*
G36*
X141116000Y-82441881D02*
G01*
X141162119Y-82488000D01*
X141179000Y-82551000D01*
X141179000Y-83799000D01*
X141162119Y-83862000D01*
X141116000Y-83908119D01*
X141053000Y-83925000D01*
X140925000Y-83925000D01*
X140925000Y-90299000D01*
X140908119Y-90362000D01*
X140862000Y-90408119D01*
X140799000Y-90425000D01*
X133275000Y-90425000D01*
X133275000Y-90553000D01*
X133258119Y-90616000D01*
X133212000Y-90662119D01*
X133149000Y-90679000D01*
X131951000Y-90679000D01*
X131888000Y-90662119D01*
X131841881Y-90616000D01*
X131825000Y-90553000D01*
X131825000Y-88677190D01*
X131834591Y-88628972D01*
X131861905Y-88588095D01*
X133325000Y-87125000D01*
X133325000Y-86424999D01*
X134324999Y-86424999D01*
X134344712Y-86738331D01*
X134403541Y-87046722D01*
X134500560Y-87345313D01*
X134634233Y-87629384D01*
X134802455Y-87894460D01*
X135002577Y-88136367D01*
X135231440Y-88351283D01*
X135485430Y-88535818D01*
X135760555Y-88687069D01*
X136052460Y-88802642D01*
X136356546Y-88880718D01*
X136668021Y-88920067D01*
X136981979Y-88920067D01*
X137293453Y-88880718D01*
X137597539Y-88802642D01*
X137889444Y-88687069D01*
X138164569Y-88535818D01*
X138418559Y-88351283D01*
X138647422Y-88136367D01*
X138847544Y-87894460D01*
X139015766Y-87629384D01*
X139149439Y-87345313D01*
X139246458Y-87046722D01*
X139305287Y-86738331D01*
X139325000Y-86425000D01*
X139305287Y-86111668D01*
X139246458Y-85803277D01*
X139149439Y-85504686D01*
X139015766Y-85220615D01*
X138847544Y-84955539D01*
X138647422Y-84713632D01*
X138418559Y-84498716D01*
X138164569Y-84314181D01*
X137889444Y-84162930D01*
X137597539Y-84047357D01*
X137293453Y-83969281D01*
X136981979Y-83929933D01*
X136668021Y-83929933D01*
X136356546Y-83969281D01*
X136052460Y-84047357D01*
X135760555Y-84162930D01*
X135485430Y-84314181D01*
X135231440Y-84498716D01*
X135002577Y-84713632D01*
X134802455Y-84955539D01*
X134634233Y-85220615D01*
X134500560Y-85504686D01*
X134403541Y-85803277D01*
X134344712Y-86111668D01*
X134324999Y-86424999D01*
X133325000Y-86424999D01*
X133325000Y-85625000D01*
X133324999Y-85624998D01*
X131861905Y-84161905D01*
X131834591Y-84121028D01*
X131825000Y-84072810D01*
X131825000Y-82977190D01*
X131834591Y-82928972D01*
X131861905Y-82888095D01*
X132288095Y-82461905D01*
X132328972Y-82434591D01*
X132377190Y-82425000D01*
X141053000Y-82425000D01*
X141116000Y-82441881D01*
G37*
G36*
X161312000Y-133737881D02*
G01*
X161358119Y-133784000D01*
X161375000Y-133847000D01*
X161375000Y-141322810D01*
X161365409Y-141371028D01*
X161338095Y-141411905D01*
X160861905Y-141888095D01*
X160821028Y-141915409D01*
X160772810Y-141925000D01*
X154747000Y-141925000D01*
X154684000Y-141908119D01*
X154637881Y-141862000D01*
X154621000Y-141799000D01*
X154621000Y-140551000D01*
X154637881Y-140488000D01*
X154684000Y-140441881D01*
X154747000Y-140425000D01*
X154875000Y-140425000D01*
X154875000Y-138078764D01*
X155929931Y-138078764D01*
X155969259Y-138383785D01*
X156047265Y-138681255D01*
X156162676Y-138966323D01*
X156313590Y-139234285D01*
X156497529Y-139480747D01*
X156711476Y-139701664D01*
X156951920Y-139893412D01*
X157214909Y-140052837D01*
X157496124Y-140177323D01*
X157790949Y-140264826D01*
X158094548Y-140313910D01*
X158401920Y-140323767D01*
X158708042Y-140294235D01*
X159007865Y-140225803D01*
X159296476Y-140119591D01*
X159569146Y-139977340D01*
X159821375Y-139801397D01*
X160049037Y-139594637D01*
X160248394Y-139360462D01*
X160416164Y-139102722D01*
X160549599Y-138825643D01*
X160646509Y-138533766D01*
X160705296Y-138231908D01*
X160724999Y-137925000D01*
X160705296Y-137618091D01*
X160646509Y-137316233D01*
X160549599Y-137024356D01*
X160416164Y-136747277D01*
X160248394Y-136489537D01*
X160049037Y-136255362D01*
X159821375Y-136048602D01*
X159569146Y-135872659D01*
X159296476Y-135730408D01*
X159007865Y-135624196D01*
X158708042Y-135555764D01*
X158401920Y-135526232D01*
X158094548Y-135536089D01*
X157790949Y-135585173D01*
X157496124Y-135672676D01*
X157214909Y-135797162D01*
X156951920Y-135956587D01*
X156711476Y-136148335D01*
X156497529Y-136369252D01*
X156313590Y-136615714D01*
X156162676Y-136883676D01*
X156047265Y-137168744D01*
X155969259Y-137466214D01*
X155929931Y-137771236D01*
X155929931Y-138078764D01*
X154875000Y-138078764D01*
X154875000Y-134101000D01*
X154891881Y-134038000D01*
X154938000Y-133991881D01*
X155001000Y-133975000D01*
X159875000Y-133975000D01*
X159875000Y-133847000D01*
X159891881Y-133784000D01*
X159938000Y-133737881D01*
X160001000Y-133721000D01*
X161249000Y-133721000D01*
X161312000Y-133737881D01*
G37*
M02*
