G04 #@! TF.GenerationSoftware,KiCad,Pcbnew,7.0.1-0*
G04 #@! TF.CreationDate,2023-11-21T15:01:45-05:00*
G04 #@! TF.ProjectId,CosmicWatch,436f736d-6963-4576-9174-63682e6b6963,rev?*
G04 #@! TF.SameCoordinates,Original*
G04 #@! TF.FileFunction,Soldermask,Top*
G04 #@! TF.FilePolarity,Negative*
%FSLAX46Y46*%
G04 Gerber Fmt 4.6, Leading zero omitted, Abs format (unit mm)*
G04 Created by KiCad (PCBNEW 7.0.1-0) date 2023-11-21 15:01:45*
%MOMM*%
%LPD*%
G01*
G04 APERTURE LIST*
%ADD10R,1.700000X1.700000*%
%ADD11O,1.700000X1.700000*%
%ADD12C,1.000000*%
%ADD13R,2.000000X4.000000*%
%ADD14C,2.032000*%
%ADD15C,2.000000*%
%ADD16R,2.000000X3.000000*%
%ADD17O,2.200000X3.000000*%
%ADD18R,2.000000X5.000000*%
%ADD19R,1.700000X3.000000*%
%ADD20R,2.000000X3.800000*%
%ADD21R,2.500000X7.000000*%
%ADD22R,2.000000X0.500000*%
%ADD23C,3.650000*%
%ADD24R,1.500000X1.500000*%
%ADD25C,1.500000*%
%ADD26C,2.200000*%
%ADD27R,4.000000X1.500000*%
%ADD28R,4.000000X1.400000*%
%ADD29R,0.650000X1.560000*%
G04 APERTURE END LIST*
D10*
X103070000Y-90415000D03*
D11*
X105610000Y-90415000D03*
D10*
X72505000Y-90065000D03*
D11*
X75045000Y-90065000D03*
D10*
X88755000Y-90365000D03*
D11*
X91295000Y-90365000D03*
D12*
X79760000Y-60175000D03*
X81020000Y-60175000D03*
X82280000Y-60175000D03*
X79760000Y-61435000D03*
X82280000Y-61435000D03*
X79760000Y-62695000D03*
X81020000Y-62695000D03*
X82280000Y-62695000D03*
D13*
X113595000Y-114175000D03*
D10*
X116650000Y-102300000D03*
D11*
X116650000Y-104840000D03*
X114110000Y-102300000D03*
X114110000Y-104840000D03*
D14*
X117707500Y-97125000D03*
D15*
X120207500Y-95875000D03*
D14*
X117707500Y-90125000D03*
D15*
X120207500Y-91375000D03*
D16*
X81355000Y-114175000D03*
D17*
X83895000Y-114175000D03*
X86435000Y-114175000D03*
X88975000Y-114175000D03*
D10*
X66751370Y-61420023D03*
D11*
X69291370Y-61420023D03*
X71831370Y-61420023D03*
X74371370Y-61420023D03*
D18*
X98825000Y-61375000D03*
D10*
X101700000Y-134350000D03*
D11*
X101700000Y-131810000D03*
X101700000Y-129270000D03*
X101700000Y-126730000D03*
D19*
X63095000Y-137565000D03*
X65635000Y-137565000D03*
X68175000Y-137565000D03*
X70715000Y-137565000D03*
X73255000Y-137565000D03*
X75795000Y-137565000D03*
X78335000Y-137565000D03*
X80875000Y-137565000D03*
X83415000Y-137565000D03*
X93575000Y-137565000D03*
X98655000Y-137565000D03*
X101195000Y-137565000D03*
X103735000Y-137565000D03*
X106275000Y-137565000D03*
X108815000Y-137565000D03*
X111355000Y-137565000D03*
X111355000Y-117985000D03*
X108815000Y-117985000D03*
X106275000Y-117985000D03*
X101195000Y-117985000D03*
X98655000Y-117985000D03*
X96115000Y-117985000D03*
X93575000Y-117985000D03*
X91035000Y-117985000D03*
X88495000Y-117985000D03*
X85955000Y-117985000D03*
X83415000Y-117985000D03*
X80875000Y-117985000D03*
X78335000Y-117985000D03*
X75795000Y-117985000D03*
X73255000Y-117985000D03*
X70715000Y-117985000D03*
X68175000Y-117985000D03*
X65635000Y-117985000D03*
X63095000Y-117985000D03*
D18*
X94925000Y-61425000D03*
D20*
X120800000Y-80400000D03*
D21*
X127175000Y-80400000D03*
D22*
X129125000Y-52765000D03*
X129125000Y-52765000D03*
X129125000Y-53565000D03*
X129125000Y-54365000D03*
D23*
X63845000Y-94645000D03*
X63845000Y-106075000D03*
D24*
X70195000Y-95915000D03*
D25*
X72735000Y-97185000D03*
X70195000Y-98455000D03*
X72735000Y-99725000D03*
X70195000Y-100995000D03*
X72735000Y-102265000D03*
X70195000Y-103535000D03*
X72735000Y-104805000D03*
D26*
X72965000Y-132679500D03*
X72965000Y-122529500D03*
D11*
X104685000Y-119395000D03*
X107225000Y-121935000D03*
X104685000Y-121935000D03*
X107225000Y-124475000D03*
X104685000Y-124475000D03*
X107225000Y-127015000D03*
X104685000Y-127015000D03*
D27*
X64145000Y-114525000D03*
D28*
X64145000Y-111625000D03*
D29*
X83515000Y-126910000D03*
G36*
X100399005Y-41924995D02*
G01*
X100462003Y-41941878D01*
X100508120Y-41987997D01*
X100525000Y-42050995D01*
X100525000Y-42925001D01*
X100531406Y-42931407D01*
X100570144Y-42941741D01*
X100616225Y-42987515D01*
X100633384Y-43050158D01*
X100639516Y-43968158D01*
X100622918Y-44031513D01*
X100576762Y-44077979D01*
X100513519Y-44095000D01*
X100495001Y-44095000D01*
X100524897Y-80798897D01*
X100508050Y-80861941D01*
X100461927Y-80908102D01*
X100398897Y-80925000D01*
X64784999Y-80925000D01*
X64523166Y-81873076D01*
X64497152Y-81921799D01*
X64452798Y-81954714D01*
X64398628Y-81965496D01*
X62704681Y-81924012D01*
X62652388Y-81911228D01*
X62610204Y-81877785D01*
X62585828Y-81829787D01*
X62583711Y-81775996D01*
X62734999Y-80925000D01*
X61651000Y-80925000D01*
X61588000Y-80908119D01*
X61541881Y-80862000D01*
X61525000Y-80799000D01*
X61525000Y-76526168D01*
X65030131Y-76526168D01*
X65070860Y-76724361D01*
X65150653Y-76910303D01*
X65266240Y-77076370D01*
X65412894Y-77215775D01*
X65584606Y-77322805D01*
X65774347Y-77393077D01*
X65974351Y-77423716D01*
X66176426Y-77413468D01*
X66372308Y-77362750D01*
X66553961Y-77273646D01*
X66713968Y-77149792D01*
X66845762Y-76996268D01*
X66943957Y-76819357D01*
X67004529Y-76626299D01*
X67014711Y-76526168D01*
X95030131Y-76526168D01*
X95070860Y-76724361D01*
X95150653Y-76910303D01*
X95266240Y-77076370D01*
X95412894Y-77215775D01*
X95584606Y-77322805D01*
X95774347Y-77393077D01*
X95974351Y-77423716D01*
X96176426Y-77413468D01*
X96372308Y-77362750D01*
X96553961Y-77273646D01*
X96713968Y-77149792D01*
X96845762Y-76996268D01*
X96943957Y-76819357D01*
X97004529Y-76626299D01*
X97024999Y-76424999D01*
X97004529Y-76223700D01*
X96943957Y-76030642D01*
X96845762Y-75853731D01*
X96713968Y-75700207D01*
X96553961Y-75576353D01*
X96372308Y-75487249D01*
X96176426Y-75436531D01*
X95974351Y-75426283D01*
X95774347Y-75456922D01*
X95584606Y-75527194D01*
X95412894Y-75634224D01*
X95266240Y-75773629D01*
X95150653Y-75939696D01*
X95070860Y-76125638D01*
X95030131Y-76323832D01*
X95030131Y-76526168D01*
X67014711Y-76526168D01*
X67024999Y-76424999D01*
X67004529Y-76223700D01*
X66943957Y-76030642D01*
X66845762Y-75853731D01*
X66713968Y-75700207D01*
X66553961Y-75576353D01*
X66372308Y-75487249D01*
X66176426Y-75436531D01*
X65974351Y-75426283D01*
X65774347Y-75456922D01*
X65584606Y-75527194D01*
X65412894Y-75634224D01*
X65266240Y-75773629D01*
X65150653Y-75939696D01*
X65070860Y-76125638D01*
X65030131Y-76323832D01*
X65030131Y-76526168D01*
X61525000Y-76526168D01*
X61525000Y-59350000D01*
X95975000Y-59350000D01*
X95975000Y-63500000D01*
X97775000Y-63500000D01*
X97775000Y-59350000D01*
X95975000Y-59350000D01*
X61525000Y-59350000D01*
X61525000Y-46526168D01*
X65030131Y-46526168D01*
X65070860Y-46724361D01*
X65150653Y-46910303D01*
X65266240Y-47076370D01*
X65412894Y-47215775D01*
X65584606Y-47322805D01*
X65774347Y-47393077D01*
X65974351Y-47423716D01*
X66176426Y-47413468D01*
X66372308Y-47362750D01*
X66553961Y-47273646D01*
X66713968Y-47149792D01*
X66845762Y-46996268D01*
X66943957Y-46819357D01*
X67004529Y-46626299D01*
X67014711Y-46526168D01*
X95030131Y-46526168D01*
X95070860Y-46724361D01*
X95150653Y-46910303D01*
X95266240Y-47076370D01*
X95412894Y-47215775D01*
X95584606Y-47322805D01*
X95774347Y-47393077D01*
X95974351Y-47423716D01*
X96176426Y-47413468D01*
X96372308Y-47362750D01*
X96553961Y-47273646D01*
X96713968Y-47149792D01*
X96845762Y-46996268D01*
X96943957Y-46819357D01*
X97004529Y-46626299D01*
X97024999Y-46425000D01*
X97004529Y-46223700D01*
X96943957Y-46030642D01*
X96845762Y-45853731D01*
X96713968Y-45700207D01*
X96553961Y-45576353D01*
X96372308Y-45487249D01*
X96176426Y-45436531D01*
X95974351Y-45426283D01*
X95774347Y-45456922D01*
X95584606Y-45527194D01*
X95412894Y-45634224D01*
X95266240Y-45773629D01*
X95150653Y-45939696D01*
X95070860Y-46125638D01*
X95030131Y-46323832D01*
X95030131Y-46526168D01*
X67014711Y-46526168D01*
X67024999Y-46425000D01*
X67004529Y-46223700D01*
X66943957Y-46030642D01*
X66845762Y-45853731D01*
X66713968Y-45700207D01*
X66553961Y-45576353D01*
X66372308Y-45487249D01*
X66176426Y-45436531D01*
X65974351Y-45426283D01*
X65774347Y-45456922D01*
X65584606Y-45527194D01*
X65412894Y-45634224D01*
X65266240Y-45773629D01*
X65150653Y-45939696D01*
X65070860Y-46125638D01*
X65030131Y-46323832D01*
X65030131Y-46526168D01*
X61525000Y-46526168D01*
X61525000Y-42050977D01*
X61541877Y-41987984D01*
X61587987Y-41941865D01*
X61650977Y-41924977D01*
X69020017Y-41923630D01*
X69020045Y-41923630D01*
X100399005Y-41924995D01*
G37*
G36*
X154112000Y-110491881D02*
G01*
X154158119Y-110538000D01*
X154175000Y-110601000D01*
X154175000Y-113322810D01*
X154165409Y-113371028D01*
X154138095Y-113411905D01*
X153064095Y-114485905D01*
X153007611Y-114518517D01*
X152942389Y-114518517D01*
X152885905Y-114485905D01*
X152714095Y-114314095D01*
X152681483Y-114257611D01*
X152681483Y-114192389D01*
X152714095Y-114135905D01*
X153675000Y-113175000D01*
X153675000Y-110601000D01*
X153691881Y-110538000D01*
X153738000Y-110491881D01*
X153801000Y-110475000D01*
X154049000Y-110475000D01*
X154112000Y-110491881D01*
G37*
G36*
X154912000Y-110441881D02*
G01*
X154958119Y-110488000D01*
X154975000Y-110551000D01*
X154975000Y-116772810D01*
X154965409Y-116821028D01*
X154938095Y-116861905D01*
X154114095Y-117685905D01*
X154057611Y-117718517D01*
X153992389Y-117718517D01*
X153935905Y-117685905D01*
X153764095Y-117514095D01*
X153731483Y-117457611D01*
X153731483Y-117392389D01*
X153764095Y-117335904D01*
X154475000Y-116625000D01*
X154475000Y-110551000D01*
X154491881Y-110488000D01*
X154538000Y-110441881D01*
X154601000Y-110425000D01*
X154849000Y-110425000D01*
X154912000Y-110441881D01*
G37*
G36*
X155712000Y-110391881D02*
G01*
X155758119Y-110438000D01*
X155775000Y-110501000D01*
X155775000Y-117525001D01*
X158297727Y-120047727D01*
X158328661Y-120098493D01*
X158332875Y-120157791D01*
X158309432Y-120212422D01*
X158162167Y-120408777D01*
X158105329Y-120451259D01*
X158034547Y-120456289D01*
X157972272Y-120422272D01*
X155311905Y-117761905D01*
X155284591Y-117721028D01*
X155275000Y-117672810D01*
X155275000Y-110501000D01*
X155291881Y-110438000D01*
X155338000Y-110391881D01*
X155401000Y-110375000D01*
X155649000Y-110375000D01*
X155712000Y-110391881D01*
G37*
G36*
X157112000Y-108291881D02*
G01*
X157158119Y-108338000D01*
X157175000Y-108401000D01*
X157175000Y-113075001D01*
X158197727Y-114097727D01*
X158228661Y-114148493D01*
X158232875Y-114207791D01*
X158209432Y-114262422D01*
X158062167Y-114458777D01*
X158005329Y-114501259D01*
X157934547Y-114506289D01*
X157872272Y-114472272D01*
X156711905Y-113311905D01*
X156684591Y-113271028D01*
X156675000Y-113222810D01*
X156675000Y-108401000D01*
X156691881Y-108338000D01*
X156738000Y-108291881D01*
X156801000Y-108275000D01*
X157049000Y-108275000D01*
X157112000Y-108291881D01*
G37*
G36*
X157912000Y-108341881D02*
G01*
X157958119Y-108388000D01*
X157975000Y-108451000D01*
X157975000Y-110675001D01*
X159457794Y-112157794D01*
X159486861Y-112203144D01*
X159494333Y-112256489D01*
X159478843Y-112308080D01*
X159356122Y-112528979D01*
X159317271Y-112571679D01*
X159263454Y-112592570D01*
X159205969Y-112587267D01*
X159156883Y-112556883D01*
X157511905Y-110911905D01*
X157484591Y-110871028D01*
X157475000Y-110822810D01*
X157475000Y-108451000D01*
X157491881Y-108388000D01*
X157538000Y-108341881D01*
X157601000Y-108325000D01*
X157849000Y-108325000D01*
X157912000Y-108341881D01*
G37*
G36*
X134912000Y-92341881D02*
G01*
X134958119Y-92388000D01*
X134975000Y-92451000D01*
X134975000Y-129125001D01*
X138988095Y-133138095D01*
X139015409Y-133178972D01*
X139025000Y-133227190D01*
X139025000Y-135099000D01*
X139008119Y-135162000D01*
X138962000Y-135208119D01*
X138899000Y-135225000D01*
X138651000Y-135225000D01*
X138588000Y-135208119D01*
X138541881Y-135162000D01*
X138525000Y-135099000D01*
X138525000Y-133375000D01*
X138524999Y-133374998D01*
X134511905Y-129361905D01*
X134484591Y-129321028D01*
X134475000Y-129272810D01*
X134475000Y-92451000D01*
X134491881Y-92388000D01*
X134538000Y-92341881D01*
X134601000Y-92325000D01*
X134849000Y-92325000D01*
X134912000Y-92341881D01*
G37*
G36*
X135912187Y-92341837D02*
G01*
X135958294Y-92387848D01*
X135975263Y-92450736D01*
X136025000Y-116225000D01*
X136025001Y-116225002D01*
X137685904Y-117885905D01*
X137718516Y-117942389D01*
X137718516Y-118007611D01*
X137685905Y-118064095D01*
X137514096Y-118235905D01*
X137457611Y-118268517D01*
X137392389Y-118268517D01*
X137335905Y-118235905D01*
X135561797Y-116461797D01*
X135534533Y-116421041D01*
X135524892Y-116372963D01*
X135475262Y-92451261D01*
X135492056Y-92388151D01*
X135538187Y-92341924D01*
X135601262Y-92325000D01*
X135849263Y-92325000D01*
X135912187Y-92341837D01*
G37*
G36*
X136962000Y-92341881D02*
G01*
X137008119Y-92388000D01*
X137025000Y-92451000D01*
X137025000Y-113375001D01*
X140535904Y-116885905D01*
X140568516Y-116942389D01*
X140568516Y-117007611D01*
X140535905Y-117064095D01*
X140364096Y-117235905D01*
X140307611Y-117268517D01*
X140242389Y-117268517D01*
X140185905Y-117235905D01*
X136561905Y-113611905D01*
X136534591Y-113571028D01*
X136525000Y-113522810D01*
X136525000Y-92451000D01*
X136541881Y-92388000D01*
X136588000Y-92341881D01*
X136651000Y-92325000D01*
X136899000Y-92325000D01*
X136962000Y-92341881D01*
G37*
G36*
X129912000Y-78416881D02*
G01*
X129958119Y-78463000D01*
X129975000Y-78526000D01*
X129975000Y-82274000D01*
X129958119Y-82337000D01*
X129912000Y-82383119D01*
X129849000Y-82400000D01*
X128955499Y-82400000D01*
X128892499Y-82383119D01*
X128846380Y-82337000D01*
X128829499Y-82274000D01*
X128829499Y-78526000D01*
X128846380Y-78463000D01*
X128892499Y-78416881D01*
X128955499Y-78400000D01*
X129849000Y-78400000D01*
X129912000Y-78416881D01*
G37*
G36*
X154708080Y-51396156D02*
G01*
X154928979Y-51518877D01*
X154971679Y-51557728D01*
X154992570Y-51611544D01*
X154987267Y-51669030D01*
X154956883Y-51718116D01*
X153311905Y-53363095D01*
X153271028Y-53390409D01*
X153222810Y-53400000D01*
X129876000Y-53400000D01*
X129813000Y-53383119D01*
X129766881Y-53337000D01*
X129750000Y-53274000D01*
X129750000Y-53026000D01*
X129766881Y-52963000D01*
X129813000Y-52916881D01*
X129876000Y-52900000D01*
X153074999Y-52900000D01*
X154557793Y-51417205D01*
X154603144Y-51388138D01*
X154656489Y-51380666D01*
X154708080Y-51396156D01*
G37*
G36*
X156662422Y-52665567D02*
G01*
X156858777Y-52812832D01*
X156901259Y-52869670D01*
X156906289Y-52940452D01*
X156872272Y-53002727D01*
X155711905Y-54163095D01*
X155671028Y-54190409D01*
X155622810Y-54200000D01*
X129876000Y-54200000D01*
X129813000Y-54183119D01*
X129766881Y-54137000D01*
X129750000Y-54074000D01*
X129750000Y-53826000D01*
X129766881Y-53763000D01*
X129813000Y-53716881D01*
X129876000Y-53700000D01*
X155474999Y-53700000D01*
X156497726Y-52677272D01*
X156548493Y-52646338D01*
X156607791Y-52642124D01*
X156662422Y-52665567D01*
G37*
M02*
