M48
; DRILL file {KiCad 7.0.1-0} date 2023 November 21, Tuesday 15:01:46
; FORMAT={-:-/ absolute / inch / decimal}
; #@! TF.CreationDate,2023-11-21T15:01:46-05:00
; #@! TF.GenerationSoftware,Kicad,Pcbnew,7.0.1-0
; #@! TF.FileFunction,Plated,1,2,PTH
FMAT,2
INCH
; #@! TA.AperFunction,Plated,PTH,ComponentDrill
T1C0.0118
; #@! TA.AperFunction,Plated,PTH,ViaDrill
T2C0.0157
; #@! TA.AperFunction,Plated,PTH,ComponentDrill
T3C0.0354
; #@! TA.AperFunction,Plated,PTH,ComponentDrill
T4C0.0394
; #@! TA.AperFunction,Plated,PTH,ComponentDrill
T5C0.0512
; #@! TA.AperFunction,Plated,PTH,ComponentDrill
T6C0.0551
; #@! TA.AperFunction,Plated,PTH,ComponentDrill
T7C0.0630
; #@! TA.AperFunction,Plated,PTH,ComponentDrill
T8C0.0827
%
G90
G05
T1
X2.5254Y-4.3947
X3.1402Y-2.3691
X3.1402Y-2.4187
X3.1402Y-2.4683
X3.1898Y-2.3691
X3.1898Y-2.4683
X3.2394Y-2.3691
X3.2394Y-2.4187
X3.2394Y-2.4683
X3.288Y-4.9965
X3.7372Y-2.4183
X3.8907Y-2.4163
X4.4722Y-4.4951
X4.7559Y-3.1654
X5.0069Y-3.1654
T2
X2.4793Y-4.3159
X2.4793Y-4.3947
X2.4813Y-3.4734
X2.4856Y-4.5848
X2.5344Y-4.3159
X2.5522Y-4.3947
X2.5552Y-2.2626
X2.5552Y-2.3354
X2.567Y-2.4181
X2.5837Y-5.4262
X2.5856Y-4.3159
X2.6064Y-2.5283
X2.6219Y-4.4333
X2.6246Y-4.3419
X2.6368Y-5.2077
X2.6516Y-2.2626
X2.6575Y-5.2992
X2.6636Y-4.3179
X2.6654Y-2.5776
X2.6762Y-4.4951
X2.6825Y-2.353
X2.6841Y-5.4124
X2.6915Y-4.6648
X2.6959Y-4.9675
X2.7148Y-4.3183
X2.7278Y-2.3061
X2.7283Y-4.2165
X2.7363Y-2.4988
X2.7521Y-5.261
X2.7522Y-4.5514
X2.7536Y-5.2065
X2.7619Y-2.5776
X2.7667Y-4.3183
X2.7813Y-2.2585
X2.7841Y-5.3805
X2.7884Y-5.0325
X2.7963Y-4.4344
X2.7963Y-4.5565
X2.814Y-4.3179
X2.8209Y-2.4988
X2.8325Y-5.0774
X2.8402Y-4.9024
X2.8435Y-4.4341
X2.8435Y-4.5561
X2.8465Y-2.5776
X2.8504Y-4.2175
X2.8623Y-2.2528
X2.863Y-2.361
X2.8632Y-4.3179
X2.865Y-2.473
X2.8667Y-5.2868
X2.8829Y-4.6801
X2.8841Y-5.3805
X2.8927Y-4.4341
X2.8927Y-4.5561
X2.9075Y-2.5008
X2.9124Y-4.3179
X2.9233Y-2.5776
X2.9348Y-5.3404
X2.9396Y-5.5286
X2.9419Y-4.4341
X2.9419Y-4.5561
X2.9449Y-2.2528
X2.9636Y-4.3179
X2.9703Y-3.847
X2.9745Y-2.5776
X2.9841Y-5.3805
X2.9931Y-4.4341
X2.9931Y-4.5561
X2.9935Y-4.0167
X2.9998Y-3.8884
X3.0069Y-4.7785
X3.0069Y-5.123
X3.0104Y-5.0786
X3.0119Y-2.4732
X3.0128Y-4.3179
X3.0266Y-2.5776
X3.0375Y-2.363
X3.0423Y-4.4341
X3.0423Y-4.5561
X3.0565Y-4.0148
X3.0581Y-4.3179
X3.0687Y-3.8884
X3.069Y-2.4791
X3.0693Y-4.1898
X3.0752Y-4.2594
X3.0876Y-4.4341
X3.0876Y-4.5561
X3.0945Y-2.2528
X3.1018Y-5.1852
X3.1059Y-4.7394
X3.1065Y-4.8537
X3.1073Y-4.3179
X3.1098Y-5.2748
X3.1098Y-5.3339
X3.1112Y-4.8026
X3.1156Y-4.1585
X3.1329Y-4.5561
X3.1348Y-4.4341
X3.1393Y-2.2512
X3.1689Y-5.2748
X3.1689Y-5.3339
X3.1707Y-4.8242
X3.1707Y-5.4494
X3.1766Y-4.5411
X3.177Y-2.5951
X3.177Y-4.4486
X3.1841Y-4.6171
X3.1841Y-4.6742
X3.1886Y-4.7394
X3.2006Y-2.2516
X3.2098Y-4.3197
X3.2217Y-4.1894
X3.2293Y-4.4486
X3.2297Y-4.5423
X3.2341Y-5.564
X3.2358Y-5.3299
X3.2402Y-2.5293
X3.2455Y-4.0128
X3.2618Y-2.2512
X3.2852Y-3.7348
X3.2882Y-3.6236
X3.3022Y-4.5423
X3.3033Y-4.4474
X3.3124Y-4.0266
X3.3246Y-3.664
X3.3439Y-3.9459
X3.3478Y-4.2608
X3.348Y-3.6207
X3.3671Y-2.5297
X3.3833Y-4.6266
X3.3852Y-5.0034
X3.3947Y-4.3179
X3.3998Y-4.803
X3.4026Y-4.4498
X3.4053Y-3.79
X3.4089Y-3.8868
X3.4089Y-3.9478
X3.4459Y-4.3179
X3.4533Y-5.5278
X3.4705Y-3.6256
X3.4722Y-3.7919
X3.4722Y-3.9971
X3.4754Y-4.0762
X3.4825Y-4.81
X3.4833Y-4.6683
X3.4917Y-4.328
X3.4951Y-5.1404
X3.4998Y-5.353
X3.5022Y-4.4478
X3.5022Y-4.5423
X3.5156Y-5.2467
X3.5234Y-3.6256
X3.5252Y-4.3555
X3.5352Y-3.8844
X3.5382Y-4.1374
X3.5463Y-4.8057
X3.5567Y-4.3949
X3.5593Y-4.5506
X3.5632Y-4.447
X3.5707Y-4.497
X3.5766Y-5.2535
X3.6002Y-3.9971
X3.6002Y-4.1049
X3.6177Y-4.8024
X3.6177Y-4.8811
X3.6177Y-4.9598
X3.6177Y-5.0386
X3.6177Y-5.1173
X3.6492Y-5.2354
X3.6593Y-3.9179
X3.6593Y-4.1004
X3.6669Y-4.5484
X3.6827Y-4.3791
X3.6827Y-4.4343
X3.6827Y-4.4972
X3.688Y-5.4124
X3.6925Y-5.1961
X3.6945Y-4.0667
X3.6965Y-4.8024
X3.6965Y-4.8811
X3.6965Y-4.9598
X3.6965Y-5.0386
X3.6965Y-5.1173
X3.7323Y-2.4823
X3.7343Y-2.3622
X3.7485Y-4.0108
X3.7528Y-4.0833
X3.7626Y-4.4061
X3.7841Y-4.6313
X3.8285Y-4.0833
X3.8315Y-3.978
X3.8325Y-3.9071
X3.8841Y-4.6805
X3.8915Y-4.0833
X3.8917Y-2.3573
X3.8937Y-2.4734
X3.9841Y-4.6805
X3.9988Y-3.7988
X4.0583Y-3.9514
X4.0598Y-3.6955
X4.1219Y-3.8598
X4.122Y-3.7343
X4.1494Y-4.1
X4.173Y-3.8411
X4.1789Y-4.0124
X4.1886Y-5.4205
X4.2419Y-4.0144
X4.2498Y-4.0567
X4.2528Y-4.097
X4.2843Y-4.5636
X4.3138Y-4.0547
X4.3443Y-4.0173
X4.3841Y-4.6805
X4.4183Y-3.8583
X4.4577Y-3.688
X4.4587Y-3.6476
X4.461Y-4.4331
X4.462Y-4.5541
X4.4634Y-4.0744
X4.4938Y-5.4872
X4.4942Y-5.4522
X4.5187Y-4.7348
X4.5197Y-4.7034
X4.5201Y-4.6374
X4.5204Y-4.6719
X4.5472Y-3.4656
X4.5807Y-3.6558
X4.5817Y-3.6873
X4.7008Y-3.686
X4.7451Y-3.1152
X4.7451Y-3.2116
X4.753Y-3.686
X4.9921Y-3.0669
X4.998Y-3.249
X5.4163Y-4.6506
X5.4636Y-5.3199
X5.5266Y-4.6093
X6.0167Y-4.503
X6.06Y-4.627
X6.0955Y-2.0276
X6.1722Y-2.0768
X6.2254Y-4.503
X6.2274Y-4.7352
X6.2746Y-4.4262
T3
X2.7636Y-3.7762
X2.7636Y-3.8762
X2.7636Y-3.9762
X2.7636Y-4.0762
X2.8636Y-3.8262
X2.8636Y-3.9262
X2.8636Y-4.0262
X2.8636Y-4.1262
T4
X2.628Y-2.4181
X2.728Y-2.4181
X2.828Y-2.4181
X2.8545Y-3.5459
X2.928Y-2.4181
X2.9545Y-3.5459
X3.4943Y-3.5577
X3.5943Y-3.5577
X4.0039Y-4.9894
X4.0039Y-5.0894
X4.0039Y-5.1894
X4.0039Y-5.2894
X4.0579Y-3.5596
X4.1215Y-4.7006
X4.1215Y-4.8006
X4.1215Y-4.9006
X4.1215Y-5.0006
X4.1579Y-3.5596
X4.2215Y-4.8006
X4.2215Y-4.9006
X4.2215Y-5.0006
X4.4925Y-4.0276
X4.4925Y-4.1276
X4.5925Y-4.0276
X4.5925Y-4.1276
X4.7326Y-3.5974
X4.7326Y-3.7746
T5
X4.6342Y-3.5482
X4.6342Y-3.8238
T6
X3.303Y-4.4951
X3.403Y-4.4951
X3.503Y-4.4951
T7
X3.203Y-4.4951
T8
X2.8726Y-4.824
X2.8726Y-5.2236
T0
M30
