G04 #@! TF.GenerationSoftware,KiCad,Pcbnew,7.0.1-0*
G04 #@! TF.CreationDate,2023-11-21T15:01:45-05:00*
G04 #@! TF.ProjectId,CosmicWatch,436f736d-6963-4576-9174-63682e6b6963,rev?*
G04 #@! TF.SameCoordinates,Original*
G04 #@! TF.FileFunction,Copper,L1,Top*
G04 #@! TF.FilePolarity,Positive*
%FSLAX46Y46*%
G04 Gerber Fmt 4.6, Leading zero omitted, Abs format (unit mm)*
G04 Created by KiCad (PCBNEW 7.0.1-0) date 2023-11-21 15:01:45*
%MOMM*%
%LPD*%
G01*
G04 APERTURE LIST*
G04 #@! TA.AperFunction,ComponentPad*
%ADD10R,1.700000X1.700000*%
G04 #@! TD*
G04 #@! TA.AperFunction,ComponentPad*
%ADD11O,1.700000X1.700000*%
G04 #@! TD*
G04 #@! TA.AperFunction,ComponentPad*
%ADD12C,1.000000*%
G04 #@! TD*
G04 #@! TA.AperFunction,ComponentPad*
%ADD13R,2.000000X4.000000*%
G04 #@! TD*
G04 #@! TA.AperFunction,ComponentPad*
%ADD14C,2.032000*%
G04 #@! TD*
G04 #@! TA.AperFunction,ComponentPad*
%ADD15C,2.000000*%
G04 #@! TD*
G04 #@! TA.AperFunction,ComponentPad*
%ADD16R,2.000000X3.000000*%
G04 #@! TD*
G04 #@! TA.AperFunction,ComponentPad*
%ADD17O,2.200000X3.000000*%
G04 #@! TD*
G04 #@! TA.AperFunction,ComponentPad*
%ADD18R,2.000000X5.000000*%
G04 #@! TD*
G04 #@! TA.AperFunction,SMDPad,CuDef*
%ADD19R,1.700000X3.000000*%
G04 #@! TD*
G04 #@! TA.AperFunction,ComponentPad*
%ADD20R,2.000000X3.800000*%
G04 #@! TD*
G04 #@! TA.AperFunction,ComponentPad*
%ADD21R,2.500000X7.000000*%
G04 #@! TD*
G04 #@! TA.AperFunction,SMDPad,CuDef*
%ADD22R,2.000000X0.500000*%
G04 #@! TD*
G04 #@! TA.AperFunction,WasherPad*
%ADD23C,3.650000*%
G04 #@! TD*
G04 #@! TA.AperFunction,ComponentPad*
%ADD24R,1.500000X1.500000*%
G04 #@! TD*
G04 #@! TA.AperFunction,ComponentPad*
%ADD25C,1.500000*%
G04 #@! TD*
G04 #@! TA.AperFunction,ComponentPad*
%ADD26C,2.200000*%
G04 #@! TD*
G04 #@! TA.AperFunction,SMDPad,CuDef*
%ADD27R,4.000000X1.500000*%
G04 #@! TD*
G04 #@! TA.AperFunction,ComponentPad*
%ADD28R,4.000000X1.400000*%
G04 #@! TD*
G04 #@! TA.AperFunction,ComponentPad*
%ADD29R,0.650000X1.560000*%
G04 #@! TD*
G04 #@! TA.AperFunction,ViaPad*
%ADD30C,0.600000*%
G04 #@! TD*
G04 #@! TA.AperFunction,Conductor*
%ADD31C,0.250000*%
G04 #@! TD*
G04 #@! TA.AperFunction,Conductor*
%ADD32C,0.500000*%
G04 #@! TD*
G04 #@! TA.AperFunction,Conductor*
%ADD33C,0.400000*%
G04 #@! TD*
G04 #@! TA.AperFunction,Conductor*
%ADD34C,0.380000*%
G04 #@! TD*
G04 #@! TA.AperFunction,Conductor*
%ADD35C,1.000000*%
G04 #@! TD*
G04 APERTURE END LIST*
D10*
X103070000Y-90415000D03*
D11*
X105610000Y-90415000D03*
D10*
X72505000Y-90065000D03*
D11*
X75045000Y-90065000D03*
D10*
X88755000Y-90365000D03*
D11*
X91295000Y-90365000D03*
D12*
X79760000Y-60175000D03*
X81020000Y-60175000D03*
X82280000Y-60175000D03*
X79760000Y-61435000D03*
X82280000Y-61435000D03*
X79760000Y-62695000D03*
X81020000Y-62695000D03*
X82280000Y-62695000D03*
D13*
X113595000Y-114175000D03*
D10*
X116650000Y-102300000D03*
D11*
X116650000Y-104840000D03*
X114110000Y-102300000D03*
X114110000Y-104840000D03*
D14*
X117707500Y-97125000D03*
D15*
X120207500Y-95875000D03*
D14*
X117707500Y-90125000D03*
D15*
X120207500Y-91375000D03*
D16*
X81355000Y-114175000D03*
D17*
X83895000Y-114175000D03*
X86435000Y-114175000D03*
X88975000Y-114175000D03*
D10*
X66751370Y-61420023D03*
D11*
X69291370Y-61420023D03*
X71831370Y-61420023D03*
X74371370Y-61420023D03*
D18*
X98825000Y-61375000D03*
D10*
X101700000Y-134350000D03*
D11*
X101700000Y-131810000D03*
X101700000Y-129270000D03*
X101700000Y-126730000D03*
D19*
X63095000Y-137565000D03*
X65635000Y-137565000D03*
X68175000Y-137565000D03*
X70715000Y-137565000D03*
X73255000Y-137565000D03*
X75795000Y-137565000D03*
X78335000Y-137565000D03*
X80875000Y-137565000D03*
X83415000Y-137565000D03*
X93575000Y-137565000D03*
X98655000Y-137565000D03*
X101195000Y-137565000D03*
X103735000Y-137565000D03*
X106275000Y-137565000D03*
X108815000Y-137565000D03*
X111355000Y-137565000D03*
X111355000Y-117985000D03*
X108815000Y-117985000D03*
X106275000Y-117985000D03*
X101195000Y-117985000D03*
X98655000Y-117985000D03*
X96115000Y-117985000D03*
X93575000Y-117985000D03*
X91035000Y-117985000D03*
X88495000Y-117985000D03*
X85955000Y-117985000D03*
X83415000Y-117985000D03*
X80875000Y-117985000D03*
X78335000Y-117985000D03*
X75795000Y-117985000D03*
X73255000Y-117985000D03*
X70715000Y-117985000D03*
X68175000Y-117985000D03*
X65635000Y-117985000D03*
X63095000Y-117985000D03*
D18*
X94925000Y-61425000D03*
D20*
X120800000Y-80400000D03*
D21*
X127175000Y-80400000D03*
D22*
X129125000Y-52765000D03*
X129125000Y-52765000D03*
X129125000Y-53565000D03*
X129125000Y-54365000D03*
D23*
X63845000Y-94645000D03*
X63845000Y-106075000D03*
D24*
X70195000Y-95915000D03*
D25*
X72735000Y-97185000D03*
X70195000Y-98455000D03*
X72735000Y-99725000D03*
X70195000Y-100995000D03*
X72735000Y-102265000D03*
X70195000Y-103535000D03*
X72735000Y-104805000D03*
D26*
X72965000Y-132679500D03*
X72965000Y-122529500D03*
D11*
X104685000Y-119395000D03*
X107225000Y-121935000D03*
X104685000Y-121935000D03*
X107225000Y-124475000D03*
X104685000Y-124475000D03*
X107225000Y-127015000D03*
X104685000Y-127015000D03*
D27*
X64145000Y-114525000D03*
D28*
X64145000Y-111625000D03*
D29*
X83515000Y-126910000D03*
D30*
X86585000Y-98725000D03*
X91445000Y-104265000D03*
X91445000Y-101525500D03*
X89795000Y-98665000D03*
X97345000Y-99240000D03*
X88150500Y-92090000D03*
X85039500Y-91965000D03*
X83520000Y-92040000D03*
X89495000Y-92090000D03*
X97320000Y-101040000D03*
X96115000Y-117635500D03*
X88895000Y-135965000D03*
X104700000Y-94850000D03*
X103120000Y-93865000D03*
X103080000Y-100365000D03*
X95320000Y-103715000D03*
X110345000Y-102040000D03*
X105395000Y-104140000D03*
X108020000Y-104065000D03*
X89870000Y-105090000D03*
X75445000Y-97715000D03*
X95570000Y-111915000D03*
X101570000Y-96490000D03*
X104695000Y-98040000D03*
X92945000Y-104149500D03*
X92945000Y-99515000D03*
X93840023Y-103294977D03*
X95211589Y-101873411D03*
X113370000Y-103490000D03*
X109570000Y-102990000D03*
X107945000Y-103040000D03*
X105995000Y-97565000D03*
X108820000Y-115915000D03*
X90845000Y-133440000D03*
X89295000Y-133265000D03*
X83445000Y-94865000D03*
X84445000Y-93065000D03*
X88195000Y-96315000D03*
X86495000Y-96265000D03*
X88195000Y-101525500D03*
X88275000Y-103535000D03*
X77945000Y-98765000D03*
X76195000Y-98765000D03*
X80695000Y-65915000D03*
X81530000Y-109720000D03*
X81830000Y-106410000D03*
X83875000Y-115375000D03*
X83905000Y-112965000D03*
X85935000Y-117515000D03*
X116375228Y-93657069D03*
X119400000Y-93625000D03*
X74665025Y-140425500D03*
X87715000Y-140405000D03*
X74545000Y-135645000D03*
X73225000Y-118875000D03*
X70825000Y-127825000D03*
X68475000Y-126175000D03*
X65675000Y-109625000D03*
X71475000Y-109675000D03*
X73975000Y-109675000D03*
X75275000Y-109675000D03*
X76525000Y-109675000D03*
X77675000Y-109675000D03*
X66975000Y-132275000D03*
X72770000Y-62815000D03*
X65201370Y-61420023D03*
X64901370Y-59320023D03*
X72720000Y-59970023D03*
X76501370Y-62820023D03*
X77151370Y-60020023D03*
X68135000Y-59765000D03*
X72725000Y-109675000D03*
X69285000Y-58575000D03*
X70645000Y-57365000D03*
X72701370Y-57220023D03*
X74801370Y-57220023D03*
X78601370Y-57220023D03*
X64901370Y-57470023D03*
X67351370Y-57470023D03*
X66201370Y-64220023D03*
X67701370Y-65470023D03*
X70151370Y-65470023D03*
X72301370Y-65470023D03*
X74251370Y-65470023D03*
X73851370Y-63520023D03*
X71651370Y-63470023D03*
X69501370Y-63470023D03*
X75551370Y-65470023D03*
X116349500Y-92857981D03*
X115500000Y-88025000D03*
X78990000Y-133980000D03*
X64825000Y-111625000D03*
X107745000Y-101965000D03*
X82300000Y-64245000D03*
X98845000Y-103715000D03*
X78425000Y-112625000D03*
X85525000Y-64255000D03*
X77960000Y-106420000D03*
X68365000Y-118485000D03*
X74725000Y-112625000D03*
X76035000Y-102025000D03*
X97245000Y-103715000D03*
X113310000Y-112600000D03*
X80535000Y-122535000D03*
X70275000Y-109685000D03*
X88690000Y-109930000D03*
X78785000Y-131705000D03*
X93540000Y-114230000D03*
X126800000Y-77900000D03*
X73475000Y-115725000D03*
X88455000Y-122175000D03*
X69300000Y-107100000D03*
X89540000Y-110630000D03*
X64375000Y-109625000D03*
X76375000Y-121375000D03*
X79575000Y-115725000D03*
X71025000Y-112635000D03*
X86225000Y-109675000D03*
X76025000Y-112625000D03*
X154825000Y-51500000D03*
X68955000Y-109685000D03*
X77275000Y-112625000D03*
X152825000Y-114375000D03*
X91890000Y-125980000D03*
X78905000Y-123285000D03*
X62975000Y-111625000D03*
X78990000Y-135480000D03*
X66665000Y-110285000D03*
X90075000Y-122065000D03*
X106145000Y-101915000D03*
X79625000Y-112625000D03*
X92690000Y-132980000D03*
X138775000Y-135125000D03*
X93890000Y-125980000D03*
X112225000Y-98000000D03*
X91890000Y-121980000D03*
X66595000Y-112605000D03*
X77635000Y-101975000D03*
X159375000Y-112425000D03*
X67500000Y-134600000D03*
X63025000Y-88225000D03*
X78110000Y-108190000D03*
X71025000Y-115735000D03*
X80490000Y-135480000D03*
X79135000Y-105625000D03*
X86425000Y-113025000D03*
X84935000Y-100225000D03*
X85035000Y-108225000D03*
X87525000Y-109675000D03*
X93140000Y-115530000D03*
X126950000Y-82525000D03*
X91890000Y-127980000D03*
X90340000Y-111630000D03*
X73475000Y-112625000D03*
X79025000Y-121985000D03*
X72225000Y-112625000D03*
X81295000Y-57190000D03*
X158175000Y-120275000D03*
X68175000Y-137475000D03*
X80875000Y-118725000D03*
X91890000Y-129980000D03*
X140375000Y-117075000D03*
X72141000Y-124521000D03*
X91890000Y-123980000D03*
X113250000Y-92650000D03*
X62975000Y-109625000D03*
X93540000Y-112630000D03*
X77275000Y-115725000D03*
X76875000Y-65470023D03*
X93790000Y-131980000D03*
X93540000Y-111230000D03*
X79738630Y-57179977D03*
X69905000Y-115605000D03*
X72400000Y-107125000D03*
X93890000Y-121980000D03*
X86585000Y-100275000D03*
X158125000Y-114375000D03*
X86355000Y-121995000D03*
X88775000Y-130565000D03*
X85983085Y-127087606D03*
X113335000Y-115675000D03*
X93890000Y-129980000D03*
X72225000Y-115725000D03*
X93675000Y-137475000D03*
X80535000Y-138415000D03*
X74725000Y-115725000D03*
X77951370Y-62970023D03*
X80990000Y-120380000D03*
X82848630Y-57179977D03*
X78425000Y-115725000D03*
X120725000Y-93625000D03*
X76375000Y-130125000D03*
X137575000Y-118125000D03*
X90695000Y-114225000D03*
X80875000Y-117275000D03*
X93890000Y-127980000D03*
X153925000Y-117525000D03*
X90405000Y-115585000D03*
X156775000Y-52750000D03*
X78890000Y-120380000D03*
X80490000Y-133980000D03*
X78925000Y-109675000D03*
X90505000Y-112955000D03*
X67655000Y-109675000D03*
X76025000Y-115725000D03*
X106390000Y-137680000D03*
X93890000Y-123980000D03*
X88955000Y-112975000D03*
X88955000Y-115375000D03*
X101195000Y-118885000D03*
X114800591Y-119465908D03*
X114817023Y-118666575D03*
X98655000Y-118885000D03*
X65625000Y-137825000D03*
X69904454Y-133629500D03*
X71945501Y-128965000D03*
X69940500Y-132245000D03*
X70715000Y-136665000D03*
X76465000Y-128996100D03*
X73255000Y-136665000D03*
X75795000Y-136665000D03*
X72815000Y-134285000D03*
X80685000Y-115345000D03*
X82035000Y-115375000D03*
X82025000Y-112995000D03*
X80695000Y-112995000D03*
X111355000Y-118885000D03*
X114775000Y-120265000D03*
X63135000Y-116455000D03*
X120525000Y-79125000D03*
X120525000Y-81575000D03*
X98900000Y-62825000D03*
X98850000Y-59875000D03*
X94800000Y-63050000D03*
X94850000Y-60000000D03*
X82190000Y-135380000D03*
X82145000Y-141325000D03*
X67975000Y-114175000D03*
X88475000Y-118575000D03*
X113225000Y-93675000D03*
X114810456Y-117789965D03*
X84135000Y-102275000D03*
X82435000Y-101925000D03*
X114141495Y-139375500D03*
X114153139Y-138485678D03*
D31*
X91445000Y-104265000D02*
X91445000Y-101525500D01*
X89795000Y-98665000D02*
X86645000Y-98665000D01*
X86645000Y-98665000D02*
X86585000Y-98725000D01*
X83520000Y-92040000D02*
X84964500Y-92040000D01*
X84964500Y-92040000D02*
X85039500Y-91965000D01*
X88150500Y-92090000D02*
X89495000Y-92090000D01*
X97345000Y-99240000D02*
X97345000Y-101015000D01*
X97345000Y-101015000D02*
X97320000Y-101040000D01*
X81013630Y-57471370D02*
X81020000Y-57477740D01*
X81020000Y-57477740D02*
X81020000Y-60175000D01*
D32*
X105995000Y-95440000D02*
X105405000Y-94850000D01*
X105405000Y-94850000D02*
X104700000Y-94850000D01*
X103080000Y-93905000D02*
X103120000Y-93865000D01*
X103080000Y-100365000D02*
X103080000Y-93905000D01*
D33*
X105395000Y-104140000D02*
X104470000Y-105065000D01*
X104470000Y-105065000D02*
X96670000Y-105065000D01*
X96670000Y-105065000D02*
X95320000Y-103715000D01*
X110345000Y-103204950D02*
X109484950Y-104065000D01*
X110345000Y-102040000D02*
X110345000Y-103204950D01*
X109484950Y-104065000D02*
X108020000Y-104065000D01*
D31*
X92945000Y-104149500D02*
X92945000Y-99515000D01*
X93840023Y-103294977D02*
X93840023Y-103244977D01*
X93840023Y-103244977D02*
X95211589Y-101873411D01*
D32*
X107945000Y-103040000D02*
X109520000Y-103040000D01*
X109520000Y-103040000D02*
X109570000Y-102990000D01*
X113370000Y-103490000D02*
X112850000Y-103490000D01*
X105995000Y-95440000D02*
X105995000Y-97565000D01*
X108815000Y-118885000D02*
X108815000Y-115920000D01*
X108815000Y-115920000D02*
X108820000Y-115915000D01*
X84445000Y-93865000D02*
X83445000Y-94865000D01*
X84445000Y-93065000D02*
X84445000Y-93865000D01*
D31*
X88195000Y-103455000D02*
X88275000Y-103535000D01*
X88195000Y-101525500D02*
X88195000Y-103455000D01*
X76195000Y-98765000D02*
X77945000Y-98765000D01*
X82280000Y-61435000D02*
X83115000Y-61435000D01*
X83115000Y-61435000D02*
X83545000Y-61865000D01*
X82945000Y-65915000D02*
X80695000Y-65915000D01*
X83545000Y-61865000D02*
X83545000Y-65315000D01*
X83545000Y-65315000D02*
X82945000Y-65915000D01*
X81020000Y-62695000D02*
X79760000Y-62695000D01*
X82280000Y-60175000D02*
X81020000Y-60175000D01*
X79760000Y-62695000D02*
X78226393Y-62695000D01*
X78226393Y-62695000D02*
X77951370Y-62970023D01*
X81013630Y-57471370D02*
X81295000Y-57190000D01*
X85955000Y-118885000D02*
X85955000Y-117830000D01*
X112525010Y-87525010D02*
X70345000Y-87525010D01*
X105860000Y-134540000D02*
X105860000Y-126150000D01*
X103735000Y-136665000D02*
X105860000Y-134540000D01*
D34*
X100290000Y-125480000D02*
X101295000Y-124475000D01*
D31*
X67625000Y-90245010D02*
X67625000Y-102025660D01*
X105790000Y-126080000D02*
X105790000Y-125910000D01*
X70345000Y-87525010D02*
X67625000Y-90245010D01*
X118900000Y-106563604D02*
X118900000Y-101100000D01*
X69134340Y-103535000D02*
X70195000Y-103535000D01*
X107225000Y-124475000D02*
X117695000Y-124475000D01*
X115275000Y-90275000D02*
X112525010Y-87525010D01*
X117900000Y-107563604D02*
X118900000Y-106563604D01*
X117900000Y-124270000D02*
X117900000Y-107563604D01*
D34*
X101295000Y-124475000D02*
X104685000Y-124475000D01*
D31*
X118900000Y-101100000D02*
X115275000Y-97475000D01*
D34*
X101700000Y-129270000D02*
X100290000Y-127860000D01*
X100290000Y-127860000D02*
X100290000Y-125480000D01*
D31*
X117695000Y-124475000D02*
X117900000Y-124270000D01*
X115275000Y-97475000D02*
X115275000Y-90275000D01*
X105860000Y-126150000D02*
X105790000Y-126080000D01*
X105790000Y-125910000D02*
X107225000Y-124475000D01*
X67625000Y-102025660D02*
X69134340Y-103535000D01*
X117836396Y-125000000D02*
X108970000Y-125000000D01*
X115725000Y-89975000D02*
X115725000Y-97175000D01*
X108090000Y-126150000D02*
X107225000Y-127015000D01*
X119350000Y-106750000D02*
X118350000Y-107750000D01*
X112825000Y-87075000D02*
X115725000Y-89975000D01*
D34*
X104685000Y-133845000D02*
X104685000Y-127015000D01*
D31*
X108090000Y-125880000D02*
X108090000Y-126150000D01*
X119350000Y-100800000D02*
X119350000Y-106750000D01*
X108970000Y-125000000D02*
X108090000Y-125880000D01*
X70135000Y-87075000D02*
X67175000Y-90035000D01*
D34*
X102185000Y-135675000D02*
X102855000Y-135675000D01*
D31*
X118350000Y-107750000D02*
X118350000Y-124486396D01*
X67175000Y-102212056D02*
X69767944Y-104805000D01*
X67175000Y-90035000D02*
X67175000Y-102212056D01*
X115725000Y-97175000D02*
X119350000Y-100800000D01*
X69767944Y-104805000D02*
X72735000Y-104805000D01*
D34*
X101195000Y-136665000D02*
X102185000Y-135675000D01*
D31*
X101985000Y-127015000D02*
X101700000Y-126730000D01*
D34*
X102855000Y-135675000D02*
X104685000Y-133845000D01*
D31*
X118350000Y-124486396D02*
X117836396Y-125000000D01*
X104685000Y-127015000D02*
X101985000Y-127015000D01*
X70135000Y-87075000D02*
X112825000Y-87075000D01*
X117025000Y-93625000D02*
X116407297Y-93625000D01*
X119400000Y-93625000D02*
X117025000Y-93625000D01*
X116407297Y-93625000D02*
X116375228Y-93657069D01*
X107225000Y-121935000D02*
X104685000Y-121935000D01*
X74545000Y-135645000D02*
X74545000Y-140305475D01*
X73235000Y-118885000D02*
X73225000Y-118875000D01*
D34*
X99690000Y-124480000D02*
X102235000Y-121935000D01*
X99690000Y-132340000D02*
X99690000Y-124480000D01*
D31*
X90865000Y-141355000D02*
X99890000Y-141355000D01*
D34*
X102235000Y-121935000D02*
X104685000Y-121935000D01*
D31*
X90765000Y-141255000D02*
X90865000Y-141355000D01*
X99890000Y-135060000D02*
X100600000Y-134350000D01*
X100600000Y-134350000D02*
X101700000Y-134350000D01*
X87715000Y-140405000D02*
X89915000Y-140405000D01*
X74545000Y-140305475D02*
X74665025Y-140425500D01*
X73255000Y-118885000D02*
X73235000Y-118885000D01*
D34*
X101700000Y-134350000D02*
X99690000Y-132340000D01*
D31*
X89915000Y-140405000D02*
X90765000Y-141255000D01*
X99890000Y-141355000D02*
X99890000Y-135060000D01*
X117707500Y-90125000D02*
X116349500Y-91483000D01*
X80875000Y-117025000D02*
X80875000Y-118885000D01*
X68175000Y-136665000D02*
X68175000Y-135275000D01*
D35*
X68175000Y-118885000D02*
X68175000Y-118675000D01*
D31*
X106275000Y-136665000D02*
X106275000Y-137565000D01*
X116349500Y-91483000D02*
X116349500Y-92857981D01*
D35*
X68175000Y-118675000D02*
X68365000Y-118485000D01*
D31*
X106275000Y-137565000D02*
X106390000Y-137680000D01*
X106275000Y-138725000D02*
X106280000Y-138730000D01*
X106275000Y-137795000D02*
X106275000Y-138725000D01*
X106390000Y-137680000D02*
X106275000Y-137795000D01*
X68175000Y-135275000D02*
X67500000Y-134600000D01*
X113335000Y-115675000D02*
X113260000Y-115750000D01*
X79575000Y-115725000D02*
X80875000Y-117025000D01*
X115326802Y-119406802D02*
X115267696Y-119465908D01*
X70838584Y-88425020D02*
X68575000Y-90688604D01*
X69605000Y-99755000D02*
X69645000Y-99755000D01*
X112152228Y-88425020D02*
X70838584Y-88425020D01*
X116050000Y-109078097D02*
X112275000Y-105303097D01*
X115267696Y-119465908D02*
X114800591Y-119465908D01*
X69645000Y-99755000D02*
X69675000Y-99725000D01*
X69675000Y-99725000D02*
X72735000Y-99725000D01*
X112275000Y-100663604D02*
X114375000Y-98563604D01*
X114375000Y-98563604D02*
X114375000Y-90647792D01*
X116050000Y-116536396D02*
X116050000Y-109078097D01*
X68575000Y-98725000D02*
X69605000Y-99755000D01*
X116050000Y-116536396D02*
X116050000Y-118683604D01*
X114375000Y-90647792D02*
X112152228Y-88425020D01*
X116050000Y-118683604D02*
X115326802Y-119406802D01*
X112275000Y-105303097D02*
X112275000Y-100663604D01*
X68575000Y-90688604D02*
X68575000Y-98725000D01*
X115600000Y-116350000D02*
X115600000Y-117883598D01*
X115600000Y-109264493D02*
X111825000Y-105489493D01*
X113925000Y-98377208D02*
X113925000Y-90834188D01*
X69025000Y-97975000D02*
X69505000Y-98455000D01*
X111825000Y-100477208D02*
X113925000Y-98377208D01*
X115600000Y-116350000D02*
X115600000Y-109264493D01*
X115600000Y-117883598D02*
X114817023Y-118666575D01*
X113925000Y-90834188D02*
X111965832Y-88875020D01*
X69025000Y-97975000D02*
X69025000Y-90875000D01*
X111825000Y-105489493D02*
X111825000Y-100477208D01*
X69025000Y-90875000D02*
X71024980Y-88875020D01*
X111965832Y-88875020D02*
X71024980Y-88875020D01*
X69940500Y-132245000D02*
X69940500Y-133593454D01*
X71975501Y-128995000D02*
X71945501Y-128965000D01*
X69940500Y-133593454D02*
X69904454Y-133629500D01*
X74945000Y-128995000D02*
X71975501Y-128995000D01*
X76465000Y-128996100D02*
X74946100Y-128996100D01*
X74946100Y-128996100D02*
X74945000Y-128995000D01*
X72815000Y-134285000D02*
X77085000Y-134285000D01*
X77600000Y-135930000D02*
X78335000Y-136665000D01*
X77600000Y-134800000D02*
X77600000Y-135930000D01*
X77085000Y-134285000D02*
X77600000Y-134800000D01*
X112725000Y-100850000D02*
X112725000Y-105116701D01*
X115555000Y-119815000D02*
X115105000Y-120265000D01*
X116500000Y-118870000D02*
X115555000Y-119815000D01*
X68075000Y-91465000D02*
X68075000Y-100825000D01*
X70652188Y-87975020D02*
X68125000Y-90502208D01*
X68125000Y-91415000D02*
X68075000Y-91465000D01*
X116500000Y-108891701D02*
X116500000Y-109200000D01*
X114125000Y-99450000D02*
X112725000Y-100850000D01*
X116500000Y-117029047D02*
X116500000Y-118870000D01*
X114825000Y-90461396D02*
X114825000Y-98750000D01*
X69515000Y-102265000D02*
X72735000Y-102265000D01*
X112725000Y-105116701D02*
X116500000Y-108891701D01*
X70835000Y-87975020D02*
X70652188Y-87975020D01*
X68125000Y-90502208D02*
X68125000Y-91415000D01*
X114825000Y-98750000D02*
X114675000Y-98900000D01*
X115105000Y-120265000D02*
X114775000Y-120265000D01*
X70835000Y-87975020D02*
X112338624Y-87975020D01*
X114675000Y-98900000D02*
X114125000Y-99450000D01*
X112338624Y-87975020D02*
X114825000Y-90461396D01*
X68075000Y-100825000D02*
X69515000Y-102265000D01*
X116500000Y-109200000D02*
X116500000Y-117029047D01*
D35*
X63095000Y-118885000D02*
X65635000Y-118885000D01*
X63095000Y-116495000D02*
X63135000Y-116455000D01*
X63095000Y-118885000D02*
X63095000Y-116495000D01*
D34*
X82160000Y-135410000D02*
X82160000Y-141310000D01*
X82160000Y-141310000D02*
X82145000Y-141325000D01*
X82190000Y-135380000D02*
X82160000Y-135410000D01*
D35*
X67975000Y-114175000D02*
X64495000Y-114175000D01*
X64495000Y-114175000D02*
X64145000Y-114525000D01*
D31*
X115150000Y-109450889D02*
X115150000Y-117195000D01*
X111375000Y-105555000D02*
X111375000Y-105675889D01*
X115150000Y-117195000D02*
X115150000Y-117450421D01*
X88495000Y-118595000D02*
X88475000Y-118575000D01*
X111375000Y-100290812D02*
X113225000Y-98440812D01*
X88495000Y-118885000D02*
X88495000Y-118595000D01*
X113225000Y-98440812D02*
X113225000Y-93675000D01*
X111375000Y-105555000D02*
X111375000Y-100290812D01*
X115150000Y-117450421D02*
X114810456Y-117789965D01*
X111375000Y-105675889D02*
X115099556Y-109400445D01*
X115099556Y-109400445D02*
X115150000Y-109450889D01*
D32*
X84135000Y-102275000D02*
X82785000Y-102275000D01*
X82785000Y-102275000D02*
X82435000Y-101925000D01*
D31*
X109199500Y-139390000D02*
X108815000Y-139005500D01*
X108815000Y-139005500D02*
X108815000Y-136665000D01*
X114126995Y-139390000D02*
X109199500Y-139390000D01*
X114141495Y-139375500D02*
X114126995Y-139390000D01*
X108815000Y-136665000D02*
X108815000Y-138715000D01*
X108815000Y-138715000D02*
X108825000Y-138725000D01*
X113974322Y-138485678D02*
X113520000Y-138940000D01*
X114153139Y-138485678D02*
X113974322Y-138485678D01*
X112750000Y-138940000D02*
X111355000Y-137545000D01*
X113520000Y-138940000D02*
X112750000Y-138940000D01*
G04 #@! TA.AperFunction,Conductor*
G36*
X160800960Y-82483036D02*
G01*
X160833078Y-82504496D01*
X161345504Y-83016922D01*
X161366964Y-83049040D01*
X161374500Y-83086926D01*
X161374500Y-141263074D01*
X161366964Y-141300960D01*
X161345504Y-141333078D01*
X160833078Y-141845504D01*
X160800960Y-141866964D01*
X160763074Y-141874500D01*
X132386926Y-141874500D01*
X132349040Y-141866964D01*
X132316922Y-141845504D01*
X131904496Y-141433078D01*
X131883036Y-141400960D01*
X131875500Y-141363074D01*
X131875500Y-140286926D01*
X131883036Y-140249040D01*
X131904496Y-140216922D01*
X132240954Y-139880464D01*
X133339682Y-138781734D01*
X133357411Y-138769890D01*
X133363649Y-138763651D01*
X133363651Y-138763651D01*
X133375500Y-138735045D01*
X133379661Y-138725000D01*
X133379661Y-138724999D01*
X133379661Y-138716179D01*
X133375500Y-138695262D01*
X133375500Y-137925000D01*
X134269457Y-137925000D01*
X134289608Y-138245299D01*
X134349742Y-138560531D01*
X134349743Y-138560535D01*
X134349744Y-138560538D01*
X134448832Y-138865500D01*
X134448917Y-138865760D01*
X134575607Y-139134990D01*
X134585561Y-139156142D01*
X134757522Y-139427110D01*
X134962089Y-139674390D01*
X135196036Y-139894080D01*
X135403232Y-140044616D01*
X135455675Y-140082718D01*
X135736901Y-140237323D01*
X135736903Y-140237324D01*
X136035294Y-140355466D01*
X136308056Y-140425499D01*
X136346143Y-140435278D01*
X136664533Y-140475500D01*
X136664536Y-140475500D01*
X136985464Y-140475500D01*
X136985467Y-140475500D01*
X137303856Y-140435278D01*
X137303858Y-140435277D01*
X137303861Y-140435277D01*
X137614706Y-140355466D01*
X137913097Y-140237324D01*
X138194328Y-140082716D01*
X138453964Y-139894080D01*
X138687911Y-139674390D01*
X138892478Y-139427110D01*
X139064439Y-139156142D01*
X139201084Y-138865758D01*
X139300256Y-138560538D01*
X139360392Y-138245294D01*
X139380543Y-137925000D01*
X139380543Y-137924999D01*
X155869655Y-137924999D01*
X155889016Y-138232742D01*
X155946792Y-138535612D01*
X155946793Y-138535616D01*
X155946794Y-138535619D01*
X156028966Y-138788519D01*
X156042079Y-138828875D01*
X156169543Y-139099750D01*
X156173365Y-139107871D01*
X156338584Y-139368216D01*
X156387962Y-139427903D01*
X156535131Y-139605799D01*
X156759901Y-139816874D01*
X156866162Y-139894077D01*
X156957646Y-139960544D01*
X157009363Y-139998118D01*
X157159117Y-140080446D01*
X157279565Y-140146663D01*
X157566257Y-140260172D01*
X157842554Y-140331113D01*
X157864918Y-140336855D01*
X158170825Y-140375500D01*
X158170828Y-140375500D01*
X158479172Y-140375500D01*
X158479175Y-140375500D01*
X158785081Y-140336855D01*
X158785083Y-140336854D01*
X158785086Y-140336854D01*
X159083743Y-140260172D01*
X159370435Y-140146663D01*
X159640640Y-139998116D01*
X159890096Y-139816876D01*
X160114869Y-139605799D01*
X160311416Y-139368216D01*
X160476635Y-139107871D01*
X160607922Y-138828873D01*
X160703206Y-138535619D01*
X160755259Y-138262750D01*
X160760983Y-138232742D01*
X160760983Y-138232740D01*
X160760984Y-138232736D01*
X160780345Y-137925000D01*
X160760984Y-137617264D01*
X160758588Y-137604706D01*
X160703207Y-137314387D01*
X160703206Y-137314381D01*
X160607922Y-137021127D01*
X160476635Y-136742129D01*
X160311416Y-136481784D01*
X160114869Y-136244201D01*
X160045185Y-136178763D01*
X159890098Y-136033125D01*
X159640636Y-135851881D01*
X159370436Y-135703337D01*
X159083744Y-135589828D01*
X158785081Y-135513144D01*
X158479175Y-135474500D01*
X158479172Y-135474500D01*
X158170828Y-135474500D01*
X158170825Y-135474500D01*
X157864918Y-135513144D01*
X157566255Y-135589828D01*
X157279563Y-135703337D01*
X157009363Y-135851881D01*
X156759901Y-136033125D01*
X156535131Y-136244200D01*
X156338586Y-136481781D01*
X156338584Y-136481784D01*
X156330378Y-136494715D01*
X156173363Y-136742132D01*
X156042079Y-137021124D01*
X155946792Y-137314387D01*
X155889016Y-137617257D01*
X155869655Y-137924999D01*
X139380543Y-137924999D01*
X139360392Y-137604706D01*
X139300256Y-137289462D01*
X139201084Y-136984242D01*
X139064439Y-136693858D01*
X138892478Y-136422890D01*
X138687911Y-136175610D01*
X138453964Y-135955920D01*
X138194328Y-135767284D01*
X138194324Y-135767281D01*
X137913098Y-135612676D01*
X137614707Y-135494534D01*
X137303856Y-135414721D01*
X136985467Y-135374500D01*
X136985464Y-135374500D01*
X136664536Y-135374500D01*
X136664533Y-135374500D01*
X136346143Y-135414721D01*
X136035292Y-135494534D01*
X135736901Y-135612676D01*
X135455675Y-135767281D01*
X135196033Y-135955922D01*
X134962089Y-136175609D01*
X134757524Y-136422887D01*
X134585559Y-136693861D01*
X134448917Y-136984239D01*
X134349742Y-137289468D01*
X134289608Y-137604700D01*
X134269457Y-137925000D01*
X133375500Y-137925000D01*
X133375500Y-137254738D01*
X133379661Y-137233822D01*
X133379661Y-137225000D01*
X133379660Y-137224999D01*
X133367812Y-137196394D01*
X133367811Y-137196393D01*
X133363651Y-137186349D01*
X133363650Y-137186348D01*
X133357416Y-137180113D01*
X133339683Y-137168265D01*
X131904496Y-135733078D01*
X131883036Y-135700960D01*
X131875500Y-135663074D01*
X131875500Y-135404738D01*
X131879661Y-135383822D01*
X131879661Y-135375001D01*
X131879453Y-135374500D01*
X131863651Y-135336349D01*
X131863650Y-135336348D01*
X131861623Y-135331453D01*
X131845955Y-135308011D01*
X131838408Y-135270155D01*
X131838392Y-135241242D01*
X131836958Y-132725000D01*
X143519082Y-132725000D01*
X143538230Y-133004948D01*
X143595319Y-133279676D01*
X143689289Y-133544080D01*
X143818385Y-133793224D01*
X143980198Y-134022462D01*
X144167828Y-134223364D01*
X144171727Y-134227539D01*
X144389393Y-134404623D01*
X144629144Y-134550419D01*
X144886515Y-134662211D01*
X145156711Y-134737917D01*
X145434699Y-134776125D01*
X145715301Y-134776125D01*
X145993289Y-134737917D01*
X146263485Y-134662211D01*
X146520856Y-134550419D01*
X146760607Y-134404623D01*
X146978273Y-134227539D01*
X147169799Y-134022465D01*
X147331616Y-133793222D01*
X147460711Y-133544080D01*
X147554679Y-133279680D01*
X147611769Y-133004947D01*
X147630918Y-132725000D01*
X147611934Y-132447468D01*
X147611769Y-132445051D01*
X147554680Y-132170323D01*
X147541666Y-132133706D01*
X147460711Y-131905920D01*
X147331616Y-131656778D01*
X147323716Y-131645586D01*
X147169801Y-131427537D01*
X146978274Y-131222462D01*
X146760606Y-131045376D01*
X146683354Y-130998398D01*
X146520856Y-130899581D01*
X146263485Y-130787789D01*
X146217395Y-130774875D01*
X145993287Y-130712082D01*
X145715301Y-130673875D01*
X145434699Y-130673875D01*
X145156712Y-130712082D01*
X144886514Y-130787789D01*
X144629146Y-130899580D01*
X144389393Y-131045376D01*
X144171725Y-131222462D01*
X143980198Y-131427537D01*
X143818385Y-131656775D01*
X143689289Y-131905919D01*
X143595319Y-132170323D01*
X143538230Y-132445051D01*
X143519082Y-132725000D01*
X131836958Y-132725000D01*
X131836250Y-131482140D01*
X131843926Y-131443866D01*
X131862516Y-131416388D01*
X131863649Y-131413651D01*
X131863651Y-131413651D01*
X131871673Y-131394282D01*
X131871674Y-131394279D01*
X131871724Y-131394299D01*
X131871742Y-131394114D01*
X131879661Y-131375094D01*
X131879660Y-131375093D01*
X131879675Y-131366483D01*
X131875500Y-131345396D01*
X131875500Y-123025000D01*
X136369245Y-123025000D01*
X136389015Y-123427441D01*
X136448134Y-123825988D01*
X136546036Y-124216836D01*
X136574431Y-124296193D01*
X136681777Y-124596204D01*
X136707092Y-124649728D01*
X136854047Y-124960443D01*
X137061190Y-125306038D01*
X137301206Y-125629661D01*
X137571792Y-125928207D01*
X137870338Y-126198793D01*
X138193961Y-126438809D01*
X138539556Y-126645952D01*
X138696843Y-126720342D01*
X138903796Y-126818223D01*
X139283162Y-126953963D01*
X139526837Y-127015000D01*
X139674011Y-127051865D01*
X140072558Y-127110984D01*
X140072559Y-127110984D01*
X140072566Y-127110985D01*
X140475000Y-127130755D01*
X140877434Y-127110985D01*
X140877441Y-127110984D01*
X141275988Y-127051865D01*
X141275990Y-127051864D01*
X141275993Y-127051864D01*
X141666838Y-126953963D01*
X142046204Y-126818223D01*
X142329794Y-126684095D01*
X142410443Y-126645952D01*
X142756038Y-126438809D01*
X143000728Y-126257334D01*
X143079663Y-126198792D01*
X143378207Y-125928207D01*
X143648792Y-125629663D01*
X143888811Y-125306035D01*
X144022340Y-125083256D01*
X144095952Y-124960443D01*
X144156182Y-124833096D01*
X144268223Y-124596204D01*
X144403963Y-124216838D01*
X144501864Y-123825993D01*
X144521059Y-123696595D01*
X144560984Y-123427441D01*
X144560984Y-123427440D01*
X144560985Y-123427434D01*
X144580755Y-123025000D01*
X144580755Y-123024999D01*
X148142568Y-123024999D01*
X148161720Y-123353821D01*
X148218917Y-123678202D01*
X148263161Y-123825988D01*
X148300437Y-123950500D01*
X148313386Y-123993751D01*
X148443846Y-124296193D01*
X148608536Y-124581443D01*
X148805231Y-124845651D01*
X149031270Y-125085238D01*
X149283589Y-125296960D01*
X149558778Y-125477954D01*
X149558784Y-125477957D01*
X149853131Y-125625784D01*
X150162650Y-125738439D01*
X150162651Y-125738439D01*
X150162656Y-125738441D01*
X150364230Y-125786214D01*
X150483154Y-125814400D01*
X150810309Y-125852639D01*
X151139688Y-125852639D01*
X151139691Y-125852639D01*
X151466846Y-125814400D01*
X151668426Y-125766624D01*
X151787343Y-125738441D01*
X151787345Y-125738440D01*
X151787350Y-125738439D01*
X152096869Y-125625784D01*
X152391216Y-125477957D01*
X152426887Y-125454496D01*
X152666410Y-125296960D01*
X152735134Y-125239293D01*
X152918732Y-125085236D01*
X153144768Y-124845652D01*
X153341462Y-124581446D01*
X153506153Y-124296193D01*
X153636615Y-123993748D01*
X153731082Y-123678204D01*
X153788279Y-123353825D01*
X153807431Y-123025000D01*
X153788279Y-122696175D01*
X153731082Y-122371796D01*
X153636615Y-122056252D01*
X153540384Y-121833163D01*
X153506153Y-121753806D01*
X153359658Y-121500070D01*
X153341462Y-121468554D01*
X153144768Y-121204348D01*
X152918732Y-120964764D01*
X152918731Y-120964763D01*
X152918729Y-120964761D01*
X152666410Y-120753039D01*
X152391221Y-120572045D01*
X152256317Y-120504294D01*
X152096869Y-120424216D01*
X151883729Y-120346640D01*
X151787343Y-120311558D01*
X151466852Y-120235601D01*
X151466848Y-120235600D01*
X151466846Y-120235600D01*
X151139691Y-120197361D01*
X150810309Y-120197361D01*
X150483154Y-120235600D01*
X150483152Y-120235600D01*
X150483147Y-120235601D01*
X150162656Y-120311558D01*
X149988693Y-120374875D01*
X149853131Y-120424216D01*
X149756165Y-120472913D01*
X149558778Y-120572045D01*
X149283589Y-120753039D01*
X149031270Y-120964761D01*
X148805231Y-121204348D01*
X148608536Y-121468556D01*
X148443846Y-121753806D01*
X148313386Y-122056248D01*
X148218917Y-122371797D01*
X148161720Y-122696178D01*
X148142568Y-123024999D01*
X144580755Y-123024999D01*
X144560985Y-122622566D01*
X144549221Y-122543258D01*
X144501865Y-122224011D01*
X144501864Y-122224007D01*
X144403963Y-121833162D01*
X144268223Y-121453796D01*
X144156182Y-121216904D01*
X144095952Y-121089556D01*
X143888809Y-120743961D01*
X143648793Y-120420338D01*
X143378207Y-120121792D01*
X143079661Y-119851206D01*
X142756038Y-119611190D01*
X142410443Y-119404047D01*
X142137263Y-119274844D01*
X142046204Y-119231777D01*
X141742809Y-119123220D01*
X141666836Y-119096036D01*
X141275988Y-118998134D01*
X140877441Y-118939015D01*
X140475000Y-118919245D01*
X140072558Y-118939015D01*
X139674011Y-118998134D01*
X139283163Y-119096036D01*
X138903796Y-119231777D01*
X138539556Y-119404047D01*
X138193961Y-119611190D01*
X137870338Y-119851206D01*
X137571792Y-120121792D01*
X137301206Y-120420338D01*
X137061190Y-120743961D01*
X136854047Y-121089556D01*
X136681777Y-121453796D01*
X136546036Y-121833163D01*
X136448134Y-122224011D01*
X136389015Y-122622558D01*
X136369245Y-123025000D01*
X131875500Y-123025000D01*
X131875500Y-114325000D01*
X139770339Y-114325000D01*
X139774500Y-114335045D01*
X139786349Y-114363651D01*
X139825000Y-114379661D01*
X139825000Y-114379660D01*
X139825001Y-114379661D01*
X139833822Y-114379661D01*
X139854738Y-114375500D01*
X151195262Y-114375500D01*
X151216178Y-114379661D01*
X151224999Y-114379661D01*
X151224999Y-114379660D01*
X151225000Y-114379661D01*
X151263651Y-114363651D01*
X151275500Y-114335045D01*
X151279661Y-114325000D01*
X151279661Y-114324999D01*
X151279661Y-114316179D01*
X151275500Y-114295262D01*
X151275500Y-92254738D01*
X151279661Y-92233822D01*
X151279661Y-92225001D01*
X151278958Y-92223305D01*
X151263651Y-92186349D01*
X151260500Y-92185044D01*
X151254255Y-92182457D01*
X151225000Y-92170339D01*
X151216178Y-92170339D01*
X151195262Y-92174500D01*
X139854738Y-92174500D01*
X139833822Y-92170339D01*
X139825000Y-92170339D01*
X139795745Y-92182457D01*
X139786350Y-92186348D01*
X139786348Y-92186350D01*
X139776970Y-92208991D01*
X139774840Y-92214135D01*
X139770339Y-92225001D01*
X139770339Y-92233822D01*
X139774500Y-92254738D01*
X139774500Y-114295262D01*
X139770339Y-114316179D01*
X139770339Y-114324999D01*
X139770339Y-114325000D01*
X131875500Y-114325000D01*
X131875500Y-95654738D01*
X131879661Y-95633822D01*
X131879661Y-95625001D01*
X131875563Y-95615108D01*
X131863651Y-95586349D01*
X131863649Y-95586348D01*
X131853996Y-95576695D01*
X131832536Y-95544577D01*
X131825000Y-95506691D01*
X131825000Y-92293309D01*
X131832536Y-92255423D01*
X131853996Y-92223305D01*
X131863647Y-92213652D01*
X131863651Y-92213651D01*
X131875500Y-92185045D01*
X131879661Y-92175000D01*
X131879661Y-92174999D01*
X131879661Y-92166179D01*
X131875500Y-92145262D01*
X131875500Y-88686926D01*
X131883036Y-88649040D01*
X131904496Y-88616922D01*
X132232434Y-88288984D01*
X133339682Y-87181734D01*
X133357411Y-87169890D01*
X133363649Y-87163651D01*
X133363651Y-87163651D01*
X133372456Y-87142393D01*
X133379661Y-87125000D01*
X133379661Y-87124999D01*
X133379661Y-87116179D01*
X133375500Y-87095262D01*
X133375500Y-86424999D01*
X134269457Y-86424999D01*
X134289608Y-86745299D01*
X134349742Y-87060531D01*
X134349743Y-87060535D01*
X134349744Y-87060538D01*
X134448916Y-87365758D01*
X134585561Y-87656142D01*
X134757522Y-87927110D01*
X134962089Y-88174390D01*
X135196036Y-88394080D01*
X135455672Y-88582716D01*
X135455675Y-88582718D01*
X135736901Y-88737323D01*
X135736903Y-88737324D01*
X136035294Y-88855466D01*
X136334938Y-88932401D01*
X136346143Y-88935278D01*
X136664533Y-88975500D01*
X136664536Y-88975500D01*
X136985464Y-88975500D01*
X136985467Y-88975500D01*
X137303856Y-88935278D01*
X137303858Y-88935277D01*
X137303861Y-88935277D01*
X137614706Y-88855466D01*
X137913097Y-88737324D01*
X138194328Y-88582716D01*
X138453964Y-88394080D01*
X138687911Y-88174390D01*
X138892478Y-87927110D01*
X139064439Y-87656142D01*
X139201084Y-87365758D01*
X139300256Y-87060538D01*
X139360392Y-86745294D01*
X139380543Y-86425000D01*
X155869655Y-86425000D01*
X155889016Y-86732742D01*
X155946792Y-87035612D01*
X155946793Y-87035616D01*
X155946794Y-87035619D01*
X155990421Y-87169890D01*
X156042079Y-87328875D01*
X156169543Y-87599750D01*
X156173365Y-87607871D01*
X156338584Y-87868216D01*
X156519039Y-88086347D01*
X156535131Y-88105799D01*
X156759901Y-88316874D01*
X157009363Y-88498118D01*
X157240160Y-88625000D01*
X157279565Y-88646663D01*
X157566257Y-88760172D01*
X157842554Y-88831113D01*
X157864918Y-88836855D01*
X158170825Y-88875500D01*
X158170828Y-88875500D01*
X158479172Y-88875500D01*
X158479175Y-88875500D01*
X158785081Y-88836855D01*
X158785083Y-88836854D01*
X158785086Y-88836854D01*
X159083743Y-88760172D01*
X159370435Y-88646663D01*
X159640640Y-88498116D01*
X159890096Y-88316876D01*
X160114869Y-88105799D01*
X160311416Y-87868216D01*
X160476635Y-87607871D01*
X160607922Y-87328873D01*
X160703206Y-87035619D01*
X160757606Y-86750445D01*
X160760983Y-86732742D01*
X160760983Y-86732740D01*
X160760984Y-86732736D01*
X160780345Y-86425000D01*
X160760984Y-86117264D01*
X160758588Y-86104706D01*
X160703207Y-85814387D01*
X160703206Y-85814381D01*
X160607922Y-85521127D01*
X160476635Y-85242129D01*
X160311416Y-84981784D01*
X160114869Y-84744201D01*
X160114868Y-84744200D01*
X159890098Y-84533125D01*
X159640636Y-84351881D01*
X159370436Y-84203337D01*
X159083744Y-84089828D01*
X158785081Y-84013144D01*
X158479175Y-83974500D01*
X158479172Y-83974500D01*
X158170828Y-83974500D01*
X158170825Y-83974500D01*
X157864918Y-84013144D01*
X157566255Y-84089828D01*
X157279563Y-84203337D01*
X157009363Y-84351881D01*
X156759901Y-84533125D01*
X156535131Y-84744200D01*
X156338586Y-84981781D01*
X156338584Y-84981784D01*
X156330378Y-84994715D01*
X156173363Y-85242132D01*
X156042079Y-85521124D01*
X155946792Y-85814387D01*
X155889016Y-86117257D01*
X155869655Y-86425000D01*
X139380543Y-86425000D01*
X139360392Y-86104706D01*
X139300256Y-85789462D01*
X139201084Y-85484242D01*
X139064439Y-85193858D01*
X138892478Y-84922890D01*
X138687911Y-84675610D01*
X138453964Y-84455920D01*
X138194328Y-84267284D01*
X138194324Y-84267281D01*
X137913098Y-84112676D01*
X137614707Y-83994534D01*
X137303856Y-83914721D01*
X136985467Y-83874500D01*
X136985464Y-83874500D01*
X136664536Y-83874500D01*
X136664533Y-83874500D01*
X136346143Y-83914721D01*
X136035292Y-83994534D01*
X135736901Y-84112676D01*
X135455675Y-84267281D01*
X135196033Y-84455922D01*
X134962089Y-84675609D01*
X134757524Y-84922887D01*
X134585559Y-85193861D01*
X134448917Y-85484239D01*
X134349742Y-85789468D01*
X134289608Y-86104700D01*
X134269457Y-86424999D01*
X133375500Y-86424999D01*
X133375500Y-85654738D01*
X133379661Y-85633822D01*
X133379661Y-85625000D01*
X133367812Y-85596394D01*
X133367811Y-85596393D01*
X133363651Y-85586349D01*
X133363650Y-85586348D01*
X133357416Y-85580113D01*
X133339683Y-85568265D01*
X131904496Y-84133078D01*
X131883036Y-84100960D01*
X131875500Y-84063074D01*
X131875500Y-82986926D01*
X131883036Y-82949040D01*
X131904496Y-82916922D01*
X132316922Y-82504496D01*
X132349040Y-82483036D01*
X132386926Y-82475500D01*
X156664955Y-82475500D01*
X156685045Y-82475500D01*
X160664955Y-82475500D01*
X160685045Y-82475500D01*
X160763074Y-82475500D01*
X160800960Y-82483036D01*
G37*
G04 #@! TD.AperFunction*
G04 #@! TA.AperFunction,Conductor*
G36*
X63140848Y-86462056D02*
G01*
X63190882Y-86480023D01*
X63201046Y-86492531D01*
X63202867Y-86490646D01*
X63217317Y-86504598D01*
X63240067Y-86517583D01*
X63240448Y-86517688D01*
X63240449Y-86517689D01*
X63253365Y-86516088D01*
X63263791Y-86515352D01*
X63797424Y-86505990D01*
X63833917Y-86512277D01*
X64124953Y-86621416D01*
X64128002Y-86622619D01*
X64134955Y-86625500D01*
X64134956Y-86625500D01*
X64135782Y-86625842D01*
X64136673Y-86625811D01*
X64136674Y-86625812D01*
X64143159Y-86625591D01*
X64144183Y-86625557D01*
X64147542Y-86625500D01*
X69743744Y-86625500D01*
X69798746Y-86642185D01*
X69835209Y-86686616D01*
X69840841Y-86743816D01*
X69813745Y-86794506D01*
X69797829Y-86810421D01*
X69797832Y-86810419D01*
X69797830Y-86810421D01*
X69786470Y-86821780D01*
X69786470Y-86821781D01*
X66921780Y-89686471D01*
X66826472Y-89781779D01*
X66814615Y-89805050D01*
X66806500Y-89818292D01*
X66791150Y-89839419D01*
X66783082Y-89864252D01*
X66777138Y-89878602D01*
X66765281Y-89901872D01*
X66761196Y-89927664D01*
X66757570Y-89942765D01*
X66749500Y-89967604D01*
X66749500Y-89967607D01*
X66749500Y-90001512D01*
X66749500Y-102144663D01*
X66749500Y-102279449D01*
X66756728Y-102301693D01*
X66757569Y-102304281D01*
X66761195Y-102319386D01*
X66765280Y-102345180D01*
X66777135Y-102368446D01*
X66783079Y-102382797D01*
X66791150Y-102407637D01*
X66806497Y-102428759D01*
X66814613Y-102442001D01*
X66826472Y-102465276D01*
X66839831Y-102478635D01*
X66850446Y-102489250D01*
X69419416Y-105058220D01*
X69419415Y-105058220D01*
X69514722Y-105153526D01*
X69514724Y-105153528D01*
X69537994Y-105165384D01*
X69551233Y-105173497D01*
X69572364Y-105188850D01*
X69597205Y-105196921D01*
X69611553Y-105202865D01*
X69634818Y-105214719D01*
X69660615Y-105218804D01*
X69675709Y-105222427D01*
X69700551Y-105230500D01*
X69734456Y-105230500D01*
X69835337Y-105230500D01*
X71711947Y-105230500D01*
X71762843Y-105244585D01*
X71799257Y-105282832D01*
X71857313Y-105391449D01*
X71909438Y-105454963D01*
X71988590Y-105551410D01*
X72148550Y-105682685D01*
X72331046Y-105780232D01*
X72529066Y-105840300D01*
X72735000Y-105860583D01*
X72940934Y-105840300D01*
X73138954Y-105780232D01*
X73321450Y-105682685D01*
X73481410Y-105551410D01*
X73612685Y-105391450D01*
X73710232Y-105208954D01*
X73770300Y-105010934D01*
X73790583Y-104805000D01*
X73770300Y-104599066D01*
X73710232Y-104401046D01*
X73637513Y-104265000D01*
X90839318Y-104265000D01*
X90859955Y-104421761D01*
X90920464Y-104567841D01*
X91016717Y-104693282D01*
X91097388Y-104755182D01*
X91142159Y-104789536D01*
X91288238Y-104850044D01*
X91445000Y-104870682D01*
X91601762Y-104850044D01*
X91747841Y-104789536D01*
X91873282Y-104693282D01*
X91969536Y-104567841D01*
X92030044Y-104421762D01*
X92050682Y-104265000D01*
X92035476Y-104149500D01*
X92339318Y-104149500D01*
X92359955Y-104306261D01*
X92420464Y-104452341D01*
X92516717Y-104577782D01*
X92610892Y-104650044D01*
X92642159Y-104674036D01*
X92788238Y-104734544D01*
X92945000Y-104755182D01*
X93101762Y-104734544D01*
X93247841Y-104674036D01*
X93373282Y-104577782D01*
X93469536Y-104452341D01*
X93530044Y-104306262D01*
X93550682Y-104149500D01*
X93530044Y-103992738D01*
X93528343Y-103979816D01*
X93531304Y-103979426D01*
X93527782Y-103943688D01*
X93554875Y-103892995D01*
X93605565Y-103865899D01*
X93662766Y-103871531D01*
X93683261Y-103880021D01*
X93840023Y-103900659D01*
X93996785Y-103880021D01*
X94142864Y-103819513D01*
X94268305Y-103723259D01*
X94274642Y-103715000D01*
X94714318Y-103715000D01*
X94714856Y-103719083D01*
X94734955Y-103871761D01*
X94795464Y-104017841D01*
X94891717Y-104143282D01*
X94943989Y-104183391D01*
X95017159Y-104239536D01*
X95163238Y-104300044D01*
X95169062Y-104300810D01*
X95199925Y-104310171D01*
X95226145Y-104328959D01*
X96270518Y-105373331D01*
X96283794Y-105389806D01*
X96284851Y-105391450D01*
X96287858Y-105396129D01*
X96326059Y-105429230D01*
X96331229Y-105434043D01*
X96341405Y-105444218D01*
X96341407Y-105444220D01*
X96346797Y-105448255D01*
X96352923Y-105452841D01*
X96358425Y-105457275D01*
X96396623Y-105490374D01*
X96396624Y-105490374D01*
X96396627Y-105490377D01*
X96403460Y-105493497D01*
X96421652Y-105504292D01*
X96427669Y-105508796D01*
X96461763Y-105521512D01*
X96475029Y-105526460D01*
X96481560Y-105529165D01*
X96512815Y-105543438D01*
X96527543Y-105550165D01*
X96534978Y-105551233D01*
X96555481Y-105556466D01*
X96562517Y-105559091D01*
X96612957Y-105562698D01*
X96619959Y-105563452D01*
X96627283Y-105564505D01*
X96634199Y-105565500D01*
X96634201Y-105565500D01*
X96648582Y-105565500D01*
X96655644Y-105565752D01*
X96706073Y-105569359D01*
X96713409Y-105567762D01*
X96734454Y-105565500D01*
X104405546Y-105565500D01*
X104426590Y-105567762D01*
X104433927Y-105569359D01*
X104484355Y-105565752D01*
X104491418Y-105565500D01*
X104505801Y-105565500D01*
X104514391Y-105564264D01*
X104520037Y-105563452D01*
X104527043Y-105562698D01*
X104577483Y-105559091D01*
X104584517Y-105556467D01*
X104605022Y-105551233D01*
X104612457Y-105550165D01*
X104658450Y-105529159D01*
X104664952Y-105526466D01*
X104712331Y-105508796D01*
X104718349Y-105504290D01*
X104736548Y-105493493D01*
X104743373Y-105490377D01*
X104743374Y-105490375D01*
X104743376Y-105490375D01*
X104781563Y-105457284D01*
X104787053Y-105452858D01*
X104798593Y-105444221D01*
X104808779Y-105434033D01*
X104813907Y-105429258D01*
X104852143Y-105396128D01*
X104856199Y-105389814D01*
X104869477Y-105373335D01*
X105488856Y-104753956D01*
X105515073Y-104735171D01*
X105545933Y-104725811D01*
X105551762Y-104725044D01*
X105697841Y-104664536D01*
X105823282Y-104568282D01*
X105919536Y-104442841D01*
X105980044Y-104296762D01*
X106000682Y-104140000D01*
X105980044Y-103983238D01*
X105919536Y-103837159D01*
X105867773Y-103769700D01*
X105823282Y-103711717D01*
X105697841Y-103615464D01*
X105551761Y-103554955D01*
X105395000Y-103534318D01*
X105238238Y-103554955D01*
X105092158Y-103615464D01*
X104966717Y-103711717D01*
X104870464Y-103837158D01*
X104809955Y-103983237D01*
X104809188Y-103989067D01*
X104799825Y-104019929D01*
X104781039Y-104046144D01*
X104291682Y-104535503D01*
X104259564Y-104556964D01*
X104221678Y-104564500D01*
X96918321Y-104564500D01*
X96880435Y-104556964D01*
X96848317Y-104535504D01*
X96391776Y-104078963D01*
X95933959Y-103621145D01*
X95915171Y-103594925D01*
X95905810Y-103564062D01*
X95905044Y-103558238D01*
X95844536Y-103412159D01*
X95783978Y-103333238D01*
X95748282Y-103286717D01*
X95622841Y-103190464D01*
X95476761Y-103129955D01*
X95320000Y-103109318D01*
X95163238Y-103129955D01*
X95017158Y-103190464D01*
X94891717Y-103286717D01*
X94795464Y-103412158D01*
X94734955Y-103558238D01*
X94720306Y-103669513D01*
X94714318Y-103715000D01*
X94274642Y-103715000D01*
X94364559Y-103597818D01*
X94425067Y-103451739D01*
X94445705Y-103294977D01*
X94445704Y-103294973D01*
X94446386Y-103289797D01*
X94450208Y-103250979D01*
X94473949Y-103212797D01*
X95183297Y-102503449D01*
X95209512Y-102484666D01*
X95240375Y-102475303D01*
X95368351Y-102458455D01*
X95514430Y-102397947D01*
X95639871Y-102301693D01*
X95736125Y-102176252D01*
X95796633Y-102030173D01*
X95817271Y-101873411D01*
X95796633Y-101716649D01*
X95736125Y-101570570D01*
X95701541Y-101525499D01*
X95639871Y-101445128D01*
X95514430Y-101348875D01*
X95368350Y-101288366D01*
X95211589Y-101267729D01*
X95054827Y-101288366D01*
X94908747Y-101348875D01*
X94783306Y-101445128D01*
X94687053Y-101570569D01*
X94626544Y-101716649D01*
X94609697Y-101844620D01*
X94600334Y-101875485D01*
X94581548Y-101901702D01*
X93810734Y-102672516D01*
X93784517Y-102691302D01*
X93753653Y-102700665D01*
X93683261Y-102709932D01*
X93537183Y-102770440D01*
X93537181Y-102770441D01*
X93537182Y-102770441D01*
X93529765Y-102776132D01*
X93479204Y-102796112D01*
X93425714Y-102786379D01*
X93385429Y-102749868D01*
X93370500Y-102697589D01*
X93370500Y-101040000D01*
X96714318Y-101040000D01*
X96734955Y-101196761D01*
X96795464Y-101342841D01*
X96891717Y-101468282D01*
X96953207Y-101515464D01*
X97017159Y-101564536D01*
X97163238Y-101625044D01*
X97320000Y-101645682D01*
X97476762Y-101625044D01*
X97622841Y-101564536D01*
X97748282Y-101468282D01*
X97844536Y-101342841D01*
X97905044Y-101196762D01*
X97925682Y-101040000D01*
X97905044Y-100883238D01*
X97844536Y-100737159D01*
X97790957Y-100667333D01*
X97775754Y-100638891D01*
X97770500Y-100607068D01*
X97770500Y-100365000D01*
X102474318Y-100365000D01*
X102494955Y-100521761D01*
X102555464Y-100667841D01*
X102651717Y-100793282D01*
X102747970Y-100867139D01*
X102777159Y-100889536D01*
X102923238Y-100950044D01*
X103080000Y-100970682D01*
X103236762Y-100950044D01*
X103382841Y-100889536D01*
X103508282Y-100793282D01*
X103604536Y-100667841D01*
X103665044Y-100521762D01*
X103685682Y-100365000D01*
X103665044Y-100208238D01*
X103654787Y-100183476D01*
X103638036Y-100143035D01*
X103630500Y-100105149D01*
X103630500Y-94849999D01*
X104094318Y-94849999D01*
X104114955Y-95006761D01*
X104175464Y-95152841D01*
X104271717Y-95278282D01*
X104287093Y-95290080D01*
X104397159Y-95374536D01*
X104543238Y-95435044D01*
X104700000Y-95455682D01*
X104856762Y-95435044D01*
X104921964Y-95408036D01*
X104959851Y-95400500D01*
X105135967Y-95400500D01*
X105173853Y-95408036D01*
X105205971Y-95429496D01*
X105415504Y-95639029D01*
X105436964Y-95671147D01*
X105444500Y-95709033D01*
X105444500Y-97305149D01*
X105436964Y-97343035D01*
X105409955Y-97408238D01*
X105389318Y-97565000D01*
X105409955Y-97721761D01*
X105470464Y-97867841D01*
X105566717Y-97993282D01*
X105641999Y-98051047D01*
X105692159Y-98089536D01*
X105838238Y-98150044D01*
X105995000Y-98170682D01*
X106151762Y-98150044D01*
X106297841Y-98089536D01*
X106423282Y-97993282D01*
X106519536Y-97867841D01*
X106580044Y-97721762D01*
X106600682Y-97565000D01*
X106580044Y-97408238D01*
X106553036Y-97343035D01*
X106545500Y-97305149D01*
X106545500Y-95451079D01*
X106545558Y-95447699D01*
X106547762Y-95383175D01*
X106545656Y-95374535D01*
X106537730Y-95342010D01*
X106535838Y-95332053D01*
X106530070Y-95290080D01*
X106522067Y-95271658D01*
X106516685Y-95255652D01*
X106511933Y-95236148D01*
X106491167Y-95199215D01*
X106486657Y-95190135D01*
X106469780Y-95151279D01*
X106457109Y-95135705D01*
X106447608Y-95121745D01*
X106437766Y-95104241D01*
X106407801Y-95074275D01*
X106401016Y-95066758D01*
X106374278Y-95033892D01*
X106370957Y-95031547D01*
X106357871Y-95022310D01*
X106344960Y-95011435D01*
X105802095Y-94468570D01*
X105799747Y-94466140D01*
X105771945Y-94436372D01*
X105755680Y-94418956D01*
X105755679Y-94418955D01*
X105755678Y-94418954D01*
X105719485Y-94396945D01*
X105711106Y-94391243D01*
X105697544Y-94380959D01*
X105677342Y-94365639D01*
X105677341Y-94365638D01*
X105677339Y-94365637D01*
X105658653Y-94358268D01*
X105643539Y-94350761D01*
X105642843Y-94350337D01*
X105626382Y-94340328D01*
X105608071Y-94335197D01*
X105585584Y-94328896D01*
X105575979Y-94325666D01*
X105536566Y-94310124D01*
X105523426Y-94308772D01*
X105516578Y-94308068D01*
X105500003Y-94304917D01*
X105480665Y-94299500D01*
X105438300Y-94299500D01*
X105428176Y-94298981D01*
X105425637Y-94298720D01*
X105386028Y-94294647D01*
X105371643Y-94297128D01*
X105366236Y-94298060D01*
X105349417Y-94299500D01*
X104959851Y-94299500D01*
X104921965Y-94291964D01*
X104856761Y-94264955D01*
X104700000Y-94244318D01*
X104543238Y-94264955D01*
X104397158Y-94325464D01*
X104271717Y-94421717D01*
X104175464Y-94547158D01*
X104114955Y-94693238D01*
X104094318Y-94849999D01*
X103630500Y-94849999D01*
X103630500Y-94219739D01*
X103635752Y-94187923D01*
X103639958Y-94180051D01*
X103639548Y-94179882D01*
X103649256Y-94156447D01*
X103705044Y-94021762D01*
X103725682Y-93865000D01*
X103705044Y-93708238D01*
X103644536Y-93562159D01*
X103610834Y-93518238D01*
X103548282Y-93436717D01*
X103422841Y-93340464D01*
X103276761Y-93279955D01*
X103120000Y-93259318D01*
X102963238Y-93279955D01*
X102817158Y-93340464D01*
X102691717Y-93436717D01*
X102595464Y-93562158D01*
X102534955Y-93708238D01*
X102514318Y-93864999D01*
X102514318Y-93865000D01*
X102526826Y-93960005D01*
X102528653Y-93973885D01*
X102529500Y-93986807D01*
X102529500Y-100105149D01*
X102521964Y-100143035D01*
X102494955Y-100208238D01*
X102474318Y-100365000D01*
X97770500Y-100365000D01*
X97770500Y-99705514D01*
X97775754Y-99673692D01*
X97790958Y-99645247D01*
X97822523Y-99604109D01*
X97869536Y-99542841D01*
X97930044Y-99396762D01*
X97950682Y-99240000D01*
X97930044Y-99083238D01*
X97869536Y-98937159D01*
X97827028Y-98881761D01*
X97773282Y-98811717D01*
X97647841Y-98715464D01*
X97501761Y-98654955D01*
X97345000Y-98634318D01*
X97188238Y-98654955D01*
X97042158Y-98715464D01*
X96916717Y-98811717D01*
X96820464Y-98937158D01*
X96759955Y-99083238D01*
X96739318Y-99240000D01*
X96759955Y-99396761D01*
X96820464Y-99542841D01*
X96899042Y-99645247D01*
X96914246Y-99673692D01*
X96919500Y-99705514D01*
X96919500Y-100541906D01*
X96914246Y-100573728D01*
X96899042Y-100602173D01*
X96795464Y-100737158D01*
X96734955Y-100883238D01*
X96714318Y-101040000D01*
X93370500Y-101040000D01*
X93370500Y-99980514D01*
X93375754Y-99948692D01*
X93390958Y-99920247D01*
X93422523Y-99879109D01*
X93469536Y-99817841D01*
X93530044Y-99671762D01*
X93550682Y-99515000D01*
X93530044Y-99358238D01*
X93469536Y-99212159D01*
X93442707Y-99177195D01*
X93373282Y-99086717D01*
X93247841Y-98990464D01*
X93101761Y-98929955D01*
X92945000Y-98909318D01*
X92788238Y-98929955D01*
X92642158Y-98990464D01*
X92516717Y-99086717D01*
X92420464Y-99212158D01*
X92359955Y-99358238D01*
X92339318Y-99514999D01*
X92359955Y-99671761D01*
X92420464Y-99817841D01*
X92499042Y-99920247D01*
X92514246Y-99948692D01*
X92519500Y-99980514D01*
X92519500Y-103683986D01*
X92514246Y-103715808D01*
X92499042Y-103744253D01*
X92420464Y-103846658D01*
X92359955Y-103992738D01*
X92339318Y-104149500D01*
X92035476Y-104149500D01*
X92030044Y-104108238D01*
X91969536Y-103962159D01*
X91916465Y-103892995D01*
X91890958Y-103859753D01*
X91875754Y-103831308D01*
X91870500Y-103799486D01*
X91870500Y-101991014D01*
X91875754Y-101959192D01*
X91890958Y-101930747D01*
X91933361Y-101875485D01*
X91969536Y-101828341D01*
X92030044Y-101682262D01*
X92050682Y-101525500D01*
X92030044Y-101368738D01*
X91969536Y-101222659D01*
X91947139Y-101193470D01*
X91873282Y-101097217D01*
X91747841Y-101000964D01*
X91601761Y-100940455D01*
X91445000Y-100919818D01*
X91288238Y-100940455D01*
X91142158Y-101000964D01*
X91016717Y-101097217D01*
X90920464Y-101222658D01*
X90859955Y-101368738D01*
X90839318Y-101525499D01*
X90859955Y-101682261D01*
X90920464Y-101828341D01*
X90999042Y-101930747D01*
X91014246Y-101959192D01*
X91019500Y-101991014D01*
X91019500Y-103799486D01*
X91014246Y-103831308D01*
X90999042Y-103859753D01*
X90920464Y-103962158D01*
X90859955Y-104108238D01*
X90839318Y-104265000D01*
X73637513Y-104265000D01*
X73612685Y-104218550D01*
X73481410Y-104058590D01*
X73321450Y-103927315D01*
X73138954Y-103829768D01*
X73138953Y-103829767D01*
X73138952Y-103829767D01*
X72940933Y-103769699D01*
X72735000Y-103749416D01*
X72529066Y-103769699D01*
X72331047Y-103829767D01*
X72148549Y-103927315D01*
X71988590Y-104058590D01*
X71857313Y-104218550D01*
X71799257Y-104327168D01*
X71762843Y-104365415D01*
X71711947Y-104379500D01*
X71070227Y-104379500D01*
X71017262Y-104364140D01*
X70980732Y-104322828D01*
X70971972Y-104268381D01*
X70993699Y-104217695D01*
X71007018Y-104201466D01*
X71072685Y-104121450D01*
X71170232Y-103938954D01*
X71230300Y-103740934D01*
X71250583Y-103535000D01*
X71250439Y-103533543D01*
X71230300Y-103329066D01*
X71200904Y-103232159D01*
X71170232Y-103131046D01*
X71072685Y-102948550D01*
X70993698Y-102852304D01*
X70971972Y-102801619D01*
X70980732Y-102747172D01*
X71017262Y-102705860D01*
X71070227Y-102690500D01*
X71711947Y-102690500D01*
X71762843Y-102704585D01*
X71799257Y-102742832D01*
X71857313Y-102851449D01*
X71913934Y-102920441D01*
X71988590Y-103011410D01*
X72148550Y-103142685D01*
X72331046Y-103240232D01*
X72529066Y-103300300D01*
X72735000Y-103320583D01*
X72940934Y-103300300D01*
X73138954Y-103240232D01*
X73321450Y-103142685D01*
X73481410Y-103011410D01*
X73612685Y-102851450D01*
X73710232Y-102668954D01*
X73770300Y-102470934D01*
X73790583Y-102265000D01*
X73770300Y-102059066D01*
X73729632Y-101925000D01*
X81829318Y-101925000D01*
X81849955Y-102081761D01*
X81910464Y-102227841D01*
X82006717Y-102353282D01*
X82074061Y-102404956D01*
X82132159Y-102449536D01*
X82183819Y-102470934D01*
X82197358Y-102476542D01*
X82229477Y-102498002D01*
X82387903Y-102656428D01*
X82390252Y-102658859D01*
X82426423Y-102697589D01*
X82434320Y-102706044D01*
X82451993Y-102716791D01*
X82470519Y-102728057D01*
X82478900Y-102733761D01*
X82512658Y-102759361D01*
X82531340Y-102766728D01*
X82546461Y-102774239D01*
X82563616Y-102784671D01*
X82563618Y-102784672D01*
X82604422Y-102796104D01*
X82614010Y-102799328D01*
X82653436Y-102814876D01*
X82673415Y-102816929D01*
X82689992Y-102820080D01*
X82709335Y-102825500D01*
X82751700Y-102825500D01*
X82761823Y-102826018D01*
X82770783Y-102826940D01*
X82803971Y-102830352D01*
X82803971Y-102830351D01*
X82803972Y-102830352D01*
X82823763Y-102826939D01*
X82840583Y-102825500D01*
X83875149Y-102825500D01*
X83913035Y-102833036D01*
X83962490Y-102853521D01*
X83978238Y-102860044D01*
X84135000Y-102880682D01*
X84291762Y-102860044D01*
X84437841Y-102799536D01*
X84563282Y-102703282D01*
X84659536Y-102577841D01*
X84720044Y-102431762D01*
X84740682Y-102275000D01*
X84720044Y-102118238D01*
X84659536Y-101972159D01*
X84587599Y-101878408D01*
X84563282Y-101846717D01*
X84437841Y-101750464D01*
X84291761Y-101689955D01*
X84135000Y-101669318D01*
X83978238Y-101689955D01*
X83913035Y-101716964D01*
X83875149Y-101724500D01*
X83068076Y-101724500D01*
X83013074Y-101707815D01*
X82976612Y-101663385D01*
X82969279Y-101645681D01*
X82959536Y-101622159D01*
X82920474Y-101571252D01*
X82885367Y-101525499D01*
X87589318Y-101525499D01*
X87609955Y-101682261D01*
X87670464Y-101828341D01*
X87749042Y-101930747D01*
X87764246Y-101959192D01*
X87769500Y-101991014D01*
X87769500Y-103173745D01*
X87764246Y-103205566D01*
X87751950Y-103228570D01*
X87689955Y-103378238D01*
X87669318Y-103535000D01*
X87689955Y-103691761D01*
X87750464Y-103837841D01*
X87846717Y-103963282D01*
X87917821Y-104017841D01*
X87972159Y-104059536D01*
X88118238Y-104120044D01*
X88275000Y-104140682D01*
X88431762Y-104120044D01*
X88577841Y-104059536D01*
X88703282Y-103963282D01*
X88799536Y-103837841D01*
X88860044Y-103691762D01*
X88880682Y-103535000D01*
X88860044Y-103378238D01*
X88799536Y-103232159D01*
X88765006Y-103187158D01*
X88703284Y-103106720D01*
X88703282Y-103106719D01*
X88703282Y-103106718D01*
X88659230Y-103072916D01*
X88630710Y-103038163D01*
X88620500Y-102994376D01*
X88620500Y-101991014D01*
X88625754Y-101959192D01*
X88640958Y-101930747D01*
X88683361Y-101875485D01*
X88719536Y-101828341D01*
X88780044Y-101682262D01*
X88800682Y-101525500D01*
X88780044Y-101368738D01*
X88719536Y-101222659D01*
X88697139Y-101193470D01*
X88623282Y-101097217D01*
X88497841Y-101000964D01*
X88351761Y-100940455D01*
X88195000Y-100919818D01*
X88038238Y-100940455D01*
X87892158Y-101000964D01*
X87766717Y-101097217D01*
X87670464Y-101222658D01*
X87609955Y-101368738D01*
X87589318Y-101525499D01*
X82885367Y-101525499D01*
X82863282Y-101496717D01*
X82737841Y-101400464D01*
X82591761Y-101339955D01*
X82435000Y-101319318D01*
X82278238Y-101339955D01*
X82132158Y-101400464D01*
X82006717Y-101496717D01*
X81910464Y-101622158D01*
X81849955Y-101768238D01*
X81829318Y-101925000D01*
X73729632Y-101925000D01*
X73710232Y-101861046D01*
X73612685Y-101678550D01*
X73481410Y-101518590D01*
X73321450Y-101387315D01*
X73138954Y-101289768D01*
X73138953Y-101289767D01*
X73138952Y-101289767D01*
X72940933Y-101229699D01*
X72735000Y-101209416D01*
X72529066Y-101229699D01*
X72331047Y-101289767D01*
X72148549Y-101387315D01*
X71988590Y-101518590D01*
X71857313Y-101678550D01*
X71799257Y-101787168D01*
X71762843Y-101825415D01*
X71711947Y-101839500D01*
X69732256Y-101839500D01*
X69694370Y-101831964D01*
X69662252Y-101810504D01*
X68529496Y-100677748D01*
X68508036Y-100645630D01*
X68500500Y-100607744D01*
X68500500Y-99491256D01*
X68517185Y-99436255D01*
X68561614Y-99399792D01*
X68618814Y-99394158D01*
X68669504Y-99421252D01*
X69256472Y-100008220D01*
X69256471Y-100008220D01*
X69309114Y-100060862D01*
X69351780Y-100103528D01*
X69375050Y-100115384D01*
X69388295Y-100123501D01*
X69409420Y-100138850D01*
X69434247Y-100146916D01*
X69448603Y-100152862D01*
X69465146Y-100161291D01*
X69471874Y-100164719D01*
X69496981Y-100168694D01*
X69497664Y-100168803D01*
X69512774Y-100172431D01*
X69537606Y-100180500D01*
X69537607Y-100180500D01*
X69571512Y-100180500D01*
X69577607Y-100180500D01*
X69672393Y-100180500D01*
X69678488Y-100180500D01*
X69712391Y-100180500D01*
X69712393Y-100180500D01*
X69737231Y-100172428D01*
X69752325Y-100168804D01*
X69778126Y-100164719D01*
X69784853Y-100161291D01*
X69829800Y-100150500D01*
X71711947Y-100150500D01*
X71762843Y-100164585D01*
X71799257Y-100202832D01*
X71857313Y-100311449D01*
X71901262Y-100365000D01*
X71988590Y-100471410D01*
X72148550Y-100602685D01*
X72331046Y-100700232D01*
X72529066Y-100760300D01*
X72735000Y-100780583D01*
X72940934Y-100760300D01*
X73138954Y-100700232D01*
X73321450Y-100602685D01*
X73481410Y-100471410D01*
X73612685Y-100311450D01*
X73710232Y-100128954D01*
X73770300Y-99930934D01*
X73790583Y-99725000D01*
X73770300Y-99519066D01*
X73710232Y-99321046D01*
X73612685Y-99138550D01*
X73481410Y-98978590D01*
X73321450Y-98847315D01*
X73167451Y-98765000D01*
X75589318Y-98765000D01*
X75609955Y-98921761D01*
X75670464Y-99067841D01*
X75766717Y-99193282D01*
X75840030Y-99249536D01*
X75892159Y-99289536D01*
X76038238Y-99350044D01*
X76195000Y-99370682D01*
X76351762Y-99350044D01*
X76497841Y-99289536D01*
X76562398Y-99240000D01*
X76600247Y-99210958D01*
X76628692Y-99195754D01*
X76660514Y-99190500D01*
X77479486Y-99190500D01*
X77511308Y-99195754D01*
X77539753Y-99210958D01*
X77590030Y-99249536D01*
X77642159Y-99289536D01*
X77788238Y-99350044D01*
X77945000Y-99370682D01*
X78101762Y-99350044D01*
X78247841Y-99289536D01*
X78373282Y-99193282D01*
X78469536Y-99067841D01*
X78530044Y-98921762D01*
X78550682Y-98765000D01*
X78545416Y-98724999D01*
X85979318Y-98724999D01*
X85999955Y-98881761D01*
X86060464Y-99027841D01*
X86156717Y-99153282D01*
X86231883Y-99210958D01*
X86282159Y-99249536D01*
X86428238Y-99310044D01*
X86585000Y-99330682D01*
X86741762Y-99310044D01*
X86887841Y-99249536D01*
X87013282Y-99153282D01*
X87013282Y-99153281D01*
X87031736Y-99129233D01*
X87066491Y-99100710D01*
X87110278Y-99090500D01*
X89329486Y-99090500D01*
X89361308Y-99095754D01*
X89389753Y-99110958D01*
X89457926Y-99163268D01*
X89492159Y-99189536D01*
X89638238Y-99250044D01*
X89795000Y-99270682D01*
X89951762Y-99250044D01*
X90097841Y-99189536D01*
X90223282Y-99093282D01*
X90319536Y-98967841D01*
X90380044Y-98821762D01*
X90400682Y-98665000D01*
X90380044Y-98508238D01*
X90319536Y-98362159D01*
X90286451Y-98319042D01*
X90223282Y-98236717D01*
X90097841Y-98140464D01*
X89951761Y-98079955D01*
X89795000Y-98059318D01*
X89638238Y-98079955D01*
X89492158Y-98140464D01*
X89389753Y-98219042D01*
X89361308Y-98234246D01*
X89329486Y-98239500D01*
X86972319Y-98239500D01*
X86940496Y-98234246D01*
X86912055Y-98219044D01*
X86887841Y-98200464D01*
X86886219Y-98199792D01*
X86741761Y-98139955D01*
X86585000Y-98119318D01*
X86428238Y-98139955D01*
X86282158Y-98200464D01*
X86156717Y-98296717D01*
X86060464Y-98422158D01*
X85999955Y-98568238D01*
X85979318Y-98724999D01*
X78545416Y-98724999D01*
X78530044Y-98608238D01*
X78469536Y-98462159D01*
X78400084Y-98371647D01*
X78373282Y-98336717D01*
X78247841Y-98240464D01*
X78101761Y-98179955D01*
X77945000Y-98159318D01*
X77788238Y-98179955D01*
X77642158Y-98240464D01*
X77539753Y-98319042D01*
X77511308Y-98334246D01*
X77479486Y-98339500D01*
X76660514Y-98339500D01*
X76628692Y-98334246D01*
X76600247Y-98319042D01*
X76497841Y-98240464D01*
X76351761Y-98179955D01*
X76195000Y-98159318D01*
X76038238Y-98179955D01*
X75892158Y-98240464D01*
X75766717Y-98336717D01*
X75670464Y-98462158D01*
X75609955Y-98608238D01*
X75589318Y-98765000D01*
X73167451Y-98765000D01*
X73138954Y-98749768D01*
X73138953Y-98749767D01*
X73138952Y-98749767D01*
X72940933Y-98689699D01*
X72735000Y-98669416D01*
X72529066Y-98689699D01*
X72331047Y-98749767D01*
X72148549Y-98847315D01*
X71988590Y-98978590D01*
X71857313Y-99138550D01*
X71799257Y-99247168D01*
X71762843Y-99285415D01*
X71711947Y-99299500D01*
X71070227Y-99299500D01*
X71017262Y-99284140D01*
X70980732Y-99242828D01*
X70971972Y-99188381D01*
X70993699Y-99137695D01*
X71072685Y-99041450D01*
X71170232Y-98858954D01*
X71230300Y-98660934D01*
X71250583Y-98455000D01*
X71230300Y-98249066D01*
X71226397Y-98236198D01*
X72043011Y-98236198D01*
X72103597Y-98278622D01*
X72303090Y-98371647D01*
X72515718Y-98428620D01*
X72735000Y-98447805D01*
X72954281Y-98428620D01*
X73166909Y-98371647D01*
X73366399Y-98278623D01*
X73426986Y-98236198D01*
X72734999Y-97544211D01*
X72043011Y-98236198D01*
X71226397Y-98236198D01*
X71170232Y-98051046D01*
X71072685Y-97868550D01*
X70941410Y-97708590D01*
X70781450Y-97577315D01*
X70598954Y-97479768D01*
X70598953Y-97479767D01*
X70598952Y-97479767D01*
X70400933Y-97419699D01*
X70195000Y-97399416D01*
X69989066Y-97419699D01*
X69791047Y-97479767D01*
X69599951Y-97581911D01*
X69598914Y-97579972D01*
X69561621Y-97595960D01*
X69507173Y-97587201D01*
X69465860Y-97550670D01*
X69450500Y-97497705D01*
X69450500Y-97184999D01*
X71472194Y-97184999D01*
X71491379Y-97404281D01*
X71548352Y-97616909D01*
X71641377Y-97816400D01*
X71683800Y-97876986D01*
X72375787Y-97184999D01*
X73094211Y-97184999D01*
X73786198Y-97876986D01*
X73828623Y-97816399D01*
X73921647Y-97616909D01*
X73978620Y-97404281D01*
X73997805Y-97185000D01*
X73978620Y-96965718D01*
X73921648Y-96753093D01*
X73828621Y-96553598D01*
X73786198Y-96493012D01*
X73094211Y-97184999D01*
X72375787Y-97184999D01*
X71683800Y-96493012D01*
X71641378Y-96553599D01*
X71548351Y-96753093D01*
X71491379Y-96965718D01*
X71472194Y-97184999D01*
X69450500Y-97184999D01*
X69450500Y-97064500D01*
X69463763Y-97015000D01*
X69500000Y-96978764D01*
X69549500Y-96965500D01*
X70989832Y-96965499D01*
X70989864Y-96965499D01*
X71014991Y-96962585D01*
X71117765Y-96917206D01*
X71197206Y-96837765D01*
X71242585Y-96734991D01*
X71245500Y-96709865D01*
X71245500Y-96133800D01*
X72043012Y-96133800D01*
X72734999Y-96825787D01*
X73426986Y-96133800D01*
X73366400Y-96091377D01*
X73166909Y-95998352D01*
X72954281Y-95941379D01*
X72735000Y-95922194D01*
X72515718Y-95941379D01*
X72303093Y-95998351D01*
X72103599Y-96091378D01*
X72043012Y-96133800D01*
X71245500Y-96133800D01*
X71245499Y-95120136D01*
X71242585Y-95095009D01*
X71197206Y-94992235D01*
X71117765Y-94912794D01*
X71117764Y-94912793D01*
X71014989Y-94867414D01*
X70994178Y-94865000D01*
X82839318Y-94865000D01*
X82859955Y-95021761D01*
X82920464Y-95167841D01*
X83016717Y-95293282D01*
X83080228Y-95342015D01*
X83142159Y-95389536D01*
X83288238Y-95450044D01*
X83445000Y-95470682D01*
X83601762Y-95450044D01*
X83747841Y-95389536D01*
X83873282Y-95293282D01*
X83895838Y-95263887D01*
X83969535Y-95167843D01*
X83975749Y-95152841D01*
X83996543Y-95102636D01*
X84017999Y-95070524D01*
X84826470Y-94262053D01*
X84828842Y-94259762D01*
X84876044Y-94215680D01*
X84898060Y-94179474D01*
X84903747Y-94171117D01*
X84929361Y-94137342D01*
X84936729Y-94118656D01*
X84944234Y-94103545D01*
X84954672Y-94086382D01*
X84958994Y-94070958D01*
X84966103Y-94045583D01*
X84969328Y-94035989D01*
X84984876Y-93996564D01*
X84986929Y-93976585D01*
X84990081Y-93960005D01*
X84995500Y-93940665D01*
X84995500Y-93898300D01*
X84996019Y-93888175D01*
X85000352Y-93846028D01*
X84996940Y-93826241D01*
X84995500Y-93809417D01*
X84995500Y-93324851D01*
X85003036Y-93286965D01*
X85030044Y-93221761D01*
X85033341Y-93196717D01*
X85050682Y-93065000D01*
X85030044Y-92908238D01*
X84969536Y-92762159D01*
X84943734Y-92728533D01*
X84923490Y-92674741D01*
X84936543Y-92618766D01*
X84978494Y-92579476D01*
X85035199Y-92570115D01*
X85039500Y-92570682D01*
X85196262Y-92550044D01*
X85342341Y-92489536D01*
X85467782Y-92393282D01*
X85564036Y-92267841D01*
X85624544Y-92121762D01*
X85645182Y-91965000D01*
X85624544Y-91808238D01*
X85564036Y-91662159D01*
X85526224Y-91612881D01*
X85467782Y-91536717D01*
X85342341Y-91440464D01*
X85196261Y-91379955D01*
X85039500Y-91359318D01*
X84882738Y-91379955D01*
X84736658Y-91440464D01*
X84611217Y-91536717D01*
X84581254Y-91575767D01*
X84546499Y-91604290D01*
X84502712Y-91614500D01*
X83985514Y-91614500D01*
X83953692Y-91609246D01*
X83925247Y-91594042D01*
X83822841Y-91515464D01*
X83676761Y-91454955D01*
X83520000Y-91434318D01*
X83363238Y-91454955D01*
X83217158Y-91515464D01*
X83091717Y-91611717D01*
X82995464Y-91737158D01*
X82934955Y-91883238D01*
X82914318Y-92040000D01*
X82934955Y-92196761D01*
X82995464Y-92342841D01*
X83091717Y-92468282D01*
X83160101Y-92520754D01*
X83217159Y-92564536D01*
X83363238Y-92625044D01*
X83520000Y-92645682D01*
X83676762Y-92625044D01*
X83822841Y-92564536D01*
X83832430Y-92557177D01*
X83884927Y-92537025D01*
X83939933Y-92548716D01*
X83979698Y-92588480D01*
X83991391Y-92643486D01*
X83971239Y-92695986D01*
X83920464Y-92762158D01*
X83859955Y-92908238D01*
X83839318Y-93065000D01*
X83859955Y-93221761D01*
X83886964Y-93286965D01*
X83894500Y-93324851D01*
X83894500Y-93595967D01*
X83886964Y-93633853D01*
X83865503Y-93665971D01*
X83239476Y-94291996D01*
X83207360Y-94313455D01*
X83142160Y-94340463D01*
X83016717Y-94436717D01*
X82920464Y-94562158D01*
X82859955Y-94708238D01*
X82839318Y-94865000D01*
X70994178Y-94865000D01*
X70989867Y-94864500D01*
X70989865Y-94864500D01*
X69549499Y-94864500D01*
X69500000Y-94851238D01*
X69463763Y-94815001D01*
X69450500Y-94765501D01*
X69450500Y-91092256D01*
X69458036Y-91054370D01*
X69479496Y-91022252D01*
X71172232Y-89329516D01*
X71204350Y-89308056D01*
X71242236Y-89300520D01*
X71255500Y-89300520D01*
X71305000Y-89313783D01*
X71341236Y-89350020D01*
X71354500Y-89399520D01*
X71354500Y-90959862D01*
X71354501Y-90959867D01*
X71357415Y-90984991D01*
X71370029Y-91013558D01*
X71402793Y-91087764D01*
X71402794Y-91087765D01*
X71482235Y-91167206D01*
X71585009Y-91212585D01*
X71610135Y-91215500D01*
X73399864Y-91215499D01*
X73424991Y-91212585D01*
X73527765Y-91167206D01*
X73607206Y-91087765D01*
X73652585Y-90984991D01*
X73655500Y-90959865D01*
X73655499Y-90750076D01*
X73669874Y-90698703D01*
X73708824Y-90662246D01*
X73761038Y-90651296D01*
X73811354Y-90669033D01*
X73845158Y-90710307D01*
X73846580Y-90713549D01*
X73969672Y-90901955D01*
X74122101Y-91067537D01*
X74299698Y-91205766D01*
X74497627Y-91312881D01*
X74710489Y-91385957D01*
X74790999Y-91399392D01*
X74791000Y-91399392D01*
X75299000Y-91399392D01*
X75379510Y-91385957D01*
X75592372Y-91312881D01*
X75790301Y-91205766D01*
X75967898Y-91067537D01*
X76120327Y-90901955D01*
X76243418Y-90713551D01*
X76333820Y-90507457D01*
X76381544Y-90319000D01*
X75299001Y-90319000D01*
X75299000Y-90319001D01*
X75299000Y-91399392D01*
X74791000Y-91399392D01*
X74791000Y-89910000D01*
X74804263Y-89860500D01*
X74840500Y-89824263D01*
X74890000Y-89811000D01*
X76381544Y-89811000D01*
X76381544Y-89810999D01*
X76333820Y-89622542D01*
X76253437Y-89439288D01*
X76245436Y-89391345D01*
X76261218Y-89345372D01*
X76296979Y-89312452D01*
X76344098Y-89300520D01*
X87519279Y-89300520D01*
X87566450Y-89312480D01*
X87602224Y-89345472D01*
X87617955Y-89391523D01*
X87609844Y-89439506D01*
X87607415Y-89445007D01*
X87604500Y-89470132D01*
X87604500Y-91259862D01*
X87604501Y-91259867D01*
X87607415Y-91284991D01*
X87618398Y-91309865D01*
X87652793Y-91387764D01*
X87732235Y-91467206D01*
X87734019Y-91467994D01*
X87773605Y-91499661D01*
X87792327Y-91546771D01*
X87785275Y-91596972D01*
X87754299Y-91637101D01*
X87722216Y-91661719D01*
X87625964Y-91787158D01*
X87565455Y-91933238D01*
X87544818Y-92090000D01*
X87565455Y-92246761D01*
X87625964Y-92392841D01*
X87722217Y-92518282D01*
X87789768Y-92570115D01*
X87847659Y-92614536D01*
X87993738Y-92675044D01*
X88150500Y-92695682D01*
X88307262Y-92675044D01*
X88453341Y-92614536D01*
X88514609Y-92567523D01*
X88555747Y-92535958D01*
X88584192Y-92520754D01*
X88616014Y-92515500D01*
X89029486Y-92515500D01*
X89061308Y-92520754D01*
X89089753Y-92535958D01*
X89134268Y-92570115D01*
X89192159Y-92614536D01*
X89338238Y-92675044D01*
X89495000Y-92695682D01*
X89651762Y-92675044D01*
X89797841Y-92614536D01*
X89923282Y-92518282D01*
X90019536Y-92392841D01*
X90080044Y-92246762D01*
X90100682Y-92090000D01*
X90080044Y-91933238D01*
X90019536Y-91787159D01*
X89997139Y-91757971D01*
X89923282Y-91661717D01*
X89820445Y-91582808D01*
X89787682Y-91538126D01*
X89784059Y-91482838D01*
X89810709Y-91434262D01*
X89857205Y-91387766D01*
X89857205Y-91387765D01*
X89857206Y-91387765D01*
X89902585Y-91284991D01*
X89905500Y-91259865D01*
X89905499Y-91050076D01*
X89919874Y-90998703D01*
X89958824Y-90962246D01*
X90011038Y-90951296D01*
X90061354Y-90969033D01*
X90095158Y-91010307D01*
X90096580Y-91013549D01*
X90219672Y-91201955D01*
X90372101Y-91367537D01*
X90549698Y-91505766D01*
X90747627Y-91612881D01*
X90960489Y-91685957D01*
X91040999Y-91699392D01*
X91041000Y-91699392D01*
X91549000Y-91699392D01*
X91629510Y-91685957D01*
X91842372Y-91612881D01*
X92040301Y-91505766D01*
X92217898Y-91367537D01*
X92370327Y-91201955D01*
X92493418Y-91013551D01*
X92583820Y-90807457D01*
X92631544Y-90619000D01*
X91549001Y-90619000D01*
X91549000Y-90619001D01*
X91549000Y-91699392D01*
X91041000Y-91699392D01*
X91041000Y-90210000D01*
X91054263Y-90160500D01*
X91090500Y-90124263D01*
X91140000Y-90111000D01*
X92631544Y-90111000D01*
X92631544Y-90110999D01*
X92583820Y-89922542D01*
X92493418Y-89716448D01*
X92370325Y-89528040D01*
X92313738Y-89466570D01*
X92288925Y-89415814D01*
X92295914Y-89359752D01*
X92332427Y-89316640D01*
X92386575Y-89300520D01*
X101856356Y-89300520D01*
X101903528Y-89312481D01*
X101939301Y-89345473D01*
X101955033Y-89391524D01*
X101946921Y-89439507D01*
X101922414Y-89495009D01*
X101919500Y-89520132D01*
X101919500Y-91309862D01*
X101922032Y-91331693D01*
X101922415Y-91334991D01*
X101937757Y-91369737D01*
X101967793Y-91437764D01*
X101967794Y-91437765D01*
X102047235Y-91517206D01*
X102150009Y-91562585D01*
X102175135Y-91565500D01*
X103964864Y-91565499D01*
X103989991Y-91562585D01*
X104092765Y-91517206D01*
X104172206Y-91437765D01*
X104217585Y-91334991D01*
X104220500Y-91309865D01*
X104220499Y-91100076D01*
X104234874Y-91048703D01*
X104273824Y-91012246D01*
X104326038Y-91001296D01*
X104376354Y-91019033D01*
X104410158Y-91060307D01*
X104411580Y-91063549D01*
X104534672Y-91251955D01*
X104687101Y-91417537D01*
X104864698Y-91555766D01*
X105062627Y-91662881D01*
X105275489Y-91735957D01*
X105355999Y-91749392D01*
X105356000Y-91749392D01*
X105864000Y-91749392D01*
X105944510Y-91735957D01*
X106157372Y-91662881D01*
X106355301Y-91555766D01*
X106532898Y-91417537D01*
X106685327Y-91251955D01*
X106808418Y-91063551D01*
X106898820Y-90857457D01*
X106946544Y-90669000D01*
X105864001Y-90669000D01*
X105864000Y-90669001D01*
X105864000Y-91749392D01*
X105356000Y-91749392D01*
X105356000Y-90260000D01*
X105369263Y-90210500D01*
X105405500Y-90174263D01*
X105455000Y-90161000D01*
X106946544Y-90161000D01*
X106946544Y-90160999D01*
X106898820Y-89972542D01*
X106808418Y-89766448D01*
X106685327Y-89578044D01*
X106582709Y-89466571D01*
X106557896Y-89415815D01*
X106564884Y-89359752D01*
X106601398Y-89316641D01*
X106655546Y-89300520D01*
X111748576Y-89300520D01*
X111786462Y-89308056D01*
X111818580Y-89329516D01*
X113470504Y-90981440D01*
X113491964Y-91013558D01*
X113499500Y-91051444D01*
X113499500Y-92992568D01*
X113483996Y-93045761D01*
X113442340Y-93082292D01*
X113387578Y-93090721D01*
X113225000Y-93069318D01*
X113068238Y-93089955D01*
X112922158Y-93150464D01*
X112796717Y-93246717D01*
X112700464Y-93372158D01*
X112639955Y-93518238D01*
X112619318Y-93675000D01*
X112639955Y-93831761D01*
X112700464Y-93977841D01*
X112779042Y-94080247D01*
X112794246Y-94108692D01*
X112799500Y-94140514D01*
X112799500Y-98223557D01*
X112791964Y-98261443D01*
X112770504Y-98293560D01*
X111121780Y-99942283D01*
X111026472Y-100037591D01*
X111014615Y-100060862D01*
X111006500Y-100074104D01*
X110991150Y-100095231D01*
X110983082Y-100120064D01*
X110977138Y-100134414D01*
X110965281Y-100157684D01*
X110961196Y-100183476D01*
X110957570Y-100198577D01*
X110949500Y-100223416D01*
X110949500Y-101549724D01*
X110930972Y-101607389D01*
X110882323Y-101643470D01*
X110821763Y-101644461D01*
X110784418Y-101618615D01*
X110783623Y-101619652D01*
X110647841Y-101515464D01*
X110501761Y-101454955D01*
X110345000Y-101434318D01*
X110188238Y-101454955D01*
X110042158Y-101515464D01*
X109916717Y-101611717D01*
X109820464Y-101737158D01*
X109759955Y-101883238D01*
X109739318Y-102040000D01*
X109759955Y-102196761D01*
X109787461Y-102263165D01*
X109794150Y-102313973D01*
X109774539Y-102361318D01*
X109733883Y-102392515D01*
X109683076Y-102399204D01*
X109570000Y-102384318D01*
X109413238Y-102404955D01*
X109267160Y-102465463D01*
X109267158Y-102465464D01*
X109267159Y-102465464D01*
X109262492Y-102469045D01*
X109234051Y-102484246D01*
X109202229Y-102489500D01*
X108204851Y-102489500D01*
X108166965Y-102481964D01*
X108101761Y-102454955D01*
X107945000Y-102434318D01*
X107788238Y-102454955D01*
X107642158Y-102515464D01*
X107516717Y-102611717D01*
X107420464Y-102737158D01*
X107359955Y-102883238D01*
X107339318Y-103039999D01*
X107359955Y-103196761D01*
X107420464Y-103342841D01*
X107516717Y-103468282D01*
X107566729Y-103506657D01*
X107597926Y-103547313D01*
X107604615Y-103598120D01*
X107585005Y-103645466D01*
X107495463Y-103762160D01*
X107434955Y-103908238D01*
X107414318Y-104064999D01*
X107434955Y-104221761D01*
X107495464Y-104367841D01*
X107591717Y-104493282D01*
X107667241Y-104551233D01*
X107717159Y-104589536D01*
X107863238Y-104650044D01*
X108020000Y-104670682D01*
X108176762Y-104650044D01*
X108322841Y-104589536D01*
X108327507Y-104585954D01*
X108355949Y-104570754D01*
X108387771Y-104565500D01*
X109420496Y-104565500D01*
X109441540Y-104567762D01*
X109448877Y-104569359D01*
X109499305Y-104565752D01*
X109506368Y-104565500D01*
X109520751Y-104565500D01*
X109529341Y-104564264D01*
X109534987Y-104563452D01*
X109541993Y-104562698D01*
X109592433Y-104559091D01*
X109599467Y-104556467D01*
X109619972Y-104551233D01*
X109627407Y-104550165D01*
X109673400Y-104529159D01*
X109679902Y-104526466D01*
X109727281Y-104508796D01*
X109733299Y-104504290D01*
X109751498Y-104493493D01*
X109758323Y-104490377D01*
X109758324Y-104490375D01*
X109758326Y-104490375D01*
X109796513Y-104457284D01*
X109802003Y-104452858D01*
X109813543Y-104444221D01*
X109823729Y-104434033D01*
X109828857Y-104429258D01*
X109867093Y-104396128D01*
X109871149Y-104389814D01*
X109884427Y-104373335D01*
X110653331Y-103604430D01*
X110669811Y-103591152D01*
X110676128Y-103587093D01*
X110709250Y-103548865D01*
X110714039Y-103543722D01*
X110724220Y-103533543D01*
X110732841Y-103522025D01*
X110737261Y-103516539D01*
X110770377Y-103478323D01*
X110770377Y-103478322D01*
X110775682Y-103472201D01*
X110826018Y-103441109D01*
X110885098Y-103444276D01*
X110931821Y-103480573D01*
X110949500Y-103537034D01*
X110949500Y-105521512D01*
X110949500Y-105608496D01*
X110949500Y-105743282D01*
X110957569Y-105768114D01*
X110961195Y-105783219D01*
X110965280Y-105809013D01*
X110977135Y-105832279D01*
X110983079Y-105846630D01*
X110991150Y-105871470D01*
X111006497Y-105892592D01*
X111014613Y-105905834D01*
X111026472Y-105929109D01*
X111048683Y-105951320D01*
X111050447Y-105953084D01*
X114695504Y-109598141D01*
X114716964Y-109630259D01*
X114724500Y-109668145D01*
X114724500Y-117109442D01*
X114707816Y-117164443D01*
X114663386Y-117200906D01*
X114507614Y-117265429D01*
X114382173Y-117361682D01*
X114285920Y-117487123D01*
X114225411Y-117633203D01*
X114204774Y-117789964D01*
X114225411Y-117946726D01*
X114285919Y-118092804D01*
X114285920Y-118092806D01*
X114327595Y-118147118D01*
X114346904Y-118172282D01*
X114365014Y-118211122D01*
X114365014Y-118253976D01*
X114346904Y-118292815D01*
X114292487Y-118363733D01*
X114231978Y-118509813D01*
X114211341Y-118666575D01*
X114231978Y-118823336D01*
X114292487Y-118969416D01*
X114312323Y-118995267D01*
X114330434Y-119034107D01*
X114330434Y-119076961D01*
X114312323Y-119115801D01*
X114276055Y-119163065D01*
X114215546Y-119309146D01*
X114194909Y-119465908D01*
X114215546Y-119622669D01*
X114256670Y-119721950D01*
X114276055Y-119768749D01*
X114288908Y-119785500D01*
X114291219Y-119788511D01*
X114309330Y-119827350D01*
X114309330Y-119870205D01*
X114291221Y-119909042D01*
X114259611Y-119950237D01*
X114250463Y-119962160D01*
X114189955Y-120108238D01*
X114169318Y-120265000D01*
X114189955Y-120421761D01*
X114250464Y-120567841D01*
X114346717Y-120693282D01*
X114442970Y-120767139D01*
X114472159Y-120789536D01*
X114618238Y-120850044D01*
X114775000Y-120870682D01*
X114931762Y-120850044D01*
X115077841Y-120789536D01*
X115203282Y-120693282D01*
X115203286Y-120693275D01*
X115204754Y-120692150D01*
X115224979Y-120683463D01*
X115224152Y-120681840D01*
X115239655Y-120673939D01*
X115261394Y-120662862D01*
X115275738Y-120656920D01*
X115300581Y-120648849D01*
X115321712Y-120633494D01*
X115334946Y-120625385D01*
X115358220Y-120613528D01*
X115453528Y-120518220D01*
X115453528Y-120518219D01*
X115820831Y-120150914D01*
X115820835Y-120150912D01*
X115832192Y-120139555D01*
X115832194Y-120139554D01*
X116824554Y-119147194D01*
X116824554Y-119147193D01*
X116848528Y-119123220D01*
X116860381Y-119099955D01*
X116868496Y-119086713D01*
X116883850Y-119065581D01*
X116891921Y-119040737D01*
X116897868Y-119026382D01*
X116909718Y-119003127D01*
X116909719Y-119003126D01*
X116913804Y-118977328D01*
X116917432Y-118962221D01*
X116925500Y-118937394D01*
X116925500Y-108824307D01*
X116917431Y-108799475D01*
X116913803Y-108784365D01*
X116913694Y-108783682D01*
X116909719Y-108758575D01*
X116909718Y-108758573D01*
X116897862Y-108735304D01*
X116891916Y-108720948D01*
X116883850Y-108696121D01*
X116879388Y-108689980D01*
X116868498Y-108674992D01*
X116860383Y-108661749D01*
X116848528Y-108638481D01*
X116753220Y-108543173D01*
X116753217Y-108543171D01*
X115543700Y-107333654D01*
X114335883Y-106125836D01*
X114309785Y-106079609D01*
X114311318Y-106026546D01*
X114340042Y-105981904D01*
X114387694Y-105958518D01*
X114426198Y-105951321D01*
X114625019Y-105874298D01*
X114806302Y-105762052D01*
X114963872Y-105618407D01*
X115092366Y-105448255D01*
X115187405Y-105257389D01*
X115245756Y-105052310D01*
X115265429Y-104840000D01*
X115494571Y-104840000D01*
X115514244Y-105052310D01*
X115564944Y-105230500D01*
X115572596Y-105257391D01*
X115667634Y-105448256D01*
X115796125Y-105618404D01*
X115953699Y-105762053D01*
X116085622Y-105843736D01*
X116134981Y-105874298D01*
X116276463Y-105929108D01*
X116333804Y-105951322D01*
X116543388Y-105990500D01*
X116543390Y-105990500D01*
X116756610Y-105990500D01*
X116756612Y-105990500D01*
X116966195Y-105951322D01*
X116966198Y-105951321D01*
X117165019Y-105874298D01*
X117346302Y-105762052D01*
X117503872Y-105618407D01*
X117632366Y-105448255D01*
X117727405Y-105257389D01*
X117785756Y-105052310D01*
X117805429Y-104840000D01*
X117785756Y-104627690D01*
X117727405Y-104422611D01*
X117632366Y-104231745D01*
X117632365Y-104231744D01*
X117632365Y-104231743D01*
X117503874Y-104061595D01*
X117501615Y-104059536D01*
X117346302Y-103917948D01*
X117346300Y-103917946D01*
X117165021Y-103805703D01*
X117165019Y-103805702D01*
X117122898Y-103789384D01*
X116966195Y-103728677D01*
X116756612Y-103689500D01*
X116756610Y-103689500D01*
X116543390Y-103689500D01*
X116543388Y-103689500D01*
X116333804Y-103728677D01*
X116134978Y-103805703D01*
X115953699Y-103917946D01*
X115796125Y-104061595D01*
X115667634Y-104231743D01*
X115572596Y-104422608D01*
X115572595Y-104422611D01*
X115514244Y-104627690D01*
X115494571Y-104840000D01*
X115265429Y-104840000D01*
X115245756Y-104627690D01*
X115187405Y-104422611D01*
X115092366Y-104231745D01*
X115092365Y-104231744D01*
X115092365Y-104231743D01*
X114963874Y-104061595D01*
X114961615Y-104059536D01*
X114806302Y-103917948D01*
X114806300Y-103917946D01*
X114625021Y-103805703D01*
X114625019Y-103805702D01*
X114582898Y-103789384D01*
X114426195Y-103728677D01*
X114216612Y-103689500D01*
X114216610Y-103689500D01*
X114062305Y-103689500D01*
X114009112Y-103673996D01*
X113972581Y-103632339D01*
X113964152Y-103577578D01*
X113966698Y-103558238D01*
X113975682Y-103490000D01*
X113955044Y-103333238D01*
X113894536Y-103187159D01*
X113834807Y-103109318D01*
X113798282Y-103061717D01*
X113672841Y-102965464D01*
X113526761Y-102904955D01*
X113370000Y-102884318D01*
X113262421Y-102898480D01*
X113207661Y-102890052D01*
X113166004Y-102853521D01*
X113150500Y-102800328D01*
X113150500Y-101067256D01*
X113158036Y-101029370D01*
X113179496Y-100997252D01*
X113811748Y-100365000D01*
X114449554Y-99727194D01*
X114449553Y-99727194D01*
X114999553Y-99177195D01*
X114999553Y-99177194D01*
X115149554Y-99027194D01*
X115168984Y-99007764D01*
X115168986Y-99007762D01*
X115169879Y-99006868D01*
X115173528Y-99003220D01*
X115173528Y-99003218D01*
X115174859Y-99001888D01*
X115175545Y-98999260D01*
X115185383Y-98979952D01*
X115193498Y-98966707D01*
X115208849Y-98945581D01*
X115216916Y-98920749D01*
X115222864Y-98906391D01*
X115234718Y-98883128D01*
X115234718Y-98883127D01*
X115234719Y-98883126D01*
X115238804Y-98857325D01*
X115242428Y-98842231D01*
X115250500Y-98817393D01*
X115250500Y-98682607D01*
X115250500Y-98291256D01*
X115267185Y-98236255D01*
X115311614Y-98199792D01*
X115368814Y-98194158D01*
X115419504Y-98221252D01*
X118445504Y-101247251D01*
X118466964Y-101279369D01*
X118474500Y-101317255D01*
X118474500Y-106346348D01*
X118466964Y-106384234D01*
X118445504Y-106416351D01*
X117646780Y-107215075D01*
X117551472Y-107310383D01*
X117539615Y-107333654D01*
X117531500Y-107346896D01*
X117516150Y-107368023D01*
X117508082Y-107392856D01*
X117502138Y-107407206D01*
X117490281Y-107430476D01*
X117486196Y-107456268D01*
X117482570Y-107471369D01*
X117474500Y-107496208D01*
X117474500Y-123950500D01*
X117461237Y-124000000D01*
X117425000Y-124036237D01*
X117375500Y-124049500D01*
X108359664Y-124049500D01*
X108307547Y-124034671D01*
X108271043Y-123994627D01*
X108207366Y-123866745D01*
X108078874Y-123696595D01*
X107921300Y-123552946D01*
X107740021Y-123440703D01*
X107740019Y-123440702D01*
X107678966Y-123417050D01*
X107541195Y-123363677D01*
X107331612Y-123324500D01*
X107331610Y-123324500D01*
X107118390Y-123324500D01*
X107118388Y-123324500D01*
X106908804Y-123363677D01*
X106709978Y-123440703D01*
X106528699Y-123552946D01*
X106371125Y-123696595D01*
X106242634Y-123866743D01*
X106147596Y-124057608D01*
X106147595Y-124057611D01*
X106089244Y-124262690D01*
X106069571Y-124475000D01*
X106089244Y-124687310D01*
X106144580Y-124881792D01*
X106145180Y-124933769D01*
X106119363Y-124978886D01*
X105536780Y-125561471D01*
X105441472Y-125656779D01*
X105429615Y-125680050D01*
X105421500Y-125693292D01*
X105406150Y-125714419D01*
X105398082Y-125739252D01*
X105392138Y-125753602D01*
X105380281Y-125776872D01*
X105376196Y-125802664D01*
X105372570Y-125817765D01*
X105364500Y-125842604D01*
X105364500Y-125904805D01*
X105350853Y-125954964D01*
X105313674Y-125991293D01*
X105263214Y-126003779D01*
X105213384Y-125988977D01*
X105200020Y-125980702D01*
X105001195Y-125903677D01*
X104791612Y-125864500D01*
X104791610Y-125864500D01*
X104578390Y-125864500D01*
X104578388Y-125864500D01*
X104368804Y-125903677D01*
X104169978Y-125980703D01*
X103988699Y-126092946D01*
X103831125Y-126236595D01*
X103702633Y-126406745D01*
X103638957Y-126534627D01*
X103602453Y-126574671D01*
X103550336Y-126589500D01*
X102930949Y-126589500D01*
X102889571Y-126580438D01*
X102855768Y-126554911D01*
X102835728Y-126517593D01*
X102777405Y-126312611D01*
X102682366Y-126121745D01*
X102682365Y-126121744D01*
X102682365Y-126121743D01*
X102553874Y-125951595D01*
X102396300Y-125807946D01*
X102215021Y-125695703D01*
X102215019Y-125695702D01*
X102154890Y-125672408D01*
X102016195Y-125618677D01*
X101806612Y-125579500D01*
X101806610Y-125579500D01*
X101593390Y-125579500D01*
X101593388Y-125579500D01*
X101383804Y-125618677D01*
X101184978Y-125695703D01*
X101003699Y-125807946D01*
X100946196Y-125860368D01*
X100895439Y-125884915D01*
X100839512Y-125877771D01*
X100796555Y-125841253D01*
X100780500Y-125787206D01*
X100780500Y-125724180D01*
X100788036Y-125686294D01*
X100809496Y-125654176D01*
X101469176Y-124994496D01*
X101501294Y-124973036D01*
X101539180Y-124965500D01*
X103582702Y-124965500D01*
X103634819Y-124980329D01*
X103671321Y-125020370D01*
X103702634Y-125083255D01*
X103702635Y-125083256D01*
X103702636Y-125083258D01*
X103831125Y-125253404D01*
X103988699Y-125397053D01*
X104034643Y-125425500D01*
X104169981Y-125509298D01*
X104325480Y-125569538D01*
X104368804Y-125586322D01*
X104578388Y-125625500D01*
X104578390Y-125625500D01*
X104791610Y-125625500D01*
X104791612Y-125625500D01*
X105001195Y-125586322D01*
X105018805Y-125579500D01*
X105200019Y-125509298D01*
X105381302Y-125397052D01*
X105538872Y-125253407D01*
X105667366Y-125083255D01*
X105762405Y-124892389D01*
X105820756Y-124687310D01*
X105840429Y-124475000D01*
X105820756Y-124262690D01*
X105762405Y-124057611D01*
X105667366Y-123866745D01*
X105667365Y-123866744D01*
X105667365Y-123866743D01*
X105538874Y-123696595D01*
X105381300Y-123552946D01*
X105200021Y-123440703D01*
X105200019Y-123440702D01*
X105138966Y-123417050D01*
X105001195Y-123363677D01*
X104791612Y-123324500D01*
X104791610Y-123324500D01*
X104578390Y-123324500D01*
X104578388Y-123324500D01*
X104368804Y-123363677D01*
X104169978Y-123440703D01*
X103988699Y-123552946D01*
X103831125Y-123696595D01*
X103702636Y-123866741D01*
X103702634Y-123866744D01*
X103702634Y-123866745D01*
X103671321Y-123929629D01*
X103634819Y-123969671D01*
X103582702Y-123984500D01*
X101358378Y-123984500D01*
X101337337Y-123982238D01*
X101330354Y-123980719D01*
X101330352Y-123980719D01*
X101281008Y-123984248D01*
X101273948Y-123984500D01*
X101259918Y-123984500D01*
X101246030Y-123986496D01*
X101239014Y-123987251D01*
X101189661Y-123990781D01*
X101182962Y-123993280D01*
X101162468Y-123998511D01*
X101155389Y-123999529D01*
X101118469Y-124016389D01*
X101064654Y-124024517D01*
X101014676Y-124002973D01*
X100983637Y-123958267D01*
X100980918Y-123903910D01*
X101007339Y-123856332D01*
X102409175Y-122454496D01*
X102441294Y-122433036D01*
X102479180Y-122425500D01*
X103582702Y-122425500D01*
X103634819Y-122440329D01*
X103671321Y-122480370D01*
X103702634Y-122543255D01*
X103702635Y-122543256D01*
X103702636Y-122543258D01*
X103831125Y-122713404D01*
X103988699Y-122857053D01*
X104120622Y-122938736D01*
X104169981Y-122969298D01*
X104313763Y-123024999D01*
X104368804Y-123046322D01*
X104578388Y-123085500D01*
X104578390Y-123085500D01*
X104791610Y-123085500D01*
X104791612Y-123085500D01*
X105001195Y-123046322D01*
X105001198Y-123046321D01*
X105200019Y-122969298D01*
X105381302Y-122857052D01*
X105538872Y-122713407D01*
X105667366Y-122543255D01*
X105731042Y-122415373D01*
X105767547Y-122375329D01*
X105819664Y-122360500D01*
X106090336Y-122360500D01*
X106142453Y-122375329D01*
X106178957Y-122415373D01*
X106242633Y-122543254D01*
X106371125Y-122713404D01*
X106528699Y-122857053D01*
X106660622Y-122938736D01*
X106709981Y-122969298D01*
X106853763Y-123024999D01*
X106908804Y-123046322D01*
X107118388Y-123085500D01*
X107118390Y-123085500D01*
X107331610Y-123085500D01*
X107331612Y-123085500D01*
X107541195Y-123046322D01*
X107541198Y-123046321D01*
X107740019Y-122969298D01*
X107921302Y-122857052D01*
X108078872Y-122713407D01*
X108207366Y-122543255D01*
X108302405Y-122352389D01*
X108360756Y-122147310D01*
X108380429Y-121935000D01*
X108360756Y-121722690D01*
X108302405Y-121517611D01*
X108207366Y-121326745D01*
X108207365Y-121326744D01*
X108207365Y-121326743D01*
X108078874Y-121156595D01*
X107921300Y-121012946D01*
X107740021Y-120900703D01*
X107740019Y-120900702D01*
X107662528Y-120870682D01*
X107541195Y-120823677D01*
X107331612Y-120784500D01*
X107331610Y-120784500D01*
X107118390Y-120784500D01*
X107118388Y-120784500D01*
X106908804Y-120823677D01*
X106709978Y-120900703D01*
X106528699Y-121012946D01*
X106371125Y-121156595D01*
X106242633Y-121326745D01*
X106178957Y-121454627D01*
X106142453Y-121494671D01*
X106090336Y-121509500D01*
X105819664Y-121509500D01*
X105767547Y-121494671D01*
X105731043Y-121454627D01*
X105667366Y-121326745D01*
X105538874Y-121156595D01*
X105381300Y-121012946D01*
X105200021Y-120900703D01*
X105200019Y-120900702D01*
X105173928Y-120890594D01*
X105115162Y-120867828D01*
X105068710Y-120830664D01*
X105051944Y-120773587D01*
X105070918Y-120717205D01*
X105118780Y-120681877D01*
X105232371Y-120642881D01*
X105430301Y-120535766D01*
X105607898Y-120397537D01*
X105760327Y-120231955D01*
X105887142Y-120037852D01*
X105922902Y-120004932D01*
X105970021Y-119993000D01*
X106020999Y-119993000D01*
X106021000Y-119992999D01*
X106529000Y-119992999D01*
X106529001Y-119993000D01*
X107173589Y-119993000D01*
X107234094Y-119986495D01*
X107370962Y-119935446D01*
X107487903Y-119847903D01*
X107575445Y-119730964D01*
X107578807Y-119721950D01*
X107606734Y-119681727D01*
X107650521Y-119659808D01*
X107699457Y-119661555D01*
X107741569Y-119686540D01*
X107792235Y-119737206D01*
X107895009Y-119782585D01*
X107920135Y-119785500D01*
X109709864Y-119785499D01*
X109734991Y-119782585D01*
X109837765Y-119737206D01*
X109917206Y-119657765D01*
X109962585Y-119554991D01*
X109965500Y-119529865D01*
X109965500Y-119529862D01*
X110204500Y-119529862D01*
X110207415Y-119554990D01*
X110252793Y-119657764D01*
X110252794Y-119657765D01*
X110332235Y-119737206D01*
X110435009Y-119782585D01*
X110460135Y-119785500D01*
X112249864Y-119785499D01*
X112274991Y-119782585D01*
X112377765Y-119737206D01*
X112457206Y-119657765D01*
X112502585Y-119554991D01*
X112505500Y-119529865D01*
X112505499Y-116440136D01*
X112502585Y-116415009D01*
X112502584Y-116415008D01*
X112500859Y-116400129D01*
X112503408Y-116399833D01*
X112499551Y-116374374D01*
X112518884Y-116326112D01*
X112560008Y-116294302D01*
X112573651Y-116288651D01*
X112585500Y-116260045D01*
X112589661Y-116250000D01*
X112589661Y-116249999D01*
X112589661Y-116241179D01*
X112585500Y-116220262D01*
X112585500Y-112129738D01*
X112589661Y-112108822D01*
X112589661Y-112100001D01*
X112573651Y-112061350D01*
X112573651Y-112061349D01*
X112545045Y-112049500D01*
X112534999Y-112045339D01*
X112526179Y-112045339D01*
X112505262Y-112049500D01*
X110414738Y-112049500D01*
X110393821Y-112045339D01*
X110385001Y-112045339D01*
X110385000Y-112045339D01*
X110374955Y-112049500D01*
X110374954Y-112049500D01*
X110346350Y-112061348D01*
X110346348Y-112061350D01*
X110330339Y-112100001D01*
X110330339Y-112108822D01*
X110334500Y-112129738D01*
X110334500Y-116189522D01*
X110326964Y-116227408D01*
X110305503Y-116259526D01*
X110252794Y-116312233D01*
X110207414Y-116415010D01*
X110204500Y-116440132D01*
X110204500Y-119529862D01*
X109965500Y-119529862D01*
X109965499Y-116440136D01*
X109962585Y-116415009D01*
X109917206Y-116312235D01*
X109837765Y-116232794D01*
X109837764Y-116232793D01*
X109734989Y-116187414D01*
X109709868Y-116184500D01*
X109709865Y-116184500D01*
X109503090Y-116184500D01*
X109449897Y-116168996D01*
X109413366Y-116127339D01*
X109404937Y-116072578D01*
X109415447Y-115992740D01*
X109425682Y-115915000D01*
X109405044Y-115758238D01*
X109344536Y-115612159D01*
X109294971Y-115547564D01*
X109248282Y-115486717D01*
X109122841Y-115390464D01*
X108976761Y-115329955D01*
X108820000Y-115309318D01*
X108663238Y-115329955D01*
X108517158Y-115390464D01*
X108391717Y-115486717D01*
X108295464Y-115612158D01*
X108234955Y-115758238D01*
X108214318Y-115915000D01*
X108235063Y-116072579D01*
X108226634Y-116127341D01*
X108190103Y-116168997D01*
X108136910Y-116184501D01*
X107920136Y-116184501D01*
X107895501Y-116187358D01*
X107895009Y-116187415D01*
X107792233Y-116232794D01*
X107741569Y-116283458D01*
X107699457Y-116308444D01*
X107650521Y-116310191D01*
X107606734Y-116288273D01*
X107578808Y-116248051D01*
X107575446Y-116239037D01*
X107487903Y-116122096D01*
X107370962Y-116034553D01*
X107234094Y-115983504D01*
X107173589Y-115977000D01*
X106529001Y-115977000D01*
X106529000Y-115977001D01*
X106529000Y-119992999D01*
X106021000Y-119992999D01*
X106021000Y-118239001D01*
X106020999Y-118239000D01*
X104939001Y-118239000D01*
X104939000Y-118239001D01*
X104939000Y-119550000D01*
X104925737Y-119599500D01*
X104889500Y-119635737D01*
X104840000Y-119649000D01*
X103348456Y-119649000D01*
X103396179Y-119837457D01*
X103486581Y-120043551D01*
X103609672Y-120231955D01*
X103762101Y-120397537D01*
X103939698Y-120535766D01*
X104137629Y-120642882D01*
X104251219Y-120681877D01*
X104299081Y-120717205D01*
X104318055Y-120773587D01*
X104301289Y-120830664D01*
X104254838Y-120867827D01*
X104169981Y-120900701D01*
X103988699Y-121012946D01*
X103831125Y-121156595D01*
X103702636Y-121326741D01*
X103702634Y-121326744D01*
X103702634Y-121326745D01*
X103671321Y-121389629D01*
X103634819Y-121429671D01*
X103582702Y-121444500D01*
X102298378Y-121444500D01*
X102277337Y-121442238D01*
X102270354Y-121440719D01*
X102270352Y-121440719D01*
X102221008Y-121444248D01*
X102213948Y-121444500D01*
X102199918Y-121444500D01*
X102186030Y-121446496D01*
X102179014Y-121447251D01*
X102129661Y-121450781D01*
X102122962Y-121453280D01*
X102102468Y-121458511D01*
X102095389Y-121459529D01*
X102050386Y-121480080D01*
X102043859Y-121482783D01*
X101997510Y-121500070D01*
X101991785Y-121504356D01*
X101973591Y-121515151D01*
X101967089Y-121518120D01*
X101929708Y-121550511D01*
X101924212Y-121554940D01*
X101912971Y-121563355D01*
X101903040Y-121573286D01*
X101897874Y-121578096D01*
X101860491Y-121610489D01*
X101856629Y-121616499D01*
X101843353Y-121632973D01*
X99387973Y-124088353D01*
X99371499Y-124101629D01*
X99365489Y-124105491D01*
X99333096Y-124142874D01*
X99328286Y-124148040D01*
X99318355Y-124157971D01*
X99309940Y-124169212D01*
X99305511Y-124174708D01*
X99273121Y-124212088D01*
X99270152Y-124218590D01*
X99259357Y-124236785D01*
X99255070Y-124242511D01*
X99237778Y-124288871D01*
X99235075Y-124295396D01*
X99214527Y-124340390D01*
X99213510Y-124347467D01*
X99208280Y-124367961D01*
X99205781Y-124374660D01*
X99202251Y-124424014D01*
X99201496Y-124431036D01*
X99199500Y-124444920D01*
X99199500Y-124458948D01*
X99199248Y-124466010D01*
X99195719Y-124515354D01*
X99197238Y-124522337D01*
X99199500Y-124543378D01*
X99199500Y-132276622D01*
X99197238Y-132297663D01*
X99195719Y-132304645D01*
X99199248Y-132353990D01*
X99199500Y-132361052D01*
X99199500Y-132375081D01*
X99201496Y-132388965D01*
X99202251Y-132395987D01*
X99205781Y-132445338D01*
X99208278Y-132452032D01*
X99213511Y-132472532D01*
X99214529Y-132479611D01*
X99235079Y-132524611D01*
X99237783Y-132531139D01*
X99255071Y-132577490D01*
X99259355Y-132583213D01*
X99270153Y-132601411D01*
X99273121Y-132607910D01*
X99305506Y-132645285D01*
X99309936Y-132650782D01*
X99318355Y-132662028D01*
X99328289Y-132671962D01*
X99333092Y-132677120D01*
X99365488Y-132714507D01*
X99371494Y-132718367D01*
X99387975Y-132731647D01*
X99936008Y-133279680D01*
X100454766Y-133798437D01*
X100480045Y-133841568D01*
X100481027Y-133891551D01*
X100457461Y-133935641D01*
X100415357Y-133962595D01*
X100404420Y-133966148D01*
X100383289Y-133981501D01*
X100370049Y-133989614D01*
X100346781Y-134001470D01*
X100276036Y-134072211D01*
X100276030Y-134072221D01*
X99636780Y-134711472D01*
X99636780Y-134711471D01*
X99541472Y-134806779D01*
X99529615Y-134830050D01*
X99521500Y-134843292D01*
X99506150Y-134864419D01*
X99498082Y-134889252D01*
X99492138Y-134903602D01*
X99480281Y-134926872D01*
X99476196Y-134952664D01*
X99472570Y-134967765D01*
X99464500Y-134992604D01*
X99464500Y-135665500D01*
X99451237Y-135715000D01*
X99415000Y-135751236D01*
X99365500Y-135764500D01*
X97760137Y-135764500D01*
X97735009Y-135767415D01*
X97632235Y-135812793D01*
X97552793Y-135892235D01*
X97507414Y-135995010D01*
X97504500Y-136020132D01*
X97504500Y-139109862D01*
X97507032Y-139131693D01*
X97507415Y-139134991D01*
X97516754Y-139156142D01*
X97552793Y-139237764D01*
X97552794Y-139237765D01*
X97632235Y-139317206D01*
X97735009Y-139362585D01*
X97760135Y-139365500D01*
X99365500Y-139365499D01*
X99415000Y-139378762D01*
X99451237Y-139414999D01*
X99464500Y-139464499D01*
X99464500Y-140830500D01*
X99451237Y-140880000D01*
X99415000Y-140916237D01*
X99365500Y-140929500D01*
X91082256Y-140929500D01*
X91044370Y-140921964D01*
X91012252Y-140900504D01*
X90192195Y-140080447D01*
X90192194Y-140080446D01*
X90168220Y-140056472D01*
X90144945Y-140044613D01*
X90131703Y-140036497D01*
X90110581Y-140021150D01*
X90085741Y-140013079D01*
X90071390Y-140007135D01*
X90051927Y-139997218D01*
X90048126Y-139995281D01*
X90048125Y-139995280D01*
X90048124Y-139995280D01*
X90022330Y-139991195D01*
X90007229Y-139987570D01*
X89982393Y-139979500D01*
X89982391Y-139979500D01*
X88180514Y-139979500D01*
X88148692Y-139974246D01*
X88120247Y-139959042D01*
X88017841Y-139880464D01*
X87871761Y-139819955D01*
X87715000Y-139799318D01*
X87558238Y-139819955D01*
X87412158Y-139880464D01*
X87286717Y-139976717D01*
X87190464Y-140102158D01*
X87129955Y-140248238D01*
X87109318Y-140405000D01*
X87129955Y-140561761D01*
X87190464Y-140707841D01*
X87286717Y-140833282D01*
X87347602Y-140880000D01*
X87412159Y-140929536D01*
X87558238Y-140990044D01*
X87715000Y-141010682D01*
X87871762Y-140990044D01*
X88017841Y-140929536D01*
X88082398Y-140880000D01*
X88120247Y-140850958D01*
X88148692Y-140835754D01*
X88180514Y-140830500D01*
X89697744Y-140830500D01*
X89735630Y-140838036D01*
X89767748Y-140859496D01*
X90463748Y-141555496D01*
X90490842Y-141606186D01*
X90485208Y-141663386D01*
X90448745Y-141707815D01*
X90393744Y-141724500D01*
X82777662Y-141724500D01*
X82730994Y-141712810D01*
X82695346Y-141680501D01*
X82679139Y-141635203D01*
X82686197Y-141587616D01*
X82730044Y-141481762D01*
X82750682Y-141325000D01*
X82730044Y-141168238D01*
X82669536Y-141022159D01*
X82669535Y-141022157D01*
X82668049Y-141018570D01*
X82655754Y-140995566D01*
X82650500Y-140963745D01*
X82650500Y-139464500D01*
X82663763Y-139415000D01*
X82700000Y-139378764D01*
X82749500Y-139365500D01*
X84309830Y-139365499D01*
X84309864Y-139365499D01*
X84334991Y-139362585D01*
X84437765Y-139317206D01*
X84517206Y-139237765D01*
X84562585Y-139134991D01*
X84565068Y-139113589D01*
X92217000Y-139113589D01*
X92223504Y-139174094D01*
X92274553Y-139310962D01*
X92362096Y-139427903D01*
X92479037Y-139515446D01*
X92615905Y-139566495D01*
X92676411Y-139573000D01*
X93320999Y-139573000D01*
X93321000Y-139572999D01*
X93829000Y-139572999D01*
X93829001Y-139573000D01*
X94473589Y-139573000D01*
X94534094Y-139566495D01*
X94670962Y-139515446D01*
X94787903Y-139427903D01*
X94875446Y-139310962D01*
X94926495Y-139174094D01*
X94933000Y-139113589D01*
X94933000Y-137819001D01*
X94932999Y-137819000D01*
X93829001Y-137819000D01*
X93829000Y-137819001D01*
X93829000Y-139572999D01*
X93321000Y-139572999D01*
X93321000Y-137819001D01*
X93320999Y-137819000D01*
X92217001Y-137819000D01*
X92217000Y-137819001D01*
X92217000Y-139113589D01*
X84565068Y-139113589D01*
X84565500Y-139109865D01*
X84565499Y-137310999D01*
X92217000Y-137310999D01*
X92217001Y-137311000D01*
X93320999Y-137311000D01*
X93321000Y-137310999D01*
X93829000Y-137310999D01*
X93829001Y-137311000D01*
X94932999Y-137311000D01*
X94933000Y-137310999D01*
X94933000Y-136016411D01*
X94926495Y-135955905D01*
X94875446Y-135819037D01*
X94787903Y-135702096D01*
X94670962Y-135614553D01*
X94534094Y-135563504D01*
X94473589Y-135557000D01*
X93829001Y-135557000D01*
X93829000Y-135557001D01*
X93829000Y-137310999D01*
X93321000Y-137310999D01*
X93321000Y-135557001D01*
X93320999Y-135557000D01*
X92676411Y-135557000D01*
X92615905Y-135563504D01*
X92479037Y-135614553D01*
X92362096Y-135702096D01*
X92274553Y-135819037D01*
X92223504Y-135955905D01*
X92217000Y-136016411D01*
X92217000Y-137310999D01*
X84565499Y-137310999D01*
X84565499Y-136020136D01*
X84562585Y-135995009D01*
X84517206Y-135892235D01*
X84437765Y-135812794D01*
X84437764Y-135812793D01*
X84334989Y-135767414D01*
X84309868Y-135764500D01*
X84309865Y-135764500D01*
X82828876Y-135764500D01*
X82782208Y-135752810D01*
X82746561Y-135720501D01*
X82730353Y-135675204D01*
X82737412Y-135627614D01*
X82766467Y-135557469D01*
X82775044Y-135536762D01*
X82795682Y-135380000D01*
X82775044Y-135223238D01*
X82714536Y-135077159D01*
X82668571Y-135017256D01*
X82618282Y-134951717D01*
X82492841Y-134855464D01*
X82346761Y-134794955D01*
X82190000Y-134774318D01*
X82033238Y-134794955D01*
X81887158Y-134855464D01*
X81761717Y-134951717D01*
X81665464Y-135077158D01*
X81604955Y-135223238D01*
X81585042Y-135374500D01*
X81584318Y-135380000D01*
X81588889Y-135414723D01*
X81592886Y-135445078D01*
X81584458Y-135499839D01*
X81547926Y-135541496D01*
X81494733Y-135557000D01*
X81129001Y-135557000D01*
X81129000Y-135557001D01*
X81129000Y-139572999D01*
X81129001Y-139573000D01*
X81570500Y-139573000D01*
X81620000Y-139586263D01*
X81656237Y-139622500D01*
X81669500Y-139672000D01*
X81669500Y-140924648D01*
X81664246Y-140956470D01*
X81649042Y-140984915D01*
X81620464Y-141022157D01*
X81559955Y-141168238D01*
X81539318Y-141325000D01*
X81559955Y-141481761D01*
X81562591Y-141488124D01*
X81603802Y-141587616D01*
X81610861Y-141635203D01*
X81594654Y-141680501D01*
X81559006Y-141712810D01*
X81512338Y-141724500D01*
X69035045Y-141724500D01*
X68335045Y-141724500D01*
X63712421Y-141724500D01*
X63700480Y-141722561D01*
X63676708Y-141724251D01*
X63669691Y-141724500D01*
X63663076Y-141724500D01*
X63657146Y-141727464D01*
X63650772Y-141730373D01*
X63628765Y-141739489D01*
X63618953Y-141746561D01*
X63583983Y-141764047D01*
X63539707Y-141774500D01*
X62925952Y-141774500D01*
X62924746Y-141774493D01*
X62915251Y-141774377D01*
X62906554Y-141777979D01*
X62905445Y-141778430D01*
X62682977Y-141867419D01*
X62646209Y-141874500D01*
X61674500Y-141874500D01*
X61625000Y-141861237D01*
X61588763Y-141825000D01*
X61575500Y-141775500D01*
X61575500Y-139109862D01*
X61944500Y-139109862D01*
X61947032Y-139131693D01*
X61947415Y-139134991D01*
X61956754Y-139156142D01*
X61992793Y-139237764D01*
X61992794Y-139237765D01*
X62072235Y-139317206D01*
X62175009Y-139362585D01*
X62200135Y-139365500D01*
X63989864Y-139365499D01*
X64014991Y-139362585D01*
X64117765Y-139317206D01*
X64197206Y-139237765D01*
X64242585Y-139134991D01*
X64245500Y-139109865D01*
X64245500Y-139109862D01*
X64484500Y-139109862D01*
X64487032Y-139131693D01*
X64487415Y-139134991D01*
X64496754Y-139156142D01*
X64532793Y-139237764D01*
X64532794Y-139237765D01*
X64612235Y-139317206D01*
X64715009Y-139362585D01*
X64740135Y-139365500D01*
X66529864Y-139365499D01*
X66554991Y-139362585D01*
X66657765Y-139317206D01*
X66737206Y-139237765D01*
X66782585Y-139134991D01*
X66785500Y-139109865D01*
X66785500Y-139109862D01*
X69564500Y-139109862D01*
X69567032Y-139131693D01*
X69567415Y-139134991D01*
X69576754Y-139156142D01*
X69612793Y-139237764D01*
X69612794Y-139237765D01*
X69692235Y-139317206D01*
X69795009Y-139362585D01*
X69820135Y-139365500D01*
X71609864Y-139365499D01*
X71634991Y-139362585D01*
X71737765Y-139317206D01*
X71817206Y-139237765D01*
X71862585Y-139134991D01*
X71865500Y-139109865D01*
X71865500Y-139109862D01*
X72104500Y-139109862D01*
X72107032Y-139131693D01*
X72107415Y-139134991D01*
X72116754Y-139156142D01*
X72152793Y-139237764D01*
X72152794Y-139237765D01*
X72232235Y-139317206D01*
X72335009Y-139362585D01*
X72360135Y-139365500D01*
X74020500Y-139365499D01*
X74070000Y-139378762D01*
X74106237Y-139414999D01*
X74119500Y-139464499D01*
X74119500Y-140153638D01*
X74111964Y-140191524D01*
X74079980Y-140268738D01*
X74059343Y-140425499D01*
X74079980Y-140582261D01*
X74140489Y-140728341D01*
X74236742Y-140853782D01*
X74297632Y-140900504D01*
X74362184Y-140950036D01*
X74508263Y-141010544D01*
X74665025Y-141031182D01*
X74821787Y-141010544D01*
X74967866Y-140950036D01*
X75093307Y-140853782D01*
X75189561Y-140728341D01*
X75250069Y-140582262D01*
X75270707Y-140425500D01*
X75250069Y-140268738D01*
X75189561Y-140122659D01*
X75123447Y-140036497D01*
X75093307Y-139997217D01*
X75009233Y-139932706D01*
X74980710Y-139897951D01*
X74970500Y-139854164D01*
X74970500Y-139464500D01*
X74983763Y-139415000D01*
X75020000Y-139378764D01*
X75069500Y-139365500D01*
X76689829Y-139365499D01*
X76689864Y-139365499D01*
X76714991Y-139362585D01*
X76817765Y-139317206D01*
X76897206Y-139237765D01*
X76942585Y-139134991D01*
X76945500Y-139109865D01*
X76945499Y-136020136D01*
X76942585Y-135995009D01*
X76897206Y-135892235D01*
X76817765Y-135812794D01*
X76817764Y-135812793D01*
X76714989Y-135767414D01*
X76689868Y-135764500D01*
X76689865Y-135764500D01*
X75247837Y-135764500D01*
X75194644Y-135748996D01*
X75158112Y-135707339D01*
X75149684Y-135652577D01*
X75150682Y-135645000D01*
X75130044Y-135488238D01*
X75069536Y-135342159D01*
X75018459Y-135275594D01*
X74973282Y-135216717D01*
X74847841Y-135120464D01*
X74701761Y-135059955D01*
X74565636Y-135042034D01*
X74545000Y-135039318D01*
X74544999Y-135039318D01*
X74388238Y-135059955D01*
X74242158Y-135120464D01*
X74116717Y-135216717D01*
X74020464Y-135342158D01*
X73959955Y-135488238D01*
X73939318Y-135645000D01*
X73940316Y-135652582D01*
X73931885Y-135707342D01*
X73895354Y-135748996D01*
X73842162Y-135764500D01*
X72360137Y-135764500D01*
X72335009Y-135767415D01*
X72232235Y-135812793D01*
X72152793Y-135892235D01*
X72107414Y-135995010D01*
X72104500Y-136020132D01*
X72104500Y-139109862D01*
X71865500Y-139109862D01*
X71865499Y-136020136D01*
X71862585Y-135995009D01*
X71817206Y-135892235D01*
X71737765Y-135812794D01*
X71737764Y-135812793D01*
X71634989Y-135767414D01*
X71609867Y-135764500D01*
X69820137Y-135764500D01*
X69795009Y-135767415D01*
X69692235Y-135812793D01*
X69612793Y-135892235D01*
X69567414Y-135995010D01*
X69564500Y-136020132D01*
X69564500Y-139109862D01*
X66785500Y-139109862D01*
X66785499Y-136020136D01*
X66782585Y-135995009D01*
X66737206Y-135892235D01*
X66657765Y-135812794D01*
X66657764Y-135812793D01*
X66554989Y-135767414D01*
X66529867Y-135764500D01*
X64740137Y-135764500D01*
X64715009Y-135767415D01*
X64612235Y-135812793D01*
X64532793Y-135892235D01*
X64487414Y-135995010D01*
X64484500Y-136020132D01*
X64484500Y-139109862D01*
X64245500Y-139109862D01*
X64245499Y-136020136D01*
X64242585Y-135995009D01*
X64197206Y-135892235D01*
X64117765Y-135812794D01*
X64117764Y-135812793D01*
X64014989Y-135767414D01*
X63989867Y-135764500D01*
X62200137Y-135764500D01*
X62175009Y-135767415D01*
X62072235Y-135812793D01*
X61992793Y-135892235D01*
X61947414Y-135995010D01*
X61944500Y-136020132D01*
X61944500Y-139109862D01*
X61575500Y-139109862D01*
X61575500Y-133629500D01*
X69298772Y-133629500D01*
X69319409Y-133786261D01*
X69379918Y-133932341D01*
X69476171Y-134057782D01*
X69548023Y-134112915D01*
X69601613Y-134154036D01*
X69747692Y-134214544D01*
X69904454Y-134235182D01*
X70061216Y-134214544D01*
X70207295Y-134154036D01*
X70332736Y-134057782D01*
X70428990Y-133932341D01*
X70489498Y-133786262D01*
X70510136Y-133629500D01*
X70489498Y-133472738D01*
X70428990Y-133326659D01*
X70386458Y-133271230D01*
X70371254Y-133242785D01*
X70366000Y-133210963D01*
X70366000Y-132710514D01*
X70371121Y-132679500D01*
X71559700Y-132679500D01*
X71578866Y-132910805D01*
X71632501Y-133122603D01*
X71635844Y-133135804D01*
X71729073Y-133348343D01*
X71729076Y-133348349D01*
X71856021Y-133542653D01*
X72013216Y-133713413D01*
X72196374Y-133855970D01*
X72215004Y-133866052D01*
X72237427Y-133878187D01*
X72272812Y-133910537D01*
X72288848Y-133955721D01*
X72281772Y-134003140D01*
X72229955Y-134128236D01*
X72209318Y-134285000D01*
X72229955Y-134441761D01*
X72290464Y-134587841D01*
X72386717Y-134713282D01*
X72451529Y-134763013D01*
X72512159Y-134809536D01*
X72658238Y-134870044D01*
X72815000Y-134890682D01*
X72971762Y-134870044D01*
X73117841Y-134809536D01*
X73186689Y-134756707D01*
X73220247Y-134730958D01*
X73248692Y-134715754D01*
X73280514Y-134710500D01*
X76867744Y-134710500D01*
X76905630Y-134718036D01*
X76937748Y-134739496D01*
X77145504Y-134947252D01*
X77166964Y-134979370D01*
X77174500Y-135017256D01*
X77174500Y-135997393D01*
X77179654Y-136013254D01*
X77184500Y-136043848D01*
X77184500Y-139109862D01*
X77187032Y-139131693D01*
X77187415Y-139134991D01*
X77196754Y-139156142D01*
X77232793Y-139237764D01*
X77232794Y-139237765D01*
X77312235Y-139317206D01*
X77415009Y-139362585D01*
X77440135Y-139365500D01*
X79229864Y-139365499D01*
X79254991Y-139362585D01*
X79357765Y-139317206D01*
X79408429Y-139266542D01*
X79450540Y-139241555D01*
X79499476Y-139239807D01*
X79543263Y-139261725D01*
X79571190Y-139301946D01*
X79574552Y-139310961D01*
X79662096Y-139427903D01*
X79779037Y-139515446D01*
X79915905Y-139566495D01*
X79976411Y-139573000D01*
X80620999Y-139573000D01*
X80621000Y-139572999D01*
X80621000Y-135557001D01*
X80620999Y-135557000D01*
X79976411Y-135557000D01*
X79915905Y-135563504D01*
X79779037Y-135614553D01*
X79662096Y-135702096D01*
X79574552Y-135819038D01*
X79571190Y-135828054D01*
X79543262Y-135868275D01*
X79499475Y-135890192D01*
X79450541Y-135888444D01*
X79408429Y-135863458D01*
X79357764Y-135812793D01*
X79254989Y-135767414D01*
X79229868Y-135764500D01*
X79229865Y-135764500D01*
X78124500Y-135764500D01*
X78075000Y-135751237D01*
X78038763Y-135715000D01*
X78025500Y-135665500D01*
X78025500Y-134732606D01*
X78017431Y-134707774D01*
X78013803Y-134692664D01*
X78013694Y-134691981D01*
X78009719Y-134666874D01*
X78007343Y-134662211D01*
X77997862Y-134643603D01*
X77991916Y-134629247D01*
X77983850Y-134604420D01*
X77968501Y-134583295D01*
X77960384Y-134570050D01*
X77948528Y-134546780D01*
X77948526Y-134546778D01*
X77853220Y-134451471D01*
X77853220Y-134451472D01*
X77362194Y-133960446D01*
X77338220Y-133936472D01*
X77314945Y-133924613D01*
X77301703Y-133916497D01*
X77280581Y-133901150D01*
X77255741Y-133893079D01*
X77241390Y-133887135D01*
X77218124Y-133875280D01*
X77192330Y-133871195D01*
X77177229Y-133867570D01*
X77152393Y-133859500D01*
X77152391Y-133859500D01*
X74007999Y-133859500D01*
X73953851Y-133843380D01*
X73917338Y-133800268D01*
X73910349Y-133744205D01*
X73935162Y-133693449D01*
X73994031Y-133629500D01*
X74073979Y-133542653D01*
X74200924Y-133348349D01*
X74294157Y-133135800D01*
X74351134Y-132910805D01*
X74370300Y-132679500D01*
X74351134Y-132448195D01*
X74294157Y-132223200D01*
X74273271Y-132175586D01*
X74225526Y-132066737D01*
X74200924Y-132010651D01*
X74073979Y-131816347D01*
X73916784Y-131645587D01*
X73733626Y-131503030D01*
X73529503Y-131392564D01*
X73529502Y-131392563D01*
X73529501Y-131392563D01*
X73309981Y-131317202D01*
X73199212Y-131298718D01*
X73081049Y-131279000D01*
X72848951Y-131279000D01*
X72730788Y-131298718D01*
X72620018Y-131317202D01*
X72400498Y-131392563D01*
X72196373Y-131503030D01*
X72013217Y-131645586D01*
X71856021Y-131816346D01*
X71729073Y-132010656D01*
X71635844Y-132223195D01*
X71619619Y-132287267D01*
X71578866Y-132448195D01*
X71559700Y-132679500D01*
X70371121Y-132679500D01*
X70371254Y-132678692D01*
X70386458Y-132650247D01*
X70437894Y-132583213D01*
X70465036Y-132547841D01*
X70525544Y-132401762D01*
X70546182Y-132245000D01*
X70525544Y-132088238D01*
X70465036Y-131942159D01*
X70437228Y-131905919D01*
X70368782Y-131816717D01*
X70243341Y-131720464D01*
X70097261Y-131659955D01*
X69940500Y-131639318D01*
X69783738Y-131659955D01*
X69637658Y-131720464D01*
X69512217Y-131816717D01*
X69415964Y-131942158D01*
X69355455Y-132088238D01*
X69334818Y-132245000D01*
X69355455Y-132401761D01*
X69415964Y-132547841D01*
X69494542Y-132650247D01*
X69509746Y-132678692D01*
X69515000Y-132710514D01*
X69515000Y-133122603D01*
X69504791Y-133166389D01*
X69476268Y-133201144D01*
X69476172Y-133201217D01*
X69379918Y-133326658D01*
X69319409Y-133472738D01*
X69298772Y-133629500D01*
X61575500Y-133629500D01*
X61575500Y-128965000D01*
X71339819Y-128965000D01*
X71360456Y-129121761D01*
X71420965Y-129267841D01*
X71517218Y-129393282D01*
X71580785Y-129442058D01*
X71642660Y-129489536D01*
X71788739Y-129550044D01*
X71945501Y-129570682D01*
X72102263Y-129550044D01*
X72248342Y-129489536D01*
X72311651Y-129440957D01*
X72340095Y-129425754D01*
X72371917Y-129420500D01*
X74859643Y-129420500D01*
X74866589Y-129421600D01*
X74878707Y-129421600D01*
X74912612Y-129421600D01*
X75013493Y-129421600D01*
X75999486Y-129421600D01*
X76031308Y-129426854D01*
X76059753Y-129442058D01*
X76135803Y-129500413D01*
X76162159Y-129520636D01*
X76308238Y-129581144D01*
X76465000Y-129601782D01*
X76621762Y-129581144D01*
X76767841Y-129520636D01*
X76893282Y-129424382D01*
X76989536Y-129298941D01*
X77050044Y-129152862D01*
X77070682Y-128996100D01*
X77050044Y-128839338D01*
X76989536Y-128693259D01*
X76965353Y-128661743D01*
X76893282Y-128567817D01*
X76767841Y-128471564D01*
X76621761Y-128411055D01*
X76465000Y-128390418D01*
X76308238Y-128411055D01*
X76162158Y-128471564D01*
X76059753Y-128550142D01*
X76031308Y-128565346D01*
X75999486Y-128570600D01*
X75031460Y-128570600D01*
X75024516Y-128569500D01*
X75012393Y-128569500D01*
X74978488Y-128569500D01*
X72447759Y-128569500D01*
X72403974Y-128559291D01*
X72384901Y-128543639D01*
X72384124Y-128544653D01*
X72248342Y-128440464D01*
X72102262Y-128379955D01*
X71945501Y-128359318D01*
X71788739Y-128379955D01*
X71642659Y-128440464D01*
X71517218Y-128536717D01*
X71420965Y-128662158D01*
X71360456Y-128808238D01*
X71339819Y-128965000D01*
X61575500Y-128965000D01*
X61575500Y-122529500D01*
X71559700Y-122529500D01*
X71578866Y-122760805D01*
X71603240Y-122857053D01*
X71635844Y-122985804D01*
X71721027Y-123179999D01*
X71729076Y-123198349D01*
X71856021Y-123392653D01*
X72013216Y-123563413D01*
X72196374Y-123705970D01*
X72400497Y-123816436D01*
X72620019Y-123891798D01*
X72848951Y-123930000D01*
X73081047Y-123930000D01*
X73081049Y-123930000D01*
X73309981Y-123891798D01*
X73529503Y-123816436D01*
X73733626Y-123705970D01*
X73916784Y-123563413D01*
X74073979Y-123392653D01*
X74200924Y-123198349D01*
X74294157Y-122985800D01*
X74351134Y-122760805D01*
X74370300Y-122529500D01*
X74351134Y-122298195D01*
X74294157Y-122073200D01*
X74200924Y-121860651D01*
X74073979Y-121666347D01*
X73916784Y-121495587D01*
X73733626Y-121353030D01*
X73529503Y-121242564D01*
X73529502Y-121242563D01*
X73529501Y-121242563D01*
X73309981Y-121167202D01*
X73081049Y-121129000D01*
X72848951Y-121129000D01*
X72696329Y-121154468D01*
X72620018Y-121167202D01*
X72400498Y-121242563D01*
X72196373Y-121353030D01*
X72013217Y-121495586D01*
X71856021Y-121666346D01*
X71796227Y-121757868D01*
X71747036Y-121833162D01*
X71729073Y-121860656D01*
X71635844Y-122073195D01*
X71635843Y-122073200D01*
X71578866Y-122298195D01*
X71559700Y-122529500D01*
X61575500Y-122529500D01*
X61575500Y-120980000D01*
X77990000Y-120980000D01*
X77990000Y-132680000D01*
X86889999Y-132680000D01*
X86890000Y-132680000D01*
X86890000Y-132080000D01*
X86889999Y-132080000D01*
X78489000Y-132080000D01*
X78439500Y-132066737D01*
X78403263Y-132030500D01*
X78390000Y-131981000D01*
X78390000Y-121579000D01*
X78403263Y-121529500D01*
X78439500Y-121493263D01*
X78489000Y-121480000D01*
X82591000Y-121480000D01*
X82640500Y-121493263D01*
X82676737Y-121529500D01*
X82690000Y-121579000D01*
X82690000Y-123180000D01*
X82991000Y-123180000D01*
X83040500Y-123193263D01*
X83076737Y-123229500D01*
X83090000Y-123279000D01*
X83090000Y-125080000D01*
X84989999Y-125080000D01*
X84990000Y-125080000D01*
X84990000Y-123279000D01*
X85003263Y-123229500D01*
X85039500Y-123193263D01*
X85089000Y-123180000D01*
X85889999Y-123180000D01*
X85890000Y-123180000D01*
X85890000Y-121579000D01*
X85903263Y-121529500D01*
X85939500Y-121493263D01*
X85989000Y-121480000D01*
X90691000Y-121480000D01*
X90740500Y-121493263D01*
X90776737Y-121529500D01*
X90790000Y-121579000D01*
X90790000Y-131280000D01*
X91489999Y-131280000D01*
X91490000Y-131280000D01*
X91490000Y-120980000D01*
X77990000Y-120980000D01*
X61575500Y-120980000D01*
X61575500Y-118474500D01*
X61588763Y-118425000D01*
X61625000Y-118388763D01*
X61674500Y-118375500D01*
X61845501Y-118375500D01*
X61895001Y-118388763D01*
X61931238Y-118425000D01*
X61944501Y-118474500D01*
X61944501Y-119529864D01*
X61946836Y-119550000D01*
X61947415Y-119554990D01*
X61992793Y-119657764D01*
X61992794Y-119657765D01*
X62072235Y-119737206D01*
X62175009Y-119782585D01*
X62200135Y-119785500D01*
X63989864Y-119785499D01*
X64014991Y-119782585D01*
X64117765Y-119737206D01*
X64140474Y-119714496D01*
X64172593Y-119693036D01*
X64210479Y-119685500D01*
X64519521Y-119685500D01*
X64557407Y-119693036D01*
X64589525Y-119714496D01*
X64612235Y-119737206D01*
X64715009Y-119782585D01*
X64740135Y-119785500D01*
X66529864Y-119785499D01*
X66554991Y-119782585D01*
X66657765Y-119737206D01*
X66737206Y-119657765D01*
X66782585Y-119554991D01*
X66785500Y-119529865D01*
X66785500Y-119529862D01*
X69564500Y-119529862D01*
X69567415Y-119554990D01*
X69612793Y-119657764D01*
X69612794Y-119657765D01*
X69692235Y-119737206D01*
X69795009Y-119782585D01*
X69820135Y-119785500D01*
X71609864Y-119785499D01*
X71634991Y-119782585D01*
X71737765Y-119737206D01*
X71817206Y-119657765D01*
X71862585Y-119554991D01*
X71865500Y-119529865D01*
X71865500Y-119529862D01*
X72104500Y-119529862D01*
X72107415Y-119554990D01*
X72152793Y-119657764D01*
X72152794Y-119657765D01*
X72232235Y-119737206D01*
X72335009Y-119782585D01*
X72360135Y-119785500D01*
X74149864Y-119785499D01*
X74174991Y-119782585D01*
X74277765Y-119737206D01*
X74357206Y-119657765D01*
X74402585Y-119554991D01*
X74405500Y-119529865D01*
X74405500Y-119529862D01*
X74644500Y-119529862D01*
X74647415Y-119554990D01*
X74692793Y-119657764D01*
X74692794Y-119657765D01*
X74772235Y-119737206D01*
X74875009Y-119782585D01*
X74900135Y-119785500D01*
X76689864Y-119785499D01*
X76714991Y-119782585D01*
X76817765Y-119737206D01*
X76897206Y-119657765D01*
X76942585Y-119554991D01*
X76945500Y-119529865D01*
X76945500Y-119529862D01*
X77184500Y-119529862D01*
X77187415Y-119554990D01*
X77232793Y-119657764D01*
X77232794Y-119657765D01*
X77312235Y-119737206D01*
X77415009Y-119782585D01*
X77440135Y-119785500D01*
X79229864Y-119785499D01*
X79254991Y-119782585D01*
X79357765Y-119737206D01*
X79437206Y-119657765D01*
X79482585Y-119554991D01*
X79485500Y-119529865D01*
X79485500Y-119529862D01*
X82264500Y-119529862D01*
X82267415Y-119554990D01*
X82312793Y-119657764D01*
X82312794Y-119657765D01*
X82392235Y-119737206D01*
X82495009Y-119782585D01*
X82520135Y-119785500D01*
X84309864Y-119785499D01*
X84334991Y-119782585D01*
X84437765Y-119737206D01*
X84517206Y-119657765D01*
X84562585Y-119554991D01*
X84565500Y-119529865D01*
X84565500Y-119529862D01*
X84804500Y-119529862D01*
X84807415Y-119554990D01*
X84852793Y-119657764D01*
X84852794Y-119657765D01*
X84932235Y-119737206D01*
X85035009Y-119782585D01*
X85060135Y-119785500D01*
X86849864Y-119785499D01*
X86874991Y-119782585D01*
X86977765Y-119737206D01*
X87057206Y-119657765D01*
X87102585Y-119554991D01*
X87105500Y-119529865D01*
X87105500Y-119529862D01*
X87344500Y-119529862D01*
X87347415Y-119554990D01*
X87392793Y-119657764D01*
X87392794Y-119657765D01*
X87472235Y-119737206D01*
X87575009Y-119782585D01*
X87600135Y-119785500D01*
X89389864Y-119785499D01*
X89414991Y-119782585D01*
X89517765Y-119737206D01*
X89597206Y-119657765D01*
X89642585Y-119554991D01*
X89645500Y-119529865D01*
X89645500Y-119529862D01*
X89884500Y-119529862D01*
X89887415Y-119554990D01*
X89932793Y-119657764D01*
X89932794Y-119657765D01*
X90012235Y-119737206D01*
X90115009Y-119782585D01*
X90140135Y-119785500D01*
X91929864Y-119785499D01*
X91954991Y-119782585D01*
X92057765Y-119737206D01*
X92108428Y-119686542D01*
X92150540Y-119661555D01*
X92199476Y-119659807D01*
X92243263Y-119681725D01*
X92271190Y-119721946D01*
X92274552Y-119730961D01*
X92362096Y-119847903D01*
X92479037Y-119935446D01*
X92615905Y-119986495D01*
X92676411Y-119993000D01*
X93320999Y-119993000D01*
X93321000Y-119992999D01*
X93829000Y-119992999D01*
X93829001Y-119993000D01*
X94473589Y-119993000D01*
X94534094Y-119986495D01*
X94670962Y-119935446D01*
X94787903Y-119847903D01*
X94875445Y-119730964D01*
X94878807Y-119721950D01*
X94906734Y-119681727D01*
X94950521Y-119659808D01*
X94999457Y-119661555D01*
X95041569Y-119686540D01*
X95092235Y-119737206D01*
X95195009Y-119782585D01*
X95220135Y-119785500D01*
X97009864Y-119785499D01*
X97034991Y-119782585D01*
X97137765Y-119737206D01*
X97217206Y-119657765D01*
X97262585Y-119554991D01*
X97265500Y-119529865D01*
X97265500Y-119529862D01*
X97504500Y-119529862D01*
X97507415Y-119554990D01*
X97552793Y-119657764D01*
X97552794Y-119657765D01*
X97632235Y-119737206D01*
X97735009Y-119782585D01*
X97760135Y-119785500D01*
X99549864Y-119785499D01*
X99574991Y-119782585D01*
X99677765Y-119737206D01*
X99757206Y-119657765D01*
X99802585Y-119554991D01*
X99805500Y-119529865D01*
X99805500Y-119529862D01*
X100044500Y-119529862D01*
X100047415Y-119554990D01*
X100092793Y-119657764D01*
X100092794Y-119657765D01*
X100172235Y-119737206D01*
X100275009Y-119782585D01*
X100300135Y-119785500D01*
X102089864Y-119785499D01*
X102114991Y-119782585D01*
X102217765Y-119737206D01*
X102297206Y-119657765D01*
X102342585Y-119554991D01*
X102345500Y-119529865D01*
X102345500Y-119140999D01*
X103348455Y-119140999D01*
X103348456Y-119141000D01*
X104430999Y-119141000D01*
X104431000Y-119140999D01*
X104431000Y-118060608D01*
X104430999Y-118060607D01*
X104350489Y-118074042D01*
X104137627Y-118147118D01*
X103939698Y-118254233D01*
X103762101Y-118392462D01*
X103609672Y-118558044D01*
X103486581Y-118746448D01*
X103396179Y-118952542D01*
X103348455Y-119140999D01*
X102345500Y-119140999D01*
X102345499Y-117730999D01*
X104917000Y-117730999D01*
X104917001Y-117731000D01*
X106020999Y-117731000D01*
X106021000Y-117730999D01*
X106021000Y-115977001D01*
X106020999Y-115977000D01*
X105376411Y-115977000D01*
X105315905Y-115983504D01*
X105179037Y-116034553D01*
X105062096Y-116122096D01*
X104974553Y-116239037D01*
X104923504Y-116375905D01*
X104917000Y-116436411D01*
X104917000Y-117730999D01*
X102345499Y-117730999D01*
X102345499Y-116440136D01*
X102342585Y-116415009D01*
X102297206Y-116312235D01*
X102217765Y-116232794D01*
X102217764Y-116232793D01*
X102114989Y-116187414D01*
X102089867Y-116184500D01*
X100300137Y-116184500D01*
X100275009Y-116187415D01*
X100172235Y-116232793D01*
X100092793Y-116312235D01*
X100047414Y-116415010D01*
X100044500Y-116440132D01*
X100044500Y-119529862D01*
X99805500Y-119529862D01*
X99805499Y-116440136D01*
X99802585Y-116415009D01*
X99757206Y-116312235D01*
X99677765Y-116232794D01*
X99677764Y-116232793D01*
X99574989Y-116187414D01*
X99549867Y-116184500D01*
X97760137Y-116184500D01*
X97735009Y-116187415D01*
X97632235Y-116232793D01*
X97552793Y-116312235D01*
X97507414Y-116415010D01*
X97504500Y-116440132D01*
X97504500Y-119529862D01*
X97265500Y-119529862D01*
X97265499Y-116440136D01*
X97262585Y-116415009D01*
X97217206Y-116312235D01*
X97137765Y-116232794D01*
X97137764Y-116232793D01*
X97034989Y-116187414D01*
X97009867Y-116184500D01*
X95220137Y-116184500D01*
X95195009Y-116187415D01*
X95092233Y-116232794D01*
X95041569Y-116283458D01*
X94999457Y-116308444D01*
X94950521Y-116310191D01*
X94906734Y-116288273D01*
X94878808Y-116248051D01*
X94875446Y-116239037D01*
X94787903Y-116122096D01*
X94670962Y-116034553D01*
X94534094Y-115983504D01*
X94473589Y-115977000D01*
X93829001Y-115977000D01*
X93829000Y-115977001D01*
X93829000Y-119992999D01*
X93321000Y-119992999D01*
X93321000Y-115977001D01*
X93320999Y-115977000D01*
X92676411Y-115977000D01*
X92615905Y-115983504D01*
X92479037Y-116034553D01*
X92362096Y-116122096D01*
X92274552Y-116239038D01*
X92271190Y-116248054D01*
X92243262Y-116288275D01*
X92199475Y-116310192D01*
X92150541Y-116308444D01*
X92108429Y-116283458D01*
X92057764Y-116232793D01*
X91954989Y-116187414D01*
X91929867Y-116184500D01*
X90140137Y-116184500D01*
X90115009Y-116187415D01*
X90012235Y-116232793D01*
X89932793Y-116312235D01*
X89887414Y-116415010D01*
X89884500Y-116440132D01*
X89884500Y-119529862D01*
X89645500Y-119529862D01*
X89645499Y-116440136D01*
X89642585Y-116415009D01*
X89597206Y-116312235D01*
X89517765Y-116232794D01*
X89517764Y-116232793D01*
X89414989Y-116187414D01*
X89389867Y-116184500D01*
X87600137Y-116184500D01*
X87575009Y-116187415D01*
X87472235Y-116232793D01*
X87392793Y-116312235D01*
X87347414Y-116415010D01*
X87344500Y-116440132D01*
X87344500Y-119529862D01*
X87105500Y-119529862D01*
X87105499Y-116440136D01*
X87102585Y-116415009D01*
X87057206Y-116312235D01*
X86977765Y-116232794D01*
X86977764Y-116232793D01*
X86874989Y-116187414D01*
X86849867Y-116184500D01*
X85060137Y-116184500D01*
X85035009Y-116187415D01*
X84932235Y-116232793D01*
X84852793Y-116312235D01*
X84807414Y-116415010D01*
X84804500Y-116440132D01*
X84804500Y-119529862D01*
X84565500Y-119529862D01*
X84565499Y-116440136D01*
X84562585Y-116415009D01*
X84517206Y-116312235D01*
X84437765Y-116232794D01*
X84437764Y-116232793D01*
X84334989Y-116187414D01*
X84309867Y-116184500D01*
X82520137Y-116184500D01*
X82495009Y-116187415D01*
X82392235Y-116232793D01*
X82312793Y-116312235D01*
X82267414Y-116415010D01*
X82264500Y-116440132D01*
X82264500Y-119529862D01*
X79485500Y-119529862D01*
X79485499Y-116440136D01*
X79482585Y-116415009D01*
X79437206Y-116312235D01*
X79357765Y-116232794D01*
X79357764Y-116232793D01*
X79254989Y-116187414D01*
X79229867Y-116184500D01*
X77440137Y-116184500D01*
X77415009Y-116187415D01*
X77312235Y-116232793D01*
X77232793Y-116312235D01*
X77187414Y-116415010D01*
X77184500Y-116440132D01*
X77184500Y-119529862D01*
X76945500Y-119529862D01*
X76945499Y-116440136D01*
X76942585Y-116415009D01*
X76897206Y-116312235D01*
X76817765Y-116232794D01*
X76817764Y-116232793D01*
X76714989Y-116187414D01*
X76689867Y-116184500D01*
X74900137Y-116184500D01*
X74875009Y-116187415D01*
X74772235Y-116232793D01*
X74692793Y-116312235D01*
X74647414Y-116415010D01*
X74644500Y-116440132D01*
X74644500Y-119529862D01*
X74405500Y-119529862D01*
X74405499Y-116440136D01*
X74402585Y-116415009D01*
X74357206Y-116312235D01*
X74277765Y-116232794D01*
X74277764Y-116232793D01*
X74174989Y-116187414D01*
X74149867Y-116184500D01*
X72360137Y-116184500D01*
X72335009Y-116187415D01*
X72232235Y-116232793D01*
X72152793Y-116312235D01*
X72107414Y-116415010D01*
X72104500Y-116440132D01*
X72104500Y-119529862D01*
X71865500Y-119529862D01*
X71865499Y-116440136D01*
X71862585Y-116415009D01*
X71817206Y-116312235D01*
X71737765Y-116232794D01*
X71737764Y-116232793D01*
X71634989Y-116187414D01*
X71609867Y-116184500D01*
X69820137Y-116184500D01*
X69795009Y-116187415D01*
X69692235Y-116232793D01*
X69612793Y-116312235D01*
X69567414Y-116415010D01*
X69564500Y-116440132D01*
X69564500Y-119529862D01*
X66785500Y-119529862D01*
X66785499Y-116440136D01*
X66782585Y-116415009D01*
X66737206Y-116312235D01*
X66657765Y-116232794D01*
X66657764Y-116232793D01*
X66554989Y-116187414D01*
X66529867Y-116184500D01*
X64740137Y-116184500D01*
X64715009Y-116187415D01*
X64612235Y-116232793D01*
X64532793Y-116312235D01*
X64487414Y-116415010D01*
X64484500Y-116440132D01*
X64484501Y-117985500D01*
X64471238Y-118035000D01*
X64435001Y-118071237D01*
X64385501Y-118084500D01*
X64344500Y-118084500D01*
X64295000Y-118071237D01*
X64258764Y-118035000D01*
X64245500Y-117985500D01*
X64245499Y-116440137D01*
X64245499Y-116440135D01*
X64242585Y-116415009D01*
X64197206Y-116312235D01*
X64117765Y-116232794D01*
X64117764Y-116232793D01*
X64014989Y-116187414D01*
X63989868Y-116184500D01*
X63989865Y-116184500D01*
X63955428Y-116184500D01*
X63902757Y-116169326D01*
X63866232Y-116128454D01*
X63855983Y-116107171D01*
X63817092Y-116026413D01*
X63737977Y-115927206D01*
X63704621Y-115885378D01*
X63626158Y-115822806D01*
X63563587Y-115772908D01*
X63544453Y-115763694D01*
X63504787Y-115729037D01*
X63501806Y-115719862D01*
X80054500Y-115719862D01*
X80057415Y-115744990D01*
X80102793Y-115847764D01*
X80102794Y-115847765D01*
X80182235Y-115927206D01*
X80285009Y-115972585D01*
X80310135Y-115975500D01*
X81989143Y-115975499D01*
X82002065Y-115976346D01*
X82035000Y-115980682D01*
X82067933Y-115976346D01*
X82080856Y-115975499D01*
X82399862Y-115975499D01*
X82399864Y-115975499D01*
X82424991Y-115972585D01*
X82527765Y-115927206D01*
X82607206Y-115847765D01*
X82652585Y-115744991D01*
X82655500Y-115719865D01*
X82655499Y-115552120D01*
X82672476Y-115496685D01*
X82717586Y-115460261D01*
X82775356Y-115455344D01*
X82825972Y-115483619D01*
X82966379Y-115630118D01*
X83158053Y-115771879D01*
X83370926Y-115879207D01*
X83370928Y-115879207D01*
X83370929Y-115879208D01*
X83598875Y-115949016D01*
X83680290Y-115959441D01*
X83835346Y-115979298D01*
X83848795Y-115978726D01*
X83865894Y-115979483D01*
X83875000Y-115980682D01*
X83905066Y-115976722D01*
X83913786Y-115975965D01*
X84073532Y-115969180D01*
X84306581Y-115918954D01*
X84527790Y-115830064D01*
X84730795Y-115705069D01*
X84909755Y-115547564D01*
X85059523Y-115362080D01*
X85175790Y-115153954D01*
X85255211Y-114929171D01*
X85295500Y-114694200D01*
X85295500Y-114634501D01*
X87574500Y-114634501D01*
X87579581Y-114694200D01*
X87589654Y-114812541D01*
X87649725Y-115043249D01*
X87747923Y-115260486D01*
X87835773Y-115390464D01*
X87874500Y-115447764D01*
X87881421Y-115458003D01*
X88046379Y-115630118D01*
X88238053Y-115771879D01*
X88450926Y-115879207D01*
X88450928Y-115879207D01*
X88450929Y-115879208D01*
X88678875Y-115949016D01*
X88760290Y-115959441D01*
X88915346Y-115979298D01*
X88928795Y-115978726D01*
X88945894Y-115979483D01*
X88955000Y-115980682D01*
X88985066Y-115976722D01*
X88993786Y-115975965D01*
X89153532Y-115969180D01*
X89386581Y-115918954D01*
X89607790Y-115830064D01*
X89810795Y-115705069D01*
X89989755Y-115547564D01*
X90139523Y-115362080D01*
X90255790Y-115153954D01*
X90335211Y-114929171D01*
X90375500Y-114694200D01*
X90375500Y-113715503D01*
X90370418Y-113655800D01*
X90365859Y-113602235D01*
X90360346Y-113537459D01*
X90300275Y-113306751D01*
X90202077Y-113089514D01*
X90068579Y-112891997D01*
X89903621Y-112719882D01*
X89711947Y-112578121D01*
X89499074Y-112470793D01*
X89499073Y-112470792D01*
X89499070Y-112470791D01*
X89271124Y-112400983D01*
X89034654Y-112370702D01*
X88990968Y-112372557D01*
X88973848Y-112371799D01*
X88954998Y-112369317D01*
X88905881Y-112375783D01*
X88897164Y-112376541D01*
X88796466Y-112380820D01*
X88563419Y-112431045D01*
X88342207Y-112519937D01*
X88139209Y-112644927D01*
X87960245Y-112802435D01*
X87810474Y-112987923D01*
X87694210Y-113196043D01*
X87614788Y-113420829D01*
X87574500Y-113655800D01*
X87574500Y-114634501D01*
X85295500Y-114634501D01*
X85295500Y-113715503D01*
X85290418Y-113655800D01*
X85285859Y-113602235D01*
X85280346Y-113537459D01*
X85220275Y-113306751D01*
X85122077Y-113089514D01*
X84988579Y-112891997D01*
X84823621Y-112719882D01*
X84631947Y-112578121D01*
X84419074Y-112470793D01*
X84419073Y-112470792D01*
X84419070Y-112470791D01*
X84191124Y-112400983D01*
X84090462Y-112388093D01*
X84065153Y-112381360D01*
X84061762Y-112379955D01*
X83923236Y-112361718D01*
X83905000Y-112359318D01*
X83904999Y-112359318D01*
X83758027Y-112378666D01*
X83749311Y-112379424D01*
X83716467Y-112380820D01*
X83483419Y-112431045D01*
X83262207Y-112519937D01*
X83059209Y-112644927D01*
X82880245Y-112802435D01*
X82855567Y-112832999D01*
X82835585Y-112857747D01*
X82831525Y-112862775D01*
X82781473Y-112895836D01*
X82721518Y-112893926D01*
X82673672Y-112857747D01*
X82655499Y-112800581D01*
X82655499Y-112630138D01*
X82655499Y-112630135D01*
X82652585Y-112605009D01*
X82607206Y-112502235D01*
X82527765Y-112422794D01*
X82527764Y-112422793D01*
X82424989Y-112377414D01*
X82399867Y-112374500D01*
X80310137Y-112374500D01*
X80285009Y-112377415D01*
X80182235Y-112422793D01*
X80102793Y-112502235D01*
X80057414Y-112605010D01*
X80054500Y-112630132D01*
X80054500Y-115719862D01*
X63501806Y-115719862D01*
X63488510Y-115678940D01*
X63500231Y-115627586D01*
X63536633Y-115589513D01*
X63587407Y-115575499D01*
X66189864Y-115575499D01*
X66214991Y-115572585D01*
X66317765Y-115527206D01*
X66397206Y-115447765D01*
X66442585Y-115344991D01*
X66444329Y-115329956D01*
X66445500Y-115319868D01*
X66445500Y-115074500D01*
X66458763Y-115025000D01*
X66495000Y-114988763D01*
X66544500Y-114975500D01*
X68019951Y-114975500D01*
X68019954Y-114975500D01*
X68154255Y-114960368D01*
X68324522Y-114900789D01*
X68477262Y-114804816D01*
X68604816Y-114677262D01*
X68700789Y-114524522D01*
X68760368Y-114354255D01*
X68780565Y-114175000D01*
X68760368Y-113995745D01*
X68700789Y-113825478D01*
X68604816Y-113672738D01*
X68477262Y-113545184D01*
X68324522Y-113449211D01*
X68287059Y-113436102D01*
X68154258Y-113389632D01*
X68087104Y-113382065D01*
X68019954Y-113374500D01*
X64585194Y-113374500D01*
X64404806Y-113374500D01*
X64404804Y-113374500D01*
X64366117Y-113383329D01*
X64355177Y-113385188D01*
X64315746Y-113389631D01*
X64278286Y-113402738D01*
X64267623Y-113405809D01*
X64228940Y-113414638D01*
X64193186Y-113431856D01*
X64182935Y-113436102D01*
X64145479Y-113449209D01*
X64129375Y-113459328D01*
X64076707Y-113474500D01*
X63669142Y-113474500D01*
X62224499Y-113474500D01*
X62175000Y-113461238D01*
X62138763Y-113425001D01*
X62125500Y-113375501D01*
X62125500Y-112932000D01*
X62138763Y-112882500D01*
X62175000Y-112846263D01*
X62224500Y-112833000D01*
X63890999Y-112833000D01*
X63891000Y-112832999D01*
X64399000Y-112832999D01*
X64399001Y-112833000D01*
X66193589Y-112833000D01*
X66254094Y-112826495D01*
X66390962Y-112775446D01*
X66507903Y-112687903D01*
X66595446Y-112570962D01*
X66646495Y-112434094D01*
X66653000Y-112373589D01*
X66653000Y-111879001D01*
X66652999Y-111879000D01*
X64399001Y-111879000D01*
X64399000Y-111879001D01*
X64399000Y-112832999D01*
X63891000Y-112832999D01*
X63891000Y-111370999D01*
X64399000Y-111370999D01*
X64399001Y-111371000D01*
X66652999Y-111371000D01*
X66653000Y-111370999D01*
X66653000Y-110876411D01*
X66646495Y-110815905D01*
X66595446Y-110679037D01*
X66507903Y-110562096D01*
X66390962Y-110474553D01*
X66254094Y-110423504D01*
X66193589Y-110417000D01*
X64399001Y-110417000D01*
X64399000Y-110417001D01*
X64399000Y-111370999D01*
X63891000Y-111370999D01*
X63891000Y-110417001D01*
X63890999Y-110417000D01*
X62096411Y-110417000D01*
X62035905Y-110423504D01*
X61899037Y-110474553D01*
X61782096Y-110562096D01*
X61753753Y-110599958D01*
X61704082Y-110635106D01*
X61643236Y-110634563D01*
X61594200Y-110598533D01*
X61575500Y-110540629D01*
X61575500Y-106563553D01*
X61592091Y-106508692D01*
X61636302Y-106472219D01*
X61693316Y-106466358D01*
X61744024Y-106493073D01*
X61771429Y-106543411D01*
X61793534Y-106649789D01*
X61805198Y-106682607D01*
X61890912Y-106923780D01*
X61965465Y-107067661D01*
X62024689Y-107181958D01*
X62192370Y-107419509D01*
X62390844Y-107632023D01*
X62616403Y-107815528D01*
X62864843Y-107966608D01*
X62864845Y-107966609D01*
X62864847Y-107966610D01*
X63131550Y-108082456D01*
X63411544Y-108160906D01*
X63699612Y-108200500D01*
X63990388Y-108200500D01*
X64278456Y-108160906D01*
X64558450Y-108082456D01*
X64825153Y-107966610D01*
X65073598Y-107815527D01*
X65299157Y-107632022D01*
X65497627Y-107419512D01*
X65665312Y-107181956D01*
X65799088Y-106923780D01*
X65896464Y-106649793D01*
X65914385Y-106563553D01*
X65955624Y-106365100D01*
X65956907Y-106346348D01*
X65975467Y-106075000D01*
X65955624Y-105784901D01*
X65955274Y-105783219D01*
X65896465Y-105500210D01*
X65876566Y-105444220D01*
X65799088Y-105226220D01*
X65665312Y-104968044D01*
X65574929Y-104840000D01*
X65497629Y-104730490D01*
X65347142Y-104569358D01*
X65299157Y-104517978D01*
X65282339Y-104504296D01*
X65073596Y-104334471D01*
X64825156Y-104183391D01*
X64558450Y-104067544D01*
X64278454Y-103989093D01*
X63990388Y-103949500D01*
X63699612Y-103949500D01*
X63411545Y-103989093D01*
X63131549Y-104067544D01*
X62864843Y-104183391D01*
X62616403Y-104334471D01*
X62390844Y-104517976D01*
X62192370Y-104730490D01*
X62024689Y-104968041D01*
X61890912Y-105226220D01*
X61793534Y-105500210D01*
X61771429Y-105606589D01*
X61744024Y-105656927D01*
X61693316Y-105683642D01*
X61636302Y-105677781D01*
X61592091Y-105641308D01*
X61575500Y-105586447D01*
X61575500Y-95133553D01*
X61592091Y-95078692D01*
X61636302Y-95042219D01*
X61693316Y-95036358D01*
X61744024Y-95063073D01*
X61771429Y-95113411D01*
X61793534Y-95219789D01*
X61835222Y-95337086D01*
X61890912Y-95493780D01*
X61982796Y-95671108D01*
X62024689Y-95751958D01*
X62192370Y-95989509D01*
X62390844Y-96202023D01*
X62616403Y-96385528D01*
X62864843Y-96536608D01*
X62864845Y-96536609D01*
X62864847Y-96536610D01*
X63131550Y-96652456D01*
X63411544Y-96730906D01*
X63699612Y-96770500D01*
X63990388Y-96770500D01*
X64278456Y-96730906D01*
X64558450Y-96652456D01*
X64825153Y-96536610D01*
X65073598Y-96385527D01*
X65299157Y-96202022D01*
X65497627Y-95989512D01*
X65665312Y-95751956D01*
X65799088Y-95493780D01*
X65896464Y-95219793D01*
X65902627Y-95190135D01*
X65955624Y-94935100D01*
X65957150Y-94912793D01*
X65975467Y-94645000D01*
X65957406Y-94380959D01*
X65955624Y-94354899D01*
X65896465Y-94070210D01*
X65889460Y-94050500D01*
X65799088Y-93796220D01*
X65665312Y-93538044D01*
X65665310Y-93538041D01*
X65497629Y-93300490D01*
X65299155Y-93087976D01*
X65073596Y-92904471D01*
X64825156Y-92753391D01*
X64558450Y-92637544D01*
X64278454Y-92559093D01*
X63990388Y-92519500D01*
X63699612Y-92519500D01*
X63411545Y-92559093D01*
X63131549Y-92637544D01*
X62864843Y-92753391D01*
X62616403Y-92904471D01*
X62390844Y-93087976D01*
X62192370Y-93300490D01*
X62024689Y-93538041D01*
X61890912Y-93796220D01*
X61793534Y-94070210D01*
X61771429Y-94176589D01*
X61744024Y-94226927D01*
X61693316Y-94253642D01*
X61636302Y-94247781D01*
X61592091Y-94211308D01*
X61575500Y-94156447D01*
X61575500Y-86474500D01*
X61588763Y-86425000D01*
X61625000Y-86388763D01*
X61674500Y-86375500D01*
X61738041Y-86375500D01*
X61755366Y-86377028D01*
X61765433Y-86378817D01*
X61769981Y-86377816D01*
X61783162Y-86376381D01*
X61798737Y-86371482D01*
X61806289Y-86369820D01*
X61806289Y-86369819D01*
X61810031Y-86368996D01*
X61838528Y-86366943D01*
X63140848Y-86462056D01*
G37*
G04 #@! TD.AperFunction*
G04 #@! TA.AperFunction,Conductor*
G36*
X118688386Y-124836187D02*
G01*
X118732816Y-124872650D01*
X118749500Y-124927651D01*
X118749500Y-131346391D01*
X118745241Y-131368645D01*
X118745345Y-131375796D01*
X118753201Y-131394007D01*
X118753762Y-131395335D01*
X118761355Y-131413668D01*
X118761897Y-131414202D01*
X118766978Y-131416221D01*
X118812340Y-131452628D01*
X118829426Y-131508226D01*
X118829426Y-135242001D01*
X118812742Y-135297002D01*
X118768312Y-135333465D01*
X118761350Y-135336348D01*
X118761348Y-135336350D01*
X118758942Y-135342159D01*
X118745547Y-135374500D01*
X118745339Y-135375001D01*
X118745339Y-135383822D01*
X118749500Y-135404738D01*
X118749500Y-138488074D01*
X118741964Y-138525960D01*
X118720504Y-138558078D01*
X115583078Y-141695504D01*
X115550960Y-141716964D01*
X115513074Y-141724500D01*
X102335045Y-141724500D01*
X101685045Y-141724500D01*
X101635045Y-141724500D01*
X100685045Y-141724500D01*
X100340834Y-141724500D01*
X100292461Y-141711877D01*
X100256423Y-141677228D01*
X100241910Y-141629387D01*
X100252624Y-141580555D01*
X100277265Y-141532194D01*
X100299719Y-141488126D01*
X100315500Y-141388488D01*
X100320804Y-141355000D01*
X100317643Y-141335045D01*
X100316719Y-141329208D01*
X100315500Y-141313721D01*
X100315500Y-139464500D01*
X100328763Y-139415000D01*
X100365000Y-139378764D01*
X100414500Y-139365500D01*
X102089828Y-139365499D01*
X102089864Y-139365499D01*
X102114991Y-139362585D01*
X102217765Y-139317206D01*
X102297206Y-139237765D01*
X102342585Y-139134991D01*
X102345500Y-139109865D01*
X102345499Y-136264499D01*
X102358762Y-136215000D01*
X102394999Y-136178763D01*
X102444499Y-136165500D01*
X102485500Y-136165500D01*
X102535000Y-136178763D01*
X102571237Y-136215000D01*
X102584500Y-136264500D01*
X102584500Y-139109862D01*
X102587032Y-139131693D01*
X102587415Y-139134991D01*
X102596754Y-139156142D01*
X102632793Y-139237764D01*
X102632794Y-139237765D01*
X102712235Y-139317206D01*
X102815009Y-139362585D01*
X102840135Y-139365500D01*
X104629864Y-139365499D01*
X104654991Y-139362585D01*
X104757765Y-139317206D01*
X104837206Y-139237765D01*
X104882585Y-139134991D01*
X104885500Y-139109865D01*
X104885500Y-139109862D01*
X107664500Y-139109862D01*
X107667032Y-139131693D01*
X107667415Y-139134991D01*
X107676754Y-139156142D01*
X107712793Y-139237764D01*
X107712794Y-139237765D01*
X107792235Y-139317206D01*
X107895009Y-139362585D01*
X107920135Y-139365500D01*
X108532244Y-139365499D01*
X108570129Y-139373035D01*
X108602247Y-139394495D01*
X108839609Y-139631856D01*
X108839614Y-139631863D01*
X108946278Y-139738526D01*
X108946280Y-139738528D01*
X108969552Y-139750385D01*
X108982791Y-139758498D01*
X108997779Y-139769388D01*
X109003920Y-139773850D01*
X109028747Y-139781916D01*
X109043103Y-139787862D01*
X109065587Y-139799318D01*
X109066374Y-139799719D01*
X109091481Y-139803694D01*
X109092164Y-139803803D01*
X109107274Y-139807431D01*
X109132106Y-139815500D01*
X109132107Y-139815500D01*
X109166012Y-139815500D01*
X109266893Y-139815500D01*
X113694879Y-139815500D01*
X113726701Y-139820754D01*
X113755144Y-139835957D01*
X113838654Y-139900036D01*
X113984733Y-139960544D01*
X114141495Y-139981182D01*
X114298257Y-139960544D01*
X114444336Y-139900036D01*
X114569777Y-139803782D01*
X114666031Y-139678341D01*
X114726539Y-139532262D01*
X114747177Y-139375500D01*
X114726539Y-139218738D01*
X114666031Y-139072659D01*
X114609082Y-138998442D01*
X114590972Y-138959603D01*
X114590972Y-138916748D01*
X114609080Y-138877913D01*
X114677675Y-138788519D01*
X114738183Y-138642440D01*
X114758821Y-138485678D01*
X114738183Y-138328916D01*
X114677675Y-138182837D01*
X114655278Y-138153649D01*
X114581421Y-138057395D01*
X114455980Y-137961142D01*
X114309900Y-137900633D01*
X114153139Y-137879996D01*
X113996377Y-137900633D01*
X113850297Y-137961142D01*
X113724856Y-138057395D01*
X113628602Y-138182837D01*
X113603035Y-138244559D01*
X113581576Y-138276674D01*
X113372749Y-138485503D01*
X113340631Y-138506964D01*
X113302745Y-138514500D01*
X112967256Y-138514500D01*
X112929370Y-138506964D01*
X112897252Y-138485504D01*
X112534495Y-138122747D01*
X112513035Y-138090629D01*
X112505499Y-138052743D01*
X112505499Y-136020138D01*
X112505499Y-136020135D01*
X112502585Y-135995009D01*
X112457206Y-135892235D01*
X112377765Y-135812794D01*
X112377764Y-135812793D01*
X112274989Y-135767414D01*
X112249867Y-135764500D01*
X110460137Y-135764500D01*
X110435009Y-135767415D01*
X110332235Y-135812793D01*
X110252793Y-135892235D01*
X110207414Y-135995010D01*
X110204500Y-136020132D01*
X110204501Y-138865500D01*
X110191238Y-138915000D01*
X110155001Y-138951237D01*
X110105501Y-138964500D01*
X110064500Y-138964500D01*
X110015000Y-138951237D01*
X109978763Y-138915000D01*
X109965500Y-138865500D01*
X109965499Y-136020137D01*
X109965499Y-136020135D01*
X109962585Y-135995009D01*
X109917206Y-135892235D01*
X109837765Y-135812794D01*
X109837764Y-135812793D01*
X109734989Y-135767414D01*
X109709867Y-135764500D01*
X107920137Y-135764500D01*
X107895009Y-135767415D01*
X107792235Y-135812793D01*
X107712793Y-135892235D01*
X107667414Y-135995010D01*
X107664500Y-136020132D01*
X107664500Y-139109862D01*
X104885500Y-139109862D01*
X104885499Y-136157254D01*
X104893035Y-136119369D01*
X104914492Y-136087254D01*
X106184554Y-134817194D01*
X106184553Y-134817194D01*
X106208528Y-134793220D01*
X106208528Y-134793219D01*
X106209860Y-134791888D01*
X106210546Y-134789260D01*
X106220382Y-134769955D01*
X106228496Y-134756713D01*
X106243850Y-134735581D01*
X106251921Y-134710737D01*
X106257868Y-134696382D01*
X106269718Y-134673127D01*
X106269719Y-134673126D01*
X106273804Y-134647328D01*
X106277432Y-134632221D01*
X106278399Y-134629247D01*
X106285500Y-134607393D01*
X106285500Y-134472607D01*
X106285500Y-127939561D01*
X106301555Y-127885514D01*
X106344512Y-127848996D01*
X106400439Y-127841853D01*
X106451196Y-127866399D01*
X106528699Y-127937053D01*
X106660622Y-128018736D01*
X106709981Y-128049298D01*
X106866681Y-128110003D01*
X106908804Y-128126322D01*
X107118388Y-128165500D01*
X107118390Y-128165500D01*
X107331610Y-128165500D01*
X107331612Y-128165500D01*
X107541195Y-128126322D01*
X107541198Y-128126321D01*
X107740019Y-128049298D01*
X107921302Y-127937052D01*
X108078872Y-127793407D01*
X108207366Y-127623255D01*
X108302405Y-127432389D01*
X108360756Y-127227310D01*
X108380429Y-127015000D01*
X108360756Y-126802690D01*
X108305418Y-126608203D01*
X108304819Y-126556227D01*
X108330635Y-126511112D01*
X108414554Y-126427194D01*
X108428479Y-126413269D01*
X108428480Y-126413267D01*
X108438528Y-126403220D01*
X108450381Y-126379955D01*
X108458496Y-126366713D01*
X108473850Y-126345581D01*
X108481921Y-126320737D01*
X108487868Y-126306382D01*
X108499718Y-126283127D01*
X108499719Y-126283126D01*
X108503804Y-126257328D01*
X108507432Y-126242221D01*
X108509261Y-126236595D01*
X108515500Y-126217393D01*
X108515500Y-126097256D01*
X108523036Y-126059370D01*
X108544496Y-126027252D01*
X109117252Y-125454496D01*
X109149370Y-125433036D01*
X109187256Y-125425500D01*
X117903787Y-125425500D01*
X117903789Y-125425500D01*
X117928627Y-125417428D01*
X117943721Y-125413804D01*
X117969522Y-125409719D01*
X117992786Y-125397864D01*
X118007145Y-125391916D01*
X118018782Y-125388135D01*
X118031975Y-125383850D01*
X118031975Y-125383849D01*
X118031977Y-125383849D01*
X118053108Y-125368494D01*
X118066342Y-125360385D01*
X118089616Y-125348528D01*
X118184924Y-125253220D01*
X118184924Y-125253219D01*
X118580496Y-124857647D01*
X118631186Y-124830553D01*
X118688386Y-124836187D01*
G37*
G04 #@! TD.AperFunction*
G04 #@! TA.AperFunction,Conductor*
G36*
X103602453Y-127455329D02*
G01*
X103638957Y-127495373D01*
X103702633Y-127623254D01*
X103831125Y-127793404D01*
X103831127Y-127793406D01*
X103831128Y-127793407D01*
X103892106Y-127848996D01*
X103988699Y-127937053D01*
X104147617Y-128035452D01*
X104181989Y-128071449D01*
X104194500Y-128119623D01*
X104194500Y-133600820D01*
X104186964Y-133638706D01*
X104165504Y-133670824D01*
X103019503Y-134816824D01*
X102968813Y-134843918D01*
X102911613Y-134838284D01*
X102867184Y-134801821D01*
X102850499Y-134746820D01*
X102850499Y-133455138D01*
X102850499Y-133455136D01*
X102847585Y-133430009D01*
X102802206Y-133327235D01*
X102722765Y-133247794D01*
X102722764Y-133247793D01*
X102619989Y-133202414D01*
X102594868Y-133199500D01*
X102594865Y-133199500D01*
X101284180Y-133199500D01*
X101246294Y-133191964D01*
X101214176Y-133170504D01*
X100209496Y-132165824D01*
X100188036Y-132133706D01*
X100180500Y-132095820D01*
X100180500Y-128683180D01*
X100197185Y-128628179D01*
X100241614Y-128591716D01*
X100298814Y-128586082D01*
X100349504Y-128613176D01*
X100574001Y-128837673D01*
X100599818Y-128882791D01*
X100599218Y-128934769D01*
X100564244Y-129057688D01*
X100564243Y-129057690D01*
X100564244Y-129057690D01*
X100544571Y-129270000D01*
X100564244Y-129482310D01*
X100598237Y-129601782D01*
X100622596Y-129687391D01*
X100717634Y-129878256D01*
X100846125Y-130048404D01*
X101003699Y-130192053D01*
X101135622Y-130273736D01*
X101184981Y-130304298D01*
X101341681Y-130365003D01*
X101383804Y-130381322D01*
X101593388Y-130420500D01*
X101593390Y-130420500D01*
X101806610Y-130420500D01*
X101806612Y-130420500D01*
X102016195Y-130381322D01*
X102016198Y-130381321D01*
X102215019Y-130304298D01*
X102396302Y-130192052D01*
X102553872Y-130048407D01*
X102682366Y-129878255D01*
X102777405Y-129687389D01*
X102835756Y-129482310D01*
X102855429Y-129270000D01*
X102835756Y-129057690D01*
X102777405Y-128852611D01*
X102682366Y-128661745D01*
X102682365Y-128661744D01*
X102682365Y-128661743D01*
X102553874Y-128491595D01*
X102497786Y-128440464D01*
X102396302Y-128347948D01*
X102396300Y-128347946D01*
X102215021Y-128235703D01*
X102215019Y-128235702D01*
X102172898Y-128219384D01*
X102016195Y-128158677D01*
X101806612Y-128119500D01*
X101806610Y-128119500D01*
X101593390Y-128119500D01*
X101593388Y-128119500D01*
X101383803Y-128158678D01*
X101370826Y-128163705D01*
X101314632Y-128168256D01*
X101265064Y-128141392D01*
X101008466Y-127884794D01*
X100981508Y-127834776D01*
X100986490Y-127778176D01*
X101021769Y-127733636D01*
X101075726Y-127715828D01*
X101130587Y-127730619D01*
X101135460Y-127733636D01*
X101184981Y-127764298D01*
X101341681Y-127825003D01*
X101383804Y-127841322D01*
X101593388Y-127880500D01*
X101593390Y-127880500D01*
X101806610Y-127880500D01*
X101806612Y-127880500D01*
X102016195Y-127841322D01*
X102016198Y-127841321D01*
X102215019Y-127764298D01*
X102396302Y-127652052D01*
X102553872Y-127508407D01*
X102575446Y-127479837D01*
X102610321Y-127450879D01*
X102654449Y-127440500D01*
X103550336Y-127440500D01*
X103602453Y-127455329D01*
G37*
G04 #@! TD.AperFunction*
G04 #@! TA.AperFunction,Conductor*
G36*
X115634608Y-86640797D02*
G01*
X115921165Y-86821780D01*
X119397561Y-89017398D01*
X119398139Y-89017766D01*
X121579128Y-90423293D01*
X121612420Y-90459119D01*
X121624500Y-90506510D01*
X121624500Y-90889960D01*
X121610360Y-90940949D01*
X121571978Y-90977372D01*
X121520319Y-90988824D01*
X121470140Y-90972035D01*
X121435776Y-90931799D01*
X121338069Y-90722268D01*
X121331965Y-90713551D01*
X121207547Y-90535861D01*
X121046639Y-90374953D01*
X120860234Y-90244432D01*
X120860233Y-90244431D01*
X120860231Y-90244430D01*
X120654000Y-90148262D01*
X120434189Y-90089364D01*
X120207500Y-90069531D01*
X119980810Y-90089364D01*
X119760999Y-90148262D01*
X119554767Y-90244430D01*
X119379634Y-90367059D01*
X119327383Y-90384859D01*
X119273724Y-90371914D01*
X119235337Y-90332249D01*
X119224155Y-90278195D01*
X119236212Y-90124999D01*
X119217391Y-89885857D01*
X119161391Y-89652600D01*
X119069591Y-89430975D01*
X118952237Y-89239472D01*
X118066710Y-90124999D01*
X118916983Y-90975272D01*
X118942605Y-91019652D01*
X118942606Y-91070898D01*
X118921865Y-91148308D01*
X118902031Y-91375000D01*
X118921864Y-91601689D01*
X118980762Y-91821500D01*
X119076930Y-92027731D01*
X119207110Y-92213650D01*
X119207453Y-92214139D01*
X119368361Y-92375047D01*
X119554766Y-92505568D01*
X119554767Y-92505568D01*
X119554768Y-92505569D01*
X119760999Y-92601737D01*
X119761000Y-92601737D01*
X119761004Y-92601739D01*
X119980808Y-92660635D01*
X120207500Y-92680468D01*
X120434192Y-92660635D01*
X120653996Y-92601739D01*
X120860234Y-92505568D01*
X121046639Y-92375047D01*
X121207547Y-92214139D01*
X121338068Y-92027734D01*
X121405448Y-91883238D01*
X121435776Y-91818201D01*
X121470140Y-91777965D01*
X121520319Y-91761176D01*
X121571978Y-91772628D01*
X121610360Y-91809051D01*
X121624500Y-91860040D01*
X121624500Y-92145262D01*
X121620339Y-92166179D01*
X121620339Y-92174999D01*
X121620339Y-92175000D01*
X121624500Y-92185045D01*
X121636349Y-92213651D01*
X121661279Y-92223977D01*
X121705869Y-92260682D01*
X121722390Y-92316026D01*
X121706012Y-95083779D01*
X121692775Y-95132650D01*
X121657106Y-95168585D01*
X121608335Y-95182184D01*
X121559218Y-95169891D01*
X121522602Y-95134920D01*
X121440602Y-95001107D01*
X120277503Y-96164206D01*
X120233122Y-96189829D01*
X120181876Y-96189829D01*
X120137495Y-96164206D01*
X118974396Y-95001107D01*
X118859706Y-95188266D01*
X118768872Y-95407559D01*
X118713459Y-95638367D01*
X118702432Y-95778483D01*
X118686052Y-95825717D01*
X118648682Y-95858925D01*
X118599850Y-95869639D01*
X118552010Y-95855127D01*
X118401519Y-95762906D01*
X118179899Y-95671108D01*
X117946642Y-95615108D01*
X117707500Y-95596287D01*
X117468357Y-95615108D01*
X117235100Y-95671108D01*
X117013480Y-95762906D01*
X116821972Y-95880261D01*
X117707500Y-96765790D01*
X118952237Y-98010526D01*
X119069591Y-97819024D01*
X119161391Y-97597399D01*
X119217391Y-97364142D01*
X119229287Y-97212996D01*
X119245667Y-97165762D01*
X119283037Y-97132554D01*
X119331869Y-97121840D01*
X119379710Y-97136353D01*
X119520765Y-97222792D01*
X119740059Y-97313627D01*
X119970868Y-97369040D01*
X120207499Y-97387662D01*
X120380442Y-97374052D01*
X120430883Y-97383416D01*
X120469864Y-97416770D01*
X120486917Y-97465155D01*
X120477464Y-97515579D01*
X120444041Y-97554501D01*
X119609313Y-98124559D01*
X119591372Y-98134267D01*
X119586349Y-98136347D01*
X119586347Y-98136349D01*
X119583683Y-98142782D01*
X119575093Y-98159050D01*
X119571285Y-98164876D01*
X119571284Y-98164881D01*
X119572397Y-98170194D01*
X119574500Y-98190490D01*
X119574500Y-100183745D01*
X119557815Y-100238746D01*
X119513386Y-100275209D01*
X119456186Y-100280843D01*
X119405496Y-100253749D01*
X117942617Y-98790869D01*
X117916829Y-98745862D01*
X117917338Y-98693992D01*
X117944005Y-98649500D01*
X117989510Y-98624600D01*
X118179899Y-98578891D01*
X118401524Y-98487091D01*
X118593026Y-98369737D01*
X117707500Y-97484210D01*
X116462761Y-96239472D01*
X116345407Y-96430978D01*
X116340964Y-96441707D01*
X116307690Y-96483913D01*
X116257267Y-96502515D01*
X116204555Y-96492029D01*
X116165089Y-96455547D01*
X116150500Y-96403820D01*
X116150500Y-94641896D01*
X119333607Y-94641896D01*
X120207499Y-95515788D01*
X121081391Y-94641896D01*
X120894238Y-94527208D01*
X120674940Y-94436372D01*
X120444131Y-94380959D01*
X120207500Y-94362337D01*
X119970868Y-94380959D01*
X119740059Y-94436372D01*
X119520766Y-94527206D01*
X119333607Y-94641896D01*
X116150500Y-94641896D01*
X116150500Y-94346053D01*
X116166004Y-94292860D01*
X116207661Y-94256329D01*
X116262422Y-94247900D01*
X116275444Y-94249614D01*
X116375228Y-94262751D01*
X116531990Y-94242113D01*
X116678069Y-94181605D01*
X116770373Y-94110778D01*
X116813851Y-94077417D01*
X116814267Y-94077960D01*
X116835287Y-94060710D01*
X116879074Y-94050500D01*
X116991512Y-94050500D01*
X117058488Y-94050500D01*
X118934486Y-94050500D01*
X118966308Y-94055754D01*
X118994753Y-94070958D01*
X119043930Y-94108692D01*
X119097159Y-94149536D01*
X119243238Y-94210044D01*
X119400000Y-94230682D01*
X119556762Y-94210044D01*
X119702841Y-94149536D01*
X119828282Y-94053282D01*
X119924536Y-93927841D01*
X119985044Y-93781762D01*
X120005682Y-93625000D01*
X119985044Y-93468238D01*
X119924536Y-93322159D01*
X119876317Y-93259318D01*
X119828282Y-93196717D01*
X119702841Y-93100464D01*
X119556761Y-93039955D01*
X119400000Y-93019318D01*
X119243238Y-93039955D01*
X119097158Y-93100464D01*
X118994753Y-93179042D01*
X118966308Y-93194246D01*
X118934486Y-93199500D01*
X117058488Y-93199500D01*
X116798948Y-93199500D01*
X116767126Y-93194246D01*
X116738681Y-93179042D01*
X116678069Y-93132533D01*
X116531989Y-93072024D01*
X116395864Y-93054103D01*
X116375228Y-93051387D01*
X116375227Y-93051387D01*
X116262422Y-93066238D01*
X116207661Y-93057809D01*
X116166004Y-93021278D01*
X116150500Y-92968085D01*
X116150500Y-91369737D01*
X116821972Y-91369737D01*
X117013475Y-91487091D01*
X117235100Y-91578891D01*
X117468357Y-91634891D01*
X117707500Y-91653712D01*
X117946642Y-91634891D01*
X118179899Y-91578891D01*
X118401524Y-91487091D01*
X118593026Y-91369737D01*
X117707499Y-90484210D01*
X116821972Y-91369737D01*
X116150500Y-91369737D01*
X116150500Y-90846180D01*
X116165089Y-90794453D01*
X116204555Y-90757971D01*
X116257267Y-90747485D01*
X116307690Y-90766087D01*
X116340964Y-90808293D01*
X116345409Y-90819026D01*
X116462761Y-91010526D01*
X117348288Y-90124999D01*
X116462761Y-89239472D01*
X116345406Y-89430980D01*
X116253606Y-89652604D01*
X116246618Y-89681712D01*
X116221717Y-89727216D01*
X116177225Y-89753882D01*
X116125356Y-89754391D01*
X116080350Y-89728602D01*
X115978220Y-89626471D01*
X115978220Y-89626472D01*
X115232009Y-88880261D01*
X116821972Y-88880261D01*
X117707499Y-89765788D01*
X118593026Y-88880261D01*
X118401524Y-88762908D01*
X118179899Y-88671108D01*
X117946642Y-88615108D01*
X117707500Y-88596287D01*
X117468357Y-88615108D01*
X117235100Y-88671108D01*
X117013480Y-88762906D01*
X116821972Y-88880261D01*
X115232009Y-88880261D01*
X113146252Y-86794504D01*
X113119158Y-86743814D01*
X113124792Y-86686614D01*
X113161255Y-86642185D01*
X113216256Y-86625500D01*
X115581743Y-86625500D01*
X115634608Y-86640797D01*
G37*
G04 #@! TD.AperFunction*
G04 #@! TA.AperFunction,Conductor*
G36*
X125370329Y-77063702D02*
G01*
X125404549Y-77099677D01*
X125417000Y-77147742D01*
X125417000Y-80145999D01*
X125417001Y-80146000D01*
X128932999Y-80146000D01*
X128933000Y-80145999D01*
X128933000Y-78549500D01*
X128946263Y-78500000D01*
X128982500Y-78463763D01*
X129032000Y-78450500D01*
X129825500Y-78450500D01*
X129875000Y-78463763D01*
X129911237Y-78500000D01*
X129924500Y-78549500D01*
X129924500Y-82250500D01*
X129911237Y-82300000D01*
X129875000Y-82336237D01*
X129825500Y-82349500D01*
X129032000Y-82349500D01*
X128982500Y-82336237D01*
X128946263Y-82300000D01*
X128933000Y-82250500D01*
X128933000Y-80654001D01*
X128932999Y-80654000D01*
X125417001Y-80654000D01*
X125417000Y-80654001D01*
X125417000Y-83652257D01*
X125404549Y-83700322D01*
X125370329Y-83736297D01*
X125322946Y-83751133D01*
X125274319Y-83741099D01*
X124444587Y-83333148D01*
X123605817Y-82920752D01*
X123565460Y-82884241D01*
X123550500Y-82831912D01*
X123550500Y-82429738D01*
X123554661Y-82408822D01*
X123554661Y-82400001D01*
X123553166Y-82396393D01*
X123538651Y-82361349D01*
X123510045Y-82349500D01*
X123499999Y-82345339D01*
X123491179Y-82345339D01*
X123470262Y-82349500D01*
X122199500Y-82349500D01*
X122150000Y-82336237D01*
X122113763Y-82300000D01*
X122100500Y-82250500D01*
X122100499Y-78549500D01*
X122113762Y-78500000D01*
X122149999Y-78463763D01*
X122199499Y-78450500D01*
X123470262Y-78450500D01*
X123491178Y-78454661D01*
X123499999Y-78454661D01*
X123499999Y-78454660D01*
X123500000Y-78454661D01*
X123538651Y-78438651D01*
X123550500Y-78410045D01*
X123554661Y-78400000D01*
X123554661Y-78399999D01*
X123554661Y-78391179D01*
X123550500Y-78370262D01*
X123550500Y-77968088D01*
X123565460Y-77915759D01*
X123605817Y-77879247D01*
X125274318Y-77058900D01*
X125322946Y-77048866D01*
X125370329Y-77063702D01*
G37*
G04 #@! TD.AperFunction*
G04 #@! TA.AperFunction,Conductor*
G36*
X61630423Y-80862690D02*
G01*
X61625000Y-80861237D01*
X61588763Y-80825000D01*
X61575500Y-80775500D01*
X61575500Y-71774013D01*
X61630423Y-80862690D01*
G37*
G04 #@! TD.AperFunction*
G04 #@! TA.AperFunction,Conductor*
G36*
X160800960Y-42083036D02*
G01*
X160833078Y-42104496D01*
X161345504Y-42616922D01*
X161366964Y-42649040D01*
X161374500Y-42686926D01*
X161374500Y-71063074D01*
X161366964Y-71100960D01*
X161345504Y-71133078D01*
X160933078Y-71545504D01*
X160900960Y-71566964D01*
X160863074Y-71574500D01*
X159786926Y-71574500D01*
X159749040Y-71566964D01*
X159716922Y-71545504D01*
X158281735Y-70110317D01*
X158269890Y-70092588D01*
X158263652Y-70086349D01*
X158259491Y-70084625D01*
X158253606Y-70082188D01*
X158253605Y-70082187D01*
X158253603Y-70082186D01*
X158225001Y-70070339D01*
X158216178Y-70070339D01*
X158195262Y-70074500D01*
X156754738Y-70074500D01*
X156733822Y-70070339D01*
X156725000Y-70070339D01*
X156714955Y-70074500D01*
X156714588Y-70074652D01*
X156714580Y-70074653D01*
X156686350Y-70086348D01*
X156680111Y-70092587D01*
X156668266Y-70110314D01*
X155233078Y-71545504D01*
X155200960Y-71566964D01*
X155163074Y-71574500D01*
X155035045Y-71574500D01*
X128529738Y-71574500D01*
X128508821Y-71570339D01*
X128492486Y-71570339D01*
X128469055Y-71575000D01*
X126530945Y-71575000D01*
X126507514Y-71570339D01*
X126491179Y-71570339D01*
X126470262Y-71574500D01*
X108186926Y-71574500D01*
X108149040Y-71566964D01*
X108116922Y-71545504D01*
X106681735Y-70110317D01*
X106669890Y-70092588D01*
X106663652Y-70086349D01*
X106659491Y-70084625D01*
X106653606Y-70082188D01*
X106653605Y-70082187D01*
X106653603Y-70082186D01*
X106625001Y-70070339D01*
X106616178Y-70070339D01*
X106595262Y-70074500D01*
X105154738Y-70074500D01*
X105133822Y-70070339D01*
X105125000Y-70070339D01*
X105114955Y-70074500D01*
X105114588Y-70074652D01*
X105114580Y-70074653D01*
X105086350Y-70086348D01*
X105080111Y-70092587D01*
X105068266Y-70110314D01*
X103633078Y-71545504D01*
X103600960Y-71566964D01*
X103563074Y-71574500D01*
X102486926Y-71574500D01*
X102449040Y-71566964D01*
X102416922Y-71545504D01*
X102004496Y-71133078D01*
X101983036Y-71100960D01*
X101975500Y-71063074D01*
X101975500Y-66625000D01*
X103369457Y-66625000D01*
X103389608Y-66945299D01*
X103449742Y-67260531D01*
X103449743Y-67260535D01*
X103449744Y-67260538D01*
X103548916Y-67565758D01*
X103685561Y-67856142D01*
X103857522Y-68127110D01*
X104062089Y-68374390D01*
X104296036Y-68594080D01*
X104555672Y-68782716D01*
X104555675Y-68782718D01*
X104836901Y-68937323D01*
X104836903Y-68937324D01*
X105135294Y-69055466D01*
X105446139Y-69135277D01*
X105446143Y-69135278D01*
X105764533Y-69175500D01*
X105764536Y-69175500D01*
X106085464Y-69175500D01*
X106085467Y-69175500D01*
X106403856Y-69135278D01*
X106403858Y-69135277D01*
X106403861Y-69135277D01*
X106714706Y-69055466D01*
X107013097Y-68937324D01*
X107294328Y-68782716D01*
X107553964Y-68594080D01*
X107787911Y-68374390D01*
X107992478Y-68127110D01*
X108164439Y-67856142D01*
X108301084Y-67565758D01*
X108400256Y-67260538D01*
X108460392Y-66945294D01*
X108480543Y-66625000D01*
X154869457Y-66625000D01*
X154889608Y-66945299D01*
X154949742Y-67260531D01*
X154949743Y-67260535D01*
X154949744Y-67260538D01*
X155048916Y-67565758D01*
X155185561Y-67856142D01*
X155357522Y-68127110D01*
X155562089Y-68374390D01*
X155796036Y-68594080D01*
X156055672Y-68782716D01*
X156055675Y-68782718D01*
X156336901Y-68937323D01*
X156336903Y-68937324D01*
X156635294Y-69055466D01*
X156946139Y-69135277D01*
X156946143Y-69135278D01*
X157264533Y-69175500D01*
X157264536Y-69175500D01*
X157585464Y-69175500D01*
X157585467Y-69175500D01*
X157903856Y-69135278D01*
X157903858Y-69135277D01*
X157903861Y-69135277D01*
X158214706Y-69055466D01*
X158513097Y-68937324D01*
X158794328Y-68782716D01*
X159053964Y-68594080D01*
X159287911Y-68374390D01*
X159492478Y-68127110D01*
X159664439Y-67856142D01*
X159801084Y-67565758D01*
X159900256Y-67260538D01*
X159960392Y-66945294D01*
X159980543Y-66625000D01*
X159960392Y-66304706D01*
X159900256Y-65989462D01*
X159801084Y-65684242D01*
X159664439Y-65393858D01*
X159492478Y-65122890D01*
X159287911Y-64875610D01*
X159053964Y-64655920D01*
X158794328Y-64467284D01*
X158794324Y-64467281D01*
X158513098Y-64312676D01*
X158214707Y-64194534D01*
X157903856Y-64114721D01*
X157585467Y-64074500D01*
X157585464Y-64074500D01*
X157264536Y-64074500D01*
X157264533Y-64074500D01*
X156946143Y-64114721D01*
X156635292Y-64194534D01*
X156336901Y-64312676D01*
X156055675Y-64467281D01*
X155796033Y-64655922D01*
X155562089Y-64875609D01*
X155357524Y-65122887D01*
X155185559Y-65393861D01*
X155048917Y-65684239D01*
X154949742Y-65989468D01*
X154889608Y-66304700D01*
X154869457Y-66625000D01*
X108480543Y-66625000D01*
X108460392Y-66304706D01*
X108400256Y-65989462D01*
X108301084Y-65684242D01*
X108249678Y-65574999D01*
X128420339Y-65574999D01*
X128424500Y-65585044D01*
X128424500Y-65585045D01*
X128435730Y-65612158D01*
X128436349Y-65613651D01*
X128475000Y-65629661D01*
X128475000Y-65629660D01*
X128475001Y-65629661D01*
X128483822Y-65629661D01*
X128504738Y-65625500D01*
X135995262Y-65625500D01*
X136016178Y-65629661D01*
X136024999Y-65629661D01*
X136024999Y-65629660D01*
X136025000Y-65629661D01*
X136036252Y-65625000D01*
X139420339Y-65625000D01*
X139427226Y-65641627D01*
X139436348Y-65663650D01*
X139436349Y-65663651D01*
X139475000Y-65679661D01*
X139475000Y-65679660D01*
X139475001Y-65679661D01*
X139483822Y-65679661D01*
X139504738Y-65675500D01*
X151445262Y-65675500D01*
X151466178Y-65679661D01*
X151474999Y-65679661D01*
X151474999Y-65679660D01*
X151475000Y-65679661D01*
X151513651Y-65663651D01*
X151522774Y-65641627D01*
X151529661Y-65625000D01*
X151529661Y-65616178D01*
X151525500Y-65595262D01*
X151525500Y-63704738D01*
X151529661Y-63683822D01*
X151529661Y-63675001D01*
X151525104Y-63664000D01*
X151513651Y-63636349D01*
X151485045Y-63624500D01*
X151474999Y-63620339D01*
X151466179Y-63620339D01*
X151445262Y-63624500D01*
X139504738Y-63624500D01*
X139483821Y-63620339D01*
X139475001Y-63620339D01*
X139475000Y-63620339D01*
X139464955Y-63624500D01*
X139464954Y-63624500D01*
X139436350Y-63636348D01*
X139436348Y-63636350D01*
X139426970Y-63658991D01*
X139424896Y-63664000D01*
X139420339Y-63675001D01*
X139420339Y-63683822D01*
X139424500Y-63704738D01*
X139424500Y-65595262D01*
X139420339Y-65616178D01*
X139420339Y-65625000D01*
X136036252Y-65625000D01*
X136063651Y-65613651D01*
X136075500Y-65585045D01*
X136079661Y-65575000D01*
X136079661Y-65574999D01*
X136079661Y-65566179D01*
X136075500Y-65545262D01*
X136075500Y-60324999D01*
X140420339Y-60324999D01*
X140424500Y-60335044D01*
X140424500Y-60335046D01*
X140436348Y-60363650D01*
X140442588Y-60369890D01*
X140460317Y-60381735D01*
X141918265Y-61839683D01*
X141930113Y-61857416D01*
X141936346Y-61863648D01*
X141936348Y-61863648D01*
X141936349Y-61863651D01*
X141946393Y-61867811D01*
X141946394Y-61867812D01*
X141975000Y-61879661D01*
X141975001Y-61879660D01*
X141975002Y-61879661D01*
X141983822Y-61879661D01*
X142004738Y-61875500D01*
X148945262Y-61875500D01*
X148966178Y-61879661D01*
X148975000Y-61879661D01*
X148975001Y-61879661D01*
X149012530Y-61864116D01*
X149012536Y-61864113D01*
X149012942Y-61863944D01*
X149013651Y-61863651D01*
X149013651Y-61863649D01*
X149019891Y-61857410D01*
X149031734Y-61839682D01*
X150489682Y-60381734D01*
X150507411Y-60369890D01*
X150513649Y-60363651D01*
X150513651Y-60363651D01*
X150525500Y-60335045D01*
X150529661Y-60325000D01*
X150529661Y-60324999D01*
X150529661Y-60316179D01*
X150525500Y-60295262D01*
X150525500Y-58304738D01*
X150529661Y-58283822D01*
X150529661Y-58275000D01*
X150525345Y-58264580D01*
X150517812Y-58246394D01*
X150517811Y-58246393D01*
X150513651Y-58236349D01*
X150513650Y-58236348D01*
X150507416Y-58230113D01*
X150489683Y-58218265D01*
X149781735Y-57510317D01*
X149769890Y-57492588D01*
X149763652Y-57486349D01*
X149759490Y-57484625D01*
X149753606Y-57482188D01*
X149753605Y-57482187D01*
X149753603Y-57482186D01*
X149725001Y-57470339D01*
X149716178Y-57470339D01*
X149695262Y-57474500D01*
X141254738Y-57474500D01*
X141233822Y-57470339D01*
X141225000Y-57470339D01*
X141214955Y-57474500D01*
X141214588Y-57474652D01*
X141214580Y-57474653D01*
X141186350Y-57486348D01*
X141180111Y-57492587D01*
X141168266Y-57510314D01*
X140460314Y-58218266D01*
X140442587Y-58230111D01*
X140436348Y-58236350D01*
X140424653Y-58264580D01*
X140424652Y-58264588D01*
X140420339Y-58275000D01*
X140420339Y-58283822D01*
X140424500Y-58304738D01*
X140424500Y-60295262D01*
X140420339Y-60316179D01*
X140420339Y-60324999D01*
X136075500Y-60324999D01*
X136075500Y-58104738D01*
X136079661Y-58083822D01*
X136079661Y-58075001D01*
X136063651Y-58036350D01*
X136063651Y-58036349D01*
X136035045Y-58024500D01*
X136024999Y-58020339D01*
X136016179Y-58020339D01*
X135995262Y-58024500D01*
X128504738Y-58024500D01*
X128483821Y-58020339D01*
X128475001Y-58020339D01*
X128475000Y-58020339D01*
X128464955Y-58024500D01*
X128464954Y-58024500D01*
X128436350Y-58036348D01*
X128436348Y-58036350D01*
X128420339Y-58075001D01*
X128420339Y-58083822D01*
X128424500Y-58104738D01*
X128424500Y-65545262D01*
X128420339Y-65566179D01*
X128420339Y-65574999D01*
X108249678Y-65574999D01*
X108164439Y-65393858D01*
X107992478Y-65122890D01*
X107787911Y-64875610D01*
X107553964Y-64655920D01*
X107294328Y-64467284D01*
X107294324Y-64467281D01*
X107013098Y-64312676D01*
X106714707Y-64194534D01*
X106403856Y-64114721D01*
X106085467Y-64074500D01*
X106085464Y-64074500D01*
X105764536Y-64074500D01*
X105764533Y-64074500D01*
X105446143Y-64114721D01*
X105135292Y-64194534D01*
X104836901Y-64312676D01*
X104555675Y-64467281D01*
X104296033Y-64655922D01*
X104062089Y-64875609D01*
X103857524Y-65122887D01*
X103685559Y-65393861D01*
X103548917Y-65684239D01*
X103449742Y-65989468D01*
X103389608Y-66304700D01*
X103369457Y-66625000D01*
X101975500Y-66625000D01*
X101975500Y-61525000D01*
X109470339Y-61525000D01*
X109474500Y-61535045D01*
X109486349Y-61563651D01*
X109525000Y-61579661D01*
X109525000Y-61579660D01*
X109525001Y-61579661D01*
X109533822Y-61579661D01*
X109554738Y-61575500D01*
X126095262Y-61575500D01*
X126116178Y-61579661D01*
X126124999Y-61579661D01*
X126124999Y-61579660D01*
X126125000Y-61579661D01*
X126163651Y-61563651D01*
X126175500Y-61535045D01*
X126179661Y-61525000D01*
X126179661Y-61524999D01*
X126179661Y-61516179D01*
X126175500Y-61495262D01*
X126175500Y-48954738D01*
X126179661Y-48933822D01*
X126179661Y-48925001D01*
X126163651Y-48886350D01*
X126163651Y-48886349D01*
X126135045Y-48874500D01*
X126124999Y-48870339D01*
X126116179Y-48870339D01*
X126095262Y-48874500D01*
X109554738Y-48874500D01*
X109533821Y-48870339D01*
X109525001Y-48870339D01*
X109525000Y-48870339D01*
X109514955Y-48874500D01*
X109514954Y-48874500D01*
X109486350Y-48886348D01*
X109486348Y-48886350D01*
X109470339Y-48925001D01*
X109470339Y-48933822D01*
X109474500Y-48954738D01*
X109474500Y-61495262D01*
X109470339Y-61516179D01*
X109470339Y-61524999D01*
X109470339Y-61525000D01*
X101975500Y-61525000D01*
X101975500Y-45125000D01*
X103469655Y-45125000D01*
X103489016Y-45432742D01*
X103546792Y-45735612D01*
X103546793Y-45735616D01*
X103546794Y-45735619D01*
X103639535Y-46021047D01*
X103642079Y-46028875D01*
X103769543Y-46299750D01*
X103773365Y-46307871D01*
X103938584Y-46568216D01*
X103990469Y-46630934D01*
X104135131Y-46805799D01*
X104359901Y-47016874D01*
X104609363Y-47198118D01*
X104879563Y-47346662D01*
X104879565Y-47346663D01*
X105166257Y-47460172D01*
X105464914Y-47536854D01*
X105464918Y-47536855D01*
X105770825Y-47575500D01*
X105770828Y-47575500D01*
X106079172Y-47575500D01*
X106079175Y-47575500D01*
X106385081Y-47536855D01*
X106385083Y-47536854D01*
X106385086Y-47536854D01*
X106683743Y-47460172D01*
X106970435Y-47346663D01*
X107240640Y-47198116D01*
X107490096Y-47016876D01*
X107714869Y-46805799D01*
X107911416Y-46568216D01*
X108076635Y-46307871D01*
X108207922Y-46028873D01*
X108303206Y-45735619D01*
X108360984Y-45432736D01*
X108380345Y-45125000D01*
X108380345Y-45124999D01*
X154969655Y-45124999D01*
X154989016Y-45432742D01*
X155046792Y-45735612D01*
X155046793Y-45735616D01*
X155046794Y-45735619D01*
X155139535Y-46021047D01*
X155142079Y-46028875D01*
X155269543Y-46299750D01*
X155273365Y-46307871D01*
X155438584Y-46568216D01*
X155490469Y-46630934D01*
X155635131Y-46805799D01*
X155859901Y-47016874D01*
X156109363Y-47198118D01*
X156379563Y-47346662D01*
X156379565Y-47346663D01*
X156666257Y-47460172D01*
X156964914Y-47536854D01*
X156964918Y-47536855D01*
X157270825Y-47575500D01*
X157270828Y-47575500D01*
X157579172Y-47575500D01*
X157579175Y-47575500D01*
X157885081Y-47536855D01*
X157885083Y-47536854D01*
X157885086Y-47536854D01*
X158183743Y-47460172D01*
X158470435Y-47346663D01*
X158740640Y-47198116D01*
X158990096Y-47016876D01*
X159214869Y-46805799D01*
X159411416Y-46568216D01*
X159576635Y-46307871D01*
X159707922Y-46028873D01*
X159803206Y-45735619D01*
X159860984Y-45432736D01*
X159880345Y-45125000D01*
X159860984Y-44817264D01*
X159803206Y-44514381D01*
X159707922Y-44221127D01*
X159576635Y-43942129D01*
X159411416Y-43681784D01*
X159214869Y-43444201D01*
X159214868Y-43444200D01*
X158990098Y-43233125D01*
X158740636Y-43051881D01*
X158470436Y-42903337D01*
X158183744Y-42789828D01*
X157885081Y-42713144D01*
X157579175Y-42674500D01*
X157579172Y-42674500D01*
X157270828Y-42674500D01*
X157270825Y-42674500D01*
X156964918Y-42713144D01*
X156666255Y-42789828D01*
X156379563Y-42903337D01*
X156109363Y-43051881D01*
X155859901Y-43233125D01*
X155635131Y-43444200D01*
X155438586Y-43681781D01*
X155273363Y-43942132D01*
X155142079Y-44221124D01*
X155046792Y-44514387D01*
X154989016Y-44817257D01*
X154969655Y-45124999D01*
X108380345Y-45124999D01*
X108360984Y-44817264D01*
X108303206Y-44514381D01*
X108207922Y-44221127D01*
X108076635Y-43942129D01*
X107911416Y-43681784D01*
X107714869Y-43444201D01*
X107714868Y-43444200D01*
X107490098Y-43233125D01*
X107240636Y-43051881D01*
X106970436Y-42903337D01*
X106683744Y-42789828D01*
X106385081Y-42713144D01*
X106079175Y-42674500D01*
X106079172Y-42674500D01*
X105770828Y-42674500D01*
X105770825Y-42674500D01*
X105464918Y-42713144D01*
X105166255Y-42789828D01*
X104879563Y-42903337D01*
X104609363Y-43051881D01*
X104359901Y-43233125D01*
X104135131Y-43444200D01*
X103938586Y-43681781D01*
X103773363Y-43942132D01*
X103642079Y-44221124D01*
X103546792Y-44514387D01*
X103489016Y-44817257D01*
X103469655Y-45125000D01*
X101975500Y-45125000D01*
X101975500Y-44124738D01*
X101979661Y-44103822D01*
X101979661Y-44095001D01*
X101963663Y-44056380D01*
X101963651Y-44056349D01*
X101963649Y-44056348D01*
X101949726Y-44042425D01*
X101951602Y-44040548D01*
X101932659Y-44024835D01*
X101916557Y-43968663D01*
X101917099Y-43942132D01*
X101935701Y-43030608D01*
X101943608Y-42993810D01*
X101963124Y-42964924D01*
X101975500Y-42935046D01*
X101975500Y-42935044D01*
X101979661Y-42924999D01*
X101979661Y-42916179D01*
X101975500Y-42895262D01*
X101975500Y-42686926D01*
X101983036Y-42649040D01*
X102004496Y-42616922D01*
X102516922Y-42104496D01*
X102549040Y-42083036D01*
X102586926Y-42075500D01*
X160763074Y-42075500D01*
X160800960Y-42083036D01*
G37*
G04 #@! TD.AperFunction*
G04 #@! TA.AperFunction,Conductor*
G36*
X100375504Y-41975493D02*
G01*
X100425002Y-41988758D01*
X100461237Y-42024994D01*
X100474500Y-42074493D01*
X100474500Y-42895262D01*
X100470339Y-42916179D01*
X100470339Y-42928765D01*
X100476483Y-42960250D01*
X100468897Y-44006999D01*
X100461394Y-44044094D01*
X100448454Y-44075405D01*
X100448453Y-44075404D01*
X100448453Y-44075410D01*
X100440339Y-44095000D01*
X100440339Y-44103723D01*
X100444524Y-44124715D01*
X100460701Y-63985837D01*
X100340060Y-41975491D01*
X100375504Y-41975493D01*
G37*
G04 #@! TD.AperFunction*
G04 #@! TA.AperFunction,Conductor*
G36*
X100340060Y-41975491D02*
G01*
X100460702Y-63986020D01*
X100474358Y-80750399D01*
X100457779Y-80812442D01*
X100412387Y-80857870D01*
X100350358Y-80874500D01*
X64824286Y-80874500D01*
X64804037Y-80871755D01*
X64792593Y-80873172D01*
X64789475Y-80873559D01*
X64774231Y-80874500D01*
X64767807Y-80874500D01*
X64759268Y-80876751D01*
X64757081Y-80877992D01*
X64695688Y-80894129D01*
X62811137Y-80890709D01*
X62744593Y-80871198D01*
X62744567Y-80871181D01*
X62742679Y-80871598D01*
X62716009Y-80874500D01*
X61699500Y-80874500D01*
X61637500Y-80857887D01*
X61630351Y-80850738D01*
X61603606Y-76424999D01*
X64969417Y-76424999D01*
X64989699Y-76630932D01*
X64989700Y-76630934D01*
X65049768Y-76828954D01*
X65147315Y-77011450D01*
X65198609Y-77073952D01*
X65278589Y-77171410D01*
X65331071Y-77214480D01*
X65438550Y-77302685D01*
X65621046Y-77400232D01*
X65819066Y-77460300D01*
X66025000Y-77480583D01*
X66230934Y-77460300D01*
X66428954Y-77400232D01*
X66611450Y-77302685D01*
X66771410Y-77171410D01*
X66902685Y-77011450D01*
X67000232Y-76828954D01*
X67060300Y-76630934D01*
X67080583Y-76425000D01*
X67080583Y-76424999D01*
X94969417Y-76424999D01*
X94989699Y-76630932D01*
X94989700Y-76630934D01*
X95049768Y-76828954D01*
X95147315Y-77011450D01*
X95198609Y-77073952D01*
X95278589Y-77171410D01*
X95331071Y-77214480D01*
X95438550Y-77302685D01*
X95621046Y-77400232D01*
X95819066Y-77460300D01*
X96025000Y-77480583D01*
X96230934Y-77460300D01*
X96428954Y-77400232D01*
X96611450Y-77302685D01*
X96771410Y-77171410D01*
X96902685Y-77011450D01*
X97000232Y-76828954D01*
X97060300Y-76630934D01*
X97080583Y-76425000D01*
X97060300Y-76219066D01*
X97000232Y-76021046D01*
X96902685Y-75838550D01*
X96832970Y-75753602D01*
X96771410Y-75678589D01*
X96673952Y-75598608D01*
X96611450Y-75547315D01*
X96428954Y-75449768D01*
X96329943Y-75419733D01*
X96230932Y-75389699D01*
X96025000Y-75369417D01*
X95819067Y-75389699D01*
X95621043Y-75449769D01*
X95438551Y-75547314D01*
X95278589Y-75678589D01*
X95147314Y-75838551D01*
X95049769Y-76021043D01*
X94989699Y-76219067D01*
X94969417Y-76424999D01*
X67080583Y-76424999D01*
X67060300Y-76219066D01*
X67000232Y-76021046D01*
X66902685Y-75838550D01*
X66832970Y-75753602D01*
X66771410Y-75678589D01*
X66673952Y-75598608D01*
X66611450Y-75547315D01*
X66428954Y-75449768D01*
X66329943Y-75419733D01*
X66230932Y-75389699D01*
X66025000Y-75369417D01*
X65819067Y-75389699D01*
X65621043Y-75449769D01*
X65438551Y-75547314D01*
X65278589Y-75678589D01*
X65147314Y-75838551D01*
X65049769Y-76021043D01*
X64989699Y-76219067D01*
X64969417Y-76424999D01*
X61603606Y-76424999D01*
X61575500Y-71774004D01*
X61575500Y-59640000D01*
X64970000Y-59640000D01*
X64994999Y-63214999D01*
X64995000Y-63215000D01*
X70595000Y-63215000D01*
X70595000Y-59665000D01*
X73070000Y-59665000D01*
X73095000Y-63215000D01*
X76095000Y-63215000D01*
X76095000Y-59665000D01*
X73070000Y-59665000D01*
X70595000Y-59665000D01*
X64970000Y-59640000D01*
X61575500Y-59640000D01*
X61575500Y-59165000D01*
X78895000Y-59165000D01*
X78895000Y-63565000D01*
X82995500Y-63565000D01*
X83057500Y-63581613D01*
X83102887Y-63627000D01*
X83119500Y-63689000D01*
X83119500Y-65087391D01*
X83110061Y-65134844D01*
X83083181Y-65175072D01*
X82805071Y-65453181D01*
X82764843Y-65480061D01*
X82717390Y-65489500D01*
X81168999Y-65489500D01*
X81129140Y-65482919D01*
X81093517Y-65463878D01*
X80997841Y-65390464D01*
X80997840Y-65390463D01*
X80997838Y-65390462D01*
X80851762Y-65329956D01*
X80695000Y-65309317D01*
X80538237Y-65329956D01*
X80392159Y-65390463D01*
X80266717Y-65486717D01*
X80170463Y-65612159D01*
X80109956Y-65758237D01*
X80089317Y-65914999D01*
X80109956Y-66071762D01*
X80170463Y-66217840D01*
X80266717Y-66343282D01*
X80296486Y-66366124D01*
X80392159Y-66439536D01*
X80538238Y-66500044D01*
X80695000Y-66520682D01*
X80851762Y-66500044D01*
X80997841Y-66439536D01*
X81093517Y-66366121D01*
X81129140Y-66347081D01*
X81168999Y-66340500D01*
X83012391Y-66340500D01*
X83012393Y-66340500D01*
X83035363Y-66333035D01*
X83054266Y-66328497D01*
X83078126Y-66324719D01*
X83099647Y-66313752D01*
X83117616Y-66306309D01*
X83140581Y-66298849D01*
X83160111Y-66284658D01*
X83176704Y-66274489D01*
X83198220Y-66263528D01*
X83293528Y-66168220D01*
X83293528Y-66168219D01*
X83798218Y-65663528D01*
X83798220Y-65663528D01*
X83893528Y-65568220D01*
X83904491Y-65546702D01*
X83914657Y-65530113D01*
X83928849Y-65510581D01*
X83936310Y-65487614D01*
X83943753Y-65469645D01*
X83954719Y-65448126D01*
X83958497Y-65424266D01*
X83963035Y-65405363D01*
X83970500Y-65382393D01*
X83970500Y-65247607D01*
X83970500Y-63969867D01*
X93624500Y-63969867D01*
X93627414Y-63994988D01*
X93672795Y-64097767D01*
X93752232Y-64177204D01*
X93752233Y-64177204D01*
X93752235Y-64177206D01*
X93855009Y-64222585D01*
X93880135Y-64225500D01*
X95969864Y-64225499D01*
X95969867Y-64225499D01*
X95982427Y-64224042D01*
X95994991Y-64222585D01*
X96097765Y-64177206D01*
X96177206Y-64097765D01*
X96222585Y-63994991D01*
X96225500Y-63969865D01*
X96225500Y-63674500D01*
X96242113Y-63612500D01*
X96287500Y-63567113D01*
X96349500Y-63550500D01*
X97400501Y-63550500D01*
X97462501Y-63567113D01*
X97507888Y-63612500D01*
X97524501Y-63674500D01*
X97524501Y-63919867D01*
X97527414Y-63944988D01*
X97527414Y-63944990D01*
X97527415Y-63944991D01*
X97538398Y-63969865D01*
X97572795Y-64047767D01*
X97652232Y-64127204D01*
X97652233Y-64127204D01*
X97652235Y-64127206D01*
X97755009Y-64172585D01*
X97780135Y-64175500D01*
X99869864Y-64175499D01*
X99869867Y-64175499D01*
X99882427Y-64174041D01*
X99894991Y-64172585D01*
X99997765Y-64127206D01*
X100077206Y-64047765D01*
X100122585Y-63944991D01*
X100125500Y-63919865D01*
X100125499Y-58830136D01*
X100122585Y-58805009D01*
X100077206Y-58702235D01*
X100077204Y-58702233D01*
X100077204Y-58702232D01*
X99997767Y-58622795D01*
X99997765Y-58622794D01*
X99894991Y-58577415D01*
X99869865Y-58574500D01*
X99869863Y-58574500D01*
X97780132Y-58574500D01*
X97755011Y-58577414D01*
X97652232Y-58622795D01*
X97572795Y-58702232D01*
X97527415Y-58805009D01*
X97524500Y-58830136D01*
X97524500Y-59175500D01*
X97507887Y-59237500D01*
X97462500Y-59282887D01*
X97400500Y-59299500D01*
X96349499Y-59299500D01*
X96287499Y-59282887D01*
X96242112Y-59237500D01*
X96225499Y-59175500D01*
X96225499Y-58880133D01*
X96222585Y-58855011D01*
X96222585Y-58855009D01*
X96177206Y-58752235D01*
X96177204Y-58752233D01*
X96177204Y-58752232D01*
X96097767Y-58672795D01*
X96097765Y-58672794D01*
X95994991Y-58627415D01*
X95969865Y-58624500D01*
X95969863Y-58624500D01*
X93880132Y-58624500D01*
X93855011Y-58627414D01*
X93752232Y-58672795D01*
X93672795Y-58752232D01*
X93627415Y-58855009D01*
X93624500Y-58880136D01*
X93624500Y-63969867D01*
X83970500Y-63969867D01*
X83970500Y-61831512D01*
X83970500Y-61797607D01*
X83963037Y-61774642D01*
X83958495Y-61755719D01*
X83954719Y-61731874D01*
X83943756Y-61710359D01*
X83936309Y-61692379D01*
X83933698Y-61684344D01*
X83928849Y-61669419D01*
X83914654Y-61649882D01*
X83904490Y-61633295D01*
X83893527Y-61611779D01*
X83392193Y-61110445D01*
X83368220Y-61086471D01*
X83346703Y-61075508D01*
X83330111Y-61065340D01*
X83310582Y-61051151D01*
X83287616Y-61043689D01*
X83269638Y-61036242D01*
X83244163Y-61023261D01*
X83196117Y-61003362D01*
X83158516Y-60959338D01*
X83145000Y-60903042D01*
X83145000Y-59165000D01*
X78895000Y-59165000D01*
X61575500Y-59165000D01*
X61575500Y-46425000D01*
X64969417Y-46425000D01*
X64989699Y-46630932D01*
X64989700Y-46630934D01*
X65049768Y-46828954D01*
X65147315Y-47011450D01*
X65198608Y-47073952D01*
X65278589Y-47171410D01*
X65331071Y-47214480D01*
X65438550Y-47302685D01*
X65621046Y-47400232D01*
X65819066Y-47460300D01*
X66025000Y-47480583D01*
X66230934Y-47460300D01*
X66428954Y-47400232D01*
X66611450Y-47302685D01*
X66771410Y-47171410D01*
X66902685Y-47011450D01*
X67000232Y-46828954D01*
X67060300Y-46630934D01*
X67080583Y-46425000D01*
X94969417Y-46425000D01*
X94989699Y-46630932D01*
X94989700Y-46630934D01*
X95049768Y-46828954D01*
X95147315Y-47011450D01*
X95198608Y-47073952D01*
X95278589Y-47171410D01*
X95331071Y-47214480D01*
X95438550Y-47302685D01*
X95621046Y-47400232D01*
X95819066Y-47460300D01*
X96025000Y-47480583D01*
X96230934Y-47460300D01*
X96428954Y-47400232D01*
X96611450Y-47302685D01*
X96771410Y-47171410D01*
X96902685Y-47011450D01*
X97000232Y-46828954D01*
X97060300Y-46630934D01*
X97080583Y-46425000D01*
X97060300Y-46219066D01*
X97000232Y-46021046D01*
X96902685Y-45838550D01*
X96832970Y-45753602D01*
X96771410Y-45678589D01*
X96673952Y-45598609D01*
X96611450Y-45547315D01*
X96428954Y-45449768D01*
X96329943Y-45419733D01*
X96230932Y-45389699D01*
X96025000Y-45369417D01*
X95819067Y-45389699D01*
X95621043Y-45449769D01*
X95438551Y-45547314D01*
X95278589Y-45678589D01*
X95147314Y-45838551D01*
X95049769Y-46021043D01*
X94989699Y-46219067D01*
X94969417Y-46425000D01*
X67080583Y-46425000D01*
X67060300Y-46219066D01*
X67000232Y-46021046D01*
X66902685Y-45838550D01*
X66832970Y-45753602D01*
X66771410Y-45678589D01*
X66673952Y-45598609D01*
X66611450Y-45547315D01*
X66428954Y-45449768D01*
X66329943Y-45419733D01*
X66230932Y-45389699D01*
X66025000Y-45369417D01*
X65819067Y-45389699D01*
X65621043Y-45449769D01*
X65438551Y-45547314D01*
X65278589Y-45678589D01*
X65147314Y-45838551D01*
X65049769Y-46021043D01*
X64989699Y-46219067D01*
X64969417Y-46425000D01*
X61575500Y-46425000D01*
X61575500Y-42099468D01*
X61592109Y-42037475D01*
X61637487Y-41992088D01*
X61699475Y-41975468D01*
X69017378Y-41974130D01*
X100340060Y-41975491D01*
G37*
G04 #@! TD.AperFunction*
M02*
