G04 #@! TF.GenerationSoftware,KiCad,Pcbnew,7.0.1-0*
G04 #@! TF.CreationDate,2023-06-29T07:12:14-04:00*
G04 #@! TF.ProjectId,CosmicWatch,436f736d-6963-4576-9174-63682e6b6963,rev?*
G04 #@! TF.SameCoordinates,Original*
G04 #@! TF.FileFunction,Soldermask,Top*
G04 #@! TF.FilePolarity,Negative*
%FSLAX46Y46*%
G04 Gerber Fmt 4.6, Leading zero omitted, Abs format (unit mm)*
G04 Created by KiCad (PCBNEW 7.0.1-0) date 2023-06-29 07:12:14*
%MOMM*%
%LPD*%
G01*
G04 APERTURE LIST*
%ADD10R,4.000000X1.500000*%
%ADD11R,4.000000X1.400000*%
%ADD12R,2.000000X4.000000*%
%ADD13R,1.700000X1.700000*%
%ADD14O,1.700000X1.700000*%
%ADD15C,2.032000*%
%ADD16C,2.000000*%
%ADD17R,2.000000X3.000000*%
%ADD18O,2.200000X3.000000*%
%ADD19R,5.000000X2.000000*%
%ADD20R,1.700000X3.000000*%
%ADD21C,0.750000*%
%ADD22R,2.000000X3.800000*%
%ADD23R,2.500000X7.000000*%
%ADD24R,2.000000X0.500000*%
%ADD25C,0.600000*%
%ADD26C,0.270000*%
%ADD27C,3.650000*%
%ADD28R,1.500000X1.500000*%
%ADD29C,1.500000*%
%ADD30C,2.200000*%
G04 APERTURE END LIST*
D10*
X142600000Y-102460000D03*
D11*
X142600000Y-99560000D03*
D12*
X192230000Y-102110000D03*
D13*
X195105000Y-90235000D03*
D14*
X195105000Y-92775000D03*
X192565000Y-90235000D03*
X192565000Y-92775000D03*
D15*
X196162500Y-85060000D03*
D16*
X198662500Y-83810000D03*
D15*
X196162500Y-78060000D03*
D16*
X198662500Y-79310000D03*
D17*
X159810000Y-102110000D03*
D18*
X162350000Y-102110000D03*
X164890000Y-102110000D03*
X167430000Y-102110000D03*
D13*
X153355023Y-65008630D03*
D14*
X153355023Y-62468630D03*
X153355023Y-59928630D03*
X153355023Y-57388630D03*
D19*
X153405000Y-36835000D03*
D13*
X179505000Y-117480000D03*
D14*
X179505000Y-114940000D03*
X179505000Y-112400000D03*
X179505000Y-109860000D03*
D20*
X141550000Y-125500000D03*
X144090000Y-125500000D03*
X146630000Y-125500000D03*
X149170000Y-125500000D03*
X151710000Y-125500000D03*
X154250000Y-125500000D03*
X156790000Y-125500000D03*
X159330000Y-125500000D03*
X161870000Y-125500000D03*
X172030000Y-125500000D03*
X177110000Y-125500000D03*
X179650000Y-125500000D03*
X182190000Y-125500000D03*
X184730000Y-125500000D03*
X187270000Y-125500000D03*
X189810000Y-125500000D03*
X189810000Y-105920000D03*
X187270000Y-105920000D03*
X184730000Y-105920000D03*
X179650000Y-105920000D03*
X177110000Y-105920000D03*
X174570000Y-105920000D03*
X172030000Y-105920000D03*
X169490000Y-105920000D03*
X166950000Y-105920000D03*
X164410000Y-105920000D03*
X161870000Y-105920000D03*
X159330000Y-105920000D03*
X156790000Y-105920000D03*
X154250000Y-105920000D03*
X151710000Y-105920000D03*
X149170000Y-105920000D03*
X146630000Y-105920000D03*
X144090000Y-105920000D03*
X141550000Y-105920000D03*
D19*
X153355000Y-32935000D03*
X171830000Y-68535000D03*
X171830000Y-64585000D03*
D13*
X171855023Y-36408630D03*
D14*
X171855023Y-38948630D03*
X171855023Y-41488630D03*
X171855023Y-44028630D03*
D21*
X170855023Y-51758630D03*
X172855023Y-51758630D03*
X171855023Y-50758630D03*
X170855023Y-49758630D03*
X172855023Y-49758630D03*
X171855023Y-49758630D03*
X172855023Y-50758630D03*
X170855023Y-50758630D03*
X171855023Y-51758630D03*
D22*
X199255000Y-68335000D03*
D23*
X205630000Y-68335000D03*
D24*
X207580000Y-40700000D03*
X207580000Y-40700000D03*
X207580000Y-41500000D03*
X207580000Y-42300000D03*
D25*
X152110000Y-52000000D03*
D26*
X152110000Y-50740000D03*
X152110000Y-49480000D03*
D25*
X153370000Y-52000000D03*
X153370000Y-49480000D03*
D26*
X154630000Y-52000000D03*
X154630000Y-50740000D03*
D25*
X154630000Y-49480000D03*
D27*
X143710000Y-82580000D03*
X143710000Y-94010000D03*
D28*
X150060000Y-83850000D03*
D29*
X152600000Y-85120000D03*
X150060000Y-86390000D03*
X152600000Y-87660000D03*
X150060000Y-88930000D03*
X152600000Y-90200000D03*
X150060000Y-91470000D03*
X152600000Y-92740000D03*
D30*
X151420000Y-120614500D03*
X151420000Y-110464500D03*
D14*
X183140000Y-107330000D03*
X185680000Y-109870000D03*
X183140000Y-109870000D03*
X185680000Y-112410000D03*
X183140000Y-112410000D03*
X185680000Y-114950000D03*
X183140000Y-114950000D03*
G36*
X165837872Y-30725875D02*
G01*
X165884082Y-30772888D01*
X165900227Y-30836802D01*
X165886603Y-31627011D01*
X165876611Y-31674058D01*
X165855023Y-31706068D01*
X165855023Y-33457596D01*
X165855004Y-33459768D01*
X165732159Y-40584802D01*
X165714566Y-40646880D01*
X165668550Y-40692109D01*
X165606178Y-40708630D01*
X165526269Y-40708630D01*
X165525423Y-40708627D01*
X158280000Y-40659999D01*
X158355016Y-47996564D01*
X158355023Y-47997852D01*
X158355023Y-69708631D01*
X158391603Y-69745211D01*
X158418883Y-69786007D01*
X158428508Y-69834131D01*
X158429546Y-70582455D01*
X158412723Y-70645529D01*
X158366596Y-70691720D01*
X158303546Y-70708630D01*
X148355019Y-70708630D01*
X148330574Y-70708637D01*
X148267619Y-70691803D01*
X148221495Y-70645768D01*
X148204538Y-70582846D01*
X148202261Y-69211209D01*
X148219072Y-69148121D01*
X148265201Y-69101916D01*
X148328261Y-69085000D01*
X148355000Y-69085000D01*
X148355001Y-68309798D01*
X152360154Y-68309798D01*
X152400883Y-68507991D01*
X152480676Y-68693933D01*
X152596263Y-68860000D01*
X152742917Y-68999405D01*
X152914629Y-69106435D01*
X153104370Y-69176707D01*
X153304374Y-69207346D01*
X153506449Y-69197098D01*
X153702331Y-69146380D01*
X153883984Y-69057276D01*
X154043991Y-68933422D01*
X154175785Y-68779898D01*
X154273980Y-68602987D01*
X154334552Y-68409929D01*
X154355022Y-68208629D01*
X154334552Y-68007330D01*
X154273980Y-67814272D01*
X154175785Y-67637361D01*
X154043991Y-67483837D01*
X153883984Y-67359983D01*
X153702331Y-67270879D01*
X153506449Y-67220161D01*
X153304374Y-67209913D01*
X153104370Y-67240552D01*
X152914629Y-67310824D01*
X152742917Y-67417854D01*
X152596263Y-67557259D01*
X152480676Y-67723326D01*
X152400883Y-67909268D01*
X152360154Y-68107462D01*
X152360154Y-68309798D01*
X148355001Y-68309798D01*
X148355023Y-55208630D01*
X148355023Y-52861792D01*
X150681461Y-52861792D01*
X150681463Y-52861793D01*
X157179977Y-52881319D01*
X157179977Y-52881318D01*
X157153972Y-48437475D01*
X150731462Y-48311793D01*
X150681461Y-52861792D01*
X148355023Y-52861792D01*
X148355023Y-40708630D01*
X140981023Y-40708630D01*
X140918023Y-40691749D01*
X140871904Y-40645630D01*
X140855023Y-40582630D01*
X140855023Y-33309798D01*
X142360154Y-33309798D01*
X142400883Y-33507991D01*
X142480676Y-33693933D01*
X142596263Y-33860000D01*
X142742917Y-33999405D01*
X142914629Y-34106435D01*
X143104370Y-34176707D01*
X143304374Y-34207346D01*
X143506449Y-34197098D01*
X143702331Y-34146380D01*
X143883984Y-34057276D01*
X143977357Y-33985000D01*
X151280000Y-33985000D01*
X151280000Y-35785000D01*
X155430000Y-35785000D01*
X155430000Y-33985000D01*
X151280000Y-33985000D01*
X143977357Y-33985000D01*
X144043991Y-33933422D01*
X144175785Y-33779898D01*
X144273980Y-33602987D01*
X144334552Y-33409929D01*
X144344734Y-33309798D01*
X162360154Y-33309798D01*
X162400883Y-33507991D01*
X162480676Y-33693933D01*
X162596263Y-33860000D01*
X162742917Y-33999405D01*
X162914629Y-34106435D01*
X163104370Y-34176707D01*
X163304374Y-34207346D01*
X163506449Y-34197098D01*
X163702331Y-34146380D01*
X163883984Y-34057276D01*
X164043991Y-33933422D01*
X164175785Y-33779898D01*
X164273980Y-33602987D01*
X164334552Y-33409929D01*
X164355022Y-33208629D01*
X164334552Y-33007330D01*
X164273980Y-32814272D01*
X164175785Y-32637361D01*
X164043991Y-32483837D01*
X163883984Y-32359983D01*
X163702331Y-32270879D01*
X163506449Y-32220161D01*
X163304374Y-32209913D01*
X163104370Y-32240552D01*
X162914629Y-32310824D01*
X162742917Y-32417854D01*
X162596263Y-32557259D01*
X162480676Y-32723326D01*
X162400883Y-32909268D01*
X162360154Y-33107462D01*
X162360154Y-33309798D01*
X144344734Y-33309798D01*
X144355022Y-33208629D01*
X144334552Y-33007330D01*
X144273980Y-32814272D01*
X144175785Y-32637361D01*
X144043991Y-32483837D01*
X143883984Y-32359983D01*
X143702331Y-32270879D01*
X143506449Y-32220161D01*
X143304374Y-32209913D01*
X143104370Y-32240552D01*
X142914629Y-32310824D01*
X142742917Y-32417854D01*
X142596263Y-32557259D01*
X142480676Y-32723326D01*
X142400883Y-32909268D01*
X142360154Y-33107462D01*
X142360154Y-33309798D01*
X140855023Y-33309798D01*
X140855023Y-30834630D01*
X140871904Y-30771630D01*
X140918023Y-30725511D01*
X140981023Y-30708630D01*
X165774246Y-30708630D01*
X165837872Y-30725875D01*
G37*
G36*
X232567000Y-98426881D02*
G01*
X232613119Y-98473000D01*
X232630000Y-98536000D01*
X232630000Y-101257810D01*
X232620409Y-101306028D01*
X232593095Y-101346905D01*
X231519095Y-102420905D01*
X231462611Y-102453517D01*
X231397389Y-102453517D01*
X231340905Y-102420905D01*
X231169095Y-102249095D01*
X231136483Y-102192611D01*
X231136483Y-102127389D01*
X231169095Y-102070905D01*
X232130000Y-101110000D01*
X232130000Y-98536000D01*
X232146881Y-98473000D01*
X232193000Y-98426881D01*
X232256000Y-98410000D01*
X232504000Y-98410000D01*
X232567000Y-98426881D01*
G37*
G36*
X233367000Y-98376881D02*
G01*
X233413119Y-98423000D01*
X233430000Y-98486000D01*
X233430000Y-104707810D01*
X233420409Y-104756028D01*
X233393095Y-104796905D01*
X232569095Y-105620905D01*
X232512611Y-105653517D01*
X232447389Y-105653517D01*
X232390905Y-105620905D01*
X232219095Y-105449095D01*
X232186483Y-105392611D01*
X232186483Y-105327389D01*
X232219095Y-105270904D01*
X232930000Y-104560000D01*
X232930000Y-98486000D01*
X232946881Y-98423000D01*
X232993000Y-98376881D01*
X233056000Y-98360000D01*
X233304000Y-98360000D01*
X233367000Y-98376881D01*
G37*
G36*
X234167000Y-98326881D02*
G01*
X234213119Y-98373000D01*
X234230000Y-98436000D01*
X234230000Y-105460001D01*
X236752727Y-107982727D01*
X236783661Y-108033493D01*
X236787875Y-108092791D01*
X236764432Y-108147422D01*
X236617167Y-108343777D01*
X236560329Y-108386259D01*
X236489547Y-108391289D01*
X236427272Y-108357272D01*
X233766905Y-105696905D01*
X233739591Y-105656028D01*
X233730000Y-105607810D01*
X233730000Y-98436000D01*
X233746881Y-98373000D01*
X233793000Y-98326881D01*
X233856000Y-98310000D01*
X234104000Y-98310000D01*
X234167000Y-98326881D01*
G37*
G36*
X235567000Y-96226881D02*
G01*
X235613119Y-96273000D01*
X235630000Y-96336000D01*
X235630000Y-101010001D01*
X236652727Y-102032727D01*
X236683661Y-102083493D01*
X236687875Y-102142791D01*
X236664432Y-102197422D01*
X236517167Y-102393777D01*
X236460329Y-102436259D01*
X236389547Y-102441289D01*
X236327272Y-102407272D01*
X235166905Y-101246905D01*
X235139591Y-101206028D01*
X235130000Y-101157810D01*
X235130000Y-96336000D01*
X235146881Y-96273000D01*
X235193000Y-96226881D01*
X235256000Y-96210000D01*
X235504000Y-96210000D01*
X235567000Y-96226881D01*
G37*
G36*
X236367000Y-96276881D02*
G01*
X236413119Y-96323000D01*
X236430000Y-96386000D01*
X236430000Y-98610001D01*
X237912794Y-100092794D01*
X237941861Y-100138144D01*
X237949333Y-100191489D01*
X237933843Y-100243080D01*
X237811122Y-100463979D01*
X237772271Y-100506679D01*
X237718454Y-100527570D01*
X237660969Y-100522267D01*
X237611883Y-100491883D01*
X235966905Y-98846905D01*
X235939591Y-98806028D01*
X235930000Y-98757810D01*
X235930000Y-96386000D01*
X235946881Y-96323000D01*
X235993000Y-96276881D01*
X236056000Y-96260000D01*
X236304000Y-96260000D01*
X236367000Y-96276881D01*
G37*
G36*
X213367000Y-80276881D02*
G01*
X213413119Y-80323000D01*
X213430000Y-80386000D01*
X213430000Y-117060001D01*
X217443095Y-121073095D01*
X217470409Y-121113972D01*
X217480000Y-121162190D01*
X217480000Y-123034000D01*
X217463119Y-123097000D01*
X217417000Y-123143119D01*
X217354000Y-123160000D01*
X217106000Y-123160000D01*
X217043000Y-123143119D01*
X216996881Y-123097000D01*
X216980000Y-123034000D01*
X216980000Y-121310000D01*
X216979999Y-121309998D01*
X212966905Y-117296905D01*
X212939591Y-117256028D01*
X212930000Y-117207810D01*
X212930000Y-80386000D01*
X212946881Y-80323000D01*
X212993000Y-80276881D01*
X213056000Y-80260000D01*
X213304000Y-80260000D01*
X213367000Y-80276881D01*
G37*
G36*
X214367187Y-80276837D02*
G01*
X214413294Y-80322848D01*
X214430263Y-80385736D01*
X214480000Y-104160000D01*
X214480001Y-104160002D01*
X216140904Y-105820905D01*
X216173516Y-105877389D01*
X216173516Y-105942611D01*
X216140905Y-105999095D01*
X215969096Y-106170905D01*
X215912611Y-106203517D01*
X215847389Y-106203517D01*
X215790905Y-106170905D01*
X214016797Y-104396797D01*
X213989533Y-104356041D01*
X213979892Y-104307963D01*
X213930262Y-80386261D01*
X213947056Y-80323151D01*
X213993187Y-80276924D01*
X214056262Y-80260000D01*
X214304263Y-80260000D01*
X214367187Y-80276837D01*
G37*
G36*
X215417000Y-80276881D02*
G01*
X215463119Y-80323000D01*
X215480000Y-80386000D01*
X215480000Y-101310001D01*
X218990904Y-104820905D01*
X219023516Y-104877389D01*
X219023516Y-104942611D01*
X218990905Y-104999095D01*
X218819096Y-105170905D01*
X218762611Y-105203517D01*
X218697389Y-105203517D01*
X218640905Y-105170905D01*
X215016905Y-101546905D01*
X214989591Y-101506028D01*
X214980000Y-101457810D01*
X214980000Y-80386000D01*
X214996881Y-80323000D01*
X215043000Y-80276881D01*
X215106000Y-80260000D01*
X215354000Y-80260000D01*
X215417000Y-80276881D01*
G37*
G36*
X208367000Y-66351881D02*
G01*
X208413119Y-66398000D01*
X208430000Y-66461000D01*
X208430000Y-70209000D01*
X208413119Y-70272000D01*
X208367000Y-70318119D01*
X208304000Y-70335000D01*
X207410499Y-70335000D01*
X207347499Y-70318119D01*
X207301380Y-70272000D01*
X207284499Y-70209000D01*
X207284499Y-66461000D01*
X207301380Y-66398000D01*
X207347499Y-66351881D01*
X207410499Y-66335000D01*
X208304000Y-66335000D01*
X208367000Y-66351881D01*
G37*
G36*
X233163080Y-39331156D02*
G01*
X233383979Y-39453877D01*
X233426679Y-39492728D01*
X233447570Y-39546544D01*
X233442267Y-39604030D01*
X233411883Y-39653116D01*
X231766905Y-41298095D01*
X231726028Y-41325409D01*
X231677810Y-41335000D01*
X208331000Y-41335000D01*
X208268000Y-41318119D01*
X208221881Y-41272000D01*
X208205000Y-41209000D01*
X208205000Y-40961000D01*
X208221881Y-40898000D01*
X208268000Y-40851881D01*
X208331000Y-40835000D01*
X231529999Y-40835000D01*
X233012793Y-39352205D01*
X233058144Y-39323138D01*
X233111489Y-39315666D01*
X233163080Y-39331156D01*
G37*
G36*
X235117422Y-40600567D02*
G01*
X235313777Y-40747832D01*
X235356259Y-40804670D01*
X235361289Y-40875452D01*
X235327272Y-40937727D01*
X234166905Y-42098095D01*
X234126028Y-42125409D01*
X234077810Y-42135000D01*
X208331000Y-42135000D01*
X208268000Y-42118119D01*
X208221881Y-42072000D01*
X208205000Y-42009000D01*
X208205000Y-41761000D01*
X208221881Y-41698000D01*
X208268000Y-41651881D01*
X208331000Y-41635000D01*
X233929999Y-41635000D01*
X234952726Y-40612272D01*
X235003493Y-40581338D01*
X235062791Y-40577124D01*
X235117422Y-40600567D01*
G37*
G36*
X176792023Y-30725511D02*
G01*
X176838142Y-30771630D01*
X176855023Y-30834630D01*
X176855023Y-60708629D01*
X180879999Y-60710000D01*
X180880000Y-60710000D01*
X180880000Y-60688114D01*
X180897022Y-60624869D01*
X180943490Y-60578713D01*
X181006848Y-60562117D01*
X181954848Y-60568500D01*
X182017489Y-60585662D01*
X182063260Y-60631742D01*
X182080000Y-60694497D01*
X182080000Y-60710000D01*
X184229000Y-60710000D01*
X184292000Y-60726881D01*
X184338119Y-60773000D01*
X184355000Y-60836000D01*
X184355021Y-70559348D01*
X184338182Y-70622276D01*
X184292166Y-70668384D01*
X184229271Y-70685348D01*
X172507295Y-70708630D01*
X159358646Y-70708630D01*
X159295020Y-70691385D01*
X159248810Y-70644372D01*
X159232665Y-70580458D01*
X159245561Y-69832458D01*
X159263154Y-69770380D01*
X159309170Y-69725151D01*
X159349072Y-69714581D01*
X159355023Y-69708631D01*
X159355023Y-68309798D01*
X160860131Y-68309798D01*
X160900860Y-68507991D01*
X160980653Y-68693933D01*
X161096240Y-68860000D01*
X161242894Y-68999405D01*
X161414606Y-69106435D01*
X161604347Y-69176707D01*
X161804351Y-69207346D01*
X162006426Y-69197098D01*
X162202308Y-69146380D01*
X162383961Y-69057276D01*
X162543968Y-68933422D01*
X162675762Y-68779898D01*
X162773957Y-68602987D01*
X162834529Y-68409929D01*
X162844711Y-68309798D01*
X180860131Y-68309798D01*
X180900860Y-68507991D01*
X180980653Y-68693933D01*
X181096240Y-68860000D01*
X181242894Y-68999405D01*
X181414606Y-69106435D01*
X181604347Y-69176707D01*
X181804351Y-69207346D01*
X182006426Y-69197098D01*
X182202308Y-69146380D01*
X182383961Y-69057276D01*
X182543968Y-68933422D01*
X182675762Y-68779898D01*
X182773957Y-68602987D01*
X182834529Y-68409929D01*
X182854999Y-68208629D01*
X182834529Y-68007330D01*
X182773957Y-67814272D01*
X182675762Y-67637361D01*
X182543968Y-67483837D01*
X182383961Y-67359983D01*
X182202308Y-67270879D01*
X182006426Y-67220161D01*
X181804351Y-67209913D01*
X181604347Y-67240552D01*
X181414606Y-67310824D01*
X181242894Y-67417854D01*
X181096240Y-67557259D01*
X180980653Y-67723326D01*
X180900860Y-67909268D01*
X180860131Y-68107462D01*
X180860131Y-68309798D01*
X162844711Y-68309798D01*
X162854999Y-68208629D01*
X162834529Y-68007330D01*
X162773957Y-67814272D01*
X162675762Y-67637361D01*
X162543968Y-67483837D01*
X162383961Y-67359983D01*
X162202308Y-67270879D01*
X162006426Y-67220161D01*
X161804351Y-67209913D01*
X161604347Y-67240552D01*
X161414606Y-67310824D01*
X161242894Y-67417854D01*
X161096240Y-67557259D01*
X160980653Y-67723326D01*
X160900860Y-67909268D01*
X160860131Y-68107462D01*
X160860131Y-68309798D01*
X159355023Y-68309798D01*
X159355023Y-65660000D01*
X169755000Y-65660000D01*
X169755000Y-67460000D01*
X173905000Y-67460000D01*
X173905000Y-65660000D01*
X169755000Y-65660000D01*
X159355023Y-65660000D01*
X159355023Y-63484736D01*
X159355042Y-63482564D01*
X159400733Y-60832458D01*
X159418326Y-60770380D01*
X159464342Y-60725151D01*
X159526714Y-60708630D01*
X166855023Y-60708630D01*
X166855023Y-48413679D01*
X167955021Y-48413679D01*
X167955021Y-48413680D01*
X167981027Y-52857524D01*
X174403537Y-52983206D01*
X174453538Y-48433207D01*
X174453536Y-48433206D01*
X167955021Y-48413679D01*
X166855023Y-48413679D01*
X166855023Y-33309798D01*
X170860154Y-33309798D01*
X170900883Y-33507991D01*
X170980676Y-33693933D01*
X171096263Y-33860000D01*
X171242917Y-33999405D01*
X171414629Y-34106435D01*
X171604370Y-34176707D01*
X171804374Y-34207346D01*
X172006449Y-34197098D01*
X172202331Y-34146380D01*
X172383984Y-34057276D01*
X172543991Y-33933422D01*
X172675785Y-33779898D01*
X172773980Y-33602987D01*
X172834552Y-33409929D01*
X172855022Y-33208629D01*
X172834552Y-33007330D01*
X172773980Y-32814272D01*
X172675785Y-32637361D01*
X172543991Y-32483837D01*
X172383984Y-32359983D01*
X172202331Y-32270879D01*
X172006449Y-32220161D01*
X171804374Y-32209913D01*
X171604370Y-32240552D01*
X171414629Y-32310824D01*
X171242917Y-32417854D01*
X171096263Y-32557259D01*
X170980676Y-32723326D01*
X170900883Y-32909268D01*
X170860154Y-33107462D01*
X170860154Y-33309798D01*
X166855023Y-33309798D01*
X166855023Y-31708630D01*
X166832661Y-31708630D01*
X166769711Y-31691778D01*
X166723600Y-31645731D01*
X166706661Y-31582805D01*
X166705624Y-30834805D01*
X166722447Y-30771731D01*
X166768574Y-30725540D01*
X166831624Y-30708630D01*
X176729023Y-30708630D01*
X176792023Y-30725511D01*
G37*
M02*
