M48
; DRILL file {KiCad 7.0.1-0} date 2023 June 29, Thursday 07:12:16
; FORMAT={-:-/ absolute / inch / decimal}
; #@! TF.CreationDate,2023-06-29T07:12:16-04:00
; #@! TF.GenerationSoftware,Kicad,Pcbnew,7.0.1-0
; #@! TF.FileFunction,Plated,1,2,PTH
FMAT,2
INCH
; #@! TA.AperFunction,Plated,PTH,ComponentDrill
T1C0.0118
; #@! TA.AperFunction,Plated,PTH,ViaDrill
T2C0.0157
; #@! TA.AperFunction,Plated,PTH,ComponentDrill
T3C0.0354
; #@! TA.AperFunction,Plated,PTH,ComponentDrill
T4C0.0394
; #@! TA.AperFunction,Plated,PTH,ComponentDrill
T5C0.0512
; #@! TA.AperFunction,Plated,PTH,ComponentDrill
T6C0.0551
; #@! TA.AperFunction,Plated,PTH,ComponentDrill
T7C0.0630
; #@! TA.AperFunction,Plated,PTH,ComponentDrill
T8C0.0827
%
G90
G05
T1
X5.6142Y-3.9197
X5.9886Y-2.0472
X6.0376Y-1.2967
X6.0382Y-1.948
X6.0382Y-2.0472
X6.0396Y-1.4502
X6.0878Y-1.948
X6.7266Y-1.9984
X6.765Y-2.5427
X6.765Y-2.6982
X6.7659Y-1.959
X6.8053Y-1.9984
X7.5681Y-4.0201
X7.8447Y-2.6904
X8.0957Y-2.6904
T2
X5.5465Y-3.7425
X5.5681Y-3.8409
X5.5681Y-3.9197
X5.5701Y-2.9984
X5.5744Y-4.1098
X5.6055Y-3.4098
X5.6232Y-3.8409
X5.6242Y-1.4433
X5.6242Y-1.5456
X5.6409Y-3.9197
X5.6724Y-4.9512
X5.6744Y-3.8409
X5.701Y-3.0929
X5.7106Y-3.9583
X5.7134Y-3.8669
X5.7148Y-3.3941
X5.7256Y-4.7327
X5.7463Y-4.8242
X5.7524Y-3.8429
X5.7551Y-1.2563
X5.7551Y-1.3587
X5.7551Y-1.4433
X5.7551Y-1.5456
X5.765Y-4.0201
X5.7728Y-4.9374
X5.7803Y-4.1898
X5.7846Y-4.4925
X5.8035Y-3.8433
X5.8171Y-3.7415
X5.8409Y-4.786
X5.8409Y-4.0764
X5.8423Y-4.7315
X5.8555Y-3.8433
X5.8703Y-1.7976
X5.8722Y-1.6716
X5.8722Y-2.0929
X5.8722Y-2.1657
X5.8722Y-2.2425
X5.8722Y-2.3251
X5.8728Y-4.9055
X5.8772Y-4.5575
X5.8821Y-1.2563
X5.8821Y-1.3587
X5.8821Y-1.4433
X5.8821Y-1.5456
X5.8821Y-2.4098
X5.8821Y-2.5358
X5.8821Y-2.6322
X5.8821Y-2.7287
X5.8831Y-1.9866
X5.885Y-3.9594
X5.885Y-4.0815
X5.9028Y-3.8429
X5.9213Y-4.6024
X5.9234Y-3.0949
X5.929Y-4.4274
X5.9323Y-3.9591
X5.9323Y-4.0811
X5.9333Y-2.461
X5.9392Y-3.7425
X5.952Y-3.8429
X5.9549Y-1.7346
X5.9549Y-2.6322
X5.9549Y-2.7287
X5.9555Y-4.8118
X5.9717Y-4.2051
X5.9726Y-2.5023
X5.9728Y-4.9055
X5.9736Y-1.2917
X5.9805Y-2.3094
X5.9815Y-3.9591
X5.9815Y-4.0811
X5.9825Y-1.4531
X5.9825Y-2.1499
X5.9825Y-2.211
X6.0012Y-3.8429
X6.0236Y-4.8654
X6.0283Y-5.0536
X6.0307Y-3.9591
X6.0307Y-4.0811
X6.0376Y-1.6736
X6.0376Y-1.7976
X6.0376Y-2.6204
X6.0396Y-1.5594
X6.0524Y-3.8429
X6.0669Y-3.2919
X6.0671Y-3.7888
X6.0681Y-3.2071
X6.0728Y-4.9055
X6.0819Y-3.9591
X6.0819Y-4.0811
X6.0907Y-2.3074
X6.0927Y-2.1755
X6.0927Y-2.209
X6.0937Y-1.2937
X6.0957Y-4.3035
X6.0957Y-4.648
X6.0986Y-1.4512
X6.0986Y-2.1185
X6.0992Y-4.6036
X6.1016Y-3.8429
X6.1183Y-2.3665
X6.1183Y-2.4511
X6.1183Y-2.6342
X6.1183Y-2.7307
X6.1203Y-2.2799
X6.1222Y-1.7307
X6.1311Y-3.9591
X6.1311Y-4.0811
X6.136Y-3.7337
X6.1469Y-3.8429
X6.1478Y-2.581
X6.1488Y-1.9472
X6.1577Y-3.4276
X6.1587Y-3.1579
X6.1764Y-3.9591
X6.1764Y-4.0811
X6.1852Y-1.2543
X6.1852Y-1.3566
X6.1852Y-1.4413
X6.1852Y-1.5436
X6.1911Y-2.6342
X6.1911Y-2.7307
X6.1961Y-3.8429
X6.197Y-2.1608
X6.197Y-2.2129
X6.197Y-2.2641
X6.197Y-2.3409
X6.197Y-2.4255
X6.197Y-2.522
X6.2049Y-1.6736
X6.2049Y-1.7956
X6.2049Y-1.898
X6.2187Y-3.4266
X6.2217Y-4.0811
X6.2236Y-3.9591
X6.2453Y-3.8429
X6.2541Y-3.7307
X6.2654Y-4.0661
X6.2657Y-3.9736
X6.2728Y-4.1421
X6.2728Y-4.1992
X6.2787Y-4.7268
X6.2886Y-4.2543
X6.2886Y-4.2937
X6.2886Y-4.3331
X6.2886Y-4.3744
X6.2886Y-4.4138
X6.2886Y-4.4531
X6.2886Y-4.4965
X6.2906Y-3.8429
X6.2925Y-3.7868
X6.2925Y-4.5398
X6.3154Y-3.372
X6.3181Y-3.9736
X6.3185Y-4.0673
X6.3201Y-3.1717
X6.327Y-1.2563
X6.327Y-1.3587
X6.327Y-1.4433
X6.327Y-1.5457
X6.328Y-4.5791
X6.3378Y-3.8429
X6.3545Y-2.461
X6.3545Y-2.5633
X6.3654Y-4.6165
X6.3673Y-4.2563
X6.3673Y-4.2957
X6.3673Y-4.335
X6.3673Y-4.3764
X6.3673Y-4.4157
X6.3673Y-4.4551
X6.3673Y-4.4984
X6.3728Y-4.2055
X6.3831Y-3.711
X6.387Y-3.8429
X6.3909Y-4.0673
X6.3921Y-3.9724
X6.3988Y-4.5417
X6.4185Y-4.6185
X6.4215Y-3.6096
X6.4264Y-3.7868
X6.4323Y-3.8429
X6.4382Y-3.1697
X6.4402Y-5.0831
X6.4411Y-4.9128
X6.4441Y-4.5437
X6.4608Y-1.4443
X6.4608Y-1.5467
X6.4707Y-4.1618
X6.4756Y-4.6185
X6.4835Y-3.8429
X6.4854Y-2.6362
X6.4854Y-2.7385
X6.4854Y-2.461
X6.4854Y-2.5633
X6.4874Y-3.7868
X6.4874Y-4.5437
X6.4913Y-3.9748
X6.515Y-3.372
X6.5327Y-4.6185
X6.5346Y-3.7386
X6.5346Y-3.7917
X6.5346Y-3.8429
X6.5407Y-4.543
X6.5445Y-5.0496
X6.5563Y-4.7524
X6.572Y-4.1933
X6.5756Y-3.3134
X6.5839Y-4.5437
X6.5898Y-4.6185
X6.5909Y-3.9728
X6.5909Y-4.0673
X6.6085Y-1.2582
X6.6085Y-1.3606
X6.6085Y-1.459
X6.6085Y-1.5614
X6.6085Y-1.6578
X6.6085Y-1.7602
X6.6085Y-1.8625
X6.6104Y-1.9728
X6.6104Y-2.0751
X6.6104Y-2.1736
X6.6104Y-2.2759
X6.6124Y-2.6362
X6.6124Y-2.7385
X6.6124Y-2.3625
X6.6124Y-2.461
X6.6124Y-2.5633
X6.6311Y-4.6421
X6.637Y-4.5437
X6.639Y-3.5535
X6.6488Y-3.7602
X6.6488Y-3.8094
X6.6488Y-3.8547
X6.6488Y-3.9059
X6.6547Y-3.1697
X6.6547Y-3.6283
X6.6724Y-4.6776
X6.6724Y-4.7366
X6.6799Y-3.937
X6.6813Y-1.2582
X6.6813Y-1.3606
X6.6815Y-3.9972
X6.6831Y-4.0555
X6.6843Y-4.5781
X6.6961Y-2.5437
X6.6961Y-2.6992
X6.7Y-3.6283
X6.7Y-3.6776
X6.702Y-3.7287
X6.703Y-1.6873
X6.7049Y-1.4905
X6.7063Y-3.4248
X6.7069Y-1.585
X6.7152Y-2.211
X6.7152Y-2.3065
X6.7152Y-2.4
X6.7187Y-1.9177
X6.7256Y-4.6185
X6.7492Y-4.6746
X6.7492Y-4.7376
X6.7659Y-1.3724
X6.7693Y-3.424
X6.7728Y-3.3715
X6.7768Y-4.9374
X6.7787Y-3.6047
X6.7787Y-3.7474
X6.7807Y-3.9866
X6.7817Y-4.0673
X6.7965Y-3.8961
X6.7974Y-3.8331
X6.8053Y-1.9177
X6.8175Y-2.211
X6.8175Y-2.3065
X6.8175Y-2.4
X6.8181Y-3.4837
X6.8217Y-5.0122
X6.827Y-1.6873
X6.8288Y-4.7996
X6.8289Y-4.8814
X6.8309Y-1.4866
X6.8319Y-2.6992
X6.8388Y-2.5437
X6.8467Y-1.2602
X6.8467Y-1.3625
X6.8602Y-4.7986
X6.8602Y-4.8783
X6.8634Y-3.277
X6.8644Y-1.522
X6.8654Y-4.0575
X6.888Y-5.0024
X6.8923Y-4.8783
X6.8927Y-4.7996
X6.9037Y-3.838
X6.9051Y-3.2386
X6.9077Y-1.5653
X6.9156Y-2.2582
X6.9156Y-2.3606
X6.9156Y-2.459
X6.9156Y-2.5614
X6.9156Y-2.6362
X6.9156Y-2.7385
X6.9175Y-2.1598
X6.9195Y-1.2602
X6.9195Y-1.3625
X6.9199Y-5.0026
X6.9386Y-3.3445
X6.9411Y-3.838
X6.9411Y-1.6204
X6.9411Y-1.7169
X6.9411Y-1.8094
X6.9461Y-4.0535
X6.951Y-3.0811
X6.9589Y-3.2888
X6.9728Y-4.2055
X6.9795Y-3.8843
X6.9843Y-4.6579
X7.0002Y-4.5831
X7.0024Y-3.1929
X7.0297Y-3.4157
X7.0356Y-3.8827
X7.0573Y-2.6362
X7.0573Y-2.7386
X7.0573Y-2.461
X7.0573Y-2.5634
X7.0598Y-3.3461
X7.0671Y-4.0594
X7.0728Y-4.2055
X7.0888Y-3.7543
X7.0957Y-3.6244
X7.1014Y-4.776
X7.1024Y-4.839
X7.1209Y-3.1917
X7.1213Y-3.3469
X7.1341Y-4.4
X7.1341Y-4.4512
X7.1636Y-3.0841
X7.1886Y-4.7094
X7.1911Y-2.462
X7.1911Y-2.5644
X7.1921Y-3.6254
X7.1941Y-3.8144
X7.1969Y-3.2035
X7.2256Y-3.1047
X7.2404Y-3.9413
X7.2404Y-4.0181
X7.2661Y-3.7504
X7.2906Y-3.6746
X7.2949Y-4.7768
X7.2965Y-3.398
X7.2965Y-3.522
X7.2984Y-3.4591
X7.2984Y-3.585
X7.3358Y-3.9404
X7.3358Y-4.0181
X7.3535Y-3.2868
X7.3545Y-4.0772
X7.3732Y-4.9866
X7.378Y-4.5217
X7.3783Y-4.2984
X7.3783Y-4.3571
X7.3791Y-4.5756
X7.3998Y-4.088
X7.4146Y-3.1028
X7.4156Y-3.2888
X7.4192Y-3.4337
X7.4276Y-4.5217
X7.428Y-4.2984
X7.428Y-4.3571
X7.4287Y-4.5756
X7.4295Y-4.8453
X7.4352Y-3.4955
X7.4528Y-4.722
X7.4535Y-4.7602
X7.4608Y-3.3587
X7.4726Y-4.9837
X7.4728Y-4.2055
X7.4736Y-3.1992
X7.477Y-4.6433
X7.4825Y-4.5217
X7.4829Y-4.2984
X7.4829Y-4.3571
X7.4837Y-4.5756
X7.5071Y-3.3833
X7.5159Y-3.8715
X7.5465Y-3.213
X7.5465Y-4.522
X7.5469Y-4.2988
X7.5469Y-4.3575
X7.5474Y-3.1726
X7.5476Y-4.576
X7.5573Y-3.9581
X7.5583Y-4.0791
X7.5598Y-4.9567
X7.5701Y-4.7791
X7.5799Y-4.1392
X7.5907Y-3.4473
X7.5986Y-3.8715
X7.5998Y-4.1638
X7.6017Y-4.1952
X7.6122Y-4.522
X7.6126Y-4.2988
X7.6126Y-4.3575
X7.6134Y-4.576
X7.6183Y-4.4197
X7.6183Y-4.4512
X7.636Y-2.9906
X7.6695Y-3.1808
X7.6705Y-3.2123
X7.7118Y-4.7445
X7.7896Y-3.211
X7.8339Y-2.6402
X7.8339Y-2.7366
X7.8417Y-3.211
X8.0809Y-2.5919
X8.0868Y-2.774
X8.5051Y-4.1756
X8.5524Y-4.8449
X8.6154Y-4.1343
X9.1055Y-4.028
X9.1488Y-4.152
X9.1843Y-1.5526
X9.261Y-1.6018
X9.3142Y-4.028
X9.3161Y-4.2602
X9.3634Y-3.9512
T3
X5.9079Y-3.3012
X5.9079Y-3.4012
X5.9079Y-3.5012
X5.9079Y-3.6012
X6.0079Y-3.3512
X6.0079Y-3.4512
X6.0079Y-3.5512
X6.0079Y-3.6512
T4
X6.0376Y-2.2594
X6.0376Y-2.3594
X6.0376Y-2.4594
X6.0376Y-2.5594
X6.7659Y-1.4334
X6.7659Y-1.5334
X6.7659Y-1.6334
X6.7659Y-1.7334
X7.0671Y-4.3252
X7.0671Y-4.4252
X7.0671Y-4.5252
X7.0671Y-4.6252
X7.2102Y-4.2256
X7.2102Y-4.3256
X7.2102Y-4.4256
X7.2102Y-4.5256
X7.3102Y-4.3256
X7.3102Y-4.4256
X7.3102Y-4.5256
X7.5813Y-3.5526
X7.5813Y-3.6526
X7.6813Y-3.5526
X7.6813Y-3.6526
X7.8214Y-3.1224
X7.8214Y-3.2996
T5
X7.7229Y-3.0732
X7.7229Y-3.3488
T6
X6.3917Y-4.0201
X6.4917Y-4.0201
X6.5917Y-4.0201
T7
X6.2917Y-4.0201
T8
X5.9614Y-4.349
X5.9614Y-4.7486
T0
M30
