G04 #@! TF.GenerationSoftware,KiCad,Pcbnew,7.0.1-0*
G04 #@! TF.CreationDate,2023-06-29T07:12:14-04:00*
G04 #@! TF.ProjectId,CosmicWatch,436f736d-6963-4576-9174-63682e6b6963,rev?*
G04 #@! TF.SameCoordinates,Original*
G04 #@! TF.FileFunction,Soldermask,Bot*
G04 #@! TF.FilePolarity,Negative*
%FSLAX46Y46*%
G04 Gerber Fmt 4.6, Leading zero omitted, Abs format (unit mm)*
G04 Created by KiCad (PCBNEW 7.0.1-0) date 2023-06-29 07:12:14*
%MOMM*%
%LPD*%
G01*
G04 APERTURE LIST*
G04 Aperture macros list*
%AMRoundRect*
0 Rectangle with rounded corners*
0 $1 Rounding radius*
0 $2 $3 $4 $5 $6 $7 $8 $9 X,Y pos of 4 corners*
0 Add a 4 corners polygon primitive as box body*
4,1,4,$2,$3,$4,$5,$6,$7,$8,$9,$2,$3,0*
0 Add four circle primitives for the rounded corners*
1,1,$1+$1,$2,$3*
1,1,$1+$1,$4,$5*
1,1,$1+$1,$6,$7*
1,1,$1+$1,$8,$9*
0 Add four rect primitives between the rounded corners*
20,1,$1+$1,$2,$3,$4,$5,0*
20,1,$1+$1,$4,$5,$6,$7,0*
20,1,$1+$1,$6,$7,$8,$9,0*
20,1,$1+$1,$8,$9,$2,$3,0*%
%AMFreePoly0*
4,1,19,0.500000,-0.750000,0.000000,-0.750000,0.000000,-0.744911,-0.071157,-0.744911,-0.207708,-0.704816,-0.327430,-0.627875,-0.420627,-0.520320,-0.479746,-0.390866,-0.500000,-0.250000,-0.500000,0.250000,-0.479746,0.390866,-0.420627,0.520320,-0.327430,0.627875,-0.207708,0.704816,-0.071157,0.744911,0.000000,0.744911,0.000000,0.750000,0.500000,0.750000,0.500000,-0.750000,0.500000,-0.750000,
$1*%
%AMFreePoly1*
4,1,19,0.000000,0.744911,0.071157,0.744911,0.207708,0.704816,0.327430,0.627875,0.420627,0.520320,0.479746,0.390866,0.500000,0.250000,0.500000,-0.250000,0.479746,-0.390866,0.420627,-0.520320,0.327430,-0.627875,0.207708,-0.704816,0.071157,-0.744911,0.000000,-0.744911,0.000000,-0.750000,-0.500000,-0.750000,-0.500000,0.750000,0.000000,0.750000,0.000000,0.744911,0.000000,0.744911,
$1*%
G04 Aperture macros list end*
%ADD10R,4.000000X1.400000*%
%ADD11R,2.000000X4.000000*%
%ADD12R,1.700000X1.700000*%
%ADD13O,1.700000X1.700000*%
%ADD14C,2.032000*%
%ADD15C,2.000000*%
%ADD16R,2.000000X3.000000*%
%ADD17O,2.200000X3.000000*%
%ADD18R,5.000000X2.000000*%
%ADD19C,0.750000*%
%ADD20R,2.000000X3.800000*%
%ADD21R,2.500000X7.000000*%
%ADD22C,0.600000*%
%ADD23C,3.650000*%
%ADD24R,1.500000X1.500000*%
%ADD25C,1.500000*%
%ADD26RoundRect,0.225000X0.225000X0.250000X-0.225000X0.250000X-0.225000X-0.250000X0.225000X-0.250000X0*%
%ADD27R,0.500000X2.000000*%
%ADD28RoundRect,0.225000X-0.225000X-0.250000X0.225000X-0.250000X0.225000X0.250000X-0.225000X0.250000X0*%
%ADD29RoundRect,0.225000X0.250000X-0.225000X0.250000X0.225000X-0.250000X0.225000X-0.250000X-0.225000X0*%
%ADD30R,2.000000X0.500000*%
%ADD31R,1.800000X1.500000*%
%ADD32C,2.200000*%
%ADD33RoundRect,0.250000X-0.325000X-0.650000X0.325000X-0.650000X0.325000X0.650000X-0.325000X0.650000X0*%
%ADD34RoundRect,0.150000X0.150000X-0.512500X0.150000X0.512500X-0.150000X0.512500X-0.150000X-0.512500X0*%
%ADD35RoundRect,0.225000X-0.250000X0.225000X-0.250000X-0.225000X0.250000X-0.225000X0.250000X0.225000X0*%
%ADD36RoundRect,0.150000X-0.825000X-0.150000X0.825000X-0.150000X0.825000X0.150000X-0.825000X0.150000X0*%
%ADD37RoundRect,0.150000X-0.150000X0.512500X-0.150000X-0.512500X0.150000X-0.512500X0.150000X0.512500X0*%
%ADD38R,2.000000X1.500000*%
%ADD39R,1.000000X0.800000*%
%ADD40FreePoly0,0.000000*%
%ADD41FreePoly1,0.000000*%
%ADD42RoundRect,0.150000X-0.512500X-0.150000X0.512500X-0.150000X0.512500X0.150000X-0.512500X0.150000X0*%
%ADD43R,1.000000X1.000000*%
%ADD44R,1.000000X2.500000*%
%ADD45RoundRect,0.225000X-0.375000X0.225000X-0.375000X-0.225000X0.375000X-0.225000X0.375000X0.225000X0*%
%ADD46RoundRect,0.150000X0.825000X0.150000X-0.825000X0.150000X-0.825000X-0.150000X0.825000X-0.150000X0*%
%ADD47RoundRect,0.225000X0.375000X-0.225000X0.375000X0.225000X-0.375000X0.225000X-0.375000X-0.225000X0*%
%ADD48RoundRect,0.062500X0.375000X0.062500X-0.375000X0.062500X-0.375000X-0.062500X0.375000X-0.062500X0*%
%ADD49R,0.560000X2.150000*%
%ADD50RoundRect,0.225000X0.225000X0.375000X-0.225000X0.375000X-0.225000X-0.375000X0.225000X-0.375000X0*%
G04 APERTURE END LIST*
D10*
X142600000Y-99560000D03*
D11*
X192230000Y-102110000D03*
D12*
X195105000Y-90235000D03*
D13*
X195105000Y-92775000D03*
X192565000Y-90235000D03*
X192565000Y-92775000D03*
D14*
X196162500Y-85060000D03*
D15*
X198662500Y-83810000D03*
D14*
X196162500Y-78060000D03*
D15*
X198662500Y-79310000D03*
D16*
X159810000Y-102110000D03*
D17*
X162350000Y-102110000D03*
X164890000Y-102110000D03*
X167430000Y-102110000D03*
D12*
X153355023Y-65008630D03*
D13*
X153355023Y-62468630D03*
X153355023Y-59928630D03*
X153355023Y-57388630D03*
D18*
X153405000Y-36835000D03*
D12*
X179505000Y-117480000D03*
D13*
X179505000Y-114940000D03*
X179505000Y-112400000D03*
X179505000Y-109860000D03*
D18*
X153355000Y-32935000D03*
X171830000Y-68535000D03*
X171830000Y-64585000D03*
D12*
X171855023Y-36408630D03*
D13*
X171855023Y-38948630D03*
X171855023Y-41488630D03*
X171855023Y-44028630D03*
D19*
X171855023Y-49758630D03*
X172855023Y-50758630D03*
X170855023Y-50758630D03*
D20*
X199255000Y-68335000D03*
D21*
X205630000Y-68335000D03*
D22*
X152110000Y-52000000D03*
X153370000Y-52000000D03*
X153370000Y-49480000D03*
X154630000Y-49480000D03*
D23*
X143710000Y-82580000D03*
X143710000Y-94010000D03*
D24*
X150060000Y-83850000D03*
D25*
X152600000Y-85120000D03*
X150060000Y-86390000D03*
X152600000Y-87660000D03*
X150060000Y-88930000D03*
X152600000Y-90200000D03*
X150060000Y-91470000D03*
X152600000Y-92740000D03*
D26*
X143140000Y-104390000D03*
X141590000Y-104390000D03*
D27*
X213370000Y-79870000D03*
X214170000Y-79870000D03*
X214970000Y-79870000D03*
D28*
X191680000Y-81610000D03*
X193230000Y-81610000D03*
D29*
X167070000Y-93350000D03*
X167070000Y-91800000D03*
X144080000Y-125735000D03*
X144080000Y-124185000D03*
D28*
X168630000Y-93410000D03*
X170180000Y-93410000D03*
D30*
X154920000Y-112486700D03*
X154920000Y-113597800D03*
X154920000Y-114708900D03*
X154920000Y-115820000D03*
X154920000Y-116931100D03*
X154920000Y-118042200D03*
D31*
X146695000Y-108639500D03*
X146645000Y-122539500D03*
D30*
X154920000Y-119153300D03*
X154920000Y-120264400D03*
X154920000Y-110264500D03*
X154920000Y-111375600D03*
D32*
X151420000Y-120614500D03*
X151420000Y-110464500D03*
D33*
X143870000Y-106420000D03*
X146820000Y-106420000D03*
D13*
X183140000Y-107330000D03*
X185680000Y-109870000D03*
X183140000Y-109870000D03*
X185680000Y-112410000D03*
X183140000Y-112410000D03*
X185680000Y-114950000D03*
X183140000Y-114950000D03*
D28*
X173165000Y-86930000D03*
X174715000Y-86930000D03*
D34*
X163900000Y-87000000D03*
X162950000Y-87000000D03*
X162000000Y-87000000D03*
X162000000Y-84725000D03*
X162950000Y-84725000D03*
X163900000Y-84725000D03*
D28*
X165455000Y-84160000D03*
X167005000Y-84160000D03*
D35*
X160410000Y-85650000D03*
X160410000Y-87200000D03*
D26*
X174725000Y-90070000D03*
X173175000Y-90070000D03*
X174725000Y-88490000D03*
X173175000Y-88490000D03*
D29*
X164780000Y-96160000D03*
X164780000Y-94610000D03*
D36*
X176795000Y-90405000D03*
X176795000Y-89135000D03*
X176795000Y-87865000D03*
X176795000Y-86595000D03*
X181745000Y-86595000D03*
X181745000Y-87865000D03*
X181745000Y-89135000D03*
X181745000Y-90405000D03*
D28*
X167050000Y-88730000D03*
X168600000Y-88730000D03*
X167045000Y-90270000D03*
X168595000Y-90270000D03*
D29*
X165480000Y-87215000D03*
X165480000Y-85665000D03*
X157955000Y-88610000D03*
X157955000Y-87060000D03*
D28*
X171105000Y-97360000D03*
X172655000Y-97360000D03*
D29*
X174380000Y-103070000D03*
X174380000Y-101520000D03*
D37*
X174400000Y-97502500D03*
X175350000Y-97502500D03*
X176300000Y-97502500D03*
X176300000Y-99777500D03*
X174400000Y-99777500D03*
D28*
X154630023Y-49458630D03*
X156180023Y-49458630D03*
X154655023Y-47858630D03*
X156205023Y-47858630D03*
X154630023Y-46258630D03*
X156180023Y-46258630D03*
D26*
X189960000Y-117840000D03*
X188410000Y-117840000D03*
D28*
X178850000Y-121310000D03*
X180400000Y-121310000D03*
D35*
X183750000Y-119770000D03*
X183750000Y-121320000D03*
D29*
X186870000Y-119755000D03*
X186870000Y-121305000D03*
D26*
X157380023Y-51358630D03*
X155830023Y-51358630D03*
D38*
X192280000Y-121390000D03*
D39*
X191830000Y-119690000D03*
D38*
X192280000Y-118440000D03*
D29*
X156405000Y-88610000D03*
X156405000Y-87060000D03*
D40*
X146430000Y-102110000D03*
D41*
X147730000Y-102110000D03*
D28*
X153355023Y-53808630D03*
X154905023Y-53808630D03*
D26*
X150980023Y-52008630D03*
X149430023Y-52008630D03*
X150980023Y-48908630D03*
X149430023Y-48908630D03*
X150980023Y-50458630D03*
X149430023Y-50458630D03*
D28*
X174230023Y-50758630D03*
X175780023Y-50758630D03*
X174230023Y-49158630D03*
X175780023Y-49158630D03*
X174230023Y-47558630D03*
X175780023Y-47558630D03*
D26*
X170855023Y-50758630D03*
X169305023Y-50758630D03*
X170855023Y-52358630D03*
X169305023Y-52358630D03*
X170855023Y-53958630D03*
X169305023Y-53958630D03*
X171855023Y-47358630D03*
X170305023Y-47358630D03*
D29*
X188380000Y-83485000D03*
X188380000Y-81935000D03*
X186805000Y-83485000D03*
X186805000Y-81935000D03*
D26*
X188330000Y-78810000D03*
X186780000Y-78810000D03*
D28*
X186780000Y-80360000D03*
X188330000Y-80360000D03*
D42*
X182817500Y-82310000D03*
X182817500Y-81360000D03*
X182817500Y-80410000D03*
X185092500Y-80410000D03*
X185092500Y-81360000D03*
X185092500Y-82310000D03*
D35*
X157955000Y-90135000D03*
X157955000Y-91685000D03*
D26*
X152980023Y-47358630D03*
X151430023Y-47358630D03*
D43*
X162005000Y-82060000D03*
D44*
X160505000Y-80560000D03*
X163505000Y-80560000D03*
D26*
X185355000Y-86310000D03*
X183805000Y-86310000D03*
D43*
X186680000Y-95960000D03*
D44*
X188180000Y-97460000D03*
X185180000Y-97460000D03*
D45*
X175655000Y-92110000D03*
X175655000Y-95410000D03*
D37*
X179480000Y-97547500D03*
X180430000Y-97547500D03*
X181380000Y-97547500D03*
X181380000Y-99822500D03*
X179480000Y-99822500D03*
D26*
X181630000Y-93760000D03*
X180080000Y-93760000D03*
D28*
X144645000Y-104390000D03*
X146195000Y-104390000D03*
D35*
X185310000Y-119760000D03*
X185310000Y-121310000D03*
D38*
X176755000Y-120610000D03*
X176755000Y-122910000D03*
D20*
X170455000Y-122910000D03*
D38*
X176755000Y-125210000D03*
D46*
X165025000Y-89035000D03*
X165025000Y-90305000D03*
X165025000Y-91575000D03*
X165025000Y-92845000D03*
X160075000Y-92845000D03*
X160075000Y-91575000D03*
X160075000Y-90305000D03*
X160075000Y-89035000D03*
D40*
X146420000Y-99160000D03*
D41*
X147720000Y-99160000D03*
D35*
X174955023Y-44383630D03*
X174955023Y-45933630D03*
D28*
X183810000Y-89450000D03*
X185360000Y-89450000D03*
D29*
X192280000Y-96910000D03*
X192280000Y-95360000D03*
D35*
X173580000Y-92935000D03*
X173580000Y-94485000D03*
X193880000Y-95360000D03*
X193880000Y-96910000D03*
D29*
X163230000Y-96160000D03*
X163230000Y-94610000D03*
D47*
X178080000Y-95410000D03*
X178080000Y-92110000D03*
D35*
X157380000Y-119785000D03*
X157380000Y-121335000D03*
D28*
X180055000Y-95360000D03*
X181605000Y-95360000D03*
D26*
X185380000Y-87860000D03*
X183830000Y-87860000D03*
X172630000Y-98960000D03*
X171080000Y-98960000D03*
X180405000Y-124510000D03*
X178855000Y-124510000D03*
D36*
X159465000Y-122605000D03*
X159465000Y-121335000D03*
X159465000Y-120065000D03*
X159465000Y-118795000D03*
X164415000Y-118795000D03*
X164415000Y-120065000D03*
X164415000Y-121335000D03*
X164415000Y-122605000D03*
D43*
X179355000Y-82610000D03*
D44*
X177855000Y-81110000D03*
X180855000Y-81110000D03*
D28*
X172430023Y-53208630D03*
X173980023Y-53208630D03*
D26*
X180870000Y-84990000D03*
X179320000Y-84990000D03*
D28*
X183810000Y-90980000D03*
X185360000Y-90980000D03*
X176265000Y-84980000D03*
X177815000Y-84980000D03*
D48*
X190260000Y-119680000D03*
X190260000Y-120180000D03*
X190260000Y-120680000D03*
X190260000Y-121180000D03*
X188385000Y-121180000D03*
X188385000Y-120680000D03*
X188385000Y-120180000D03*
X188385000Y-119680000D03*
D49*
X189322500Y-120430000D03*
D50*
X166105000Y-124710000D03*
X162805000Y-124710000D03*
D26*
X180405000Y-126060000D03*
X178855000Y-126060000D03*
D28*
X178830000Y-122910000D03*
X180380000Y-122910000D03*
D29*
X150555023Y-55183630D03*
X150555023Y-53633630D03*
D26*
X185080000Y-78860000D03*
X183530000Y-78860000D03*
D29*
X179480000Y-103085000D03*
X179480000Y-101535000D03*
D26*
X190240000Y-123060000D03*
X188690000Y-123060000D03*
D29*
X166510000Y-120715000D03*
X166510000Y-119165000D03*
D43*
X157330000Y-94060000D03*
D44*
X158830000Y-95560000D03*
X155830000Y-95560000D03*
D29*
X176300000Y-103065000D03*
X176300000Y-101515000D03*
X181405000Y-103085000D03*
X181405000Y-101535000D03*
D28*
X166430000Y-122610000D03*
X167980000Y-122610000D03*
G36*
X239817000Y-50372881D02*
G01*
X239863119Y-50419000D01*
X239880000Y-50482000D01*
X239880000Y-59007810D01*
X239870409Y-59056028D01*
X239843095Y-59096905D01*
X239416905Y-59523095D01*
X239376028Y-59550409D01*
X239327810Y-59560000D01*
X238232190Y-59560000D01*
X238183972Y-59550409D01*
X238143095Y-59523095D01*
X236680001Y-58060000D01*
X235179998Y-58060000D01*
X233716905Y-59523095D01*
X233676028Y-59550409D01*
X233627810Y-59560000D01*
X231852000Y-59560000D01*
X231789000Y-59543119D01*
X231742881Y-59497000D01*
X231726000Y-59434000D01*
X231726000Y-58236000D01*
X231742881Y-58173000D01*
X231789000Y-58126881D01*
X231852000Y-58110000D01*
X231980000Y-58110000D01*
X231980000Y-54560000D01*
X233379999Y-54560000D01*
X233399712Y-54873331D01*
X233458541Y-55181722D01*
X233555560Y-55480313D01*
X233689233Y-55764384D01*
X233857455Y-56029460D01*
X234057577Y-56271367D01*
X234286440Y-56486283D01*
X234540430Y-56670818D01*
X234815555Y-56822069D01*
X235107460Y-56937642D01*
X235411546Y-57015718D01*
X235723021Y-57055067D01*
X236036979Y-57055067D01*
X236348453Y-57015718D01*
X236652539Y-56937642D01*
X236944444Y-56822069D01*
X237219569Y-56670818D01*
X237473559Y-56486283D01*
X237702422Y-56271367D01*
X237902544Y-56029460D01*
X238070766Y-55764384D01*
X238204439Y-55480313D01*
X238301458Y-55181722D01*
X238360287Y-54873331D01*
X238380000Y-54560000D01*
X238360287Y-54246668D01*
X238301458Y-53938277D01*
X238204439Y-53639686D01*
X238070766Y-53355615D01*
X237902544Y-53090539D01*
X237702422Y-52848632D01*
X237473559Y-52633716D01*
X237219569Y-52449181D01*
X236944444Y-52297930D01*
X236652539Y-52182357D01*
X236348453Y-52104281D01*
X236036979Y-52064933D01*
X235723021Y-52064933D01*
X235411546Y-52104281D01*
X235107460Y-52182357D01*
X234815555Y-52297930D01*
X234540430Y-52449181D01*
X234286440Y-52633716D01*
X234057577Y-52848632D01*
X233857455Y-53090539D01*
X233689233Y-53355615D01*
X233555560Y-53639686D01*
X233458541Y-53938277D01*
X233399712Y-54246668D01*
X233379999Y-54560000D01*
X231980000Y-54560000D01*
X231980000Y-50736000D01*
X231996881Y-50673000D01*
X232043000Y-50626881D01*
X232106000Y-50610000D01*
X238430000Y-50610000D01*
X238430000Y-50482000D01*
X238446881Y-50419000D01*
X238493000Y-50372881D01*
X238556000Y-50356000D01*
X239754000Y-50356000D01*
X239817000Y-50372881D01*
G37*
G36*
X211921000Y-70376881D02*
G01*
X211967119Y-70423000D01*
X211984000Y-70486000D01*
X211984000Y-73459809D01*
X211970267Y-73517012D01*
X211932061Y-73561745D01*
X211877711Y-73584258D01*
X211819064Y-73579642D01*
X211768905Y-73548904D01*
X210316905Y-72096905D01*
X210289591Y-72056028D01*
X210280000Y-72007810D01*
X210280000Y-70912190D01*
X210289591Y-70863972D01*
X210316905Y-70823095D01*
X210743095Y-70396905D01*
X210783972Y-70369591D01*
X210832190Y-70360000D01*
X211858000Y-70360000D01*
X211921000Y-70376881D01*
G37*
G36*
X211932061Y-75058255D02*
G01*
X211970267Y-75102988D01*
X211984000Y-75160191D01*
X211984000Y-78234000D01*
X211967119Y-78297000D01*
X211921000Y-78343119D01*
X211858000Y-78360000D01*
X211730000Y-78360000D01*
X211730000Y-121910000D01*
X211858000Y-121910000D01*
X211921000Y-121926881D01*
X211967119Y-121973000D01*
X211984000Y-122036000D01*
X211984000Y-125059809D01*
X211970267Y-125117012D01*
X211932061Y-125161745D01*
X211877711Y-125184258D01*
X211819064Y-125179642D01*
X211768905Y-125148904D01*
X210316905Y-123696905D01*
X210289591Y-123656028D01*
X210280000Y-123607810D01*
X210280000Y-123309999D01*
X210266905Y-123296904D01*
X210239591Y-123256027D01*
X210230000Y-123207809D01*
X210230000Y-119412169D01*
X210239612Y-119363901D01*
X210266980Y-119322998D01*
X210280000Y-119310000D01*
X210280000Y-83559999D01*
X210266905Y-83546904D01*
X210239591Y-83506027D01*
X210230000Y-83457809D01*
X210230000Y-80212191D01*
X210239591Y-80163973D01*
X210266905Y-80123096D01*
X210280000Y-80110001D01*
X210280000Y-76612190D01*
X210289591Y-76563972D01*
X210316905Y-76523095D01*
X211768905Y-75071096D01*
X211819064Y-75040358D01*
X211877711Y-75035742D01*
X211932061Y-75058255D01*
G37*
G36*
X211932061Y-126658255D02*
G01*
X211970267Y-126702988D01*
X211984000Y-126760191D01*
X211984000Y-129734000D01*
X211967119Y-129797000D01*
X211921000Y-129843119D01*
X211858000Y-129860000D01*
X210832190Y-129860000D01*
X210783972Y-129850409D01*
X210743095Y-129823095D01*
X210316905Y-129396905D01*
X210289591Y-129356028D01*
X210280000Y-129307810D01*
X210280000Y-128212190D01*
X210289591Y-128163972D01*
X210316905Y-128123095D01*
X211768905Y-126671096D01*
X211819064Y-126640358D01*
X211877711Y-126635742D01*
X211932061Y-126658255D01*
G37*
G36*
X239817000Y-57872881D02*
G01*
X239863119Y-57919000D01*
X239880000Y-57982000D01*
X239880000Y-59007810D01*
X239870409Y-59056028D01*
X239843095Y-59096905D01*
X239416905Y-59523095D01*
X239376028Y-59550409D01*
X239327810Y-59560000D01*
X238232190Y-59560000D01*
X238183972Y-59550409D01*
X238143095Y-59523095D01*
X236691096Y-58071095D01*
X236660358Y-58020936D01*
X236655742Y-57962289D01*
X236678255Y-57907939D01*
X236722988Y-57869733D01*
X236780191Y-57856000D01*
X239754000Y-57856000D01*
X239817000Y-57872881D01*
G37*
G36*
X183537012Y-57869733D02*
G01*
X183581745Y-57907939D01*
X183604258Y-57962289D01*
X183599642Y-58020936D01*
X183568904Y-58071095D01*
X182066904Y-59573095D01*
X182026027Y-59600409D01*
X181977809Y-59610000D01*
X180982191Y-59610000D01*
X180933973Y-59600409D01*
X180893096Y-59573096D01*
X180416905Y-59096906D01*
X180389591Y-59056028D01*
X180380000Y-59007810D01*
X180380000Y-57982000D01*
X180396881Y-57919000D01*
X180443000Y-57872881D01*
X180506000Y-57856000D01*
X183479809Y-57856000D01*
X183537012Y-57869733D01*
G37*
G36*
X188267000Y-57872881D02*
G01*
X188313119Y-57919000D01*
X188330000Y-57982000D01*
X188330000Y-58110000D01*
X231980000Y-58110000D01*
X231980000Y-57982000D01*
X231996881Y-57919000D01*
X232043000Y-57872881D01*
X232106000Y-57856000D01*
X235079809Y-57856000D01*
X235137012Y-57869733D01*
X235181745Y-57907939D01*
X235204258Y-57962289D01*
X235199642Y-58020936D01*
X235168904Y-58071095D01*
X233716905Y-59523095D01*
X233676028Y-59550409D01*
X233627810Y-59560000D01*
X206954999Y-59560000D01*
X206941904Y-59573095D01*
X206901027Y-59600409D01*
X206852809Y-59610000D01*
X205057191Y-59610000D01*
X205008973Y-59600409D01*
X204968096Y-59573095D01*
X204955001Y-59560000D01*
X186632190Y-59560000D01*
X186583972Y-59550409D01*
X186543095Y-59523095D01*
X185091096Y-58071095D01*
X185060358Y-58020936D01*
X185055742Y-57962289D01*
X185078255Y-57907939D01*
X185122988Y-57869733D01*
X185180191Y-57856000D01*
X188204000Y-57856000D01*
X188267000Y-57872881D01*
G37*
G36*
X239276028Y-29969591D02*
G01*
X239316905Y-29996905D01*
X239843095Y-30523095D01*
X239870409Y-30563972D01*
X239880000Y-30612190D01*
X239880000Y-31538000D01*
X239863119Y-31601000D01*
X239817000Y-31647119D01*
X239754000Y-31664000D01*
X237895199Y-31664000D01*
X237842356Y-31652384D01*
X237799257Y-31619677D01*
X237604037Y-31390362D01*
X237376375Y-31183602D01*
X237124146Y-31007659D01*
X236851476Y-30865408D01*
X236562865Y-30759196D01*
X236263042Y-30690764D01*
X235956920Y-30661232D01*
X235649548Y-30671089D01*
X235345949Y-30720173D01*
X235051124Y-30807676D01*
X234769909Y-30932162D01*
X234506920Y-31091587D01*
X234266476Y-31283335D01*
X234052529Y-31504252D01*
X233971099Y-31613362D01*
X233926603Y-31650631D01*
X233870121Y-31664000D01*
X232056000Y-31664000D01*
X231993000Y-31647119D01*
X231946881Y-31601000D01*
X231930000Y-31538000D01*
X231930000Y-31410000D01*
X188330000Y-31410000D01*
X188330000Y-31538000D01*
X188313119Y-31601000D01*
X188267000Y-31647119D01*
X188204000Y-31664000D01*
X186395199Y-31664000D01*
X186342356Y-31652384D01*
X186299257Y-31619677D01*
X186104037Y-31390362D01*
X185876375Y-31183602D01*
X185624146Y-31007659D01*
X185351476Y-30865408D01*
X185062865Y-30759196D01*
X184763042Y-30690764D01*
X184456920Y-30661232D01*
X184149548Y-30671089D01*
X183845949Y-30720173D01*
X183551124Y-30807676D01*
X183269909Y-30932162D01*
X183006920Y-31091587D01*
X182766476Y-31283335D01*
X182552529Y-31504252D01*
X182471099Y-31613362D01*
X182426603Y-31650631D01*
X182370121Y-31664000D01*
X180506000Y-31664000D01*
X180443000Y-31647119D01*
X180396881Y-31601000D01*
X180380000Y-31538000D01*
X180380000Y-30612190D01*
X180389591Y-30563972D01*
X180416905Y-30523095D01*
X180943095Y-29996905D01*
X180983972Y-29969591D01*
X181032190Y-29960000D01*
X239227810Y-29960000D01*
X239276028Y-29969591D01*
G37*
G36*
X239276028Y-29969591D02*
G01*
X239316905Y-29996905D01*
X239843095Y-30523095D01*
X239870409Y-30563972D01*
X239880000Y-30612190D01*
X239880000Y-59007810D01*
X239870409Y-59056028D01*
X239843095Y-59096905D01*
X239416905Y-59523095D01*
X239376028Y-59550409D01*
X239327810Y-59560000D01*
X238302000Y-59560000D01*
X238239000Y-59543119D01*
X238192881Y-59497000D01*
X238176000Y-59434000D01*
X238176000Y-55568915D01*
X238187992Y-55515267D01*
X238204439Y-55480314D01*
X238301458Y-55181722D01*
X238360287Y-54873331D01*
X238380000Y-54560000D01*
X238360287Y-54246668D01*
X238301458Y-53938277D01*
X238204439Y-53639685D01*
X238187992Y-53604733D01*
X238176000Y-53551085D01*
X238176000Y-50736000D01*
X238192881Y-50673000D01*
X238239000Y-50626881D01*
X238302000Y-50610000D01*
X238430000Y-50610000D01*
X238430000Y-36410000D01*
X238302000Y-36410000D01*
X238239000Y-36393119D01*
X238192881Y-36347000D01*
X238176000Y-36284000D01*
X238176000Y-33765968D01*
X238182419Y-33726265D01*
X238201508Y-33668769D01*
X238260296Y-33366908D01*
X238279999Y-33059999D01*
X238260296Y-32753091D01*
X238201508Y-32451230D01*
X238182419Y-32393735D01*
X238176000Y-32354032D01*
X238176000Y-30086000D01*
X238192881Y-30023000D01*
X238239000Y-29976881D01*
X238302000Y-29960000D01*
X239227810Y-29960000D01*
X239276028Y-29969591D01*
G37*
G36*
X188521000Y-29976881D02*
G01*
X188567119Y-30023000D01*
X188584000Y-30086000D01*
X188584000Y-31284000D01*
X188567119Y-31347000D01*
X188521000Y-31393119D01*
X188458000Y-31410000D01*
X188330000Y-31410000D01*
X188330000Y-36334000D01*
X188313119Y-36397000D01*
X188267000Y-36443119D01*
X188204000Y-36460000D01*
X181830000Y-36460000D01*
X181830000Y-36588000D01*
X181813119Y-36651000D01*
X181767000Y-36697119D01*
X181704000Y-36714000D01*
X180506000Y-36714000D01*
X180443000Y-36697119D01*
X180396881Y-36651000D01*
X180380000Y-36588000D01*
X180380000Y-33213764D01*
X181984931Y-33213764D01*
X182024259Y-33518785D01*
X182102265Y-33816255D01*
X182217676Y-34101323D01*
X182368590Y-34369285D01*
X182552529Y-34615747D01*
X182766476Y-34836664D01*
X183006920Y-35028412D01*
X183269909Y-35187837D01*
X183551124Y-35312323D01*
X183845949Y-35399826D01*
X184149548Y-35448910D01*
X184456920Y-35458767D01*
X184763042Y-35429235D01*
X185062865Y-35360803D01*
X185351476Y-35254591D01*
X185624146Y-35112340D01*
X185876375Y-34936397D01*
X186104037Y-34729637D01*
X186303394Y-34495462D01*
X186471164Y-34237722D01*
X186604599Y-33960643D01*
X186701509Y-33668766D01*
X186760296Y-33366908D01*
X186779999Y-33059999D01*
X186760296Y-32753091D01*
X186701509Y-32451233D01*
X186604599Y-32159356D01*
X186471164Y-31882277D01*
X186303394Y-31624537D01*
X186104037Y-31390362D01*
X185876375Y-31183602D01*
X185624146Y-31007659D01*
X185351476Y-30865408D01*
X185062865Y-30759196D01*
X184763042Y-30690764D01*
X184456920Y-30661232D01*
X184149548Y-30671089D01*
X183845949Y-30720173D01*
X183551124Y-30807676D01*
X183269909Y-30932162D01*
X183006920Y-31091587D01*
X182766476Y-31283335D01*
X182552529Y-31504252D01*
X182368590Y-31750714D01*
X182217676Y-32018676D01*
X182102265Y-32303744D01*
X182024259Y-32601214D01*
X181984931Y-32906236D01*
X181984931Y-33213764D01*
X180380000Y-33213764D01*
X180380000Y-30612190D01*
X180389591Y-30563972D01*
X180416905Y-30523095D01*
X180943095Y-29996905D01*
X180983972Y-29969591D01*
X181032190Y-29960000D01*
X188458000Y-29960000D01*
X188521000Y-29976881D01*
G37*
G36*
X182021000Y-29976881D02*
G01*
X182067119Y-30023000D01*
X182084000Y-30086000D01*
X182084000Y-32357151D01*
X182079879Y-32389111D01*
X182024259Y-32601212D01*
X181984931Y-32906236D01*
X181984931Y-33213764D01*
X182024259Y-33518787D01*
X182079879Y-33730889D01*
X182084000Y-33762849D01*
X182084000Y-36334000D01*
X182067119Y-36397000D01*
X182021000Y-36443119D01*
X181958000Y-36460000D01*
X181830000Y-36460000D01*
X181830000Y-50460000D01*
X181958000Y-50460000D01*
X182021000Y-50476881D01*
X182067119Y-50523000D01*
X182084000Y-50586000D01*
X182084000Y-53551085D01*
X182072008Y-53604733D01*
X182055560Y-53639685D01*
X181958541Y-53938277D01*
X181899712Y-54246668D01*
X181879999Y-54560000D01*
X181899712Y-54873331D01*
X181958541Y-55181722D01*
X182055560Y-55480314D01*
X182072008Y-55515267D01*
X182084000Y-55568915D01*
X182084000Y-59484000D01*
X182067119Y-59547000D01*
X182021000Y-59593119D01*
X181958000Y-59610000D01*
X180982191Y-59610000D01*
X180933973Y-59600409D01*
X180893096Y-59573096D01*
X180416905Y-59096906D01*
X180389591Y-59056028D01*
X180380000Y-59007810D01*
X180380000Y-30612190D01*
X180389591Y-30563972D01*
X180416905Y-30523095D01*
X180943095Y-29996905D01*
X180983972Y-29969591D01*
X181032190Y-29960000D01*
X181958000Y-29960000D01*
X182021000Y-29976881D01*
G37*
G36*
X239276028Y-70369591D02*
G01*
X239316905Y-70396905D01*
X239793095Y-70873095D01*
X239820409Y-70913972D01*
X239830000Y-70962190D01*
X239830000Y-129257810D01*
X239820409Y-129306028D01*
X239793095Y-129346905D01*
X239316905Y-129823095D01*
X239276028Y-129850409D01*
X239227810Y-129860000D01*
X238202000Y-129860000D01*
X238139000Y-129843119D01*
X238092881Y-129797000D01*
X238076000Y-129734000D01*
X238076000Y-127941903D01*
X238090289Y-127883623D01*
X238129914Y-127838561D01*
X238276375Y-127736397D01*
X238504037Y-127529637D01*
X238703394Y-127295462D01*
X238871164Y-127037722D01*
X239004599Y-126760643D01*
X239101509Y-126468766D01*
X239160296Y-126166908D01*
X239179999Y-125860000D01*
X239160296Y-125553091D01*
X239101509Y-125251233D01*
X239004599Y-124959356D01*
X238871164Y-124682277D01*
X238703394Y-124424537D01*
X238504037Y-124190362D01*
X238276375Y-123983602D01*
X238129914Y-123881439D01*
X238090289Y-123836377D01*
X238076000Y-123778097D01*
X238076000Y-122036000D01*
X238092881Y-121973000D01*
X238139000Y-121926881D01*
X238202000Y-121910000D01*
X238330000Y-121910000D01*
X238330000Y-78360000D01*
X238202000Y-78360000D01*
X238139000Y-78343119D01*
X238092881Y-78297000D01*
X238076000Y-78234000D01*
X238076000Y-76441903D01*
X238090289Y-76383623D01*
X238129914Y-76338561D01*
X238276375Y-76236397D01*
X238504037Y-76029637D01*
X238703394Y-75795462D01*
X238871164Y-75537722D01*
X239004599Y-75260643D01*
X239101509Y-74968766D01*
X239160296Y-74666908D01*
X239179999Y-74360000D01*
X239160296Y-74053091D01*
X239101509Y-73751233D01*
X239004599Y-73459356D01*
X238871164Y-73182277D01*
X238703394Y-72924537D01*
X238504037Y-72690362D01*
X238276375Y-72483602D01*
X238129914Y-72381439D01*
X238090289Y-72336377D01*
X238076000Y-72278097D01*
X238076000Y-70486000D01*
X238092881Y-70423000D01*
X238139000Y-70376881D01*
X238202000Y-70360000D01*
X239227810Y-70360000D01*
X239276028Y-70369591D01*
G37*
G36*
X181767000Y-50222881D02*
G01*
X181813119Y-50269000D01*
X181830000Y-50332000D01*
X181830000Y-50460000D01*
X188204000Y-50460000D01*
X188267000Y-50476881D01*
X188313119Y-50523000D01*
X188330000Y-50586000D01*
X188330000Y-58110000D01*
X188458000Y-58110000D01*
X188521000Y-58126881D01*
X188567119Y-58173000D01*
X188584000Y-58236000D01*
X188584000Y-59434000D01*
X188567119Y-59497000D01*
X188521000Y-59543119D01*
X188458000Y-59560000D01*
X186632190Y-59560000D01*
X186583972Y-59550409D01*
X186543095Y-59523095D01*
X185080001Y-58060000D01*
X183579998Y-58060000D01*
X182066904Y-59573095D01*
X182026027Y-59600409D01*
X181977809Y-59610000D01*
X180982191Y-59610000D01*
X180933973Y-59600409D01*
X180893096Y-59573096D01*
X180416905Y-59096906D01*
X180389591Y-59056028D01*
X180380000Y-59007810D01*
X180380000Y-54560000D01*
X181879999Y-54560000D01*
X181899712Y-54873331D01*
X181958541Y-55181722D01*
X182055560Y-55480313D01*
X182189233Y-55764384D01*
X182357455Y-56029460D01*
X182557577Y-56271367D01*
X182786440Y-56486283D01*
X183040430Y-56670818D01*
X183315555Y-56822069D01*
X183607460Y-56937642D01*
X183911546Y-57015718D01*
X184223021Y-57055067D01*
X184536979Y-57055067D01*
X184848453Y-57015718D01*
X185152539Y-56937642D01*
X185444444Y-56822069D01*
X185719569Y-56670818D01*
X185973559Y-56486283D01*
X186202422Y-56271367D01*
X186402544Y-56029460D01*
X186570766Y-55764384D01*
X186704439Y-55480313D01*
X186801458Y-55181722D01*
X186860287Y-54873331D01*
X186880000Y-54560000D01*
X186860287Y-54246668D01*
X186801458Y-53938277D01*
X186704439Y-53639686D01*
X186570766Y-53355615D01*
X186402544Y-53090539D01*
X186202422Y-52848632D01*
X185973559Y-52633716D01*
X185719569Y-52449181D01*
X185444444Y-52297930D01*
X185152539Y-52182357D01*
X184848453Y-52104281D01*
X184536979Y-52064933D01*
X184223021Y-52064933D01*
X183911546Y-52104281D01*
X183607460Y-52182357D01*
X183315555Y-52297930D01*
X183040430Y-52449181D01*
X182786440Y-52633716D01*
X182557577Y-52848632D01*
X182357455Y-53090539D01*
X182189233Y-53355615D01*
X182055560Y-53639686D01*
X181958541Y-53938277D01*
X181899712Y-54246668D01*
X181879999Y-54560000D01*
X180380000Y-54560000D01*
X180380000Y-50332000D01*
X180396881Y-50269000D01*
X180443000Y-50222881D01*
X180506000Y-50206000D01*
X181704000Y-50206000D01*
X181767000Y-50222881D01*
G37*
G36*
X208367000Y-66351881D02*
G01*
X208413119Y-66398000D01*
X208430000Y-66461000D01*
X208430000Y-70209000D01*
X208413119Y-70272000D01*
X208367000Y-70318119D01*
X208304000Y-70335000D01*
X207381000Y-70335000D01*
X207318000Y-70318119D01*
X207271881Y-70272000D01*
X207255000Y-70209000D01*
X207255000Y-66461000D01*
X207271881Y-66398000D01*
X207318000Y-66351881D01*
X207381000Y-66335000D01*
X208304000Y-66335000D01*
X208367000Y-66351881D01*
G37*
G36*
X239276028Y-70369591D02*
G01*
X239316905Y-70396905D01*
X239793095Y-70873095D01*
X239820409Y-70913972D01*
X239830000Y-70962190D01*
X239830000Y-78488000D01*
X239813119Y-78551000D01*
X239767000Y-78597119D01*
X239704000Y-78614000D01*
X238456000Y-78614000D01*
X238393000Y-78597119D01*
X238346881Y-78551000D01*
X238330000Y-78488000D01*
X238330000Y-78360000D01*
X233456000Y-78360000D01*
X233393000Y-78343119D01*
X233346881Y-78297000D01*
X233330000Y-78234000D01*
X233330000Y-74513764D01*
X234384931Y-74513764D01*
X234424259Y-74818785D01*
X234502265Y-75116255D01*
X234617676Y-75401323D01*
X234768590Y-75669285D01*
X234952529Y-75915747D01*
X235166476Y-76136664D01*
X235406920Y-76328412D01*
X235669909Y-76487837D01*
X235951124Y-76612323D01*
X236245949Y-76699826D01*
X236549548Y-76748910D01*
X236856920Y-76758767D01*
X237163042Y-76729235D01*
X237462865Y-76660803D01*
X237751476Y-76554591D01*
X238024146Y-76412340D01*
X238276375Y-76236397D01*
X238504037Y-76029637D01*
X238703394Y-75795462D01*
X238871164Y-75537722D01*
X239004599Y-75260643D01*
X239101509Y-74968766D01*
X239160296Y-74666908D01*
X239179999Y-74360000D01*
X239160296Y-74053091D01*
X239101509Y-73751233D01*
X239004599Y-73459356D01*
X238871164Y-73182277D01*
X238703394Y-72924537D01*
X238504037Y-72690362D01*
X238276375Y-72483602D01*
X238024146Y-72307659D01*
X237751476Y-72165408D01*
X237462865Y-72059196D01*
X237163042Y-71990764D01*
X236856920Y-71961232D01*
X236549548Y-71971089D01*
X236245949Y-72020173D01*
X235951124Y-72107676D01*
X235669909Y-72232162D01*
X235406920Y-72391587D01*
X235166476Y-72583335D01*
X234952529Y-72804252D01*
X234768590Y-73050714D01*
X234617676Y-73318676D01*
X234502265Y-73603744D01*
X234424259Y-73901214D01*
X234384931Y-74206236D01*
X234384931Y-74513764D01*
X233330000Y-74513764D01*
X233330000Y-71860000D01*
X233202000Y-71860000D01*
X233139000Y-71843119D01*
X233092881Y-71797000D01*
X233076000Y-71734000D01*
X233076000Y-70486000D01*
X233092881Y-70423000D01*
X233139000Y-70376881D01*
X233202000Y-70360000D01*
X239227810Y-70360000D01*
X239276028Y-70369591D01*
G37*
G36*
X211667000Y-121672881D02*
G01*
X211713119Y-121719000D01*
X211730000Y-121782000D01*
X211730000Y-121910000D01*
X219104000Y-121910000D01*
X219167000Y-121926881D01*
X219213119Y-121973000D01*
X219230000Y-122036000D01*
X219230000Y-128360000D01*
X219358000Y-128360000D01*
X219421000Y-128376881D01*
X219467119Y-128423000D01*
X219484000Y-128486000D01*
X219484000Y-129734000D01*
X219467119Y-129797000D01*
X219421000Y-129843119D01*
X219358000Y-129860000D01*
X210832190Y-129860000D01*
X210783972Y-129850409D01*
X210743095Y-129823095D01*
X210316905Y-129396905D01*
X210289591Y-129356028D01*
X210280000Y-129307810D01*
X210280000Y-128212190D01*
X210289591Y-128163972D01*
X210316905Y-128123095D01*
X211780000Y-126660000D01*
X211780000Y-125860000D01*
X212779999Y-125860000D01*
X212799712Y-126173331D01*
X212858541Y-126481722D01*
X212955560Y-126780313D01*
X213089233Y-127064384D01*
X213257455Y-127329460D01*
X213457577Y-127571367D01*
X213686440Y-127786283D01*
X213940430Y-127970818D01*
X214215555Y-128122069D01*
X214507460Y-128237642D01*
X214811546Y-128315718D01*
X215123021Y-128355067D01*
X215436979Y-128355067D01*
X215748453Y-128315718D01*
X216052539Y-128237642D01*
X216344444Y-128122069D01*
X216619569Y-127970818D01*
X216873559Y-127786283D01*
X217102422Y-127571367D01*
X217302544Y-127329460D01*
X217470766Y-127064384D01*
X217604439Y-126780313D01*
X217701458Y-126481722D01*
X217760287Y-126173331D01*
X217780000Y-125860000D01*
X217760287Y-125546668D01*
X217701458Y-125238277D01*
X217604439Y-124939686D01*
X217470766Y-124655615D01*
X217302544Y-124390539D01*
X217102422Y-124148632D01*
X216873559Y-123933716D01*
X216619569Y-123749181D01*
X216344444Y-123597930D01*
X216052539Y-123482357D01*
X215748453Y-123404281D01*
X215436979Y-123364933D01*
X215123021Y-123364933D01*
X214811546Y-123404281D01*
X214507460Y-123482357D01*
X214215555Y-123597930D01*
X213940430Y-123749181D01*
X213686440Y-123933716D01*
X213457577Y-124148632D01*
X213257455Y-124390539D01*
X213089233Y-124655615D01*
X212955560Y-124939686D01*
X212858541Y-125238277D01*
X212799712Y-125546668D01*
X212779999Y-125860000D01*
X211780000Y-125860000D01*
X211780000Y-125160000D01*
X211779999Y-125159998D01*
X210316905Y-123696905D01*
X210289591Y-123656028D01*
X210280000Y-123607810D01*
X210280000Y-123309999D01*
X210266905Y-123296904D01*
X210239591Y-123256027D01*
X210230000Y-123207809D01*
X210230000Y-121782000D01*
X210246881Y-121719000D01*
X210293000Y-121672881D01*
X210356000Y-121656000D01*
X211604000Y-121656000D01*
X211667000Y-121672881D01*
G37*
G36*
X239276028Y-29969591D02*
G01*
X239316905Y-29996905D01*
X239843095Y-30523095D01*
X239870409Y-30563972D01*
X239880000Y-30612190D01*
X239880000Y-36538000D01*
X239863119Y-36601000D01*
X239817000Y-36647119D01*
X239754000Y-36664000D01*
X238556000Y-36664000D01*
X238493000Y-36647119D01*
X238446881Y-36601000D01*
X238430000Y-36538000D01*
X238430000Y-36410000D01*
X232056000Y-36410000D01*
X231993000Y-36393119D01*
X231946881Y-36347000D01*
X231930000Y-36284000D01*
X231930000Y-33213764D01*
X233484931Y-33213764D01*
X233524259Y-33518785D01*
X233602265Y-33816255D01*
X233717676Y-34101323D01*
X233868590Y-34369285D01*
X234052529Y-34615747D01*
X234266476Y-34836664D01*
X234506920Y-35028412D01*
X234769909Y-35187837D01*
X235051124Y-35312323D01*
X235345949Y-35399826D01*
X235649548Y-35448910D01*
X235956920Y-35458767D01*
X236263042Y-35429235D01*
X236562865Y-35360803D01*
X236851476Y-35254591D01*
X237124146Y-35112340D01*
X237376375Y-34936397D01*
X237604037Y-34729637D01*
X237803394Y-34495462D01*
X237971164Y-34237722D01*
X238104599Y-33960643D01*
X238201509Y-33668766D01*
X238260296Y-33366908D01*
X238279999Y-33059999D01*
X238260296Y-32753091D01*
X238201509Y-32451233D01*
X238104599Y-32159356D01*
X237971164Y-31882277D01*
X237803394Y-31624537D01*
X237604037Y-31390362D01*
X237376375Y-31183602D01*
X237124146Y-31007659D01*
X236851476Y-30865408D01*
X236562865Y-30759196D01*
X236263042Y-30690764D01*
X235956920Y-30661232D01*
X235649548Y-30671089D01*
X235345949Y-30720173D01*
X235051124Y-30807676D01*
X234769909Y-30932162D01*
X234506920Y-31091587D01*
X234266476Y-31283335D01*
X234052529Y-31504252D01*
X233868590Y-31750714D01*
X233717676Y-32018676D01*
X233602265Y-32303744D01*
X233524259Y-32601214D01*
X233484931Y-32906236D01*
X233484931Y-33213764D01*
X231930000Y-33213764D01*
X231930000Y-31410000D01*
X231802000Y-31410000D01*
X231739000Y-31393119D01*
X231692881Y-31347000D01*
X231676000Y-31284000D01*
X231676000Y-30086000D01*
X231692881Y-30023000D01*
X231739000Y-29976881D01*
X231802000Y-29960000D01*
X239227810Y-29960000D01*
X239276028Y-29969591D01*
G37*
G36*
X214207904Y-128119847D02*
G01*
X214208181Y-128119150D01*
X214213702Y-128121335D01*
X214214676Y-128121586D01*
X214215556Y-128122070D01*
X214507460Y-128237642D01*
X214811546Y-128315718D01*
X215123021Y-128355067D01*
X215436979Y-128355067D01*
X215748453Y-128315718D01*
X216052539Y-128237642D01*
X216344443Y-128122070D01*
X216345324Y-128121586D01*
X216346297Y-128121335D01*
X216351819Y-128119150D01*
X216352095Y-128119847D01*
X216406027Y-128106000D01*
X219104000Y-128106000D01*
X219167000Y-128122881D01*
X219213119Y-128169000D01*
X219230000Y-128232000D01*
X219230000Y-128360000D01*
X233330000Y-128360000D01*
X233330000Y-128232000D01*
X233346881Y-128169000D01*
X233393000Y-128122881D01*
X233456000Y-128106000D01*
X235911514Y-128106000D01*
X235947365Y-128111208D01*
X236245949Y-128199826D01*
X236549548Y-128248910D01*
X236856920Y-128258767D01*
X237163042Y-128229235D01*
X237462865Y-128160803D01*
X237590716Y-128113753D01*
X237634232Y-128106000D01*
X239704000Y-128106000D01*
X239767000Y-128122881D01*
X239813119Y-128169000D01*
X239830000Y-128232000D01*
X239830000Y-129257810D01*
X239820409Y-129306028D01*
X239793095Y-129346905D01*
X239316905Y-129823095D01*
X239276028Y-129850409D01*
X239227810Y-129860000D01*
X210832190Y-129860000D01*
X210783972Y-129850409D01*
X210743095Y-129823095D01*
X210316905Y-129396905D01*
X210289591Y-129356028D01*
X210280000Y-129307810D01*
X210280000Y-128232000D01*
X210296881Y-128169000D01*
X210343000Y-128122881D01*
X210406000Y-128106000D01*
X214153973Y-128106000D01*
X214207904Y-128119847D01*
G37*
G36*
X239276028Y-70369591D02*
G01*
X239316905Y-70396905D01*
X239793095Y-70873095D01*
X239820409Y-70913972D01*
X239830000Y-70962190D01*
X239830000Y-71988000D01*
X239813119Y-72051000D01*
X239767000Y-72097119D01*
X239704000Y-72114000D01*
X237634232Y-72114000D01*
X237590716Y-72106247D01*
X237462865Y-72059196D01*
X237163042Y-71990764D01*
X236856920Y-71961232D01*
X236549548Y-71971089D01*
X236245949Y-72020173D01*
X235947365Y-72108792D01*
X235911514Y-72114000D01*
X233456000Y-72114000D01*
X233393000Y-72097119D01*
X233346881Y-72051000D01*
X233330000Y-71988000D01*
X233330000Y-71860000D01*
X219380000Y-71860000D01*
X219380000Y-71988000D01*
X219363119Y-72051000D01*
X219317000Y-72097119D01*
X219254000Y-72114000D01*
X216406027Y-72114000D01*
X216352095Y-72100152D01*
X216351819Y-72100850D01*
X216346297Y-72098664D01*
X216345324Y-72098414D01*
X216344443Y-72097929D01*
X216052539Y-71982357D01*
X215748453Y-71904281D01*
X215436979Y-71864933D01*
X215123021Y-71864933D01*
X214811546Y-71904281D01*
X214507460Y-71982357D01*
X214215556Y-72097929D01*
X214214676Y-72098414D01*
X214213702Y-72098664D01*
X214208181Y-72100850D01*
X214207904Y-72100152D01*
X214153973Y-72114000D01*
X210406000Y-72114000D01*
X210343000Y-72097119D01*
X210296881Y-72051000D01*
X210280000Y-71988000D01*
X210280000Y-70912190D01*
X210289591Y-70863972D01*
X210316905Y-70823095D01*
X210743095Y-70396905D01*
X210783972Y-70369591D01*
X210832190Y-70360000D01*
X239227810Y-70360000D01*
X239276028Y-70369591D01*
G37*
G36*
X219571000Y-70376881D02*
G01*
X219617119Y-70423000D01*
X219634000Y-70486000D01*
X219634000Y-71734000D01*
X219617119Y-71797000D01*
X219571000Y-71843119D01*
X219508000Y-71860000D01*
X219380000Y-71860000D01*
X219380000Y-78234000D01*
X219363119Y-78297000D01*
X219317000Y-78343119D01*
X219254000Y-78360000D01*
X211730000Y-78360000D01*
X211730000Y-78488000D01*
X211713119Y-78551000D01*
X211667000Y-78597119D01*
X211604000Y-78614000D01*
X210406000Y-78614000D01*
X210343000Y-78597119D01*
X210296881Y-78551000D01*
X210280000Y-78488000D01*
X210280000Y-76612190D01*
X210289591Y-76563972D01*
X210316905Y-76523095D01*
X211780000Y-75060000D01*
X211780000Y-74359999D01*
X212779999Y-74359999D01*
X212799712Y-74673331D01*
X212858541Y-74981722D01*
X212955560Y-75280313D01*
X213089233Y-75564384D01*
X213257455Y-75829460D01*
X213457577Y-76071367D01*
X213686440Y-76286283D01*
X213940430Y-76470818D01*
X214215555Y-76622069D01*
X214507460Y-76737642D01*
X214811546Y-76815718D01*
X215123021Y-76855067D01*
X215436979Y-76855067D01*
X215748453Y-76815718D01*
X216052539Y-76737642D01*
X216344444Y-76622069D01*
X216619569Y-76470818D01*
X216873559Y-76286283D01*
X217102422Y-76071367D01*
X217302544Y-75829460D01*
X217470766Y-75564384D01*
X217604439Y-75280313D01*
X217701458Y-74981722D01*
X217760287Y-74673331D01*
X217780000Y-74359999D01*
X217760287Y-74046668D01*
X217701458Y-73738277D01*
X217604439Y-73439686D01*
X217470766Y-73155615D01*
X217302544Y-72890539D01*
X217102422Y-72648632D01*
X216873559Y-72433716D01*
X216619569Y-72249181D01*
X216344444Y-72097930D01*
X216052539Y-71982357D01*
X215748453Y-71904281D01*
X215436979Y-71864933D01*
X215123021Y-71864933D01*
X214811546Y-71904281D01*
X214507460Y-71982357D01*
X214215555Y-72097930D01*
X213940430Y-72249181D01*
X213686440Y-72433716D01*
X213457577Y-72648632D01*
X213257455Y-72890539D01*
X213089233Y-73155615D01*
X212955560Y-73439686D01*
X212858541Y-73738277D01*
X212799712Y-74046668D01*
X212779999Y-74359999D01*
X211780000Y-74359999D01*
X211780000Y-73560000D01*
X211779999Y-73559998D01*
X210316905Y-72096905D01*
X210289591Y-72056028D01*
X210280000Y-72007810D01*
X210280000Y-70912190D01*
X210289591Y-70863972D01*
X210316905Y-70823095D01*
X210743095Y-70396905D01*
X210783972Y-70369591D01*
X210832190Y-70360000D01*
X219508000Y-70360000D01*
X219571000Y-70376881D01*
G37*
G36*
X239767000Y-121672881D02*
G01*
X239813119Y-121719000D01*
X239830000Y-121782000D01*
X239830000Y-129257810D01*
X239820409Y-129306028D01*
X239793095Y-129346905D01*
X239316905Y-129823095D01*
X239276028Y-129850409D01*
X239227810Y-129860000D01*
X233202000Y-129860000D01*
X233139000Y-129843119D01*
X233092881Y-129797000D01*
X233076000Y-129734000D01*
X233076000Y-128486000D01*
X233092881Y-128423000D01*
X233139000Y-128376881D01*
X233202000Y-128360000D01*
X233330000Y-128360000D01*
X233330000Y-126013764D01*
X234384931Y-126013764D01*
X234424259Y-126318785D01*
X234502265Y-126616255D01*
X234617676Y-126901323D01*
X234768590Y-127169285D01*
X234952529Y-127415747D01*
X235166476Y-127636664D01*
X235406920Y-127828412D01*
X235669909Y-127987837D01*
X235951124Y-128112323D01*
X236245949Y-128199826D01*
X236549548Y-128248910D01*
X236856920Y-128258767D01*
X237163042Y-128229235D01*
X237462865Y-128160803D01*
X237751476Y-128054591D01*
X238024146Y-127912340D01*
X238276375Y-127736397D01*
X238504037Y-127529637D01*
X238703394Y-127295462D01*
X238871164Y-127037722D01*
X239004599Y-126760643D01*
X239101509Y-126468766D01*
X239160296Y-126166908D01*
X239179999Y-125860000D01*
X239160296Y-125553091D01*
X239101509Y-125251233D01*
X239004599Y-124959356D01*
X238871164Y-124682277D01*
X238703394Y-124424537D01*
X238504037Y-124190362D01*
X238276375Y-123983602D01*
X238024146Y-123807659D01*
X237751476Y-123665408D01*
X237462865Y-123559196D01*
X237163042Y-123490764D01*
X236856920Y-123461232D01*
X236549548Y-123471089D01*
X236245949Y-123520173D01*
X235951124Y-123607676D01*
X235669909Y-123732162D01*
X235406920Y-123891587D01*
X235166476Y-124083335D01*
X234952529Y-124304252D01*
X234768590Y-124550714D01*
X234617676Y-124818676D01*
X234502265Y-125103744D01*
X234424259Y-125401214D01*
X234384931Y-125706236D01*
X234384931Y-126013764D01*
X233330000Y-126013764D01*
X233330000Y-122036000D01*
X233346881Y-121973000D01*
X233393000Y-121926881D01*
X233456000Y-121910000D01*
X238330000Y-121910000D01*
X238330000Y-121782000D01*
X238346881Y-121719000D01*
X238393000Y-121672881D01*
X238456000Y-121656000D01*
X239704000Y-121656000D01*
X239767000Y-121672881D01*
G37*
M02*
