G04 #@! TF.GenerationSoftware,KiCad,Pcbnew,7.0.1-0*
G04 #@! TF.CreationDate,2023-06-29T07:12:14-04:00*
G04 #@! TF.ProjectId,CosmicWatch,436f736d-6963-4576-9174-63682e6b6963,rev?*
G04 #@! TF.SameCoordinates,Original*
G04 #@! TF.FileFunction,Profile,NP*
%FSLAX46Y46*%
G04 Gerber Fmt 4.6, Leading zero omitted, Abs format (unit mm)*
G04 Created by KiCad (PCBNEW 7.0.1-0) date 2023-06-29 07:12:14*
%MOMM*%
%LPD*%
G01*
G04 APERTURE LIST*
G04 #@! TA.AperFunction,Profile*
%ADD10C,0.100000*%
G04 #@! TD*
G04 APERTURE END LIST*
D10*
X172630000Y-129710000D02*
X147480000Y-129710000D01*
X146780000Y-129710000D02*
X142130000Y-129710000D01*
X179130000Y-129710000D02*
X172630000Y-129710000D01*
X180080000Y-129710000D02*
X179130000Y-129710000D01*
X180780000Y-129710000D02*
X180130000Y-129710000D01*
X180130000Y-129710000D02*
X180080000Y-129710000D01*
X147480000Y-129710000D02*
X146780000Y-129710000D01*
X181980000Y-74510000D02*
X142330000Y-74510000D01*
X142130000Y-74510000D02*
X142330000Y-74510000D01*
X181980000Y-74510000D02*
X182980000Y-74510000D01*
X194030000Y-129710000D02*
X180780000Y-129710000D01*
X141130000Y-129860000D02*
X139980000Y-129860000D01*
X141380000Y-129760000D02*
X141130000Y-129860000D01*
X141380000Y-129760000D02*
X142030000Y-129760000D01*
X142030000Y-129760000D02*
X142130000Y-129710000D01*
X182980000Y-74510000D02*
X185180000Y-74510000D01*
X139980000Y-96360000D02*
X139980000Y-80260000D01*
X139980000Y-106260000D02*
X139980000Y-129860000D01*
X139980000Y-80260000D02*
X139980000Y-74260000D01*
X197255000Y-126485000D02*
X194030000Y-129710000D01*
X197255000Y-123310000D02*
X197255000Y-126485000D01*
X197255000Y-123310000D02*
X210280000Y-123310000D01*
X210780000Y-129860000D02*
X239280000Y-129860000D01*
X235130000Y-70360000D02*
X210780000Y-70360000D01*
X229680000Y-80160000D02*
X218280000Y-80160000D01*
X218280000Y-80160000D02*
X218280000Y-102260000D01*
X218280000Y-102260000D02*
X229680000Y-102260000D01*
X229680000Y-102260000D02*
X229680000Y-80160000D01*
X210280000Y-72060000D02*
X211780000Y-73560000D01*
X211780000Y-73560000D02*
X211780000Y-75060000D01*
X210280000Y-128160000D02*
X211780000Y-126660000D01*
X211780000Y-126660000D02*
X211780000Y-125160000D01*
X211780000Y-125160000D02*
X210280000Y-123660000D01*
X210280000Y-70860000D02*
X210280000Y-72060000D01*
X210280000Y-128160000D02*
X210280000Y-129360000D01*
X210280000Y-83560000D02*
X210280000Y-119310000D01*
X226030625Y-120660000D02*
G75*
G03*
X226030625Y-120660000I-2000625J0D01*
G01*
X239280000Y-70360000D02*
X239880000Y-70960000D01*
X239280000Y-129860000D02*
X239880000Y-129260000D01*
X210280000Y-70860000D02*
X210780000Y-70360000D01*
X210780000Y-129860000D02*
X210280000Y-129360000D01*
X194080000Y-74510000D02*
X185180000Y-74510000D01*
X189030000Y-100035000D02*
X191180000Y-100035000D01*
X232207139Y-110960000D02*
G75*
G03*
X232207139Y-110960000I-2777139J0D01*
G01*
X197255000Y-119310000D02*
X197255000Y-95810000D01*
X211780000Y-75060000D02*
X210280000Y-76560000D01*
X200130000Y-84710000D02*
X198080000Y-86110000D01*
X210280000Y-123310000D02*
X210280000Y-123660000D01*
X200130000Y-83560000D02*
X200130000Y-84710000D01*
X189030000Y-104185000D02*
X189030000Y-100035000D01*
X197880000Y-76910000D02*
X200130000Y-78360000D01*
X164355023Y-33208630D02*
G75*
G03*
X164355023Y-33208630I-1000000J0D01*
G01*
X154355023Y-68208630D02*
G75*
G03*
X154355023Y-68208630I-1000000J0D01*
G01*
X148355023Y-55208630D02*
X148355000Y-69085000D01*
X155430000Y-33985000D02*
X155430000Y-35785000D01*
X155430000Y-35785000D02*
X151280000Y-35785000D01*
X151280000Y-35785000D02*
X151280000Y-33985000D01*
X151280000Y-33985000D02*
X155430000Y-33985000D01*
X148355023Y-70708630D02*
X157055023Y-70708630D01*
X159355023Y-70708630D02*
X157055023Y-70708630D01*
X197880000Y-76910000D02*
X194080000Y-74510000D01*
X204955000Y-80110000D02*
X200355000Y-80110000D01*
X200130000Y-83560000D02*
X210280000Y-83560000D01*
X217780000Y-74360000D02*
G75*
G03*
X217780000Y-74360000I-2500000J0D01*
G01*
X239180000Y-74360000D02*
G75*
G03*
X239180000Y-74360000I-2400000J0D01*
G01*
X239180000Y-125860000D02*
G75*
G03*
X239180000Y-125860000I-2400000J0D01*
G01*
X217780000Y-125860000D02*
G75*
G03*
X217780000Y-125860000I-2500000J0D01*
G01*
X139980000Y-98760000D02*
X139980000Y-96360000D01*
X176855023Y-60708630D02*
X176855023Y-30708630D01*
X166855023Y-31708630D02*
X166855023Y-60708630D01*
X172855023Y-33208630D02*
G75*
G03*
X172855023Y-33208630I-1000000J0D01*
G01*
X182855000Y-68208630D02*
G75*
G03*
X182855000Y-68208630I-1000000J0D01*
G01*
X210280000Y-80110000D02*
X210280000Y-76560000D01*
X158355023Y-69708630D02*
X158355023Y-40708630D01*
X185080000Y-58060000D02*
X186580000Y-59560000D01*
X183580000Y-58060000D02*
X185080000Y-58060000D01*
X235180000Y-58060000D02*
X233680000Y-59560000D01*
X180380000Y-30560000D02*
X180380000Y-59060000D01*
X239880000Y-59060000D02*
X239880000Y-30560000D01*
X182080000Y-59560000D02*
X183580000Y-58060000D01*
X238180000Y-59560000D02*
X236680000Y-58060000D01*
X236680000Y-58060000D02*
X235180000Y-58060000D01*
X228930000Y-47160000D02*
X228930000Y-46210000D01*
X228180000Y-45460000D02*
X219680000Y-45460000D01*
X218930000Y-46210000D02*
X218930000Y-48260000D01*
X220430000Y-49760000D02*
X227430000Y-49760000D01*
X228930000Y-48260000D02*
X228930000Y-47160000D01*
X187980000Y-49460000D02*
X204580000Y-49460000D01*
X204580000Y-36860000D02*
X187980000Y-36860000D01*
X187980000Y-36860000D02*
X187980000Y-49460000D01*
X233480000Y-59560000D02*
X206955000Y-59560000D01*
X233680000Y-59560000D02*
X233480000Y-59560000D01*
X180880000Y-59560000D02*
X180880000Y-60710000D01*
X204580000Y-49460000D02*
X204580000Y-36860000D01*
X186580000Y-59560000D02*
X204955000Y-59560000D01*
X239380000Y-59560000D02*
X239880000Y-59060000D01*
X180380000Y-59060000D02*
X180880000Y-59560000D01*
X229930000Y-51610000D02*
X229930000Y-53560000D01*
X229930000Y-53560000D02*
X217930000Y-53560000D01*
X217930000Y-53560000D02*
X217930000Y-51610000D01*
X217930000Y-51610000D02*
X229930000Y-51610000D01*
X180380000Y-30560000D02*
X180980000Y-29960000D01*
X239880000Y-30560000D02*
X239280000Y-29960000D01*
X180980000Y-29960000D02*
X239280000Y-29960000D01*
X220430000Y-49760000D02*
X218930000Y-48260000D01*
X227430000Y-49760000D02*
X228930000Y-48260000D01*
X228930000Y-46210000D02*
X228180000Y-45460000D01*
X218930000Y-46210000D02*
X219680000Y-45460000D01*
X238180000Y-59560000D02*
X239380000Y-59560000D01*
X186780000Y-33060000D02*
G75*
G03*
X186780000Y-33060000I-2400000J0D01*
G01*
X186880000Y-54560000D02*
G75*
G03*
X186880000Y-54560000I-2500000J0D01*
G01*
X238380000Y-54560000D02*
G75*
G03*
X238380000Y-54560000I-2500000J0D01*
G01*
X238280000Y-33060000D02*
G75*
G03*
X238280000Y-33060000I-2400000J0D01*
G01*
X214480000Y-53510000D02*
X206930000Y-53510000D01*
X214480000Y-46010000D02*
X214480000Y-53510000D01*
X214480000Y-46010000D02*
X206930000Y-46010000D01*
X206930000Y-53510000D02*
X206930000Y-46010000D01*
X140230000Y-74260000D02*
X141330000Y-72110000D01*
X195355000Y-70335000D02*
X201955000Y-70335000D01*
X206955000Y-66335000D02*
X206955000Y-59560000D01*
X206955000Y-80110000D02*
X206955000Y-70335000D01*
X206955000Y-70335000D02*
X208430000Y-70335000D01*
X201955000Y-66335000D02*
X201955000Y-65810000D01*
X206955000Y-66335000D02*
X208430000Y-66335000D01*
X201955000Y-66335000D02*
X195330000Y-66335000D01*
X139980000Y-98760000D02*
X140530000Y-98760000D01*
X159355023Y-60708630D02*
X166855023Y-60708630D01*
X201955000Y-70860000D02*
X204955000Y-72335000D01*
X148355023Y-70708630D02*
X144080000Y-70710000D01*
X239130000Y-70360000D02*
X239280000Y-70360000D01*
X142905000Y-69085000D02*
X148355000Y-69085000D01*
X184355023Y-70708630D02*
X159355023Y-70708630D01*
X195330000Y-66335000D02*
X195330000Y-70335000D01*
X148355023Y-30708630D02*
X158355023Y-30708630D01*
X169755000Y-67460000D02*
X169755000Y-65660000D01*
X198630000Y-119290000D02*
X197255000Y-119310000D01*
X198080000Y-86110000D02*
X198080000Y-94960000D01*
X191180000Y-100035000D02*
X191180000Y-104185000D01*
X180880000Y-60710000D02*
X176855023Y-60708630D01*
X159355023Y-69708630D02*
X158355023Y-69708630D01*
X204955000Y-64335000D02*
X204955000Y-59560000D01*
X173905000Y-67460000D02*
X169755000Y-67460000D01*
X204955000Y-80110000D02*
X204955000Y-72335000D01*
X184355023Y-70708630D02*
X184355000Y-60710000D01*
X159355023Y-69708630D02*
X159355023Y-60708630D01*
X148355023Y-40708630D02*
X148355023Y-55208630D01*
X166855023Y-30708630D02*
X176855023Y-30708630D01*
X144355023Y-33208630D02*
G75*
G03*
X144355023Y-33208630I-1000000J0D01*
G01*
X140530000Y-106260000D02*
X139980000Y-106260000D01*
X169755000Y-65660000D02*
X173905000Y-65660000D01*
X165855023Y-40708630D02*
X158355023Y-40708630D01*
X158355023Y-30708630D02*
X166855023Y-30708630D01*
X201955000Y-70335000D02*
X201955000Y-70860000D01*
X165855023Y-31708630D02*
X166855023Y-31708630D01*
X200130000Y-80110000D02*
X200355000Y-80110000D01*
X140530000Y-98760000D02*
X140530000Y-106260000D01*
X195330000Y-70335000D02*
X195355000Y-70335000D01*
X141330000Y-72110000D02*
X142905000Y-69085000D01*
X200130000Y-78360000D02*
X200130000Y-80110000D01*
X235130000Y-70360000D02*
X239130000Y-70360000D01*
X140855023Y-30708630D02*
X140855023Y-40708630D01*
X208430000Y-66335000D02*
X208430000Y-70335000D01*
X239880000Y-70960000D02*
X239880000Y-129260000D01*
X222980309Y-110960000D02*
G75*
G03*
X222980309Y-110960000I-4050309J0D01*
G01*
X162855000Y-68208630D02*
G75*
G03*
X162855000Y-68208630I-1000000J0D01*
G01*
X142130000Y-74510000D02*
X143230000Y-72110000D01*
X206955000Y-80110000D02*
X210280000Y-80110000D01*
X140855023Y-40708630D02*
X148355023Y-40708630D01*
X182080000Y-60710000D02*
X184355000Y-60710000D01*
X191180000Y-104185000D02*
X189030000Y-104185000D01*
X198630000Y-119290000D02*
X210280000Y-119310000D01*
X182080000Y-59560000D02*
X182080000Y-60710000D01*
X198080000Y-94960000D02*
X197255000Y-95810000D01*
X148355023Y-30708630D02*
X140855023Y-30708630D01*
X201955000Y-65810000D02*
X204955000Y-64335000D01*
X165855023Y-40708630D02*
X165855023Y-31708630D01*
X173905000Y-65660000D02*
X173905000Y-67460000D01*
X140230000Y-74260000D02*
X139980000Y-74260000D01*
X144080000Y-70710000D02*
X143230000Y-72110000D01*
M02*
