G04 #@! TF.GenerationSoftware,KiCad,Pcbnew,7.0.1-0*
G04 #@! TF.CreationDate,2023-10-17T11:13:41-04:00*
G04 #@! TF.ProjectId,CosmicWatch,436f736d-6963-4576-9174-63682e6b6963,rev?*
G04 #@! TF.SameCoordinates,Original*
G04 #@! TF.FileFunction,Soldermask,Top*
G04 #@! TF.FilePolarity,Negative*
%FSLAX46Y46*%
G04 Gerber Fmt 4.6, Leading zero omitted, Abs format (unit mm)*
G04 Created by KiCad (PCBNEW 7.0.1-0) date 2023-10-17 11:13:41*
%MOMM*%
%LPD*%
G01*
G04 APERTURE LIST*
%ADD10R,2.000000X4.000000*%
%ADD11R,1.700000X1.700000*%
%ADD12O,1.700000X1.700000*%
%ADD13C,2.032000*%
%ADD14C,2.000000*%
%ADD15R,2.000000X3.000000*%
%ADD16O,2.200000X3.000000*%
%ADD17R,5.000000X2.000000*%
%ADD18R,1.700000X3.000000*%
%ADD19R,2.000000X3.800000*%
%ADD20R,2.500000X7.000000*%
%ADD21R,2.000000X0.500000*%
%ADD22C,0.600000*%
%ADD23C,0.270000*%
%ADD24C,3.650000*%
%ADD25R,1.500000X1.500000*%
%ADD26C,1.500000*%
%ADD27C,2.200000*%
%ADD28R,4.000000X1.500000*%
%ADD29R,4.000000X1.400000*%
%ADD30R,0.650000X1.560000*%
G04 APERTURE END LIST*
D10*
X192230000Y-102110000D03*
D11*
X195105000Y-90235000D03*
D12*
X195105000Y-92775000D03*
X192565000Y-90235000D03*
X192565000Y-92775000D03*
D13*
X196162500Y-85060000D03*
D14*
X198662500Y-83810000D03*
D13*
X196162500Y-78060000D03*
D14*
X198662500Y-79310000D03*
D15*
X159810000Y-102110000D03*
D16*
X162350000Y-102110000D03*
X164890000Y-102110000D03*
X167430000Y-102110000D03*
D11*
X159555023Y-64478630D03*
D12*
X159555023Y-61938630D03*
X159555023Y-59398630D03*
X159555023Y-56858630D03*
D17*
X159610000Y-36305000D03*
D18*
X141550000Y-125500000D03*
X144090000Y-125500000D03*
X146630000Y-125500000D03*
X149170000Y-125500000D03*
X151710000Y-125500000D03*
X154250000Y-125500000D03*
X156790000Y-125500000D03*
X159330000Y-125500000D03*
X161870000Y-125500000D03*
X172030000Y-125500000D03*
X177110000Y-125500000D03*
X179650000Y-125500000D03*
X182190000Y-125500000D03*
X184730000Y-125500000D03*
X187270000Y-125500000D03*
X189810000Y-125500000D03*
X189810000Y-105920000D03*
X187270000Y-105920000D03*
X184730000Y-105920000D03*
X179650000Y-105920000D03*
X177110000Y-105920000D03*
X174570000Y-105920000D03*
X172030000Y-105920000D03*
X169490000Y-105920000D03*
X166950000Y-105920000D03*
X164410000Y-105920000D03*
X161870000Y-105920000D03*
X159330000Y-105920000D03*
X156790000Y-105920000D03*
X154250000Y-105920000D03*
X151710000Y-105920000D03*
X149170000Y-105920000D03*
X146630000Y-105920000D03*
X144090000Y-105920000D03*
X141550000Y-105920000D03*
D17*
X159560000Y-32405000D03*
D19*
X199255000Y-68335000D03*
D20*
X205630000Y-68335000D03*
D21*
X207580000Y-40700000D03*
X207580000Y-40700000D03*
X207580000Y-41500000D03*
X207580000Y-42300000D03*
D22*
X158320000Y-51485000D03*
D23*
X158320000Y-50225000D03*
X158320000Y-48965000D03*
D22*
X159580000Y-51485000D03*
X159580000Y-48965000D03*
D23*
X160840000Y-51485000D03*
X160840000Y-50225000D03*
D22*
X160840000Y-48965000D03*
D24*
X142225000Y-82575000D03*
X142225000Y-94005000D03*
D25*
X148575000Y-83845000D03*
D26*
X151115000Y-85115000D03*
X148575000Y-86385000D03*
X151115000Y-87655000D03*
X148575000Y-88925000D03*
X151115000Y-90195000D03*
X148575000Y-91465000D03*
X151115000Y-92735000D03*
D27*
X151420000Y-120614500D03*
X151420000Y-110464500D03*
D12*
X183140000Y-107330000D03*
X185680000Y-109870000D03*
X183140000Y-109870000D03*
X185680000Y-112410000D03*
X183140000Y-112410000D03*
X185680000Y-114950000D03*
X183140000Y-114950000D03*
D11*
X180220000Y-109920000D03*
D12*
X180220000Y-112460000D03*
X180220000Y-115000000D03*
X180220000Y-117540000D03*
D28*
X142600000Y-102460000D03*
D29*
X142600000Y-99560000D03*
D30*
X161970000Y-114845000D03*
G36*
X179046892Y-30726903D02*
G01*
X179093017Y-30773078D01*
X179109853Y-30836136D01*
X179109000Y-31627573D01*
X179099380Y-31675725D01*
X179080001Y-31704704D01*
X179072185Y-61403125D01*
X179072185Y-61403277D01*
X179060185Y-69584185D01*
X179043243Y-69647107D01*
X178997132Y-69693150D01*
X178934185Y-69710000D01*
X144546334Y-69710000D01*
X144524017Y-69716281D01*
X142632697Y-69713614D01*
X142618926Y-69710000D01*
X140196000Y-69710000D01*
X140133000Y-69693119D01*
X140086881Y-69647000D01*
X140070000Y-69584000D01*
X140070000Y-65311168D01*
X143575131Y-65311168D01*
X143615860Y-65509361D01*
X143695653Y-65695303D01*
X143811240Y-65861370D01*
X143957894Y-66000775D01*
X144129606Y-66107805D01*
X144319347Y-66178077D01*
X144519351Y-66208716D01*
X144721426Y-66198468D01*
X144917308Y-66147750D01*
X145098961Y-66058646D01*
X145258968Y-65934792D01*
X145390762Y-65781268D01*
X145488957Y-65604357D01*
X145549529Y-65411299D01*
X145559711Y-65311168D01*
X173575131Y-65311168D01*
X173615860Y-65509361D01*
X173695653Y-65695303D01*
X173811240Y-65861370D01*
X173957894Y-66000775D01*
X174129606Y-66107805D01*
X174319347Y-66178077D01*
X174519351Y-66208716D01*
X174721426Y-66198468D01*
X174917308Y-66147750D01*
X175098961Y-66058646D01*
X175258968Y-65934792D01*
X175390762Y-65781268D01*
X175488957Y-65604357D01*
X175549529Y-65411299D01*
X175569999Y-65209999D01*
X175549529Y-65008700D01*
X175488957Y-64815642D01*
X175390762Y-64638731D01*
X175258968Y-64485207D01*
X175098961Y-64361353D01*
X174917308Y-64272249D01*
X174721426Y-64221531D01*
X174519351Y-64211283D01*
X174319347Y-64241922D01*
X174129606Y-64312194D01*
X173957894Y-64419224D01*
X173811240Y-64558629D01*
X173695653Y-64724696D01*
X173615860Y-64910638D01*
X173575131Y-65108832D01*
X173575131Y-65311168D01*
X145559711Y-65311168D01*
X145569999Y-65209999D01*
X145549529Y-65008700D01*
X145488957Y-64815642D01*
X145390762Y-64638731D01*
X145258968Y-64485207D01*
X145098961Y-64361353D01*
X144917308Y-64272249D01*
X144721426Y-64221531D01*
X144519351Y-64211283D01*
X144319347Y-64241922D01*
X144129606Y-64312194D01*
X143957894Y-64419224D01*
X143811240Y-64558629D01*
X143695653Y-64724696D01*
X143615860Y-64910638D01*
X143575131Y-65108832D01*
X143575131Y-65311168D01*
X140070000Y-65311168D01*
X140070000Y-35311168D01*
X143575131Y-35311168D01*
X143615860Y-35509361D01*
X143695653Y-35695303D01*
X143811240Y-35861370D01*
X143957894Y-36000775D01*
X144129606Y-36107805D01*
X144319347Y-36178077D01*
X144519351Y-36208716D01*
X144721426Y-36198468D01*
X144917308Y-36147750D01*
X145098961Y-36058646D01*
X145258968Y-35934792D01*
X145390762Y-35781268D01*
X145488957Y-35604357D01*
X145549529Y-35411299D01*
X145559711Y-35311168D01*
X173575131Y-35311168D01*
X173615860Y-35509361D01*
X173695653Y-35695303D01*
X173811240Y-35861370D01*
X173957894Y-36000775D01*
X174129606Y-36107805D01*
X174319347Y-36178077D01*
X174519351Y-36208716D01*
X174721426Y-36198468D01*
X174917308Y-36147750D01*
X175098961Y-36058646D01*
X175258968Y-35934792D01*
X175390762Y-35781268D01*
X175488957Y-35604357D01*
X175549529Y-35411299D01*
X175569999Y-35210000D01*
X175549529Y-35008700D01*
X175488957Y-34815642D01*
X175390762Y-34638731D01*
X175258968Y-34485207D01*
X175098961Y-34361353D01*
X174917308Y-34272249D01*
X174721426Y-34221531D01*
X174519351Y-34211283D01*
X174319347Y-34241922D01*
X174129606Y-34312194D01*
X173957894Y-34419224D01*
X173811240Y-34558629D01*
X173695653Y-34724696D01*
X173615860Y-34910638D01*
X173575131Y-35108832D01*
X173575131Y-35311168D01*
X145559711Y-35311168D01*
X145569999Y-35210000D01*
X145549529Y-35008700D01*
X145488957Y-34815642D01*
X145390762Y-34638731D01*
X145258968Y-34485207D01*
X145098961Y-34361353D01*
X144917308Y-34272249D01*
X144721426Y-34221531D01*
X144519351Y-34211283D01*
X144319347Y-34241922D01*
X144129606Y-34312194D01*
X143957894Y-34419224D01*
X143811240Y-34558629D01*
X143695653Y-34724696D01*
X143615860Y-34910638D01*
X143575131Y-35108832D01*
X143575131Y-35311168D01*
X140070000Y-35311168D01*
X140070000Y-33455000D01*
X157485000Y-33455000D01*
X157485000Y-35255000D01*
X161635000Y-35255000D01*
X161635000Y-33455000D01*
X157485000Y-33455000D01*
X140070000Y-33455000D01*
X140070000Y-30845930D01*
X140086870Y-30782949D01*
X140132963Y-30736832D01*
X140195935Y-30719930D01*
X159585000Y-30710000D01*
X178983853Y-30710000D01*
X179046892Y-30726903D01*
G37*
G36*
X232567000Y-98426881D02*
G01*
X232613119Y-98473000D01*
X232630000Y-98536000D01*
X232630000Y-101257810D01*
X232620409Y-101306028D01*
X232593095Y-101346905D01*
X231519095Y-102420905D01*
X231462611Y-102453517D01*
X231397389Y-102453517D01*
X231340905Y-102420905D01*
X231169095Y-102249095D01*
X231136483Y-102192611D01*
X231136483Y-102127389D01*
X231169095Y-102070905D01*
X232130000Y-101110000D01*
X232130000Y-98536000D01*
X232146881Y-98473000D01*
X232193000Y-98426881D01*
X232256000Y-98410000D01*
X232504000Y-98410000D01*
X232567000Y-98426881D01*
G37*
G36*
X233367000Y-98376881D02*
G01*
X233413119Y-98423000D01*
X233430000Y-98486000D01*
X233430000Y-104707810D01*
X233420409Y-104756028D01*
X233393095Y-104796905D01*
X232569095Y-105620905D01*
X232512611Y-105653517D01*
X232447389Y-105653517D01*
X232390905Y-105620905D01*
X232219095Y-105449095D01*
X232186483Y-105392611D01*
X232186483Y-105327389D01*
X232219095Y-105270904D01*
X232930000Y-104560000D01*
X232930000Y-98486000D01*
X232946881Y-98423000D01*
X232993000Y-98376881D01*
X233056000Y-98360000D01*
X233304000Y-98360000D01*
X233367000Y-98376881D01*
G37*
G36*
X234167000Y-98326881D02*
G01*
X234213119Y-98373000D01*
X234230000Y-98436000D01*
X234230000Y-105460001D01*
X236752727Y-107982727D01*
X236783661Y-108033493D01*
X236787875Y-108092791D01*
X236764432Y-108147422D01*
X236617167Y-108343777D01*
X236560329Y-108386259D01*
X236489547Y-108391289D01*
X236427272Y-108357272D01*
X233766905Y-105696905D01*
X233739591Y-105656028D01*
X233730000Y-105607810D01*
X233730000Y-98436000D01*
X233746881Y-98373000D01*
X233793000Y-98326881D01*
X233856000Y-98310000D01*
X234104000Y-98310000D01*
X234167000Y-98326881D01*
G37*
G36*
X235567000Y-96226881D02*
G01*
X235613119Y-96273000D01*
X235630000Y-96336000D01*
X235630000Y-101010001D01*
X236652727Y-102032727D01*
X236683661Y-102083493D01*
X236687875Y-102142791D01*
X236664432Y-102197422D01*
X236517167Y-102393777D01*
X236460329Y-102436259D01*
X236389547Y-102441289D01*
X236327272Y-102407272D01*
X235166905Y-101246905D01*
X235139591Y-101206028D01*
X235130000Y-101157810D01*
X235130000Y-96336000D01*
X235146881Y-96273000D01*
X235193000Y-96226881D01*
X235256000Y-96210000D01*
X235504000Y-96210000D01*
X235567000Y-96226881D01*
G37*
G36*
X236367000Y-96276881D02*
G01*
X236413119Y-96323000D01*
X236430000Y-96386000D01*
X236430000Y-98610001D01*
X237912794Y-100092794D01*
X237941861Y-100138144D01*
X237949333Y-100191489D01*
X237933843Y-100243080D01*
X237811122Y-100463979D01*
X237772271Y-100506679D01*
X237718454Y-100527570D01*
X237660969Y-100522267D01*
X237611883Y-100491883D01*
X235966905Y-98846905D01*
X235939591Y-98806028D01*
X235930000Y-98757810D01*
X235930000Y-96386000D01*
X235946881Y-96323000D01*
X235993000Y-96276881D01*
X236056000Y-96260000D01*
X236304000Y-96260000D01*
X236367000Y-96276881D01*
G37*
G36*
X213367000Y-80276881D02*
G01*
X213413119Y-80323000D01*
X213430000Y-80386000D01*
X213430000Y-117060001D01*
X217443095Y-121073095D01*
X217470409Y-121113972D01*
X217480000Y-121162190D01*
X217480000Y-123034000D01*
X217463119Y-123097000D01*
X217417000Y-123143119D01*
X217354000Y-123160000D01*
X217106000Y-123160000D01*
X217043000Y-123143119D01*
X216996881Y-123097000D01*
X216980000Y-123034000D01*
X216980000Y-121310000D01*
X216979999Y-121309998D01*
X212966905Y-117296905D01*
X212939591Y-117256028D01*
X212930000Y-117207810D01*
X212930000Y-80386000D01*
X212946881Y-80323000D01*
X212993000Y-80276881D01*
X213056000Y-80260000D01*
X213304000Y-80260000D01*
X213367000Y-80276881D01*
G37*
G36*
X214367187Y-80276837D02*
G01*
X214413294Y-80322848D01*
X214430263Y-80385736D01*
X214480000Y-104160000D01*
X214480001Y-104160002D01*
X216140904Y-105820905D01*
X216173516Y-105877389D01*
X216173516Y-105942611D01*
X216140905Y-105999095D01*
X215969096Y-106170905D01*
X215912611Y-106203517D01*
X215847389Y-106203517D01*
X215790905Y-106170905D01*
X214016797Y-104396797D01*
X213989533Y-104356041D01*
X213979892Y-104307963D01*
X213930262Y-80386261D01*
X213947056Y-80323151D01*
X213993187Y-80276924D01*
X214056262Y-80260000D01*
X214304263Y-80260000D01*
X214367187Y-80276837D01*
G37*
G36*
X215417000Y-80276881D02*
G01*
X215463119Y-80323000D01*
X215480000Y-80386000D01*
X215480000Y-101310001D01*
X218990904Y-104820905D01*
X219023516Y-104877389D01*
X219023516Y-104942611D01*
X218990905Y-104999095D01*
X218819096Y-105170905D01*
X218762611Y-105203517D01*
X218697389Y-105203517D01*
X218640905Y-105170905D01*
X215016905Y-101546905D01*
X214989591Y-101506028D01*
X214980000Y-101457810D01*
X214980000Y-80386000D01*
X214996881Y-80323000D01*
X215043000Y-80276881D01*
X215106000Y-80260000D01*
X215354000Y-80260000D01*
X215417000Y-80276881D01*
G37*
G36*
X208367000Y-66351881D02*
G01*
X208413119Y-66398000D01*
X208430000Y-66461000D01*
X208430000Y-70209000D01*
X208413119Y-70272000D01*
X208367000Y-70318119D01*
X208304000Y-70335000D01*
X207410499Y-70335000D01*
X207347499Y-70318119D01*
X207301380Y-70272000D01*
X207284499Y-70209000D01*
X207284499Y-66461000D01*
X207301380Y-66398000D01*
X207347499Y-66351881D01*
X207410499Y-66335000D01*
X208304000Y-66335000D01*
X208367000Y-66351881D01*
G37*
G36*
X233163080Y-39331156D02*
G01*
X233383979Y-39453877D01*
X233426679Y-39492728D01*
X233447570Y-39546544D01*
X233442267Y-39604030D01*
X233411883Y-39653116D01*
X231766905Y-41298095D01*
X231726028Y-41325409D01*
X231677810Y-41335000D01*
X208331000Y-41335000D01*
X208268000Y-41318119D01*
X208221881Y-41272000D01*
X208205000Y-41209000D01*
X208205000Y-40961000D01*
X208221881Y-40898000D01*
X208268000Y-40851881D01*
X208331000Y-40835000D01*
X231529999Y-40835000D01*
X233012793Y-39352205D01*
X233058144Y-39323138D01*
X233111489Y-39315666D01*
X233163080Y-39331156D01*
G37*
G36*
X235117422Y-40600567D02*
G01*
X235313777Y-40747832D01*
X235356259Y-40804670D01*
X235361289Y-40875452D01*
X235327272Y-40937727D01*
X234166905Y-42098095D01*
X234126028Y-42125409D01*
X234077810Y-42135000D01*
X208331000Y-42135000D01*
X208268000Y-42118119D01*
X208221881Y-42072000D01*
X208205000Y-42009000D01*
X208205000Y-41761000D01*
X208221881Y-41698000D01*
X208268000Y-41651881D01*
X208331000Y-41635000D01*
X233929999Y-41635000D01*
X234952726Y-40612272D01*
X235003493Y-40581338D01*
X235062791Y-40577124D01*
X235117422Y-40600567D01*
G37*
M02*
