M48
; DRILL file {KiCad 7.0.1-0} date 2023 October 17, Tuesday 11:13:50
; FORMAT={-:-/ absolute / inch / decimal}
; #@! TF.CreationDate,2023-10-17T11:13:50-04:00
; #@! TF.GenerationSoftware,Kicad,Pcbnew,7.0.1-0
; #@! TF.FileFunction,Plated,1,2,PTH
FMAT,2
INCH
; #@! TA.AperFunction,Plated,PTH,ComponentDrill
T1C0.0118
; #@! TA.AperFunction,Plated,PTH,ViaDrill
T2C0.0157
; #@! TA.AperFunction,Plated,PTH,ComponentDrill
T3C0.0354
; #@! TA.AperFunction,Plated,PTH,ComponentDrill
T4C0.0394
; #@! TA.AperFunction,Plated,PTH,ComponentDrill
T5C0.0512
; #@! TA.AperFunction,Plated,PTH,ComponentDrill
T6C0.0551
; #@! TA.AperFunction,Plated,PTH,ComponentDrill
T7C0.0630
; #@! TA.AperFunction,Plated,PTH,ComponentDrill
T8C0.0827
%
G90
G05
T1
X5.6142Y-3.9197
X6.2331Y-2.027
X6.2819Y-1.2758
X6.2827Y-1.9278
X6.2827Y-2.027
X6.2839Y-1.4293
X6.3323Y-1.9278
X6.3768Y-4.5215
X7.5681Y-4.0201
X7.8447Y-2.6904
X8.0957Y-2.6904
T2
X5.5681Y-3.8409
X5.5681Y-3.9197
X5.5701Y-2.9984
X5.5744Y-4.1098
X5.6055Y-3.4098
X5.6057Y-3.5557
X5.6232Y-3.8409
X5.6409Y-3.9197
X5.6724Y-4.9512
X5.6744Y-3.8409
X5.7106Y-3.9583
X5.7134Y-3.8669
X5.7256Y-4.7327
X5.7463Y-4.8242
X5.7524Y-3.8429
X5.765Y-4.0201
X5.7728Y-4.9374
X5.7803Y-4.1898
X5.7846Y-4.4925
X5.8035Y-3.8433
X5.8171Y-3.7415
X5.8409Y-4.786
X5.8409Y-4.0764
X5.8423Y-4.7315
X5.8555Y-3.8433
X5.8728Y-4.9055
X5.8772Y-4.5575
X5.885Y-3.9594
X5.885Y-4.0815
X5.9028Y-3.8429
X5.9213Y-4.6024
X5.9234Y-3.0949
X5.929Y-4.4274
X5.9323Y-3.9591
X5.9323Y-4.0811
X5.9392Y-3.7425
X5.952Y-3.8429
X5.9555Y-4.8118
X5.9717Y-4.2051
X5.9728Y-4.9055
X5.9815Y-3.9591
X5.9815Y-4.0811
X6.0012Y-3.8429
X6.0236Y-4.8654
X6.0283Y-5.0536
X6.0307Y-3.9591
X6.0307Y-4.0811
X6.0524Y-3.8429
X6.0728Y-4.9055
X6.0819Y-3.9591
X6.0819Y-4.0811
X6.0957Y-4.3035
X6.0957Y-4.648
X6.0992Y-4.6036
X6.1016Y-3.8429
X6.1163Y-2.072
X6.1163Y-2.1448
X6.1163Y-2.2216
X6.1163Y-2.3043
X6.1262Y-2.3889
X6.1272Y-1.9657
X6.1311Y-3.9591
X6.1311Y-4.0811
X6.136Y-3.7337
X6.1469Y-3.8429
X6.1764Y-3.9591
X6.1764Y-4.0811
X6.1774Y-2.4401
X6.1947Y-4.2644
X6.1961Y-3.8429
X6.1986Y-4.7998
X6.1986Y-4.8589
X6.2167Y-2.4814
X6.2179Y-1.2709
X6.2217Y-4.0811
X6.2236Y-3.9591
X6.2246Y-2.2885
X6.2266Y-2.1291
X6.2266Y-2.1901
X6.2268Y-1.4323
X6.2453Y-3.8429
X6.2541Y-3.7307
X6.2577Y-4.7998
X6.2577Y-4.8589
X6.2654Y-4.0661
X6.2657Y-3.9736
X6.2728Y-4.1421
X6.2728Y-4.1992
X6.2774Y-4.2644
X6.2817Y-2.5996
X6.2906Y-3.8429
X6.3181Y-3.9736
X6.3185Y-4.0673
X6.3246Y-4.8549
X6.3348Y-2.2866
X6.3368Y-2.1547
X6.3368Y-2.1881
X6.3378Y-3.8429
X6.338Y-1.2728
X6.3427Y-2.0976
X6.3429Y-1.4303
X6.3514Y-3.2675
X6.3514Y-3.3856
X6.3624Y-2.3456
X6.3624Y-2.4303
X6.3644Y-2.259
X6.3728Y-4.2055
X6.387Y-3.8429
X6.3909Y-4.0673
X6.3911Y-3.5825
X6.3919Y-2.5602
X6.3921Y-3.9724
X6.3929Y-1.9264
X6.4323Y-3.8429
X6.4402Y-5.0831
X6.4411Y-2.14
X6.4411Y-2.1921
X6.4411Y-2.2433
X6.4411Y-2.32
X6.4411Y-2.4047
X6.4411Y-2.5011
X6.4526Y-3.5825
X6.4835Y-3.8429
X6.4913Y-3.9748
X6.5167Y-3.7242
X6.5346Y-3.8429
X6.5405Y-5.0536
X6.572Y-4.1933
X6.5726Y-4.9691
X6.5746Y-4.7919
X6.5909Y-3.9728
X6.5909Y-4.0673
X6.5931Y-3.6557
X6.6041Y-5.0124
X6.612Y-4.7329
X6.6317Y-4.851
X6.6356Y-4.7919
X6.6482Y-3.7683
X6.6488Y-3.8094
X6.6488Y-3.8547
X6.6488Y-3.9059
X6.6502Y-3.7301
X6.6667Y-3.6624
X6.6799Y-3.937
X6.6815Y-3.9972
X6.6831Y-4.0555
X6.6872Y-3.7518
X6.6907Y-4.8195
X6.6907Y-4.8785
X6.7065Y-4.3274
X6.7065Y-4.4061
X6.7065Y-4.4848
X6.7065Y-4.5636
X6.7065Y-4.6423
X6.7297Y-3.3071
X6.738Y-4.7604
X6.7768Y-4.9374
X6.777Y-3.8947
X6.777Y-3.9758
X6.777Y-4.0585
X6.7813Y-4.7211
X6.7852Y-4.3274
X6.7852Y-4.4061
X6.7852Y-4.4848
X6.7852Y-4.5636
X6.7852Y-4.6423
X6.7907Y-3.3071
X6.7907Y-3.3685
X6.7907Y-3.4299
X6.8455Y-3.5254
X6.8455Y-3.5829
X6.8738Y-3.9831
X6.8738Y-4.0579
X6.9002Y-3.6006
X6.9006Y-3.5258
X6.9561Y-3.1289
X6.9561Y-3.247
X6.9577Y-3.4533
X6.9577Y-3.5636
X6.9728Y-4.2055
X6.9766Y-3.3065
X6.9963Y-3.7915
X7.0632Y-3.8102
X7.0724Y-4.9106
X7.0728Y-4.2055
X7.1157Y-3.6693
X7.1199Y-3.3652
X7.1246Y-3.8102
X7.1591Y-4.5985
X7.172Y-4.9083
X7.2203Y-3.275
X7.2474Y-3.8102
X7.2774Y-4.9455
X7.286Y-3.3341
X7.3077Y-3.9152
X7.3108Y-3.8557
X7.3398Y-3.4549
X7.3398Y-3.5163
X7.3526Y-3.5931
X7.3526Y-3.6667
X7.3998Y-4.0191
X7.4608Y-3.3856
X7.4612Y-3.3065
X7.4707Y-4.2061
X7.5159Y-3.8715
X7.5465Y-3.213
X7.5474Y-3.1726
X7.5573Y-3.9581
X7.5583Y-4.0791
X7.5799Y-4.1392
X7.5825Y-5.0122
X7.583Y-4.9772
X7.5898Y-4.3949
X7.5986Y-3.8715
X7.5998Y-4.1638
X7.6017Y-4.1952
X7.6165Y-4.4217
X7.6183Y-4.4531
X7.636Y-2.9906
X7.6695Y-3.1808
X7.6705Y-3.2123
X7.7896Y-3.211
X7.8339Y-2.6402
X7.8339Y-2.7366
X7.8417Y-3.211
X8.0809Y-2.5919
X8.0868Y-2.774
X8.5051Y-4.1756
X8.5524Y-4.8449
X8.6154Y-4.1343
X9.1055Y-4.028
X9.1488Y-4.152
X9.1843Y-1.5526
X9.261Y-1.6018
X9.3142Y-4.028
X9.3161Y-4.2602
X9.3634Y-3.9512
T3
X5.8494Y-3.301
X5.8494Y-3.401
X5.8494Y-3.501
X5.8494Y-3.601
X5.9494Y-3.351
X5.9494Y-3.451
X5.9494Y-3.551
X5.9494Y-3.651
T4
X6.2817Y-2.2385
X6.2817Y-2.3385
X6.2817Y-2.4385
X6.2817Y-2.5385
X7.0953Y-4.3276
X7.0953Y-4.4276
X7.0953Y-4.5276
X7.0953Y-4.6276
X7.2102Y-4.2256
X7.2102Y-4.3256
X7.2102Y-4.4256
X7.2102Y-4.5256
X7.3102Y-4.3256
X7.3102Y-4.4256
X7.3102Y-4.5256
X7.5813Y-3.5526
X7.5813Y-3.6526
X7.6813Y-3.5526
X7.6813Y-3.6526
X7.8214Y-3.1224
X7.8214Y-3.2996
T5
X7.7229Y-3.0732
X7.7229Y-3.3488
T6
X6.3917Y-4.0201
X6.4917Y-4.0201
X6.5917Y-4.0201
T7
X6.2917Y-4.0201
T8
X5.9614Y-4.349
X5.9614Y-4.7486
T0
M30
