G04 #@! TF.GenerationSoftware,KiCad,Pcbnew,7.0.1-0*
G04 #@! TF.CreationDate,2023-06-29T07:12:14-04:00*
G04 #@! TF.ProjectId,CosmicWatch,436f736d-6963-4576-9174-63682e6b6963,rev?*
G04 #@! TF.SameCoordinates,Original*
G04 #@! TF.FileFunction,Legend,Top*
G04 #@! TF.FilePolarity,Positive*
%FSLAX46Y46*%
G04 Gerber Fmt 4.6, Leading zero omitted, Abs format (unit mm)*
G04 Created by KiCad (PCBNEW 7.0.1-0) date 2023-06-29 07:12:14*
%MOMM*%
%LPD*%
G01*
G04 APERTURE LIST*
%ADD10C,0.150000*%
%ADD11C,0.200000*%
%ADD12C,0.010000*%
%ADD13C,0.120000*%
%ADD14C,2.032000*%
%ADD15C,2.000000*%
%ADD16C,3.650000*%
G04 APERTURE END LIST*
D10*
X170284285Y-76554857D02*
X170246190Y-76516761D01*
X170246190Y-76516761D02*
X170169999Y-76402476D01*
X170169999Y-76402476D02*
X170131904Y-76326285D01*
X170131904Y-76326285D02*
X170093809Y-76212000D01*
X170093809Y-76212000D02*
X170055714Y-76021523D01*
X170055714Y-76021523D02*
X170055714Y-75869142D01*
X170055714Y-75869142D02*
X170093809Y-75678666D01*
X170093809Y-75678666D02*
X170131904Y-75564380D01*
X170131904Y-75564380D02*
X170169999Y-75488190D01*
X170169999Y-75488190D02*
X170246190Y-75373904D01*
X170246190Y-75373904D02*
X170284285Y-75335809D01*
X170550951Y-76212000D02*
X170627142Y-76250095D01*
X170627142Y-76250095D02*
X170779523Y-76250095D01*
X170779523Y-76250095D02*
X170855713Y-76212000D01*
X170855713Y-76212000D02*
X170893809Y-76135809D01*
X170893809Y-76135809D02*
X170893809Y-76097714D01*
X170893809Y-76097714D02*
X170855713Y-76021523D01*
X170855713Y-76021523D02*
X170779523Y-75983428D01*
X170779523Y-75983428D02*
X170665237Y-75983428D01*
X170665237Y-75983428D02*
X170589047Y-75945333D01*
X170589047Y-75945333D02*
X170550951Y-75869142D01*
X170550951Y-75869142D02*
X170550951Y-75831047D01*
X170550951Y-75831047D02*
X170589047Y-75754857D01*
X170589047Y-75754857D02*
X170665237Y-75716761D01*
X170665237Y-75716761D02*
X170779523Y-75716761D01*
X170779523Y-75716761D02*
X170855713Y-75754857D01*
X171579523Y-76250095D02*
X171579523Y-75831047D01*
X171579523Y-75831047D02*
X171541428Y-75754857D01*
X171541428Y-75754857D02*
X171465237Y-75716761D01*
X171465237Y-75716761D02*
X171312856Y-75716761D01*
X171312856Y-75716761D02*
X171236666Y-75754857D01*
X171579523Y-76212000D02*
X171503332Y-76250095D01*
X171503332Y-76250095D02*
X171312856Y-76250095D01*
X171312856Y-76250095D02*
X171236666Y-76212000D01*
X171236666Y-76212000D02*
X171198570Y-76135809D01*
X171198570Y-76135809D02*
X171198570Y-76059619D01*
X171198570Y-76059619D02*
X171236666Y-75983428D01*
X171236666Y-75983428D02*
X171312856Y-75945333D01*
X171312856Y-75945333D02*
X171503332Y-75945333D01*
X171503332Y-75945333D02*
X171579523Y-75907238D01*
X171884285Y-76250095D02*
X172303333Y-75716761D01*
X171884285Y-75716761D02*
X172303333Y-76250095D01*
X172950952Y-76250095D02*
X172950952Y-75831047D01*
X172950952Y-75831047D02*
X172912857Y-75754857D01*
X172912857Y-75754857D02*
X172836666Y-75716761D01*
X172836666Y-75716761D02*
X172684285Y-75716761D01*
X172684285Y-75716761D02*
X172608095Y-75754857D01*
X172950952Y-76212000D02*
X172874761Y-76250095D01*
X172874761Y-76250095D02*
X172684285Y-76250095D01*
X172684285Y-76250095D02*
X172608095Y-76212000D01*
X172608095Y-76212000D02*
X172569999Y-76135809D01*
X172569999Y-76135809D02*
X172569999Y-76059619D01*
X172569999Y-76059619D02*
X172608095Y-75983428D01*
X172608095Y-75983428D02*
X172684285Y-75945333D01*
X172684285Y-75945333D02*
X172874761Y-75945333D01*
X172874761Y-75945333D02*
X172950952Y-75907238D01*
X173331905Y-75716761D02*
X173331905Y-76250095D01*
X173331905Y-75792952D02*
X173370000Y-75754857D01*
X173370000Y-75754857D02*
X173446190Y-75716761D01*
X173446190Y-75716761D02*
X173560476Y-75716761D01*
X173560476Y-75716761D02*
X173636667Y-75754857D01*
X173636667Y-75754857D02*
X173674762Y-75831047D01*
X173674762Y-75831047D02*
X173674762Y-76250095D01*
X174055715Y-76250095D02*
X174055715Y-75716761D01*
X174055715Y-75450095D02*
X174017619Y-75488190D01*
X174017619Y-75488190D02*
X174055715Y-75526285D01*
X174055715Y-75526285D02*
X174093810Y-75488190D01*
X174093810Y-75488190D02*
X174055715Y-75450095D01*
X174055715Y-75450095D02*
X174055715Y-75526285D01*
X174931905Y-75869142D02*
X174893810Y-75831047D01*
X174893810Y-75831047D02*
X174817619Y-75792952D01*
X174817619Y-75792952D02*
X174741429Y-75792952D01*
X174741429Y-75792952D02*
X174665238Y-75831047D01*
X174665238Y-75831047D02*
X174627143Y-75869142D01*
X174627143Y-75869142D02*
X174589048Y-75945333D01*
X174589048Y-75945333D02*
X174589048Y-76021523D01*
X174589048Y-76021523D02*
X174627143Y-76097714D01*
X174627143Y-76097714D02*
X174665238Y-76135809D01*
X174665238Y-76135809D02*
X174741429Y-76173904D01*
X174741429Y-76173904D02*
X174817619Y-76173904D01*
X174817619Y-76173904D02*
X174893810Y-76135809D01*
X174893810Y-76135809D02*
X174931905Y-76097714D01*
X174931905Y-75792952D02*
X174931905Y-76097714D01*
X174931905Y-76097714D02*
X174970000Y-76135809D01*
X174970000Y-76135809D02*
X175008095Y-76135809D01*
X175008095Y-76135809D02*
X175084286Y-76097714D01*
X175084286Y-76097714D02*
X175122381Y-76021523D01*
X175122381Y-76021523D02*
X175122381Y-75831047D01*
X175122381Y-75831047D02*
X175046191Y-75716761D01*
X175046191Y-75716761D02*
X174931905Y-75640571D01*
X174931905Y-75640571D02*
X174779524Y-75602476D01*
X174779524Y-75602476D02*
X174627143Y-75640571D01*
X174627143Y-75640571D02*
X174512857Y-75716761D01*
X174512857Y-75716761D02*
X174436667Y-75831047D01*
X174436667Y-75831047D02*
X174398571Y-75983428D01*
X174398571Y-75983428D02*
X174436667Y-76135809D01*
X174436667Y-76135809D02*
X174512857Y-76250095D01*
X174512857Y-76250095D02*
X174627143Y-76326285D01*
X174627143Y-76326285D02*
X174779524Y-76364380D01*
X174779524Y-76364380D02*
X174931905Y-76326285D01*
X174931905Y-76326285D02*
X175046191Y-76250095D01*
X175808095Y-75716761D02*
X175808095Y-76250095D01*
X175465238Y-75716761D02*
X175465238Y-76135809D01*
X175465238Y-76135809D02*
X175503333Y-76212000D01*
X175503333Y-76212000D02*
X175579523Y-76250095D01*
X175579523Y-76250095D02*
X175693809Y-76250095D01*
X175693809Y-76250095D02*
X175770000Y-76212000D01*
X175770000Y-76212000D02*
X175808095Y-76173904D01*
X176531905Y-76250095D02*
X176531905Y-75450095D01*
X176531905Y-76212000D02*
X176455714Y-76250095D01*
X176455714Y-76250095D02*
X176303333Y-76250095D01*
X176303333Y-76250095D02*
X176227143Y-76212000D01*
X176227143Y-76212000D02*
X176189048Y-76173904D01*
X176189048Y-76173904D02*
X176150952Y-76097714D01*
X176150952Y-76097714D02*
X176150952Y-75869142D01*
X176150952Y-75869142D02*
X176189048Y-75792952D01*
X176189048Y-75792952D02*
X176227143Y-75754857D01*
X176227143Y-75754857D02*
X176303333Y-75716761D01*
X176303333Y-75716761D02*
X176455714Y-75716761D01*
X176455714Y-75716761D02*
X176531905Y-75754857D01*
X177217620Y-76212000D02*
X177141429Y-76250095D01*
X177141429Y-76250095D02*
X176989048Y-76250095D01*
X176989048Y-76250095D02*
X176912858Y-76212000D01*
X176912858Y-76212000D02*
X176874762Y-76135809D01*
X176874762Y-76135809D02*
X176874762Y-75831047D01*
X176874762Y-75831047D02*
X176912858Y-75754857D01*
X176912858Y-75754857D02*
X176989048Y-75716761D01*
X176989048Y-75716761D02*
X177141429Y-75716761D01*
X177141429Y-75716761D02*
X177217620Y-75754857D01*
X177217620Y-75754857D02*
X177255715Y-75831047D01*
X177255715Y-75831047D02*
X177255715Y-75907238D01*
X177255715Y-75907238D02*
X176874762Y-75983428D01*
X177712857Y-76250095D02*
X177636667Y-76212000D01*
X177636667Y-76212000D02*
X177598572Y-76135809D01*
X177598572Y-76135809D02*
X177598572Y-75450095D01*
X178017620Y-76173904D02*
X178055715Y-76212000D01*
X178055715Y-76212000D02*
X178017620Y-76250095D01*
X178017620Y-76250095D02*
X177979524Y-76212000D01*
X177979524Y-76212000D02*
X178017620Y-76173904D01*
X178017620Y-76173904D02*
X178017620Y-76250095D01*
X178703334Y-76212000D02*
X178627143Y-76250095D01*
X178627143Y-76250095D02*
X178474762Y-76250095D01*
X178474762Y-76250095D02*
X178398572Y-76212000D01*
X178398572Y-76212000D02*
X178360476Y-76135809D01*
X178360476Y-76135809D02*
X178360476Y-75831047D01*
X178360476Y-75831047D02*
X178398572Y-75754857D01*
X178398572Y-75754857D02*
X178474762Y-75716761D01*
X178474762Y-75716761D02*
X178627143Y-75716761D01*
X178627143Y-75716761D02*
X178703334Y-75754857D01*
X178703334Y-75754857D02*
X178741429Y-75831047D01*
X178741429Y-75831047D02*
X178741429Y-75907238D01*
X178741429Y-75907238D02*
X178360476Y-75983428D01*
X179427143Y-76250095D02*
X179427143Y-75450095D01*
X179427143Y-76212000D02*
X179350952Y-76250095D01*
X179350952Y-76250095D02*
X179198571Y-76250095D01*
X179198571Y-76250095D02*
X179122381Y-76212000D01*
X179122381Y-76212000D02*
X179084286Y-76173904D01*
X179084286Y-76173904D02*
X179046190Y-76097714D01*
X179046190Y-76097714D02*
X179046190Y-75869142D01*
X179046190Y-75869142D02*
X179084286Y-75792952D01*
X179084286Y-75792952D02*
X179122381Y-75754857D01*
X179122381Y-75754857D02*
X179198571Y-75716761D01*
X179198571Y-75716761D02*
X179350952Y-75716761D01*
X179350952Y-75716761D02*
X179427143Y-75754857D01*
X180150953Y-75716761D02*
X180150953Y-76250095D01*
X179808096Y-75716761D02*
X179808096Y-76135809D01*
X179808096Y-76135809D02*
X179846191Y-76212000D01*
X179846191Y-76212000D02*
X179922381Y-76250095D01*
X179922381Y-76250095D02*
X180036667Y-76250095D01*
X180036667Y-76250095D02*
X180112858Y-76212000D01*
X180112858Y-76212000D02*
X180150953Y-76173904D01*
X180455715Y-76554857D02*
X180493810Y-76516761D01*
X180493810Y-76516761D02*
X180570001Y-76402476D01*
X180570001Y-76402476D02*
X180608096Y-76326285D01*
X180608096Y-76326285D02*
X180646191Y-76212000D01*
X180646191Y-76212000D02*
X180684287Y-76021523D01*
X180684287Y-76021523D02*
X180684287Y-75869142D01*
X180684287Y-75869142D02*
X180646191Y-75678666D01*
X180646191Y-75678666D02*
X180608096Y-75564380D01*
X180608096Y-75564380D02*
X180570001Y-75488190D01*
X180570001Y-75488190D02*
X180493810Y-75373904D01*
X180493810Y-75373904D02*
X180455715Y-75335809D01*
X159081428Y-76212000D02*
X159195714Y-76250095D01*
X159195714Y-76250095D02*
X159386190Y-76250095D01*
X159386190Y-76250095D02*
X159462381Y-76212000D01*
X159462381Y-76212000D02*
X159500476Y-76173904D01*
X159500476Y-76173904D02*
X159538571Y-76097714D01*
X159538571Y-76097714D02*
X159538571Y-76021523D01*
X159538571Y-76021523D02*
X159500476Y-75945333D01*
X159500476Y-75945333D02*
X159462381Y-75907238D01*
X159462381Y-75907238D02*
X159386190Y-75869142D01*
X159386190Y-75869142D02*
X159233809Y-75831047D01*
X159233809Y-75831047D02*
X159157619Y-75792952D01*
X159157619Y-75792952D02*
X159119524Y-75754857D01*
X159119524Y-75754857D02*
X159081428Y-75678666D01*
X159081428Y-75678666D02*
X159081428Y-75602476D01*
X159081428Y-75602476D02*
X159119524Y-75526285D01*
X159119524Y-75526285D02*
X159157619Y-75488190D01*
X159157619Y-75488190D02*
X159233809Y-75450095D01*
X159233809Y-75450095D02*
X159424286Y-75450095D01*
X159424286Y-75450095D02*
X159538571Y-75488190D01*
X159881429Y-75716761D02*
X159881429Y-76516761D01*
X159881429Y-75754857D02*
X159957619Y-75716761D01*
X159957619Y-75716761D02*
X160110000Y-75716761D01*
X160110000Y-75716761D02*
X160186191Y-75754857D01*
X160186191Y-75754857D02*
X160224286Y-75792952D01*
X160224286Y-75792952D02*
X160262381Y-75869142D01*
X160262381Y-75869142D02*
X160262381Y-76097714D01*
X160262381Y-76097714D02*
X160224286Y-76173904D01*
X160224286Y-76173904D02*
X160186191Y-76212000D01*
X160186191Y-76212000D02*
X160110000Y-76250095D01*
X160110000Y-76250095D02*
X159957619Y-76250095D01*
X159957619Y-76250095D02*
X159881429Y-76212000D01*
X160910001Y-76212000D02*
X160833810Y-76250095D01*
X160833810Y-76250095D02*
X160681429Y-76250095D01*
X160681429Y-76250095D02*
X160605239Y-76212000D01*
X160605239Y-76212000D02*
X160567143Y-76135809D01*
X160567143Y-76135809D02*
X160567143Y-75831047D01*
X160567143Y-75831047D02*
X160605239Y-75754857D01*
X160605239Y-75754857D02*
X160681429Y-75716761D01*
X160681429Y-75716761D02*
X160833810Y-75716761D01*
X160833810Y-75716761D02*
X160910001Y-75754857D01*
X160910001Y-75754857D02*
X160948096Y-75831047D01*
X160948096Y-75831047D02*
X160948096Y-75907238D01*
X160948096Y-75907238D02*
X160567143Y-75983428D01*
X161290953Y-75716761D02*
X161290953Y-76250095D01*
X161290953Y-75792952D02*
X161329048Y-75754857D01*
X161329048Y-75754857D02*
X161405238Y-75716761D01*
X161405238Y-75716761D02*
X161519524Y-75716761D01*
X161519524Y-75716761D02*
X161595715Y-75754857D01*
X161595715Y-75754857D02*
X161633810Y-75831047D01*
X161633810Y-75831047D02*
X161633810Y-76250095D01*
X162357620Y-76212000D02*
X162281429Y-76250095D01*
X162281429Y-76250095D02*
X162129048Y-76250095D01*
X162129048Y-76250095D02*
X162052858Y-76212000D01*
X162052858Y-76212000D02*
X162014763Y-76173904D01*
X162014763Y-76173904D02*
X161976667Y-76097714D01*
X161976667Y-76097714D02*
X161976667Y-75869142D01*
X161976667Y-75869142D02*
X162014763Y-75792952D01*
X162014763Y-75792952D02*
X162052858Y-75754857D01*
X162052858Y-75754857D02*
X162129048Y-75716761D01*
X162129048Y-75716761D02*
X162281429Y-75716761D01*
X162281429Y-75716761D02*
X162357620Y-75754857D01*
X163005239Y-76212000D02*
X162929048Y-76250095D01*
X162929048Y-76250095D02*
X162776667Y-76250095D01*
X162776667Y-76250095D02*
X162700477Y-76212000D01*
X162700477Y-76212000D02*
X162662381Y-76135809D01*
X162662381Y-76135809D02*
X162662381Y-75831047D01*
X162662381Y-75831047D02*
X162700477Y-75754857D01*
X162700477Y-75754857D02*
X162776667Y-75716761D01*
X162776667Y-75716761D02*
X162929048Y-75716761D01*
X162929048Y-75716761D02*
X163005239Y-75754857D01*
X163005239Y-75754857D02*
X163043334Y-75831047D01*
X163043334Y-75831047D02*
X163043334Y-75907238D01*
X163043334Y-75907238D02*
X162662381Y-75983428D01*
X163386191Y-76250095D02*
X163386191Y-75716761D01*
X163386191Y-75869142D02*
X163424286Y-75792952D01*
X163424286Y-75792952D02*
X163462381Y-75754857D01*
X163462381Y-75754857D02*
X163538572Y-75716761D01*
X163538572Y-75716761D02*
X163614762Y-75716761D01*
X164490953Y-76250095D02*
X164490953Y-75450095D01*
X164490953Y-75450095D02*
X164948096Y-76250095D01*
X164948096Y-76250095D02*
X164948096Y-75450095D01*
X165329048Y-76173904D02*
X165367143Y-76212000D01*
X165367143Y-76212000D02*
X165329048Y-76250095D01*
X165329048Y-76250095D02*
X165290952Y-76212000D01*
X165290952Y-76212000D02*
X165329048Y-76173904D01*
X165329048Y-76173904D02*
X165329048Y-76250095D01*
X166281428Y-76021523D02*
X166662381Y-76021523D01*
X166205238Y-76250095D02*
X166471905Y-75450095D01*
X166471905Y-75450095D02*
X166738571Y-76250095D01*
X166929047Y-76250095D02*
X167348095Y-75716761D01*
X166929047Y-75716761D02*
X167348095Y-76250095D01*
X167995714Y-76250095D02*
X167995714Y-75831047D01*
X167995714Y-75831047D02*
X167957619Y-75754857D01*
X167957619Y-75754857D02*
X167881428Y-75716761D01*
X167881428Y-75716761D02*
X167729047Y-75716761D01*
X167729047Y-75716761D02*
X167652857Y-75754857D01*
X167995714Y-76212000D02*
X167919523Y-76250095D01*
X167919523Y-76250095D02*
X167729047Y-76250095D01*
X167729047Y-76250095D02*
X167652857Y-76212000D01*
X167652857Y-76212000D02*
X167614761Y-76135809D01*
X167614761Y-76135809D02*
X167614761Y-76059619D01*
X167614761Y-76059619D02*
X167652857Y-75983428D01*
X167652857Y-75983428D02*
X167729047Y-75945333D01*
X167729047Y-75945333D02*
X167919523Y-75945333D01*
X167919523Y-75945333D02*
X167995714Y-75907238D01*
X168376667Y-75716761D02*
X168376667Y-76250095D01*
X168376667Y-75792952D02*
X168414762Y-75754857D01*
X168414762Y-75754857D02*
X168490952Y-75716761D01*
X168490952Y-75716761D02*
X168605238Y-75716761D01*
X168605238Y-75716761D02*
X168681429Y-75754857D01*
X168681429Y-75754857D02*
X168719524Y-75831047D01*
X168719524Y-75831047D02*
X168719524Y-76250095D01*
X169100477Y-76250095D02*
X169100477Y-75716761D01*
X169100477Y-75450095D02*
X169062381Y-75488190D01*
X169062381Y-75488190D02*
X169100477Y-75526285D01*
X169100477Y-75526285D02*
X169138572Y-75488190D01*
X169138572Y-75488190D02*
X169100477Y-75450095D01*
X169100477Y-75450095D02*
X169100477Y-75526285D01*
X168605023Y-64058630D02*
X168605023Y-62408630D01*
X138130000Y-115710000D02*
X137930000Y-115710000D01*
X158895000Y-89885000D02*
X158895000Y-89665000D01*
X159165000Y-89885000D02*
X158895000Y-89885000D01*
X150055023Y-38208630D02*
X150055023Y-36558630D01*
X156605023Y-33358630D02*
X156605023Y-35008630D01*
X161101902Y-77552000D02*
X161216188Y-77590095D01*
X161216188Y-77590095D02*
X161406664Y-77590095D01*
X161406664Y-77590095D02*
X161482855Y-77552000D01*
X161482855Y-77552000D02*
X161520950Y-77513904D01*
X161520950Y-77513904D02*
X161559045Y-77437714D01*
X161559045Y-77437714D02*
X161559045Y-77361523D01*
X161559045Y-77361523D02*
X161520950Y-77285333D01*
X161520950Y-77285333D02*
X161482855Y-77247238D01*
X161482855Y-77247238D02*
X161406664Y-77209142D01*
X161406664Y-77209142D02*
X161254283Y-77171047D01*
X161254283Y-77171047D02*
X161178093Y-77132952D01*
X161178093Y-77132952D02*
X161139998Y-77094857D01*
X161139998Y-77094857D02*
X161101902Y-77018666D01*
X161101902Y-77018666D02*
X161101902Y-76942476D01*
X161101902Y-76942476D02*
X161139998Y-76866285D01*
X161139998Y-76866285D02*
X161178093Y-76828190D01*
X161178093Y-76828190D02*
X161254283Y-76790095D01*
X161254283Y-76790095D02*
X161444760Y-76790095D01*
X161444760Y-76790095D02*
X161559045Y-76828190D01*
X162206665Y-77552000D02*
X162130474Y-77590095D01*
X162130474Y-77590095D02*
X161978093Y-77590095D01*
X161978093Y-77590095D02*
X161901903Y-77552000D01*
X161901903Y-77552000D02*
X161863807Y-77475809D01*
X161863807Y-77475809D02*
X161863807Y-77171047D01*
X161863807Y-77171047D02*
X161901903Y-77094857D01*
X161901903Y-77094857D02*
X161978093Y-77056761D01*
X161978093Y-77056761D02*
X162130474Y-77056761D01*
X162130474Y-77056761D02*
X162206665Y-77094857D01*
X162206665Y-77094857D02*
X162244760Y-77171047D01*
X162244760Y-77171047D02*
X162244760Y-77247238D01*
X162244760Y-77247238D02*
X161863807Y-77323428D01*
X162587617Y-77590095D02*
X162587617Y-77056761D01*
X162587617Y-77209142D02*
X162625712Y-77132952D01*
X162625712Y-77132952D02*
X162663807Y-77094857D01*
X162663807Y-77094857D02*
X162739998Y-77056761D01*
X162739998Y-77056761D02*
X162816188Y-77056761D01*
X163082855Y-77590095D02*
X163082855Y-77056761D01*
X163082855Y-76790095D02*
X163044759Y-76828190D01*
X163044759Y-76828190D02*
X163082855Y-76866285D01*
X163082855Y-76866285D02*
X163120950Y-76828190D01*
X163120950Y-76828190D02*
X163082855Y-76790095D01*
X163082855Y-76790095D02*
X163082855Y-76866285D01*
X163806664Y-77590095D02*
X163806664Y-77171047D01*
X163806664Y-77171047D02*
X163768569Y-77094857D01*
X163768569Y-77094857D02*
X163692378Y-77056761D01*
X163692378Y-77056761D02*
X163539997Y-77056761D01*
X163539997Y-77056761D02*
X163463807Y-77094857D01*
X163806664Y-77552000D02*
X163730473Y-77590095D01*
X163730473Y-77590095D02*
X163539997Y-77590095D01*
X163539997Y-77590095D02*
X163463807Y-77552000D01*
X163463807Y-77552000D02*
X163425711Y-77475809D01*
X163425711Y-77475809D02*
X163425711Y-77399619D01*
X163425711Y-77399619D02*
X163463807Y-77323428D01*
X163463807Y-77323428D02*
X163539997Y-77285333D01*
X163539997Y-77285333D02*
X163730473Y-77285333D01*
X163730473Y-77285333D02*
X163806664Y-77247238D01*
X164301902Y-77590095D02*
X164225712Y-77552000D01*
X164225712Y-77552000D02*
X164187617Y-77475809D01*
X164187617Y-77475809D02*
X164187617Y-76790095D01*
X165216189Y-77590095D02*
X165216189Y-76790095D01*
X165216189Y-76790095D02*
X165673332Y-77590095D01*
X165673332Y-77590095D02*
X165673332Y-76790095D01*
X166397141Y-77056761D02*
X166397141Y-77590095D01*
X166054284Y-77056761D02*
X166054284Y-77475809D01*
X166054284Y-77475809D02*
X166092379Y-77552000D01*
X166092379Y-77552000D02*
X166168569Y-77590095D01*
X166168569Y-77590095D02*
X166282855Y-77590095D01*
X166282855Y-77590095D02*
X166359046Y-77552000D01*
X166359046Y-77552000D02*
X166397141Y-77513904D01*
X166778094Y-77590095D02*
X166778094Y-77056761D01*
X166778094Y-77132952D02*
X166816189Y-77094857D01*
X166816189Y-77094857D02*
X166892379Y-77056761D01*
X166892379Y-77056761D02*
X167006665Y-77056761D01*
X167006665Y-77056761D02*
X167082856Y-77094857D01*
X167082856Y-77094857D02*
X167120951Y-77171047D01*
X167120951Y-77171047D02*
X167120951Y-77590095D01*
X167120951Y-77171047D02*
X167159046Y-77094857D01*
X167159046Y-77094857D02*
X167235237Y-77056761D01*
X167235237Y-77056761D02*
X167349522Y-77056761D01*
X167349522Y-77056761D02*
X167425713Y-77094857D01*
X167425713Y-77094857D02*
X167463808Y-77171047D01*
X167463808Y-77171047D02*
X167463808Y-77590095D01*
X167844761Y-77590095D02*
X167844761Y-76790095D01*
X167844761Y-77094857D02*
X167920951Y-77056761D01*
X167920951Y-77056761D02*
X168073332Y-77056761D01*
X168073332Y-77056761D02*
X168149523Y-77094857D01*
X168149523Y-77094857D02*
X168187618Y-77132952D01*
X168187618Y-77132952D02*
X168225713Y-77209142D01*
X168225713Y-77209142D02*
X168225713Y-77437714D01*
X168225713Y-77437714D02*
X168187618Y-77513904D01*
X168187618Y-77513904D02*
X168149523Y-77552000D01*
X168149523Y-77552000D02*
X168073332Y-77590095D01*
X168073332Y-77590095D02*
X167920951Y-77590095D01*
X167920951Y-77590095D02*
X167844761Y-77552000D01*
X168873333Y-77552000D02*
X168797142Y-77590095D01*
X168797142Y-77590095D02*
X168644761Y-77590095D01*
X168644761Y-77590095D02*
X168568571Y-77552000D01*
X168568571Y-77552000D02*
X168530475Y-77475809D01*
X168530475Y-77475809D02*
X168530475Y-77171047D01*
X168530475Y-77171047D02*
X168568571Y-77094857D01*
X168568571Y-77094857D02*
X168644761Y-77056761D01*
X168644761Y-77056761D02*
X168797142Y-77056761D01*
X168797142Y-77056761D02*
X168873333Y-77094857D01*
X168873333Y-77094857D02*
X168911428Y-77171047D01*
X168911428Y-77171047D02*
X168911428Y-77247238D01*
X168911428Y-77247238D02*
X168530475Y-77323428D01*
X169254285Y-77590095D02*
X169254285Y-77056761D01*
X169254285Y-77209142D02*
X169292380Y-77132952D01*
X169292380Y-77132952D02*
X169330475Y-77094857D01*
X169330475Y-77094857D02*
X169406666Y-77056761D01*
X169406666Y-77056761D02*
X169482856Y-77056761D01*
X169749523Y-77513904D02*
X169787618Y-77552000D01*
X169787618Y-77552000D02*
X169749523Y-77590095D01*
X169749523Y-77590095D02*
X169711427Y-77552000D01*
X169711427Y-77552000D02*
X169749523Y-77513904D01*
X169749523Y-77513904D02*
X169749523Y-77590095D01*
X169749523Y-77094857D02*
X169787618Y-77132952D01*
X169787618Y-77132952D02*
X169749523Y-77171047D01*
X169749523Y-77171047D02*
X169711427Y-77132952D01*
X169711427Y-77132952D02*
X169749523Y-77094857D01*
X169749523Y-77094857D02*
X169749523Y-77171047D01*
X170892380Y-76790095D02*
X170968570Y-76790095D01*
X170968570Y-76790095D02*
X171044761Y-76828190D01*
X171044761Y-76828190D02*
X171082856Y-76866285D01*
X171082856Y-76866285D02*
X171120951Y-76942476D01*
X171120951Y-76942476D02*
X171159046Y-77094857D01*
X171159046Y-77094857D02*
X171159046Y-77285333D01*
X171159046Y-77285333D02*
X171120951Y-77437714D01*
X171120951Y-77437714D02*
X171082856Y-77513904D01*
X171082856Y-77513904D02*
X171044761Y-77552000D01*
X171044761Y-77552000D02*
X170968570Y-77590095D01*
X170968570Y-77590095D02*
X170892380Y-77590095D01*
X170892380Y-77590095D02*
X170816189Y-77552000D01*
X170816189Y-77552000D02*
X170778094Y-77513904D01*
X170778094Y-77513904D02*
X170739999Y-77437714D01*
X170739999Y-77437714D02*
X170701903Y-77285333D01*
X170701903Y-77285333D02*
X170701903Y-77094857D01*
X170701903Y-77094857D02*
X170739999Y-76942476D01*
X170739999Y-76942476D02*
X170778094Y-76866285D01*
X170778094Y-76866285D02*
X170816189Y-76828190D01*
X170816189Y-76828190D02*
X170892380Y-76790095D01*
X171920951Y-77590095D02*
X171463808Y-77590095D01*
X171692380Y-77590095D02*
X171692380Y-76790095D01*
X171692380Y-76790095D02*
X171616189Y-76904380D01*
X171616189Y-76904380D02*
X171539999Y-76980571D01*
X171539999Y-76980571D02*
X171463808Y-77018666D01*
X172416190Y-76790095D02*
X172492380Y-76790095D01*
X172492380Y-76790095D02*
X172568571Y-76828190D01*
X172568571Y-76828190D02*
X172606666Y-76866285D01*
X172606666Y-76866285D02*
X172644761Y-76942476D01*
X172644761Y-76942476D02*
X172682856Y-77094857D01*
X172682856Y-77094857D02*
X172682856Y-77285333D01*
X172682856Y-77285333D02*
X172644761Y-77437714D01*
X172644761Y-77437714D02*
X172606666Y-77513904D01*
X172606666Y-77513904D02*
X172568571Y-77552000D01*
X172568571Y-77552000D02*
X172492380Y-77590095D01*
X172492380Y-77590095D02*
X172416190Y-77590095D01*
X172416190Y-77590095D02*
X172339999Y-77552000D01*
X172339999Y-77552000D02*
X172301904Y-77513904D01*
X172301904Y-77513904D02*
X172263809Y-77437714D01*
X172263809Y-77437714D02*
X172225713Y-77285333D01*
X172225713Y-77285333D02*
X172225713Y-77094857D01*
X172225713Y-77094857D02*
X172263809Y-76942476D01*
X172263809Y-76942476D02*
X172301904Y-76866285D01*
X172301904Y-76866285D02*
X172339999Y-76828190D01*
X172339999Y-76828190D02*
X172416190Y-76790095D01*
X173178095Y-76790095D02*
X173254285Y-76790095D01*
X173254285Y-76790095D02*
X173330476Y-76828190D01*
X173330476Y-76828190D02*
X173368571Y-76866285D01*
X173368571Y-76866285D02*
X173406666Y-76942476D01*
X173406666Y-76942476D02*
X173444761Y-77094857D01*
X173444761Y-77094857D02*
X173444761Y-77285333D01*
X173444761Y-77285333D02*
X173406666Y-77437714D01*
X173406666Y-77437714D02*
X173368571Y-77513904D01*
X173368571Y-77513904D02*
X173330476Y-77552000D01*
X173330476Y-77552000D02*
X173254285Y-77590095D01*
X173254285Y-77590095D02*
X173178095Y-77590095D01*
X173178095Y-77590095D02*
X173101904Y-77552000D01*
X173101904Y-77552000D02*
X173063809Y-77513904D01*
X173063809Y-77513904D02*
X173025714Y-77437714D01*
X173025714Y-77437714D02*
X172987618Y-77285333D01*
X172987618Y-77285333D02*
X172987618Y-77094857D01*
X172987618Y-77094857D02*
X173025714Y-76942476D01*
X173025714Y-76942476D02*
X173063809Y-76866285D01*
X173063809Y-76866285D02*
X173101904Y-76828190D01*
X173101904Y-76828190D02*
X173178095Y-76790095D01*
X174206666Y-77590095D02*
X173749523Y-77590095D01*
X173978095Y-77590095D02*
X173978095Y-76790095D01*
X173978095Y-76790095D02*
X173901904Y-76904380D01*
X173901904Y-76904380D02*
X173825714Y-76980571D01*
X173825714Y-76980571D02*
X173749523Y-77018666D01*
X174701905Y-76790095D02*
X174778095Y-76790095D01*
X174778095Y-76790095D02*
X174854286Y-76828190D01*
X174854286Y-76828190D02*
X174892381Y-76866285D01*
X174892381Y-76866285D02*
X174930476Y-76942476D01*
X174930476Y-76942476D02*
X174968571Y-77094857D01*
X174968571Y-77094857D02*
X174968571Y-77285333D01*
X174968571Y-77285333D02*
X174930476Y-77437714D01*
X174930476Y-77437714D02*
X174892381Y-77513904D01*
X174892381Y-77513904D02*
X174854286Y-77552000D01*
X174854286Y-77552000D02*
X174778095Y-77590095D01*
X174778095Y-77590095D02*
X174701905Y-77590095D01*
X174701905Y-77590095D02*
X174625714Y-77552000D01*
X174625714Y-77552000D02*
X174587619Y-77513904D01*
X174587619Y-77513904D02*
X174549524Y-77437714D01*
X174549524Y-77437714D02*
X174511428Y-77285333D01*
X174511428Y-77285333D02*
X174511428Y-77094857D01*
X174511428Y-77094857D02*
X174549524Y-76942476D01*
X174549524Y-76942476D02*
X174587619Y-76866285D01*
X174587619Y-76866285D02*
X174625714Y-76828190D01*
X174625714Y-76828190D02*
X174701905Y-76790095D01*
X175463810Y-76790095D02*
X175540000Y-76790095D01*
X175540000Y-76790095D02*
X175616191Y-76828190D01*
X175616191Y-76828190D02*
X175654286Y-76866285D01*
X175654286Y-76866285D02*
X175692381Y-76942476D01*
X175692381Y-76942476D02*
X175730476Y-77094857D01*
X175730476Y-77094857D02*
X175730476Y-77285333D01*
X175730476Y-77285333D02*
X175692381Y-77437714D01*
X175692381Y-77437714D02*
X175654286Y-77513904D01*
X175654286Y-77513904D02*
X175616191Y-77552000D01*
X175616191Y-77552000D02*
X175540000Y-77590095D01*
X175540000Y-77590095D02*
X175463810Y-77590095D01*
X175463810Y-77590095D02*
X175387619Y-77552000D01*
X175387619Y-77552000D02*
X175349524Y-77513904D01*
X175349524Y-77513904D02*
X175311429Y-77437714D01*
X175311429Y-77437714D02*
X175273333Y-77285333D01*
X175273333Y-77285333D02*
X175273333Y-77094857D01*
X175273333Y-77094857D02*
X175311429Y-76942476D01*
X175311429Y-76942476D02*
X175349524Y-76866285D01*
X175349524Y-76866285D02*
X175387619Y-76828190D01*
X175387619Y-76828190D02*
X175463810Y-76790095D01*
X176492381Y-77590095D02*
X176035238Y-77590095D01*
X176263810Y-77590095D02*
X176263810Y-76790095D01*
X176263810Y-76790095D02*
X176187619Y-76904380D01*
X176187619Y-76904380D02*
X176111429Y-76980571D01*
X176111429Y-76980571D02*
X176035238Y-77018666D01*
X176987620Y-76790095D02*
X177063810Y-76790095D01*
X177063810Y-76790095D02*
X177140001Y-76828190D01*
X177140001Y-76828190D02*
X177178096Y-76866285D01*
X177178096Y-76866285D02*
X177216191Y-76942476D01*
X177216191Y-76942476D02*
X177254286Y-77094857D01*
X177254286Y-77094857D02*
X177254286Y-77285333D01*
X177254286Y-77285333D02*
X177216191Y-77437714D01*
X177216191Y-77437714D02*
X177178096Y-77513904D01*
X177178096Y-77513904D02*
X177140001Y-77552000D01*
X177140001Y-77552000D02*
X177063810Y-77590095D01*
X177063810Y-77590095D02*
X176987620Y-77590095D01*
X176987620Y-77590095D02*
X176911429Y-77552000D01*
X176911429Y-77552000D02*
X176873334Y-77513904D01*
X176873334Y-77513904D02*
X176835239Y-77437714D01*
X176835239Y-77437714D02*
X176797143Y-77285333D01*
X176797143Y-77285333D02*
X176797143Y-77094857D01*
X176797143Y-77094857D02*
X176835239Y-76942476D01*
X176835239Y-76942476D02*
X176873334Y-76866285D01*
X176873334Y-76866285D02*
X176911429Y-76828190D01*
X176911429Y-76828190D02*
X176987620Y-76790095D01*
X177749525Y-76790095D02*
X177825715Y-76790095D01*
X177825715Y-76790095D02*
X177901906Y-76828190D01*
X177901906Y-76828190D02*
X177940001Y-76866285D01*
X177940001Y-76866285D02*
X177978096Y-76942476D01*
X177978096Y-76942476D02*
X178016191Y-77094857D01*
X178016191Y-77094857D02*
X178016191Y-77285333D01*
X178016191Y-77285333D02*
X177978096Y-77437714D01*
X177978096Y-77437714D02*
X177940001Y-77513904D01*
X177940001Y-77513904D02*
X177901906Y-77552000D01*
X177901906Y-77552000D02*
X177825715Y-77590095D01*
X177825715Y-77590095D02*
X177749525Y-77590095D01*
X177749525Y-77590095D02*
X177673334Y-77552000D01*
X177673334Y-77552000D02*
X177635239Y-77513904D01*
X177635239Y-77513904D02*
X177597144Y-77437714D01*
X177597144Y-77437714D02*
X177559048Y-77285333D01*
X177559048Y-77285333D02*
X177559048Y-77094857D01*
X177559048Y-77094857D02*
X177597144Y-76942476D01*
X177597144Y-76942476D02*
X177635239Y-76866285D01*
X177635239Y-76866285D02*
X177673334Y-76828190D01*
X177673334Y-76828190D02*
X177749525Y-76790095D01*
X178778096Y-77590095D02*
X178320953Y-77590095D01*
X178549525Y-77590095D02*
X178549525Y-76790095D01*
X178549525Y-76790095D02*
X178473334Y-76904380D01*
X178473334Y-76904380D02*
X178397144Y-76980571D01*
X178397144Y-76980571D02*
X178320953Y-77018666D01*
X171151428Y-128742000D02*
X171265714Y-128780095D01*
X171265714Y-128780095D02*
X171456190Y-128780095D01*
X171456190Y-128780095D02*
X171532381Y-128742000D01*
X171532381Y-128742000D02*
X171570476Y-128703904D01*
X171570476Y-128703904D02*
X171608571Y-128627714D01*
X171608571Y-128627714D02*
X171608571Y-128551523D01*
X171608571Y-128551523D02*
X171570476Y-128475333D01*
X171570476Y-128475333D02*
X171532381Y-128437238D01*
X171532381Y-128437238D02*
X171456190Y-128399142D01*
X171456190Y-128399142D02*
X171303809Y-128361047D01*
X171303809Y-128361047D02*
X171227619Y-128322952D01*
X171227619Y-128322952D02*
X171189524Y-128284857D01*
X171189524Y-128284857D02*
X171151428Y-128208666D01*
X171151428Y-128208666D02*
X171151428Y-128132476D01*
X171151428Y-128132476D02*
X171189524Y-128056285D01*
X171189524Y-128056285D02*
X171227619Y-128018190D01*
X171227619Y-128018190D02*
X171303809Y-127980095D01*
X171303809Y-127980095D02*
X171494286Y-127980095D01*
X171494286Y-127980095D02*
X171608571Y-128018190D01*
X171951429Y-128246761D02*
X171951429Y-129046761D01*
X171951429Y-128284857D02*
X172027619Y-128246761D01*
X172027619Y-128246761D02*
X172180000Y-128246761D01*
X172180000Y-128246761D02*
X172256191Y-128284857D01*
X172256191Y-128284857D02*
X172294286Y-128322952D01*
X172294286Y-128322952D02*
X172332381Y-128399142D01*
X172332381Y-128399142D02*
X172332381Y-128627714D01*
X172332381Y-128627714D02*
X172294286Y-128703904D01*
X172294286Y-128703904D02*
X172256191Y-128742000D01*
X172256191Y-128742000D02*
X172180000Y-128780095D01*
X172180000Y-128780095D02*
X172027619Y-128780095D01*
X172027619Y-128780095D02*
X171951429Y-128742000D01*
X172980001Y-128742000D02*
X172903810Y-128780095D01*
X172903810Y-128780095D02*
X172751429Y-128780095D01*
X172751429Y-128780095D02*
X172675239Y-128742000D01*
X172675239Y-128742000D02*
X172637143Y-128665809D01*
X172637143Y-128665809D02*
X172637143Y-128361047D01*
X172637143Y-128361047D02*
X172675239Y-128284857D01*
X172675239Y-128284857D02*
X172751429Y-128246761D01*
X172751429Y-128246761D02*
X172903810Y-128246761D01*
X172903810Y-128246761D02*
X172980001Y-128284857D01*
X172980001Y-128284857D02*
X173018096Y-128361047D01*
X173018096Y-128361047D02*
X173018096Y-128437238D01*
X173018096Y-128437238D02*
X172637143Y-128513428D01*
X173360953Y-128246761D02*
X173360953Y-128780095D01*
X173360953Y-128322952D02*
X173399048Y-128284857D01*
X173399048Y-128284857D02*
X173475238Y-128246761D01*
X173475238Y-128246761D02*
X173589524Y-128246761D01*
X173589524Y-128246761D02*
X173665715Y-128284857D01*
X173665715Y-128284857D02*
X173703810Y-128361047D01*
X173703810Y-128361047D02*
X173703810Y-128780095D01*
X174427620Y-128742000D02*
X174351429Y-128780095D01*
X174351429Y-128780095D02*
X174199048Y-128780095D01*
X174199048Y-128780095D02*
X174122858Y-128742000D01*
X174122858Y-128742000D02*
X174084763Y-128703904D01*
X174084763Y-128703904D02*
X174046667Y-128627714D01*
X174046667Y-128627714D02*
X174046667Y-128399142D01*
X174046667Y-128399142D02*
X174084763Y-128322952D01*
X174084763Y-128322952D02*
X174122858Y-128284857D01*
X174122858Y-128284857D02*
X174199048Y-128246761D01*
X174199048Y-128246761D02*
X174351429Y-128246761D01*
X174351429Y-128246761D02*
X174427620Y-128284857D01*
X175075239Y-128742000D02*
X174999048Y-128780095D01*
X174999048Y-128780095D02*
X174846667Y-128780095D01*
X174846667Y-128780095D02*
X174770477Y-128742000D01*
X174770477Y-128742000D02*
X174732381Y-128665809D01*
X174732381Y-128665809D02*
X174732381Y-128361047D01*
X174732381Y-128361047D02*
X174770477Y-128284857D01*
X174770477Y-128284857D02*
X174846667Y-128246761D01*
X174846667Y-128246761D02*
X174999048Y-128246761D01*
X174999048Y-128246761D02*
X175075239Y-128284857D01*
X175075239Y-128284857D02*
X175113334Y-128361047D01*
X175113334Y-128361047D02*
X175113334Y-128437238D01*
X175113334Y-128437238D02*
X174732381Y-128513428D01*
X175456191Y-128780095D02*
X175456191Y-128246761D01*
X175456191Y-128399142D02*
X175494286Y-128322952D01*
X175494286Y-128322952D02*
X175532381Y-128284857D01*
X175532381Y-128284857D02*
X175608572Y-128246761D01*
X175608572Y-128246761D02*
X175684762Y-128246761D01*
X176560953Y-128780095D02*
X176560953Y-127980095D01*
X176560953Y-127980095D02*
X177018096Y-128780095D01*
X177018096Y-128780095D02*
X177018096Y-127980095D01*
X177399048Y-128703904D02*
X177437143Y-128742000D01*
X177437143Y-128742000D02*
X177399048Y-128780095D01*
X177399048Y-128780095D02*
X177360952Y-128742000D01*
X177360952Y-128742000D02*
X177399048Y-128703904D01*
X177399048Y-128703904D02*
X177399048Y-128780095D01*
X178351428Y-128551523D02*
X178732381Y-128551523D01*
X178275238Y-128780095D02*
X178541905Y-127980095D01*
X178541905Y-127980095D02*
X178808571Y-128780095D01*
X178999047Y-128780095D02*
X179418095Y-128246761D01*
X178999047Y-128246761D02*
X179418095Y-128780095D01*
X180065714Y-128780095D02*
X180065714Y-128361047D01*
X180065714Y-128361047D02*
X180027619Y-128284857D01*
X180027619Y-128284857D02*
X179951428Y-128246761D01*
X179951428Y-128246761D02*
X179799047Y-128246761D01*
X179799047Y-128246761D02*
X179722857Y-128284857D01*
X180065714Y-128742000D02*
X179989523Y-128780095D01*
X179989523Y-128780095D02*
X179799047Y-128780095D01*
X179799047Y-128780095D02*
X179722857Y-128742000D01*
X179722857Y-128742000D02*
X179684761Y-128665809D01*
X179684761Y-128665809D02*
X179684761Y-128589619D01*
X179684761Y-128589619D02*
X179722857Y-128513428D01*
X179722857Y-128513428D02*
X179799047Y-128475333D01*
X179799047Y-128475333D02*
X179989523Y-128475333D01*
X179989523Y-128475333D02*
X180065714Y-128437238D01*
X180446667Y-128246761D02*
X180446667Y-128780095D01*
X180446667Y-128322952D02*
X180484762Y-128284857D01*
X180484762Y-128284857D02*
X180560952Y-128246761D01*
X180560952Y-128246761D02*
X180675238Y-128246761D01*
X180675238Y-128246761D02*
X180751429Y-128284857D01*
X180751429Y-128284857D02*
X180789524Y-128361047D01*
X180789524Y-128361047D02*
X180789524Y-128780095D01*
X181170477Y-128780095D02*
X181170477Y-128246761D01*
X181170477Y-127980095D02*
X181132381Y-128018190D01*
X181132381Y-128018190D02*
X181170477Y-128056285D01*
X181170477Y-128056285D02*
X181208572Y-128018190D01*
X181208572Y-128018190D02*
X181170477Y-127980095D01*
X181170477Y-127980095D02*
X181170477Y-128056285D01*
X182364285Y-128974857D02*
X182326190Y-128936761D01*
X182326190Y-128936761D02*
X182249999Y-128822476D01*
X182249999Y-128822476D02*
X182211904Y-128746285D01*
X182211904Y-128746285D02*
X182173809Y-128632000D01*
X182173809Y-128632000D02*
X182135714Y-128441523D01*
X182135714Y-128441523D02*
X182135714Y-128289142D01*
X182135714Y-128289142D02*
X182173809Y-128098666D01*
X182173809Y-128098666D02*
X182211904Y-127984380D01*
X182211904Y-127984380D02*
X182249999Y-127908190D01*
X182249999Y-127908190D02*
X182326190Y-127793904D01*
X182326190Y-127793904D02*
X182364285Y-127755809D01*
X182630951Y-128632000D02*
X182707142Y-128670095D01*
X182707142Y-128670095D02*
X182859523Y-128670095D01*
X182859523Y-128670095D02*
X182935713Y-128632000D01*
X182935713Y-128632000D02*
X182973809Y-128555809D01*
X182973809Y-128555809D02*
X182973809Y-128517714D01*
X182973809Y-128517714D02*
X182935713Y-128441523D01*
X182935713Y-128441523D02*
X182859523Y-128403428D01*
X182859523Y-128403428D02*
X182745237Y-128403428D01*
X182745237Y-128403428D02*
X182669047Y-128365333D01*
X182669047Y-128365333D02*
X182630951Y-128289142D01*
X182630951Y-128289142D02*
X182630951Y-128251047D01*
X182630951Y-128251047D02*
X182669047Y-128174857D01*
X182669047Y-128174857D02*
X182745237Y-128136761D01*
X182745237Y-128136761D02*
X182859523Y-128136761D01*
X182859523Y-128136761D02*
X182935713Y-128174857D01*
X183659523Y-128670095D02*
X183659523Y-128251047D01*
X183659523Y-128251047D02*
X183621428Y-128174857D01*
X183621428Y-128174857D02*
X183545237Y-128136761D01*
X183545237Y-128136761D02*
X183392856Y-128136761D01*
X183392856Y-128136761D02*
X183316666Y-128174857D01*
X183659523Y-128632000D02*
X183583332Y-128670095D01*
X183583332Y-128670095D02*
X183392856Y-128670095D01*
X183392856Y-128670095D02*
X183316666Y-128632000D01*
X183316666Y-128632000D02*
X183278570Y-128555809D01*
X183278570Y-128555809D02*
X183278570Y-128479619D01*
X183278570Y-128479619D02*
X183316666Y-128403428D01*
X183316666Y-128403428D02*
X183392856Y-128365333D01*
X183392856Y-128365333D02*
X183583332Y-128365333D01*
X183583332Y-128365333D02*
X183659523Y-128327238D01*
X183964285Y-128670095D02*
X184383333Y-128136761D01*
X183964285Y-128136761D02*
X184383333Y-128670095D01*
X185030952Y-128670095D02*
X185030952Y-128251047D01*
X185030952Y-128251047D02*
X184992857Y-128174857D01*
X184992857Y-128174857D02*
X184916666Y-128136761D01*
X184916666Y-128136761D02*
X184764285Y-128136761D01*
X184764285Y-128136761D02*
X184688095Y-128174857D01*
X185030952Y-128632000D02*
X184954761Y-128670095D01*
X184954761Y-128670095D02*
X184764285Y-128670095D01*
X184764285Y-128670095D02*
X184688095Y-128632000D01*
X184688095Y-128632000D02*
X184649999Y-128555809D01*
X184649999Y-128555809D02*
X184649999Y-128479619D01*
X184649999Y-128479619D02*
X184688095Y-128403428D01*
X184688095Y-128403428D02*
X184764285Y-128365333D01*
X184764285Y-128365333D02*
X184954761Y-128365333D01*
X184954761Y-128365333D02*
X185030952Y-128327238D01*
X185411905Y-128136761D02*
X185411905Y-128670095D01*
X185411905Y-128212952D02*
X185450000Y-128174857D01*
X185450000Y-128174857D02*
X185526190Y-128136761D01*
X185526190Y-128136761D02*
X185640476Y-128136761D01*
X185640476Y-128136761D02*
X185716667Y-128174857D01*
X185716667Y-128174857D02*
X185754762Y-128251047D01*
X185754762Y-128251047D02*
X185754762Y-128670095D01*
X186135715Y-128670095D02*
X186135715Y-128136761D01*
X186135715Y-127870095D02*
X186097619Y-127908190D01*
X186097619Y-127908190D02*
X186135715Y-127946285D01*
X186135715Y-127946285D02*
X186173810Y-127908190D01*
X186173810Y-127908190D02*
X186135715Y-127870095D01*
X186135715Y-127870095D02*
X186135715Y-127946285D01*
X187011905Y-128289142D02*
X186973810Y-128251047D01*
X186973810Y-128251047D02*
X186897619Y-128212952D01*
X186897619Y-128212952D02*
X186821429Y-128212952D01*
X186821429Y-128212952D02*
X186745238Y-128251047D01*
X186745238Y-128251047D02*
X186707143Y-128289142D01*
X186707143Y-128289142D02*
X186669048Y-128365333D01*
X186669048Y-128365333D02*
X186669048Y-128441523D01*
X186669048Y-128441523D02*
X186707143Y-128517714D01*
X186707143Y-128517714D02*
X186745238Y-128555809D01*
X186745238Y-128555809D02*
X186821429Y-128593904D01*
X186821429Y-128593904D02*
X186897619Y-128593904D01*
X186897619Y-128593904D02*
X186973810Y-128555809D01*
X186973810Y-128555809D02*
X187011905Y-128517714D01*
X187011905Y-128212952D02*
X187011905Y-128517714D01*
X187011905Y-128517714D02*
X187050000Y-128555809D01*
X187050000Y-128555809D02*
X187088095Y-128555809D01*
X187088095Y-128555809D02*
X187164286Y-128517714D01*
X187164286Y-128517714D02*
X187202381Y-128441523D01*
X187202381Y-128441523D02*
X187202381Y-128251047D01*
X187202381Y-128251047D02*
X187126191Y-128136761D01*
X187126191Y-128136761D02*
X187011905Y-128060571D01*
X187011905Y-128060571D02*
X186859524Y-128022476D01*
X186859524Y-128022476D02*
X186707143Y-128060571D01*
X186707143Y-128060571D02*
X186592857Y-128136761D01*
X186592857Y-128136761D02*
X186516667Y-128251047D01*
X186516667Y-128251047D02*
X186478571Y-128403428D01*
X186478571Y-128403428D02*
X186516667Y-128555809D01*
X186516667Y-128555809D02*
X186592857Y-128670095D01*
X186592857Y-128670095D02*
X186707143Y-128746285D01*
X186707143Y-128746285D02*
X186859524Y-128784380D01*
X186859524Y-128784380D02*
X187011905Y-128746285D01*
X187011905Y-128746285D02*
X187126191Y-128670095D01*
X187888095Y-128136761D02*
X187888095Y-128670095D01*
X187545238Y-128136761D02*
X187545238Y-128555809D01*
X187545238Y-128555809D02*
X187583333Y-128632000D01*
X187583333Y-128632000D02*
X187659523Y-128670095D01*
X187659523Y-128670095D02*
X187773809Y-128670095D01*
X187773809Y-128670095D02*
X187850000Y-128632000D01*
X187850000Y-128632000D02*
X187888095Y-128593904D01*
X188611905Y-128670095D02*
X188611905Y-127870095D01*
X188611905Y-128632000D02*
X188535714Y-128670095D01*
X188535714Y-128670095D02*
X188383333Y-128670095D01*
X188383333Y-128670095D02*
X188307143Y-128632000D01*
X188307143Y-128632000D02*
X188269048Y-128593904D01*
X188269048Y-128593904D02*
X188230952Y-128517714D01*
X188230952Y-128517714D02*
X188230952Y-128289142D01*
X188230952Y-128289142D02*
X188269048Y-128212952D01*
X188269048Y-128212952D02*
X188307143Y-128174857D01*
X188307143Y-128174857D02*
X188383333Y-128136761D01*
X188383333Y-128136761D02*
X188535714Y-128136761D01*
X188535714Y-128136761D02*
X188611905Y-128174857D01*
X189297620Y-128632000D02*
X189221429Y-128670095D01*
X189221429Y-128670095D02*
X189069048Y-128670095D01*
X189069048Y-128670095D02*
X188992858Y-128632000D01*
X188992858Y-128632000D02*
X188954762Y-128555809D01*
X188954762Y-128555809D02*
X188954762Y-128251047D01*
X188954762Y-128251047D02*
X188992858Y-128174857D01*
X188992858Y-128174857D02*
X189069048Y-128136761D01*
X189069048Y-128136761D02*
X189221429Y-128136761D01*
X189221429Y-128136761D02*
X189297620Y-128174857D01*
X189297620Y-128174857D02*
X189335715Y-128251047D01*
X189335715Y-128251047D02*
X189335715Y-128327238D01*
X189335715Y-128327238D02*
X188954762Y-128403428D01*
X189792857Y-128670095D02*
X189716667Y-128632000D01*
X189716667Y-128632000D02*
X189678572Y-128555809D01*
X189678572Y-128555809D02*
X189678572Y-127870095D01*
X190097620Y-128593904D02*
X190135715Y-128632000D01*
X190135715Y-128632000D02*
X190097620Y-128670095D01*
X190097620Y-128670095D02*
X190059524Y-128632000D01*
X190059524Y-128632000D02*
X190097620Y-128593904D01*
X190097620Y-128593904D02*
X190097620Y-128670095D01*
X190783334Y-128632000D02*
X190707143Y-128670095D01*
X190707143Y-128670095D02*
X190554762Y-128670095D01*
X190554762Y-128670095D02*
X190478572Y-128632000D01*
X190478572Y-128632000D02*
X190440476Y-128555809D01*
X190440476Y-128555809D02*
X190440476Y-128251047D01*
X190440476Y-128251047D02*
X190478572Y-128174857D01*
X190478572Y-128174857D02*
X190554762Y-128136761D01*
X190554762Y-128136761D02*
X190707143Y-128136761D01*
X190707143Y-128136761D02*
X190783334Y-128174857D01*
X190783334Y-128174857D02*
X190821429Y-128251047D01*
X190821429Y-128251047D02*
X190821429Y-128327238D01*
X190821429Y-128327238D02*
X190440476Y-128403428D01*
X191507143Y-128670095D02*
X191507143Y-127870095D01*
X191507143Y-128632000D02*
X191430952Y-128670095D01*
X191430952Y-128670095D02*
X191278571Y-128670095D01*
X191278571Y-128670095D02*
X191202381Y-128632000D01*
X191202381Y-128632000D02*
X191164286Y-128593904D01*
X191164286Y-128593904D02*
X191126190Y-128517714D01*
X191126190Y-128517714D02*
X191126190Y-128289142D01*
X191126190Y-128289142D02*
X191164286Y-128212952D01*
X191164286Y-128212952D02*
X191202381Y-128174857D01*
X191202381Y-128174857D02*
X191278571Y-128136761D01*
X191278571Y-128136761D02*
X191430952Y-128136761D01*
X191430952Y-128136761D02*
X191507143Y-128174857D01*
X192230953Y-128136761D02*
X192230953Y-128670095D01*
X191888096Y-128136761D02*
X191888096Y-128555809D01*
X191888096Y-128555809D02*
X191926191Y-128632000D01*
X191926191Y-128632000D02*
X192002381Y-128670095D01*
X192002381Y-128670095D02*
X192116667Y-128670095D01*
X192116667Y-128670095D02*
X192192858Y-128632000D01*
X192192858Y-128632000D02*
X192230953Y-128593904D01*
X192535715Y-128974857D02*
X192573810Y-128936761D01*
X192573810Y-128936761D02*
X192650001Y-128822476D01*
X192650001Y-128822476D02*
X192688096Y-128746285D01*
X192688096Y-128746285D02*
X192726191Y-128632000D01*
X192726191Y-128632000D02*
X192764287Y-128441523D01*
X192764287Y-128441523D02*
X192764287Y-128289142D01*
X192764287Y-128289142D02*
X192726191Y-128098666D01*
X192726191Y-128098666D02*
X192688096Y-127984380D01*
X192688096Y-127984380D02*
X192650001Y-127908190D01*
X192650001Y-127908190D02*
X192573810Y-127793904D01*
X192573810Y-127793904D02*
X192535715Y-127755809D01*
X142749047Y-89617000D02*
X142672856Y-89655095D01*
X142672856Y-89655095D02*
X142520475Y-89655095D01*
X142520475Y-89655095D02*
X142444285Y-89617000D01*
X142444285Y-89617000D02*
X142406190Y-89578904D01*
X142406190Y-89578904D02*
X142368094Y-89502714D01*
X142368094Y-89502714D02*
X142368094Y-89274142D01*
X142368094Y-89274142D02*
X142406190Y-89197952D01*
X142406190Y-89197952D02*
X142444285Y-89159857D01*
X142444285Y-89159857D02*
X142520475Y-89121761D01*
X142520475Y-89121761D02*
X142672856Y-89121761D01*
X142672856Y-89121761D02*
X142749047Y-89159857D01*
X143091904Y-89655095D02*
X143091904Y-89121761D01*
X143091904Y-89197952D02*
X143129999Y-89159857D01*
X143129999Y-89159857D02*
X143206189Y-89121761D01*
X143206189Y-89121761D02*
X143320475Y-89121761D01*
X143320475Y-89121761D02*
X143396666Y-89159857D01*
X143396666Y-89159857D02*
X143434761Y-89236047D01*
X143434761Y-89236047D02*
X143434761Y-89655095D01*
X143434761Y-89236047D02*
X143472856Y-89159857D01*
X143472856Y-89159857D02*
X143549047Y-89121761D01*
X143549047Y-89121761D02*
X143663332Y-89121761D01*
X143663332Y-89121761D02*
X143739523Y-89159857D01*
X143739523Y-89159857D02*
X143777618Y-89236047D01*
X143777618Y-89236047D02*
X143777618Y-89655095D01*
X144082380Y-89655095D02*
X144501428Y-89121761D01*
X144082380Y-89121761D02*
X144501428Y-89655095D01*
X144691904Y-89121761D02*
X144996666Y-89121761D01*
X144806190Y-88855095D02*
X144806190Y-89540809D01*
X144806190Y-89540809D02*
X144844285Y-89617000D01*
X144844285Y-89617000D02*
X144920475Y-89655095D01*
X144920475Y-89655095D02*
X144996666Y-89655095D01*
X145225237Y-88931285D02*
X145263333Y-88893190D01*
X145263333Y-88893190D02*
X145339523Y-88855095D01*
X145339523Y-88855095D02*
X145529999Y-88855095D01*
X145529999Y-88855095D02*
X145606190Y-88893190D01*
X145606190Y-88893190D02*
X145644285Y-88931285D01*
X145644285Y-88931285D02*
X145682380Y-89007476D01*
X145682380Y-89007476D02*
X145682380Y-89083666D01*
X145682380Y-89083666D02*
X145644285Y-89197952D01*
X145644285Y-89197952D02*
X145187142Y-89655095D01*
X145187142Y-89655095D02*
X145682380Y-89655095D01*
X145987142Y-88931285D02*
X146025238Y-88893190D01*
X146025238Y-88893190D02*
X146101428Y-88855095D01*
X146101428Y-88855095D02*
X146291904Y-88855095D01*
X146291904Y-88855095D02*
X146368095Y-88893190D01*
X146368095Y-88893190D02*
X146406190Y-88931285D01*
X146406190Y-88931285D02*
X146444285Y-89007476D01*
X146444285Y-89007476D02*
X146444285Y-89083666D01*
X146444285Y-89083666D02*
X146406190Y-89197952D01*
X146406190Y-89197952D02*
X145949047Y-89655095D01*
X145949047Y-89655095D02*
X146444285Y-89655095D01*
X146749047Y-88931285D02*
X146787143Y-88893190D01*
X146787143Y-88893190D02*
X146863333Y-88855095D01*
X146863333Y-88855095D02*
X147053809Y-88855095D01*
X147053809Y-88855095D02*
X147130000Y-88893190D01*
X147130000Y-88893190D02*
X147168095Y-88931285D01*
X147168095Y-88931285D02*
X147206190Y-89007476D01*
X147206190Y-89007476D02*
X147206190Y-89083666D01*
X147206190Y-89083666D02*
X147168095Y-89197952D01*
X147168095Y-89197952D02*
X146710952Y-89655095D01*
X146710952Y-89655095D02*
X147206190Y-89655095D01*
X147510952Y-88931285D02*
X147549048Y-88893190D01*
X147549048Y-88893190D02*
X147625238Y-88855095D01*
X147625238Y-88855095D02*
X147815714Y-88855095D01*
X147815714Y-88855095D02*
X147891905Y-88893190D01*
X147891905Y-88893190D02*
X147930000Y-88931285D01*
X147930000Y-88931285D02*
X147968095Y-89007476D01*
X147968095Y-89007476D02*
X147968095Y-89083666D01*
X147968095Y-89083666D02*
X147930000Y-89197952D01*
X147930000Y-89197952D02*
X147472857Y-89655095D01*
X147472857Y-89655095D02*
X147968095Y-89655095D01*
X148653810Y-89655095D02*
X148653810Y-89236047D01*
X148653810Y-89236047D02*
X148615715Y-89159857D01*
X148615715Y-89159857D02*
X148539524Y-89121761D01*
X148539524Y-89121761D02*
X148387143Y-89121761D01*
X148387143Y-89121761D02*
X148310953Y-89159857D01*
X148653810Y-89617000D02*
X148577619Y-89655095D01*
X148577619Y-89655095D02*
X148387143Y-89655095D01*
X148387143Y-89655095D02*
X148310953Y-89617000D01*
X148310953Y-89617000D02*
X148272857Y-89540809D01*
X148272857Y-89540809D02*
X148272857Y-89464619D01*
X148272857Y-89464619D02*
X148310953Y-89388428D01*
X148310953Y-89388428D02*
X148387143Y-89350333D01*
X148387143Y-89350333D02*
X148577619Y-89350333D01*
X148577619Y-89350333D02*
X148653810Y-89312238D01*
D11*
X193252619Y-50978904D02*
X193214523Y-51017000D01*
X193214523Y-51017000D02*
X193100238Y-51055095D01*
X193100238Y-51055095D02*
X193024047Y-51055095D01*
X193024047Y-51055095D02*
X192909761Y-51017000D01*
X192909761Y-51017000D02*
X192833571Y-50940809D01*
X192833571Y-50940809D02*
X192795476Y-50864619D01*
X192795476Y-50864619D02*
X192757380Y-50712238D01*
X192757380Y-50712238D02*
X192757380Y-50597952D01*
X192757380Y-50597952D02*
X192795476Y-50445571D01*
X192795476Y-50445571D02*
X192833571Y-50369380D01*
X192833571Y-50369380D02*
X192909761Y-50293190D01*
X192909761Y-50293190D02*
X193024047Y-50255095D01*
X193024047Y-50255095D02*
X193100238Y-50255095D01*
X193100238Y-50255095D02*
X193214523Y-50293190D01*
X193214523Y-50293190D02*
X193252619Y-50331285D01*
X193709761Y-51055095D02*
X193633571Y-51017000D01*
X193633571Y-51017000D02*
X193595476Y-50978904D01*
X193595476Y-50978904D02*
X193557380Y-50902714D01*
X193557380Y-50902714D02*
X193557380Y-50674142D01*
X193557380Y-50674142D02*
X193595476Y-50597952D01*
X193595476Y-50597952D02*
X193633571Y-50559857D01*
X193633571Y-50559857D02*
X193709761Y-50521761D01*
X193709761Y-50521761D02*
X193824047Y-50521761D01*
X193824047Y-50521761D02*
X193900238Y-50559857D01*
X193900238Y-50559857D02*
X193938333Y-50597952D01*
X193938333Y-50597952D02*
X193976428Y-50674142D01*
X193976428Y-50674142D02*
X193976428Y-50902714D01*
X193976428Y-50902714D02*
X193938333Y-50978904D01*
X193938333Y-50978904D02*
X193900238Y-51017000D01*
X193900238Y-51017000D02*
X193824047Y-51055095D01*
X193824047Y-51055095D02*
X193709761Y-51055095D01*
X194319286Y-51055095D02*
X194319286Y-50521761D01*
X194319286Y-50255095D02*
X194281190Y-50293190D01*
X194281190Y-50293190D02*
X194319286Y-50331285D01*
X194319286Y-50331285D02*
X194357381Y-50293190D01*
X194357381Y-50293190D02*
X194319286Y-50255095D01*
X194319286Y-50255095D02*
X194319286Y-50331285D01*
X194700238Y-50521761D02*
X194700238Y-51055095D01*
X194700238Y-50597952D02*
X194738333Y-50559857D01*
X194738333Y-50559857D02*
X194814523Y-50521761D01*
X194814523Y-50521761D02*
X194928809Y-50521761D01*
X194928809Y-50521761D02*
X195005000Y-50559857D01*
X195005000Y-50559857D02*
X195043095Y-50636047D01*
X195043095Y-50636047D02*
X195043095Y-51055095D01*
X195766905Y-51017000D02*
X195690714Y-51055095D01*
X195690714Y-51055095D02*
X195538333Y-51055095D01*
X195538333Y-51055095D02*
X195462143Y-51017000D01*
X195462143Y-51017000D02*
X195424048Y-50978904D01*
X195424048Y-50978904D02*
X195385952Y-50902714D01*
X195385952Y-50902714D02*
X195385952Y-50674142D01*
X195385952Y-50674142D02*
X195424048Y-50597952D01*
X195424048Y-50597952D02*
X195462143Y-50559857D01*
X195462143Y-50559857D02*
X195538333Y-50521761D01*
X195538333Y-50521761D02*
X195690714Y-50521761D01*
X195690714Y-50521761D02*
X195766905Y-50559857D01*
X196109762Y-51055095D02*
X196109762Y-50521761D01*
X196109762Y-50255095D02*
X196071666Y-50293190D01*
X196071666Y-50293190D02*
X196109762Y-50331285D01*
X196109762Y-50331285D02*
X196147857Y-50293190D01*
X196147857Y-50293190D02*
X196109762Y-50255095D01*
X196109762Y-50255095D02*
X196109762Y-50331285D01*
X196833571Y-51055095D02*
X196833571Y-50255095D01*
X196833571Y-51017000D02*
X196757380Y-51055095D01*
X196757380Y-51055095D02*
X196604999Y-51055095D01*
X196604999Y-51055095D02*
X196528809Y-51017000D01*
X196528809Y-51017000D02*
X196490714Y-50978904D01*
X196490714Y-50978904D02*
X196452618Y-50902714D01*
X196452618Y-50902714D02*
X196452618Y-50674142D01*
X196452618Y-50674142D02*
X196490714Y-50597952D01*
X196490714Y-50597952D02*
X196528809Y-50559857D01*
X196528809Y-50559857D02*
X196604999Y-50521761D01*
X196604999Y-50521761D02*
X196757380Y-50521761D01*
X196757380Y-50521761D02*
X196833571Y-50559857D01*
X197519286Y-51017000D02*
X197443095Y-51055095D01*
X197443095Y-51055095D02*
X197290714Y-51055095D01*
X197290714Y-51055095D02*
X197214524Y-51017000D01*
X197214524Y-51017000D02*
X197176428Y-50940809D01*
X197176428Y-50940809D02*
X197176428Y-50636047D01*
X197176428Y-50636047D02*
X197214524Y-50559857D01*
X197214524Y-50559857D02*
X197290714Y-50521761D01*
X197290714Y-50521761D02*
X197443095Y-50521761D01*
X197443095Y-50521761D02*
X197519286Y-50559857D01*
X197519286Y-50559857D02*
X197557381Y-50636047D01*
X197557381Y-50636047D02*
X197557381Y-50712238D01*
X197557381Y-50712238D02*
X197176428Y-50788428D01*
X197900238Y-50521761D02*
X197900238Y-51055095D01*
X197900238Y-50597952D02*
X197938333Y-50559857D01*
X197938333Y-50559857D02*
X198014523Y-50521761D01*
X198014523Y-50521761D02*
X198128809Y-50521761D01*
X198128809Y-50521761D02*
X198205000Y-50559857D01*
X198205000Y-50559857D02*
X198243095Y-50636047D01*
X198243095Y-50636047D02*
X198243095Y-51055095D01*
X198966905Y-51017000D02*
X198890714Y-51055095D01*
X198890714Y-51055095D02*
X198738333Y-51055095D01*
X198738333Y-51055095D02*
X198662143Y-51017000D01*
X198662143Y-51017000D02*
X198624048Y-50978904D01*
X198624048Y-50978904D02*
X198585952Y-50902714D01*
X198585952Y-50902714D02*
X198585952Y-50674142D01*
X198585952Y-50674142D02*
X198624048Y-50597952D01*
X198624048Y-50597952D02*
X198662143Y-50559857D01*
X198662143Y-50559857D02*
X198738333Y-50521761D01*
X198738333Y-50521761D02*
X198890714Y-50521761D01*
X198890714Y-50521761D02*
X198966905Y-50559857D01*
X199614524Y-51017000D02*
X199538333Y-51055095D01*
X199538333Y-51055095D02*
X199385952Y-51055095D01*
X199385952Y-51055095D02*
X199309762Y-51017000D01*
X199309762Y-51017000D02*
X199271666Y-50940809D01*
X199271666Y-50940809D02*
X199271666Y-50636047D01*
X199271666Y-50636047D02*
X199309762Y-50559857D01*
X199309762Y-50559857D02*
X199385952Y-50521761D01*
X199385952Y-50521761D02*
X199538333Y-50521761D01*
X199538333Y-50521761D02*
X199614524Y-50559857D01*
X199614524Y-50559857D02*
X199652619Y-50636047D01*
X199652619Y-50636047D02*
X199652619Y-50712238D01*
X199652619Y-50712238D02*
X199271666Y-50788428D01*
X220213333Y-55230095D02*
X220213333Y-54430095D01*
X220213333Y-54430095D02*
X220479999Y-55001523D01*
X220479999Y-55001523D02*
X220746666Y-54430095D01*
X220746666Y-54430095D02*
X220746666Y-55230095D01*
X221127619Y-55230095D02*
X221127619Y-54696761D01*
X221127619Y-54430095D02*
X221089523Y-54468190D01*
X221089523Y-54468190D02*
X221127619Y-54506285D01*
X221127619Y-54506285D02*
X221165714Y-54468190D01*
X221165714Y-54468190D02*
X221127619Y-54430095D01*
X221127619Y-54430095D02*
X221127619Y-54506285D01*
X221851428Y-55192000D02*
X221775237Y-55230095D01*
X221775237Y-55230095D02*
X221622856Y-55230095D01*
X221622856Y-55230095D02*
X221546666Y-55192000D01*
X221546666Y-55192000D02*
X221508571Y-55153904D01*
X221508571Y-55153904D02*
X221470475Y-55077714D01*
X221470475Y-55077714D02*
X221470475Y-54849142D01*
X221470475Y-54849142D02*
X221508571Y-54772952D01*
X221508571Y-54772952D02*
X221546666Y-54734857D01*
X221546666Y-54734857D02*
X221622856Y-54696761D01*
X221622856Y-54696761D02*
X221775237Y-54696761D01*
X221775237Y-54696761D02*
X221851428Y-54734857D01*
X222194285Y-55230095D02*
X222194285Y-54696761D01*
X222194285Y-54849142D02*
X222232380Y-54772952D01*
X222232380Y-54772952D02*
X222270475Y-54734857D01*
X222270475Y-54734857D02*
X222346666Y-54696761D01*
X222346666Y-54696761D02*
X222422856Y-54696761D01*
X222803808Y-55230095D02*
X222727618Y-55192000D01*
X222727618Y-55192000D02*
X222689523Y-55153904D01*
X222689523Y-55153904D02*
X222651427Y-55077714D01*
X222651427Y-55077714D02*
X222651427Y-54849142D01*
X222651427Y-54849142D02*
X222689523Y-54772952D01*
X222689523Y-54772952D02*
X222727618Y-54734857D01*
X222727618Y-54734857D02*
X222803808Y-54696761D01*
X222803808Y-54696761D02*
X222918094Y-54696761D01*
X222918094Y-54696761D02*
X222994285Y-54734857D01*
X222994285Y-54734857D02*
X223032380Y-54772952D01*
X223032380Y-54772952D02*
X223070475Y-54849142D01*
X223070475Y-54849142D02*
X223070475Y-55077714D01*
X223070475Y-55077714D02*
X223032380Y-55153904D01*
X223032380Y-55153904D02*
X222994285Y-55192000D01*
X222994285Y-55192000D02*
X222918094Y-55230095D01*
X222918094Y-55230095D02*
X222803808Y-55230095D01*
X223375237Y-55192000D02*
X223489523Y-55230095D01*
X223489523Y-55230095D02*
X223679999Y-55230095D01*
X223679999Y-55230095D02*
X223756190Y-55192000D01*
X223756190Y-55192000D02*
X223794285Y-55153904D01*
X223794285Y-55153904D02*
X223832380Y-55077714D01*
X223832380Y-55077714D02*
X223832380Y-55001523D01*
X223832380Y-55001523D02*
X223794285Y-54925333D01*
X223794285Y-54925333D02*
X223756190Y-54887238D01*
X223756190Y-54887238D02*
X223679999Y-54849142D01*
X223679999Y-54849142D02*
X223527618Y-54811047D01*
X223527618Y-54811047D02*
X223451428Y-54772952D01*
X223451428Y-54772952D02*
X223413333Y-54734857D01*
X223413333Y-54734857D02*
X223375237Y-54658666D01*
X223375237Y-54658666D02*
X223375237Y-54582476D01*
X223375237Y-54582476D02*
X223413333Y-54506285D01*
X223413333Y-54506285D02*
X223451428Y-54468190D01*
X223451428Y-54468190D02*
X223527618Y-54430095D01*
X223527618Y-54430095D02*
X223718095Y-54430095D01*
X223718095Y-54430095D02*
X223832380Y-54468190D01*
X224175238Y-55230095D02*
X224175238Y-54430095D01*
X224175238Y-54430095D02*
X224365714Y-54430095D01*
X224365714Y-54430095D02*
X224480000Y-54468190D01*
X224480000Y-54468190D02*
X224556190Y-54544380D01*
X224556190Y-54544380D02*
X224594285Y-54620571D01*
X224594285Y-54620571D02*
X224632381Y-54772952D01*
X224632381Y-54772952D02*
X224632381Y-54887238D01*
X224632381Y-54887238D02*
X224594285Y-55039619D01*
X224594285Y-55039619D02*
X224556190Y-55115809D01*
X224556190Y-55115809D02*
X224480000Y-55192000D01*
X224480000Y-55192000D02*
X224365714Y-55230095D01*
X224365714Y-55230095D02*
X224175238Y-55230095D01*
X226041905Y-55153904D02*
X226003809Y-55192000D01*
X226003809Y-55192000D02*
X225889524Y-55230095D01*
X225889524Y-55230095D02*
X225813333Y-55230095D01*
X225813333Y-55230095D02*
X225699047Y-55192000D01*
X225699047Y-55192000D02*
X225622857Y-55115809D01*
X225622857Y-55115809D02*
X225584762Y-55039619D01*
X225584762Y-55039619D02*
X225546666Y-54887238D01*
X225546666Y-54887238D02*
X225546666Y-54772952D01*
X225546666Y-54772952D02*
X225584762Y-54620571D01*
X225584762Y-54620571D02*
X225622857Y-54544380D01*
X225622857Y-54544380D02*
X225699047Y-54468190D01*
X225699047Y-54468190D02*
X225813333Y-54430095D01*
X225813333Y-54430095D02*
X225889524Y-54430095D01*
X225889524Y-54430095D02*
X226003809Y-54468190D01*
X226003809Y-54468190D02*
X226041905Y-54506285D01*
X226727619Y-55230095D02*
X226727619Y-54811047D01*
X226727619Y-54811047D02*
X226689524Y-54734857D01*
X226689524Y-54734857D02*
X226613333Y-54696761D01*
X226613333Y-54696761D02*
X226460952Y-54696761D01*
X226460952Y-54696761D02*
X226384762Y-54734857D01*
X226727619Y-55192000D02*
X226651428Y-55230095D01*
X226651428Y-55230095D02*
X226460952Y-55230095D01*
X226460952Y-55230095D02*
X226384762Y-55192000D01*
X226384762Y-55192000D02*
X226346666Y-55115809D01*
X226346666Y-55115809D02*
X226346666Y-55039619D01*
X226346666Y-55039619D02*
X226384762Y-54963428D01*
X226384762Y-54963428D02*
X226460952Y-54925333D01*
X226460952Y-54925333D02*
X226651428Y-54925333D01*
X226651428Y-54925333D02*
X226727619Y-54887238D01*
X227108572Y-55230095D02*
X227108572Y-54696761D01*
X227108572Y-54849142D02*
X227146667Y-54772952D01*
X227146667Y-54772952D02*
X227184762Y-54734857D01*
X227184762Y-54734857D02*
X227260953Y-54696761D01*
X227260953Y-54696761D02*
X227337143Y-54696761D01*
X227946667Y-55230095D02*
X227946667Y-54430095D01*
X227946667Y-55192000D02*
X227870476Y-55230095D01*
X227870476Y-55230095D02*
X227718095Y-55230095D01*
X227718095Y-55230095D02*
X227641905Y-55192000D01*
X227641905Y-55192000D02*
X227603810Y-55153904D01*
X227603810Y-55153904D02*
X227565714Y-55077714D01*
X227565714Y-55077714D02*
X227565714Y-54849142D01*
X227565714Y-54849142D02*
X227603810Y-54772952D01*
X227603810Y-54772952D02*
X227641905Y-54734857D01*
X227641905Y-54734857D02*
X227718095Y-54696761D01*
X227718095Y-54696761D02*
X227870476Y-54696761D01*
X227870476Y-54696761D02*
X227946667Y-54734857D01*
X209353809Y-45442000D02*
X209468095Y-45480095D01*
X209468095Y-45480095D02*
X209658571Y-45480095D01*
X209658571Y-45480095D02*
X209734762Y-45442000D01*
X209734762Y-45442000D02*
X209772857Y-45403904D01*
X209772857Y-45403904D02*
X209810952Y-45327714D01*
X209810952Y-45327714D02*
X209810952Y-45251523D01*
X209810952Y-45251523D02*
X209772857Y-45175333D01*
X209772857Y-45175333D02*
X209734762Y-45137238D01*
X209734762Y-45137238D02*
X209658571Y-45099142D01*
X209658571Y-45099142D02*
X209506190Y-45061047D01*
X209506190Y-45061047D02*
X209430000Y-45022952D01*
X209430000Y-45022952D02*
X209391905Y-44984857D01*
X209391905Y-44984857D02*
X209353809Y-44908666D01*
X209353809Y-44908666D02*
X209353809Y-44832476D01*
X209353809Y-44832476D02*
X209391905Y-44756285D01*
X209391905Y-44756285D02*
X209430000Y-44718190D01*
X209430000Y-44718190D02*
X209506190Y-44680095D01*
X209506190Y-44680095D02*
X209696667Y-44680095D01*
X209696667Y-44680095D02*
X209810952Y-44718190D01*
X210153810Y-45480095D02*
X210153810Y-44946761D01*
X210153810Y-44680095D02*
X210115714Y-44718190D01*
X210115714Y-44718190D02*
X210153810Y-44756285D01*
X210153810Y-44756285D02*
X210191905Y-44718190D01*
X210191905Y-44718190D02*
X210153810Y-44680095D01*
X210153810Y-44680095D02*
X210153810Y-44756285D01*
X210534762Y-45480095D02*
X210534762Y-44680095D01*
X210534762Y-44680095D02*
X210839524Y-44680095D01*
X210839524Y-44680095D02*
X210915714Y-44718190D01*
X210915714Y-44718190D02*
X210953809Y-44756285D01*
X210953809Y-44756285D02*
X210991905Y-44832476D01*
X210991905Y-44832476D02*
X210991905Y-44946761D01*
X210991905Y-44946761D02*
X210953809Y-45022952D01*
X210953809Y-45022952D02*
X210915714Y-45061047D01*
X210915714Y-45061047D02*
X210839524Y-45099142D01*
X210839524Y-45099142D02*
X210534762Y-45099142D01*
X211334762Y-45480095D02*
X211334762Y-44680095D01*
X211334762Y-44680095D02*
X211601428Y-45251523D01*
X211601428Y-45251523D02*
X211868095Y-44680095D01*
X211868095Y-44680095D02*
X211868095Y-45480095D01*
X219244284Y-38480904D02*
X219206188Y-38519000D01*
X219206188Y-38519000D02*
X219091903Y-38557095D01*
X219091903Y-38557095D02*
X219015712Y-38557095D01*
X219015712Y-38557095D02*
X218901426Y-38519000D01*
X218901426Y-38519000D02*
X218825236Y-38442809D01*
X218825236Y-38442809D02*
X218787141Y-38366619D01*
X218787141Y-38366619D02*
X218749045Y-38214238D01*
X218749045Y-38214238D02*
X218749045Y-38099952D01*
X218749045Y-38099952D02*
X218787141Y-37947571D01*
X218787141Y-37947571D02*
X218825236Y-37871380D01*
X218825236Y-37871380D02*
X218901426Y-37795190D01*
X218901426Y-37795190D02*
X219015712Y-37757095D01*
X219015712Y-37757095D02*
X219091903Y-37757095D01*
X219091903Y-37757095D02*
X219206188Y-37795190D01*
X219206188Y-37795190D02*
X219244284Y-37833285D01*
X219701426Y-38557095D02*
X219625236Y-38519000D01*
X219625236Y-38519000D02*
X219587141Y-38480904D01*
X219587141Y-38480904D02*
X219549045Y-38404714D01*
X219549045Y-38404714D02*
X219549045Y-38176142D01*
X219549045Y-38176142D02*
X219587141Y-38099952D01*
X219587141Y-38099952D02*
X219625236Y-38061857D01*
X219625236Y-38061857D02*
X219701426Y-38023761D01*
X219701426Y-38023761D02*
X219815712Y-38023761D01*
X219815712Y-38023761D02*
X219891903Y-38061857D01*
X219891903Y-38061857D02*
X219929998Y-38099952D01*
X219929998Y-38099952D02*
X219968093Y-38176142D01*
X219968093Y-38176142D02*
X219968093Y-38404714D01*
X219968093Y-38404714D02*
X219929998Y-38480904D01*
X219929998Y-38480904D02*
X219891903Y-38519000D01*
X219891903Y-38519000D02*
X219815712Y-38557095D01*
X219815712Y-38557095D02*
X219701426Y-38557095D01*
X220272855Y-38519000D02*
X220349046Y-38557095D01*
X220349046Y-38557095D02*
X220501427Y-38557095D01*
X220501427Y-38557095D02*
X220577617Y-38519000D01*
X220577617Y-38519000D02*
X220615713Y-38442809D01*
X220615713Y-38442809D02*
X220615713Y-38404714D01*
X220615713Y-38404714D02*
X220577617Y-38328523D01*
X220577617Y-38328523D02*
X220501427Y-38290428D01*
X220501427Y-38290428D02*
X220387141Y-38290428D01*
X220387141Y-38290428D02*
X220310951Y-38252333D01*
X220310951Y-38252333D02*
X220272855Y-38176142D01*
X220272855Y-38176142D02*
X220272855Y-38138047D01*
X220272855Y-38138047D02*
X220310951Y-38061857D01*
X220310951Y-38061857D02*
X220387141Y-38023761D01*
X220387141Y-38023761D02*
X220501427Y-38023761D01*
X220501427Y-38023761D02*
X220577617Y-38061857D01*
X220958570Y-38557095D02*
X220958570Y-38023761D01*
X220958570Y-38099952D02*
X220996665Y-38061857D01*
X220996665Y-38061857D02*
X221072855Y-38023761D01*
X221072855Y-38023761D02*
X221187141Y-38023761D01*
X221187141Y-38023761D02*
X221263332Y-38061857D01*
X221263332Y-38061857D02*
X221301427Y-38138047D01*
X221301427Y-38138047D02*
X221301427Y-38557095D01*
X221301427Y-38138047D02*
X221339522Y-38061857D01*
X221339522Y-38061857D02*
X221415713Y-38023761D01*
X221415713Y-38023761D02*
X221529998Y-38023761D01*
X221529998Y-38023761D02*
X221606189Y-38061857D01*
X221606189Y-38061857D02*
X221644284Y-38138047D01*
X221644284Y-38138047D02*
X221644284Y-38557095D01*
X222025237Y-38557095D02*
X222025237Y-38023761D01*
X222025237Y-37757095D02*
X221987141Y-37795190D01*
X221987141Y-37795190D02*
X222025237Y-37833285D01*
X222025237Y-37833285D02*
X222063332Y-37795190D01*
X222063332Y-37795190D02*
X222025237Y-37757095D01*
X222025237Y-37757095D02*
X222025237Y-37833285D01*
X222749046Y-38519000D02*
X222672855Y-38557095D01*
X222672855Y-38557095D02*
X222520474Y-38557095D01*
X222520474Y-38557095D02*
X222444284Y-38519000D01*
X222444284Y-38519000D02*
X222406189Y-38480904D01*
X222406189Y-38480904D02*
X222368093Y-38404714D01*
X222368093Y-38404714D02*
X222368093Y-38176142D01*
X222368093Y-38176142D02*
X222406189Y-38099952D01*
X222406189Y-38099952D02*
X222444284Y-38061857D01*
X222444284Y-38061857D02*
X222520474Y-38023761D01*
X222520474Y-38023761D02*
X222672855Y-38023761D01*
X222672855Y-38023761D02*
X222749046Y-38061857D01*
X223015712Y-37757095D02*
X223206188Y-38557095D01*
X223206188Y-38557095D02*
X223358569Y-37985666D01*
X223358569Y-37985666D02*
X223510950Y-38557095D01*
X223510950Y-38557095D02*
X223701427Y-37757095D01*
X224349046Y-38557095D02*
X224349046Y-38138047D01*
X224349046Y-38138047D02*
X224310951Y-38061857D01*
X224310951Y-38061857D02*
X224234760Y-38023761D01*
X224234760Y-38023761D02*
X224082379Y-38023761D01*
X224082379Y-38023761D02*
X224006189Y-38061857D01*
X224349046Y-38519000D02*
X224272855Y-38557095D01*
X224272855Y-38557095D02*
X224082379Y-38557095D01*
X224082379Y-38557095D02*
X224006189Y-38519000D01*
X224006189Y-38519000D02*
X223968093Y-38442809D01*
X223968093Y-38442809D02*
X223968093Y-38366619D01*
X223968093Y-38366619D02*
X224006189Y-38290428D01*
X224006189Y-38290428D02*
X224082379Y-38252333D01*
X224082379Y-38252333D02*
X224272855Y-38252333D01*
X224272855Y-38252333D02*
X224349046Y-38214238D01*
X224615713Y-38023761D02*
X224920475Y-38023761D01*
X224729999Y-37757095D02*
X224729999Y-38442809D01*
X224729999Y-38442809D02*
X224768094Y-38519000D01*
X224768094Y-38519000D02*
X224844284Y-38557095D01*
X224844284Y-38557095D02*
X224920475Y-38557095D01*
X225529999Y-38519000D02*
X225453808Y-38557095D01*
X225453808Y-38557095D02*
X225301427Y-38557095D01*
X225301427Y-38557095D02*
X225225237Y-38519000D01*
X225225237Y-38519000D02*
X225187142Y-38480904D01*
X225187142Y-38480904D02*
X225149046Y-38404714D01*
X225149046Y-38404714D02*
X225149046Y-38176142D01*
X225149046Y-38176142D02*
X225187142Y-38099952D01*
X225187142Y-38099952D02*
X225225237Y-38061857D01*
X225225237Y-38061857D02*
X225301427Y-38023761D01*
X225301427Y-38023761D02*
X225453808Y-38023761D01*
X225453808Y-38023761D02*
X225529999Y-38061857D01*
X225872856Y-38557095D02*
X225872856Y-37757095D01*
X226215713Y-38557095D02*
X226215713Y-38138047D01*
X226215713Y-38138047D02*
X226177618Y-38061857D01*
X226177618Y-38061857D02*
X226101427Y-38023761D01*
X226101427Y-38023761D02*
X225987141Y-38023761D01*
X225987141Y-38023761D02*
X225910951Y-38061857D01*
X225910951Y-38061857D02*
X225872856Y-38099952D01*
X227129999Y-38023761D02*
X227320475Y-38557095D01*
X227320475Y-38557095D02*
X227510952Y-38023761D01*
X228158571Y-38023761D02*
X228158571Y-38557095D01*
X227968095Y-37719000D02*
X227777618Y-38290428D01*
X227777618Y-38290428D02*
X228272857Y-38290428D01*
X228577619Y-38480904D02*
X228615714Y-38519000D01*
X228615714Y-38519000D02*
X228577619Y-38557095D01*
X228577619Y-38557095D02*
X228539523Y-38519000D01*
X228539523Y-38519000D02*
X228577619Y-38480904D01*
X228577619Y-38480904D02*
X228577619Y-38557095D01*
X229110952Y-37757095D02*
X229187142Y-37757095D01*
X229187142Y-37757095D02*
X229263333Y-37795190D01*
X229263333Y-37795190D02*
X229301428Y-37833285D01*
X229301428Y-37833285D02*
X229339523Y-37909476D01*
X229339523Y-37909476D02*
X229377618Y-38061857D01*
X229377618Y-38061857D02*
X229377618Y-38252333D01*
X229377618Y-38252333D02*
X229339523Y-38404714D01*
X229339523Y-38404714D02*
X229301428Y-38480904D01*
X229301428Y-38480904D02*
X229263333Y-38519000D01*
X229263333Y-38519000D02*
X229187142Y-38557095D01*
X229187142Y-38557095D02*
X229110952Y-38557095D01*
X229110952Y-38557095D02*
X229034761Y-38519000D01*
X229034761Y-38519000D02*
X228996666Y-38480904D01*
X228996666Y-38480904D02*
X228958571Y-38404714D01*
X228958571Y-38404714D02*
X228920475Y-38252333D01*
X228920475Y-38252333D02*
X228920475Y-38061857D01*
X228920475Y-38061857D02*
X228958571Y-37909476D01*
X228958571Y-37909476D02*
X228996666Y-37833285D01*
X228996666Y-37833285D02*
X229034761Y-37795190D01*
X229034761Y-37795190D02*
X229110952Y-37757095D01*
X222920476Y-43930095D02*
X222920476Y-44577714D01*
X222920476Y-44577714D02*
X222958571Y-44653904D01*
X222958571Y-44653904D02*
X222996666Y-44692000D01*
X222996666Y-44692000D02*
X223072857Y-44730095D01*
X223072857Y-44730095D02*
X223225238Y-44730095D01*
X223225238Y-44730095D02*
X223301428Y-44692000D01*
X223301428Y-44692000D02*
X223339523Y-44653904D01*
X223339523Y-44653904D02*
X223377619Y-44577714D01*
X223377619Y-44577714D02*
X223377619Y-43930095D01*
X223720475Y-44692000D02*
X223834761Y-44730095D01*
X223834761Y-44730095D02*
X224025237Y-44730095D01*
X224025237Y-44730095D02*
X224101428Y-44692000D01*
X224101428Y-44692000D02*
X224139523Y-44653904D01*
X224139523Y-44653904D02*
X224177618Y-44577714D01*
X224177618Y-44577714D02*
X224177618Y-44501523D01*
X224177618Y-44501523D02*
X224139523Y-44425333D01*
X224139523Y-44425333D02*
X224101428Y-44387238D01*
X224101428Y-44387238D02*
X224025237Y-44349142D01*
X224025237Y-44349142D02*
X223872856Y-44311047D01*
X223872856Y-44311047D02*
X223796666Y-44272952D01*
X223796666Y-44272952D02*
X223758571Y-44234857D01*
X223758571Y-44234857D02*
X223720475Y-44158666D01*
X223720475Y-44158666D02*
X223720475Y-44082476D01*
X223720475Y-44082476D02*
X223758571Y-44006285D01*
X223758571Y-44006285D02*
X223796666Y-43968190D01*
X223796666Y-43968190D02*
X223872856Y-43930095D01*
X223872856Y-43930095D02*
X224063333Y-43930095D01*
X224063333Y-43930095D02*
X224177618Y-43968190D01*
X224787142Y-44311047D02*
X224901428Y-44349142D01*
X224901428Y-44349142D02*
X224939523Y-44387238D01*
X224939523Y-44387238D02*
X224977619Y-44463428D01*
X224977619Y-44463428D02*
X224977619Y-44577714D01*
X224977619Y-44577714D02*
X224939523Y-44653904D01*
X224939523Y-44653904D02*
X224901428Y-44692000D01*
X224901428Y-44692000D02*
X224825238Y-44730095D01*
X224825238Y-44730095D02*
X224520476Y-44730095D01*
X224520476Y-44730095D02*
X224520476Y-43930095D01*
X224520476Y-43930095D02*
X224787142Y-43930095D01*
X224787142Y-43930095D02*
X224863333Y-43968190D01*
X224863333Y-43968190D02*
X224901428Y-44006285D01*
X224901428Y-44006285D02*
X224939523Y-44082476D01*
X224939523Y-44082476D02*
X224939523Y-44158666D01*
X224939523Y-44158666D02*
X224901428Y-44234857D01*
X224901428Y-44234857D02*
X224863333Y-44272952D01*
X224863333Y-44272952D02*
X224787142Y-44311047D01*
X224787142Y-44311047D02*
X224520476Y-44311047D01*
D10*
X213346663Y-39280095D02*
X213803806Y-39280095D01*
X213575234Y-40080095D02*
X213575234Y-39280095D01*
X214070473Y-40080095D02*
X214070473Y-39280095D01*
X214413330Y-40080095D02*
X214413330Y-39661047D01*
X214413330Y-39661047D02*
X214375235Y-39584857D01*
X214375235Y-39584857D02*
X214299044Y-39546761D01*
X214299044Y-39546761D02*
X214184758Y-39546761D01*
X214184758Y-39546761D02*
X214108568Y-39584857D01*
X214108568Y-39584857D02*
X214070473Y-39622952D01*
X215099045Y-40042000D02*
X215022854Y-40080095D01*
X215022854Y-40080095D02*
X214870473Y-40080095D01*
X214870473Y-40080095D02*
X214794283Y-40042000D01*
X214794283Y-40042000D02*
X214756187Y-39965809D01*
X214756187Y-39965809D02*
X214756187Y-39661047D01*
X214756187Y-39661047D02*
X214794283Y-39584857D01*
X214794283Y-39584857D02*
X214870473Y-39546761D01*
X214870473Y-39546761D02*
X215022854Y-39546761D01*
X215022854Y-39546761D02*
X215099045Y-39584857D01*
X215099045Y-39584857D02*
X215137140Y-39661047D01*
X215137140Y-39661047D02*
X215137140Y-39737238D01*
X215137140Y-39737238D02*
X214756187Y-39813428D01*
X216089521Y-40080095D02*
X216089521Y-39280095D01*
X216089521Y-39280095D02*
X216279997Y-39280095D01*
X216279997Y-39280095D02*
X216394283Y-39318190D01*
X216394283Y-39318190D02*
X216470473Y-39394380D01*
X216470473Y-39394380D02*
X216508568Y-39470571D01*
X216508568Y-39470571D02*
X216546664Y-39622952D01*
X216546664Y-39622952D02*
X216546664Y-39737238D01*
X216546664Y-39737238D02*
X216508568Y-39889619D01*
X216508568Y-39889619D02*
X216470473Y-39965809D01*
X216470473Y-39965809D02*
X216394283Y-40042000D01*
X216394283Y-40042000D02*
X216279997Y-40080095D01*
X216279997Y-40080095D02*
X216089521Y-40080095D01*
X217194283Y-40042000D02*
X217118092Y-40080095D01*
X217118092Y-40080095D02*
X216965711Y-40080095D01*
X216965711Y-40080095D02*
X216889521Y-40042000D01*
X216889521Y-40042000D02*
X216851425Y-39965809D01*
X216851425Y-39965809D02*
X216851425Y-39661047D01*
X216851425Y-39661047D02*
X216889521Y-39584857D01*
X216889521Y-39584857D02*
X216965711Y-39546761D01*
X216965711Y-39546761D02*
X217118092Y-39546761D01*
X217118092Y-39546761D02*
X217194283Y-39584857D01*
X217194283Y-39584857D02*
X217232378Y-39661047D01*
X217232378Y-39661047D02*
X217232378Y-39737238D01*
X217232378Y-39737238D02*
X216851425Y-39813428D01*
X217537139Y-40042000D02*
X217613330Y-40080095D01*
X217613330Y-40080095D02*
X217765711Y-40080095D01*
X217765711Y-40080095D02*
X217841901Y-40042000D01*
X217841901Y-40042000D02*
X217879997Y-39965809D01*
X217879997Y-39965809D02*
X217879997Y-39927714D01*
X217879997Y-39927714D02*
X217841901Y-39851523D01*
X217841901Y-39851523D02*
X217765711Y-39813428D01*
X217765711Y-39813428D02*
X217651425Y-39813428D01*
X217651425Y-39813428D02*
X217575235Y-39775333D01*
X217575235Y-39775333D02*
X217537139Y-39699142D01*
X217537139Y-39699142D02*
X217537139Y-39661047D01*
X217537139Y-39661047D02*
X217575235Y-39584857D01*
X217575235Y-39584857D02*
X217651425Y-39546761D01*
X217651425Y-39546761D02*
X217765711Y-39546761D01*
X217765711Y-39546761D02*
X217841901Y-39584857D01*
X218222854Y-40080095D02*
X218222854Y-39280095D01*
X218299044Y-39775333D02*
X218527616Y-40080095D01*
X218527616Y-39546761D02*
X218222854Y-39851523D01*
X218756187Y-39546761D02*
X219060949Y-39546761D01*
X218870473Y-39280095D02*
X218870473Y-39965809D01*
X218870473Y-39965809D02*
X218908568Y-40042000D01*
X218908568Y-40042000D02*
X218984758Y-40080095D01*
X218984758Y-40080095D02*
X219060949Y-40080095D01*
X219441901Y-40080095D02*
X219365711Y-40042000D01*
X219365711Y-40042000D02*
X219327616Y-40003904D01*
X219327616Y-40003904D02*
X219289520Y-39927714D01*
X219289520Y-39927714D02*
X219289520Y-39699142D01*
X219289520Y-39699142D02*
X219327616Y-39622952D01*
X219327616Y-39622952D02*
X219365711Y-39584857D01*
X219365711Y-39584857D02*
X219441901Y-39546761D01*
X219441901Y-39546761D02*
X219556187Y-39546761D01*
X219556187Y-39546761D02*
X219632378Y-39584857D01*
X219632378Y-39584857D02*
X219670473Y-39622952D01*
X219670473Y-39622952D02*
X219708568Y-39699142D01*
X219708568Y-39699142D02*
X219708568Y-39927714D01*
X219708568Y-39927714D02*
X219670473Y-40003904D01*
X219670473Y-40003904D02*
X219632378Y-40042000D01*
X219632378Y-40042000D02*
X219556187Y-40080095D01*
X219556187Y-40080095D02*
X219441901Y-40080095D01*
X220051426Y-39546761D02*
X220051426Y-40346761D01*
X220051426Y-39584857D02*
X220127616Y-39546761D01*
X220127616Y-39546761D02*
X220279997Y-39546761D01*
X220279997Y-39546761D02*
X220356188Y-39584857D01*
X220356188Y-39584857D02*
X220394283Y-39622952D01*
X220394283Y-39622952D02*
X220432378Y-39699142D01*
X220432378Y-39699142D02*
X220432378Y-39927714D01*
X220432378Y-39927714D02*
X220394283Y-40003904D01*
X220394283Y-40003904D02*
X220356188Y-40042000D01*
X220356188Y-40042000D02*
X220279997Y-40080095D01*
X220279997Y-40080095D02*
X220127616Y-40080095D01*
X220127616Y-40080095D02*
X220051426Y-40042000D01*
X221384760Y-40080095D02*
X221384760Y-39280095D01*
X221384760Y-39280095D02*
X221651426Y-39851523D01*
X221651426Y-39851523D02*
X221918093Y-39280095D01*
X221918093Y-39280095D02*
X221918093Y-40080095D01*
X222641903Y-39546761D02*
X222641903Y-40080095D01*
X222299046Y-39546761D02*
X222299046Y-39965809D01*
X222299046Y-39965809D02*
X222337141Y-40042000D01*
X222337141Y-40042000D02*
X222413331Y-40080095D01*
X222413331Y-40080095D02*
X222527617Y-40080095D01*
X222527617Y-40080095D02*
X222603808Y-40042000D01*
X222603808Y-40042000D02*
X222641903Y-40003904D01*
X223137141Y-40080095D02*
X223060951Y-40042000D01*
X223060951Y-40042000D02*
X223022856Y-40003904D01*
X223022856Y-40003904D02*
X222984760Y-39927714D01*
X222984760Y-39927714D02*
X222984760Y-39699142D01*
X222984760Y-39699142D02*
X223022856Y-39622952D01*
X223022856Y-39622952D02*
X223060951Y-39584857D01*
X223060951Y-39584857D02*
X223137141Y-39546761D01*
X223137141Y-39546761D02*
X223251427Y-39546761D01*
X223251427Y-39546761D02*
X223327618Y-39584857D01*
X223327618Y-39584857D02*
X223365713Y-39622952D01*
X223365713Y-39622952D02*
X223403808Y-39699142D01*
X223403808Y-39699142D02*
X223403808Y-39927714D01*
X223403808Y-39927714D02*
X223365713Y-40003904D01*
X223365713Y-40003904D02*
X223327618Y-40042000D01*
X223327618Y-40042000D02*
X223251427Y-40080095D01*
X223251427Y-40080095D02*
X223137141Y-40080095D01*
X223746666Y-39546761D02*
X223746666Y-40080095D01*
X223746666Y-39622952D02*
X223784761Y-39584857D01*
X223784761Y-39584857D02*
X223860951Y-39546761D01*
X223860951Y-39546761D02*
X223975237Y-39546761D01*
X223975237Y-39546761D02*
X224051428Y-39584857D01*
X224051428Y-39584857D02*
X224089523Y-39661047D01*
X224089523Y-39661047D02*
X224089523Y-40080095D01*
X225080000Y-40080095D02*
X225080000Y-39280095D01*
X225080000Y-39280095D02*
X225270476Y-39280095D01*
X225270476Y-39280095D02*
X225384762Y-39318190D01*
X225384762Y-39318190D02*
X225460952Y-39394380D01*
X225460952Y-39394380D02*
X225499047Y-39470571D01*
X225499047Y-39470571D02*
X225537143Y-39622952D01*
X225537143Y-39622952D02*
X225537143Y-39737238D01*
X225537143Y-39737238D02*
X225499047Y-39889619D01*
X225499047Y-39889619D02*
X225460952Y-39965809D01*
X225460952Y-39965809D02*
X225384762Y-40042000D01*
X225384762Y-40042000D02*
X225270476Y-40080095D01*
X225270476Y-40080095D02*
X225080000Y-40080095D01*
X226184762Y-40042000D02*
X226108571Y-40080095D01*
X226108571Y-40080095D02*
X225956190Y-40080095D01*
X225956190Y-40080095D02*
X225880000Y-40042000D01*
X225880000Y-40042000D02*
X225841904Y-39965809D01*
X225841904Y-39965809D02*
X225841904Y-39661047D01*
X225841904Y-39661047D02*
X225880000Y-39584857D01*
X225880000Y-39584857D02*
X225956190Y-39546761D01*
X225956190Y-39546761D02*
X226108571Y-39546761D01*
X226108571Y-39546761D02*
X226184762Y-39584857D01*
X226184762Y-39584857D02*
X226222857Y-39661047D01*
X226222857Y-39661047D02*
X226222857Y-39737238D01*
X226222857Y-39737238D02*
X225841904Y-39813428D01*
X226451428Y-39546761D02*
X226756190Y-39546761D01*
X226565714Y-39280095D02*
X226565714Y-39965809D01*
X226565714Y-39965809D02*
X226603809Y-40042000D01*
X226603809Y-40042000D02*
X226679999Y-40080095D01*
X226679999Y-40080095D02*
X226756190Y-40080095D01*
X227327619Y-40042000D02*
X227251428Y-40080095D01*
X227251428Y-40080095D02*
X227099047Y-40080095D01*
X227099047Y-40080095D02*
X227022857Y-40042000D01*
X227022857Y-40042000D02*
X226984761Y-39965809D01*
X226984761Y-39965809D02*
X226984761Y-39661047D01*
X226984761Y-39661047D02*
X227022857Y-39584857D01*
X227022857Y-39584857D02*
X227099047Y-39546761D01*
X227099047Y-39546761D02*
X227251428Y-39546761D01*
X227251428Y-39546761D02*
X227327619Y-39584857D01*
X227327619Y-39584857D02*
X227365714Y-39661047D01*
X227365714Y-39661047D02*
X227365714Y-39737238D01*
X227365714Y-39737238D02*
X226984761Y-39813428D01*
X228051428Y-40042000D02*
X227975237Y-40080095D01*
X227975237Y-40080095D02*
X227822856Y-40080095D01*
X227822856Y-40080095D02*
X227746666Y-40042000D01*
X227746666Y-40042000D02*
X227708571Y-40003904D01*
X227708571Y-40003904D02*
X227670475Y-39927714D01*
X227670475Y-39927714D02*
X227670475Y-39699142D01*
X227670475Y-39699142D02*
X227708571Y-39622952D01*
X227708571Y-39622952D02*
X227746666Y-39584857D01*
X227746666Y-39584857D02*
X227822856Y-39546761D01*
X227822856Y-39546761D02*
X227975237Y-39546761D01*
X227975237Y-39546761D02*
X228051428Y-39584857D01*
X228279999Y-39546761D02*
X228584761Y-39546761D01*
X228394285Y-39280095D02*
X228394285Y-39965809D01*
X228394285Y-39965809D02*
X228432380Y-40042000D01*
X228432380Y-40042000D02*
X228508570Y-40080095D01*
X228508570Y-40080095D02*
X228584761Y-40080095D01*
X228965713Y-40080095D02*
X228889523Y-40042000D01*
X228889523Y-40042000D02*
X228851428Y-40003904D01*
X228851428Y-40003904D02*
X228813332Y-39927714D01*
X228813332Y-39927714D02*
X228813332Y-39699142D01*
X228813332Y-39699142D02*
X228851428Y-39622952D01*
X228851428Y-39622952D02*
X228889523Y-39584857D01*
X228889523Y-39584857D02*
X228965713Y-39546761D01*
X228965713Y-39546761D02*
X229079999Y-39546761D01*
X229079999Y-39546761D02*
X229156190Y-39584857D01*
X229156190Y-39584857D02*
X229194285Y-39622952D01*
X229194285Y-39622952D02*
X229232380Y-39699142D01*
X229232380Y-39699142D02*
X229232380Y-39927714D01*
X229232380Y-39927714D02*
X229194285Y-40003904D01*
X229194285Y-40003904D02*
X229156190Y-40042000D01*
X229156190Y-40042000D02*
X229079999Y-40080095D01*
X229079999Y-40080095D02*
X228965713Y-40080095D01*
X229575238Y-40080095D02*
X229575238Y-39546761D01*
X229575238Y-39699142D02*
X229613333Y-39622952D01*
X229613333Y-39622952D02*
X229651428Y-39584857D01*
X229651428Y-39584857D02*
X229727619Y-39546761D01*
X229727619Y-39546761D02*
X229803809Y-39546761D01*
X208791903Y-58292000D02*
X208906189Y-58330095D01*
X208906189Y-58330095D02*
X209096665Y-58330095D01*
X209096665Y-58330095D02*
X209172856Y-58292000D01*
X209172856Y-58292000D02*
X209210951Y-58253904D01*
X209210951Y-58253904D02*
X209249046Y-58177714D01*
X209249046Y-58177714D02*
X209249046Y-58101523D01*
X209249046Y-58101523D02*
X209210951Y-58025333D01*
X209210951Y-58025333D02*
X209172856Y-57987238D01*
X209172856Y-57987238D02*
X209096665Y-57949142D01*
X209096665Y-57949142D02*
X208944284Y-57911047D01*
X208944284Y-57911047D02*
X208868094Y-57872952D01*
X208868094Y-57872952D02*
X208829999Y-57834857D01*
X208829999Y-57834857D02*
X208791903Y-57758666D01*
X208791903Y-57758666D02*
X208791903Y-57682476D01*
X208791903Y-57682476D02*
X208829999Y-57606285D01*
X208829999Y-57606285D02*
X208868094Y-57568190D01*
X208868094Y-57568190D02*
X208944284Y-57530095D01*
X208944284Y-57530095D02*
X209134761Y-57530095D01*
X209134761Y-57530095D02*
X209249046Y-57568190D01*
X209591904Y-57796761D02*
X209591904Y-58596761D01*
X209591904Y-57834857D02*
X209668094Y-57796761D01*
X209668094Y-57796761D02*
X209820475Y-57796761D01*
X209820475Y-57796761D02*
X209896666Y-57834857D01*
X209896666Y-57834857D02*
X209934761Y-57872952D01*
X209934761Y-57872952D02*
X209972856Y-57949142D01*
X209972856Y-57949142D02*
X209972856Y-58177714D01*
X209972856Y-58177714D02*
X209934761Y-58253904D01*
X209934761Y-58253904D02*
X209896666Y-58292000D01*
X209896666Y-58292000D02*
X209820475Y-58330095D01*
X209820475Y-58330095D02*
X209668094Y-58330095D01*
X209668094Y-58330095D02*
X209591904Y-58292000D01*
X210620476Y-58292000D02*
X210544285Y-58330095D01*
X210544285Y-58330095D02*
X210391904Y-58330095D01*
X210391904Y-58330095D02*
X210315714Y-58292000D01*
X210315714Y-58292000D02*
X210277618Y-58215809D01*
X210277618Y-58215809D02*
X210277618Y-57911047D01*
X210277618Y-57911047D02*
X210315714Y-57834857D01*
X210315714Y-57834857D02*
X210391904Y-57796761D01*
X210391904Y-57796761D02*
X210544285Y-57796761D01*
X210544285Y-57796761D02*
X210620476Y-57834857D01*
X210620476Y-57834857D02*
X210658571Y-57911047D01*
X210658571Y-57911047D02*
X210658571Y-57987238D01*
X210658571Y-57987238D02*
X210277618Y-58063428D01*
X211001428Y-57796761D02*
X211001428Y-58330095D01*
X211001428Y-57872952D02*
X211039523Y-57834857D01*
X211039523Y-57834857D02*
X211115713Y-57796761D01*
X211115713Y-57796761D02*
X211229999Y-57796761D01*
X211229999Y-57796761D02*
X211306190Y-57834857D01*
X211306190Y-57834857D02*
X211344285Y-57911047D01*
X211344285Y-57911047D02*
X211344285Y-58330095D01*
X212068095Y-58292000D02*
X211991904Y-58330095D01*
X211991904Y-58330095D02*
X211839523Y-58330095D01*
X211839523Y-58330095D02*
X211763333Y-58292000D01*
X211763333Y-58292000D02*
X211725238Y-58253904D01*
X211725238Y-58253904D02*
X211687142Y-58177714D01*
X211687142Y-58177714D02*
X211687142Y-57949142D01*
X211687142Y-57949142D02*
X211725238Y-57872952D01*
X211725238Y-57872952D02*
X211763333Y-57834857D01*
X211763333Y-57834857D02*
X211839523Y-57796761D01*
X211839523Y-57796761D02*
X211991904Y-57796761D01*
X211991904Y-57796761D02*
X212068095Y-57834857D01*
X212715714Y-58292000D02*
X212639523Y-58330095D01*
X212639523Y-58330095D02*
X212487142Y-58330095D01*
X212487142Y-58330095D02*
X212410952Y-58292000D01*
X212410952Y-58292000D02*
X212372856Y-58215809D01*
X212372856Y-58215809D02*
X212372856Y-57911047D01*
X212372856Y-57911047D02*
X212410952Y-57834857D01*
X212410952Y-57834857D02*
X212487142Y-57796761D01*
X212487142Y-57796761D02*
X212639523Y-57796761D01*
X212639523Y-57796761D02*
X212715714Y-57834857D01*
X212715714Y-57834857D02*
X212753809Y-57911047D01*
X212753809Y-57911047D02*
X212753809Y-57987238D01*
X212753809Y-57987238D02*
X212372856Y-58063428D01*
X213096666Y-58330095D02*
X213096666Y-57796761D01*
X213096666Y-57949142D02*
X213134761Y-57872952D01*
X213134761Y-57872952D02*
X213172856Y-57834857D01*
X213172856Y-57834857D02*
X213249047Y-57796761D01*
X213249047Y-57796761D02*
X213325237Y-57796761D01*
X214201428Y-58330095D02*
X214201428Y-57530095D01*
X214201428Y-57530095D02*
X214658571Y-58330095D01*
X214658571Y-58330095D02*
X214658571Y-57530095D01*
X215039523Y-58253904D02*
X215077618Y-58292000D01*
X215077618Y-58292000D02*
X215039523Y-58330095D01*
X215039523Y-58330095D02*
X215001427Y-58292000D01*
X215001427Y-58292000D02*
X215039523Y-58253904D01*
X215039523Y-58253904D02*
X215039523Y-58330095D01*
X215991903Y-58101523D02*
X216372856Y-58101523D01*
X215915713Y-58330095D02*
X216182380Y-57530095D01*
X216182380Y-57530095D02*
X216449046Y-58330095D01*
X216639522Y-58330095D02*
X217058570Y-57796761D01*
X216639522Y-57796761D02*
X217058570Y-58330095D01*
X217706189Y-58330095D02*
X217706189Y-57911047D01*
X217706189Y-57911047D02*
X217668094Y-57834857D01*
X217668094Y-57834857D02*
X217591903Y-57796761D01*
X217591903Y-57796761D02*
X217439522Y-57796761D01*
X217439522Y-57796761D02*
X217363332Y-57834857D01*
X217706189Y-58292000D02*
X217629998Y-58330095D01*
X217629998Y-58330095D02*
X217439522Y-58330095D01*
X217439522Y-58330095D02*
X217363332Y-58292000D01*
X217363332Y-58292000D02*
X217325236Y-58215809D01*
X217325236Y-58215809D02*
X217325236Y-58139619D01*
X217325236Y-58139619D02*
X217363332Y-58063428D01*
X217363332Y-58063428D02*
X217439522Y-58025333D01*
X217439522Y-58025333D02*
X217629998Y-58025333D01*
X217629998Y-58025333D02*
X217706189Y-57987238D01*
X218087142Y-57796761D02*
X218087142Y-58330095D01*
X218087142Y-57872952D02*
X218125237Y-57834857D01*
X218125237Y-57834857D02*
X218201427Y-57796761D01*
X218201427Y-57796761D02*
X218315713Y-57796761D01*
X218315713Y-57796761D02*
X218391904Y-57834857D01*
X218391904Y-57834857D02*
X218429999Y-57911047D01*
X218429999Y-57911047D02*
X218429999Y-58330095D01*
X218810952Y-58330095D02*
X218810952Y-57796761D01*
X218810952Y-57530095D02*
X218772856Y-57568190D01*
X218772856Y-57568190D02*
X218810952Y-57606285D01*
X218810952Y-57606285D02*
X218849047Y-57568190D01*
X218849047Y-57568190D02*
X218810952Y-57530095D01*
X218810952Y-57530095D02*
X218810952Y-57606285D01*
X220029999Y-58634857D02*
X219991904Y-58596761D01*
X219991904Y-58596761D02*
X219915713Y-58482476D01*
X219915713Y-58482476D02*
X219877618Y-58406285D01*
X219877618Y-58406285D02*
X219839523Y-58292000D01*
X219839523Y-58292000D02*
X219801428Y-58101523D01*
X219801428Y-58101523D02*
X219801428Y-57949142D01*
X219801428Y-57949142D02*
X219839523Y-57758666D01*
X219839523Y-57758666D02*
X219877618Y-57644380D01*
X219877618Y-57644380D02*
X219915713Y-57568190D01*
X219915713Y-57568190D02*
X219991904Y-57453904D01*
X219991904Y-57453904D02*
X220029999Y-57415809D01*
X220296665Y-58292000D02*
X220372856Y-58330095D01*
X220372856Y-58330095D02*
X220525237Y-58330095D01*
X220525237Y-58330095D02*
X220601427Y-58292000D01*
X220601427Y-58292000D02*
X220639523Y-58215809D01*
X220639523Y-58215809D02*
X220639523Y-58177714D01*
X220639523Y-58177714D02*
X220601427Y-58101523D01*
X220601427Y-58101523D02*
X220525237Y-58063428D01*
X220525237Y-58063428D02*
X220410951Y-58063428D01*
X220410951Y-58063428D02*
X220334761Y-58025333D01*
X220334761Y-58025333D02*
X220296665Y-57949142D01*
X220296665Y-57949142D02*
X220296665Y-57911047D01*
X220296665Y-57911047D02*
X220334761Y-57834857D01*
X220334761Y-57834857D02*
X220410951Y-57796761D01*
X220410951Y-57796761D02*
X220525237Y-57796761D01*
X220525237Y-57796761D02*
X220601427Y-57834857D01*
X221325237Y-58330095D02*
X221325237Y-57911047D01*
X221325237Y-57911047D02*
X221287142Y-57834857D01*
X221287142Y-57834857D02*
X221210951Y-57796761D01*
X221210951Y-57796761D02*
X221058570Y-57796761D01*
X221058570Y-57796761D02*
X220982380Y-57834857D01*
X221325237Y-58292000D02*
X221249046Y-58330095D01*
X221249046Y-58330095D02*
X221058570Y-58330095D01*
X221058570Y-58330095D02*
X220982380Y-58292000D01*
X220982380Y-58292000D02*
X220944284Y-58215809D01*
X220944284Y-58215809D02*
X220944284Y-58139619D01*
X220944284Y-58139619D02*
X220982380Y-58063428D01*
X220982380Y-58063428D02*
X221058570Y-58025333D01*
X221058570Y-58025333D02*
X221249046Y-58025333D01*
X221249046Y-58025333D02*
X221325237Y-57987238D01*
X221629999Y-58330095D02*
X222049047Y-57796761D01*
X221629999Y-57796761D02*
X222049047Y-58330095D01*
X222696666Y-58330095D02*
X222696666Y-57911047D01*
X222696666Y-57911047D02*
X222658571Y-57834857D01*
X222658571Y-57834857D02*
X222582380Y-57796761D01*
X222582380Y-57796761D02*
X222429999Y-57796761D01*
X222429999Y-57796761D02*
X222353809Y-57834857D01*
X222696666Y-58292000D02*
X222620475Y-58330095D01*
X222620475Y-58330095D02*
X222429999Y-58330095D01*
X222429999Y-58330095D02*
X222353809Y-58292000D01*
X222353809Y-58292000D02*
X222315713Y-58215809D01*
X222315713Y-58215809D02*
X222315713Y-58139619D01*
X222315713Y-58139619D02*
X222353809Y-58063428D01*
X222353809Y-58063428D02*
X222429999Y-58025333D01*
X222429999Y-58025333D02*
X222620475Y-58025333D01*
X222620475Y-58025333D02*
X222696666Y-57987238D01*
X223077619Y-57796761D02*
X223077619Y-58330095D01*
X223077619Y-57872952D02*
X223115714Y-57834857D01*
X223115714Y-57834857D02*
X223191904Y-57796761D01*
X223191904Y-57796761D02*
X223306190Y-57796761D01*
X223306190Y-57796761D02*
X223382381Y-57834857D01*
X223382381Y-57834857D02*
X223420476Y-57911047D01*
X223420476Y-57911047D02*
X223420476Y-58330095D01*
X223801429Y-58330095D02*
X223801429Y-57796761D01*
X223801429Y-57530095D02*
X223763333Y-57568190D01*
X223763333Y-57568190D02*
X223801429Y-57606285D01*
X223801429Y-57606285D02*
X223839524Y-57568190D01*
X223839524Y-57568190D02*
X223801429Y-57530095D01*
X223801429Y-57530095D02*
X223801429Y-57606285D01*
X224677619Y-57949142D02*
X224639524Y-57911047D01*
X224639524Y-57911047D02*
X224563333Y-57872952D01*
X224563333Y-57872952D02*
X224487143Y-57872952D01*
X224487143Y-57872952D02*
X224410952Y-57911047D01*
X224410952Y-57911047D02*
X224372857Y-57949142D01*
X224372857Y-57949142D02*
X224334762Y-58025333D01*
X224334762Y-58025333D02*
X224334762Y-58101523D01*
X224334762Y-58101523D02*
X224372857Y-58177714D01*
X224372857Y-58177714D02*
X224410952Y-58215809D01*
X224410952Y-58215809D02*
X224487143Y-58253904D01*
X224487143Y-58253904D02*
X224563333Y-58253904D01*
X224563333Y-58253904D02*
X224639524Y-58215809D01*
X224639524Y-58215809D02*
X224677619Y-58177714D01*
X224677619Y-57872952D02*
X224677619Y-58177714D01*
X224677619Y-58177714D02*
X224715714Y-58215809D01*
X224715714Y-58215809D02*
X224753809Y-58215809D01*
X224753809Y-58215809D02*
X224830000Y-58177714D01*
X224830000Y-58177714D02*
X224868095Y-58101523D01*
X224868095Y-58101523D02*
X224868095Y-57911047D01*
X224868095Y-57911047D02*
X224791905Y-57796761D01*
X224791905Y-57796761D02*
X224677619Y-57720571D01*
X224677619Y-57720571D02*
X224525238Y-57682476D01*
X224525238Y-57682476D02*
X224372857Y-57720571D01*
X224372857Y-57720571D02*
X224258571Y-57796761D01*
X224258571Y-57796761D02*
X224182381Y-57911047D01*
X224182381Y-57911047D02*
X224144285Y-58063428D01*
X224144285Y-58063428D02*
X224182381Y-58215809D01*
X224182381Y-58215809D02*
X224258571Y-58330095D01*
X224258571Y-58330095D02*
X224372857Y-58406285D01*
X224372857Y-58406285D02*
X224525238Y-58444380D01*
X224525238Y-58444380D02*
X224677619Y-58406285D01*
X224677619Y-58406285D02*
X224791905Y-58330095D01*
X225553809Y-57796761D02*
X225553809Y-58330095D01*
X225210952Y-57796761D02*
X225210952Y-58215809D01*
X225210952Y-58215809D02*
X225249047Y-58292000D01*
X225249047Y-58292000D02*
X225325237Y-58330095D01*
X225325237Y-58330095D02*
X225439523Y-58330095D01*
X225439523Y-58330095D02*
X225515714Y-58292000D01*
X225515714Y-58292000D02*
X225553809Y-58253904D01*
X226277619Y-58330095D02*
X226277619Y-57530095D01*
X226277619Y-58292000D02*
X226201428Y-58330095D01*
X226201428Y-58330095D02*
X226049047Y-58330095D01*
X226049047Y-58330095D02*
X225972857Y-58292000D01*
X225972857Y-58292000D02*
X225934762Y-58253904D01*
X225934762Y-58253904D02*
X225896666Y-58177714D01*
X225896666Y-58177714D02*
X225896666Y-57949142D01*
X225896666Y-57949142D02*
X225934762Y-57872952D01*
X225934762Y-57872952D02*
X225972857Y-57834857D01*
X225972857Y-57834857D02*
X226049047Y-57796761D01*
X226049047Y-57796761D02*
X226201428Y-57796761D01*
X226201428Y-57796761D02*
X226277619Y-57834857D01*
X226963334Y-58292000D02*
X226887143Y-58330095D01*
X226887143Y-58330095D02*
X226734762Y-58330095D01*
X226734762Y-58330095D02*
X226658572Y-58292000D01*
X226658572Y-58292000D02*
X226620476Y-58215809D01*
X226620476Y-58215809D02*
X226620476Y-57911047D01*
X226620476Y-57911047D02*
X226658572Y-57834857D01*
X226658572Y-57834857D02*
X226734762Y-57796761D01*
X226734762Y-57796761D02*
X226887143Y-57796761D01*
X226887143Y-57796761D02*
X226963334Y-57834857D01*
X226963334Y-57834857D02*
X227001429Y-57911047D01*
X227001429Y-57911047D02*
X227001429Y-57987238D01*
X227001429Y-57987238D02*
X226620476Y-58063428D01*
X227458571Y-58330095D02*
X227382381Y-58292000D01*
X227382381Y-58292000D02*
X227344286Y-58215809D01*
X227344286Y-58215809D02*
X227344286Y-57530095D01*
X227763334Y-58253904D02*
X227801429Y-58292000D01*
X227801429Y-58292000D02*
X227763334Y-58330095D01*
X227763334Y-58330095D02*
X227725238Y-58292000D01*
X227725238Y-58292000D02*
X227763334Y-58253904D01*
X227763334Y-58253904D02*
X227763334Y-58330095D01*
X228449048Y-58292000D02*
X228372857Y-58330095D01*
X228372857Y-58330095D02*
X228220476Y-58330095D01*
X228220476Y-58330095D02*
X228144286Y-58292000D01*
X228144286Y-58292000D02*
X228106190Y-58215809D01*
X228106190Y-58215809D02*
X228106190Y-57911047D01*
X228106190Y-57911047D02*
X228144286Y-57834857D01*
X228144286Y-57834857D02*
X228220476Y-57796761D01*
X228220476Y-57796761D02*
X228372857Y-57796761D01*
X228372857Y-57796761D02*
X228449048Y-57834857D01*
X228449048Y-57834857D02*
X228487143Y-57911047D01*
X228487143Y-57911047D02*
X228487143Y-57987238D01*
X228487143Y-57987238D02*
X228106190Y-58063428D01*
X229172857Y-58330095D02*
X229172857Y-57530095D01*
X229172857Y-58292000D02*
X229096666Y-58330095D01*
X229096666Y-58330095D02*
X228944285Y-58330095D01*
X228944285Y-58330095D02*
X228868095Y-58292000D01*
X228868095Y-58292000D02*
X228830000Y-58253904D01*
X228830000Y-58253904D02*
X228791904Y-58177714D01*
X228791904Y-58177714D02*
X228791904Y-57949142D01*
X228791904Y-57949142D02*
X228830000Y-57872952D01*
X228830000Y-57872952D02*
X228868095Y-57834857D01*
X228868095Y-57834857D02*
X228944285Y-57796761D01*
X228944285Y-57796761D02*
X229096666Y-57796761D01*
X229096666Y-57796761D02*
X229172857Y-57834857D01*
X229896667Y-57796761D02*
X229896667Y-58330095D01*
X229553810Y-57796761D02*
X229553810Y-58215809D01*
X229553810Y-58215809D02*
X229591905Y-58292000D01*
X229591905Y-58292000D02*
X229668095Y-58330095D01*
X229668095Y-58330095D02*
X229782381Y-58330095D01*
X229782381Y-58330095D02*
X229858572Y-58292000D01*
X229858572Y-58292000D02*
X229896667Y-58253904D01*
X230201429Y-58634857D02*
X230239524Y-58596761D01*
X230239524Y-58596761D02*
X230315715Y-58482476D01*
X230315715Y-58482476D02*
X230353810Y-58406285D01*
X230353810Y-58406285D02*
X230391905Y-58292000D01*
X230391905Y-58292000D02*
X230430001Y-58101523D01*
X230430001Y-58101523D02*
X230430001Y-57949142D01*
X230430001Y-57949142D02*
X230391905Y-57758666D01*
X230391905Y-57758666D02*
X230353810Y-57644380D01*
X230353810Y-57644380D02*
X230315715Y-57568190D01*
X230315715Y-57568190D02*
X230239524Y-57453904D01*
X230239524Y-57453904D02*
X230201429Y-57415809D01*
X162725095Y-100181427D02*
X161925095Y-100181427D01*
X162306047Y-100181427D02*
X162306047Y-99724284D01*
X162725095Y-99724284D02*
X161925095Y-99724284D01*
X161925095Y-99457618D02*
X162725095Y-99190951D01*
X162725095Y-99190951D02*
X161925095Y-98924285D01*
X142656189Y-88555095D02*
X142579999Y-88517000D01*
X142579999Y-88517000D02*
X142541904Y-88440809D01*
X142541904Y-88440809D02*
X142541904Y-87755095D01*
X142960952Y-88555095D02*
X142960952Y-88021761D01*
X142960952Y-88097952D02*
X142999047Y-88059857D01*
X142999047Y-88059857D02*
X143075237Y-88021761D01*
X143075237Y-88021761D02*
X143189523Y-88021761D01*
X143189523Y-88021761D02*
X143265714Y-88059857D01*
X143265714Y-88059857D02*
X143303809Y-88136047D01*
X143303809Y-88136047D02*
X143303809Y-88555095D01*
X143303809Y-88136047D02*
X143341904Y-88059857D01*
X143341904Y-88059857D02*
X143418095Y-88021761D01*
X143418095Y-88021761D02*
X143532380Y-88021761D01*
X143532380Y-88021761D02*
X143608571Y-88059857D01*
X143608571Y-88059857D02*
X143646666Y-88136047D01*
X143646666Y-88136047D02*
X143646666Y-88555095D01*
X144027619Y-88555095D02*
X144027619Y-87755095D01*
X144370476Y-88555095D02*
X144370476Y-88136047D01*
X144370476Y-88136047D02*
X144332381Y-88059857D01*
X144332381Y-88059857D02*
X144256190Y-88021761D01*
X144256190Y-88021761D02*
X144141904Y-88021761D01*
X144141904Y-88021761D02*
X144065714Y-88059857D01*
X144065714Y-88059857D02*
X144027619Y-88097952D01*
X145094286Y-87755095D02*
X144941905Y-87755095D01*
X144941905Y-87755095D02*
X144865714Y-87793190D01*
X144865714Y-87793190D02*
X144827619Y-87831285D01*
X144827619Y-87831285D02*
X144751429Y-87945571D01*
X144751429Y-87945571D02*
X144713333Y-88097952D01*
X144713333Y-88097952D02*
X144713333Y-88402714D01*
X144713333Y-88402714D02*
X144751429Y-88478904D01*
X144751429Y-88478904D02*
X144789524Y-88517000D01*
X144789524Y-88517000D02*
X144865714Y-88555095D01*
X144865714Y-88555095D02*
X145018095Y-88555095D01*
X145018095Y-88555095D02*
X145094286Y-88517000D01*
X145094286Y-88517000D02*
X145132381Y-88478904D01*
X145132381Y-88478904D02*
X145170476Y-88402714D01*
X145170476Y-88402714D02*
X145170476Y-88212238D01*
X145170476Y-88212238D02*
X145132381Y-88136047D01*
X145132381Y-88136047D02*
X145094286Y-88097952D01*
X145094286Y-88097952D02*
X145018095Y-88059857D01*
X145018095Y-88059857D02*
X144865714Y-88059857D01*
X144865714Y-88059857D02*
X144789524Y-88097952D01*
X144789524Y-88097952D02*
X144751429Y-88136047D01*
X144751429Y-88136047D02*
X144713333Y-88212238D01*
X145856191Y-87755095D02*
X145703810Y-87755095D01*
X145703810Y-87755095D02*
X145627619Y-87793190D01*
X145627619Y-87793190D02*
X145589524Y-87831285D01*
X145589524Y-87831285D02*
X145513334Y-87945571D01*
X145513334Y-87945571D02*
X145475238Y-88097952D01*
X145475238Y-88097952D02*
X145475238Y-88402714D01*
X145475238Y-88402714D02*
X145513334Y-88478904D01*
X145513334Y-88478904D02*
X145551429Y-88517000D01*
X145551429Y-88517000D02*
X145627619Y-88555095D01*
X145627619Y-88555095D02*
X145780000Y-88555095D01*
X145780000Y-88555095D02*
X145856191Y-88517000D01*
X145856191Y-88517000D02*
X145894286Y-88478904D01*
X145894286Y-88478904D02*
X145932381Y-88402714D01*
X145932381Y-88402714D02*
X145932381Y-88212238D01*
X145932381Y-88212238D02*
X145894286Y-88136047D01*
X145894286Y-88136047D02*
X145856191Y-88097952D01*
X145856191Y-88097952D02*
X145780000Y-88059857D01*
X145780000Y-88059857D02*
X145627619Y-88059857D01*
X145627619Y-88059857D02*
X145551429Y-88097952D01*
X145551429Y-88097952D02*
X145513334Y-88136047D01*
X145513334Y-88136047D02*
X145475238Y-88212238D01*
X146656191Y-87755095D02*
X146275239Y-87755095D01*
X146275239Y-87755095D02*
X146237143Y-88136047D01*
X146237143Y-88136047D02*
X146275239Y-88097952D01*
X146275239Y-88097952D02*
X146351429Y-88059857D01*
X146351429Y-88059857D02*
X146541905Y-88059857D01*
X146541905Y-88059857D02*
X146618096Y-88097952D01*
X146618096Y-88097952D02*
X146656191Y-88136047D01*
X146656191Y-88136047D02*
X146694286Y-88212238D01*
X146694286Y-88212238D02*
X146694286Y-88402714D01*
X146694286Y-88402714D02*
X146656191Y-88478904D01*
X146656191Y-88478904D02*
X146618096Y-88517000D01*
X146618096Y-88517000D02*
X146541905Y-88555095D01*
X146541905Y-88555095D02*
X146351429Y-88555095D01*
X146351429Y-88555095D02*
X146275239Y-88517000D01*
X146275239Y-88517000D02*
X146237143Y-88478904D01*
X147151429Y-88097952D02*
X147075239Y-88059857D01*
X147075239Y-88059857D02*
X147037144Y-88021761D01*
X147037144Y-88021761D02*
X146999048Y-87945571D01*
X146999048Y-87945571D02*
X146999048Y-87907476D01*
X146999048Y-87907476D02*
X147037144Y-87831285D01*
X147037144Y-87831285D02*
X147075239Y-87793190D01*
X147075239Y-87793190D02*
X147151429Y-87755095D01*
X147151429Y-87755095D02*
X147303810Y-87755095D01*
X147303810Y-87755095D02*
X147380001Y-87793190D01*
X147380001Y-87793190D02*
X147418096Y-87831285D01*
X147418096Y-87831285D02*
X147456191Y-87907476D01*
X147456191Y-87907476D02*
X147456191Y-87945571D01*
X147456191Y-87945571D02*
X147418096Y-88021761D01*
X147418096Y-88021761D02*
X147380001Y-88059857D01*
X147380001Y-88059857D02*
X147303810Y-88097952D01*
X147303810Y-88097952D02*
X147151429Y-88097952D01*
X147151429Y-88097952D02*
X147075239Y-88136047D01*
X147075239Y-88136047D02*
X147037144Y-88174142D01*
X147037144Y-88174142D02*
X146999048Y-88250333D01*
X146999048Y-88250333D02*
X146999048Y-88402714D01*
X146999048Y-88402714D02*
X147037144Y-88478904D01*
X147037144Y-88478904D02*
X147075239Y-88517000D01*
X147075239Y-88517000D02*
X147151429Y-88555095D01*
X147151429Y-88555095D02*
X147303810Y-88555095D01*
X147303810Y-88555095D02*
X147380001Y-88517000D01*
X147380001Y-88517000D02*
X147418096Y-88478904D01*
X147418096Y-88478904D02*
X147456191Y-88402714D01*
X147456191Y-88402714D02*
X147456191Y-88250333D01*
X147456191Y-88250333D02*
X147418096Y-88174142D01*
X147418096Y-88174142D02*
X147380001Y-88136047D01*
X147380001Y-88136047D02*
X147303810Y-88097952D01*
X164528190Y-99794523D02*
X164490095Y-99870713D01*
X164490095Y-99870713D02*
X164490095Y-99984999D01*
X164490095Y-99984999D02*
X164528190Y-100099285D01*
X164528190Y-100099285D02*
X164604380Y-100175475D01*
X164604380Y-100175475D02*
X164680571Y-100213570D01*
X164680571Y-100213570D02*
X164832952Y-100251666D01*
X164832952Y-100251666D02*
X164947238Y-100251666D01*
X164947238Y-100251666D02*
X165099619Y-100213570D01*
X165099619Y-100213570D02*
X165175809Y-100175475D01*
X165175809Y-100175475D02*
X165252000Y-100099285D01*
X165252000Y-100099285D02*
X165290095Y-99984999D01*
X165290095Y-99984999D02*
X165290095Y-99908808D01*
X165290095Y-99908808D02*
X165252000Y-99794523D01*
X165252000Y-99794523D02*
X165213904Y-99756427D01*
X165213904Y-99756427D02*
X164947238Y-99756427D01*
X164947238Y-99756427D02*
X164947238Y-99908808D01*
X165290095Y-99413570D02*
X164490095Y-99413570D01*
X164490095Y-99413570D02*
X165290095Y-98956427D01*
X165290095Y-98956427D02*
X164490095Y-98956427D01*
X165290095Y-98575475D02*
X164490095Y-98575475D01*
X164490095Y-98575475D02*
X164490095Y-98384999D01*
X164490095Y-98384999D02*
X164528190Y-98270713D01*
X164528190Y-98270713D02*
X164604380Y-98194523D01*
X164604380Y-98194523D02*
X164680571Y-98156428D01*
X164680571Y-98156428D02*
X164832952Y-98118332D01*
X164832952Y-98118332D02*
X164947238Y-98118332D01*
X164947238Y-98118332D02*
X165099619Y-98156428D01*
X165099619Y-98156428D02*
X165175809Y-98194523D01*
X165175809Y-98194523D02*
X165252000Y-98270713D01*
X165252000Y-98270713D02*
X165290095Y-98384999D01*
X165290095Y-98384999D02*
X165290095Y-98575475D01*
X159831047Y-99865714D02*
X159831047Y-100132380D01*
X160250095Y-100132380D02*
X159450095Y-100132380D01*
X159450095Y-100132380D02*
X159450095Y-99751428D01*
X167732000Y-100208571D02*
X167770095Y-100094285D01*
X167770095Y-100094285D02*
X167770095Y-99903809D01*
X167770095Y-99903809D02*
X167732000Y-99827618D01*
X167732000Y-99827618D02*
X167693904Y-99789523D01*
X167693904Y-99789523D02*
X167617714Y-99751428D01*
X167617714Y-99751428D02*
X167541523Y-99751428D01*
X167541523Y-99751428D02*
X167465333Y-99789523D01*
X167465333Y-99789523D02*
X167427238Y-99827618D01*
X167427238Y-99827618D02*
X167389142Y-99903809D01*
X167389142Y-99903809D02*
X167351047Y-100056190D01*
X167351047Y-100056190D02*
X167312952Y-100132380D01*
X167312952Y-100132380D02*
X167274857Y-100170475D01*
X167274857Y-100170475D02*
X167198666Y-100208571D01*
X167198666Y-100208571D02*
X167122476Y-100208571D01*
X167122476Y-100208571D02*
X167046285Y-100170475D01*
X167046285Y-100170475D02*
X167008190Y-100132380D01*
X167008190Y-100132380D02*
X166970095Y-100056190D01*
X166970095Y-100056190D02*
X166970095Y-99865713D01*
X166970095Y-99865713D02*
X167008190Y-99751428D01*
X197805095Y-92476428D02*
X197005095Y-92476428D01*
X197005095Y-92476428D02*
X197005095Y-92171666D01*
X197005095Y-92171666D02*
X197043190Y-92095476D01*
X197043190Y-92095476D02*
X197081285Y-92057381D01*
X197081285Y-92057381D02*
X197157476Y-92019285D01*
X197157476Y-92019285D02*
X197271761Y-92019285D01*
X197271761Y-92019285D02*
X197347952Y-92057381D01*
X197347952Y-92057381D02*
X197386047Y-92095476D01*
X197386047Y-92095476D02*
X197424142Y-92171666D01*
X197424142Y-92171666D02*
X197424142Y-92476428D01*
X197805095Y-91257381D02*
X197805095Y-91714524D01*
X197805095Y-91485952D02*
X197005095Y-91485952D01*
X197005095Y-91485952D02*
X197119380Y-91562143D01*
X197119380Y-91562143D02*
X197195571Y-91638333D01*
X197195571Y-91638333D02*
X197233666Y-91714524D01*
X197005095Y-90762142D02*
X197005095Y-90685952D01*
X197005095Y-90685952D02*
X197043190Y-90609761D01*
X197043190Y-90609761D02*
X197081285Y-90571666D01*
X197081285Y-90571666D02*
X197157476Y-90533571D01*
X197157476Y-90533571D02*
X197309857Y-90495476D01*
X197309857Y-90495476D02*
X197500333Y-90495476D01*
X197500333Y-90495476D02*
X197652714Y-90533571D01*
X197652714Y-90533571D02*
X197728904Y-90571666D01*
X197728904Y-90571666D02*
X197767000Y-90609761D01*
X197767000Y-90609761D02*
X197805095Y-90685952D01*
X197805095Y-90685952D02*
X197805095Y-90762142D01*
X197805095Y-90762142D02*
X197767000Y-90838333D01*
X197767000Y-90838333D02*
X197728904Y-90876428D01*
X197728904Y-90876428D02*
X197652714Y-90914523D01*
X197652714Y-90914523D02*
X197500333Y-90952619D01*
X197500333Y-90952619D02*
X197309857Y-90952619D01*
X197309857Y-90952619D02*
X197157476Y-90914523D01*
X197157476Y-90914523D02*
X197081285Y-90876428D01*
X197081285Y-90876428D02*
X197043190Y-90838333D01*
X197043190Y-90838333D02*
X197005095Y-90762142D01*
X170073927Y-50511010D02*
X170112023Y-50549106D01*
X170112023Y-50549106D02*
X170150118Y-50663391D01*
X170150118Y-50663391D02*
X170150118Y-50739582D01*
X170150118Y-50739582D02*
X170112023Y-50853868D01*
X170112023Y-50853868D02*
X170035832Y-50930058D01*
X170035832Y-50930058D02*
X169959642Y-50968153D01*
X169959642Y-50968153D02*
X169807261Y-51006249D01*
X169807261Y-51006249D02*
X169692975Y-51006249D01*
X169692975Y-51006249D02*
X169540594Y-50968153D01*
X169540594Y-50968153D02*
X169464403Y-50930058D01*
X169464403Y-50930058D02*
X169388213Y-50853868D01*
X169388213Y-50853868D02*
X169350118Y-50739582D01*
X169350118Y-50739582D02*
X169350118Y-50663391D01*
X169350118Y-50663391D02*
X169388213Y-50549106D01*
X169388213Y-50549106D02*
X169426308Y-50511010D01*
X172021546Y-48924106D02*
X172021546Y-48543153D01*
X172250118Y-49000296D02*
X171450118Y-48733629D01*
X171450118Y-48733629D02*
X172250118Y-48466963D01*
X148680095Y-52009523D02*
X149327714Y-52009523D01*
X149327714Y-52009523D02*
X149403904Y-51971428D01*
X149403904Y-51971428D02*
X149442000Y-51933333D01*
X149442000Y-51933333D02*
X149480095Y-51857142D01*
X149480095Y-51857142D02*
X149480095Y-51704761D01*
X149480095Y-51704761D02*
X149442000Y-51628571D01*
X149442000Y-51628571D02*
X149403904Y-51590476D01*
X149403904Y-51590476D02*
X149327714Y-51552380D01*
X149327714Y-51552380D02*
X148680095Y-51552380D01*
X148756285Y-51209524D02*
X148718190Y-51171428D01*
X148718190Y-51171428D02*
X148680095Y-51095238D01*
X148680095Y-51095238D02*
X148680095Y-50904762D01*
X148680095Y-50904762D02*
X148718190Y-50828571D01*
X148718190Y-50828571D02*
X148756285Y-50790476D01*
X148756285Y-50790476D02*
X148832476Y-50752381D01*
X148832476Y-50752381D02*
X148908666Y-50752381D01*
X148908666Y-50752381D02*
X149022952Y-50790476D01*
X149022952Y-50790476D02*
X149480095Y-51247619D01*
X149480095Y-51247619D02*
X149480095Y-50752381D01*
X153526523Y-52915476D02*
X153526523Y-52534523D01*
X153755095Y-52991666D02*
X152955095Y-52724999D01*
X152955095Y-52724999D02*
X153755095Y-52458333D01*
X155653904Y-48542380D02*
X155692000Y-48580476D01*
X155692000Y-48580476D02*
X155730095Y-48694761D01*
X155730095Y-48694761D02*
X155730095Y-48770952D01*
X155730095Y-48770952D02*
X155692000Y-48885238D01*
X155692000Y-48885238D02*
X155615809Y-48961428D01*
X155615809Y-48961428D02*
X155539619Y-48999523D01*
X155539619Y-48999523D02*
X155387238Y-49037619D01*
X155387238Y-49037619D02*
X155272952Y-49037619D01*
X155272952Y-49037619D02*
X155120571Y-48999523D01*
X155120571Y-48999523D02*
X155044380Y-48961428D01*
X155044380Y-48961428D02*
X154968190Y-48885238D01*
X154968190Y-48885238D02*
X154930095Y-48770952D01*
X154930095Y-48770952D02*
X154930095Y-48694761D01*
X154930095Y-48694761D02*
X154968190Y-48580476D01*
X154968190Y-48580476D02*
X155006285Y-48542380D01*
X151753904Y-52477380D02*
X151792000Y-52515476D01*
X151792000Y-52515476D02*
X151830095Y-52629761D01*
X151830095Y-52629761D02*
X151830095Y-52705952D01*
X151830095Y-52705952D02*
X151792000Y-52820238D01*
X151792000Y-52820238D02*
X151715809Y-52896428D01*
X151715809Y-52896428D02*
X151639619Y-52934523D01*
X151639619Y-52934523D02*
X151487238Y-52972619D01*
X151487238Y-52972619D02*
X151372952Y-52972619D01*
X151372952Y-52972619D02*
X151220571Y-52934523D01*
X151220571Y-52934523D02*
X151144380Y-52896428D01*
X151144380Y-52896428D02*
X151068190Y-52820238D01*
X151068190Y-52820238D02*
X151030095Y-52705952D01*
X151030095Y-52705952D02*
X151030095Y-52629761D01*
X151030095Y-52629761D02*
X151068190Y-52515476D01*
X151068190Y-52515476D02*
X151106285Y-52477380D01*
X153311047Y-48615714D02*
X153311047Y-48882380D01*
X153730095Y-48882380D02*
X152930095Y-48882380D01*
X152930095Y-48882380D02*
X152930095Y-48501428D01*
X135630095Y-88566666D02*
X136201523Y-88566666D01*
X136201523Y-88566666D02*
X136315809Y-88604761D01*
X136315809Y-88604761D02*
X136392000Y-88680952D01*
X136392000Y-88680952D02*
X136430095Y-88795237D01*
X136430095Y-88795237D02*
X136430095Y-88871428D01*
X135630095Y-88261904D02*
X135630095Y-87766666D01*
X135630095Y-87766666D02*
X135934857Y-88033332D01*
X135934857Y-88033332D02*
X135934857Y-87919047D01*
X135934857Y-87919047D02*
X135972952Y-87842856D01*
X135972952Y-87842856D02*
X136011047Y-87804761D01*
X136011047Y-87804761D02*
X136087238Y-87766666D01*
X136087238Y-87766666D02*
X136277714Y-87766666D01*
X136277714Y-87766666D02*
X136353904Y-87804761D01*
X136353904Y-87804761D02*
X136392000Y-87842856D01*
X136392000Y-87842856D02*
X136430095Y-87919047D01*
X136430095Y-87919047D02*
X136430095Y-88147618D01*
X136430095Y-88147618D02*
X136392000Y-88223809D01*
X136392000Y-88223809D02*
X136353904Y-88261904D01*
D12*
X235402089Y-81955303D02*
X235471357Y-82165038D01*
X235491347Y-82297930D01*
X235509307Y-82658986D01*
X235463964Y-82864266D01*
X235377921Y-82917333D01*
X235273745Y-82840114D01*
X235208831Y-82633223D01*
X235193394Y-82333814D01*
X235197506Y-82261167D01*
X235244212Y-82000747D01*
X235319390Y-81899666D01*
X235402089Y-81955303D01*
G36*
X235402089Y-81955303D02*
G01*
X235471357Y-82165038D01*
X235491347Y-82297930D01*
X235509307Y-82658986D01*
X235463964Y-82864266D01*
X235377921Y-82917333D01*
X235273745Y-82840114D01*
X235208831Y-82633223D01*
X235193394Y-82333814D01*
X235197506Y-82261167D01*
X235244212Y-82000747D01*
X235319390Y-81899666D01*
X235402089Y-81955303D01*
G37*
X237215572Y-93060874D02*
X237305431Y-93222212D01*
X237277323Y-93411754D01*
X237243295Y-93462396D01*
X237107009Y-93573242D01*
X236969174Y-93537508D01*
X236871715Y-93452286D01*
X236762387Y-93313595D01*
X236766029Y-93176647D01*
X236794740Y-93098500D01*
X236903225Y-93015811D01*
X237036351Y-92992667D01*
X237215572Y-93060874D01*
G36*
X237215572Y-93060874D02*
G01*
X237305431Y-93222212D01*
X237277323Y-93411754D01*
X237243295Y-93462396D01*
X237107009Y-93573242D01*
X236969174Y-93537508D01*
X236871715Y-93452286D01*
X236762387Y-93313595D01*
X236766029Y-93176647D01*
X236794740Y-93098500D01*
X236903225Y-93015811D01*
X237036351Y-92992667D01*
X237215572Y-93060874D01*
G37*
X236019654Y-81974837D02*
X236076892Y-82153694D01*
X236092459Y-82375418D01*
X236056751Y-82577524D01*
X236040052Y-82615092D01*
X235967540Y-82728785D01*
X235900729Y-82701067D01*
X235838522Y-82620076D01*
X235752617Y-82478028D01*
X235735353Y-82414318D01*
X235756166Y-82303750D01*
X235783310Y-82134167D01*
X235844070Y-81965051D01*
X235930348Y-81901333D01*
X236019654Y-81974837D01*
G36*
X236019654Y-81974837D02*
G01*
X236076892Y-82153694D01*
X236092459Y-82375418D01*
X236056751Y-82577524D01*
X236040052Y-82615092D01*
X235967540Y-82728785D01*
X235900729Y-82701067D01*
X235838522Y-82620076D01*
X235752617Y-82478028D01*
X235735353Y-82414318D01*
X235756166Y-82303750D01*
X235783310Y-82134167D01*
X235844070Y-81965051D01*
X235930348Y-81901333D01*
X236019654Y-81974837D01*
G37*
X236592517Y-81964292D02*
X236654621Y-82176729D01*
X236668108Y-82293093D01*
X236665073Y-82576242D01*
X236616203Y-82786965D01*
X236535742Y-82896282D01*
X236437935Y-82875211D01*
X236402906Y-82832667D01*
X236335788Y-82680167D01*
X236330863Y-82621000D01*
X236347632Y-82486355D01*
X236372259Y-82263880D01*
X236377011Y-82218833D01*
X236430854Y-81979513D01*
X236510309Y-81896609D01*
X236592517Y-81964292D01*
G36*
X236592517Y-81964292D02*
G01*
X236654621Y-82176729D01*
X236668108Y-82293093D01*
X236665073Y-82576242D01*
X236616203Y-82786965D01*
X236535742Y-82896282D01*
X236437935Y-82875211D01*
X236402906Y-82832667D01*
X236335788Y-82680167D01*
X236330863Y-82621000D01*
X236347632Y-82486355D01*
X236372259Y-82263880D01*
X236377011Y-82218833D01*
X236430854Y-81979513D01*
X236510309Y-81896609D01*
X236592517Y-81964292D01*
G37*
X237211802Y-82067978D02*
X237244866Y-82370351D01*
X237245371Y-82435497D01*
X237224983Y-82765040D01*
X237171664Y-82983397D01*
X237093826Y-83071614D01*
X236999880Y-83010733D01*
X236993964Y-83002000D01*
X236943001Y-82843304D01*
X236916069Y-82599119D01*
X236913243Y-82329601D01*
X236934596Y-82094906D01*
X236980202Y-81955188D01*
X236992667Y-81943667D01*
X237127573Y-81925434D01*
X237211802Y-82067978D01*
G36*
X237211802Y-82067978D02*
G01*
X237244866Y-82370351D01*
X237245371Y-82435497D01*
X237224983Y-82765040D01*
X237171664Y-82983397D01*
X237093826Y-83071614D01*
X236999880Y-83010733D01*
X236993964Y-83002000D01*
X236943001Y-82843304D01*
X236916069Y-82599119D01*
X236913243Y-82329601D01*
X236934596Y-82094906D01*
X236980202Y-81955188D01*
X236992667Y-81943667D01*
X237127573Y-81925434D01*
X237211802Y-82067978D01*
G37*
X234925802Y-82067978D02*
X234958866Y-82370351D01*
X234959371Y-82435497D01*
X234938983Y-82765040D01*
X234885664Y-82983397D01*
X234807826Y-83071614D01*
X234713880Y-83010733D01*
X234707964Y-83002000D01*
X234657001Y-82843304D01*
X234630069Y-82599119D01*
X234627243Y-82329601D01*
X234648596Y-82094906D01*
X234694202Y-81955188D01*
X234706667Y-81943667D01*
X234841573Y-81925434D01*
X234925802Y-82067978D01*
G36*
X234925802Y-82067978D02*
G01*
X234958866Y-82370351D01*
X234959371Y-82435497D01*
X234938983Y-82765040D01*
X234885664Y-82983397D01*
X234807826Y-83071614D01*
X234713880Y-83010733D01*
X234707964Y-83002000D01*
X234657001Y-82843304D01*
X234630069Y-82599119D01*
X234627243Y-82329601D01*
X234648596Y-82094906D01*
X234694202Y-81955188D01*
X234706667Y-81943667D01*
X234841573Y-81925434D01*
X234925802Y-82067978D01*
G37*
X236038322Y-92995116D02*
X236276089Y-93007516D01*
X236412250Y-93037449D01*
X236480661Y-93092492D01*
X236515178Y-93180227D01*
X236515970Y-93183167D01*
X236559127Y-93365865D01*
X236553154Y-93483102D01*
X236471607Y-93548029D01*
X236288044Y-93573800D01*
X235976021Y-93573568D01*
X235743834Y-93567232D01*
X234918334Y-93543000D01*
X234891803Y-93267833D01*
X234865272Y-92992667D01*
X235665095Y-92992667D01*
X236038322Y-92995116D01*
G36*
X236038322Y-92995116D02*
G01*
X236276089Y-93007516D01*
X236412250Y-93037449D01*
X236480661Y-93092492D01*
X236515178Y-93180227D01*
X236515970Y-93183167D01*
X236559127Y-93365865D01*
X236553154Y-93483102D01*
X236471607Y-93548029D01*
X236288044Y-93573800D01*
X235976021Y-93573568D01*
X235743834Y-93567232D01*
X234918334Y-93543000D01*
X234891803Y-93267833D01*
X234865272Y-92992667D01*
X235665095Y-92992667D01*
X236038322Y-92995116D01*
G37*
X234223500Y-81923326D02*
X234283431Y-82021338D01*
X234331067Y-82240562D01*
X234363529Y-82533138D01*
X234377938Y-82851205D01*
X234371415Y-83146904D01*
X234341080Y-83372375D01*
X234315084Y-83445709D01*
X234219834Y-83623085D01*
X234124584Y-83445108D01*
X234057402Y-83298236D01*
X234046373Y-83240399D01*
X234057833Y-83149279D01*
X234072934Y-82931651D01*
X234088824Y-82630218D01*
X234092372Y-82551666D01*
X234117436Y-82192049D01*
X234156020Y-81986801D01*
X234211178Y-81921281D01*
X234223500Y-81923326D01*
G36*
X234223500Y-81923326D02*
G01*
X234283431Y-82021338D01*
X234331067Y-82240562D01*
X234363529Y-82533138D01*
X234377938Y-82851205D01*
X234371415Y-83146904D01*
X234341080Y-83372375D01*
X234315084Y-83445709D01*
X234219834Y-83623085D01*
X234124584Y-83445108D01*
X234057402Y-83298236D01*
X234046373Y-83240399D01*
X234057833Y-83149279D01*
X234072934Y-82931651D01*
X234088824Y-82630218D01*
X234092372Y-82551666D01*
X234117436Y-82192049D01*
X234156020Y-81986801D01*
X234211178Y-81921281D01*
X234223500Y-81923326D01*
G37*
X237707781Y-81951993D02*
X237741603Y-82103767D01*
X237754307Y-82398554D01*
X237754667Y-82480020D01*
X237760696Y-82793663D01*
X237776506Y-83047715D01*
X237798686Y-83187523D01*
X237798869Y-83188005D01*
X237788923Y-83342671D01*
X237731137Y-83456270D01*
X237643025Y-83555362D01*
X237584496Y-83514905D01*
X237538769Y-83411507D01*
X237504548Y-83230714D01*
X237490472Y-82941997D01*
X237499332Y-82605875D01*
X237500667Y-82585326D01*
X237538941Y-82224483D01*
X237594121Y-81996242D01*
X237648834Y-81922103D01*
X237707781Y-81951993D01*
G36*
X237707781Y-81951993D02*
G01*
X237741603Y-82103767D01*
X237754307Y-82398554D01*
X237754667Y-82480020D01*
X237760696Y-82793663D01*
X237776506Y-83047715D01*
X237798686Y-83187523D01*
X237798869Y-83188005D01*
X237788923Y-83342671D01*
X237731137Y-83456270D01*
X237643025Y-83555362D01*
X237584496Y-83514905D01*
X237538769Y-83411507D01*
X237504548Y-83230714D01*
X237490472Y-82941997D01*
X237499332Y-82605875D01*
X237500667Y-82585326D01*
X237538941Y-82224483D01*
X237594121Y-81996242D01*
X237648834Y-81922103D01*
X237707781Y-81951993D01*
G37*
X235801300Y-86406608D02*
X236125750Y-86545902D01*
X236281467Y-86676533D01*
X236510110Y-87007461D01*
X236573900Y-87373688D01*
X236471772Y-87767517D01*
X236441457Y-87829694D01*
X236238675Y-88095161D01*
X235957468Y-88227380D01*
X235704739Y-88251333D01*
X235342009Y-88173276D01*
X235050932Y-87944899D01*
X234917850Y-87742398D01*
X234811369Y-87467254D01*
X234813478Y-87323737D01*
X235142923Y-87323737D01*
X235153895Y-87498284D01*
X235263925Y-87607275D01*
X235539741Y-87659593D01*
X235830595Y-87633219D01*
X236088361Y-87543557D01*
X236264910Y-87406011D01*
X236315334Y-87270770D01*
X236241609Y-87136512D01*
X236053654Y-87049264D01*
X235801300Y-87014104D01*
X235534377Y-87036114D01*
X235302716Y-87120374D01*
X235243903Y-87161536D01*
X235142923Y-87323737D01*
X234813478Y-87323737D01*
X234815064Y-87215859D01*
X234930808Y-86915569D01*
X234939632Y-86897844D01*
X235173230Y-86585452D01*
X235468868Y-86419352D01*
X235796417Y-86404512D01*
X235801300Y-86406608D01*
G36*
X235801300Y-86406608D02*
G01*
X236125750Y-86545902D01*
X236281467Y-86676533D01*
X236510110Y-87007461D01*
X236573900Y-87373688D01*
X236471772Y-87767517D01*
X236441457Y-87829694D01*
X236238675Y-88095161D01*
X235957468Y-88227380D01*
X235704739Y-88251333D01*
X235342009Y-88173276D01*
X235050932Y-87944899D01*
X234917850Y-87742398D01*
X234811369Y-87467254D01*
X234813478Y-87323737D01*
X235142923Y-87323737D01*
X235153895Y-87498284D01*
X235263925Y-87607275D01*
X235539741Y-87659593D01*
X235830595Y-87633219D01*
X236088361Y-87543557D01*
X236264910Y-87406011D01*
X236315334Y-87270770D01*
X236241609Y-87136512D01*
X236053654Y-87049264D01*
X235801300Y-87014104D01*
X235534377Y-87036114D01*
X235302716Y-87120374D01*
X235243903Y-87161536D01*
X235142923Y-87323737D01*
X234813478Y-87323737D01*
X234815064Y-87215859D01*
X234930808Y-86915569D01*
X234939632Y-86897844D01*
X235173230Y-86585452D01*
X235468868Y-86419352D01*
X235796417Y-86404512D01*
X235801300Y-86406608D01*
G37*
X236004729Y-93898528D02*
X236291743Y-94077044D01*
X236474758Y-94320600D01*
X236555397Y-94608111D01*
X236556374Y-94936155D01*
X236481688Y-95199566D01*
X236343818Y-95323515D01*
X236157457Y-95358911D01*
X235995551Y-95301709D01*
X235943392Y-95229408D01*
X235898238Y-95032404D01*
X235976326Y-94909495D01*
X236103667Y-94839928D01*
X236259925Y-94730936D01*
X236315334Y-94627981D01*
X236242305Y-94497782D01*
X236056957Y-94418257D01*
X235809900Y-94393947D01*
X235551744Y-94429393D01*
X235333097Y-94529138D01*
X235320500Y-94538708D01*
X235220786Y-94705672D01*
X235266406Y-94904584D01*
X235439243Y-95089469D01*
X235580785Y-95243032D01*
X235591722Y-95374883D01*
X235473530Y-95444870D01*
X235426058Y-95448000D01*
X235241346Y-95377923D01*
X235046997Y-95203939D01*
X234893560Y-94980422D01*
X234835739Y-94813000D01*
X234834930Y-94551372D01*
X234881916Y-94347333D01*
X235077183Y-94062072D01*
X235356624Y-93891727D01*
X235679414Y-93836984D01*
X236004729Y-93898528D01*
G36*
X236004729Y-93898528D02*
G01*
X236291743Y-94077044D01*
X236474758Y-94320600D01*
X236555397Y-94608111D01*
X236556374Y-94936155D01*
X236481688Y-95199566D01*
X236343818Y-95323515D01*
X236157457Y-95358911D01*
X235995551Y-95301709D01*
X235943392Y-95229408D01*
X235898238Y-95032404D01*
X235976326Y-94909495D01*
X236103667Y-94839928D01*
X236259925Y-94730936D01*
X236315334Y-94627981D01*
X236242305Y-94497782D01*
X236056957Y-94418257D01*
X235809900Y-94393947D01*
X235551744Y-94429393D01*
X235333097Y-94529138D01*
X235320500Y-94538708D01*
X235220786Y-94705672D01*
X235266406Y-94904584D01*
X235439243Y-95089469D01*
X235580785Y-95243032D01*
X235591722Y-95374883D01*
X235473530Y-95444870D01*
X235426058Y-95448000D01*
X235241346Y-95377923D01*
X235046997Y-95203939D01*
X234893560Y-94980422D01*
X234835739Y-94813000D01*
X234834930Y-94551372D01*
X234881916Y-94347333D01*
X235077183Y-94062072D01*
X235356624Y-93891727D01*
X235679414Y-93836984D01*
X236004729Y-93898528D01*
G37*
X233724230Y-95872386D02*
X234049066Y-95878383D01*
X234259363Y-95893578D01*
X234382519Y-95922227D01*
X234445930Y-95968585D01*
X234476994Y-96036907D01*
X234483970Y-96061833D01*
X234530535Y-96289584D01*
X234493169Y-96410109D01*
X234341484Y-96456978D01*
X234119911Y-96464000D01*
X233872930Y-96468328D01*
X233758362Y-96497719D01*
X233739290Y-96576787D01*
X233769487Y-96697614D01*
X233790153Y-97007316D01*
X233679999Y-97265051D01*
X233531676Y-97389798D01*
X233366891Y-97433909D01*
X233089796Y-97466048D01*
X232757320Y-97479870D01*
X232722567Y-97480000D01*
X232082000Y-97480000D01*
X232082000Y-96887333D01*
X232759334Y-96887333D01*
X233073869Y-96878385D01*
X233310729Y-96854605D01*
X233429859Y-96820591D01*
X233436667Y-96809591D01*
X233413504Y-96640346D01*
X233323301Y-96536263D01*
X233134989Y-96482607D01*
X232817496Y-96464643D01*
X232707942Y-96464000D01*
X232082000Y-96464000D01*
X232082000Y-95871333D01*
X233257459Y-95871333D01*
X233724230Y-95872386D01*
G36*
X233724230Y-95872386D02*
G01*
X234049066Y-95878383D01*
X234259363Y-95893578D01*
X234382519Y-95922227D01*
X234445930Y-95968585D01*
X234476994Y-96036907D01*
X234483970Y-96061833D01*
X234530535Y-96289584D01*
X234493169Y-96410109D01*
X234341484Y-96456978D01*
X234119911Y-96464000D01*
X233872930Y-96468328D01*
X233758362Y-96497719D01*
X233739290Y-96576787D01*
X233769487Y-96697614D01*
X233790153Y-97007316D01*
X233679999Y-97265051D01*
X233531676Y-97389798D01*
X233366891Y-97433909D01*
X233089796Y-97466048D01*
X232757320Y-97479870D01*
X232722567Y-97480000D01*
X232082000Y-97480000D01*
X232082000Y-96887333D01*
X232759334Y-96887333D01*
X233073869Y-96878385D01*
X233310729Y-96854605D01*
X233429859Y-96820591D01*
X233436667Y-96809591D01*
X233413504Y-96640346D01*
X233323301Y-96536263D01*
X233134989Y-96482607D01*
X232817496Y-96464643D01*
X232707942Y-96464000D01*
X232082000Y-96464000D01*
X232082000Y-95871333D01*
X233257459Y-95871333D01*
X233724230Y-95872386D01*
G37*
X233257095Y-94045289D02*
X233557773Y-94267002D01*
X233604677Y-94322547D01*
X233730227Y-94592712D01*
X233775411Y-94931678D01*
X233733592Y-95255808D01*
X233687688Y-95368899D01*
X233534269Y-95507764D01*
X233337240Y-95513862D01*
X233187159Y-95411079D01*
X233141676Y-95246889D01*
X233201612Y-95068677D01*
X233333136Y-94952272D01*
X233397313Y-94940000D01*
X233505405Y-94888060D01*
X233505321Y-94769092D01*
X233406000Y-94638371D01*
X233341657Y-94595797D01*
X233101979Y-94542389D01*
X232812875Y-94572180D01*
X232565366Y-94673774D01*
X232534570Y-94696870D01*
X232429442Y-94861476D01*
X232483663Y-95055785D01*
X232647069Y-95242574D01*
X232792915Y-95411582D01*
X232797411Y-95525569D01*
X232783159Y-95542708D01*
X232644500Y-95575245D01*
X232449373Y-95505673D01*
X232253945Y-95358320D01*
X232190527Y-95286003D01*
X232098260Y-95050501D01*
X232087808Y-94746846D01*
X232153921Y-94452124D01*
X232259464Y-94273445D01*
X232570450Y-94047142D01*
X232915490Y-93971546D01*
X233257095Y-94045289D01*
G36*
X233257095Y-94045289D02*
G01*
X233557773Y-94267002D01*
X233604677Y-94322547D01*
X233730227Y-94592712D01*
X233775411Y-94931678D01*
X233733592Y-95255808D01*
X233687688Y-95368899D01*
X233534269Y-95507764D01*
X233337240Y-95513862D01*
X233187159Y-95411079D01*
X233141676Y-95246889D01*
X233201612Y-95068677D01*
X233333136Y-94952272D01*
X233397313Y-94940000D01*
X233505405Y-94888060D01*
X233505321Y-94769092D01*
X233406000Y-94638371D01*
X233341657Y-94595797D01*
X233101979Y-94542389D01*
X232812875Y-94572180D01*
X232565366Y-94673774D01*
X232534570Y-94696870D01*
X232429442Y-94861476D01*
X232483663Y-95055785D01*
X232647069Y-95242574D01*
X232792915Y-95411582D01*
X232797411Y-95525569D01*
X232783159Y-95542708D01*
X232644500Y-95575245D01*
X232449373Y-95505673D01*
X232253945Y-95358320D01*
X232190527Y-95286003D01*
X232098260Y-95050501D01*
X232087808Y-94746846D01*
X232153921Y-94452124D01*
X232259464Y-94273445D01*
X232570450Y-94047142D01*
X232915490Y-93971546D01*
X233257095Y-94045289D01*
G37*
X236530520Y-90727833D02*
X236512485Y-91061218D01*
X236498354Y-91331060D01*
X236490522Y-91491369D01*
X236489765Y-91511000D01*
X236499238Y-91643011D01*
X236525842Y-91868110D01*
X236536057Y-91943276D01*
X236553217Y-92181560D01*
X236500931Y-92332707D01*
X236353976Y-92472443D01*
X236193384Y-92572341D01*
X235996215Y-92628303D01*
X235710578Y-92651354D01*
X235499582Y-92654000D01*
X234876000Y-92654000D01*
X234876000Y-92061333D01*
X235506004Y-92061333D01*
X235873136Y-92051347D01*
X236095012Y-92014742D01*
X236194885Y-91941551D01*
X236196011Y-91821806D01*
X236179550Y-91772640D01*
X236114787Y-91700015D01*
X235967136Y-91658085D01*
X235702701Y-91640114D01*
X235501942Y-91638000D01*
X234876000Y-91638000D01*
X234876000Y-91045333D01*
X235506004Y-91045333D01*
X235873136Y-91035347D01*
X236095012Y-90998742D01*
X236194885Y-90925551D01*
X236196011Y-90805806D01*
X236179550Y-90756640D01*
X236114787Y-90684015D01*
X235967136Y-90642085D01*
X235702701Y-90624114D01*
X235501942Y-90622000D01*
X234876000Y-90622000D01*
X234876000Y-90029333D01*
X236568837Y-90029333D01*
X236530520Y-90727833D01*
G36*
X236530520Y-90727833D02*
G01*
X236512485Y-91061218D01*
X236498354Y-91331060D01*
X236490522Y-91491369D01*
X236489765Y-91511000D01*
X236499238Y-91643011D01*
X236525842Y-91868110D01*
X236536057Y-91943276D01*
X236553217Y-92181560D01*
X236500931Y-92332707D01*
X236353976Y-92472443D01*
X236193384Y-92572341D01*
X235996215Y-92628303D01*
X235710578Y-92651354D01*
X235499582Y-92654000D01*
X234876000Y-92654000D01*
X234876000Y-92061333D01*
X235506004Y-92061333D01*
X235873136Y-92051347D01*
X236095012Y-92014742D01*
X236194885Y-91941551D01*
X236196011Y-91821806D01*
X236179550Y-91772640D01*
X236114787Y-91700015D01*
X235967136Y-91658085D01*
X235702701Y-91640114D01*
X235501942Y-91638000D01*
X234876000Y-91638000D01*
X234876000Y-91045333D01*
X235506004Y-91045333D01*
X235873136Y-91035347D01*
X236095012Y-90998742D01*
X236194885Y-90925551D01*
X236196011Y-90805806D01*
X236179550Y-90756640D01*
X236114787Y-90684015D01*
X235967136Y-90642085D01*
X235702701Y-90624114D01*
X235501942Y-90622000D01*
X234876000Y-90622000D01*
X234876000Y-90029333D01*
X236568837Y-90029333D01*
X236530520Y-90727833D01*
G37*
X232501966Y-90901993D02*
X232654322Y-90924330D01*
X232869406Y-91093349D01*
X233048486Y-91383726D01*
X233102558Y-91524809D01*
X233216668Y-91743652D01*
X233356461Y-91798947D01*
X233514894Y-91688031D01*
X233519582Y-91682444D01*
X233567763Y-91579518D01*
X233484154Y-91497155D01*
X233407607Y-91459309D01*
X233195140Y-91313305D01*
X233148682Y-91141845D01*
X233216352Y-91000510D01*
X233357409Y-90899945D01*
X233505543Y-90938084D01*
X233641869Y-91086300D01*
X233747500Y-91315965D01*
X233803552Y-91598452D01*
X233795409Y-91878270D01*
X233718180Y-92123050D01*
X233556311Y-92281770D01*
X233286131Y-92365820D01*
X232883969Y-92386590D01*
X232747093Y-92382723D01*
X232124334Y-92357667D01*
X232103850Y-91749198D01*
X232103369Y-91547918D01*
X232433603Y-91547918D01*
X232436350Y-91616833D01*
X232540933Y-91743424D01*
X232716512Y-91793716D01*
X232887529Y-91807047D01*
X232910723Y-91767831D01*
X232808499Y-91645549D01*
X232640222Y-91508446D01*
X232501966Y-91474877D01*
X232433603Y-91547918D01*
X232103369Y-91547918D01*
X232102992Y-91390086D01*
X232133582Y-91160845D01*
X232201283Y-91023988D01*
X232215731Y-91008364D01*
X232428131Y-90891169D01*
X232501966Y-90901993D01*
G36*
X232501966Y-90901993D02*
G01*
X232654322Y-90924330D01*
X232869406Y-91093349D01*
X233048486Y-91383726D01*
X233102558Y-91524809D01*
X233216668Y-91743652D01*
X233356461Y-91798947D01*
X233514894Y-91688031D01*
X233519582Y-91682444D01*
X233567763Y-91579518D01*
X233484154Y-91497155D01*
X233407607Y-91459309D01*
X233195140Y-91313305D01*
X233148682Y-91141845D01*
X233216352Y-91000510D01*
X233357409Y-90899945D01*
X233505543Y-90938084D01*
X233641869Y-91086300D01*
X233747500Y-91315965D01*
X233803552Y-91598452D01*
X233795409Y-91878270D01*
X233718180Y-92123050D01*
X233556311Y-92281770D01*
X233286131Y-92365820D01*
X232883969Y-92386590D01*
X232747093Y-92382723D01*
X232124334Y-92357667D01*
X232103850Y-91749198D01*
X232103369Y-91547918D01*
X232433603Y-91547918D01*
X232436350Y-91616833D01*
X232540933Y-91743424D01*
X232716512Y-91793716D01*
X232887529Y-91807047D01*
X232910723Y-91767831D01*
X232808499Y-91645549D01*
X232640222Y-91508446D01*
X232501966Y-91474877D01*
X232433603Y-91547918D01*
X232103369Y-91547918D01*
X232102992Y-91390086D01*
X232133582Y-91160845D01*
X232201283Y-91023988D01*
X232215731Y-91008364D01*
X232428131Y-90891169D01*
X232501966Y-90901993D01*
G37*
X235298548Y-88488127D02*
X235327421Y-88633727D01*
X235297526Y-88772294D01*
X235250428Y-88815904D01*
X235157835Y-88917659D01*
X235131392Y-89076411D01*
X235170294Y-89217368D01*
X235255280Y-89267333D01*
X235366819Y-89197840D01*
X235500563Y-89022821D01*
X235551890Y-88931497D01*
X235764084Y-88610179D01*
X235986680Y-88452593D01*
X236214759Y-88460722D01*
X236400000Y-88590000D01*
X236529502Y-88817146D01*
X236570976Y-89104537D01*
X236523339Y-89380576D01*
X236414500Y-89550544D01*
X236274843Y-89658289D01*
X236202834Y-89690667D01*
X236149715Y-89624964D01*
X236164223Y-89469172D01*
X236239479Y-89285262D01*
X236249714Y-89268298D01*
X236309385Y-89106951D01*
X236256918Y-89005717D01*
X236173121Y-88984813D01*
X236060464Y-89086722D01*
X235928881Y-89278770D01*
X235778275Y-89503239D01*
X235650858Y-89665995D01*
X235604177Y-89710537D01*
X235407526Y-89769630D01*
X235171947Y-89755965D01*
X234988300Y-89677335D01*
X234966937Y-89655888D01*
X234879651Y-89465759D01*
X234827881Y-89198016D01*
X234824900Y-88942910D01*
X234847518Y-88844000D01*
X234945038Y-88674899D01*
X235079793Y-88514636D01*
X235197832Y-88424870D01*
X235217915Y-88420667D01*
X235298548Y-88488127D01*
G36*
X235298548Y-88488127D02*
G01*
X235327421Y-88633727D01*
X235297526Y-88772294D01*
X235250428Y-88815904D01*
X235157835Y-88917659D01*
X235131392Y-89076411D01*
X235170294Y-89217368D01*
X235255280Y-89267333D01*
X235366819Y-89197840D01*
X235500563Y-89022821D01*
X235551890Y-88931497D01*
X235764084Y-88610179D01*
X235986680Y-88452593D01*
X236214759Y-88460722D01*
X236400000Y-88590000D01*
X236529502Y-88817146D01*
X236570976Y-89104537D01*
X236523339Y-89380576D01*
X236414500Y-89550544D01*
X236274843Y-89658289D01*
X236202834Y-89690667D01*
X236149715Y-89624964D01*
X236164223Y-89469172D01*
X236239479Y-89285262D01*
X236249714Y-89268298D01*
X236309385Y-89106951D01*
X236256918Y-89005717D01*
X236173121Y-88984813D01*
X236060464Y-89086722D01*
X235928881Y-89278770D01*
X235778275Y-89503239D01*
X235650858Y-89665995D01*
X235604177Y-89710537D01*
X235407526Y-89769630D01*
X235171947Y-89755965D01*
X234988300Y-89677335D01*
X234966937Y-89655888D01*
X234879651Y-89465759D01*
X234827881Y-89198016D01*
X234824900Y-88942910D01*
X234847518Y-88844000D01*
X234945038Y-88674899D01*
X235079793Y-88514636D01*
X235197832Y-88424870D01*
X235217915Y-88420667D01*
X235298548Y-88488127D01*
G37*
X233650825Y-92597724D02*
X233789070Y-92749828D01*
X233805674Y-92774578D01*
X233964091Y-92946362D01*
X234111745Y-93034284D01*
X234250566Y-93146087D01*
X234283334Y-93252372D01*
X234240721Y-93372836D01*
X234085589Y-93414711D01*
X234029334Y-93416000D01*
X233847807Y-93438781D01*
X233781400Y-93535621D01*
X233775334Y-93627667D01*
X233731173Y-93797905D01*
X233648334Y-93839333D01*
X233546191Y-93765732D01*
X233521334Y-93627667D01*
X233511722Y-93514011D01*
X233457420Y-93450637D01*
X233320224Y-93422893D01*
X233061933Y-93416129D01*
X232969387Y-93416000D01*
X232674035Y-93418772D01*
X232513466Y-93436861D01*
X232453131Y-93484929D01*
X232458483Y-93577633D01*
X232470566Y-93627667D01*
X232483381Y-93791105D01*
X232398937Y-93839331D01*
X232397879Y-93839333D01*
X232220885Y-93764936D01*
X232095821Y-93577769D01*
X232045476Y-93331871D01*
X232085428Y-93098500D01*
X232137048Y-93003396D01*
X232224095Y-92946521D01*
X232385011Y-92918186D01*
X232658240Y-92908702D01*
X232841272Y-92908000D01*
X233179562Y-92904492D01*
X233382568Y-92888323D01*
X233484289Y-92851029D01*
X233518723Y-92784144D01*
X233521334Y-92738667D01*
X233556331Y-92593341D01*
X233650825Y-92597724D01*
G36*
X233650825Y-92597724D02*
G01*
X233789070Y-92749828D01*
X233805674Y-92774578D01*
X233964091Y-92946362D01*
X234111745Y-93034284D01*
X234250566Y-93146087D01*
X234283334Y-93252372D01*
X234240721Y-93372836D01*
X234085589Y-93414711D01*
X234029334Y-93416000D01*
X233847807Y-93438781D01*
X233781400Y-93535621D01*
X233775334Y-93627667D01*
X233731173Y-93797905D01*
X233648334Y-93839333D01*
X233546191Y-93765732D01*
X233521334Y-93627667D01*
X233511722Y-93514011D01*
X233457420Y-93450637D01*
X233320224Y-93422893D01*
X233061933Y-93416129D01*
X232969387Y-93416000D01*
X232674035Y-93418772D01*
X232513466Y-93436861D01*
X232453131Y-93484929D01*
X232458483Y-93577633D01*
X232470566Y-93627667D01*
X232483381Y-93791105D01*
X232398937Y-93839331D01*
X232397879Y-93839333D01*
X232220885Y-93764936D01*
X232095821Y-93577769D01*
X232045476Y-93331871D01*
X232085428Y-93098500D01*
X232137048Y-93003396D01*
X232224095Y-92946521D01*
X232385011Y-92918186D01*
X232658240Y-92908702D01*
X232841272Y-92908000D01*
X233179562Y-92904492D01*
X233382568Y-92888323D01*
X233484289Y-92851029D01*
X233518723Y-92784144D01*
X233521334Y-92738667D01*
X233556331Y-92593341D01*
X233650825Y-92597724D01*
G37*
X234273040Y-87923954D02*
X234283334Y-88113303D01*
X234276529Y-88263277D01*
X234234417Y-88367083D01*
X234124448Y-88452073D01*
X233914073Y-88545597D01*
X233649952Y-88645559D01*
X233364216Y-88760912D01*
X233161900Y-88860330D01*
X233076291Y-88926789D01*
X233078452Y-88937856D01*
X233185004Y-88993748D01*
X233403379Y-89084621D01*
X233672101Y-89185598D01*
X233948228Y-89291826D01*
X234154380Y-89384331D01*
X234243901Y-89441360D01*
X234190914Y-89500482D01*
X234014338Y-89598181D01*
X233749777Y-89715305D01*
X233690967Y-89738776D01*
X233407011Y-89857021D01*
X233197204Y-89957420D01*
X233100420Y-90021074D01*
X233098000Y-90027052D01*
X233171572Y-90080561D01*
X233365044Y-90168756D01*
X233637555Y-90273135D01*
X233655532Y-90279510D01*
X233994841Y-90413607D01*
X234193236Y-90535318D01*
X234275627Y-90666545D01*
X234269328Y-90819168D01*
X234224029Y-90857638D01*
X234102158Y-90848880D01*
X233882927Y-90787348D01*
X233545550Y-90667494D01*
X233190398Y-90531278D01*
X232793524Y-90372419D01*
X232451409Y-90228223D01*
X232196496Y-90112890D01*
X232061229Y-90040621D01*
X232051632Y-90032831D01*
X232013036Y-89926791D01*
X232112128Y-89811181D01*
X232359279Y-89677818D01*
X232650386Y-89560350D01*
X233133116Y-89380222D01*
X232592888Y-89173935D01*
X232254878Y-89030926D01*
X232068481Y-88912638D01*
X232020250Y-88805993D01*
X232096740Y-88697913D01*
X232100347Y-88694903D01*
X232215506Y-88632324D01*
X232450059Y-88525539D01*
X232765130Y-88390535D01*
X233121840Y-88243302D01*
X233481313Y-88099830D01*
X233804671Y-87976108D01*
X234053036Y-87888126D01*
X234092834Y-87875437D01*
X234220097Y-87853951D01*
X234273040Y-87923954D01*
G36*
X234273040Y-87923954D02*
G01*
X234283334Y-88113303D01*
X234276529Y-88263277D01*
X234234417Y-88367083D01*
X234124448Y-88452073D01*
X233914073Y-88545597D01*
X233649952Y-88645559D01*
X233364216Y-88760912D01*
X233161900Y-88860330D01*
X233076291Y-88926789D01*
X233078452Y-88937856D01*
X233185004Y-88993748D01*
X233403379Y-89084621D01*
X233672101Y-89185598D01*
X233948228Y-89291826D01*
X234154380Y-89384331D01*
X234243901Y-89441360D01*
X234190914Y-89500482D01*
X234014338Y-89598181D01*
X233749777Y-89715305D01*
X233690967Y-89738776D01*
X233407011Y-89857021D01*
X233197204Y-89957420D01*
X233100420Y-90021074D01*
X233098000Y-90027052D01*
X233171572Y-90080561D01*
X233365044Y-90168756D01*
X233637555Y-90273135D01*
X233655532Y-90279510D01*
X233994841Y-90413607D01*
X234193236Y-90535318D01*
X234275627Y-90666545D01*
X234269328Y-90819168D01*
X234224029Y-90857638D01*
X234102158Y-90848880D01*
X233882927Y-90787348D01*
X233545550Y-90667494D01*
X233190398Y-90531278D01*
X232793524Y-90372419D01*
X232451409Y-90228223D01*
X232196496Y-90112890D01*
X232061229Y-90040621D01*
X232051632Y-90032831D01*
X232013036Y-89926791D01*
X232112128Y-89811181D01*
X232359279Y-89677818D01*
X232650386Y-89560350D01*
X233133116Y-89380222D01*
X232592888Y-89173935D01*
X232254878Y-89030926D01*
X232068481Y-88912638D01*
X232020250Y-88805993D01*
X232096740Y-88697913D01*
X232100347Y-88694903D01*
X232215506Y-88632324D01*
X232450059Y-88525539D01*
X232765130Y-88390535D01*
X233121840Y-88243302D01*
X233481313Y-88099830D01*
X233804671Y-87976108D01*
X234053036Y-87888126D01*
X234092834Y-87875437D01*
X234220097Y-87853951D01*
X234273040Y-87923954D01*
G37*
X235993629Y-83119008D02*
X236264973Y-83129056D01*
X236611667Y-83253375D01*
X236684173Y-83279375D01*
X236879778Y-83423149D01*
X236950334Y-83475010D01*
X237010246Y-83519046D01*
X237046019Y-83545341D01*
X237328721Y-83909123D01*
X237510490Y-84352889D01*
X237569538Y-84858807D01*
X237555851Y-85058754D01*
X237448397Y-85472334D01*
X237245828Y-85854945D01*
X236982482Y-86146681D01*
X236897712Y-86206936D01*
X236750950Y-86276317D01*
X236665512Y-86230761D01*
X236632914Y-86178647D01*
X236513417Y-86079041D01*
X236329694Y-86091788D01*
X236106440Y-86147822D01*
X236330075Y-85971911D01*
X236523981Y-85849642D01*
X236685073Y-85796098D01*
X236689766Y-85796000D01*
X236812868Y-85728037D01*
X236960479Y-85563249D01*
X237090016Y-85360288D01*
X237158898Y-85177802D01*
X237161684Y-85145999D01*
X237087853Y-85080283D01*
X236908000Y-85078476D01*
X236717631Y-85076103D01*
X236654410Y-84995387D01*
X236654000Y-84983706D01*
X236586442Y-84859416D01*
X236421611Y-84725366D01*
X236399868Y-84712562D01*
X236377465Y-84695333D01*
X236823334Y-84695333D01*
X236854312Y-84765023D01*
X236879778Y-84751778D01*
X236889911Y-84651298D01*
X236879778Y-84638889D01*
X236829444Y-84650511D01*
X236823334Y-84695333D01*
X236377465Y-84695333D01*
X236240135Y-84589720D01*
X236184867Y-84483667D01*
X236995260Y-84483667D01*
X237037416Y-84622806D01*
X237077334Y-84695333D01*
X237144421Y-84763102D01*
X237159408Y-84737667D01*
X237117251Y-84598527D01*
X237077334Y-84526000D01*
X237010246Y-84458231D01*
X236995260Y-84483667D01*
X236184867Y-84483667D01*
X236181755Y-84477695D01*
X236184504Y-84465211D01*
X236175174Y-84341512D01*
X236151175Y-84317531D01*
X236067969Y-84342764D01*
X235995454Y-84474259D01*
X235963595Y-84650044D01*
X235966195Y-84700080D01*
X235945062Y-84859911D01*
X235873124Y-85089326D01*
X235851071Y-85144580D01*
X235709645Y-85372671D01*
X235523308Y-85455567D01*
X235270459Y-85397098D01*
X235059920Y-85284926D01*
X234778172Y-85113152D01*
X234836426Y-85306409D01*
X234931706Y-85491397D01*
X235095360Y-85708983D01*
X235142147Y-85760593D01*
X235311529Y-85989464D01*
X235336091Y-86160960D01*
X235335416Y-86162760D01*
X235271599Y-86274908D01*
X235183980Y-86280628D01*
X235041607Y-86170355D01*
X234902088Y-86028833D01*
X234563792Y-85572329D01*
X234392282Y-85088862D01*
X234389028Y-84802780D01*
X234798018Y-84802780D01*
X234824562Y-84904207D01*
X234946983Y-84913491D01*
X235024167Y-84897501D01*
X235267406Y-84796046D01*
X235441233Y-84675351D01*
X235599135Y-84572208D01*
X235712448Y-84562017D01*
X235786754Y-84524287D01*
X235866368Y-84357253D01*
X235879363Y-84314333D01*
X236908000Y-84314333D01*
X236950334Y-84356667D01*
X236992667Y-84314333D01*
X236950334Y-84272000D01*
X236908000Y-84314333D01*
X235879363Y-84314333D01*
X235890558Y-84277358D01*
X235982269Y-84042070D01*
X236028524Y-83975667D01*
X236569334Y-83975667D01*
X236611667Y-84018000D01*
X236654000Y-83975667D01*
X236611667Y-83933333D01*
X236569334Y-83975667D01*
X236028524Y-83975667D01*
X236097169Y-83877120D01*
X236127342Y-83854044D01*
X236197232Y-83796783D01*
X236129296Y-83771577D01*
X235993629Y-83766574D01*
X235612889Y-83834589D01*
X235265547Y-84023293D01*
X234990419Y-84299044D01*
X234826322Y-84628202D01*
X234798018Y-84802780D01*
X234389028Y-84802780D01*
X234386417Y-84573227D01*
X234491499Y-84158139D01*
X234731177Y-83715129D01*
X235098988Y-83380135D01*
X235341667Y-83246690D01*
X235810208Y-83112217D01*
X235993629Y-83119008D01*
G36*
X235993629Y-83119008D02*
G01*
X236264973Y-83129056D01*
X236611667Y-83253375D01*
X236684173Y-83279375D01*
X236879778Y-83423149D01*
X236950334Y-83475010D01*
X237010246Y-83519046D01*
X237046019Y-83545341D01*
X237328721Y-83909123D01*
X237510490Y-84352889D01*
X237569538Y-84858807D01*
X237555851Y-85058754D01*
X237448397Y-85472334D01*
X237245828Y-85854945D01*
X236982482Y-86146681D01*
X236897712Y-86206936D01*
X236750950Y-86276317D01*
X236665512Y-86230761D01*
X236632914Y-86178647D01*
X236513417Y-86079041D01*
X236329694Y-86091788D01*
X236106440Y-86147822D01*
X236330075Y-85971911D01*
X236523981Y-85849642D01*
X236685073Y-85796098D01*
X236689766Y-85796000D01*
X236812868Y-85728037D01*
X236960479Y-85563249D01*
X237090016Y-85360288D01*
X237158898Y-85177802D01*
X237161684Y-85145999D01*
X237087853Y-85080283D01*
X236908000Y-85078476D01*
X236717631Y-85076103D01*
X236654410Y-84995387D01*
X236654000Y-84983706D01*
X236586442Y-84859416D01*
X236421611Y-84725366D01*
X236399868Y-84712562D01*
X236377465Y-84695333D01*
X236823334Y-84695333D01*
X236854312Y-84765023D01*
X236879778Y-84751778D01*
X236889911Y-84651298D01*
X236879778Y-84638889D01*
X236829444Y-84650511D01*
X236823334Y-84695333D01*
X236377465Y-84695333D01*
X236240135Y-84589720D01*
X236184867Y-84483667D01*
X236995260Y-84483667D01*
X237037416Y-84622806D01*
X237077334Y-84695333D01*
X237144421Y-84763102D01*
X237159408Y-84737667D01*
X237117251Y-84598527D01*
X237077334Y-84526000D01*
X237010246Y-84458231D01*
X236995260Y-84483667D01*
X236184867Y-84483667D01*
X236181755Y-84477695D01*
X236184504Y-84465211D01*
X236175174Y-84341512D01*
X236151175Y-84317531D01*
X236067969Y-84342764D01*
X235995454Y-84474259D01*
X235963595Y-84650044D01*
X235966195Y-84700080D01*
X235945062Y-84859911D01*
X235873124Y-85089326D01*
X235851071Y-85144580D01*
X235709645Y-85372671D01*
X235523308Y-85455567D01*
X235270459Y-85397098D01*
X235059920Y-85284926D01*
X234778172Y-85113152D01*
X234836426Y-85306409D01*
X234931706Y-85491397D01*
X235095360Y-85708983D01*
X235142147Y-85760593D01*
X235311529Y-85989464D01*
X235336091Y-86160960D01*
X235335416Y-86162760D01*
X235271599Y-86274908D01*
X235183980Y-86280628D01*
X235041607Y-86170355D01*
X234902088Y-86028833D01*
X234563792Y-85572329D01*
X234392282Y-85088862D01*
X234389028Y-84802780D01*
X234798018Y-84802780D01*
X234824562Y-84904207D01*
X234946983Y-84913491D01*
X235024167Y-84897501D01*
X235267406Y-84796046D01*
X235441233Y-84675351D01*
X235599135Y-84572208D01*
X235712448Y-84562017D01*
X235786754Y-84524287D01*
X235866368Y-84357253D01*
X235879363Y-84314333D01*
X236908000Y-84314333D01*
X236950334Y-84356667D01*
X236992667Y-84314333D01*
X236950334Y-84272000D01*
X236908000Y-84314333D01*
X235879363Y-84314333D01*
X235890558Y-84277358D01*
X235982269Y-84042070D01*
X236028524Y-83975667D01*
X236569334Y-83975667D01*
X236611667Y-84018000D01*
X236654000Y-83975667D01*
X236611667Y-83933333D01*
X236569334Y-83975667D01*
X236028524Y-83975667D01*
X236097169Y-83877120D01*
X236127342Y-83854044D01*
X236197232Y-83796783D01*
X236129296Y-83771577D01*
X235993629Y-83766574D01*
X235612889Y-83834589D01*
X235265547Y-84023293D01*
X234990419Y-84299044D01*
X234826322Y-84628202D01*
X234798018Y-84802780D01*
X234389028Y-84802780D01*
X234386417Y-84573227D01*
X234491499Y-84158139D01*
X234731177Y-83715129D01*
X235098988Y-83380135D01*
X235341667Y-83246690D01*
X235810208Y-83112217D01*
X235993629Y-83119008D01*
G37*
D13*
X196435000Y-88905000D02*
X196435000Y-90235000D01*
X195105000Y-88905000D02*
X196435000Y-88905000D01*
X193835000Y-88905000D02*
X191235000Y-88905000D01*
X193835000Y-88905000D02*
X193835000Y-91505000D01*
X191235000Y-88905000D02*
X191235000Y-94105000D01*
X196435000Y-91505000D02*
X196435000Y-94105000D01*
X193835000Y-91505000D02*
X196435000Y-91505000D01*
X196435000Y-94105000D02*
X191235000Y-94105000D01*
D10*
X194762500Y-85060000D02*
X194762500Y-78060000D01*
X199762500Y-83860000D02*
X202262500Y-83860000D01*
X202262500Y-83060000D02*
X202662500Y-83060000D01*
X202662500Y-83060000D02*
X202662500Y-80060000D01*
X202262500Y-80060000D02*
X202662500Y-80060000D01*
X199762500Y-79260000D02*
X202262500Y-79260000D01*
X202262500Y-79260000D02*
X202262500Y-83860000D01*
D13*
X158480000Y-103440000D02*
X158480000Y-102110000D01*
X159810000Y-103440000D02*
X158480000Y-103440000D01*
X161080000Y-103440000D02*
X168760000Y-103440000D01*
X161080000Y-103440000D02*
X161080000Y-100780000D01*
X168760000Y-103440000D02*
X168760000Y-100780000D01*
X161080000Y-100780000D02*
X168760000Y-100780000D01*
X154685023Y-66338630D02*
X153355023Y-66338630D01*
X154685023Y-65008630D02*
X154685023Y-66338630D01*
X154685023Y-63738630D02*
X154685023Y-56058630D01*
X154685023Y-63738630D02*
X152025023Y-63738630D01*
X154685023Y-56058630D02*
X152025023Y-56058630D01*
X152025023Y-63738630D02*
X152025023Y-56058630D01*
X180905000Y-118880000D02*
X180905000Y-102880000D01*
X180905000Y-102880000D02*
X168905000Y-102880000D01*
X180835000Y-118810000D02*
X179505000Y-118810000D01*
X180835000Y-117480000D02*
X180835000Y-118810000D01*
X180835000Y-116210000D02*
X180835000Y-108530000D01*
X180835000Y-116210000D02*
X178175000Y-116210000D01*
X180835000Y-108530000D02*
X178175000Y-108530000D01*
X178175000Y-116210000D02*
X178175000Y-108530000D01*
X168905000Y-118880000D02*
X180905000Y-118880000D01*
X168905000Y-102880000D02*
X168905000Y-118880000D01*
X140180000Y-126210000D02*
X140480000Y-126210000D01*
X140180000Y-126210000D02*
X140180000Y-105210000D01*
X142580000Y-126210000D02*
X142980000Y-126210000D01*
X142847000Y-126210000D02*
X142847000Y-123203000D01*
X145180000Y-126210000D02*
X145580000Y-126210000D01*
X147680000Y-126210000D02*
X148080000Y-126210000D01*
X150280000Y-126210000D02*
X150680000Y-126210000D01*
X152780000Y-126210000D02*
X153180000Y-126210000D01*
X155280000Y-126210000D02*
X155680000Y-126210000D01*
X157880000Y-126210000D02*
X158280000Y-126210000D01*
X160380000Y-126210000D02*
X160780000Y-126210000D01*
X162980000Y-126210000D02*
X163380000Y-126210000D01*
X165480000Y-126210000D02*
X165880000Y-126210000D01*
X167980000Y-126210000D02*
X168380000Y-126210000D01*
X170580000Y-126210000D02*
X170980000Y-126210000D01*
X173080000Y-126210000D02*
X173480000Y-126210000D01*
X175680000Y-126210000D02*
X176080000Y-126210000D01*
X178180000Y-126210000D02*
X178580000Y-126210000D01*
X180780000Y-126210000D02*
X181180000Y-126210000D01*
X183280000Y-126210000D02*
X183680000Y-126210000D01*
X185780000Y-126210000D02*
X186180000Y-126210000D01*
X188380000Y-126210000D02*
X188780000Y-126210000D01*
X142847000Y-123203000D02*
X140180000Y-123203000D01*
X191180000Y-119410000D02*
X191180000Y-126210000D01*
X191180000Y-117210000D02*
X191180000Y-116810000D01*
X191180000Y-114610000D02*
X191180000Y-114210000D01*
X140180000Y-105210000D02*
X140480000Y-105210000D01*
X142580000Y-105210000D02*
X142980000Y-105210000D01*
X145180000Y-105210000D02*
X145580000Y-105210000D01*
X147680000Y-105210000D02*
X148080000Y-105210000D01*
X150280000Y-105210000D02*
X150680000Y-105210000D01*
X152780000Y-105210000D02*
X153180000Y-105210000D01*
X155280000Y-105210000D02*
X155680000Y-105210000D01*
X157880000Y-105210000D02*
X158280000Y-105210000D01*
X160380000Y-105210000D02*
X160780000Y-105210000D01*
X162980000Y-105210000D02*
X163380000Y-105210000D01*
X165480000Y-105210000D02*
X165880000Y-105210000D01*
X167980000Y-105210000D02*
X168380000Y-105210000D01*
X170580000Y-105210000D02*
X170980000Y-105210000D01*
X173080000Y-105210000D02*
X173480000Y-105210000D01*
X175680000Y-105210000D02*
X176080000Y-105210000D01*
X178180000Y-105210000D02*
X178580000Y-105210000D01*
X180780000Y-105210000D02*
X181180000Y-105210000D01*
X183280000Y-105210000D02*
X183680000Y-105210000D01*
X185780000Y-105210000D02*
X186180000Y-105210000D01*
X188380000Y-105210000D02*
X188780000Y-105210000D01*
X191180000Y-105210000D02*
X191180000Y-112010000D01*
X170525023Y-35078630D02*
X171855023Y-35078630D01*
X170525023Y-36408630D02*
X170525023Y-35078630D01*
X170525023Y-37678630D02*
X170525023Y-45358630D01*
X170525023Y-37678630D02*
X173185023Y-37678630D01*
X170525023Y-45358630D02*
X173185023Y-45358630D01*
X173185023Y-37678630D02*
X173185023Y-45358630D01*
D10*
X170355023Y-52258630D02*
X170355023Y-50758630D01*
X173355023Y-52258630D02*
X170355023Y-52258630D01*
X170355023Y-50758630D02*
X170355023Y-49258630D01*
X170355023Y-49258630D02*
X173355023Y-49258630D01*
X173355023Y-49258630D02*
X173355023Y-52258630D01*
D13*
X200585000Y-67005000D02*
X200585000Y-68335000D01*
X199255000Y-67005000D02*
X200585000Y-67005000D01*
X197985000Y-67005000D02*
X197925000Y-67005000D01*
X197985000Y-67005000D02*
X197985000Y-69665000D01*
X197925000Y-67005000D02*
X197925000Y-69665000D01*
X197985000Y-69665000D02*
X197925000Y-69665000D01*
X206960000Y-67005000D02*
X206960000Y-68335000D01*
X205630000Y-67005000D02*
X206960000Y-67005000D01*
X204360000Y-67005000D02*
X204300000Y-67005000D01*
X204360000Y-67005000D02*
X204360000Y-69665000D01*
X204300000Y-67005000D02*
X204300000Y-69665000D01*
X204360000Y-69665000D02*
X204300000Y-69665000D01*
D10*
X154860000Y-49250000D02*
X151860000Y-49250000D01*
X151860000Y-49250000D02*
X151860000Y-52250000D01*
X154435000Y-49975000D02*
X154660000Y-49975000D01*
X153360000Y-50000000D02*
X153360000Y-51575000D01*
X154560000Y-50100000D02*
X154560000Y-49825000D01*
X154860000Y-52250000D02*
X154860000Y-49250000D01*
X151860000Y-52250000D02*
X154860000Y-52250000D01*
X155511777Y-49400000D02*
G75*
G03*
X155511777Y-49400000I-176777J0D01*
G01*
D13*
X150560000Y-79850000D02*
X149560000Y-79850000D01*
X149560000Y-79850000D02*
X150060000Y-80350000D01*
X150060000Y-80350000D02*
X150560000Y-79850000D01*
X153850000Y-80430000D02*
X137110000Y-80430000D01*
X153850000Y-96150000D02*
X153850000Y-80430000D01*
X153850000Y-96160000D02*
X137110000Y-96160000D01*
X137110000Y-96160000D02*
X137110000Y-80430000D01*
D14*
X196162500Y-85060000D03*
D15*
X198662500Y-83810000D03*
D14*
X196162500Y-78060000D03*
D15*
X198662500Y-79310000D03*
D16*
X143710000Y-82580000D03*
X143710000Y-94010000D03*
M02*
